<?xml version="1.0" encoding="UTF-8" standalone="no"?>
<!-- Created with Inkscape (http://www.inkscape.org/) -->

<svg
   xmlns:dc="http://purl.org/dc/elements/1.1/"
   xmlns:cc="http://creativecommons.org/ns#"
   xmlns:rdf="http://www.w3.org/1999/02/22-rdf-syntax-ns#"
   xmlns:svg="http://www.w3.org/2000/svg"
   xmlns="http://www.w3.org/2000/svg"
   version="1.1"
   width="480"
   height="240"
   id="Flag of Dubai">
  <metadata
     id="metadata11">
    <rdf:RDF>
      <cc:Work
         rdf:about="">
        <dc:format>image/svg+xml</dc:format>
        <dc:type
           rdf:resource="http://purl.org/dc/dcmitype/StillImage" />
        <dc:title></dc:title>
      </cc:Work>
    </rdf:RDF>
  </metadata>
  <defs
     id="defs9" />
  <rect
     width="480"
     height="240"
     x="0"
     y="0"
     id="rect3"
     style="fill:#bf0000" />
  <path
     d="m 173.6784,157.03999 c 0.50261,-0.27923 1.4532,-2.65809 2.45221,-3.91904 3.8596,-4.87162 5.80282,-10.25172 1.49491,-17.85299 -0.99816,-2.80047 -1.58101,-6.25719 -1.38249,-7.65117 0.71358,-5.01085 6.33793,-3.11718 9.65077,3.24936 l 1.2949,2.13364 25.91295,0 0.0783,-6.28295 0.0783,-4.71705 8.13827,0 0,2.51284 c 0,1.90159 0.5152,4.42012 1.1449,5.59672 l 1.14491,2.89044 33.30551,0 -2.05133,-4.34564 c -1.1505,-2.43727 -4.03843,-4.6091 -7.84375,-6.29427 l -6.09649,-2.69981 0,-7.41928 4.4516,0.72645 c 8.7225,1.42341 18.13158,9.13506 19.60056,15.82326 l 0.70961,3.23083 6.20979,0.0742 6.20978,0.0742 -2.40173,-1.68223 c -2.62883,-1.84131 -3.04548,-5.24961 -1.22656,-10.03374 1.49383,-3.92904 2.84744,-4.75706 7.811,-4.77803 7.60823,-0.0322 10.41941,1.09048 12.52597,5.00213 1.89783,3.52405 1.90827,5.15019 0.0618,9.63531 l -0.7968,1.93549 5.01628,0 c 7.80796,0 8.15927,-0.41255 10.26775,-13.34739 0.69152,-4.24227 1.50853,-16.47117 1.52058,-21.14955 0.012,-4.67839 0.47833,-8.78824 1.03618,-9.13302 0.55785,-0.34476 3.21921,-0.92907 5.91413,-1.29845 l 4.89987,-0.6716 4.11072,7.45622 c -7.41333,3.7281 -6.53428,6.70112 -6.65557,20.29024 -0.56896,19.06034 -6.97185,27.60468 -16.25949,27.60468 l -5.13047,0 -32.1331,0 c 0,3.00865 3.28596,4.83352 9.72402,5.41731 l 6.53408,0.62257 0,5.22273 -5.78672,0 c -9.6201,0 -19.31931,-5.18106 -19.31931,-10.31985 l 0,-0.94276 -68.29493,0 -0.68921,3.64908 c -0.87813,4.64932 -6.16289,11.22966 -9.92788,11.22966 -1.56266,0.0695 -5.90688,1.36757 -5.30382,0.16146 z m 114.13713,-28.77349 1.53927,-2.87616 -2.11676,-1.54781 c -1.16422,-0.85129 -2.75871,-1.54781 -3.5433,-1.54781 -2.03966,0 -3.09677,5.22719 -1.45674,7.20331 2.00728,2.41862 3.84067,2.01381 5.57753,-1.23153 z m -153.79222,26.42686 c -3.73481,-1.36528 -6.63594,-5.18655 -6.63594,-8.74062 0,-4.89059 1.36421,-7.95659 5.75723,-12.93907 l 3.71363,-4.21191 2.73001,1.08443 c 4.35544,1.7301 8.43039,6.26373 10.49932,11.68115 l 1.9167,5.01879 -1.35299,3.26638 c -1.8996,4.58606 -10.48644,7.08592 -16.62796,4.84085 z m 7.11694,-4.7215 c 3.4182,-1.29959 3.74545,-4.88788 0.90149,-9.88467 -2.21463,-3.89106 -3.16835,-4.14305 -5.99586,-1.58419 -3.35054,3.03221 -2.25505,12.54748 1.4446,12.54748 0.44704,0 2.08944,-0.48537 3.64977,-1.07862 z m 72.04466,2.27662 c -3.59919,-3.97707 1.98398,-9.19527 5.77849,-5.40076 1.8025,1.8025 1.66738,3.70458 -0.41079,5.78275 -2.2467,2.2467 -3.03984,2.19026 -5.3677,-0.38199 z m 14.32431,0.13954 c -1.53538,-4.00116 2.02452,-7.59317 6.20907,-6.26505 1.38845,0.44068 2.05617,1.70588 2.05617,3.89605 0,3.44577 -0.0333,3.47306 -4.64569,3.80391 -1.783,0.1279 -3.24176,-0.45041 -3.61955,-1.43491 z m 117.7552,-15.34676 c -0.002,-6.58986 -0.32875,-21.29897 -0.72675,-32.68692 l -0.72362,-20.70536 1.83521,-0.70424 c 1.00937,-0.38733 2.97419,-0.41838 4.36625,-0.069 l 2.53103,0.63524 1.33746,7.79949 c 1.61322,9.40756 1.70774,29.77825 0.18701,40.2998 -1.10534,7.64741 -4.80873,16.11253 -7.42097,16.96264 -1.04848,0.34121 -1.38324,-2.44486 -1.38562,-11.53165 z M 125.33109,121.92935 c -1.4451,-1.74125 -0.71184,-4.71451 1.35863,-5.50903 0.73882,-0.28351 2.30686,0.18909 3.48453,1.05022 1.68603,1.23286 1.88609,1.97085 0.94111,3.47144 -1.57528,2.5015 -4.16129,2.94292 -5.78427,0.98737 z m 17.65649,-0.0474 c -1.52698,-1.83989 -0.5979,-4.6957 1.83087,-5.6277 2.38957,-0.91697 6.09273,2.87102 5.16648,5.28481 -0.86076,2.24308 -5.24215,2.45778 -6.99735,0.34289 z m 137.27261,-20.11072 c -3.98596,-2.79187 -2.96791,-9.33821 1.45222,-9.33821 2.76957,0 6.04362,2.62602 6.04362,4.84741 0,1.1373 -3.9,6.2125 -4.77395,6.2125 -0.14511,0 -1.36996,-0.77477 -2.72189,-1.7217 z"
     id="path3014"
     style="fill:#ffffff;fill-opacity:1" />
</svg>
