<?xml version="1.0" encoding="UTF-8"?>
<svg xmlns="http://www.w3.org/2000/svg" width="450" height="300">
<rect width="450" height="300" fill="#000"/>
<rect width="450" height="150" fill="#cc092f"/>
<path fill="#ffcb00" fill-rule="evenodd" d="M195.42922 102.89862h18.32163l5.55608-17.268785 5.70528 17.268785h18.31976l-14.71642 10.96295 5.70433 17.56719-15.01295-10.66174-14.86563 10.66174 5.70528-17.56719z"/>
<path fill="#ffcb00" fill-rule="evenodd" d="M262.40054 197.35286l-14.41333-11.26511c14.56347-11.8619 24.02598-30.03153 24.02598-50.30215 0-30.9333-22.0723-56.912022-51.20581-63.068655l2.25209-10.512534c4.05468.901769 8.81221 2.608665 12.71582 3.958036l3.75535-6.303954c4.05 1.949924 8.55885 3.901734 12.31045 6.303954l-2.8517 6.759065c3.75535 2.404099 8.28767 6.125666 10.80812 9.05619l5.63865-4.404702c3.00372 3.302117 6.60893 6.753435 9.16129 10.360526l-5.10566 5.255799c3.29742 4.8401 4.57173 7.067785 7.0021 12.643565l7.16349-1.67968c1.35315 4.2039 3.40726 9.35084 4.15981 13.70393l-6.7825 2.6659c.80976 3.38282 1.85888 9.29172 1.79132 14.26226-.00563.29934-.02815.63809-.02815.9393l7.08372 1.01063c-.30023 4.35591-.44852 9.31236-1.35217 13.66639h-7.35678c-1.05003 4.50229-2.40508 10.00957-4.05474 14.21252l6.15382 3.60615c-1.95087 3.90267-3.89983 8.55886-6.45405 12.31326l-6.75722-2.8517c-2.55518 3.75253-5.405 7.35493-8.55885 10.6608l4.35309 5.70528c-1.19924 1.05003-2.25115 2.10195-3.45414 3.30493m-31.68118-1.35218l10.88601 6.56012c-1.01532.92805-4.05563 2.50263-4.86168 2.82168l1.78008 6.8332c-4.20389 1.35406-8.70993 3.30399-13.36236 4.20576l-2.7025-6.75625c-4.35496.8999-8.70806 1.49952-13.21316 1.49952l-.90365 7.05746c-4.20295-.29934-9.30861 0-13.96385-1.05098v-7.05558c-4.20577-.75257-8.25952-1.80261-12.16219-3.15573l-3.45507 6.16132c-3.60333-1.50514-8.40777-3.30774-12.3142-5.70809l2.55423-6.75719c-3.15479-1.65341-6.00743-3.75441-8.70993-5.86011l6.75719-8.55885c11.11309 8.861 25.07694 14.11399 40.39392 14.11399 8.11032 0 16.0658-1.34844 23.27716-4.35027"/>
<path fill="#ffcb00" fill-rule="evenodd" d="M276.09603 213.40553l-71.86492-54.6909-.65498.93274 71.68006 54.78661-4.25457 5.32336-69.8765-44.82021c-18.91938-11.86285-18.16868-21.17145-14.26413-31.23263l3.30398-8.10845c1.80261 10.5116 12.61167 18.47178 23.87397 27.32903l63.45716 48.74822zm18.04198 16.30039c-.6165 0-1.11478-.49921-1.11478-1.11948 0-.61556.49828-1.11572 1.11478-1.11572.61841 0 1.12041.50016 1.12041 1.11572 0 .62027-.502 1.11948-1.12041 1.11948m-4.29493-3.15386c-.61552 0-1.11851-.50108-1.11851-1.11759 0-.61839.50299-1.11854 1.11851-1.11854.61651 0 1.1176.50015 1.1176 1.11854 0 .61651-.50109 1.11759-1.1176 1.11759m-4.39529-3.50293c-.6156 0-1.1176-.50014-1.1176-1.11572 0-.61744.502-1.11853 1.1176-1.11853.61742 0 1.11759.50109 1.11759 1.11853 0 .61558-.50017 1.11572-1.11759 1.11572m14.77739 6.1998l-21.53273-16.6823-6.25701 8.06339 18.7054 13.11745c1.50235 1.05003 1.64965 5.85917 7.20294 6.6108 2.2568.2984 3.75443-1.355 3.75443-1.355 2.42001-2.94554 1.76036-7.00116-1.87303-9.75434"/>
</svg>
