<?xml version="1.0" encoding="UTF-8"?>
<svg xmlns="http://www.w3.org/2000/svg" xmlns:xlink="http://www.w3.org/1999/xlink" width="564" height="400">
<rect width="564" height="400" fill="#9c2941"/>
<rect width="564" height="40" y="40" fill="#000"/>
<rect width="564" height="40" y="320" fill="#000"/>
<g transform="translate(282,200)">
<ellipse rx="54" ry="70" fill="#73c6f1" stroke="#fecd00" stroke-width="4"/>
<path d="M0,-50 -43.30127,25H43.30127zM0,50 43.30127,-25H-43.30127z" fill="#ececec"/>
<circle r="25" fill="#73c6f1"/>
<g fill="#ebb34b" transform="scale(0.3)">
<g id="r4">
<g id="r1">
<path stroke="#873b27" stroke-width="1.11155" d="M-3.16,1.30834l28.45401,61.992c0,0 .4896,1.18503 1.27998,.8586c.7902,-.3267 .2988,-1.51164 .2988,-1.51164l-23.71492,-63.95563M2.47668,22.80967c-.3465,9.42784 5.45265,14.61287 4.69431,23.03151c-.7569,8.41995 3.8673,13.1798 4.93965,16.45406c1.07334,3.27438 -1.16001,5.23233 -.198,5.69817c.96336,.4662 3.06999,-2.12067 2.38329,-6.77556c-.68675,-4.65491 -4.22042,-6.03678 -3.38975,-16.32024c.83,-10.28346 -4.206,-12.67847 -2.98,-22.05773"/>
<path fill="#873b27" d="M4.31001,24.41201c.45334,9.0538 5.58667,13.063 4.57867,21.31364c2.21333,-6.52494 -3.12333,-11.58267 -2.82,-21.22047m-7.64867,-23.75657l19.487,42.57733 -16.32933,-43.887"/>
</g>
<use xlink:href="#r1" transform="rotate(22.5)"/>
<use xlink:href="#r1" transform="rotate(45)"/>
<use xlink:href="#r1" transform="rotate(67.5)"/>
</g>
<use xlink:href="#r4" transform="rotate(90)"/>
<use xlink:href="#r4" transform="rotate(180)"/>
<use xlink:href="#r4" transform="rotate(270)"/>
<circle r="27.77777" stroke="#873b27" stroke-width="1.5"/>
<g fill="#873b27">
<g id="eye">
<path d="m-17.27,-5.983c4.91463,-4.27293 11.11033,-4.91472 14.53033,-1.70865 0.837,1.12068 1.37331,2.31903 1.59336,3.56958 0.4302,2.43297 -0.3303,5.06169 -2.23668,7.75593 0.2151,-0.001 0.6435,0.2124 0.8568,0.4266 1.69668,-3.24405 2.29671,-6.57612 1.73997,-9.74541 -0.1458,-0.828 -0.3735,-1.64295 -0.6696,-2.43567 -4.7007,-3.84516 -11.11034,-4.27293 -15.81101,2.13768z"/>
<path d="m-9.58,-7.265c2.77668,0 3.41865,0.6417 4.7007,1.71 1.28331,1.0683 1.9233,0.8541 2.13669,1.0683 0.2124,0.2142 0,0.8541 -0.4266,0.6399 -0.4266,-0.2142 -1.28331,-0.6399 -2.56329,-1.70865 -1.28331,-1.06965 -2.56329,-1.0683 -3.84633,-1.0683 -3.84633,0 -5.98302,3.20463 -6.40935,2.9907 -0.4266,-0.2142 2.13669,-3.63249 6.40935,-3.63249z"/>
<path d="m-14.70666,-2.56432c3.63267,2.7783 7.26498,2.56437 9.40167,1.28196 2.13669,-1.28196 2.13669,-1.70865 1.71,-1.70865 -0.4266,0 -0.8532,0.4266 -2.56329,1.28097 -1.71,0.8559 -4.27302,0.8559 -8.54604,-0.8541 z"/>
<path d="m-9.46875,-5.9375c1.89671,3e-5 3.7131,0.82183 4.78125,2.53125 -2.13669,1.92267 -6.85647,2.13178 -10.0625,-0.21875 1.38834,-1.49535 3.38454,-2.31253 5.28125,-2.3125zm0.0312,0.4375c-1.84617,-0.0335 -3.57173,0.81446 -3.8125,1.65625 2.13669,2.35035 5.55081,2.14633 7.6875,0.4375 -0.9348,-1.49566 -2.43909,-2.06767 -3.875,-2.09375z"/>
<circle cx="-9.462" cy="-3.846" r="1.923"/>
</g>
<use xlink:href="#eye" transform="scale(-1,1)"/>
<path d="m-4.25,3.84375c-0.91341,0.16668 -1.5625,0.97727 -1.5625,1.90625 0,1.06137 0.87748,1.90625 1.9375,1.90625 0.62667,0 1.2025,-0.2968 1.5625,-0.8125 0.73952,0.55614 1.76459,0.61511 2.3125,0.625 0.0843,0.002 0.19312,0 0.25,0 0.54791,-0.01 1.57298,-0.0689 2.3125,-0.625 0.36,0.5157 0.93583,0.8125 1.5625,0.8125 1.06002,0 1.9375,-0.84488 1.9375,-1.90625 0,-0.92898 -0.64918,-1.73957 -1.5625,-1.90625 0.513,0.1809 0.84375,0.6765 0.84375,1.21875 0,0.7074 -0.57124,1.28125 -1.28125,1.28125 -0.6804,0 -1.24129,-0.54015 -1.28125,-1.21875 -0.20862,0.41637 -1.03409,1.65514 -2.65625,1.71875 -1.62216,-0.0636 -2.44763,-1.30238 -2.65625,-1.71875 -0.04,0.6786 -0.60085,1.21875 -1.28125,1.21875 -0.71001,0 -1.28125,-0.57385 -1.28125,-1.28125 0,-0.54225 0.33075,-1.03785 0.84375,-1.21875z"/>
<path d="m-2.15625,9.53125c-2.138,0 -2.98291,1.93675 -4.90625,3.21875 1.06867,-0.42633 1.90958,-1.26933 3.40625,-2.125 1.496,-0.85442 2.77166,0.1875 3.625,0.1875l0.0312,0c0.8532,0 2.12902,-1.0416 3.625,-0.1875 1.4967,0.8559 2.36884,1.69867 3.4375,2.125 -1.9233,-1.28196 -2.79955,-3.21875 -4.9375,-3.21875 -0.4266,0 -1.27162,0.23055 -2.125,0.65625l-0.0312,0c-0.85334,-0.42642 -1.69833,-0.65625 -2.125,-0.65625z"/>
<path d="m-2.875,12.0625c-0.8439,0.0374 -1.95962,0.20675 -3.5625,0.6875 3.84734,-0.85434 4.69625,0.4375 6.40625,0.4375l0.0312,0c1.71,0 2.55884,-1.29205 6.40625,-0.4375 -4.27437,-1.28196 -5.1242,-0.4375 -6.40625,-0.4375 l -0.0312,0 c -0.80125,0 -1.43724,-0.3124 -2.84375,-0.25z"/>
<path d="m-6.25,12.71875c-0.24819,0.003 -0.51871,0.005 -0.8125,0.0312 4.488,0.42766 2.33058,3 7.03125,3l0.0312,0c4.7007,0 2.57447,-2.57241 7.0625,-3 -4.7007,-0.4266 -3.21455,2.34375 -7.0625,2.34375 l -0.0312,0 c -3.6075,0 -2.49593,-2.42147 -6.21875,-2.375z"/>
<path d="m3.84668,19.65734c0,-2.12337 -1.72332,-3.84651 -3.84633,-3.84651 -2.12328,0 -3.84633,1.72296 -3.84633,3.84651 0.423,-1.78101 2.01663,-3.0393 3.84633,-3.0393 1.8333,0 3.42396,1.25865 3.84633,3.0393"/>
</g>
</g>
<g id="s">
<path d="M0,80 -8.66025,95H8.66025zM0,100 8.66025,85H-8.66025z" fill="#fecd00"/>
<circle cy="90" r="5" fill="#9c2941"/>
</g>
<use xlink:href="#s" transform="translate(3.777,0) rotate(15.652)"/>
<use xlink:href="#s" transform="translate(7.274,0) rotate(31.304)"/>
<use xlink:href="#s" transform="translate(10.232,0) rotate(46.957)"/>
<use xlink:href="#s" transform="translate(12.430,0) rotate(62.609)"/>
<use xlink:href="#s" transform="translate(13.707,0) rotate(78.261)"/>
<use xlink:href="#s" transform="translate(13.967,0) rotate(93.913)"/>
<use xlink:href="#s" transform="translate(13.192,0) rotate(109.565)"/>
<use xlink:href="#s" transform="translate(11.438,0) rotate(125.217)"/>
<use xlink:href="#s" transform="translate(8.835,0) rotate(140.87)"/>
<use xlink:href="#s" transform="translate(5.578,0) rotate(156.522)"/>
<use xlink:href="#s" transform="translate(1.906,0) rotate(172.174)"/>
<use xlink:href="#s" transform="translate(-1.906,0) rotate(187.826)"/>
<use xlink:href="#s" transform="translate(-5.578,0) rotate(203.478)"/>
<use xlink:href="#s" transform="translate(-8.835,0) rotate(219.13)"/>
<use xlink:href="#s" transform="translate(-11.438,0) rotate(234.783)"/>
<use xlink:href="#s" transform="translate(-13.192,0) rotate(250.435)"/>
<use xlink:href="#s" transform="translate(-13.967,0) rotate(266.087)"/>
<use xlink:href="#s" transform="translate(-13.707,0) rotate(281.739)"/>
<use xlink:href="#s" transform="translate(-12.430,0) rotate(297.391)"/>
<use xlink:href="#s" transform="translate(-10.232,0) rotate(313.043)"/>
<use xlink:href="#s" transform="translate(-7.274,0) rotate(328.696)"/>
<use xlink:href="#s" transform="translate(-3.777,0) rotate(344.348)"/>
</g>
</svg>
