<?xml version="1.0" encoding="UTF-8" standalone="no" ?>
<!DOCTYPE svg PUBLIC "-//W3C//DTD SVG 1.1//EN" "http://www.w3.org/Graphics/SVG/1.1/DTD/svg11.dtd">
<svg xmlns="http://www.w3.org/2000/svg" xmlns:xlink="http://www.w3.org/1999/xlink" version="1.1" width="1400" height="900" viewBox="0 0 1400 900" xml:space="preserve">
<desc>Created with Fabric.js 3.6.3</desc>
<defs>
</defs>
<g transform="matrix(1 0 0 1 700 450)"  >
<g style=""   >
		<g transform="matrix(1 0 0 1 0 -15.42)" id="rect13948"  >
<rect style="stroke: none; stroke-width: 2.42287; stroke-dasharray: none; stroke-linecap: butt; stroke-dashoffset: 0; stroke-linejoin: miter; stroke-miterlimit: 4; fill: rgb(63,145,217); fill-rule: nonzero; opacity: 1;"  x="-700" y="-434.57828" rx="0" ry="0" width="1400" height="869.15656" />
</g>
		<g transform="matrix(1 0 0 1 0 5.66)" id="path13950"  >
<path style="stroke: none; stroke-width: 2.38726; stroke-dasharray: none; stroke-linecap: butt; stroke-dashoffset: 0; stroke-linejoin: miter; stroke-miterlimit: 4; fill: rgb(255,251,0); fill-rule: nonzero; opacity: 1;"  transform=" translate(-714.28, -447.17)" d="m 507.33376 496.09921 c -29.78825 -11.50898 -61.78233 -50.98474 -61.78233 -50.98474 l 104.65516 -0.56101 c 0 0 -18.9668 -14.6912 -45.76619 -25.58667 c -15.45991 -6.28566 -40.01767 -7.44109 -48.34205 -13.72675 c -22.75538 -17.18351 -5.39521 -25.67022 -5.39521 -25.67022 c 0 0 13.88431 17.57263 51.94681 11.94347 c 14.08246 -2.08408 46.5516 0.59681 46.5516 0.59681 c 0 0 -17.47714 -6.18062 -27.45351 -13.12994 c -9.97636 -6.94932 -35.80653 -32.82723 -35.80653 -32.82723 c 0 0 26.78746 10.55408 42.37389 9.54904 c 15.58643 -1.00503 32.0466 -2.53288 32.0466 -2.53288 c 0 0 -7.94242 -9.22677 -11.15806 -24.92062 c -2.47082 -12.04851 5.14932 -29.98162 -7.7586 -43.56753 c -11.33949 -11.93631 -33.88002 -22.89145 -33.88002 -22.89145 c 0 0 39.84817 -3.96524 63.12397 13.93922 c 14.7867 11.3753 32.31875 42.92058 32.31875 42.92058 c 0 0 5.87744 -20.83841 5.28062 -35.75879 c -0.59681 -14.92039 -3.25145 -31.25403 -3.25145 -31.25403 c 0 0 17.57502 6.18778 24.73681 19.91453 c 7.16178 13.72676 11.81455 26.78985 11.81455 26.78985 c 0 0 -2.89097 -40.37575 0.10743 -68.56692 c 2.7358 -25.72752 -4.62651 -46.4585 -1.79999 -44.98795 c 28.79276 14.99678 27.3413 40.73385 39.58795 68.98231 c 8.90688 20.54716 15.59598 29.39197 15.59598 29.39197 c 0 0 8.85674 -9.41775 13.19679 -20.99358 c 1.7976 -4.7984 -10.196 -39.58796 4.19919 -38.98876 c 2.39681 0.10027 -4.7984 11.39679 8.99759 23.39278 c 11.53763 10.03366 13.19439 24.59357 13.19439 24.59357 c 0 0 1.8 -14.99678 12.59758 -28.79276 c 23.49782 -30.02459 11.99599 -56.38474 35.38877 -52.78474 c 1.35357 0.20769 -5.17797 8.13817 -4.1992 17.99517 c 1.32971 13.37822 7.1976 18.59438 2.3992 39.58796 c -3.97001 17.38643 -1.27957 44.67283 -1.27957 44.67283 c 0 0 8.95223 -1.79045 14.92038 -18.50128 c 5.96816 -16.71083 21.73363 -13.58352 21.73363 -13.58352 c 0 0 -10.36071 13.90819 -5.02279 22.53575 c 7.7586 12.53312 2.38726 27.45351 2.38726 27.45351 c 0 0 22.03681 -18.79969 48.93886 -17.90446 c 17.90446 0.59681 42.37389 -41.77708 42.37389 -41.77708 c 0 0 1.6496 38.40149 -17.30764 59.08472 c -19.69491 21.48536 -44.97124 35.89726 -44.97124 35.89726 c 0 0 16.92091 9.43684 31.24448 8.8639 c 14.32357 -0.57294 39.38982 -11.93631 39.38982 -11.93631 c 0 0 -8.99282 16.66786 -20.29173 27.45351 c -11.2989 10.78565 -28.05032 20.88854 -28.05032 20.88854 c 0 0 34.01848 -7.23818 57.89109 4.73632 c 23.87262 11.97451 53.8423 6.85144 53.8423 6.85144 c 0 0 -0.12652 20.83364 -31.16331 21.23708 c -45.95479 0.59682 -63.26005 18.96918 -63.26005 18.96918 l 101.97188 -0.5992 c 0 0 -21.93893 35.33147 -55.78553 53.38394 c -17.99279 9.59918 -55.18393 8.39839 -55.18393 8.39839 c 0 0 22.81505 18.86892 29.39435 33.59116 c 12.59519 28.19117 11.07689 84.3324 11.07689 84.3324 c 0 0 -48.86724 11.6379 -83.0576 4.44031 c -30.40417 -6.40025 -50.96804 -32.87259 -50.96804 -32.87259 c 0 0 4.83659 36.68504 -9.0143 57.46377 c -14.39518 21.59278 -56.98423 59.38313 -56.98423 59.38313 c 0 0 -31.1845 -26.90205 -53.98523 -49.18714 c -26.39357 -25.79436 -16.792 -67.18231 -16.792 -67.18231 c 0 0 -4.80079 11.99599 -35.99275 23.99436 c -31.19195 11.99838 -97.77268 2.3992 -97.77268 2.3992 c 0 0 2.3992 -52.18554 11.39679 -80.9783 c 8.99759 -28.79276 34.19036 -41.98715 34.19036 -41.98715 c 0 0 -20.99597 9.60395 -47.38953 -0.59205 z" stroke-linecap="round" />
</g>
		<g transform="matrix(1 0 0 1 -1.85 65.26)" id="path13952"  >
<path style="stroke: none; stroke-width: 2.38726; stroke-dasharray: none; stroke-linecap: butt; stroke-dashoffset: 0; stroke-linejoin: miter; stroke-miterlimit: 4; fill: rgb(255,0,0); fill-rule: nonzero; opacity: 1;"  transform=" translate(-712.44, -506.75)" d="m 844.03074 440.60016 c 0 0 0.59682 0.0955 0.59682 0.14801 c 0.59681 76.69078 -59.18499 132.19461 -132.19461 132.19461 c -73.00962 0 -132.19461 -59.18738 -132.19461 -132.19461 c 0 -0.0692 1.78806 -0.19098 1.78806 -0.19098 z" stroke-linecap="round" />
</g>
		<g transform="matrix(1 0 0 1 0 225)" id="path13954"  >
<path style="stroke: none; stroke-width: 2.38726; stroke-dasharray: none; stroke-linecap: butt; stroke-dashoffset: 0; stroke-linejoin: miter; stroke-miterlimit: 4; fill: rgb(0,125,82); fill-rule: nonzero; opacity: 1;"  transform=" translate(-700, -675)" d="M 0 900 V 450 h 380.5965 c 0.2985 13.07981 1.4157 22.37177 3.2945 34.998 l -66.7625 49.032 c 6.1854 24.3071 14.6982 47.68124 25.2785 69.878 l 78.6725 -11.812 c 7.04003 12.28962 14.89126 24.0541 23.5045 35.205 l -40.7935 68.39 c 15.87768 17.61799 33.3742 33.74155 52.2455 48.163 l 70.1305 -42.851 c 10.37504 6.44561 21.16099 12.29154 32.3095 17.491 l -2.5565 80.36 c 22.67659 8.36258 46.36273 14.62253 70.825 18.583 l 40.2875 -70.978 c 7.083 0.487 25.15536 0.75148 32.3625 0.75148 c 6.56975 0 27.10691 -0.34564 33.574 -0.75148 l 40.2875 70.978 c 24.36917 -3.70265 48.19138 -10.51644 70.825 -18.583 l -2.5565 -80.36 c 11.20581 -5.12306 21.87478 -11.11223 32.3095 -17.491 l 70.1305 42.851 c 19.38933 -14.43338 35.92379 -30.39699 52.2455 -48.163 l -40.7935 -68.39 c 8.79468 -11.30607 16.33078 -22.71484 23.5045 -35.205 l 78.6725 11.812 c 10.122 -21.70021 19.3318 -46.19637 25.2785 -69.878 l -66.7625 -49.032 c 2.1175 -13.44028 2.9746 -21.0373 3.2945 -34.998 h 380.5965 V 899.99523 H 0 Z" stroke-linecap="round" />
</g>
		<g transform="matrix(1 0 0 1 -171.01 -163.92)" id="path13956"  >
<path style="stroke: none; stroke-width: 2.38726; stroke-dasharray: none; stroke-linecap: butt; stroke-dashoffset: 0; stroke-linejoin: miter; stroke-miterlimit: 4; fill: rgb(0,125,82); fill-rule: nonzero; opacity: 1;"  transform=" translate(-529.31, -280.9)" d="m 380.91632 444.82322 c -0.52997 -7.35992 -0.81167 -14.78669 -0.81167 -22.28031 c 0 -167.96295 135.52484 -304.2541 303.18222 -305.53845 c -0.79734 -0.005 -1.58991 -0.031 -2.38726 -0.031 c -168.76029 0 -305.56948 136.80919 -305.56948 305.56948 c 0 7.49362 0.28408 14.92039 0.81167 22.28031 z" stroke-linecap="round" />
</g>
		<g transform="matrix(1 0 0 1 -346.57 -68.76)" id="path13958"  >
<path style="stroke: none; stroke-width: 2.38726; stroke-dasharray: none; stroke-linecap: butt; stroke-dashoffset: 0; stroke-linejoin: miter; stroke-miterlimit: 4; fill: rgb(0,125,82); fill-rule: nonzero; opacity: 1;"  transform=" translate(-353.75, -376.06)" d="m 376.61925 391.5849 c 1.0862 11.71668 -2.74296 30.73122 -22.58349 30.44952 c -15.99704 -0.22679 -24.2331 -16.47926 -23.25193 -33.34765 c 1.22705 -21.12488 17.89252 -58.59773 17.89252 -58.59773 c 0 0 26.13813 41.9991 27.9429 61.49586 z" stroke-linecap="round" />
</g>
		<g transform="matrix(1 0 0 1 -306.11 -200.54)" id="path13960"  >
<path style="stroke: none; stroke-width: 2.38726; stroke-dasharray: none; stroke-linecap: butt; stroke-dashoffset: 0; stroke-linejoin: miter; stroke-miterlimit: 4; fill: rgb(0,125,82); fill-rule: nonzero; opacity: 1;"  transform=" translate(-394.21, -244.28)" d="m 416.0592 267.12263 c -3.36843 11.27504 -14.018 27.48216 -32.31875 19.81427 c -14.75566 -6.183 -16.32648 -24.33574 -9.11934 -39.61899 c 9.02624 -19.13867 38.48027 -47.67839 38.48027 -47.67839 c 0 0 8.5655 48.72162 2.95782 67.48311 z" stroke-linecap="round" />
</g>
		<g transform="matrix(1 0 0 1 -225.99 -288.91)" id="path13962"  >
<path style="stroke: none; stroke-width: 2.38726; stroke-dasharray: none; stroke-linecap: butt; stroke-dashoffset: 0; stroke-linejoin: miter; stroke-miterlimit: 4; fill: rgb(0,125,82); fill-rule: nonzero; opacity: 1;"  transform=" translate(-474.33, -155.92)" d="m 491.45608 180.72048 c -5.55993 10.37026 -19.24371 24.11611 -35.63465 12.93418 c -13.21588 -9.0143 -11.11748 -27.11452 -0.9931 -40.64313 c 12.67874 -16.93762 47.25584 -38.99592 47.25584 -38.99592 c 0 0 -1.37268 49.44974 -10.62809 66.70487 z" stroke-linecap="round" />
</g>
		<g transform="matrix(1 0 0 1 -108 -342.49)" id="path13964"  >
<path style="stroke: none; stroke-width: 2.38726; stroke-dasharray: none; stroke-linecap: butt; stroke-dashoffset: 0; stroke-linejoin: miter; stroke-miterlimit: 4; fill: rgb(0,125,82); fill-rule: nonzero; opacity: 1;"  transform=" translate(-592.32, -102.33)" d="m 595.97278 127.08826 c -8.96655 7.61775 -26.72778 15.40977 -37.89778 -0.99549 c -9.00475 -13.22304 -0.43209 -29.30125 13.93684 -38.189024 c 17.99756 -11.131801 58.2444 -19.016926 58.2444 -19.016926 c 0 0 -19.36069 45.52508 -34.28346 58.20144 z" stroke-linecap="round" />
</g>
		<g transform="matrix(1 0 0 1 -295.21 -81.12)" id="path13966"  >
<path style="stroke: none; stroke-width: 2.38726; stroke-dasharray: none; stroke-linecap: butt; stroke-dashoffset: 0; stroke-linejoin: miter; stroke-miterlimit: 4; fill: rgb(0,125,82); fill-rule: nonzero; opacity: 1;"  transform=" translate(-405.11, -363.7)" d="m 426.75652 386.78412 c -3.58328 11.20819 -14.54081 27.21001 -32.69116 19.19358 c -14.63392 -6.4647 -15.86097 -24.64131 -8.36258 -39.7861 c 9.3891 -18.96202 39.38265 -46.93595 39.38265 -46.93595 c 0 0 7.63447 48.8768 1.67109 67.52847 z" stroke-linecap="round" />
</g>
		<g transform="matrix(1 0 0 1 -237.15 -183.18)" id="path13968"  >
<path style="stroke: none; stroke-width: 2.38726; stroke-dasharray: none; stroke-linecap: butt; stroke-dashoffset: 0; stroke-linejoin: miter; stroke-miterlimit: 4; fill: rgb(0,125,82); fill-rule: nonzero; opacity: 1;"  transform=" translate(-463.17, -261.64)" d="m 463.17181 285.5141 c -9.709 6.64613 -28.18401 12.54744 -37.58983 -4.92492 c -7.58194 -14.08723 2.61406 -29.18905 17.83046 -36.53704 c 19.05512 -9.20051 59.90356 -12.86257 59.90356 -12.86257 c 0 0 -23.98482 43.26673 -40.14419 54.32453 z" stroke-linecap="round" />
</g>
		<g transform="matrix(1 0 0 1 -162.37 -251.82)" id="path13970"  >
<path style="stroke: none; stroke-width: 2.38726; stroke-dasharray: none; stroke-linecap: butt; stroke-dashoffset: 0; stroke-linejoin: miter; stroke-miterlimit: 4; fill: rgb(0,125,82); fill-rule: nonzero; opacity: 1;"  transform=" translate(-537.95, -193)" d="m 528.17455 215.17343 c -11.24161 3.47586 -30.63573 3.64535 -34.44818 -15.82515 c -3.0748 -15.69863 11.1318 -27.10736 27.84263 -29.62592 c 20.92673 -3.1488 61.02795 5.44057 61.02795 5.44057 c 0 0 -35.71343 34.22856 -54.4224 40.0105 z" stroke-linecap="round" />
</g>
		<g transform="matrix(1 0 0 1 -56.71 -299.64)" id="path13972"  >
<path style="stroke: none; stroke-width: 2.38726; stroke-dasharray: none; stroke-linecap: butt; stroke-dashoffset: 0; stroke-linejoin: miter; stroke-miterlimit: 4; fill: rgb(0,125,82); fill-rule: nonzero; opacity: 1;"  transform=" translate(-643.61, -145.18)" d="m 629.73582 167.90327 c -11.62358 1.82625 -30.84103 -0.79019 -31.81981 -20.60923 c -0.7878 -15.97794 14.91084 -25.22619 31.80787 -25.31691 c 21.16069 -0.11459 59.6147 14.14452 59.6147 14.14452 c 0 0 -40.25878 28.74741 -59.60276 31.78162 z" stroke-linecap="round" />
</g>
		<g transform="matrix(1 0 0 1 171.01 -163.92)" id="path13974"  >
<path style="stroke: none; stroke-width: 2.38726; stroke-dasharray: none; stroke-linecap: butt; stroke-dashoffset: 0; stroke-linejoin: miter; stroke-miterlimit: 4; fill: rgb(0,125,82); fill-rule: nonzero; opacity: 1;"  transform=" translate(-889.41, -280.9)" d="m 1037.8 444.82322 c 0.5323 -7.35992 0.8117 -14.78669 0.8117 -22.28031 c 0 -167.96295 -135.52488 -304.2541 -303.18226 -305.53845 c 0.79734 -0.005 1.58992 -0.031 2.38726 -0.031 c 168.7603 0 305.5695 136.80919 305.5695 305.56948 c 0 7.49362 -0.2817 14.92039 -0.8117 22.28031 z" stroke-linecap="round" />
</g>
		<g transform="matrix(1 0 0 1 346.57 -68.76)" id="path13976"  >
<path style="stroke: none; stroke-width: 2.38726; stroke-dasharray: none; stroke-linecap: butt; stroke-dashoffset: 0; stroke-linejoin: miter; stroke-miterlimit: 4; fill: rgb(0,125,82); fill-rule: nonzero; opacity: 1;"  transform=" translate(-1064.97, -376.06)" d="m 1042.0971 391.5849 c -1.0839 11.71668 2.7429 30.73122 22.5835 30.44952 c 15.997 -0.22679 24.233 -16.47926 23.2519 -33.34765 c -1.2271 -21.12488 -17.8925 -58.59773 -17.8925 -58.59773 c 0 0 -26.1382 41.9991 -27.9429 61.49586 z" stroke-linecap="round" />
</g>
		<g transform="matrix(1 0 0 1 306.11 -200.54)" id="path13978"  >
<path style="stroke: none; stroke-width: 2.38726; stroke-dasharray: none; stroke-linecap: butt; stroke-dashoffset: 0; stroke-linejoin: miter; stroke-miterlimit: 4; fill: rgb(0,125,82); fill-rule: nonzero; opacity: 1;"  transform=" translate(-1024.51, -244.28)" d="m 1002.6571 267.12263 c 3.3661 11.27504 14.018 27.48216 32.3188 19.81427 c 14.7556 -6.183 16.3264 -24.33574 9.1169 -39.61899 c -9.0262 -19.13867 -38.4803 -47.67839 -38.4803 -47.67839 c 0 0 -8.56307 48.72162 -2.9554 67.48311 z" stroke-linecap="round" />
</g>
		<g transform="matrix(1 0 0 1 225.99 -288.91)" id="path13980"  >
<path style="stroke: none; stroke-width: 2.38726; stroke-dasharray: none; stroke-linecap: butt; stroke-dashoffset: 0; stroke-linejoin: miter; stroke-miterlimit: 4; fill: rgb(0,125,82); fill-rule: nonzero; opacity: 1;"  transform=" translate(-944.39, -155.92)" d="m 927.25784 180.72048 c 5.56232 10.37026 19.24372 24.11611 35.63704 12.93418 c 13.2135 -9.0143 11.11748 -27.11452 0.9931 -40.64313 c -12.67874 -16.93762 -47.25584 -38.99592 -47.25584 -38.99592 c 0 0 1.37268 49.44974 10.6257 66.70487 z" stroke-linecap="round" />
</g>
		<g transform="matrix(1 0 0 1 108 -342.49)" id="path13982"  >
<path style="stroke: none; stroke-width: 2.38726; stroke-dasharray: none; stroke-linecap: butt; stroke-dashoffset: 0; stroke-linejoin: miter; stroke-miterlimit: 4; fill: rgb(0,125,82); fill-rule: nonzero; opacity: 1;"  transform=" translate(-826.39, -102.33)" d="m 822.74353 127.08826 c 8.96656 7.61775 26.72778 15.40977 37.89539 -0.99549 c 9.00475 -13.22304 0.43448 -29.30125 -13.93683 -38.189024 C 828.70452 76.771945 788.45768 68.88682 788.45768 68.88682 c 0 0 19.36308 45.52508 34.28585 58.20144 z" stroke-linecap="round" />
</g>
		<g transform="matrix(1 0 0 1 295.21 -81.12)" id="path13984"  >
<path style="stroke: none; stroke-width: 2.38726; stroke-dasharray: none; stroke-linecap: butt; stroke-dashoffset: 0; stroke-linejoin: miter; stroke-miterlimit: 4; fill: rgb(0,125,82); fill-rule: nonzero; opacity: 1;"  transform=" translate(-1013.61, -363.7)" d="m 991.96218 386.78412 c 3.58089 11.20819 14.54082 27.21001 32.68882 19.19358 c 14.6363 -6.4647 15.8633 -24.64131 8.3649 -39.7861 c -9.3915 -18.96202 -39.38502 -46.93595 -39.38502 -46.93595 c 0 0 -7.63208 48.8768 -1.6687 67.52847 z" stroke-linecap="round" />
</g>
		<g transform="matrix(1 0 0 1 237.15 -183.18)" id="path13986"  >
<path style="stroke: none; stroke-width: 2.38726; stroke-dasharray: none; stroke-linecap: butt; stroke-dashoffset: 0; stroke-linejoin: miter; stroke-miterlimit: 4; fill: rgb(0,125,82); fill-rule: nonzero; opacity: 1;"  transform=" translate(-955.55, -261.64)" d="m 955.5445 285.5141 c 9.709 6.64613 28.18402 12.54744 37.58744 -4.92492 c 7.58196 -14.08723 -2.61405 -29.18905 -17.83046 -36.53704 c -19.05512 -9.20051 -59.90355 -12.86257 -59.90355 -12.86257 c 0 0 23.9872 43.26673 40.14657 54.32453 z" stroke-linecap="round" />
</g>
		<g transform="matrix(1 0 0 1 162.37 -251.82)" id="path13988"  >
<path style="stroke: none; stroke-width: 2.38726; stroke-dasharray: none; stroke-linecap: butt; stroke-dashoffset: 0; stroke-linejoin: miter; stroke-miterlimit: 4; fill: rgb(0,125,82); fill-rule: nonzero; opacity: 1;"  transform=" translate(-880.77, -193)" d="m 890.53937 215.17343 c 11.244 3.47586 30.63812 3.64535 34.45057 -15.82515 c 3.0748 -15.69863 -11.1318 -27.10736 -27.84263 -29.62592 c -20.92673 -3.1488 -61.02557 5.44057 -61.02557 5.44057 c 0 0 35.71105 34.22856 54.41763 40.0105 z" stroke-linecap="round" />
</g>
		<g transform="matrix(1 0 0 1 56.71 -299.64)" id="path13990"  >
<path style="stroke: none; stroke-width: 2.38726; stroke-dasharray: none; stroke-linecap: butt; stroke-dashoffset: 0; stroke-linejoin: miter; stroke-miterlimit: 4; fill: rgb(0,125,82); fill-rule: nonzero; opacity: 1;"  transform=" translate(-775.1, -145.18)" d="m 788.98049 167.90327 c 11.62358 1.82625 30.84103 -0.79019 31.81981 -20.60923 c 0.7878 -15.97794 -14.91084 -25.22619 -31.80787 -25.31691 c -21.16069 -0.11459 -59.6147 14.14452 -59.6147 14.14452 c 0 0 40.25878 28.74741 59.60276 31.78162 z" stroke-linecap="round" />
</g>
		<g transform="matrix(1 0 0 1 -509.7 0)" id="path20290"  >
<path style="stroke: rgb(255,0,0); stroke-width: 15; stroke-dasharray: none; stroke-linecap: butt; stroke-dashoffset: 0; stroke-linejoin: miter; stroke-miterlimit: 4; fill: none; fill-rule: nonzero; opacity: 1;"  transform=" translate(-190.3, -450)" d="M 0 450 H 380.5965" stroke-linecap="round" />
</g>
		<g transform="matrix(1 0 0 1 509.7 0)" id="path20290-2"  >
<path style="stroke: rgb(255,0,0); stroke-width: 15; stroke-dasharray: none; stroke-linecap: butt; stroke-dashoffset: 0; stroke-linejoin: miter; stroke-miterlimit: 4; fill: none; fill-rule: nonzero; opacity: 1;"  transform=" translate(-1209.7, -450)" d="m 1019.404 450 h 380.5965" stroke-linecap="round" />
</g>
</g>
</g>
</svg>
