<?xml version="1.0" encoding="UTF-8"?>
<svg xmlns="http://www.w3.org/2000/svg" xmlns:xlink="http://www.w3.org/1999/xlink" width="700" height="450">
<rect width="700" height="450" fill="#007bc4"/>
<rect width="700" height="225" fill="#fff"/>
<path d="M600,0H700V45L100,450H0V405z" fill="#b52921"/>
<g id="branch">
<g fill="#009442" stroke="#00581f" stroke-width="0.42">
<path d="m303.86,298.66c10.328-3.0832,15.726-11.097,17.96-13.529l1.4069,1.3115c-2.3927,3.4425-9.0653,10.793-17.878,13.863l-1.4886-1.6451z"/>
<path d="m271.74,258.88c10.77-0.43725,17.979-6.8706,20.744-8.6756l1.0395,1.6183c-3.1687,2.745-11.45,8.2199-20.747,9.019l-1.0363-1.9617z"/>
<path d="m270.64,152.53c6.2231,8.8009,15.542,11.353,18.561,12.692l-0.79291,1.7523c-4.0268-1.1667-13.124-5.1396-18.851-12.508l1.0829-1.9364z"/>
<path d="m256.42,204.83c9.2478,5.628,13.238,4.806,23.192,3.1413l-0.0483,1.7326c-4.6839,1.313-13.56,3.0049-23.256-2.6623l0.11129-2.2117z"/>
<path stroke-width="0.91" d="m324.12,125.22c-34.684,14.685-52.453,36.676-57.5,58.859-5.0474,22.183,1.8867,46.167,14.654,68.58s31.131,43.83,49.69,59.858,36.204,30.617,53.969,32.523c-0.29453-2.1323-2.2638-5.8463-5.0704-8.0716-12.056-2.7946-28.864-10.713-47.267-26.606s-36.886-36.607-49.497-58.746-18.502-45.61-13.669-67.082c6.7253-29.882,35.963-46.564,56.822-57.262l-2.1306-2.0522z"/>
</g>
<g fill="#009442" stroke="#000" stroke-width="1.2" stroke-linejoin="round" stroke-linecap="round">
<path d="m344.67,322.26c-9.4444-6.3865-13.64-27.946-9.8084-39.968,6.2983,3.9668,16.428,25.547,9.8084,39.968z"/>
<path d="m344.29,321.32c-4.8407-11.79-2.4791-19.473-5.6851-25.973"/>
<path d="m344.66,322.22c-9.4737,6.3429-30.346,3.5571-40.719-5.97,9.0938-5.8866,29.853-5.5945,40.719,5.97z"/>
<path d="m344.01,322.25c-19.355-6.4687-15.358-0.8003-30.804-5.1064"/>
<path d="m344.06,321.71c-13.518-1.9332-27.8-12.765-29.143-27.299,11.289-0.82257,24.798,13.565,29.143,27.299z"/>
<path d="m343.34,320.94c-13.77-10.85-14.87-15.08-23.51-20.45"/>
<path d="m311.52,290.99c-8.8391-8.2275-9.7043-31.475-3.7293-43.429,5.9424,5.181,13.015,29.42,3.7293,43.429z"/>
<path d="m311.28,289.95c-3.1379-13.13,0.58957-20.783-1.7026-28.11"/>
<path d="m311.51,290.94c-10.951,5.0887-32.338-1.2393-41.635-12.905,10.479-4.6733,32.155-0.97334,41.635,12.905z"/>
<path d="m310.83,290.87c-19.197-9.9339-15.941-3.3486-31.401-10.38"/>
<path d="m310.97,290.31c-13.83-4.2333-27.005-17.903-26.034-33.333,11.948,0.98497,23.733,18.25,26.034,33.333z"/>
<path d="m310.35,289.38c-12.64-13.59-13.1-18.2-21.26-25.23"/>
<path d="m281.68,252.7c-5.6972-10.32,0.57007-32.148,9.748-41.42,3.9367,6.6131,3.1255,31.249-9.748,41.42z"/>
<path d="m281.77,251.67c1.0822-13.134,6.8673-19.1,6.9693-26.593"/>
<path d="m281.69,252.66c-11.706,1.39-29.62-10.984-34.697-24.633,11.142-1.1483,30.124,8.876,34.697,24.633z"/>
<path d="m281.07,252.38c-14.78-15.05-13.77-7.95-25.97-19.18"/>
<path d="m281.38,251.91c-11.542-8.1329-19.605-24.82-14.012-38.838,10.784,4.5472,16.465,24.146,14.012,38.838z"/>
<path d="m281.08,250.86c-7.5878-16.456-6.6108-20.869-12.045-29.875"/>
<path d="m268.08,204.87c0.0948-11.691,16.128-27.51,28.571-31.06,0.18636,7.6307-12.496,28.53-28.571,31.06z"/>
<path d="m268.66,204.01c7.3232-10.826,15.225-13.169,18.958-19.596"/>
<path d="m268.11,204.83c-10.794-4.4918-20.26-23.9-18.01-38.166,10.189,4.4264,21.721,22.323,18.01,38.166z"/>
<path d="m267.71,204.3c-5.4593-20.202-8.0325-13.572-13.121-29.208"/>
<path d="m268.21,204.04c-6.0206-12.643-4.8746-30.988,6.7775-40.384,7.1093,9.1751,2.4881,28.879-6.7775,40.384z"/>
<path d="m268.45,202.98c1.445-17.914,4.4358-21.253,4.1189-31.68"/>
<path d="m282.02,156.84c5.4837-10.773,27.619-18.009,40.77-15.551-3.3495,7.1462-24.73,20.629-40.77,15.551z"/>
<path d="m282.95,156.32c11.772-6.6365,20.165-5.1571,26.585-9.3812"/>
<path d="m282.06,156.82c-7.9138-9.1379-7.7144-31.464,0.95226-43.625,7.384,8.798,9.7936,30.679-0.95226,43.625z"/>
<path d="m281.94,156.14c4.2731-21.211-1.168-16.264,1.3412-33.08"/>
<path d="m282.52,156.13c0.26486-14.476,9.7923-30.921,24.91-34.236,2.343,11.77-11.027,27.868-24.91,34.236z"/>
<path d="m283.24,155.27c9.605-15.908,13.914-17.617,18.433-27.41"/>
</g>
<g fill="#df2118" stroke="#000">
<circle cx="324.41" cy="281" r="6.64"/>
<circle cx="299.85" cy="301.28" r="6.64"/>
<circle cx="296.02" cy="246.85" r="6.64"/>
<circle cx="267.21" cy="260.44" r="6.64"/>
<circle cx="293.94" cy="166.36" r="6.64"/>
<circle cx="266.87" cy="149.57" r="6.64"/>
<circle cx="283.42" cy="206.96" r="6.64"/>
<circle cx="251.61" cy="204.85" r="6.64"/>
<circle cx="328.71" cy="123.12" r="6.64"/>
</g>
</g>
<use xlink:href="#branch" transform="matrix(-1,0,0,1,700,0)"/>
</svg>
