<?xml version="1.0" encoding="UTF-8" standalone="no"?>
<!-- Created with Inkscape (http://www.inkscape.org/) -->
<svg
   xmlns:svg="http://www.w3.org/2000/svg"
   xmlns="http://www.w3.org/2000/svg"
   version="1.0"
   width="749.99994"
   height="299.99997"
   id="svg2">
  <defs
     id="defs4" />
  <g
     transform="translate(3085.7142,-2585.7142)"
     id="layer1">
    <g
       transform="matrix(0.1411111,0,0,0.1411111,-2766.3999,2636.5523)"
       id="g3262">
      <g
         transform="matrix(3.5433071,0,0,3.5433071,-2262.8571,-360.27002)"
         id="g2171">
        <path
           d="M 0,-8.4e-06 L 300,-8.4e-06 L 300,599.99999 L 0,599.99999 L 0,-8.4e-06 z "
           style="fill:#75aadb;fill-opacity:1;fill-rule:nonzero;stroke:none;stroke-width:1.01400006;stroke-linecap:square;stroke-linejoin:miter;stroke-miterlimit:4;stroke-opacity:1"
           id="rect2160" />
        <path
           d="M 300,-8.4e-06 L 450,-8.4e-06 L 450,599.99999 L 300,599.99999 L 300,-8.4e-06 z "
           style="fill:#ffffff;fill-opacity:1;fill-rule:nonzero;stroke:none;stroke-width:1.01400006;stroke-linecap:square;stroke-linejoin:miter;stroke-miterlimit:4;stroke-opacity:1"
           id="path2163" />
        <path
           d="M 450,-8.4e-06 L 1050,-8.4e-06 L 1050,599.99999 L 450,599.99999 L 450,-8.4e-06 z "
           style="fill:#da251d;fill-opacity:1;fill-rule:nonzero;stroke:none;stroke-width:1.01400006;stroke-linecap:square;stroke-linejoin:miter;stroke-miterlimit:4;stroke-opacity:1"
           id="path2165" />
        <path
           d="M 1050,-9e-06 L 1200,-9e-06 L 1200,600 L 1050,600 L 1050,-9e-06 z "
           style="fill:#ffffff;fill-opacity:1;fill-rule:nonzero;stroke:none;stroke-width:1.01400006;stroke-linecap:square;stroke-linejoin:miter;stroke-miterlimit:4;stroke-opacity:1"
           id="path2167" />
        <path
           d="M 1200,-8.4e-06 L 1500,-8.4e-06 L 1500,599.99999 L 1200,599.99999 L 1200,-8.4e-06 z "
           style="fill:#75aadb;fill-opacity:1;fill-rule:nonzero;stroke:none;stroke-width:1.01400006;stroke-linecap:square;stroke-linejoin:miter;stroke-miterlimit:4;stroke-opacity:1"
           id="path2169" />
      </g>
      <g
         transform="translate(65.07635,18.347094)"
         id="g3258">
        <path
           d="M 329.53125,259.1875 L 303.5625,402.125 C 285.22255,403.79414 267.38451,407.18811 250.21875,412.1875 C 206.46134,356.33705 169.52269,371.44349 166.8125,291.59375 C 130.93113,362.32355 171.17931,376.67504 192.625,436.1875 C 176.90809,444.88124 162.08768,454.9945 148.375,466.40625 L 28.90625,383.75 L 111.59375,503.21875 C 100.01562,517.13102 89.746428,532.18363 80.96875,548.15625 C 10.543399,539.5475 -4.8722951,576.20129 -63.25,521.65625 C -38.61725,597.01466 -0.028674126,578.77075 57.1875,605.65625 C 52.2785,622.65005 48.930247,640.29695 47.28125,658.4375 L -95.65625,684.375 L 47.28125,710.34375 C 48.94996,728.68826 52.343185,746.54895 57.34375,763.71875 C 1.4988864,807.47457 16.597493,844.38362 -63.25,847.09375 C 7.4804919,882.97534 21.829878,842.72678 81.34375,821.28125 C 90.036793,836.99938 100.15113,851.81738 111.5625,865.53125 L 28.90625,985 L 148.34375,902.3125 C 162.26475,913.90125 177.32793,924.1845 193.3125,932.96875 C 184.72302,1003.379 221.35199,1018.7842 166.8125,1077.1562 C 242.1693,1052.5238 223.92954,1013.9642 250.8125,956.75 C 267.80633,961.65891 285.45318,965.00735 303.59375,966.65625 L 329.53125,1109.5625 L 355.5,966.65625 C 373.84731,964.98739 391.70277,961.56421 408.875,956.5625 C 452.63543,1012.4233 489.53976,997.30223 492.25,1077.1562 C 528.13077,1006.4275 487.88346,992.10369 466.4375,932.59375 C 482.16756,923.89411 496.99613,913.76571 510.71875,902.34375 L 630.15625,985 L 547.5,865.53125 C 559.08514,851.61022 569.37517,836.57754 578.15625,820.59375 C 648.55507,829.1879 663.94338,792.55673 722.3125,847.09375 C 697.68019,771.73684 659.12037,789.97671 601.90625,763.09375 C 606.80902,746.11438 610.16395,728.46777 611.8125,710.34375 L 754.75,684.375 L 611.8125,658.40625 C 610.14321,640.06349 606.71928,622.23069 601.71875,605.0625 C 657.59782,561.29677 642.4512,524.36684 722.3125,521.65625 C 651.58453,485.77583 637.25856,526.02265 577.75,547.46875 C 569.05626,531.75184 558.91175,516.93143 547.5,503.21875 L 630.15625,383.75 L 510.71875,466.4375 C 496.78826,454.84085 481.74675,444.56945 465.75,435.78125 C 474.34415,365.38243 437.71309,349.96287 492.25,291.59375 C 416.89618,316.22499 435.15962,354.82072 408.28125,412.03125 C 391.29306,407.12387 373.63423,403.77458 355.5,402.125 L 329.53125,259.1875 z "
           style="fill:#fcbf49;fill-opacity:1;stroke:none;stroke-width:2.57142782;stroke-miterlimit:20"
           id="path8" />
        <path
           d="M 330.646,422.0029 C 327.96517,436.85534 273.00928,482.29313 271.93401,499.76648 C 271.39637,508.50319 270.58164,513.71051 273.30797,522.93988 C 276.03422,532.1693 279.55192,537.18025 289.06218,537.22861 C 325.82214,537.41799 287.78796,509.27733 306.46513,508.83436 C 308.20878,508.793 309.54883,509.07792 310.58686,509.8419 C 313.27056,511.93518 313.93951,518.04669 314.43383,533.8396 C 315.02947,552.87225 314.92298,573.94969 314.70859,595.66584 C 292.80082,595.82672 271.13252,595.71848 252.516,593.55917 C 230.6789,591.02625 221.10599,574.24964 224.76292,558.20371 C 224.85503,557.79958 224.99839,557.41624 225.22088,557.10458 C 225.38148,556.89354 225.64442,556.63324 225.86204,556.46346 C 231.62807,552.20037 255.55273,561.16682 262.22501,563.42462 C 261.95621,553.74703 240.31285,527.90983 222.83944,528.9851 C 205.36603,530.06038 186.52135,553.93953 192.33853,569.7446 C 198.16923,585.5865 213.10307,586.80051 213.13044,591.72729 C 213.15691,597.11288 198.47374,595.31065 189.04109,595.66584 C 182.17441,595.92438 184.05394,585.32065 171.91297,585.86523 C 158.36508,586.47289 151.22678,607.48865 136.37432,610.77889 C 151.22678,614.06916 158.36508,635.17651 171.91297,635.78417 C 184.05394,636.32871 182.17441,625.72504 189.04109,625.98356 C 198.47374,626.33871 213.15691,624.53647 213.13044,629.92214 C 213.10307,634.84891 198.16923,636.06286 192.33853,651.90476 C 186.52135,667.70982 205.36603,691.589 222.83944,692.66427 C 240.31285,693.73955 261.95621,667.90233 262.22501,658.22478 C 255.55273,660.4826 231.62807,669.44898 225.86204,665.18596 C 225.64442,665.01612 225.38148,664.75581 225.22088,664.54479 C 224.99839,664.23311 224.85503,663.84982 224.76292,663.44565 C 221.10599,647.39972 230.6789,630.62311 252.516,628.09024 C 269.74962,626.0913 289.57009,625.79551 314.98336,625.89198 C 315.33848,630.2944 315.75631,628.32488 315.44137,643.29492 C 315.20069,654.73208 294.71055,676.07261 283.84132,676.26886 C 284.38709,681.79921 329.39502,942.67084 331.10399,946.74711 C 332.7982,942.67084 376.9049,681.79921 377.45072,676.26886 C 366.58146,676.07261 346.0913,654.73208 345.85068,643.29492 C 345.53758,628.41399 345.86413,630.28431 346.21704,625.98356 C 361.63277,625.75144 385.98077,625.70119 406.57774,628.09024 C 428.41485,630.62311 437.98777,647.39972 434.33087,663.44565 C 434.28837,663.63219 434.21868,663.8288 434.14769,663.99525 C 434.07207,664.15839 433.97553,664.40096 433.87288,664.54479 C 429.55426,670.21942 403.82862,660.57991 396.86874,658.22478 C 397.13759,667.90233 418.78094,693.73955 436.25437,692.66427 C 453.72771,691.589 472.57245,667.70987 466.75527,651.90476 C 460.92455,636.06286 445.99072,634.84891 445.96337,629.92214 C 445.93683,624.53647 460.52843,626.33871 469.96107,625.98356 C 476.82781,625.72504 475.03985,636.32871 487.18083,635.78417 C 500.72872,635.17647 507.86698,614.06916 522.71943,610.77889 C 507.86698,607.48865 500.72872,586.47289 487.18083,585.86523 C 475.03985,585.32065 476.82781,595.92438 469.96107,595.66584 C 461.85492,595.36057 449.88518,596.60487 446.69608,593.55917 C 446.22809,593.07614 445.95981,592.44254 445.96337,591.72729 C 445.99072,586.80051 460.92455,585.5865 466.75527,569.7446 C 472.57245,553.93953 453.72771,530.06038 436.25437,528.9851 C 418.78094,527.90983 397.13759,553.74703 396.86874,563.42462 C 403.82862,561.06946 429.55426,551.42994 433.87288,557.10458 C 434.09537,557.41624 434.23877,557.79958 434.33087,558.20371 C 437.98777,574.24964 428.41485,591.02625 406.57774,593.55917 C 388.59519,595.64495 367.72643,595.8899 346.58346,595.75743 C 346.36849,574.00945 346.17012,552.89872 346.76662,533.8396 C 347.45432,511.86687 348.45008,508.68313 354.82693,508.83436 C 373.50403,509.27733 335.37831,537.41799 372.13828,537.22861 C 381.6485,537.18025 385.16625,532.1693 387.8925,522.93988 C 390.61876,513.71051 389.89567,508.50319 389.35803,499.76648 C 388.28271,482.29313 333.32682,436.85534 330.646,422.0029 z "
           style="fill:#da251d;fill-opacity:1;fill-rule:evenodd;stroke:none;stroke-width:1px;stroke-linecap:butt;stroke-linejoin:miter;stroke-opacity:1"
           id="path9214" />
      </g>
    </g>
  </g>
</svg>
