<?xml version="1.0" encoding="UTF-8" standalone="no" ?>
<!DOCTYPE svg PUBLIC "-//W3C//DTD SVG 1.1//EN" "http://www.w3.org/Graphics/SVG/1.1/DTD/svg11.dtd">
<svg xmlns="http://www.w3.org/2000/svg" xmlns:xlink="http://www.w3.org/1999/xlink" version="1.1" width="728" height="485" viewBox="0 0 728 485" xml:space="preserve">
<desc>Created with Fabric.js 3.6.3</desc>
<defs>
</defs>
<g transform="matrix(1 0 0 1 364 242.28)"  >
<g style=""   >
		<g transform="matrix(2.91 0 0 2.91 -242.65 0)" id="rect2218"  >
<path style="stroke: none; stroke-width: 0.30000001; stroke-dasharray: none; stroke-linecap: butt; stroke-dashoffset: 0; stroke-linejoin: miter; stroke-miterlimit: 4; fill: rgb(29,176,98); fill-rule: evenodd; opacity: 1;"  transform=" translate(108.32, -54.04)" d="M -150.05644 -29.287928 L -66.580025 -29.287928 L -66.580025 137.36957 L -150.05644 137.36957 L -150.05644 -29.287928 z" stroke-linecap="round" />
</g>
		<g transform="matrix(2.91 0 0 2.91 0.04 0)" id="rect3191"  >
<path style="stroke: none; stroke-width: 0.30000001; stroke-dasharray: none; stroke-linecap: butt; stroke-dashoffset: 0; stroke-linejoin: miter; stroke-miterlimit: 4; fill: rgb(255,255,255); fill-rule: evenodd; opacity: 1;"  transform=" translate(24.85, -54.04)" d="M -66.586792 -29.28779 L 16.889626 -29.28779 L 16.889626 137.36971 L -66.586792 137.36971 L -66.586792 -29.28779 z" stroke-linecap="round" />
</g>
		<g transform="matrix(2.91 0 0 2.91 242.65 0)" id="rect3193"  >
<path style="stroke: none; stroke-width: 0.30000001; stroke-dasharray: none; stroke-linecap: butt; stroke-dashoffset: 0; stroke-linejoin: miter; stroke-miterlimit: 4; fill: rgb(148,201,233); fill-rule: evenodd; opacity: 1;"  transform=" translate(-58.59, -54.04)" d="M 16.855658 -29.288309 L 100.33208 -29.288309 L 100.33208 137.36919 L 16.855658 137.36919 L 16.855658 -29.288309 z" stroke-linecap="round" />
</g>
		<g transform="matrix(0.45 0 0 0.45 0.42 -94.4)" id="path13"  >
<path style="stroke: rgb(132,53,17); stroke-width: 1.5; stroke-dasharray: none; stroke-linecap: butt; stroke-dashoffset: 0; stroke-linejoin: miter; stroke-miterlimit: 4; fill: rgb(252,191,73); fill-rule: nonzero; opacity: 1;"  transform=" translate(0, -81.25)" d="M -8 0 L -2 159.5 C -2 159.5 -2 162.5 0 162.5 C 2 162.5 2 159.5 2 159.5 L 8 0" stroke-linecap="round" />
</g>
		<g transform="matrix(0.45 0 0 0.45 0.42 -106.21)" id="path15"  >
<path style="stroke: none; stroke-width: 1.5; stroke-dasharray: none; stroke-linecap: butt; stroke-dashoffset: 0; stroke-linejoin: miter; stroke-miterlimit: 4; fill: rgb(132,53,17); fill-rule: nonzero; opacity: 1;"  transform=" translate(0, -54.75)" d="M -4 0 L 0 109.5 L 4 0" stroke-linecap="round" />
</g>
		<g transform="matrix(0.44 0.09 -0.09 0.44 -8.67 -83.52)" id="path19"  >
<path style="stroke: rgb(132,53,17); stroke-width: 1.5; stroke-dasharray: none; stroke-linecap: butt; stroke-dashoffset: 0; stroke-linejoin: miter; stroke-miterlimit: 4; fill: rgb(252,191,73); fill-rule: nonzero; opacity: 1;"  transform=" translate(-1.08, -107.63)" d="M -4.5 53.5 C -9.5 75 1.5 89.5 -4 108.5 C -9.5 127.5 -1 140.5 0 148.5 C 1 156.5 -5 160 -3 161.5 C -1 163 5 158 5.5 147 C 6 136 -1.5 131.25 5 108 C 11.5 84.75 1 77 8 56" stroke-linecap="round" />
</g>
		<g transform="matrix(0.44 0.09 -0.09 0.44 -6.64 -94.07)" id="path21"  >
<path style="stroke: none; stroke-width: 1.5; stroke-dasharray: none; stroke-linecap: butt; stroke-dashoffset: 0; stroke-linejoin: miter; stroke-miterlimit: 4; fill: rgb(132,53,17); fill-rule: nonzero; opacity: 1;"  transform=" translate(-0.83, -83.5)" d="M -1 58 C -4 79 6 90.5 0 109 C 8 95 -2 81 3 59" stroke-linecap="round" />
</g>
		<g transform="matrix(-0.45 0 0 -0.45 0.42 -166.8)" id="path13"  >
<path style="stroke: rgb(132,53,17); stroke-width: 1.5; stroke-dasharray: none; stroke-linecap: butt; stroke-dashoffset: 0; stroke-linejoin: miter; stroke-miterlimit: 4; fill: rgb(252,191,73); fill-rule: nonzero; opacity: 1;"  transform=" translate(0, -81.25)" d="M -8 0 L -2 159.5 C -2 159.5 -2 162.5 0 162.5 C 2 162.5 2 159.5 2 159.5 L 8 0" stroke-linecap="round" />
</g>
		<g transform="matrix(-0.45 0 0 -0.45 0.42 -154.99)" id="path15"  >
<path style="stroke: none; stroke-width: 1.5; stroke-dasharray: none; stroke-linecap: butt; stroke-dashoffset: 0; stroke-linejoin: miter; stroke-miterlimit: 4; fill: rgb(132,53,17); fill-rule: nonzero; opacity: 1;"  transform=" translate(0, -54.75)" d="M -4 0 L 0 109.5 L 4 0" stroke-linecap="round" />
</g>
		<g transform="matrix(-0.44 -0.09 0.09 -0.44 9.51 -177.69)" id="path19"  >
<path style="stroke: rgb(132,53,17); stroke-width: 1.5; stroke-dasharray: none; stroke-linecap: butt; stroke-dashoffset: 0; stroke-linejoin: miter; stroke-miterlimit: 4; fill: rgb(252,191,73); fill-rule: nonzero; opacity: 1;"  transform=" translate(-1.08, -107.63)" d="M -4.5 53.5 C -9.5 75 1.5 89.5 -4 108.5 C -9.5 127.5 -1 140.5 0 148.5 C 1 156.5 -5 160 -3 161.5 C -1 163 5 158 5.5 147 C 6 136 -1.5 131.25 5 108 C 11.5 84.75 1 77 8 56" stroke-linecap="round" />
</g>
		<g transform="matrix(-0.44 -0.09 0.09 -0.44 7.47 -167.13)" id="path21"  >
<path style="stroke: none; stroke-width: 1.5; stroke-dasharray: none; stroke-linecap: butt; stroke-dashoffset: 0; stroke-linejoin: miter; stroke-miterlimit: 4; fill: rgb(132,53,17); fill-rule: nonzero; opacity: 1;"  transform=" translate(-0.83, -83.5)" d="M -1 58 C -4 79 6 90.5 0 109 C 8 95 -2 81 3 59" stroke-linecap="round" />
</g>
		<g transform="matrix(0 0.45 -0.45 0 -35.78 -130.6)" id="path13"  >
<path style="stroke: rgb(132,53,17); stroke-width: 1.5; stroke-dasharray: none; stroke-linecap: butt; stroke-dashoffset: 0; stroke-linejoin: miter; stroke-miterlimit: 4; fill: rgb(252,191,73); fill-rule: nonzero; opacity: 1;"  transform=" translate(0, -81.25)" d="M -8 0 L -2 159.5 C -2 159.5 -2 162.5 0 162.5 C 2 162.5 2 159.5 2 159.5 L 8 0" stroke-linecap="round" />
</g>
		<g transform="matrix(0 0.45 -0.45 0 -23.98 -130.6)" id="path15"  >
<path style="stroke: none; stroke-width: 1.5; stroke-dasharray: none; stroke-linecap: butt; stroke-dashoffset: 0; stroke-linejoin: miter; stroke-miterlimit: 4; fill: rgb(132,53,17); fill-rule: nonzero; opacity: 1;"  transform=" translate(0, -54.75)" d="M -4 0 L 0 109.5 L 4 0" stroke-linecap="round" />
</g>
		<g transform="matrix(-0.09 0.44 -0.44 -0.09 -46.67 -139.69)" id="path19"  >
<path style="stroke: rgb(132,53,17); stroke-width: 1.5; stroke-dasharray: none; stroke-linecap: butt; stroke-dashoffset: 0; stroke-linejoin: miter; stroke-miterlimit: 4; fill: rgb(252,191,73); fill-rule: nonzero; opacity: 1;"  transform=" translate(-1.08, -107.63)" d="M -4.5 53.5 C -9.5 75 1.5 89.5 -4 108.5 C -9.5 127.5 -1 140.5 0 148.5 C 1 156.5 -5 160 -3 161.5 C -1 163 5 158 5.5 147 C 6 136 -1.5 131.25 5 108 C 11.5 84.75 1 77 8 56" stroke-linecap="round" />
</g>
		<g transform="matrix(-0.09 0.44 -0.44 -0.09 -36.11 -137.66)" id="path21"  >
<path style="stroke: none; stroke-width: 1.5; stroke-dasharray: none; stroke-linecap: butt; stroke-dashoffset: 0; stroke-linejoin: miter; stroke-miterlimit: 4; fill: rgb(132,53,17); fill-rule: nonzero; opacity: 1;"  transform=" translate(-0.83, -83.5)" d="M -1 58 C -4 79 6 90.5 0 109 C 8 95 -2 81 3 59" stroke-linecap="round" />
</g>
		<g transform="matrix(0 -0.45 0.45 0 36.62 -130.6)" id="path13"  >
<path style="stroke: rgb(132,53,17); stroke-width: 1.5; stroke-dasharray: none; stroke-linecap: butt; stroke-dashoffset: 0; stroke-linejoin: miter; stroke-miterlimit: 4; fill: rgb(252,191,73); fill-rule: nonzero; opacity: 1;"  transform=" translate(0, -81.25)" d="M -8 0 L -2 159.5 C -2 159.5 -2 162.5 0 162.5 C 2 162.5 2 159.5 2 159.5 L 8 0" stroke-linecap="round" />
</g>
		<g transform="matrix(0 -0.45 0.45 0 24.81 -130.6)" id="path15"  >
<path style="stroke: none; stroke-width: 1.5; stroke-dasharray: none; stroke-linecap: butt; stroke-dashoffset: 0; stroke-linejoin: miter; stroke-miterlimit: 4; fill: rgb(132,53,17); fill-rule: nonzero; opacity: 1;"  transform=" translate(0, -54.75)" d="M -4 0 L 0 109.5 L 4 0" stroke-linecap="round" />
</g>
		<g transform="matrix(0.09 -0.44 0.44 0.09 47.5 -121.51)" id="path19"  >
<path style="stroke: rgb(132,53,17); stroke-width: 1.5; stroke-dasharray: none; stroke-linecap: butt; stroke-dashoffset: 0; stroke-linejoin: miter; stroke-miterlimit: 4; fill: rgb(252,191,73); fill-rule: nonzero; opacity: 1;"  transform=" translate(-1.08, -107.63)" d="M -4.5 53.5 C -9.5 75 1.5 89.5 -4 108.5 C -9.5 127.5 -1 140.5 0 148.5 C 1 156.5 -5 160 -3 161.5 C -1 163 5 158 5.5 147 C 6 136 -1.5 131.25 5 108 C 11.5 84.75 1 77 8 56" stroke-linecap="round" />
</g>
		<g transform="matrix(0.09 -0.44 0.44 0.09 36.95 -123.55)" id="path21"  >
<path style="stroke: none; stroke-width: 1.5; stroke-dasharray: none; stroke-linecap: butt; stroke-dashoffset: 0; stroke-linejoin: miter; stroke-miterlimit: 4; fill: rgb(132,53,17); fill-rule: nonzero; opacity: 1;"  transform=" translate(-0.83, -83.5)" d="M -1 58 C -4 79 6 90.5 0 109 C 8 95 -2 81 3 59" stroke-linecap="round" />
</g>
		<g transform="matrix(0.32 0.32 -0.32 0.32 -25.18 -105)" id="path13"  >
<path style="stroke: rgb(132,53,17); stroke-width: 1.5; stroke-dasharray: none; stroke-linecap: butt; stroke-dashoffset: 0; stroke-linejoin: miter; stroke-miterlimit: 4; fill: rgb(252,191,73); fill-rule: nonzero; opacity: 1;"  transform=" translate(0, -81.25)" d="M -8 0 L -2 159.5 C -2 159.5 -2 162.5 0 162.5 C 2 162.5 2 159.5 2 159.5 L 8 0" stroke-linecap="round" />
</g>
		<g transform="matrix(0.32 0.32 -0.32 0.32 -16.83 -113.35)" id="path15"  >
<path style="stroke: none; stroke-width: 1.5; stroke-dasharray: none; stroke-linecap: butt; stroke-dashoffset: 0; stroke-linejoin: miter; stroke-miterlimit: 4; fill: rgb(132,53,17); fill-rule: nonzero; opacity: 1;"  transform=" translate(0, -54.75)" d="M -4 0 L 0 109.5 L 4 0" stroke-linecap="round" />
</g>
		<g transform="matrix(0.25 0.37 -0.37 0.25 -39.3 -103.73)" id="path19"  >
<path style="stroke: rgb(132,53,17); stroke-width: 1.5; stroke-dasharray: none; stroke-linecap: butt; stroke-dashoffset: 0; stroke-linejoin: miter; stroke-miterlimit: 4; fill: rgb(252,191,73); fill-rule: nonzero; opacity: 1;"  transform=" translate(-1.08, -107.63)" d="M -4.5 53.5 C -9.5 75 1.5 89.5 -4 108.5 C -9.5 127.5 -1 140.5 0 148.5 C 1 156.5 -5 160 -3 161.5 C -1 163 5 158 5.5 147 C 6 136 -1.5 131.25 5 108 C 11.5 84.75 1 77 8 56" stroke-linecap="round" />
</g>
		<g transform="matrix(0.25 0.37 -0.37 0.25 -30.4 -109.76)" id="path21"  >
<path style="stroke: none; stroke-width: 1.5; stroke-dasharray: none; stroke-linecap: butt; stroke-dashoffset: 0; stroke-linejoin: miter; stroke-miterlimit: 4; fill: rgb(132,53,17); fill-rule: nonzero; opacity: 1;"  transform=" translate(-0.83, -83.5)" d="M -1 58 C -4 79 6 90.5 0 109 C 8 95 -2 81 3 59" stroke-linecap="round" />
</g>
		<g transform="matrix(-0.32 -0.32 0.32 -0.32 26.01 -156.2)" id="path13"  >
<path style="stroke: rgb(132,53,17); stroke-width: 1.5; stroke-dasharray: none; stroke-linecap: butt; stroke-dashoffset: 0; stroke-linejoin: miter; stroke-miterlimit: 4; fill: rgb(252,191,73); fill-rule: nonzero; opacity: 1;"  transform=" translate(0, -81.25)" d="M -8 0 L -2 159.5 C -2 159.5 -2 162.5 0 162.5 C 2 162.5 2 159.5 2 159.5 L 8 0" stroke-linecap="round" />
</g>
		<g transform="matrix(-0.32 -0.32 0.32 -0.32 17.67 -147.85)" id="path15"  >
<path style="stroke: none; stroke-width: 1.5; stroke-dasharray: none; stroke-linecap: butt; stroke-dashoffset: 0; stroke-linejoin: miter; stroke-miterlimit: 4; fill: rgb(132,53,17); fill-rule: nonzero; opacity: 1;"  transform=" translate(0, -54.75)" d="M -4 0 L 0 109.5 L 4 0" stroke-linecap="round" />
</g>
		<g transform="matrix(-0.25 -0.37 0.37 -0.25 40.14 -157.47)" id="path19"  >
<path style="stroke: rgb(132,53,17); stroke-width: 1.5; stroke-dasharray: none; stroke-linecap: butt; stroke-dashoffset: 0; stroke-linejoin: miter; stroke-miterlimit: 4; fill: rgb(252,191,73); fill-rule: nonzero; opacity: 1;"  transform=" translate(-1.08, -107.63)" d="M -4.5 53.5 C -9.5 75 1.5 89.5 -4 108.5 C -9.5 127.5 -1 140.5 0 148.5 C 1 156.5 -5 160 -3 161.5 C -1 163 5 158 5.5 147 C 6 136 -1.5 131.25 5 108 C 11.5 84.75 1 77 8 56" stroke-linecap="round" />
</g>
		<g transform="matrix(-0.25 -0.37 0.37 -0.25 31.24 -151.44)" id="path21"  >
<path style="stroke: none; stroke-width: 1.5; stroke-dasharray: none; stroke-linecap: butt; stroke-dashoffset: 0; stroke-linejoin: miter; stroke-miterlimit: 4; fill: rgb(132,53,17); fill-rule: nonzero; opacity: 1;"  transform=" translate(-0.83, -83.5)" d="M -1 58 C -4 79 6 90.5 0 109 C 8 95 -2 81 3 59" stroke-linecap="round" />
</g>
		<g transform="matrix(-0.32 0.32 -0.32 -0.32 -25.18 -156.2)" id="path13"  >
<path style="stroke: rgb(132,53,17); stroke-width: 1.5; stroke-dasharray: none; stroke-linecap: butt; stroke-dashoffset: 0; stroke-linejoin: miter; stroke-miterlimit: 4; fill: rgb(252,191,73); fill-rule: nonzero; opacity: 1;"  transform=" translate(0, -81.25)" d="M -8 0 L -2 159.5 C -2 159.5 -2 162.5 0 162.5 C 2 162.5 2 159.5 2 159.5 L 8 0" stroke-linecap="round" />
</g>
		<g transform="matrix(-0.32 0.32 -0.32 -0.32 -16.83 -147.85)" id="path15"  >
<path style="stroke: none; stroke-width: 1.5; stroke-dasharray: none; stroke-linecap: butt; stroke-dashoffset: 0; stroke-linejoin: miter; stroke-miterlimit: 4; fill: rgb(132,53,17); fill-rule: nonzero; opacity: 1;"  transform=" translate(0, -54.75)" d="M -4 0 L 0 109.5 L 4 0" stroke-linecap="round" />
</g>
		<g transform="matrix(-0.37 0.25 -0.25 -0.37 -26.45 -170.32)" id="path19"  >
<path style="stroke: rgb(132,53,17); stroke-width: 1.5; stroke-dasharray: none; stroke-linecap: butt; stroke-dashoffset: 0; stroke-linejoin: miter; stroke-miterlimit: 4; fill: rgb(252,191,73); fill-rule: nonzero; opacity: 1;"  transform=" translate(-1.08, -107.63)" d="M -4.5 53.5 C -9.5 75 1.5 89.5 -4 108.5 C -9.5 127.5 -1 140.5 0 148.5 C 1 156.5 -5 160 -3 161.5 C -1 163 5 158 5.5 147 C 6 136 -1.5 131.25 5 108 C 11.5 84.75 1 77 8 56" stroke-linecap="round" />
</g>
		<g transform="matrix(-0.37 0.25 -0.25 -0.37 -20.42 -161.42)" id="path21"  >
<path style="stroke: none; stroke-width: 1.5; stroke-dasharray: none; stroke-linecap: butt; stroke-dashoffset: 0; stroke-linejoin: miter; stroke-miterlimit: 4; fill: rgb(132,53,17); fill-rule: nonzero; opacity: 1;"  transform=" translate(-0.83, -83.5)" d="M -1 58 C -4 79 6 90.5 0 109 C 8 95 -2 81 3 59" stroke-linecap="round" />
</g>
		<g transform="matrix(0.32 -0.32 0.32 0.32 26.01 -105)" id="path13"  >
<path style="stroke: rgb(132,53,17); stroke-width: 1.5; stroke-dasharray: none; stroke-linecap: butt; stroke-dashoffset: 0; stroke-linejoin: miter; stroke-miterlimit: 4; fill: rgb(252,191,73); fill-rule: nonzero; opacity: 1;"  transform=" translate(0, -81.25)" d="M -8 0 L -2 159.5 C -2 159.5 -2 162.5 0 162.5 C 2 162.5 2 159.5 2 159.5 L 8 0" stroke-linecap="round" />
</g>
		<g transform="matrix(0.32 -0.32 0.32 0.32 17.67 -113.35)" id="path15"  >
<path style="stroke: none; stroke-width: 1.5; stroke-dasharray: none; stroke-linecap: butt; stroke-dashoffset: 0; stroke-linejoin: miter; stroke-miterlimit: 4; fill: rgb(132,53,17); fill-rule: nonzero; opacity: 1;"  transform=" translate(0, -54.75)" d="M -4 0 L 0 109.5 L 4 0" stroke-linecap="round" />
</g>
		<g transform="matrix(0.37 -0.25 0.25 0.37 27.29 -90.88)" id="path19"  >
<path style="stroke: rgb(132,53,17); stroke-width: 1.5; stroke-dasharray: none; stroke-linecap: butt; stroke-dashoffset: 0; stroke-linejoin: miter; stroke-miterlimit: 4; fill: rgb(252,191,73); fill-rule: nonzero; opacity: 1;"  transform=" translate(-1.08, -107.63)" d="M -4.5 53.5 C -9.5 75 1.5 89.5 -4 108.5 C -9.5 127.5 -1 140.5 0 148.5 C 1 156.5 -5 160 -3 161.5 C -1 163 5 158 5.5 147 C 6 136 -1.5 131.25 5 108 C 11.5 84.75 1 77 8 56" stroke-linecap="round" />
</g>
		<g transform="matrix(0.37 -0.25 0.25 0.37 21.26 -99.78)" id="path21"  >
<path style="stroke: none; stroke-width: 1.5; stroke-dasharray: none; stroke-linecap: butt; stroke-dashoffset: 0; stroke-linejoin: miter; stroke-miterlimit: 4; fill: rgb(132,53,17); fill-rule: nonzero; opacity: 1;"  transform=" translate(-0.83, -83.5)" d="M -1 58 C -4 79 6 90.5 0 109 C 8 95 -2 81 3 59" stroke-linecap="round" />
</g>
		<g transform="matrix(0.41 0.17 -0.17 0.41 -13.44 -97.16)" id="path13"  >
<path style="stroke: rgb(132,53,17); stroke-width: 1.5; stroke-dasharray: none; stroke-linecap: butt; stroke-dashoffset: 0; stroke-linejoin: miter; stroke-miterlimit: 4; fill: rgb(252,191,73); fill-rule: nonzero; opacity: 1;"  transform=" translate(0, -81.25)" d="M -8 0 L -2 159.5 C -2 159.5 -2 162.5 0 162.5 C 2 162.5 2 159.5 2 159.5 L 8 0" stroke-linecap="round" />
</g>
		<g transform="matrix(0.41 0.17 -0.17 0.41 -8.92 -108.06)" id="path15"  >
<path style="stroke: none; stroke-width: 1.5; stroke-dasharray: none; stroke-linecap: butt; stroke-dashoffset: 0; stroke-linejoin: miter; stroke-miterlimit: 4; fill: rgb(132,53,17); fill-rule: nonzero; opacity: 1;"  transform=" translate(0, -54.75)" d="M -4 0 L 0 109.5 L 4 0" stroke-linecap="round" />
</g>
		<g transform="matrix(0.37 0.25 -0.25 0.37 -26 -90.58)" id="path19"  >
<path style="stroke: rgb(132,53,17); stroke-width: 1.5; stroke-dasharray: none; stroke-linecap: butt; stroke-dashoffset: 0; stroke-linejoin: miter; stroke-miterlimit: 4; fill: rgb(252,191,73); fill-rule: nonzero; opacity: 1;"  transform=" translate(-1.08, -107.63)" d="M -4.5 53.5 C -9.5 75 1.5 89.5 -4 108.5 C -9.5 127.5 -1 140.5 0 148.5 C 1 156.5 -5 160 -3 161.5 C -1 163 5 158 5.5 147 C 6 136 -1.5 131.25 5 108 C 11.5 84.75 1 77 8 56" stroke-linecap="round" />
</g>
		<g transform="matrix(0.37 0.25 -0.25 0.37 -20.08 -99.55)" id="path21"  >
<path style="stroke: none; stroke-width: 1.5; stroke-dasharray: none; stroke-linecap: butt; stroke-dashoffset: 0; stroke-linejoin: miter; stroke-miterlimit: 4; fill: rgb(132,53,17); fill-rule: nonzero; opacity: 1;"  transform=" translate(-0.83, -83.5)" d="M -1 58 C -4 79 6 90.5 0 109 C 8 95 -2 81 3 59" stroke-linecap="round" />
</g>
		<g transform="matrix(-0.41 -0.17 0.17 -0.41 14.27 -164.04)" id="path13"  >
<path style="stroke: rgb(132,53,17); stroke-width: 1.5; stroke-dasharray: none; stroke-linecap: butt; stroke-dashoffset: 0; stroke-linejoin: miter; stroke-miterlimit: 4; fill: rgb(252,191,73); fill-rule: nonzero; opacity: 1;"  transform=" translate(0, -81.25)" d="M -8 0 L -2 159.5 C -2 159.5 -2 162.5 0 162.5 C 2 162.5 2 159.5 2 159.5 L 8 0" stroke-linecap="round" />
</g>
		<g transform="matrix(-0.41 -0.17 0.17 -0.41 9.75 -153.14)" id="path15"  >
<path style="stroke: none; stroke-width: 1.5; stroke-dasharray: none; stroke-linecap: butt; stroke-dashoffset: 0; stroke-linejoin: miter; stroke-miterlimit: 4; fill: rgb(132,53,17); fill-rule: nonzero; opacity: 1;"  transform=" translate(0, -54.75)" d="M -4 0 L 0 109.5 L 4 0" stroke-linecap="round" />
</g>
		<g transform="matrix(-0.37 -0.25 0.25 -0.37 26.83 -170.62)" id="path19"  >
<path style="stroke: rgb(132,53,17); stroke-width: 1.5; stroke-dasharray: none; stroke-linecap: butt; stroke-dashoffset: 0; stroke-linejoin: miter; stroke-miterlimit: 4; fill: rgb(252,191,73); fill-rule: nonzero; opacity: 1;"  transform=" translate(-1.08, -107.63)" d="M -4.5 53.5 C -9.5 75 1.5 89.5 -4 108.5 C -9.5 127.5 -1 140.5 0 148.5 C 1 156.5 -5 160 -3 161.5 C -1 163 5 158 5.5 147 C 6 136 -1.5 131.25 5 108 C 11.5 84.75 1 77 8 56" stroke-linecap="round" />
</g>
		<g transform="matrix(-0.37 -0.25 0.25 -0.37 20.91 -161.65)" id="path21"  >
<path style="stroke: none; stroke-width: 1.5; stroke-dasharray: none; stroke-linecap: butt; stroke-dashoffset: 0; stroke-linejoin: miter; stroke-miterlimit: 4; fill: rgb(132,53,17); fill-rule: nonzero; opacity: 1;"  transform=" translate(-0.83, -83.5)" d="M -1 58 C -4 79 6 90.5 0 109 C 8 95 -2 81 3 59" stroke-linecap="round" />
</g>
		<g transform="matrix(-0.17 0.41 -0.41 -0.17 -33.03 -144.45)" id="path13"  >
<path style="stroke: rgb(132,53,17); stroke-width: 1.5; stroke-dasharray: none; stroke-linecap: butt; stroke-dashoffset: 0; stroke-linejoin: miter; stroke-miterlimit: 4; fill: rgb(252,191,73); fill-rule: nonzero; opacity: 1;"  transform=" translate(0, -81.25)" d="M -8 0 L -2 159.5 C -2 159.5 -2 162.5 0 162.5 C 2 162.5 2 159.5 2 159.5 L 8 0" stroke-linecap="round" />
</g>
		<g transform="matrix(-0.17 0.41 -0.41 -0.17 -22.12 -139.94)" id="path15"  >
<path style="stroke: none; stroke-width: 1.5; stroke-dasharray: none; stroke-linecap: butt; stroke-dashoffset: 0; stroke-linejoin: miter; stroke-miterlimit: 4; fill: rgb(132,53,17); fill-rule: nonzero; opacity: 1;"  transform=" translate(0, -54.75)" d="M -4 0 L 0 109.5 L 4 0" stroke-linecap="round" />
</g>
		<g transform="matrix(-0.25 0.37 -0.37 -0.25 -39.61 -157.02)" id="path19"  >
<path style="stroke: rgb(132,53,17); stroke-width: 1.5; stroke-dasharray: none; stroke-linecap: butt; stroke-dashoffset: 0; stroke-linejoin: miter; stroke-miterlimit: 4; fill: rgb(252,191,73); fill-rule: nonzero; opacity: 1;"  transform=" translate(-1.08, -107.63)" d="M -4.5 53.5 C -9.5 75 1.5 89.5 -4 108.5 C -9.5 127.5 -1 140.5 0 148.5 C 1 156.5 -5 160 -3 161.5 C -1 163 5 158 5.5 147 C 6 136 -1.5 131.25 5 108 C 11.5 84.75 1 77 8 56" stroke-linecap="round" />
</g>
		<g transform="matrix(-0.25 0.37 -0.37 -0.25 -30.63 -151.1)" id="path21"  >
<path style="stroke: none; stroke-width: 1.5; stroke-dasharray: none; stroke-linecap: butt; stroke-dashoffset: 0; stroke-linejoin: miter; stroke-miterlimit: 4; fill: rgb(132,53,17); fill-rule: nonzero; opacity: 1;"  transform=" translate(-0.83, -83.5)" d="M -1 58 C -4 79 6 90.5 0 109 C 8 95 -2 81 3 59" stroke-linecap="round" />
</g>
		<g transform="matrix(0.17 -0.41 0.41 0.17 33.86 -116.75)" id="path13"  >
<path style="stroke: rgb(132,53,17); stroke-width: 1.5; stroke-dasharray: none; stroke-linecap: butt; stroke-dashoffset: 0; stroke-linejoin: miter; stroke-miterlimit: 4; fill: rgb(252,191,73); fill-rule: nonzero; opacity: 1;"  transform=" translate(0, -81.25)" d="M -8 0 L -2 159.5 C -2 159.5 -2 162.5 0 162.5 C 2 162.5 2 159.5 2 159.5 L 8 0" stroke-linecap="round" />
</g>
		<g transform="matrix(0.17 -0.41 0.41 0.17 22.95 -121.27)" id="path15"  >
<path style="stroke: none; stroke-width: 1.5; stroke-dasharray: none; stroke-linecap: butt; stroke-dashoffset: 0; stroke-linejoin: miter; stroke-miterlimit: 4; fill: rgb(132,53,17); fill-rule: nonzero; opacity: 1;"  transform=" translate(0, -54.75)" d="M -4 0 L 0 109.5 L 4 0" stroke-linecap="round" />
</g>
		<g transform="matrix(0.25 -0.37 0.37 0.25 40.44 -104.18)" id="path19"  >
<path style="stroke: rgb(132,53,17); stroke-width: 1.5; stroke-dasharray: none; stroke-linecap: butt; stroke-dashoffset: 0; stroke-linejoin: miter; stroke-miterlimit: 4; fill: rgb(252,191,73); fill-rule: nonzero; opacity: 1;"  transform=" translate(-1.08, -107.63)" d="M -4.5 53.5 C -9.5 75 1.5 89.5 -4 108.5 C -9.5 127.5 -1 140.5 0 148.5 C 1 156.5 -5 160 -3 161.5 C -1 163 5 158 5.5 147 C 6 136 -1.5 131.25 5 108 C 11.5 84.75 1 77 8 56" stroke-linecap="round" />
</g>
		<g transform="matrix(0.25 -0.37 0.37 0.25 31.47 -110.1)" id="path21"  >
<path style="stroke: none; stroke-width: 1.5; stroke-dasharray: none; stroke-linecap: butt; stroke-dashoffset: 0; stroke-linejoin: miter; stroke-miterlimit: 4; fill: rgb(132,53,17); fill-rule: nonzero; opacity: 1;"  transform=" translate(-0.83, -83.5)" d="M -1 58 C -4 79 6 90.5 0 109 C 8 95 -2 81 3 59" stroke-linecap="round" />
</g>
		<g transform="matrix(0.17 0.41 -0.41 0.17 -33.03 -116.75)" id="path13"  >
<path style="stroke: rgb(132,53,17); stroke-width: 1.5; stroke-dasharray: none; stroke-linecap: butt; stroke-dashoffset: 0; stroke-linejoin: miter; stroke-miterlimit: 4; fill: rgb(252,191,73); fill-rule: nonzero; opacity: 1;"  transform=" translate(0, -81.25)" d="M -8 0 L -2 159.5 C -2 159.5 -2 162.5 0 162.5 C 2 162.5 2 159.5 2 159.5 L 8 0" stroke-linecap="round" />
</g>
		<g transform="matrix(0.17 0.41 -0.41 0.17 -22.12 -121.27)" id="path15"  >
<path style="stroke: none; stroke-width: 1.5; stroke-dasharray: none; stroke-linecap: butt; stroke-dashoffset: 0; stroke-linejoin: miter; stroke-miterlimit: 4; fill: rgb(132,53,17); fill-rule: nonzero; opacity: 1;"  transform=" translate(0, -54.75)" d="M -4 0 L 0 109.5 L 4 0" stroke-linecap="round" />
</g>
		<g transform="matrix(0.09 0.44 -0.44 0.09 -46.56 -120.98)" id="path19"  >
<path style="stroke: rgb(132,53,17); stroke-width: 1.5; stroke-dasharray: none; stroke-linecap: butt; stroke-dashoffset: 0; stroke-linejoin: miter; stroke-miterlimit: 4; fill: rgb(252,191,73); fill-rule: nonzero; opacity: 1;"  transform=" translate(-1.08, -107.63)" d="M -4.5 53.5 C -9.5 75 1.5 89.5 -4 108.5 C -9.5 127.5 -1 140.5 0 148.5 C 1 156.5 -5 160 -3 161.5 C -1 163 5 158 5.5 147 C 6 136 -1.5 131.25 5 108 C 11.5 84.75 1 77 8 56" stroke-linecap="round" />
</g>
		<g transform="matrix(0.09 0.44 -0.44 0.09 -36.03 -123.14)" id="path21"  >
<path style="stroke: none; stroke-width: 1.5; stroke-dasharray: none; stroke-linecap: butt; stroke-dashoffset: 0; stroke-linejoin: miter; stroke-miterlimit: 4; fill: rgb(132,53,17); fill-rule: nonzero; opacity: 1;"  transform=" translate(-0.83, -83.5)" d="M -1 58 C -4 79 6 90.5 0 109 C 8 95 -2 81 3 59" stroke-linecap="round" />
</g>
		<g transform="matrix(-0.17 -0.41 0.41 -0.17 33.86 -144.45)" id="path13"  >
<path style="stroke: rgb(132,53,17); stroke-width: 1.5; stroke-dasharray: none; stroke-linecap: butt; stroke-dashoffset: 0; stroke-linejoin: miter; stroke-miterlimit: 4; fill: rgb(252,191,73); fill-rule: nonzero; opacity: 1;"  transform=" translate(0, -81.25)" d="M -8 0 L -2 159.5 C -2 159.5 -2 162.5 0 162.5 C 2 162.5 2 159.5 2 159.5 L 8 0" stroke-linecap="round" />
</g>
		<g transform="matrix(-0.17 -0.41 0.41 -0.17 22.95 -139.94)" id="path15"  >
<path style="stroke: none; stroke-width: 1.5; stroke-dasharray: none; stroke-linecap: butt; stroke-dashoffset: 0; stroke-linejoin: miter; stroke-miterlimit: 4; fill: rgb(132,53,17); fill-rule: nonzero; opacity: 1;"  transform=" translate(0, -54.75)" d="M -4 0 L 0 109.5 L 4 0" stroke-linecap="round" />
</g>
		<g transform="matrix(-0.09 -0.44 0.44 -0.09 47.4 -140.22)" id="path19"  >
<path style="stroke: rgb(132,53,17); stroke-width: 1.5; stroke-dasharray: none; stroke-linecap: butt; stroke-dashoffset: 0; stroke-linejoin: miter; stroke-miterlimit: 4; fill: rgb(252,191,73); fill-rule: nonzero; opacity: 1;"  transform=" translate(-1.08, -107.63)" d="M -4.5 53.5 C -9.5 75 1.5 89.5 -4 108.5 C -9.5 127.5 -1 140.5 0 148.5 C 1 156.5 -5 160 -3 161.5 C -1 163 5 158 5.5 147 C 6 136 -1.5 131.25 5 108 C 11.5 84.75 1 77 8 56" stroke-linecap="round" />
</g>
		<g transform="matrix(-0.09 -0.44 0.44 -0.09 36.87 -138.06)" id="path21"  >
<path style="stroke: none; stroke-width: 1.5; stroke-dasharray: none; stroke-linecap: butt; stroke-dashoffset: 0; stroke-linejoin: miter; stroke-miterlimit: 4; fill: rgb(132,53,17); fill-rule: nonzero; opacity: 1;"  transform=" translate(-0.83, -83.5)" d="M -1 58 C -4 79 6 90.5 0 109 C 8 95 -2 81 3 59" stroke-linecap="round" />
</g>
		<g transform="matrix(-0.41 0.17 -0.17 -0.41 -13.44 -164.04)" id="path13"  >
<path style="stroke: rgb(132,53,17); stroke-width: 1.5; stroke-dasharray: none; stroke-linecap: butt; stroke-dashoffset: 0; stroke-linejoin: miter; stroke-miterlimit: 4; fill: rgb(252,191,73); fill-rule: nonzero; opacity: 1;"  transform=" translate(0, -81.25)" d="M -8 0 L -2 159.5 C -2 159.5 -2 162.5 0 162.5 C 2 162.5 2 159.5 2 159.5 L 8 0" stroke-linecap="round" />
</g>
		<g transform="matrix(-0.41 0.17 -0.17 -0.41 -8.92 -153.14)" id="path15"  >
<path style="stroke: none; stroke-width: 1.5; stroke-dasharray: none; stroke-linecap: butt; stroke-dashoffset: 0; stroke-linejoin: miter; stroke-miterlimit: 4; fill: rgb(132,53,17); fill-rule: nonzero; opacity: 1;"  transform=" translate(0, -54.75)" d="M -4 0 L 0 109.5 L 4 0" stroke-linecap="round" />
</g>
		<g transform="matrix(-0.44 0.09 -0.09 -0.44 -9.2 -177.58)" id="path19"  >
<path style="stroke: rgb(132,53,17); stroke-width: 1.5; stroke-dasharray: none; stroke-linecap: butt; stroke-dashoffset: 0; stroke-linejoin: miter; stroke-miterlimit: 4; fill: rgb(252,191,73); fill-rule: nonzero; opacity: 1;"  transform=" translate(-1.08, -107.63)" d="M -4.5 53.5 C -9.5 75 1.5 89.5 -4 108.5 C -9.5 127.5 -1 140.5 0 148.5 C 1 156.5 -5 160 -3 161.5 C -1 163 5 158 5.5 147 C 6 136 -1.5 131.25 5 108 C 11.5 84.75 1 77 8 56" stroke-linecap="round" />
</g>
		<g transform="matrix(-0.44 0.09 -0.09 -0.44 -7.04 -167.05)" id="path21"  >
<path style="stroke: none; stroke-width: 1.5; stroke-dasharray: none; stroke-linecap: butt; stroke-dashoffset: 0; stroke-linejoin: miter; stroke-miterlimit: 4; fill: rgb(132,53,17); fill-rule: nonzero; opacity: 1;"  transform=" translate(-0.83, -83.5)" d="M -1 58 C -4 79 6 90.5 0 109 C 8 95 -2 81 3 59" stroke-linecap="round" />
</g>
		<g transform="matrix(0.41 -0.17 0.17 0.41 14.27 -97.16)" id="path13"  >
<path style="stroke: rgb(132,53,17); stroke-width: 1.5; stroke-dasharray: none; stroke-linecap: butt; stroke-dashoffset: 0; stroke-linejoin: miter; stroke-miterlimit: 4; fill: rgb(252,191,73); fill-rule: nonzero; opacity: 1;"  transform=" translate(0, -81.25)" d="M -8 0 L -2 159.5 C -2 159.5 -2 162.5 0 162.5 C 2 162.5 2 159.5 2 159.5 L 8 0" stroke-linecap="round" />
</g>
		<g transform="matrix(0.41 -0.17 0.17 0.41 9.75 -108.06)" id="path15"  >
<path style="stroke: none; stroke-width: 1.5; stroke-dasharray: none; stroke-linecap: butt; stroke-dashoffset: 0; stroke-linejoin: miter; stroke-miterlimit: 4; fill: rgb(132,53,17); fill-rule: nonzero; opacity: 1;"  transform=" translate(0, -54.75)" d="M -4 0 L 0 109.5 L 4 0" stroke-linecap="round" />
</g>
		<g transform="matrix(0.44 -0.09 0.09 0.44 10.04 -83.62)" id="path19"  >
<path style="stroke: rgb(132,53,17); stroke-width: 1.5; stroke-dasharray: none; stroke-linecap: butt; stroke-dashoffset: 0; stroke-linejoin: miter; stroke-miterlimit: 4; fill: rgb(252,191,73); fill-rule: nonzero; opacity: 1;"  transform=" translate(-1.08, -107.63)" d="M -4.5 53.5 C -9.5 75 1.5 89.5 -4 108.5 C -9.5 127.5 -1 140.5 0 148.5 C 1 156.5 -5 160 -3 161.5 C -1 163 5 158 5.5 147 C 6 136 -1.5 131.25 5 108 C 11.5 84.75 1 77 8 56" stroke-linecap="round" />
</g>
		<g transform="matrix(0.44 -0.09 0.09 0.44 7.88 -94.15)" id="path21"  >
<path style="stroke: none; stroke-width: 1.5; stroke-dasharray: none; stroke-linecap: butt; stroke-dashoffset: 0; stroke-linejoin: miter; stroke-miterlimit: 4; fill: rgb(132,53,17); fill-rule: nonzero; opacity: 1;"  transform=" translate(-0.83, -83.5)" d="M -1 58 C -4 79 6 90.5 0 109 C 8 95 -2 81 3 59" stroke-linecap="round" />
</g>
		<g transform="matrix(0.45 0 0 0.45 0.42 -130.6)" id="circle31"  >
<circle style="stroke: rgb(132,53,17); stroke-width: 1; stroke-dasharray: none; stroke-linecap: butt; stroke-dashoffset: 0; stroke-linejoin: miter; stroke-miterlimit: 4; fill: rgb(252,191,73); fill-rule: nonzero; opacity: 1;"  cx="0" cy="0" r="65" />
</g>
		<g transform="matrix(0.45 0 0 0.45 9.99 -134.18)" id="eyebrow_nose"  >
<path style="stroke: none; stroke-width: 1.5; stroke-dasharray: none; stroke-linecap: butt; stroke-dashoffset: 0; stroke-linejoin: miter; stroke-miterlimit: 4; fill: rgb(132,53,17); fill-rule: nonzero; opacity: 1;"  transform=" translate(-21.48, 8.03)" d="M 41 -14 C 29.5 -24 15 -25.5 7 -18 C 1.1936273 -10.23694 1.7110236 -1.0962716 8.5 8.5 C 8 8.5 7 9 6.5 9.5 C 1.457445 -0.10281648 0.59005143 -9.991103 4 -19 C 15 -28 30 -29 41 -14" stroke-linecap="round" />
</g>
		<g transform="matrix(0.45 0 0 0.45 10.42 -136.28)" id="uppalpebra"  >
<path style="stroke: none; stroke-width: 1.5; stroke-dasharray: none; stroke-linecap: butt; stroke-dashoffset: 0; stroke-linejoin: miter; stroke-miterlimit: 4; fill: rgb(132,53,17); fill-rule: nonzero; opacity: 1;"  transform=" translate(-22.46, 12.74)" d="M 23 -17 C 16.5 -17 15 -15.5 12 -13 C 9 -10.5 7.5 -11 7 -10.5 C 6.5 -10 7 -8.5 8 -9 C 9 -9.5 11 -10.5 14 -13 C 17 -15.5 20 -15.5 23 -15.5 C 32 -15.5 37 -8 38 -8.5 C 39 -9 33 -17 23 -17" stroke-linecap="round" />
</g>
		<g transform="matrix(0.45 0 0 0.45 10.55 -135.47)" id="upeyecontour"  >
<path style="stroke: none; stroke-width: 1.5; stroke-dasharray: none; stroke-linecap: butt; stroke-dashoffset: 0; stroke-linejoin: miter; stroke-miterlimit: 4; fill: rgb(132,53,17); fill-rule: nonzero; opacity: 1;"  transform=" translate(-22.75, 10.94)" d="M 34.5 -8.5 C 28 -15.5 16 -16 11 -8 L 13 -8 C 18 -16 30 -12.5 31 -9 L 31 -8" stroke-linecap="round" />
</g>
		<g transform="matrix(0.45 0 0 0.45 10.22 -134.61)" id="pupil"  >
<circle style="stroke: none; stroke-width: 1.5; stroke-dasharray: none; stroke-linecap: butt; stroke-dashoffset: 0; stroke-linejoin: miter; stroke-miterlimit: 4; fill: rgb(132,53,17); fill-rule: nonzero; opacity: 1;"  cx="0" cy="0" r="4.5" />
</g>
		<g transform="matrix(0.45 0 0 0.45 10.55 -133.61)" id="loweyecontour"  >
<path style="stroke: none; stroke-width: 1.5; stroke-dasharray: none; stroke-linecap: butt; stroke-dashoffset: 0; stroke-linejoin: miter; stroke-miterlimit: 4; fill: rgb(132,53,17); fill-rule: nonzero; opacity: 1;"  transform=" translate(-22.75, 6.75)" d="M 11 -8 C 16 -3.5 27 -3 34.5 -8.5 L 31 -9 C 26 -3.5 18 -4 13 -8 L 13 -9" stroke-linecap="round" />
</g>
		<g transform="matrix(0.45 0 0 0.45 10.1 -132.35)" id="lowpalpebra"  >
<path style="stroke: none; stroke-width: 1.5; stroke-dasharray: none; stroke-linecap: butt; stroke-dashoffset: 0; stroke-linejoin: miter; stroke-miterlimit: 4; fill: rgb(132,53,17); fill-rule: nonzero; opacity: 1;"  transform=" translate(-21.74, 3.94)" d="M 35 -6 C 26.5 0.5 18 0 13 -3 C 8 -6 8 -7 9 -7 C 10 -7 11 -6 15 -4 C 19 -2 25 -2 35 -6" stroke-linecap="round" />
</g>
		<g transform="matrix(0.45 0 0 0.45 3.36 -124.6)" id="nose"  >
<path style="stroke: none; stroke-width: 1.5; stroke-dasharray: none; stroke-linecap: butt; stroke-dashoffset: 0; stroke-linejoin: miter; stroke-miterlimit: 4; fill: rgb(132,53,17); fill-rule: nonzero; opacity: 1;"  transform=" translate(-6.6, -13.46)" d="M 10.5 9 C 11.91609 9.5034893 12.741084 10.977139 12.430035 12.447534 C 12.118986 13.917928 10.767895 14.931246 9.2692225 14.818143 C 7.7705501 14.70504 6.5868446 13.500423 6.5 12 C 6 13 4 16 0 16 L -1 16 L 0 17.5 C 1 17.5 4 17.5 6 16 C 7.1633883 17.669092 9.3019644 18.349966 11.216194 17.660715 C 13.130424 16.971465 14.344072 15.083568 14.176399 13.055952 C 14.008726 11.028336 12.501448 9.3654448 10.5 9" stroke-linecap="round" />
</g>
		<g transform="matrix(0.45 0 0 0.45 3.87 -118.91)" id="uplip"  >
<path style="stroke: none; stroke-width: 1.5; stroke-dasharray: none; stroke-linecap: butt; stroke-dashoffset: 0; stroke-linejoin: miter; stroke-miterlimit: 4; fill: rgb(132,53,17); fill-rule: nonzero; opacity: 1;"  transform=" translate(-7.75, -26.25)" d="M 16.5 30 C 12 27 10 22.5 5 22.5 C 4 22.5 2 23 0 24 L -1 24 L 0 25.5 C 2 25.5 5 23 8.5 25 C 12 27 14 29 16.5 30" stroke-linecap="round" />
</g>
		<g transform="matrix(0.45 0 0 0.45 3.54 -117.38)" id="midlip"  >
<path style="stroke: none; stroke-width: 1.5; stroke-dasharray: none; stroke-linecap: butt; stroke-dashoffset: 0; stroke-linejoin: miter; stroke-miterlimit: 4; fill: rgb(132,53,17); fill-rule: nonzero; opacity: 1;"  transform=" translate(-7, -29.67)" d="M 15 30 C 5 27 3 29 0 29 L -1 29 L 0 31 C 4 31 6 28 15 30" stroke-linecap="round" />
</g>
		<g transform="matrix(0.45 0 0 0.45 3.87 -115.7)" id="path43"  >
<path style="stroke: none; stroke-width: 1.5; stroke-dasharray: none; stroke-linecap: butt; stroke-dashoffset: 0; stroke-linejoin: miter; stroke-miterlimit: 4; fill: rgb(132,53,17); fill-rule: nonzero; opacity: 1;"  transform=" translate(-7.75, -33.45)" d="M 16.5 30 C 5.5 29 9 35.5 0 35.5 L -1 35.5 L 0 37 C 11 37 6 31 16.5 30" stroke-linecap="round" />
</g>
		<g transform="matrix(0.45 0 0 0.45 0.42 -112.11)" id="chin"  >
<path style="stroke: none; stroke-width: 1.5; stroke-dasharray: none; stroke-linecap: butt; stroke-dashoffset: 0; stroke-linejoin: miter; stroke-miterlimit: 4; fill: rgb(132,53,17); fill-rule: nonzero; opacity: 1;"  transform=" translate(0, -41.5)" d="M 9 46 C 9 41.029437 4.9705627 37 2.5494743e-15 37 C -4.9705627 37 -9 41.029437 -9 46 C -8.0103271 41.830032 -4.2858007 38.886001 1.0005764e-15 38.886001 C 4.2858007 38.886001 8.0103271 41.830032 9 46" stroke-linecap="round" />
</g>
		<g transform="matrix(-0.45 0 0 0.45 -9.15 -134.18)" id="eyebrow_nose"  >
<path style="stroke: none; stroke-width: 1.5; stroke-dasharray: none; stroke-linecap: butt; stroke-dashoffset: 0; stroke-linejoin: miter; stroke-miterlimit: 4; fill: rgb(132,53,17); fill-rule: nonzero; opacity: 1;"  transform=" translate(-21.48, 8.03)" d="M 41 -14 C 29.5 -24 15 -25.5 7 -18 C 1.1936273 -10.23694 1.7110236 -1.0962716 8.5 8.5 C 8 8.5 7 9 6.5 9.5 C 1.457445 -0.10281648 0.59005143 -9.991103 4 -19 C 15 -28 30 -29 41 -14" stroke-linecap="round" />
</g>
		<g transform="matrix(-0.45 0 0 0.45 -9.59 -136.28)" id="uppalpebra"  >
<path style="stroke: none; stroke-width: 1.5; stroke-dasharray: none; stroke-linecap: butt; stroke-dashoffset: 0; stroke-linejoin: miter; stroke-miterlimit: 4; fill: rgb(132,53,17); fill-rule: nonzero; opacity: 1;"  transform=" translate(-22.46, 12.74)" d="M 23 -17 C 16.5 -17 15 -15.5 12 -13 C 9 -10.5 7.5 -11 7 -10.5 C 6.5 -10 7 -8.5 8 -9 C 9 -9.5 11 -10.5 14 -13 C 17 -15.5 20 -15.5 23 -15.5 C 32 -15.5 37 -8 38 -8.5 C 39 -9 33 -17 23 -17" stroke-linecap="round" />
</g>
		<g transform="matrix(-0.45 0 0 0.45 -9.72 -135.47)" id="upeyecontour"  >
<path style="stroke: none; stroke-width: 1.5; stroke-dasharray: none; stroke-linecap: butt; stroke-dashoffset: 0; stroke-linejoin: miter; stroke-miterlimit: 4; fill: rgb(132,53,17); fill-rule: nonzero; opacity: 1;"  transform=" translate(-22.75, 10.94)" d="M 34.5 -8.5 C 28 -15.5 16 -16 11 -8 L 13 -8 C 18 -16 30 -12.5 31 -9 L 31 -8" stroke-linecap="round" />
</g>
		<g transform="matrix(-0.45 0 0 0.45 -9.38 -134.61)" id="pupil"  >
<circle style="stroke: none; stroke-width: 1.5; stroke-dasharray: none; stroke-linecap: butt; stroke-dashoffset: 0; stroke-linejoin: miter; stroke-miterlimit: 4; fill: rgb(132,53,17); fill-rule: nonzero; opacity: 1;"  cx="0" cy="0" r="4.5" />
</g>
		<g transform="matrix(-0.45 0 0 0.45 -9.72 -133.61)" id="loweyecontour"  >
<path style="stroke: none; stroke-width: 1.5; stroke-dasharray: none; stroke-linecap: butt; stroke-dashoffset: 0; stroke-linejoin: miter; stroke-miterlimit: 4; fill: rgb(132,53,17); fill-rule: nonzero; opacity: 1;"  transform=" translate(-22.75, 6.75)" d="M 11 -8 C 16 -3.5 27 -3 34.5 -8.5 L 31 -9 C 26 -3.5 18 -4 13 -8 L 13 -9" stroke-linecap="round" />
</g>
		<g transform="matrix(-0.45 0 0 0.45 -9.27 -132.35)" id="lowpalpebra"  >
<path style="stroke: none; stroke-width: 1.5; stroke-dasharray: none; stroke-linecap: butt; stroke-dashoffset: 0; stroke-linejoin: miter; stroke-miterlimit: 4; fill: rgb(132,53,17); fill-rule: nonzero; opacity: 1;"  transform=" translate(-21.74, 3.94)" d="M 35 -6 C 26.5 0.5 18 0 13 -3 C 8 -6 8 -7 9 -7 C 10 -7 11 -6 15 -4 C 19 -2 25 -2 35 -6" stroke-linecap="round" />
</g>
		<g transform="matrix(-0.45 0 0 0.45 -2.52 -124.6)" id="nose"  >
<path style="stroke: none; stroke-width: 1.5; stroke-dasharray: none; stroke-linecap: butt; stroke-dashoffset: 0; stroke-linejoin: miter; stroke-miterlimit: 4; fill: rgb(132,53,17); fill-rule: nonzero; opacity: 1;"  transform=" translate(-6.6, -13.46)" d="M 10.5 9 C 11.91609 9.5034893 12.741084 10.977139 12.430035 12.447534 C 12.118986 13.917928 10.767895 14.931246 9.2692225 14.818143 C 7.7705501 14.70504 6.5868446 13.500423 6.5 12 C 6 13 4 16 0 16 L -1 16 L 0 17.5 C 1 17.5 4 17.5 6 16 C 7.1633883 17.669092 9.3019644 18.349966 11.216194 17.660715 C 13.130424 16.971465 14.344072 15.083568 14.176399 13.055952 C 14.008726 11.028336 12.501448 9.3654448 10.5 9" stroke-linecap="round" />
</g>
		<g transform="matrix(-0.45 0 0 0.45 -3.04 -118.91)" id="uplip"  >
<path style="stroke: none; stroke-width: 1.5; stroke-dasharray: none; stroke-linecap: butt; stroke-dashoffset: 0; stroke-linejoin: miter; stroke-miterlimit: 4; fill: rgb(132,53,17); fill-rule: nonzero; opacity: 1;"  transform=" translate(-7.75, -26.25)" d="M 16.5 30 C 12 27 10 22.5 5 22.5 C 4 22.5 2 23 0 24 L -1 24 L 0 25.5 C 2 25.5 5 23 8.5 25 C 12 27 14 29 16.5 30" stroke-linecap="round" />
</g>
		<g transform="matrix(-0.45 0 0 0.45 -2.7 -117.38)" id="midlip"  >
<path style="stroke: none; stroke-width: 1.5; stroke-dasharray: none; stroke-linecap: butt; stroke-dashoffset: 0; stroke-linejoin: miter; stroke-miterlimit: 4; fill: rgb(132,53,17); fill-rule: nonzero; opacity: 1;"  transform=" translate(-7, -29.67)" d="M 15 30 C 5 27 3 29 0 29 L -1 29 L 0 31 C 4 31 6 28 15 30" stroke-linecap="round" />
</g>
		<g transform="matrix(-0.45 0 0 0.45 -3.04 -115.7)" id="path43"  >
<path style="stroke: none; stroke-width: 1.5; stroke-dasharray: none; stroke-linecap: butt; stroke-dashoffset: 0; stroke-linejoin: miter; stroke-miterlimit: 4; fill: rgb(132,53,17); fill-rule: nonzero; opacity: 1;"  transform=" translate(-7.75, -33.45)" d="M 16.5 30 C 5.5 29 9 35.5 0 35.5 L -1 35.5 L 0 37 C 11 37 6 31 16.5 30" stroke-linecap="round" />
</g>
		<g transform="matrix(-0.45 0 0 0.45 0.42 -112.11)" id="chin"  >
<path style="stroke: none; stroke-width: 1.5; stroke-dasharray: none; stroke-linecap: butt; stroke-dashoffset: 0; stroke-linejoin: miter; stroke-miterlimit: 4; fill: rgb(132,53,17); fill-rule: nonzero; opacity: 1;"  transform=" translate(0, -41.5)" d="M 9 46 C 9 41.029437 4.9705627 37 2.5494743e-15 37 C -4.9705627 37 -9 41.029437 -9 46 C -8.0103271 41.830032 -4.2858007 38.886001 1.0005764e-15 38.886001 C 4.2858007 38.886001 8.0103271 41.830032 9 46" stroke-linecap="round" />
</g>
		<g transform="matrix(15.63 0 0 15.63 0.67 -17.86)" id="path2187"  >
<path style="stroke: rgb(255,220,77); stroke-width: 0.03981259; stroke-dasharray: none; stroke-linecap: butt; stroke-dashoffset: 0; stroke-linejoin: miter; stroke-miterlimit: 4; fill: rgb(252,191,73); fill-rule: evenodd; opacity: 1;"  transform=" translate(20.73, 137.15)" d="M -20.341813 -136.56178 L -20.728798 -136.84922 L -21.113819 -136.55872 L -20.96003 -137.01559 L -21.355292 -137.292 L -20.87326 -137.28692 L -20.732524 -137.74825 L -20.5884 -137.28824 L -20.106159 -137.29695 L -20.499118 -137.01773 L -20.341813 -136.56178 z" stroke-linecap="round" />
</g>
		<g transform="matrix(15.02 -4.31 4.31 15.02 -26.19 -15.03)" id="path2188"  >
<path style="stroke: rgb(255,220,77); stroke-width: 0.03981259; stroke-dasharray: none; stroke-linecap: butt; stroke-dashoffset: 0; stroke-linejoin: miter; stroke-miterlimit: 4; fill: rgb(252,191,73); fill-rule: evenodd; opacity: 1;"  transform=" translate(20.73, 137.15)" d="M -20.341813 -136.56178 L -20.728798 -136.84922 L -21.113819 -136.55872 L -20.96003 -137.01559 L -21.355292 -137.292 L -20.87326 -137.28692 L -20.732524 -137.74825 L -20.5884 -137.28824 L -20.106159 -137.29695 L -20.499118 -137.01773 L -20.341813 -136.56178 z" stroke-linecap="round" />
</g>
		<g transform="matrix(13.75 -7.43 7.43 13.75 -51.09 -4.98)" id="path2190"  >
<path style="stroke: rgb(255,220,77); stroke-width: 0.03981259; stroke-dasharray: none; stroke-linecap: butt; stroke-dashoffset: 0; stroke-linejoin: miter; stroke-miterlimit: 4; fill: rgb(252,191,73); fill-rule: evenodd; opacity: 1;"  transform=" translate(20.73, 137.15)" d="M -20.341813 -136.56178 L -20.728798 -136.84922 L -21.113819 -136.55872 L -20.96003 -137.01559 L -21.355292 -137.292 L -20.87326 -137.28692 L -20.732524 -137.74825 L -20.5884 -137.28824 L -20.106159 -137.29695 L -20.499118 -137.01773 L -20.341813 -136.56178 z" stroke-linecap="round" />
</g>
		<g transform="matrix(11.38 -10.71 10.71 11.38 -72.64 11.02)" id="path2192"  >
<path style="stroke: rgb(255,220,77); stroke-width: 0.03981259; stroke-dasharray: none; stroke-linecap: butt; stroke-dashoffset: 0; stroke-linejoin: miter; stroke-miterlimit: 4; fill: rgb(252,191,73); fill-rule: evenodd; opacity: 1;"  transform=" translate(20.73, 137.15)" d="M -20.341813 -136.56178 L -20.728798 -136.84922 L -21.113819 -136.55872 L -20.96003 -137.01559 L -21.355292 -137.292 L -20.87326 -137.28692 L -20.732524 -137.74825 L -20.5884 -137.28824 L -20.106159 -137.29695 L -20.499118 -137.01773 L -20.341813 -136.56178 z" stroke-linecap="round" />
</g>
		<g transform="matrix(8.02 -13.42 13.42 8.02 -89.87 31.14)" id="path2194"  >
<path style="stroke: rgb(255,220,77); stroke-width: 0.03981259; stroke-dasharray: none; stroke-linecap: butt; stroke-dashoffset: 0; stroke-linejoin: miter; stroke-miterlimit: 4; fill: rgb(252,191,73); fill-rule: evenodd; opacity: 1;"  transform=" translate(20.73, 137.15)" d="M -20.341813 -136.56178 L -20.728798 -136.84922 L -21.113819 -136.55872 L -20.96003 -137.01559 L -21.355292 -137.292 L -20.87326 -137.28692 L -20.732524 -137.74825 L -20.5884 -137.28824 L -20.106159 -137.29695 L -20.499118 -137.01773 L -20.341813 -136.56178 z" stroke-linecap="round" />
</g>
		<g transform="matrix(4.91 -14.84 14.84 4.91 -101.04 56.04)" id="path2196"  >
<path style="stroke: rgb(255,220,77); stroke-width: 0.03981259; stroke-dasharray: none; stroke-linecap: butt; stroke-dashoffset: 0; stroke-linejoin: miter; stroke-miterlimit: 4; fill: rgb(252,191,73); fill-rule: evenodd; opacity: 1;"  transform=" translate(20.73, 137.15)" d="M -20.341813 -136.56178 L -20.728798 -136.84922 L -21.113819 -136.55872 L -20.96003 -137.01559 L -21.355292 -137.292 L -20.87326 -137.28692 L -20.732524 -137.74825 L -20.5884 -137.28824 L -20.106159 -137.29695 L -20.499118 -137.01773 L -20.341813 -136.56178 z" stroke-linecap="round" />
</g>
		<g transform="matrix(-15.23 -3.51 -3.51 15.23 24.51 -15.47)" id="path2208"  >
<path style="stroke: rgb(255,220,77); stroke-width: 0.03981259; stroke-dasharray: none; stroke-linecap: butt; stroke-dashoffset: 0; stroke-linejoin: miter; stroke-miterlimit: 4; fill: rgb(252,191,73); fill-rule: evenodd; opacity: 1;"  transform=" translate(20.73, 137.15)" d="M -20.341813 -136.56178 L -20.728798 -136.84922 L -21.113819 -136.55872 L -20.96003 -137.01559 L -21.355292 -137.292 L -20.87326 -137.28692 L -20.732524 -137.74825 L -20.5884 -137.28824 L -20.106159 -137.29695 L -20.499118 -137.01773 L -20.341813 -136.56178 z" stroke-linecap="round" />
</g>
		<g transform="matrix(-13.67 -7.58 -7.58 13.67 50.05 -6.67)" id="path2210"  >
<path style="stroke: rgb(255,220,77); stroke-width: 0.03981259; stroke-dasharray: none; stroke-linecap: butt; stroke-dashoffset: 0; stroke-linejoin: miter; stroke-miterlimit: 4; fill: rgb(252,191,73); fill-rule: evenodd; opacity: 1;"  transform=" translate(20.73, 137.15)" d="M -20.341813 -136.56178 L -20.728798 -136.84922 L -21.113819 -136.55872 L -20.96003 -137.01559 L -21.355292 -137.292 L -20.87326 -137.28692 L -20.732524 -137.74825 L -20.5884 -137.28824 L -20.106159 -137.29695 L -20.499118 -137.01773 L -20.341813 -136.56178 z" stroke-linecap="round" />
</g>
		<g transform="matrix(-11.73 -10.33 -10.33 11.73 72.06 8.71)" id="path2212"  >
<path style="stroke: rgb(255,220,77); stroke-width: 0.03981259; stroke-dasharray: none; stroke-linecap: butt; stroke-dashoffset: 0; stroke-linejoin: miter; stroke-miterlimit: 4; fill: rgb(252,191,73); fill-rule: evenodd; opacity: 1;"  transform=" translate(20.73, 137.15)" d="M -20.341813 -136.56178 L -20.728798 -136.84922 L -21.113819 -136.55872 L -20.96003 -137.01559 L -21.355292 -137.292 L -20.87326 -137.28692 L -20.732524 -137.74825 L -20.5884 -137.28824 L -20.106159 -137.29695 L -20.499118 -137.01773 L -20.341813 -136.56178 z" stroke-linecap="round" />
</g>
		<g transform="matrix(-8.68 -13 -13 8.68 89.46 29.14)" id="path2214"  >
<path style="stroke: rgb(255,220,77); stroke-width: 0.03981259; stroke-dasharray: none; stroke-linecap: butt; stroke-dashoffset: 0; stroke-linejoin: miter; stroke-miterlimit: 4; fill: rgb(252,191,73); fill-rule: evenodd; opacity: 1;"  transform=" translate(20.73, 137.15)" d="M -20.341813 -136.56178 L -20.728798 -136.84922 L -21.113819 -136.55872 L -20.96003 -137.01559 L -21.355292 -137.292 L -20.87326 -137.28692 L -20.732524 -137.74825 L -20.5884 -137.28824 L -20.106159 -137.29695 L -20.499118 -137.01773 L -20.341813 -136.56178 z" stroke-linecap="round" />
</g>
		<g transform="matrix(-4.8 -14.88 -14.88 4.8 101.73 52.63)" id="path2216"  >
<path style="stroke: rgb(255,220,77); stroke-width: 0.03981259; stroke-dasharray: none; stroke-linecap: butt; stroke-dashoffset: 0; stroke-linejoin: miter; stroke-miterlimit: 4; fill: rgb(252,191,73); fill-rule: evenodd; opacity: 1;"  transform=" translate(20.73, 137.15)" d="M -20.341813 -136.56178 L -20.728798 -136.84922 L -21.113819 -136.55872 L -20.96003 -137.01559 L -21.355292 -137.292 L -20.87326 -137.28692 L -20.732524 -137.74825 L -20.5884 -137.28824 L -20.106159 -137.29695 L -20.499118 -137.01773 L -20.341813 -136.56178 z" stroke-linecap="round" />
</g>
		<g transform="matrix(-1.45 -15.56 -15.56 1.45 107.02 79.39)" id="path2218"  >
<path style="stroke: rgb(255,220,77); stroke-width: 0.03981259; stroke-dasharray: none; stroke-linecap: butt; stroke-dashoffset: 0; stroke-linejoin: miter; stroke-miterlimit: 4; fill: rgb(252,191,73); fill-rule: evenodd; opacity: 1;"  transform=" translate(20.73, 137.15)" d="M -20.341813 -136.56178 L -20.728798 -136.84922 L -21.113819 -136.55872 L -20.96003 -137.01559 L -21.355292 -137.292 L -20.87326 -137.28692 L -20.732524 -137.74825 L -20.5884 -137.28824 L -20.106159 -137.29695 L -20.499118 -137.01773 L -20.341813 -136.56178 z" stroke-linecap="round" />
</g>
		<g transform="matrix(14.5 5.83 5.83 -14.5 -39.37 188.64)" id="path2222"  >
<path style="stroke: rgb(255,220,77); stroke-width: 0.03981259; stroke-dasharray: none; stroke-linecap: butt; stroke-dashoffset: 0; stroke-linejoin: miter; stroke-miterlimit: 4; fill: rgb(252,191,73); fill-rule: evenodd; opacity: 1;"  transform=" translate(20.73, 137.15)" d="M -20.341813 -136.56178 L -20.728798 -136.84922 L -21.113819 -136.55872 L -20.96003 -137.01559 L -21.355292 -137.292 L -20.87326 -137.28692 L -20.732524 -137.74825 L -20.5884 -137.28824 L -20.106159 -137.29695 L -20.499118 -137.01773 L -20.341813 -136.56178 z" stroke-linecap="round" />
</g>
		<g transform="matrix(12.33 9.61 9.61 -12.33 -63.23 175.99)" id="path2224"  >
<path style="stroke: rgb(255,220,77); stroke-width: 0.03981259; stroke-dasharray: none; stroke-linecap: butt; stroke-dashoffset: 0; stroke-linejoin: miter; stroke-miterlimit: 4; fill: rgb(252,191,73); fill-rule: evenodd; opacity: 1;"  transform=" translate(20.73, 137.15)" d="M -20.341813 -136.56178 L -20.728798 -136.84922 L -21.113819 -136.55872 L -20.96003 -137.01559 L -21.355292 -137.292 L -20.87326 -137.28692 L -20.732524 -137.74825 L -20.5884 -137.28824 L -20.106159 -137.29695 L -20.499118 -137.01773 L -20.341813 -136.56178 z" stroke-linecap="round" />
</g>
		<g transform="matrix(9.98 12.02 12.02 -9.98 -82.58 157.37)" id="path2226"  >
<path style="stroke: rgb(255,220,77); stroke-width: 0.03981259; stroke-dasharray: none; stroke-linecap: butt; stroke-dashoffset: 0; stroke-linejoin: miter; stroke-miterlimit: 4; fill: rgb(252,191,73); fill-rule: evenodd; opacity: 1;"  transform=" translate(20.73, 137.15)" d="M -20.341813 -136.56178 L -20.728798 -136.84922 L -21.113819 -136.55872 L -20.96003 -137.01559 L -21.355292 -137.292 L -20.87326 -137.28692 L -20.732524 -137.74825 L -20.5884 -137.28824 L -20.106159 -137.29695 L -20.499118 -137.01773 L -20.341813 -136.56178 z" stroke-linecap="round" />
</g>
		<g transform="matrix(6.56 14.19 14.19 -6.56 -96.6 134.49)" id="path2228"  >
<path style="stroke: rgb(255,220,77); stroke-width: 0.03981259; stroke-dasharray: none; stroke-linecap: butt; stroke-dashoffset: 0; stroke-linejoin: miter; stroke-miterlimit: 4; fill: rgb(252,191,73); fill-rule: evenodd; opacity: 1;"  transform=" translate(20.73, 137.15)" d="M -20.341813 -136.56178 L -20.728798 -136.84922 L -21.113819 -136.55872 L -20.96003 -137.01559 L -21.355292 -137.292 L -20.87326 -137.28692 L -20.732524 -137.74825 L -20.5884 -137.28824 L -20.106159 -137.29695 L -20.499118 -137.01773 L -20.341813 -136.56178 z" stroke-linecap="round" />
</g>
		<g transform="matrix(2.43 15.44 15.44 -2.43 -105.07 109.38)" id="path2230"  >
<path style="stroke: rgb(255,220,77); stroke-width: 0.03981259; stroke-dasharray: none; stroke-linecap: butt; stroke-dashoffset: 0; stroke-linejoin: miter; stroke-miterlimit: 4; fill: rgb(252,191,73); fill-rule: evenodd; opacity: 1;"  transform=" translate(20.73, 137.15)" d="M -20.341813 -136.56178 L -20.728798 -136.84922 L -21.113819 -136.55872 L -20.96003 -137.01559 L -21.355292 -137.292 L -20.87326 -137.28692 L -20.732524 -137.74825 L -20.5884 -137.28824 L -20.106159 -137.29695 L -20.499118 -137.01773 L -20.341813 -136.56178 z" stroke-linecap="round" />
</g>
		<g transform="matrix(-0.98 15.6 15.6 0.98 -106.14 82.12)" id="path2232"  >
<path style="stroke: rgb(255,220,77); stroke-width: 0.03981259; stroke-dasharray: none; stroke-linecap: butt; stroke-dashoffset: 0; stroke-linejoin: miter; stroke-miterlimit: 4; fill: rgb(252,191,73); fill-rule: evenodd; opacity: 1;"  transform=" translate(20.73, 137.15)" d="M -20.341813 -136.56178 L -20.728798 -136.84922 L -21.113819 -136.55872 L -20.96003 -137.01559 L -21.355292 -137.292 L -20.87326 -137.28692 L -20.732524 -137.74825 L -20.5884 -137.28824 L -20.106159 -137.29695 L -20.499118 -137.01773 L -20.341813 -136.56178 z" stroke-linecap="round" />
</g>
		<g transform="matrix(-15.49 2.09 -2.09 -15.49 14.12 193.47)" id="path2236"  >
<path style="stroke: rgb(255,220,77); stroke-width: 0.03981259; stroke-dasharray: none; stroke-linecap: butt; stroke-dashoffset: 0; stroke-linejoin: miter; stroke-miterlimit: 4; fill: rgb(252,191,73); fill-rule: evenodd; opacity: 1;"  transform=" translate(20.73, 137.15)" d="M -20.341813 -136.56178 L -20.728798 -136.84922 L -21.113819 -136.55872 L -20.96003 -137.01559 L -21.355292 -137.292 L -20.87326 -137.28692 L -20.732524 -137.74825 L -20.5884 -137.28824 L -20.106159 -137.29695 L -20.499118 -137.01773 L -20.341813 -136.56178 z" stroke-linecap="round" />
</g>
		<g transform="matrix(-14.31 6.28 -6.28 -14.31 40.36 187.07)" id="path2238"  >
<path style="stroke: rgb(255,220,77); stroke-width: 0.03981259; stroke-dasharray: none; stroke-linecap: butt; stroke-dashoffset: 0; stroke-linejoin: miter; stroke-miterlimit: 4; fill: rgb(252,191,73); fill-rule: evenodd; opacity: 1;"  transform=" translate(20.73, 137.15)" d="M -20.341813 -136.56178 L -20.728798 -136.84922 L -21.113819 -136.55872 L -20.96003 -137.01559 L -21.355292 -137.292 L -20.87326 -137.28692 L -20.732524 -137.74825 L -20.5884 -137.28824 L -20.106159 -137.29695 L -20.499118 -137.01773 L -20.341813 -136.56178 z" stroke-linecap="round" />
</g>
		<g transform="matrix(-12.64 9.2 -9.2 -12.64 63.69 173.79)" id="path2240"  >
<path style="stroke: rgb(255,220,77); stroke-width: 0.03981259; stroke-dasharray: none; stroke-linecap: butt; stroke-dashoffset: 0; stroke-linejoin: miter; stroke-miterlimit: 4; fill: rgb(252,191,73); fill-rule: evenodd; opacity: 1;"  transform=" translate(20.73, 137.15)" d="M -20.341813 -136.56178 L -20.728798 -136.84922 L -21.113819 -136.55872 L -20.96003 -137.01559 L -21.355292 -137.292 L -20.87326 -137.28692 L -20.732524 -137.74825 L -20.5884 -137.28824 L -20.106159 -137.29695 L -20.499118 -137.01773 L -20.341813 -136.56178 z" stroke-linecap="round" />
</g>
		<g transform="matrix(-9.84 12.14 -12.14 -9.84 82.91 155.05)" id="path2242"  >
<path style="stroke: rgb(255,220,77); stroke-width: 0.03981259; stroke-dasharray: none; stroke-linecap: butt; stroke-dashoffset: 0; stroke-linejoin: miter; stroke-miterlimit: 4; fill: rgb(252,191,73); fill-rule: evenodd; opacity: 1;"  transform=" translate(20.73, 137.15)" d="M -20.341813 -136.56178 L -20.728798 -136.84922 L -21.113819 -136.55872 L -20.96003 -137.01559 L -21.355292 -137.292 L -20.87326 -137.28692 L -20.732524 -137.74825 L -20.5884 -137.28824 L -20.106159 -137.29695 L -20.499118 -137.01773 L -20.341813 -136.56178 z" stroke-linecap="round" />
</g>
		<g transform="matrix(-6.15 14.37 -14.37 -6.15 97.3 132.8)" id="path2244"  >
<path style="stroke: rgb(255,220,77); stroke-width: 0.03981259; stroke-dasharray: none; stroke-linecap: butt; stroke-dashoffset: 0; stroke-linejoin: miter; stroke-miterlimit: 4; fill: rgb(252,191,73); fill-rule: evenodd; opacity: 1;"  transform=" translate(20.73, 137.15)" d="M -20.341813 -136.56178 L -20.728798 -136.84922 L -21.113819 -136.55872 L -20.96003 -137.01559 L -21.355292 -137.292 L -20.87326 -137.28692 L -20.732524 -137.74825 L -20.5884 -137.28824 L -20.106159 -137.29695 L -20.499118 -137.01773 L -20.341813 -136.56178 z" stroke-linecap="round" />
</g>
		<g transform="matrix(-2.88 15.36 -15.36 -2.88 105.04 106.64)" id="path2246"  >
<path style="stroke: rgb(255,220,77); stroke-width: 0.03981259; stroke-dasharray: none; stroke-linecap: butt; stroke-dashoffset: 0; stroke-linejoin: miter; stroke-miterlimit: 4; fill: rgb(252,191,73); fill-rule: evenodd; opacity: 1;"  transform=" translate(20.73, 137.15)" d="M -20.341813 -136.56178 L -20.728798 -136.84922 L -21.113819 -136.55872 L -20.96003 -137.01559 L -21.355292 -137.292 L -20.87326 -137.28692 L -20.732524 -137.74825 L -20.5884 -137.28824 L -20.106159 -137.29695 L -20.499118 -137.01773 L -20.341813 -136.56178 z" stroke-linecap="round" />
</g>
		<g transform="matrix(-15.6 -0.97 0.97 -15.6 -12.54 194.77)" id="path2254"  >
<path style="stroke: rgb(255,220,77); stroke-width: 0.03981259; stroke-dasharray: none; stroke-linecap: butt; stroke-dashoffset: 0; stroke-linejoin: miter; stroke-miterlimit: 4; fill: rgb(252,191,73); fill-rule: evenodd; opacity: 1;"  transform=" translate(20.73, 137.15)" d="M -20.341813 -136.56178 L -20.728798 -136.84922 L -21.113819 -136.55872 L -20.96003 -137.01559 L -21.355292 -137.292 L -20.87326 -137.28692 L -20.732524 -137.74825 L -20.5884 -137.28824 L -20.106159 -137.29695 L -20.499118 -137.01773 L -20.341813 -136.56178 z" stroke-linecap="round" />
</g>
		<g transform="matrix(2.91 0 0 2.91 0.36 103.72)" id="path2295"  >
<path style="stroke: rgb(194,73,0); stroke-width: 0.13304763; stroke-dasharray: none; stroke-linecap: butt; stroke-dashoffset: 0; stroke-linejoin: miter; stroke-miterlimit: 4; fill: rgb(194,73,0); fill-rule: evenodd; opacity: 1;"  transform=" translate(18.72, 92.14)" d="M -46.683858 -93.721302 C -45.408348 -95.228396 -43.740843 -94.795113 -42.935728 -94.616627 C -40.936691 -93.907059 -40.094039 -92.3743 -40.76057 -90.665143 C -36.955391 -90.553332 -35.149388 -91.186312 -34.695768 -91.623295 C -33.506837 -92.916724 -34.179884 -96.346527 -32.36376 -96.248372 C -30.164116 -95.770335 -32.923212 -93.626318 -32.232749 -92.42309 C -29.994727 -93.767114 -23.598968 -96.635643 -20.363089 -96.870937 C -16.392187 -97.270419 -13.126877 -96.415515 -11.978341 -95.482213 C -10.445504 -100.24937 -8.834268 -107.05491 -2.4406892 -107.90212 C 0.025583077 -107.93446 0.49614104 -106.55317 0.63407996 -105.5045 C 0.72268591 -104.29645 0.0074624774 -103.36558 -1.3452808 -103.29397 C -2.5381916 -103.1086 -2.7332452 -104.86351 -4.2587751 -104.6227 C -5.1958701 -104.22657 -5.7449095 -103.49781 -6.3216672 -102.21469 L -1.9735947 -98.158314 C 0.73347497 -100.5978 3.5236994 -102.81555 6.2307691 -102.73268 C 8.6503543 -102.68169 9.8762704 -100.36741 9.7171962 -99.098136 C 9.5547025 -97.801576 9.3814026 -96.966577 7.2792394 -96.505532 C 5.1661414 -96.042089 4.0355871 -98.517016 0.63549462 -95.791072 L -7.3617493 -88.002718 C -4.7427372 -86.826888 -3.4542013 -85.401594 -4.7434631 -84.558384 C -6.529113 -83.720949 -8.1583821 -83.739061 -9.6150446 -83.387548 C -11.341191 -82.971006 -12.183668 -82.751357 -11.991983 -78.897452 L -11.97574 -77.926105 L -26.172649 -77.916035 C -24.359998 -78.369736 -18.749946 -80.209349 -17.020449 -83.933804 L -17.045571 -86.995095 L -15.395037 -87.791207 L -15.809514 -88.365573 C -19.732531 -90.731399 -26.180278 -89.47719 -33.632599 -88.104313 C -33.698289 -86.527799 -34.05812 -84.158643 -35.753911 -83.109961 L -35.887975 -82.734776 C -35.599749 -82.481486 -34.31271 -81.123934 -34.315835 -79.577394 C -34.318961 -78.030825 -35.688182 -76.39381 -37.984162 -76.380709 C -40.267041 -76.367608 -41.220316 -78.587981 -41.233253 -79.564293 C -41.24619 -80.553706 -40.562845 -83.122823 -37.476396 -83.100678 L -37.292979 -83.555109 C -38.191542 -84.226159 -37.200264 -86.564716 -36.931572 -87.069016 C -38.593765 -86.694961 -41.275146 -86.418904 -43.70173 -86.966038 C -47.17841 -88.283537 -47.754324 -92.560601 -46.683858 -93.721302 z M -10.181446 -93.762959 C -9.5607865 -94.932412 -7.1565484 -99.943418 -6.8494853 -101.19127 C -6.5685553 -100.57714 -3.7200559 -97.709044 -2.9491317 -97.212518 C -3.9356534 -96.800922 -8.1365368 -92.116578 -8.8486618 -91.156189 C -9.109992 -91.95978 -9.8025171 -93.253365 -10.181446 -93.762959 z M -38.15471 -81.297509 C -38.15471 -80.932088 -38.451284 -80.635515 -38.816705 -80.635515 C -39.182125 -80.635515 -39.478699 -80.932088 -39.478699 -81.297509 C -39.478699 -81.662931 -39.182125 -81.959504 -38.816705 -81.959504 C -38.451284 -81.959504 -38.15471 -81.662931 -38.15471 -81.297509 z M -35.410744 -80.297917 C -35.410744 -79.932496 -35.707318 -79.635923 -36.072739 -79.635923 C -36.438159 -79.635923 -36.734733 -79.932496 -36.734733 -80.297917 C -36.734733 -80.663339 -36.438159 -80.959912 -36.072739 -80.959912 C -35.707318 -80.959912 -35.410744 -80.663339 -35.410744 -80.297917 z M -37.684315 -78.494742 C -37.684315 -78.129321 -37.980889 -77.832748 -38.34631 -77.832748 C -38.71173 -77.832748 -39.008304 -78.129321 -39.008304 -78.494742 C -39.008304 -78.860164 -38.71173 -79.156737 -38.34631 -79.156737 C -37.980889 -79.156737 -37.684315 -78.860164 -37.684315 -78.494742 z" stroke-linecap="round" />
</g>
		<g transform="matrix(2.91 0 0 2.91 1.47 108.28)" id="path2225"  >
<path style="stroke: rgb(219,142,69); stroke-width: 0.13304763; stroke-dasharray: none; stroke-linecap: butt; stroke-dashoffset: 0; stroke-linejoin: miter; stroke-miterlimit: 4; fill: rgb(219,142,69); fill-rule: evenodd; opacity: 1;"  transform=" translate(18.34, 90.57)" d="M -43.222498 -91.559842 C -45.162982 -92.217759 -44.329671 -93.636127 -43.458454 -93.477241 C -40.955633 -92.825079 -43.77559 -90.683574 -42.07055 -89.50361 C -40.88194 -88.833206 -35.39517 -89.551599 -34.412357 -90.458976 C -33.204403 -91.897722 -33.336535 -95.630456 -32.49055 -95.449146 C -31.759974 -95.165137 -33.936986 -91.579771 -33.30196 -90.73688 C -30.370981 -91.36023 -25.970936 -95.254334 -20.268133 -95.572782 C -15.299374 -95.861391 -13.364541 -94.424404 -12.410033 -93.546539 C -10.435015 -92.080596 -9.9103791 -89.634666 -9.6601402 -88.501919 C -9.1862868 -89.086939 0.50537294 -101.34424 5.1097242 -101.55293 C 7.6027136 -101.55123 7.9994881 -100.26892 7.5859968 -100.03507 C 6.4677256 -99.664624 6.7653022 -100.60204 5.5075611 -100.57161 C 1.7095237 -100.2492 -7.0928827 -90.558342 -8.9514582 -88.058819 C -7.128973 -86.641643 -7.1647647 -86.159346 -7.428451 -85.648755 C -8.0067949 -84.903986 -9.2053207 -85.938982 -9.7776713 -86.015874 C -10.897923 -86.166375 -12.062964 -81.700597 -14.386675 -79.595251 L -19.508467 -79.611452 C -14.461855 -80.535547 -13.008247 -84.102149 -12.12154 -85.964626 C -10.611756 -88.730015 -12.943526 -92.906587 -16.843278 -93.006407 L -12.542259 -89.175581 L -15.175349 -89.181723 L -16.934161 -90.878679 C -19.401969 -92.898027 -26.057605 -92.142746 -34.092009 -89.106774 C -34.951797 -87.433303 -35.340377 -83.847271 -35.922983 -84.058641 C -36.572082 -84.452509 -34.955581 -88.4973 -34.686889 -89.0016 C -35.761089 -88.784343 -40.551367 -88.3218 -41.841164 -88.692536 C -43.38453 -89.106237 -43.998967 -89.909147 -43.222498 -91.559842 z" stroke-linecap="round" />
</g>
		<g transform="matrix(2.91 0 0 2.91 36.41 78.62)" id="path4166"  >
<path style="stroke: rgb(219,142,69); stroke-width: 0.13304763; stroke-dasharray: none; stroke-linecap: butt; stroke-dashoffset: 0; stroke-linejoin: miter; stroke-miterlimit: 4; fill: rgb(219,142,69); fill-rule: evenodd; opacity: 1;"  transform=" translate(6.32, 100.77)" d="M -11.407365 -94.995248 C -10.602025 -97.824061 -8.0292472 -104.86176 -2.9767912 -106.90892 C -1.9235611 -107.16186 -1.5482625 -106.6577 -1.3428911 -106.29981 C -1.193959 -106.05716 -0.96392798 -105.11512 -2.2812026 -105.00449 C -2.9015486 -104.96042 -2.8429472 -105.69906 -4.1560967 -105.50982 C -6.4061995 -104.82439 -9.4266635 -98.626564 -10.521618 -94.902532 C -10.673928 -94.379153 -11.497387 -94.526343 -11.407365 -94.995248 z" stroke-linecap="round" />
</g>
</g>
</g>
</svg>
