<?xml version="1.0" encoding="UTF-8"?> 
<svg xmlns="http://www.w3.org/2000/svg" xmlns:xlink="http://www.w3.org/1999/xlink" width="700" height="450" viewBox="0 0 7000000 4500000">
<rect height="4.5E+6" width="7E+6" fill="#75aadb"/>
<rect height="2E+6" width="7E+6" y="1250000" fill="#fff"/>
<g>
<path fill="#000" d="m2631900,2624000,102180-94252,71732,70188-12057,11123-58604-57342-31294,28867,54882,53700-11988,11058-54882-53701-34778,32082,60905,59594-12057,11122-74033-72439zm92390,90001,98554-97670,13955,12710-23381,125860,77378-76684,13044,11880-98554,97670-13955-12710,23448-125930-77445,76750-13043-11880zm308370,81965,14491,11447-52607,60108c-9151.1,10455-17663,17775-25535,21958-7872.9,4183.2-16746,5635.8-26619,4358-9873.3-1278.1-20088-6086.6-30645-14426-10258-8103.7-17179-16412-20763-24924-3583.5-8512.2-3985.3-17052-1204.4-25618,2780.7-8566.2,8994.7-18361,18643-29384l52607-60107,14491,11448-52545,60036c-7908.4,9036.3-12853,16393-14832,22071-1979.7,5678-1830.3,11378,449,17098,2278.5,5720.9,6530.2,11040,12755,15958,10657,8418.3,20259,12123,28807,11114,8547.5-1008.9,18536-8042.7,29964-21100l52545-60036zm-52034,133990,82937-109990,15715,10696-4307.7,127740,65116-86356,14689,9997.2-82937,109990-15716-10696,4364.6-127820-65173,86431-14689-9997.1zm120990,79539,75414-114770,15987,9481.4-75414,114770-15987-9481.1zm69928-34092c10718-20017,24766-32953,42144-38810,17377-5856.3,35013-4460.3,52908,4188,11718,5663.3,20857,13428,27418,23295,6560.2,9867.1,9760.8,20750,9601.4,32650-159.6,11900-3469.4,23882-9929.5,35948-6548.4,12229-15004,21914-25367,29055-10364,7141-21636,10891-33818,11251-12182,360.2-23785-2124.4-34810-7453.1-11949-5774.9-21160-13678-27632-23709-6472.2-10031-9592.9-20962-9361.5-32793,231.6-11831,3180.6-23038,8848-33622zm17185,8616.2c-7781.7,14533-9798.9,27968-6051.3,40307,3747.4,12339,11826,21507,24237,27505,12641,6109.5,25307,6915.4,37997,2417.6,12690-4497.7,23190-14506,31500-30026,5256.2-9816.1,8098.3-19229,8526.7-28238,427.2-9009.1-1641.7-17154-6208.1-24435-4566.5-7280.9-11035-12944-19404-16989-11891-5746.9-24200-6812-36927-3195-12727,3617.2-23951,14502-33670,32654zm95176,117530,43281-128900,18418,5581.8,37282,122800,33981-101200,17214,5217.1-43282,128900-18417-5581.8-37253-122890-34011,101290-17214-5217zm232990,47942,1522.6-57295-52797-79278,22919,549.9,26982,41454c4976.4,7751.3,9597.3,15494,13862,23228,4460.9-6970.8,9851.9-14812,16173-23524l28637-39104,21948,526.9-58884,76600-1522.6,57295-18840-451.2zm146680-9722.7-36821-130700,18205-4629.2,32476,115280,67754-17228,4345,15424-85959,21858zm109630-31898-53221-125500,17481-6691.2,53221,125500-17481,6691.2zm47712-17962-68185-118790,46908-24303c9552.1-4948.8,17904-7716.5,25054-8302.9,7150.9-585.8,13795,771.7,19933,4074.9,6137.5,3302.9,10772,7682.1,13904,13138,2914.8,5077.9,4209,10609,3882.9,16595-325.6,5986.2-2626.6,11874-6901.6,17662,8771.4-1811,16647-1230.6,23627,1740.2,6980.1,2971.6,12454,7914.3,16424,14829,3193.5,5563.9,4926,11377,5196.9,17439,270.2,6062-669.2,11332-2819.6,15810-2150.5,4478.1-5589.5,8800.5-10317,12966-4727.1,4166.4-11070,8311.6-19030,12436l-47675,24701zm-22989-77445,27036-14008c7334.5-3800,12330-6983.9,14987-9552.1,3525.6-3368.2,5563.5-6982.3,6114.2-10842,550.7-3859.5-366.7-7868.8-2755.2-12028-2263.5-3943.1-5250.7-6898.1-8961.5-8865.3-3711-1966.8-7732.2-2546.5-12064-1739.3-4331.5,807.6-10989,3538.6-19973,8192.9l-24989,12947,20604,35895zm31488,54855,31130-16129c5344.5-2769.1,8988.7-4902.3,10932-6400.1,3437.4-2621.8,6001.4-5351.9,7691.8-8189.9,1690.4-2838.1,2530.6-6129.4,2520.6-9873.6-10.1-3744.3-1100.3-7507-3270.8-11288-2542.7-4429.4-5946.1-7659.8-10210-9690.6-4264-2030.5-8893.9-2610.4-13890-1739.3-4995.5,871.6-11473,3369-19433,7493.1l-28912,14980,23442,40838zm107910-40657-84017-109250,83145-57715,9914.7,12892-67928,47152,25732,33460,63614-44157,9857.4,12818-63614,44157,28598,37186,70595-49003,9914.6,12892-85812,59566zm106140-75848-95213-100620,46958-40107c9439.7-8062.4,17471-13288,24094-15676,6622.9-2388.3,13568-2549.5,20836-483.3,7267.7,2066.6,13521,5868,18760,11404,6754.4,7138.1,10016,15232,9784.4,24283-231.6,9050.9-4800.2,18579-13707,28586,5310.2-1474.4,9708.2-2210.7,13194-2209,7470.9,76.9,15569,1221.7,24296,3449.3l44336,11651-17627,15056-33824-8963.2c-9809.3-2543-17554-4284.8-23233-5225.5-5679.9-940.9-10173-1156.3-13480-648.6-3307.6,508.9-6282.9,1436.2-8926.5,2783.7-1892.5,1037.1-4644.6,3098.6-8256.9,6183.7l-16255,13883,42281,44680-14015,11971zm-39177-68182,30125-25730c6405.4-5471.1,10819-10378,13240-14722,2421.4-4343.1,3261.5-8701.2,2520.2-13074-741.2-4372.4-2649-8182.9-5723-11432-4503.1-4758.3-10023-7117.7-16560-7077.6-6537.3,38.5-13731,3412.9-21581,10118l-33521,28630,31500,33288zm169750-49074-90533-82721-32525,32129-12113-11068,78249-77297,12113,11068-32660,32262,90533,82721-13064,12905zm48339-47817-71952-127800,13280-14591,145850,46610-14042,15429-43492-14865-38950,42795,22396,38043-13089,14381zm-17359-65871,31580-34697-39556-13828c-12028-4187.2-21677-7884.3-28947-11091,5721.3,6977.6,10906,14450,15556,22418l21367,37197zm113940-41352-111780-83838,30398-36582c6862.4-8257.8,12633-14160,17312-17706,6530.6-4979.1,13513-8168.8,20948-9569.7,9636.6-1865.2,19484-1279.3,29544,1757.7,10060,3037.6,20071,8292.5,30034,15765,8488.9,6367.2,15229,12951,20222,19753,4992.2,6801.7,8411.9,13286,10259,19454,1847.2,6167.6,2548.8,11926,2104.8,17277-444,5350.2-2087.6,10977-4930,16880-2842.6,5903.2-6932.5,12066-12270,18489l-31843,38320zm-1513-23947,18841-22673c5818.7-7002.3,9697.2-13010,11636-18024,1938.2-5013.4,2645-9637.3,2120.9-13872-738.5-5962.5-3296.1-12094-7673-18395-4376.8-6301-10784-12616-19222-18945-11691-8768.9-22190-13685-31498-14747-9307.5-1062.7-17196,212.8-23665,3827.7-4655.1,2623.2-10454,8112-17396,16466l-18540,22311,85397,64051z"/>
<g fill-rule="evenodd">
<path stroke-linejoin="round" d="m3912000,2331700c-22998-38667-52540-73542-44705-127030,49171,16349,52821,66924,44633,126410" stroke="#0b572f" stroke-linecap="round" stroke-miterlimit="79.84031677" stroke-width="2756.19775391" fill="#66a72e"/>
<path d="m3867300,2219100,973.7-11325,1570.4,622.8,6743.7,16818c11306,29243,21238,59121,30493,89314l3432.8,11596-15279-24542c-15389-24861-28723-50090-27935-82484z" fill="#007f01"/>
<path stroke-linejoin="round" d="m3130200,2219100c-6786.5,55742-3152,114430-56498,153650-40865-61266-2685.9-108920,56061-153040" stroke="#0b572f" stroke-linecap="round" stroke-miterlimit="79.84031677" stroke-width="3662.73486328" fill="#66a72e"/>
<path d="m3085700,2360200-10534,8958.4-1221.1-2044.7,6565.3-21131c11880-36340,25814-71922,40762-107130l5875.7-13406-3551.4,36032c-3695.5,36415-9976.3,71189-37896,98723z" fill="#007f01"/>
<path stroke-linejoin="round" d="m3266300,1718100c-19226,58674-33970,121600-70552,154990-1826.9-72331,30007-117220,70552-154990" stroke="#0b572f" stroke-linecap="round" stroke-miterlimit="79.84031677" stroke-width="3254.27294922" fill="#66a72e"/>
<path d="m3197400,1869100,4.8-2214.2,8868.3-20862c16072-37039,32895-72929,50084-108250l5371.4-10855-11081,35059c-12798,40295-26467,78309-49561,103440l-3687.2,3682.8z" fill="#007f01"/>
<path stroke-linejoin="round" d="m3325200,1715200c-31296,47010-59057,100430-102310,113750,13250-71258,54190-98232,102310-113750" stroke="#0b572f" stroke-linecap="round" stroke-miterlimit="79.84031677" stroke-width="2805.88574219" fill="#66a72e"/>
<path d="m3224900,1826800,513.9-2366.9,13654-16236c23670-27590,47843-53670,72265-79001l9439.2-9624.8-19906,30760c-21086,32467-42510,62150-70552,74451l-5414.3,2016.6z" fill="#007f01"/>
<path stroke-linejoin="round" d="m3349400,1782700c-50655,32175-100820,71936-147860,67382,44332-62419,95235-71797,147860-67382" stroke="#0b572f" stroke-linecap="round" stroke-miterlimit="79.84031677" stroke-width="2939.93945313" fill="#66a72e"/>
<path d="m3214800,1848800-10358-116.8,1513-2003.1,20139-9961.6c34774-16802,69362-31964,103860-46318l13179-5362.6-32547,21266c-32918,21432-65000,40358-95787,42496z" fill="#007f01"/>
<path stroke-linejoin="round" d="m3213000,1808400c-16500,50419-29184,104510-60622,133170-1565.3-62154,25758-100730,60622-133170" stroke="#0b572f" stroke-linecap="round" stroke-miterlimit="79.84031677" stroke-width="2768.90551758" fill="#66a72e"/>
<path d="m3153800,1938000,4.8-1679.8,7636.1-17965c13807-31825,28261-62662,43043-93009l4610.2-9323.8-9510.6,30123c-9991.2,31484-20615,61346-37376,82729l-8406.9,9126.2z" fill="#007f01"/>
<path stroke-linejoin="round" d="m3169300,1809100c642.2,47719,7036.6,98466-17575,127130-25692-57232-9501.1-94725,17575-127130" stroke="#0b572f" stroke-linecap="round" stroke-miterlimit="79.84031677" stroke-width="2422.21435547" fill="#66a72e"/>
<path d="m3152100,1933800-823.1-1985.2,1817.4-17646c3439.8-30325,7993-59787,13093-88832l2050.6-11116,842.1,30967c832.6,32714,57,63551-14083,84781l-2897.4,3831.1z" fill="#007f01"/>
<path stroke-linejoin="round" d="m3272700,1837200c-38861,43606-75057,94262-121060,102020,24112-70688,69800-92677,121060-102020" stroke="#0b572f" stroke-linecap="round" stroke-miterlimit="79.84031677" stroke-width="2907.58203125" fill="#66a72e"/>
<path d="m3153900,1937200,899.2-2389.4,16243-14628c28194-24895,56688-48186,85329-70692l11019-8515.4-24826,28605c-26296,30199-52511,57537-82874,66300l-5790.1,1320.5z" fill="#007f01"/>
<path stroke-linejoin="round" d="m3121200,1899100c-3568.3,36289,34936,63699-20720,100590-12427-36186-14787-73854,20720-100590z" stroke="#0b572f" stroke-linecap="round" stroke-miterlimit="79.84031677" stroke-width="3633.32177734" fill="#66a72e"/>
<path d="m3115800,1905900,423.5-413.2,2878.4-2380.4-100,2896.9c865.9,32247,27756,54968-10467,85567l-4334.2,3139.3,899.2-2348.9c9405.9-28079,4400.8-54326,9177.5-79733l1522.5-6727.9z" fill="#007f01"/>
<path stroke-linejoin="round" d="m3076100,2125000c6860.6-30886,13607-62091,10072-91123-23108-43062-6537-60367-11290-98942,16328,12342,30621,29238,34370,47517,6246.9-25398,20463-49305,33156-67108,5747.3,18684,11318,37327,10067,57596,17185-15311,34327-17462,51554-18446-52768,39114-16043,65963-95953,124100l-18940,55346-13036-8942.1z" stroke="#0b572f" stroke-linecap="round" stroke-miterlimit="79.84031677" stroke-width="3633.32177734" fill="#66a72e"/>
<path d="m3086900,2129100,11647-54393c41944-31034,55123-94819,92028-116020l3335.1-1553.9,4505.6-399.7-4515.1,3651.3c-40398,35880-11809,62150-86885,116770-299.7,220.1-523.3,516.5-637.5,857.9l-17290,50508-2188.5,579.4zm-9596.3-189810,8059.6,6907.5c10900,10640,19407,23278,22133,36550,285.4,1396.8,1941.1,1774.1,2944.9,1095.9l52.4-76.4,76.1,215.6c5985.2,19622,5152.6,44832-6846.3,80339-4971.8-38858-9724.7-75601-21628-111720l-4791-13312zm64300-19366,214-318.9,2583.5,8681.6,2069.6,9027.3c1974.4,9728.1,3439.8,19245,4096.4,28407l128.4,3072-9.5,4006.2,204.6,777,52.3,1185.7c275.9,29723-9567.7,55076-40754,71218,12936-32094,21433-64193,27048-96288l4367.6-29768z" fill="#007f01"/>
<path stroke-linejoin="round" d="m3020900,2047800c30796,82351,71736,165550,54371,234820-72700-79200-73000-157200-54400-234800" stroke="#0b572f" stroke-linecap="round" stroke-miterlimit="79.84031677" stroke-width="3633.32177734" fill="#66a72e"/>
<path d="m3074100,2278500-10177-11812-3891.8-5088.5-6275.4-18778c-17718-55772-27913-111160-32010-166010l-1141.9-18697,780.3-3790.6,21638,55808c21686,56203,39960,110680,32918,159010l-1841.2,9355.3z" fill="#007f01"/>
<path stroke-linejoin="round" d="m3150100,2080900c-4819.5,44117-44903,91424-90739,129730-19116-38643,55270-89093,90739-129730" stroke="#0b572f" stroke-linecap="round" stroke-miterlimit="79.84031677" stroke-width="3633.32177734" fill="#66a72e"/>
<path d="m3060300,2207400-1127.6-3328,87922-115770-80.9,530c-7298.3,35580-36415,72978-71998,105680l-14716,12881z" fill="#007f01"/>
<path stroke-linejoin="round" d="m3071800,2042100c11295,68186,32229,139270-252.2,186830-52549-75273-35216-133310,252.2-186830" stroke="#0b572f" stroke-linecap="round" stroke-miterlimit="79.84031677" stroke-width="3633.32177734" fill="#66a72e"/>
<path d="m3071500,2225400-1603.3-2461.2-961-26085c-1137.1-44373-337.9-87799,1427.3-130750l856.3-16883,8054.8,44517c8345,46646,13750,91024-3887,125150l-3887.1,6516.8z" fill="#007f01"/>
<path stroke-linejoin="round" d="m3118700,2079600c-11537,67584-18293,139350-49447,180900-10253-80200,14972-133990,49447-180900" stroke="#0b572f" stroke-linecap="round" stroke-miterlimit="79.84031677" stroke-width="3633.32177734" fill="#66a72e"/>
<path d="m3070600,2255300-276-2649.9,5861.5-23498c11066-43129,22989-85073,35326-126430l3354.1-11026-6237.3,38670c-7536.2,46368-16195,90328-35392,121080l-2635.7,3853.5z" fill="#007f01"/>
<path stroke-linejoin="round" d="m3013800,2220100c47263,39325,70666,117530,79239,194620-59590-10496-59947-126430-79239-194620" stroke="#0b572f" stroke-linecap="round" stroke-miterlimit="79.84031677" stroke-width="4886.03222656" fill="#66a72e"/>
<path d="m3090000,2411300-4643.5-1414.7-65228-180710,409.2,368.3c35450,35238,55965,94401,66032,156570l3430.3,25191z" fill="#007f01"/>
<path stroke-linejoin="round" d="m3096000,2449900c-16462-53787-34302-41415-7440.1-94326,733.4-34945,34718-53239-58427-165320,28613,69704,19461,141070,40318,232100,2183.8,9472,3330.4,22151,471.1,32270l25078-4720.3z" stroke="#0b572f" stroke-linecap="round" stroke-miterlimit="79.84031677" stroke-width="3633.32177734" fill="#66a72e"/>
<path d="m3041600,2207000,10294,13745c33467,47033,51463,67090,34796,137150l-45090-150900z" fill="#007f01"/>
<path stroke-linejoin="round" d="m3051100,2419500c45155,35211,99345,66408,99669,115100-80886-14835-98494-60901-99669-115100" stroke="#0b572f" stroke-linecap="round" stroke-miterlimit="79.84031677" stroke-width="3633.32177734" fill="#66a72e"/>
<path d="m3148700,2532300-2597.7-561.4-14520-15302c-24597-26615-47196-53814-68801-81291l-8411.5-10954,30211,22730c31344,23687,59048,47580,63629,78907l490,6471.9z" fill="#007f01"/>
<path stroke-linejoin="round" d="m3139500,2402700c24741,54458,27700,118980-10934,151370-41397-67283-31314-115080,11125-151560" stroke="#0b572f" stroke-linecap="round" stroke-miterlimit="79.84031677" stroke-width="3633.32177734" fill="#66a72e"/>
<path d="m3129100,2551100-1256-2209.7,2659.5-20422,8430.6-123490c19948,46922,29120,98900-3843.9,141890l-5990.2,4230.3z" fill="#05933f"/>
<path stroke-linejoin="round" d="m3214700,2609300c-50841-28874-59343-69102-77774-125150-8892.2-26943-36296-67450-62840-73418,5718.8,23202,11823,46408,22504,69641-20001-13761-40754-28057-62231-41890,25335,68460,66122,122590,141760,167000,8787.4,5160.4,18398,14129,23612,23368l14972-19555z" stroke="#0b572f" stroke-linecap="round" stroke-miterlimit="79.84031677" stroke-width="3633.32177734" fill="#66a72e"/>
<path d="m3077600,2416700-813.5-3018.1,6441.8,2447.7c22390,11790,44137,45061,51897,68577,16129,49076,24773,86699,61650,114980l5114.5,3646.9-3354.2,8515.4c-61798-64584-63201-133590-117040-191290l-3896.5-3862.5zm-38880,27603-409.1-1001.5,26610,17624c10367,7015.3,20548,14026,30554,20907,380.6,265,794.5,368.3,1189.4,345.9l789.8-292,6817.7,17085c8273.7,18666,18855,37327,30245,55988-30135-42173-51588-72664-93922-109070l-1874.6-1581z" fill="#007f01"/>
<path stroke-linejoin="round" d="m3116200,2580800c55760,19730,118790,32818,136140,79522-82955,10994-116030-27792-136140-79522" stroke="#0b572f" stroke-linecap="round" stroke-miterlimit="79.84031677" stroke-width="3702.65991211" fill="#66a72e"/>
<path d="m3121100,2584400,36934,12378c38433,12980,73435,27307,88807,55988l2735.7,6063.2-2707.2,269.4-19288-10159c-32976-17920-64224-37012-94621-56680l-11861-7859.6zm-1841.3-1221.6-666-1536.1,4.8,0,680.3,1545-19.1-8.9z" fill="#007f01"/>
<path stroke-linejoin="round" d="m3219200,2548800c32290,46102,74477,90885,59723,137570-72769-36500-75376-85428-59723-137570" stroke="#0b572f" stroke-linecap="round" stroke-miterlimit="79.84031677" stroke-width="3633.32177734" fill="#66a72e"/>
<path d="m3277700,2683600-2340.7-1271-9139.5-18616c-15286-32247-28480-64494-40645-96741l-4638.8-12751,21847,30028c22647,31290,41758,61786,36449,93027l-1532.1,6323.6z" fill="#007f01"/>
<path stroke-linejoin="round" d="m3345700,2725500-67811-57335-96134-101260c11614,41876,26800,82482,66808,113680-30216-15989-66808-23947-105240-29615,37219,31264,78026,55848,131830,55777l55403,23503,15148-4747.3z" stroke="#0b572f" stroke-linecap="round" stroke-miterlimit="79.84031677" stroke-width="3633.32177734" fill="#66a72e"/>
<path d="m3186000,2574200-99.9-323.3,90601,95430,142.7,134.8,65409,55305-3002.1,943.2-3516-2052.5c-62321-37973-112350-85846-143800-139070l-5737.8-10370zm-36016,79782-204.6-170.6,21586,3624.4c27813,5353.6,53848,12778,76285,24648,984.9,521,1945.9,139.3,2445.5-547.9l309.2-1064.4,10310,8802.8c-31648-1742.6-70928-15706-106390-33064l-4343.7-2227.7z" fill="#007f01"/>
<path stroke-linejoin="round" d="m3650100,2865100c-28438-31451-117250-85873-161410-95231,7309.8-6778-69216-9049.4-152580-8485.6l-89055-26829-12638-5234.5c45936-20440,95454-19191,144760,0-32419-31856-62794-62476-54657-86170,38476,18621,86015,42263,115380,81409l47548,38243,44913,5295.7c-42894,722.7,97759,31230,146640,46845-37802,25038,4818.6,31424-28901,50157z" stroke="#0b572f" stroke-linecap="round" stroke-miterlimit="79.84031677" stroke-width="3633.32177734" fill="#66a72e"/>
<path d="m3487100,2764900-94849-15073c-33575-16999-80690-18270-125050-19263l-21182,2081-8956.4-4077.7c36776-15112,86184-21659,141330,2356,1698.5,660.2,3287.6-1167.7,2269.4-2609.3l-337.8-494.1,6185,3328c2997.4,1702.2,5961.4,3476.2,8882.6,5322.1,12322,7823.7,31976,9238.5,50550,9813.4-32909-29822-74934-44784-99293-71862l-20090-28074-602.5-390.8,34673,15960c24038,17498,49574,25151,77744,63220l-1799.6-1332.5,49594,40313c295,238,666.1,386.2,1061,413.2l28.5,4.5-156.9,363.8z" fill="#007f01"/>
<path d="m3651200,2864600c-17711-18673-105600-80146-135750-85372-9880.7-1881.8-19802-3612.9-29764-5187.2l-1979.2-282.9,16189,2236.3c40357,4498,87641,24959,150950,64054l358.2,24552z" fill="#007f01"/>
<path stroke-linejoin="round" d="m3726400,1718100c19216,58705,33975,121600,70557,154990,1817.4-72331-29974-117220-70557-154990" stroke="#0b572f" stroke-linecap="round" stroke-miterlimit="79.84031677" stroke-width="3254.27294922" fill="#66a72e"/>
<path d="m3795300,1869100-3692-3682.8c-23089-25128-36768-63124-49561-103420l-11085-35068,5376.2,10869c17199,35315,34027,71204,50094,108240l8858.9,20830,9.5,2232.1z" fill="#007f01"/>
<path stroke-linejoin="round" d="m3675700,1725900c31296,47010,50826,89802,94093,103120-13255-71258-45531-86750-93660-102270" stroke="#0b572f" stroke-linecap="round" stroke-miterlimit="79.84031677" stroke-width="2805.88574219" fill="#66a72e"/>
<path d="m3767800,1826800-5419-2016.6c-28042-12302-49466-41984-70552-74451l-13436-23562,2973.5,2426.7c46375,32940,65782,57368,72265,79001l13645,16222,523.4,2380.4z" fill="#007f01"/>
<path stroke-linejoin="round" d="m3643300,1782700c50660,32207,100850,71936,147860,67382-44337-62419-95244-71797-147860-67382" stroke="#0b572f" stroke-linecap="round" stroke-miterlimit="79.84031677" stroke-width="2939.93945313" fill="#66a72e"/>
<path d="m3679700,1804800-30226-19752,13207,5371.5c34498,14354,69086,29516,103860,46318l20135,9961.6,1574.7,2074.9-6018.4,238.1c-32842-543.5-67217-21122-102530-44212z" fill="#007f01"/>
<path stroke-linejoin="round" d="m3779600,1808400c16504,50450,29198,104510,60632,133170,1570.1-62154-25763-100730-60632-133170" stroke="#0b572f" stroke-linecap="round" stroke-miterlimit="79.84031677" stroke-width="2768.90551758" fill="#66a72e"/>
<path d="m3838800,1938000-8406.8-9121.7c-16761-21383-27385-51236-37381-82720l-9567.7-30266,4676.8,9454c14782,30347,29241,61184,43057,93009l7612.3,17889,9.5,1756.1z" fill="#007f01"/>
<path stroke-linejoin="round" d="m3823400,1809100c-637.5,47719-7031.8,98466,17580,127130,25687-57232,9505.9-94725-17580-127130" stroke="#0b572f" stroke-linecap="round" stroke-miterlimit="79.84031677" stroke-width="2422.21435547" fill="#66a72e"/>
<path d="m3840600,1933800-2897.5-3831.1c-14140-21230-14915-52067-14088-84781l837.4-30949,2050.5,11098c5109.8,29045,9667.7,58512,13108,88850l1817.4,17610-827.8,2003.1z" fill="#007f01"/>
<path stroke-linejoin="round" d="m3720000,1837200c38861,43606,75086,94262,121060,102020-24107-70688-69800-92677-121060-102020" stroke="#0b572f" stroke-linecap="round" stroke-miterlimit="79.84031677" stroke-width="2907.58203125" fill="#66a72e"/>
<path d="m3838800,1937200-5785.4-1320.5c-30344-8762.4-56569-36100-82870-66300l-24854-28623,11043,8533.4c28646,22506,57135,45802,85329,70714l16248,14637,889.7,2357.9z" fill="#007f01"/>
<path stroke-linejoin="round" d="m3871500,1899100c3573,36316-34936,63699,20715,100590,12441-36150,14801-73854-20715-100590z" stroke="#0b572f" stroke-linecap="round" stroke-miterlimit="79.84031677" stroke-width="3633.32177734" fill="#66a72e"/>
<path d="m3888400,1994700-4353.2-3161.8c-38218-30594-11328-53298-10462-85558l-99.9-2901.4,2883.2,2380.4,423.4,417.7,1522.5,6723.4c4776.7,25407-228.4,51654,9182.3,79733l903.9,2366.9z" fill="#007f01"/>
<path stroke-linejoin="round" d="m3916500,2125000c-6855.8-30886-13616-62091-10072-91123,23108-43062,6575.1-60367,11290-98942-16333,12342-30621,29269-34370,47517-6251.6-25362-20472-49305-33156-67081-5714,18657-11323,37300-10077,57569-17175-15311-34327-17462-51540-18446,52758,39114,16033,65963,95948,124100l18936,55346,13041-8942.1z" stroke="#0b572f" stroke-linecap="round" stroke-miterlimit="79.84031677" stroke-width="3633.32177734" fill="#66a72e"/>
<path d="m3905800,2129100-2202.8-579.4-17280-50508c-114.2-341.4-337.8-637.8-637.6-857.9-75543-54959-46330-80766-86852-116750l-4548.4-3678.3,4500.7,399.7,3340,1553.9c36905,21203,50080,84988,92033,116020l11647,54393zm-23603-145340,52.3,76.4c1003.9,678.2,2664.4,300.9,2949.8-1095.9,2721.4-13249,11228-25896,22128-36545l8069.1-6921-4800.5,13321c-11904,36119-16657,72861-21624,111720-12004-35508-12836-60717-6851.1-80339l76.1-215.6zm-40398-10240,199.7-727.6-9.5-3772.6,138-3305.6c656.6-9162.1,2122-18679,4091.6-28407l2036.3-8879.1,2616.8-8807.4,223.6,336.9,4358,29728c5609.3,32094,14102,64193,27019,96288-31168-16142-41002-41495-40721-71218l47.6-1235.1z" fill="#007f01"/>
<path stroke-linejoin="round" d="m3971800,2047800c-30792,82351-71732,165550-54366,234820,72626-79216,72907-157190,54366-234820" stroke="#0b572f" stroke-linecap="round" stroke-miterlimit="79.84031677" stroke-width="3633.32177734" fill="#66a72e"/>
<path d="m3918500,2278500-1841.2-9355.3c-7041.4-48326,11233-102800,32918-159010l21633-55808,794.5,3884.9-1132.3,18603c-4091.6,54847-14302,110230-32019,166010l-6275.3,18755-3901.3,5111-10177,11812z" fill="#007f01"/>
<path stroke-linejoin="round" d="m3842600,2080900c4819.5,44117,44903,91424,90739,129730,19116-38643-55270-89093-90739-129730" stroke="#0b572f" stroke-linecap="round" stroke-miterlimit="79.84031677" stroke-width="3633.32177734" fill="#66a72e"/>
<path d="m3932400,2207400-14720-12885c-35583-32705-64700-70104-71998-105680l-95.2-583.9,87951,115810-1137.1,3346z" fill="#007f01"/>
<path stroke-linejoin="round" d="m3920800,2042100c-11290,68186-32233,139270,247.4,186830,52587-75273,35221-133310-247.4-186830" stroke="#0b572f" stroke-linecap="round" stroke-miterlimit="79.84031677" stroke-width="3633.32177734" fill="#66a72e"/>
<path d="m3921100,2225400-3887-6521.3c-17632-34124-12227-78502-3882.3-125150l8064.3-44549,851.6,16914c1765.1,42954,2569.2,86380,1427.3,130750l-956.2,26067-1617.7,2483.6z" fill="#007f01"/>
<path stroke-linejoin="round" d="m3874000,2079600c11538,67584,18284,139350,49437,180900,10258-80200-14963-133990-49437-180900" stroke="#0b572f" stroke-linecap="round" stroke-miterlimit="79.84031677" stroke-width="3633.32177734" fill="#66a72e"/>
<path d="m3922100,2255300-2635.7-3853.5c-19197-30756-27852-74716-35383-121080l-6261.1-38782,3392.2,11138c12342,41360,24255,83304,35316,126430l5847.3,23449-276,2699.3z" fill="#007f01"/>
<path stroke-linejoin="round" d="m3978900,2220100c-47220,39325-70656,117530-79230,194620,59585-10496,59942-126430,79230-194620" stroke="#0b572f" stroke-linecap="round" stroke-miterlimit="79.84031677" stroke-width="4886.03222656" fill="#66a72e"/>
<path d="m3902700,2411300,3425.6-25187c10077-62168,30611-121330,66032-156570l490-444.6-65242,180760-4705.4,1441.6z" fill="#007f01"/>
<path stroke-linejoin="round" d="m3898600,2428100c16471-53787-2062.2-19344-35044-110610-8481.8-25214-6898.7-80562,17902-85664,9542.7,25401,28251,50325,30818,94031-6822.5-41818,23934-118040,48727-135840-28646,69704-17970,141260-38823,232290-2188.5,9472-3325.6,22151-471,32270l-23110-26468z" stroke="#0b572f" stroke-linecap="round" stroke-miterlimit="79.84031677" stroke-width="3633.32177734" fill="#66a72e"/>
<path d="m3874900,2236100c3217.2-1170.3,2278.4-3719.5,4071.3-2134.9,4460.3,82239,28683,94466,27452,161990-938.2,3320.3-10848-15822-2526-5022.8-31084-36620-63899-114220-28998-154830zm37583,73797c-4309.8-22024,31257-112650,39592-109200l1865-1877.4-6246.8,11534c-25463,50962-22226,65877-28382,115090-1436.8-5632.3,2127.7,51160-706.7,44023-2159.8-5438.4-7155.5-54973-6120.8-59569z" fill="#007f01"/>
<path stroke-linejoin="round" d="m3941600,2419500c-45155,35211-99350,66408-99674,115100,80886-14835,98494-60901,99674-115100" stroke="#0b572f" stroke-linecap="round" stroke-miterlimit="79.84031677" stroke-width="3633.32177734" fill="#66a72e"/>
<path d="m3844000,2532300,490.1-6471.9c4581.6-31326,32290-55220,63634-78907l30192-22721-8406.8,10945c-21610,27477-44204,54676-68796,81291l-14516,15302-2597.7,561.4z" fill="#007f01"/>
<path stroke-linejoin="round" d="m3837800,2407500c-1641.4,55238-12432,114290,26224,146590,41401-67283,16214-110110-26224-146590" stroke="#0b572f" stroke-linecap="round" stroke-miterlimit="79.84031677" stroke-width="3633.32177734" fill="#66a72e"/>
<path d="m3863600,2551100-4843.3-4612.5c-21995-23893-22818-59316-21081-97172l1750.8-36339,3182.9,13096c7707.5,33437,14540,67400,19592,102400l2659.5,20408-1260.8,2223.2z" fill="#05933f"/>
<path stroke-linejoin="round" d="m3778000,2609300c50836-28874,59343-69102,77769-125150,8863.6-26943,36296-67450,62840-73418-5714,23233-11823,46408-22504,69641,20001-13761,40759-28057,62235-41890-25335,68460-66132,122590-141760,167000-8782.7,5160.4-18388,14129-23574,23368l-15001-19555z" stroke="#0b572f" stroke-linecap="round" stroke-miterlimit="79.84031677" stroke-width="3633.32177734" fill="#66a72e"/>
<path d="m3794200,2611900-3363.6-8519.9,5114.4-3642.4c36872-28281,45522-65904,61655-114980,7731.3-23512,29493-56783,51887-68577l6451.5-2447.7-818.4,3031.6-3887,3849c-53838,57694-55251,126700-117040,191290zm101070-129960,789.8,292c394.8,22.4,808.7-80.9,1194.2-345.9,10001-6880.5,20187-13891,30549-20907l26614-17624-413.9,1006-1874.5,1581c-42329,36437-63777,66933-93917,109070,11385-18661,21966-37322,30240-55988l6817.8-17085z" fill="#007f01"/>
<path stroke-linejoin="round" d="m3876500,2580800c-55760,19730-118780,32818-136140,79522,82955,10994,116040-27792,136140-79522" stroke="#0b572f" stroke-linecap="round" stroke-miterlimit="79.84031677" stroke-width="3702.65991211" fill="#66a72e"/>
<path d="m3745800,2659100-4681.5-489.5,1974.4,197.6,2735.6-6063.2c15377-28681,50374-43008,88807-55988l36986-12400-11904,7891.1c-30392,19672-61641,38759-94607,56675l-19312,10177z" fill="#007f01"/>
<path stroke-linejoin="round" d="m3773500,2548800c-32295,46102-74482,90885-59728,137570,72774-36500,75381-85428,59728-137570" stroke="#0b572f" stroke-linecap="round" stroke-miterlimit="79.84031677" stroke-width="3633.32177734" fill="#66a72e"/>
<path d="m3715000,2683600-1532-6323.6c-5309.6-31241,13802-61737,36453-93027l21857-30051-4648.3,12786c-12165,32247-25358,64490-40645,96732l-9139.5,18607-2345.5,1275.5z" fill="#007f01"/>
<path stroke-linejoin="round" d="m3647000,2725500,67811-57335,96134-101260c-11614,41876-26795,82482-66808,113680,30221-15989,66808-23947,105250-29615-37229,31264-78036,55848-131830,55777l-55403,23503-15153-4747.3z" stroke="#0b572f" stroke-linecap="round" stroke-miterlimit="79.84031677" stroke-width="3633.32177734" fill="#66a72e"/>
<path d="m3653600,2725700-3002.1-943.2,65409-55305,142.8-134.8,90596-95430-114.2,350.3-5723.5,10343c-31434,53221-81466,101090-143790,139070l-3520.7,2052.5zm78340-36415,10300-8798.3,314,1059.9c494.9,687.2,1460.6,1068.9,2445.5,547.9,22437-11870,48471-19294,76280-24648l21590-3624.4-209.3,170.6-4343.8,2227.7c-35459,17359-74734,31322-106380,33064z" fill="#007f01"/>
<path stroke-linejoin="round" d="m3326400,2860000c46331-14354,130640-76165,178750-83878,49555-7945.3,100140-12007,151930-11439l89059-36321,12146,911.7c-45940-20440-95454-19191-144750,0,38343-20038,58246-56206,49130-82444-38480,18621-80497,38538-109860,77719l-47553,38207c-48525,14309-106440,28618-159760,42927-2239.3,18553-19378,30715-19082,54317z" stroke="#0b572f" stroke-linecap="round" stroke-miterlimit="79.84031677" stroke-width="3633.32177734" fill="#66a72e"/>
<path d="m3505400,2764500,23.7-4.5c390.2-27,761.3-175.2,1061-413.2l47553-38207,314.1-327.8c25606-34335,47315-47389,79035-63182l27912-13657,2472,7893.2-26898,21855c-24360,27078-57248,37969-90147,67791,18579-574.9,38223-1989.7,50584-9813.4,2916.5-1845.9,5880.5-3619.9,8877.8-5322.1l6127.9-3296.6-314,462.7c-1018.1,1441.6,571,3269.5,2269.5,2609.3,42781-16654,85615-19649,126060-6611.1l6032.8,2313c-352.1-26.9-656.6,18-937.3,134.8l-8625.7,3521.1-11347,282.9c-44351,992.6-91467,2263.6-125040,19263l-94854,15073-161.7-363.8z" fill="#007f01"/>
<path d="m3335200,2855700,9486.8-16948,3558.9-11237c4342.4-1346.9,19257-13886,147530-52931l13260-781.5-1998.2,287.4c-57750,14901-115300,55878-171830,81610z" fill="#007f01"/>
<path stroke-linejoin="round" d="m3325400,2859200c14522-6202.6,30777-19580,36547-54981-32416-3528.5-39395,20937-36547,54981z" stroke="#0b572f" stroke-linecap="round" stroke-miterlimit="79.84031677" stroke-width="3754.30737305" fill="#007f01"/>
<path stroke-linejoin="round" d="m3679500,2815800c2453.4,11597,8779,33420-29693,48358-3869.1-30152,13204-47324,29693-48358z" stroke="#0b572f" stroke-linecap="round" stroke-miterlimit="79.84031677" stroke-width="3633.32177734" fill="#007f01"/>
</g>
<g fill-rule="evenodd" transform="matrix(0.05370026,0,0,0.05274696,2921814.8,1350439.6)">
<g fill="#75aadb">
<path d="m12192200,28531600c236254,160626,257708,563536,336868,901357,92279-79091,165350-233555,490972-187693-74293-325579-111268-696200-373737-941127l-454103,227463z"/>
<path d="m9322440,25835500c7642,407755,538744,699992,955329,918296,135823,74122,290048-71006,303903-186915-531639-426972-733616-832045-770459-1018960-151455,65383-596335-66928-488773,287584z"/>
<path d="m11009000,26688200,289723,152984c327117-306798,972496-672826,933161-1054160l-576767-67628c83665,141059-422277,683197-646117,968799z"/>
<path d="m10792400,27151200c91433,384914,120025,826583,320588,1112940l737678-150715c-585026-597074-558153-830023-713640-1188230l-344626,226008z"/>
<path d="m10564900,27029700,258850,144385c-129813,603175-417410,985537-613544,1216490l-802114-118831c204132-75645,908548-728537,1156810-1242040z"/>
<path d="m8567630,29339000c173632-94197,368622,7089,566087,131025-14403.3-688446-22124.9-930781,55004.2-1159220l-273155-221482c-259491,200299-300823,864738-347936,1249680z"/>
</g>
<g fill="#ececec">
<path d="m12364500,28412200c-51031-258050,173516-90089,181785-75616,139978,202485,310184,703687,317647,907935-218268,26868-200865,74453-254987,129377,76543-182221-130783-758716-244445-961696z"/>
<path d="m9420720,25649800c104442-19592,53160.4-119526,187235-84257,103222,293814,528249,863186,946309,1097760,45725,25770-234129-31917-188746,59583-407943-253238-977863-776594-944799-1073090z"/>
<path d="m11827200,25735400c-81887,275684-322676,670124-644561,888832l-15101,112248c353841-173178,807951-605587,945492-1049060l-285830,47982z"/>
<path d="m10900800,27123200,132107-65807c82751,234696,319555,849212,624563,1153730l-331417,41006c-259577-281210-305670-734726-425253-1128930z"/>
<path d="m10556600,27189700c-41987,343474-577922,961310-919210,1133760,364777,379310,1016650-815321,1071910-1035000-23110-25452-112718,351-152703-98763z"/>
<path d="m8965740,28109300c280816-258717-183953,933900-16534.2,1252310-114231-29258-164967-51798-223929-32713-19692.1-329124,68706.5-966556,240463-1219590z"/>
</g>
<g fill="#75aadb">
<path d="m11810900,28738000c358384-203338,840609-439226,881965-333799-16534-75710-86558-145625-141967-204401-14704-15599-28379-30411-39751-44342-86334-105750-141953-173221-279071-241970-187256,58278-351886,129933-495335,191514-894029,248933-647540-112592-680272-10607-84218,262401,135168,818609,754431,643605z"/>
<path d="m8791470,28233200c210920-267746,397064-315338,654964-212738,181877,150663,495917,430277,811820,299896-75868,249830-303329,395045-840442,222141-311964-100426-544630-319638-626342-309299z"/>
<path d="m9772640,25246200c1453200,247672,1391290,50325,2153310,9924,394605,140614,374998,313575,292357,654346-802299-396825-1164390,95590-1609740-65543-608375-220116-1264420-137438-1276250,20096-47964-308214,110854-540528,440321-618823z"/>
<path d="m10334800,26753100c34822-90895,80052-175609,186487-223981,192694-53423,370102-48440,539845-14162,143139,5594,226427,123471,299922,259723,11404,82535,17183,166849-41946,271708-144783,247896-259104,185368-384369,234379-93248-6333-155703-3662-315335-29407-161919-12340-292759-126971-289906-169420-22158-98367-20287-208030,5302-328840z"/>
</g>
<g fill="#FFF">
<path d="m11061600,28356300c185462-43850,190936,149743,654962-36159,221544-71914,472658-237481,711152-238200,144415,36737,182463,173775,263431,258097-185141-109627-274037-45448-583576,103003-338843,204896-739873,344999-909224,167635-47760-35799-135051-197984-136745-254376z"/>
<path d="m8877250,28110900c80781-71117,253594-244401,514004,51916,269355,359629,548780,312846,821352,261636-109031,245995-594342,258365-756202,87809-379693-376150-472293-362979-579154-401361z"/>
<path d="m9475050,25387700c-120293,97651-171553,271321-162005,335583,275059-97806,616177-217650,1064510-113876,541599,186246,721499,9642,1022270-41142,680470-58754,811171,54001,844984,199924,23422-109820,56579-259234-61465-372939-305088-83520-554591-30066-793379,23678-425770,143748-841575,84096-1293000-23128-314828-65517-461659-33725-621915-8100z"/>
<path d="m10710800,26512900c-149477,164109-131438,442674-40520,762624,57540,16299,117673,41564,196509,12782,343834-353677,163334-678879,106851-791521-63185-25616-217698-27756-262840,16115z"/>
</g>
</g>
<g fill-rule="evenodd">
<path d="m3294700,1523600,116410,1174.6-95755-65054,109710,38253-69066-92082,91125,71185-34892-109130,62661,96404,3062.1-114350,27406,111180,40685-107190-10818,113900,73899-88402-47870,104280,99105-60038-79735,83362,113570-25168-102960,53410,115730,12429-115030,17669,105350,48679-114630-19986,83550,79654-101810-55476,52698,102000-77956-84953,16135,113290-45656-105230-22176,112300-8408.9-114090-58084,99146,29750-110600-87698,75246,64685-95119-107810,43192,92610-69332-116240,6457.8,110500-36031z" fill="#FC0"/>
<g id="g6293" fill="#843511" transform="matrix(-1589.6061,-51.516503,-64.563443,1838.4494,3521292.8,1594696)">
<path d="m54.298-40.249c-11.5-10-26-11.5-34-4-5.8064,7.7631-5.289,16.904,1.5,26.5-0.5,0-1.5,0.5-2,1-5.0426-9.6028-5.9099-19.491-2.5-28.5,11-9,26-10,37,5"/>
<path d="m36.298-43.249c-6.5,0-8,1.5-11,4s-4.5,2-5,2.5,0,2,1,1.5,3-1.5,6-4,6-2.5,9-2.5c9,0,14,7.5,15,7s-5-8.5-15-8.5"/>
<path d="m47.798-34.749c-6.5-7-18.5-7.5-23.5,0.5h2c5-8,17-4.5,18-1v1"/>
<circle cx="22" cy="-9" transform="translate(13.297822,-26.248607)" r="4.5"/>
<path d="m24.298-34.249c5,4.5,16,5,23.5-0.5l-3.5-0.5c-5,5.5-13,5-18,1v-1"/>
<path d="m48.298-32.249c-8.5,6.5-17,6-22,3s-5-4-4-4,2,1,6,3,10,2,20-2"/>
<path d="m23.798-17.249c1.4161,0.50349,2.2411,1.9771,1.93,3.4475-0.31105,1.4704-1.6621,2.4837-3.1608,2.3706s-2.6824-1.3177-2.7692-2.8181c-0.5,1-2.5,4-6.5,4h-1l1,1.5c1,0,4,0,6-1.5,1.1634,1.6691,3.302,2.35,5.2162,1.6607,1.9142-0.68925,3.1279-2.5771,2.9602-4.6048-0.16767-2.0276-1.675-3.6905-3.6764-4.056"/>
<path d="m29.798,3.7514c-4.5-3-6.5-7.5-11.5-7.5-1,0-3,0.5-5,1.5h-1l1,1.5c2,0,5-2.5,8.5-0.5s5.5,4,8,5"/>
<path d="m28.298,3.7514c-10-3-12-1-15-1h-1l1,2c4,0,6-3,15-1"/>
<path d="m29.798,3.7514c-11-1-7.5,5.5-16.5,5.5h-1l1,1.5c11,0,6-6,16.5-7"/>
<path d="m22.298,19.751c0-4.9706-4.0294-9-9-9s-9,4.0294-9,9c0.98968-4.17,4.7142-7.114,9-7.114s8.0103,2.944,9,7.114"/>
</g>
<use xlink:href="#g6293" transform="matrix(-1,0,0,1,6998176.2,0.018)" height="89100000" width="63000000" y="0" x="0"/>
</g>
<g>
<path d="m3842000,2218000a346730,453970,0,0,1,-693470,0,346730,453970,0,1,1,693470,0z" fill-rule="evenodd" fill="#FFF"/>
<path d="m3150400,2222700a346730,453970,0,1,1,693460,2411.1l-346730-2411.1z" fill-rule="evenodd" fill="#75aadb"/>
<g fill-rule="evenodd" transform="matrix(0.05369261,0,0,0.05273945,2921406.3,1350814.6)">
<g fill-rule="evenodd" transform="matrix(0.5939172,-7.6805438e-4,8.2672857e-4,0.611853,18854251,7360021.8)">
<path d="m-12258000,7898400c-1025200-44457-2082500,1968.6-3226600,381200-4446400,2470600,8948000,674780,3226600-381200z" fill="#d40000"/>
<g stroke-linejoin="bevel" transform="translate(-24996638,2124220.8)">
<path d="m10866000,5874400,12829,19119000c0,279750,201370,506530,448120,506530,248320,0,448380-226780,448380-506530v-19127000" stroke="#ce9548" stroke-linecap="round" stroke-width="56444.4453125" fill="#c87137"/>
<line y2="25138000" y1="20314000" stroke="#ffbf00" x2="11506000" x1="11506000" stroke-width="68912"/>
<path d="m11510000,5911800-4484,10077000" stroke="#ffbf00" stroke-width="82148.984375"/>
<path d="m10994000,5850900,12828,903180s312490-225450,634880,0l38485-883600" stroke-width="0.50099999" fill="#8a5b29"/>
</g>
<g transform="matrix(1.2265615,-0.11007254,0.1187912,1.3353868,-28272794,1434355)">
<path d="m9461800,3078900c44959,95144-21020,206770,167850,280550,322420,58837,393530-8740.1,577730-70917-77953,115120-259620,450590-446830,797830-246910,371050-286980,669700-109950,594250,1263600,300340,2534700,90398,3802100,135600-435300-1679700-1136500-3866800-3033200-2875200-409280,257750-854360,467210-957710,1137900z" fill="#f82323"/>
<path d="m9602200,3346100c160450,82068,395630,89672,590610-29772,403970-451410,831350-627200,1190300-675230-324410-49686-693460-215000-1160900,419060-205710,29166-412410,126050-620050,285940z" fill="#d40000"/>
<path d="m10233000,4061100c-586730,338710,702630-235190,1835900-88360-291620-300950-604160-559610-1835900,88360z" fill="#d40000"/>
<path d="m9542400,3050200,21676,269750c-43213,520310-500550,761970-803220,526980-268220-458370,430530-761950,781550-796730z" fill="#f82323"/>
<path d="M9049700,6550800,8996600,5117900c119080-292720,357630-403820,634030-457400,1121600-201770,2320500-164140,3570900,32872,270950,71349,499580,183040,580370,435610-82811,383180,98519,1230800-223040,1504500-4229-17672,11353-64911,2778-86696-1297500-890260-3780200-628470-4511900,4054.9z" fill="#ff2a2a"/>
</g>
</g>
</g>
<path d="m3843800,2219400a346730,453970,0,0,1,-693470,0,346730,453970,0,1,1,693470,0z" stroke="#f2ce67" stroke-width="7242.57666016" fill="none"/>
<g fill-rule="evenodd" transform="matrix(19040.328,-1148.1698,1503.7754,18814.369,-1250651.5,-1976544.7)">
<path d="m143.9,104.4c0.36628-0.51568,1.4386,5.6773,0.52773,5.711" transform="translate(79.857277,138.00513)" stroke="#000" stroke-width="0.072" fill="none"/>
<path d="m156.16,105.63c-0.49639-0.41929-1.8748,5.4315-1.229,5.6098" transform="translate(79.857277,138.00513)" stroke="#000" stroke-width="0.072" fill="none"/>
<g stroke="#1f1a17">
<path d="m215.52,245.09s2.1495-0.43189,2.3971-0.45803c0.24746-0.0131,1.5241-0.54969,1.5241-0.54969s0.1432-0.0654,0.29964-0.10467c0.1693-0.0393,0.37775-0.13088,0.37775-0.13088s-0.63834,0.13088-1.0291,0.31406c-0.39079,0.18326-0.80765,0.27494-0.92495,0.32725-0.13026,0.0654-0.7295,0.17007-0.88583,0.19631-0.16938,0.0131-0.37783,0.0523-0.49504,0.0916-0.13027,0.0524-0.91191,0.23555-0.91191,0.23555s0.95098-0.35338,1.2376-0.35338" stroke-width="0.02225315" fill="none"/>
<g stroke-width="0.07232273" fill="#ef9ba0">
<path d="m214.16,245.38c0.41699-0.11782,2.5925-0.69356,3.1656-0.78524,0.5863-0.0785,2.0583-0.61506,2.3579-0.70662,0.28664-0.0786,2.1235-0.48427,3.0223-0.48427,0.91195,0,1.5633-0.45812,3.1396-0.66742,1.5633-0.20939,1.4329-0.28791,1.4329-0.28791s-1.485,0.65435-0.98998,1.5312c0.49493,0.86377,1.8107-0.0916,1.98-0.17018,0.1694-0.0785,1.5893-0.6805,2.2016-0.7198,0.61222-0.0392,1.1464,0.0132,1.5633,0.68059,0.41679,0.66751,0.76853,0.81139,1.0031,1.3872,0.18234,0.41882,0.88581,2.4997,0.3126,2.6698-0.1954,0.0524-0.46899,0.0785-0.88579-0.49732-0.40389-0.57583-1.5242-2.107-1.5242-2.107s1.7717,2.2248,1.8629,2.6043c0.0782,0.36645-0.27348,0.57586-0.63833,0.44495-1.1854-0.39259-1.2766-0.7983-2.0844-1.6097,0,0,1.1725,1.4658,1.9802,1.5705,0.4429,0.0654-0.49505,0.53652-0.83376,0.57581-0.32565,0.0524-1.029-0.28789-2.0583-1.4004,0,0,1.1203,1.1125,1.8629,1.4528,0,0-0.83369,0.53645-1.9019-0.0524-1.0684-0.57581-1.6024-1.2695-2.3059-1.4004-0.69039-0.11773-1.928-0.28793-2.4621-0.11773-0.5341,0.15705-1.7326,0.94229-2.4361,1.3218-0.69047,0.36644-2.5403,1.2825-2.8659,1.4789-0.32571,0.2093-2.2146,1.4919-2.6315,1.7013,0,0-1.0682-2.1724-1.3939-3.1802-0.4559-1.3872-0.87289-3.2326-0.87289-3.2326z"/>
<path d="m225.43,247.24c-0.20845,0-0.45591,0.0261-0.4169,0.48427,0.0391,0.45801,0.23448,0.65431,0.48204,0.65431,0.24746,0,0.4299-0.14392,0.4299-0.54968,0-0.4188,0.20845-0.53654-0.49504-0.5889z"/>
<path d="m225.94,247.93c0.013,0.34028-0.20845,0.49733,0.31262,0.68057,0.56021,0.18327,0.74261-0.0916,0.74261-0.49732,0-0.4188,0.22145-0.73295-0.456-0.70672-0.35165,0.0131-0.61224-0.32714-0.59923,0.52347z"/>
<path d="m226.96,248.27c-0.013,0.26179-0.0651,0.66744,0.46893,0.73286,0.45604,0.0524,0.48204-0.39257,0.52116-0.56264,0.0391-0.17022-0.13026-0.54973-0.39085-0.7198-0.45591-0.31417-0.5601-0.27485-0.59924,0.54958z"/>
<path d="m227.95,248.44c-0.0261,0.2093,0.15633,0.70663,0.57323,0.74593,0.41686,0.0393,0.7425-0.24871,0.61231-0.37953-0.0783-0.0785-1.0292-0.58889-1.1855-0.78522-0.13026-0.13091,0.0391,0.0916,0,0.41882z"/>
<path d="m245.01,247.96s-1.4737-0.51459-2.0468-0.67164c-0.20845-0.0654-0.71649-0.18327-1.7326-0.62823-0.28659-0.1178-2.5012-0.94223-4.0254-1.8191-1.5241-0.86377-2.7487-1.806-4.2077-2.853-0.2866-0.20948-0.78162-0.61513-1.0291-0.82454-0.24756-0.20941-0.93795-0.53653-1.7716-0.24862-0.82078,0.28792-2.384,1.2825-3.0354,1.5704-0.66435,0.28796-1.2375,0.82447-0.87276,1.492,0.37774,0.65436,1.1204,0.34021,1.7326-0.0393-0.0261,0.0131,1.8237-0.78524,2.1364-0.78524,0.45593,0,1.2766-0.6281,2.4361,1.3611,1.1463,1.9893,1.0682,2.4342,0.89883,3.2195,0,0,0.32573,0.17009,0.95098,0.17009,0.20845,0,1.0682,1.0339,2.3448,1.7799,1.2767,0.74592,4.9487,4.0232,5.7304,4.2719,0,0,0.87443-1.6938,1.3304-2.5575,0.82065-1.5965,1.1609-3.4376,1.1609-3.4376z"/>
<path d="m226.6,242.99c0.18233-0.10463,1.0031-0.10463,1.1073,0.0655,0.13037,0.18325-0.15633,0.64128-0.46898,0.78524-0.52104,0.23556-0.85976,0.26168-0.9249,0.0131-0.10419-0.40574-0.24756-0.54969,0.2866-0.86377z"/>
</g>
<path d="m233.27,245.76s0.88583,0.30109,1.2896-0.44494" stroke-width="0.07232273" fill="none"/>
<g stroke-width="0.02225315" fill="none">
<path d="m230.2,248.44c0.13019,0.0654,0.69038,0.43184,0.69038,0.43184s-0.52118,0.1308-0.62533,0.1308c-1.2376,0-2.2928-1.0077-2.4621-1.1778-0.70349-0.6805-2.6836-0.64127-2.6836-0.64127h-0.24757c-0.14333,0-0.65138-0.0523-2.7097,1.191-0.10419,0.0655-0.27359,0.1309-0.35167,0.17011-0.0782,0.0393-0.13026,0.0785-0.24756,0.17012-0.13029,0.0786-0.22146,0.0916-0.3126,0.15709-0.0782,0.0654-0.39079,0.20941-0.52116,0.23547-0.11722,0.0132-0.22147,0.14406-0.32567,0.19642-0.10425,0.0654-0.49502,0.30091-0.56016,0.31408-0.0651,0.0261-0.40379,0.0785-0.50805,0.18324-0.10426,0.10467-0.56018,0.39259-0.56018,0.39259s-0.1042,0.10463-0.24746,0.2093c-0.14333,0.10474-0.35178,0.14406-0.46893,0.23564-0.13031,0.0785-0.27359,0.23556-0.33876,0.30098-0.0521,0.0654-0.8989,0.57583-1.2637,0.73288"/>
<path d="m214.16,245.45c0.0653,0.0393,1.3809-0.36644,1.5242-0.36644,0.14322,0,0.84671-0.17011,0.92486-0.17011,0.0782,0,1.0682-0.14395,1.1334-0.18318,0.0651-0.0393,0.57319-0.14403,0.66443-0.17018,0.22147-0.0785,0.78153-0.32721,0.88572-0.35338,0.0913-0.0131,0.26059-0.20937,0.44303-0.22247,0.19541-0.0262,1.5503-0.39266,1.8237-0.39266,0.14331,0,0.61235-0.18317,0.85981-0.0916,0.16933,0.0785,0.88578-0.0785,1.0552-0.0785,0.15631,0,0.82064-0.15701,0.96395-0.18318,0.14333-0.0262,0.53418-0.20947,0.67749-0.20947,0.14329,0,0.84667-0.0785,1.0682-0.0392,0.23446,0.0392,0.3126,0.0262,0.3126,0.0262l0.0652-0.13079s-1.407-0.0262-2.0453,0.24859c-0.63831,0.27486-0.65132,0.18318-0.79465,0.18318-0.1433,0,0.32574-0.11773,0.42991-0.14386,0.10428-0.0132,0.88589-0.28791,1.2767-0.28791,0.39079,0,0.99009-0.0654,1.2376-0.0786,0.24756-0.0261,0.14331-0.14396,0.14331-0.14396s-0.33865,0.14396-0.96398,0.0786"/>
<path d="m233.59,247.62s0.28659,0.22248,0.85978,0.22248c0,0,0.24746,0.1702,0.32571,0.23564,0.13031,0.0785,1.4069,1.1517,1.6023,1.2302,0.20845,0.0915,1.5111,1.0339,2.5142,1.819,0.26048,0.20941,2.0714,1.7144,2.2406,1.8716,0.4169,0.34021,1.2766,0.83753,1.2766,0.83753"/>
<line y2="247.38" x2="225.41" y1="247.3" x1="225.16"/>
<line y2="247.63" x2="225.37" y1="247.49" x1="225.04"/>
<line y2="247.87" x2="225.43" y1="247.72" x1="225.02"/>
<line y2="248.13" x2="225.46" y1="248.09" x1="225.15"/>
<line y2="247.63" x2="227.02" y1="247.47" x1="226.01"/>
<line y2="247.8" x2="226.97" y1="247.62" x1="225.99"/>
<line y2="247.99" x2="226.64" y1="247.83" x1="225.93"/>
<line y2="248.13" x2="226.5" y1="248.02" x1="225.94"/>
<line y2="248.42" x2="226.47" y1="248.26" x1="225.93"/>
<line y2="247.68" x2="227.43" y1="247.58" x1="227.11"/>
<line y2="247.87" x2="227.49" y1="247.74" x1="227.03"/>
<line y2="248.16" x2="227.27" y1="248.12" x1="227"/>
<line y2="248.47" x2="227.32" y1="248.38" x1="227.02"/>
<line y2="248.69" x2="227.41" y1="248.61" x1="227.03"/>
<line y2="248.27" x2="228.14" y1="248.19" x1="227.92"/>
<line y2="248.52" x2="228.27" y1="248.44" x1="227.95"/>
<line y2="248.77" x2="228.3" y1="248.72" x1="227.99"/>
<line y2="248.98" x2="228.49" y1="248.94" x1="228.14"/>
<line y2="245.34" x2="231.4" y1="245.3" x1="230.98"/>
<line y2="245.52" x2="231.46" y1="245.41" x1="231.11"/>
<line y2="245.77" x2="231.65" y1="245.72" x1="231.36"/>
<line y2="245.98" x2="231.78" y1="245.9" x1="231.53"/>
<line y2="246.19" x2="231.93" y1="246.15" x1="231.71"/>
<line y2="246.44" x2="232.11" y1="246.35" x1="231.87"/>
<line y2="246.69" x2="232.47" y1="246.62" x1="232.04"/>
<line y2="246.95" x2="232.7" y1="246.83" x1="232.22"/>
<path d="m232.35,247.06s1.1073,0.20941,1.1464-0.10463"/>
<path d="m232.49,247.23s1.0682,0.11769,1.0682-0.0655"/>
<path d="m232.57,247.34s0.78164,0.23565,1.0161-0.0131"/>
<path d="m231.78,248.09s1.0031-0.35334,0.89883-0.60207c0,0,0.74261,0.13089,0.8859,0.0524"/>
<path d="m232.82,247.7s0.49502,0.10473,0.63824,0"/>
<path d="m230.19,243.31s0.63833-0.26168,0.79464-0.2093"/>
<path d="m231.26,243.17c-0.27359-0.14406-0.67749,0.31404-0.67749,0.31404"/>
<path d="m231.01,243.46s0.35172-0.26179,0.57317-0.15712"/>
<path d="m231.28,243.59s0.36479-0.20941,0.50805-0.10467"/>
<path d="m231.61,243.71s0.22146-0.0785,0.32565-0.0393"/>
<path d="m231.75,243.88s0.20845-0.0785,0.31259-0.0392"/>
<path d="m231.92,244.02s0.1824-0.10467,0.2866,0.0262"/>
<path d="m232.01,244.27s0.20845-0.14397,0.33871-0.0393"/>
<path d="m232.22,244.45s0.16931-0.11774,0.28657-0.0655"/>
<path d="m232.32,244.63s0.23446-0.0785,0.32565-0.0524"/>
<path d="m232.51,244.84s0.24759-0.14397,0.31273-0.0654"/>
<path d="m232.64,245.01s0.22146-0.0655,0.3126-0.0262"/>
<path d="m232.7,245.24s0.2866-0.14397,0.33874-0.0786"/>
<path d="m232.81,245.41s0.23456-0.10474,0.29968-0.0654"/>
<path d="m232.88,245.59s0.22152-0.0785,0.2866-0.0392"/>
<path d="m232.88,245.76s0.2866-0.0654,0.35174,0"/>
<path d="m233.03,245.94s0.18243-0.0262,0.26057,0"/>
<path d="m233.13,246.15s0.14337-0.0916,0.22152,0.0131"/>
<path d="m233.21,246.35s0.14329-0.0523,0.20845,0.0523"/>
<path d="m233.27,246.55s0.1172,0.0132,0.18234,0.0785"/>
<path d="m233.31,246.77s0.16922,0.0262,0.20836,0.10474"/>
<path d="m231.57,247.99s0.96408-0.22247,0.93795-0.57583"/>
<path d="m231.93,248.19s0.82076-0.24859,0.78162-0.47107"/>
<path d="m232.22,248.27s0.56016-0.19624,0.58619-0.39259"/>
<line y2="247.16" x2="232.49" y1="245.3" x1="231.07"/>
<path d="m229.33,247.45s1.42,1.4134,1.8107,1.3218"/>
<path d="m230.75,248.86s-0.70349,0.24853-1.6544-0.20948"/>
<path d="m230.66,248.8s-0.40386,0.14388-0.93802,0.0131"/>
<path d="m230.23,248.52s0.5993,0.35334-0.39079,0.2486"/>
<path d="m231.01,245.41,1.3548,1.8845c0.13026,0.36642-1.0683,0.5496-1.0683,0.5496"/>
<path d="m230.4,246.91s1.0812,1.3087,2.0974,1.3479"/>
<path d="m229.55,247.58s1.1724,1.2302,1.7456,1.1778c0,0,1.0683-0.3403,0.74263-0.43189-0.97709-0.31406-1.5894-1.1386-1.5894-1.1386"/>
<path d="m231.96,248.3s-0.53416,0.41873-0.91195,0.39259"/>
<path d="m231.71,248.18s-0.32565,0.43186-0.91192,0.39266"/>
<path d="m231.53,248.09s-0.49504,0.4319-0.97709,0.37952"/>
<path d="m226.58,244.06s0.29962,0.20941,0.53407,0.24862"/>
<path d="m227.07,243.94s0.24756,0.2487,0.49502,0.19632"/>
<path d="m227.32,243.84s0.37785,0.14395,0.7035,0.10465"/>
<path d="m228.53,243.42s0.1694,0.14396,0.35174,0.1309"/>
<path d="m228.91,243.23s0.14331,0.14388,0.42991,0.11773"/>
<path d="m229.44,243.05s0.20851,0.14394,0.39085,0.14394"/>
<path d="m229.91,243.01s0.19545,0.1178,0.33876,0.1178"/>
<line y2="243.09" x2="231.15" y1="242.71" x1="231.32"/>
<path d="m230.29,242.91s0.29968,0.15705,0.46902,0.15705"/>
<path d="m231.58,243.27s0.56023,0.18325,0.72961,0.17007"/>
<path d="m231.93,243.59s0.23446,0.0785,0.42991,0.0785"/>
<path d="m232.43,244.27s0.24746,0.0392,0.46902,0.0654"/>
<path d="m232.65,244.53s0.20845,0.17018,0.48194,0.17018"/>
<path d="m232.9,244.95s0.20841,0.0785,0.44282,0.0393"/>
<path d="m233.07,245.26s0.27353,0.0524,0.53416,0.0132"/>
<path d="m233.17,245.51s0.32571,0.10463,0.5993,0.0393"/>
<path d="m233.43,246.15l0.23445-0.0393"/>
<path d="m233.52,246.44s0.0652,0.0392,0.20845-0.0655"/>
<path d="m233.59,246.81s0.14329,0.0393,0.24754-0.0393"/>
<path d="m233.59,247.27s0.42988,0.11773,0.50805,0.0393"/>
<path d="m233.59,247.47s0.33871,0.1178,0.482,0.0654"/>
<path d="m226.63,242.86s0.50794-0.14388,0.79453-0.0916"/>
<path d="m227.16,242.49s1.0422-0.17007,1.1724-0.0392"/>
<path d="m227.95,242.07s0.63835-0.0917,0.78157,0.0261"/>
<path d="m228.52,241.78s0.61231-0.0784,0.7165,0.0524"/>
<path d="m228.88,241.56s0.58621-0.0262,0.67736,0.10473"/>
<path d="m229.38,241.34s0.33867-0.10467,0.62526,0.1178"/>
<path d="m229.73,241.14s0.41686-0.0786,0.7035,0.17009"/>
<path d="m230.12,240.98s0.31265-0.0786,0.56021,0.11774"/>
<path d="m231.07,240.81s0.24759,0.10474,0.0391,0.37948"/>
<path d="m231.5,240.94s0.28659,0.19635,0.16933,0.44494"/>
<path d="m231.83,241.09s0.1303,0.15701,0.026,0.40572"/>
<path d="m232.21,241.56s0.10425-0.0654,0.20845-0.0262"/>
<path d="m232.43,241.81s0.24746-0.0655,0.35172,0"/>
<path d="m232.88,241.93s0.45593,0.49733,0.61231,0.602c0.16933,0.10463,0.95097,0.48415,1.1594,0.6674,0.20845,0.18317,0.99009,0.8507,1.5763,1.2171,0.19543,0.11774,1.941,1.0077,2.1234,1.0993,0.18242,0.0785,1.8759,0.75898,2.0323,0.90304,0.0391,0.0262,2.2276,0.88991,2.1625,0.87683,0.45593,0.0915,2.436,0.78524,2.5793,0.90297"/>
</g>
</g>
<path d="m133.52,106.98c1.9905-0.39175,4.786-0.91125,6.8398-1.4932,1.1678-0.33086,2.3456-0.69186,3.5332-1.0823-0.66196,1.3031-0.37863,5.1548,0.5205,5.7255-2.8652,1.9196-5.4152,3.0508-7.981,4.2218-1.6454-2.7287-2.6586-5.2105-2.9126-7.3718z" fill-rule="evenodd" transform="translate(79.857277,138.00513)" stroke="#000" stroke-width="0.072" fill="#000"/>
<path d="m245.94,248.03c-1.9208-0.65248-4.5846-1.9952-6.543-2.8446-1.1135-0.48293-2.233-0.99707-3.3583-1.5417,0.48314,1.3794-0.30893,5.1594-1.2759,5.6057,2.5851,2.2829,4.9623,3.7426,7.35,5.2438,2.1632-2.7149,3.2886-4.3547,3.8272-6.4633z" fill-rule="evenodd" stroke="#000" stroke-width="0.072" fill="#000"/>
</g>
</g>
</g>
</svg> 
