<?xml version="1.0" encoding="UTF-8" standalone="no"?>
<!-- Created with Inkscape (http://www.inkscape.org/) -->

<svg
   xmlns:dc="http://purl.org/dc/elements/1.1/"
   xmlns:cc="http://creativecommons.org/ns#"
   xmlns:rdf="http://www.w3.org/1999/02/22-rdf-syntax-ns#"
   xmlns:svg="http://www.w3.org/2000/svg"
   xmlns="http://www.w3.org/2000/svg"
   xmlns:xlink="http://www.w3.org/1999/xlink"
   xmlns:sodipodi="http://sodipodi.sourceforge.net/DTD/sodipodi-0.dtd"
   xmlns:inkscape="http://www.inkscape.org/namespaces/inkscape"
   width="1365.8438"
   height="745.59821"
   id="svg2"
   version="1.1"
   inkscape:version="0.91 r13725"
   sodipodi:docname="Bandera_de_la_Provincia_de_Catamarca.svg">
  <defs
     id="defs4">
    <inkscape:path-effect
       effect="spiro"
       id="path-effect3652"
       is_visible="true" />
    <inkscape:path-effect
       effect="spiro"
       id="path-effect3652-0"
       is_visible="true" />
    <inkscape:path-effect
       effect="spiro"
       id="path-effect3652-7"
       is_visible="true" />
  </defs>
  <sodipodi:namedview
     id="base"
     pagecolor="#ffffff"
     bordercolor="#666666"
     borderopacity="1.0"
     inkscape:pageopacity="0.0"
     inkscape:pageshadow="2"
     inkscape:zoom="0.5"
     inkscape:cx="1108.721"
     inkscape:cy="573.46826"
     inkscape:document-units="px"
     inkscape:current-layer="layer1"
     showgrid="false"
     fit-margin-top="0"
     fit-margin-left="0"
     fit-margin-right="0"
     fit-margin-bottom="0"
     inkscape:window-width="1366"
     inkscape:window-height="705"
     inkscape:window-x="-8"
     inkscape:window-y="-8"
     inkscape:window-maximized="1" />
  <metadata
     id="metadata7">
    <rdf:RDF>
      <cc:Work
         rdf:about="">
        <dc:format>image/svg+xml</dc:format>
        <dc:type
           rdf:resource="http://purl.org/dc/dcmitype/StillImage" />
        <dc:title />
      </cc:Work>
    </rdf:RDF>
  </metadata>
  <g
     inkscape:label="Capa 1"
     inkscape:groupmode="layer"
     id="layer1"
     transform="translate(351.49332,-263.84875)">
    <rect
       style="fill:#ffd42a"
       id="rect2985"
       width="1365.8438"
       height="745.59821"
       x="-351.49332"
       y="263.84875" />
    <rect
       style="fill:#ff0000"
       id="rect2987"
       width="1301.3214"
       height="362.14774"
       x="-316.42599"
       y="616.8667" />
    <rect
       style="fill:#ffffff"
       id="rect2989"
       width="1291.0343"
       height="328.67184"
       x="-306.42368"
       y="288.59299"
       ry="0" />
    <rect
       style="fill:#80b3ff"
       id="rect2991"
       width="647.54163"
       height="334.67191"
       x="-316.47095"
       y="288.11905" />
    <g
       id="sun"
       transform="matrix(0.98403165,0,0,0.77527659,326.84233,613.47032)"
       style="fill:#fcbf49;stroke:#843511;stroke-width:1.5">
      <g
         id="sun-1"
         transform="matrix(0.65020228,0,0,0.81740411,3.7896188,-0.13953789)"
         style="fill:#fcbf49;stroke:#843511;stroke-width:1.5"
         inkscape:transform-center-x="482.72545"
         inkscape:transform-center-y="-130.45384">
        <g
           id="16rays">
          <g
             id="8rays">
            <g
               id="4rays">
              <g
                 id="2rays">
                <path
                   id="path3056"
                   d="m -8,0 6,159.5 c 0,0 0,3 2,3 2,0 2,-3 2,-3 L 8,0"
                   inkscape:connector-curvature="0" />
                <path
                   id="path3058"
                   d="M -4,0 0,109.5 4,0"
                   inkscape:connector-curvature="0"
                   style="fill:#843511;stroke:none" />
                <g
                   id="g3060"
                   transform="matrix(0.9799247,0.19936793,-0.19936793,0.9799247,0,0)">
                  <path
                     id="path3062"
                     d="m -4.5,53.5 c -5,21.5 6,36 0.5,55 -5.5,19 3,32 4,40 1,8 -5,11.5 -3,13 C -1,163 5,158 5.5,147 6,136 -1.5,131.25 5,108 11.5,84.75 1,77 8,56"
                     inkscape:connector-curvature="0" />
                  <path
                     id="path3064"
                     d="M -1,58 C -4,79 6,90.5 0,109 8,95 -2,81 3,59"
                     inkscape:connector-curvature="0"
                     style="fill:#843511;stroke:none" />
                </g>
              </g>
              <use
                 id="use3066"
                 transform="scale(-1,-1)"
                 xlink:href="#2rays"
                 x="0"
                 y="0"
                 width="1"
                 height="1" />
            </g>
            <use
               id="use3068"
               transform="matrix(0,1,-1,0,0,0)"
               xlink:href="#4rays"
               x="0"
               y="0"
               width="1"
               height="1" />
          </g>
          <use
             id="use3070"
             transform="matrix(0.70710678,0.70710678,-0.70710678,0.70710678,0,0)"
             xlink:href="#8rays"
             x="0"
             y="0"
             width="1"
             height="1" />
        </g>
        <use
           id="use3072"
           transform="matrix(0.92387953,0.38268343,-0.38268343,0.92387953,0,0)"
           xlink:href="#16rays"
           x="0"
           y="0"
           width="1"
           height="1" />
        <circle
           id="circle3074"
           r="65"
           cx="0"
           cy="0"
           style="stroke-width:1" />
        <g
           id="face_right"
           style="fill:#843511;stroke:none">
          <path
             d="M 41,-14 C 29.5,-24 15,-25.5 7,-18 A 140,50 10 0 0 8.5,8.5 C 8,8.5 7,9 6.5,9.5 A 80,50 10 0 1 4,-19 c 11,-9 26,-10 37,5"
             id="eyebrow_nose"
             inkscape:connector-curvature="0" />
          <path
             d="m 23,-17 c -6.5,0 -8,1.5 -11,4 -3,2.5 -4.5,2 -5,2.5 -0.5,0.5 0,2 1,1.5 1,-0.5 3,-1.5 6,-4 3,-2.5 6,-2.5 9,-2.5 9,0 14,7.5 15,7 C 39,-9 33,-17 23,-17"
             id="uppalpebra"
             inkscape:connector-curvature="0" />
          <path
             d="M 34.5,-8.5 C 28,-15.5 16,-16 11,-8 l 2,0 c 5,-8 17,-4.5 18,-1 l 0,1"
             id="upeyecontour"
             inkscape:connector-curvature="0" />
          <circle
             r="4.5"
             cy="-9"
             cx="22"
             id="pupil" />
          <path
             d="m 11,-8 c 5,4.5 16,5 23.5,-0.5 L 31,-9 c -5,5.5 -13,5 -18,1 l 0,-1"
             id="loweyecontour"
             inkscape:connector-curvature="0" />
          <path
             d="M 35,-6 C 26.5,0.5 18,0 13,-3 8,-6 8,-7 9,-7 c 1,0 2,1 6,3 4,2 10,2 20,-2"
             id="lowpalpebra"
             inkscape:connector-curvature="0" />
          <path
             d="m 10.5,9 a 3,3 0 1 1 -4,3 C 6,13 4,16 0,16 l -1,0 1,1.5 c 1,0 4,0 6,-1.5 a 4.5,4.5 0 1 0 4.5,-7"
             id="nose"
             inkscape:connector-curvature="0" />
          <path
             d="M 16.5,30 C 12,27 10,22.5 5,22.5 4,22.5 2,23 0,24 l -1,0 1,1.5 c 2,0 5,-2.5 8.5,-0.5 3.5,2 5.5,4 8,5"
             id="uplip"
             inkscape:connector-curvature="0" />
          <path
             d="M 15,30 C 5,27 3,29 0,29 l -1,0 1,2 c 4,0 6,-3 15,-1"
             id="midlip"
             inkscape:connector-curvature="0" />
          <path
             d="M 16.5,30 C 5.5,29 9,35.5 0,35.5 l -1,0 1,1.5 c 11,0 6,-6 16.5,-7"
             id="path3086"
             inkscape:connector-curvature="0" />
          <path
             d="M 9,46 A 9,9 0 0 0 -9,46 9.25,9.25 0 0 1 9,46"
             id="chin"
             inkscape:connector-curvature="0" />
        </g>
        <use
           id="use3089"
           transform="scale(-1,1)"
           xlink:href="#face_right"
           x="0"
           y="0"
           width="1"
           height="1" />
      </g>
    </g>
    <path
       style="fill:#594a27"
       d="m 217.1301,850.78731 c 0,-4.77012 44.32896,-29.09192 77.46089,-42.50009 10.70258,-4.33123 18.77003,-8.53692 17.92774,-9.34579 -0.84249,-0.80913 -10.48115,-4.38407 -21.41969,-7.94431 -24.28622,-7.90483 -48.42611,-18.97202 -70.766,-32.44373 l -16.83423,-10.15148 -5.61346,4.40067 c -3.08741,2.4205 -10.91871,7.57271 -17.40248,11.44963 -6.48386,3.87691 -11.41968,7.40819 -10.96833,7.84739 0.45135,0.4392 8.17794,-2.50933 17.17034,-6.55245 8.99231,-4.04294 24.28873,-15.49956 24.79071,-15.01088 4.45283,4.33318 -19.68762,30.09766 -35.22215,37.2492 -20.94367,9.64167 -56.14433,15.49685 -56.14433,9.33893 0,-9.2096 21.53251,-30.07078 41.99197,-40.68238 9.00199,-4.66915 17.17927,-7.19367 25.74908,-7.95 6.90711,-0.60938 12.28693,-1.7485 11.95509,-2.5313 -0.33155,-0.7828 -7.43236,-7.11668 -15.77952,-14.07554 l -15.17664,-12.65216 -20.67894,0.0616 c -21.03665,0.0636 -23.23439,2.3006 -4.86043,4.94745 24.38462,3.51257 43.42691,-5.6166 29.92686,-0.36026 -20.00532,7.78948 -78.44121,11.13832 -98.25981,-3.59668 -3.21651,-2.39152 -3.5019,-3.56593 -1.45133,-5.97039 4.39206,-5.14962 21.57263,-9.65742 41.3108,-10.83922 15.91942,-0.95296 21.00027,-0.44006 31.48821,3.17926 6.87815,2.37365 12.78983,4.03922 13.13722,3.70118 0.34737,-0.33784 -5.57864,-8.8697 -13.16878,-18.95916 -13.31351,-17.69771 -14.2824,-18.50268 -27.47128,-22.82064 -7.5192,-2.46171 -16.7121,-5.08168 -20.42865,-5.82241 -6.2505,-1.24584 -6.44104,-1.1307 -2.53907,1.53544 2.32014,1.58532 9.65802,5.12909 16.30654,7.87508 6.64843,2.74598 25.34391,5.91619 24.9834,7.04505 -1.32306,4.14432 -39.02685,3.46106 -51.47955,-1.07282 -23.30115,-8.48384 -46.880505,-28.00926 -42.380679,-35.09455 1.818535,-2.86358 28.088229,-2.03644 42.847389,1.34908 7.41281,1.70046 27.14875,12.84539 32.81666,15.92592 7.95063,4.32123 -26.19514,-114.01919 -24.88707,-116.05236 2.85034,-4.4296 35.20689,110.94802 42.66923,123.60594 17.22023,29.20974 54.9835,64.50254 92.00056,85.98212 32.33542,18.76295 90.26868,39.93754 108.3555,39.60381 9.14728,-0.16828 48.53632,-12.11816 71.40324,-21.66123 49.96689,-20.85338 95.2879,-57.04065 124.30815,-99.2564 6.40186,-9.31301 36.36939,-126.08753 38.07082,-126.08753 1.70172,0 -20.86018,110.12578 -21.61376,111.31251 -1.3266,2.08879 2.12607,0.85628 22.21292,-7.92864 13.03986,-5.70315 33.69665,-9.3204 46.42711,-8.13018 5.83676,0.54596 11.07044,1.43794 11.62995,1.98246 2.8563,2.77944 -7.00083,14.71816 -18.11474,21.94036 -18.2565,11.86341 -33.68018,16.96766 -49.06438,16.23678 -6.97896,-0.33148 -27.10345,-6.30333 -27.46395,-7.43219 -0.36041,-1.12885 18.90373,0.47785 25.55244,-2.26813 6.64852,-2.74599 13.98639,-6.28976 16.30644,-7.87508 3.90197,-2.66614 3.71144,-2.78128 -2.53889,-1.53544 -3.71664,0.74073 -12.90945,3.3607 -20.42864,5.82241 -13.18916,4.31796 -14.15813,5.12293 -27.47146,22.82064 -7.59005,10.08946 -13.51606,18.62132 -13.16869,18.95916 0.34719,0.33804 5.99798,-1.22101 12.55714,-3.46453 6.87043,-2.34966 17.35985,-4.07886 24.74446,-4.07886 16.31995,0 40.63967,5.34111 46.83563,10.28609 4.75348,3.79377 4.75665,3.83256 0.56193,6.98923 -19.77763,14.88237 -82.09847,15.58109 -102.23828,7.73927 -13.49987,-5.25635 9.30627,-0.0726 33.69096,-3.58509 18.40274,-2.65096 16.16284,-4.88404 -4.96281,-4.94745 l -20.78133,-0.0616 -15.07416,12.60577 c -8.29075,6.9332 -15.34557,13.26709 -15.6774,14.07555 -0.33147,0.80826 5.04799,1.9683 11.95508,2.57768 20.53914,1.81232 47.47334,18.01827 61.69226,37.11952 9.66193,12.97928 8.62547,14.45116 -9.24233,13.12422 -27.19138,-2.01925 -65.14687,-26.27598 -75.68693,-41.77467 -6.42001,-9.44091 4.11502,-0.52973 12.40355,3.25296 22.12887,10.09867 28.51825,12.43762 26.03996,9.53173 -1.46351,-1.71625 -7.08879,-5.59619 -12.50064,-8.62209 -5.41165,-3.02622 -11.73764,-7.15674 -14.05779,-9.17945 -4.10115,-3.57538 -4.79061,-3.33791 -24.83325,8.55298 -23.77791,14.10719 -46.77449,24.33988 -72.2191,32.13554 -9.84298,3.01589 -17.89628,6.00424 -17.89628,6.64096 0,0.6369 10.17583,5.28564 22.61298,10.33062 12.43735,5.04513 33.07012,14.96811 45.85094,22.05139 33.34284,18.4789 36.82995,22.8785 14.70629,18.55482 -8.34688,-1.63127 -15.58163,-4.78304 -21.97045,-9.57121 -10.44289,-7.82665 -47.92897,-25.65757 -69.82068,-33.21162 l -13.89378,-4.79413 -13.52518,4.83183 c -22.80837,8.14812 -59.40441,25.64347 -69.56144,33.25521 -5.29931,3.97106 -13.36676,7.87956 -17.92784,8.68515 -4.56099,0.8056 -10.42827,1.96357 -13.03828,2.57334 -2.77624,0.64855 -4.74556,0.15393 -4.74556,-1.19181 z M 616.15308,652.2827 c 6.29974,-3.11748 9.5696,-6.93812 5.93765,-6.93812 -4.90445,0 -21.21556,4.68617 -22.3102,6.40982 -0.62876,0.99011 -0.53279,2.76117 0.21316,3.936 1.45282,2.28726 7.02625,1.11182 16.15939,-3.4077 z m -544.55442,1.47244 c 0,-2.04528 -11.345488,-6.3659 -16.660525,-6.34455 -2.11574,0 -1.01366,1.53625 2.95114,4.09136 6.611655,4.26111 13.709385,5.42773 13.709385,2.25319 z m 104.25685,63.88158 c 0,-0.65864 9.47475,-18.47959 11.85354,-27.54695 2.37916,-9.06734 3.91183,-16.88884 3.40613,-17.38102 -0.50581,-0.49217 -3.98463,6.3109 -7.73106,15.11799 -7.9632,18.72003 -8.068,24.12768 -10.62867,20.18757 -5.00927,-7.70779 0.22255,-47.17821 7.36728,-53.43368 1.28928,-1.12885 6.02386,-7.41428 10.52164,-13.96736 9.1095,-13.27284 15.73428,-18.8668 18.80494,-15.87863 1.09027,1.06111 2.06491,10.98125 2.16573,22.04482 0.23354,25.61753 -3.94498,39.60911 -15.71483,52.62109 -7.75489,8.5731 -20.0447,21.62189 -20.0447,18.23617 z m 26.30423,-68.49345 c 1.27345,-3.55506 2.27556,-8.404 2.22706,-10.77539 -0.0698,-3.43602 -0.90949,-2.85251 -4.12992,2.87178 -4.33498,7.70513 -5.40877,14.3672 -2.31539,14.3672 1.0466,0 2.94471,-2.90854 4.21825,-6.46359 z m 274.68875,50.42823 c -10.03769,-14.08152 -16.09468,-26.37467 -15.55016,-48.06955 0.2408,-9.59523 1.01934,-20.07036 1.73019,-23.27835 l 1.29225,-5.83247 6.39041,5.83247 c 6.84454,6.24726 19.06315,22.94832 25.78241,35.24027 6.21057,11.36157 9.51822,51.26534 3.70482,51.26534 -0.95464,0 -6.59872,-16.32329 -9.78182,-24.21868 -9.54763,-23.68103 -12.38894,-20.9135 -4.15032,4.97864 5.94576,18.68598 18.10256,42.68986 -9.41778,4.08233 z m 0.64385,-45.83175 c 1.22104,-1.92275 -5.14079,-17.29421 -9.42086,-22.76236 -1.86935,-2.38824 -2.14059,-0.87374 -1.20977,6.75319 1.73447,14.21265 6.86475,21.93872 10.63063,16.00917 z m -336.81895,0.50777 c 1.45002,-0.56935 -14.67828,6.72384 -14.67828,5.75917 0,-0.96443 24.74139,-23.05892 33.81878,-38.65081 9.07737,-15.5919 17.1667,-30.09577 17.97605,-32.23095 3.16708,-8.3533 -5.46695,1.88291 -24.58892,29.15145 -18.43951,26.29565 -27.69645,44.41041 -28.34476,38.02584 -1.50894,-14.86102 32.58172,-67.8074 51.71058,-77.42069 6.25135,-3.14171 7.0121,-3.1608 8.17785,-0.20525 2.06399,5.23376 -2.9343,25.1857 -10.0982,40.31003 -4.67892,9.87869 -10.2585,17.30365 -19.0114,25.30085 -6.81411,6.2253 -13.56102,11.24602 -14.99355,11.15674 -2.03289,-0.12726 -2.02563,-0.38936 0.0326,-1.1972 z m 386.43465,-1.66043 c -1.70311,-1.66085 -7.12128,-6.37822 -12.04007,-10.48312 -9.93905,-8.2942 -19.82679,-26.11013 -24.60112,-44.32611 -2.67106,-10.19166 -2.59743,-20.16434 0.14977,-20.16434 7.69503,0 35.82644,26.90702 42.67908,41.65747 5.30481,11.41863 11.99587,39.15595 7.48775,29.19602 -1.02185,-0.0472 -12.56663,-17.76138 -22.89493,-32.93559 -10.32831,-15.17423 -20.65735,-29.22062 -22.95367,-31.21439 -4.05946,-3.52467 -4.12992,-3.48301 -2.54363,1.50631 0.89721,2.82213 8.17495,16.08367 16.17269,29.47 14.94933,25.0215 36.95086,36.36816 35.8297,36.36816 -0.35063,0 -15.58144,2.58644 -17.28474,0.92559 z M 75.92499,614.85697 c -15.045574,-9.83311 -35.96355,-43.60771 -35.96355,-58.06748 0,-3.60657 0.87869,-4.03922 5.800182,-2.8564 16.322268,3.92286 50.129588,25.54891 56.578268,42.017 2.06715,5.27911 13.94302,21.15574 13.5088,22.42253 -0.43376,1.26676 -27.09439,-15.71093 -40.84372,-30.49518 -13.749133,-14.78426 -25.489104,-26.40322 -26.088452,-25.8199 -1.512946,1.47222 3.714967,8.96574 24.089252,34.52806 9.6664,12.12776 45.42927,27.7788 45.42927,28.35061 0,2.65033 -34.34914,-4.74551 -42.51005,-10.07924 z m 485.84876,11.39238 c 3.60039,-1.92334 36.87082,-27.83316 47.43416,-41.29029 10.56352,-13.45714 19.20649,-25.20397 19.20649,-26.10437 0,-4.02262 -6.90179,2.27349 -29.52819,26.93684 -13.34032,14.54125 -24.98526,26.5007 -25.87736,26.57623 -0.892,0.0758 -18.3317,14.69413 -17.59246,11.58979 4.58789,-19.26312 49.74685,-62.98576 72.44473,-69.81429 4.37623,-1.31645 4.62875,-0.92504 3.4698,5.38093 -1.83948,10.0088 -12.44898,31.64711 -20.16607,41.12876 -12.12375,14.89592 -99.83363,52.5432 -49.3911,25.5964 z M 130.87676,578.12664 c 6.12196,-7.61976 15.06484,-18.47213 19.87277,-24.11638 25.92073,-30.4291 18.52505,-27.8348 -12.79003,4.48688 -25.98765,26.82314 -38.5581,36.64095 -28.81993,17.06524 8.02762,-16.13744 42.51769,-46.76716 57.89826,-50.39117 5.34193,-1.25858 5.80008,-0.88441 5.80008,4.73747 0,8.34303 -12.86988,32.71799 -23.45137,44.41618 -8.02389,8.87072 -31.37734,22.91632 -37.05241,22.91632 -1.30604,0 12.42058,-11.49481 18.54263,-19.11454 z m 425.45267,15.24039 c -11.03489,-6.81005 -39.25528,-24.97911 -48.03564,-41.22203 -6.21085,-11.48988 -10.12036,-24.98703 -7.87142,-27.17557 2.78583,-2.71088 24.97036,9.9805 37.6971,21.56559 12.93308,11.77309 20.541,39.63283 18.60983,45.27051 -0.3726,1.0878 -9.19736,-20.51419 -24.21064,-35.94888 -27.96693,-28.75164 -37.95232,-34.16887 -17.4909,-9.48932 40.81113,49.22468 61.2409,59.305 41.30167,46.9997 z M 106.02889,532.25751 c 12.26495,-45.72666 4.03499,-61.37173 1.94186,-61.37173 -1.19274,0 -2.70122,2.0781 -3.35242,4.61802 -1.14825,4.47805 -9.81905,65.85944 -9.81905,69.50932 0,0.99749 -0.82573,1.81355 -1.8351,1.81355 -1.63478,0 -4.33052,-8.12855 -7.37847,-22.24884 -2.74143,-12.70163 8.85949,-53.13563 18.57514,-64.74044 l 4.95369,-5.91722 2.63792,4.79638 c 5.36297,9.75123 10.07159,18.09544 10.07586,38.07322 0,17.33362 -0.0503,31.38946 -6.79586,39.01006 -24.35175,27.51077 -15.14331,19.34806 -9.00357,-3.54232 z m 456.19603,12.14809 c -12.44208,-18.47828 -13.19474,-62.15989 -1.43988,-83.53395 2.41984,-4.40007 2.82251,-4.48136 6.43676,-1.2984 2.12049,1.86753 5.83154,7.86542 8.24673,13.32886 10.83327,24.50592 13.89853,52.78609 7.29646,67.31995 l -13.25273,16.17911 5.85527,-21.73764 c -0.91973,-4.72249 -0.96394,-17.08375 -2.85815,-33.09517 -1.89401,-16.01143 -4.54562,-31.54318 -5.89232,-34.51513 -2.29893,-5.07348 -2.49021,-4.74221 -3.1295,5.42238 -0.37456,5.95416 0.23765,25.34989 1.36067,43.10158 1.12285,17.7517 4.73477,38.50468 4.34625,38.885 -0.38853,0.38011 -5.181,-7.40031 -6.96956,-10.05659 z"
       id="path3073"
       inkscape:connector-curvature="0"
       sodipodi:nodetypes="ssccsccscccsssccsccsccccccsscssccccscsscsssccccsccsccssccsscssccsccsscccccscscsssscccscsssccssccssccsssccsssscssssscccsscsscssccsscscccccccccccsscsssssccsssccscssssssscccssssssscssssscsscsssssssscccscsssscscccsscscs" />
  </g>
</svg>
