<?xml version="1.0" encoding="UTF-8" standalone="no"?>
<!-- Created with Inkscape (http://www.inkscape.org/) -->
<svg
   xmlns:dc="http://purl.org/dc/elements/1.1/"
   xmlns:cc="http://web.resource.org/cc/"
   xmlns:rdf="http://www.w3.org/1999/02/22-rdf-syntax-ns#"
   xmlns:svg="http://www.w3.org/2000/svg"
   xmlns="http://www.w3.org/2000/svg"
   xmlns:sodipodi="http://sodipodi.sourceforge.net/DTD/sodipodi-0.dtd"
   xmlns:inkscape="http://www.inkscape.org/namespaces/inkscape"
   width="663.90472"
   height="529.73724"
   id="svg2"
   sodipodi:version="0.32"
   inkscape:version="0.45"
   sodipodi:docbase="C:\Documents and Settings\Lu1g1 y EdU\Escritorio"
   sodipodi:docname="bandera nqn.svg"
   inkscape:output_extension="org.inkscape.output.svg.inkscape"
   version="1.0"
   sodipodi:modified="true">
  <defs
     id="defs4" />
  <sodipodi:namedview
     id="base"
     pagecolor="#ffffff"
     bordercolor="#666666"
     borderopacity="1.0"
     inkscape:pageopacity="0"
     inkscape:pageshadow="2"
     inkscape:zoom="1"
     inkscape:cx="308.78014"
     inkscape:cy="171.37479"
     inkscape:document-units="px"
     inkscape:current-layer="layer1"
     inkscape:window-width="809"
     inkscape:window-height="573"
     inkscape:window-x="0"
     inkscape:window-y="0" />
  <metadata
     id="metadata7">
    <rdf:RDF>
      <cc:Work
         rdf:about="">
        <dc:format>image/svg+xml</dc:format>
        <dc:type
           rdf:resource="http://purl.org/dc/dcmitype/StillImage" />
        <dc:title>Bandera de la provincia de Neuquén</dc:title>
        <dc:date>05/02/2009</dc:date>
        <dc:creator>
          <cc:Agent>
            <dc:title>Lu1g1-ktupq</dc:title>
          </cc:Agent>
        </dc:creator>
        <cc:license
           rdf:resource="http://creativecommons.org/licenses/GPL/2.0/" />
      </cc:Work>
      <cc:License
         rdf:about="http://creativecommons.org/licenses/GPL/2.0/">
        <cc:permits
           rdf:resource="http://web.resource.org/cc/Reproduction" />
        <cc:permits
           rdf:resource="http://web.resource.org/cc/Distribution" />
        <cc:requires
           rdf:resource="http://web.resource.org/cc/Notice" />
        <cc:permits
           rdf:resource="http://web.resource.org/cc/DerivativeWorks" />
        <cc:requires
           rdf:resource="http://web.resource.org/cc/ShareAlike" />
        <cc:requires
           rdf:resource="http://web.resource.org/cc/SourceCode" />
      </cc:License>
    </rdf:RDF>
  </metadata>
  <g
     inkscape:label="Capa 1"
     inkscape:groupmode="layer"
     id="layer1"
     transform="translate(-60.581229,-106.81648)">
    <g
       id="g8207"
       transform="matrix(2.4416817,0,0,2.4416817,-215.10201,-167.80759)">
      <g
         transform="translate(-12.520814,-284.71403)"
         id="g13884">
        <path
           style="color:#000000;fill:#73c6ef;fill-opacity:1;fill-rule:evenodd;stroke:none;stroke-width:0.05001669;stroke-linecap:butt;stroke-linejoin:miter;marker:none;marker-start:none;marker-mid:none;marker-end:none;stroke-miterlimit:4;stroke-dasharray:none;stroke-dashoffset:0;stroke-opacity:1;visibility:visible;display:inline;overflow:visible;enable-background:accumulate"
           d="M 125.42793,397.18736 L 216.37921,397.18736 L 216.37921,614.14325 L 125.42793,614.14325 L 125.42793,397.18736 z "
           id="rect2221" />
        <path
           style="color:#000000;fill:#ffffff;fill-opacity:1;fill-rule:evenodd;stroke:none;stroke-width:0.05002949;stroke-linecap:butt;stroke-linejoin:miter;marker:none;marker-start:none;marker-mid:none;marker-end:none;stroke-miterlimit:4;stroke-dasharray:none;stroke-dashoffset:0;stroke-opacity:1;visibility:visible;display:inline;overflow:visible;enable-background:accumulate"
           d="M 216.36563,397.18761 L 306.35202,397.18761 L 306.35202,614.14152 L 216.36563,614.14152 L 216.36563,397.18761 z "
           id="path3195" />
        <path
           style="color:#000000;fill:#73c6ef;fill-opacity:1;fill-rule:evenodd;stroke:none;stroke-width:0.05001669;stroke-linecap:butt;stroke-linejoin:miter;marker:none;marker-start:none;marker-mid:none;marker-end:none;stroke-miterlimit:4;stroke-dasharray:none;stroke-dashoffset:0;stroke-opacity:1;visibility:visible;display:inline;overflow:visible;enable-background:accumulate"
           d="M 306.34573,397.18787 L 397.33262,397.18787 L 397.33262,614.13786 L 306.34573,614.13786 L 306.34573,397.18787 z "
           id="path6122" />
      </g>
      <g
         transform="translate(2.4901454e-6,1.3920885e-7)"
         id="g8151">
        <g
           id="g23848"
           transform="translate(1.8427375e-3,-0.2204317)">
          <g
             id="g23828">
            <g
               id="g23821">
              <path
                 id="path20769"
                 d="M 250.69744,185.49795 L 249.00962,184.38182 L 247.40282,185.52781 L 248.01064,183.67417 L 246.3545,182.592 L 248.41798,182.56252 L 249.00121,180.7477 L 249.66869,182.58311 L 251.6853,182.54367 L 250.03436,183.7075 L 250.69744,185.49795 z "
                 style="color:#000000;fill:#ffc600;fill-opacity:1;fill-rule:evenodd;stroke:#efde7b;stroke-width:0.38938329;stroke-linecap:butt;stroke-linejoin:miter;marker:none;marker-start:none;marker-mid:none;marker-end:none;stroke-miterlimit:4;stroke-dasharray:none;stroke-dashoffset:0;stroke-opacity:1;visibility:visible;display:inline;overflow:visible;enable-background:accumulate" />
              <path
                 id="path23773"
                 d="M 244.30503,185.89971 L 242.42738,185.14545 L 241.08359,186.5909 L 241.30659,184.65294 L 239.4668,183.92558 L 241.48228,183.48212 L 241.68899,181.58712 L 242.71162,183.251 L 244.67919,182.80719 L 243.29574,184.27899 L 244.30503,185.89971 z "
                 style="color:#000000;fill:#ffc600;fill-opacity:1;fill-rule:evenodd;stroke:#efde7b;stroke-width:0.38938329;stroke-linecap:butt;stroke-linejoin:miter;marker:none;marker-start:none;marker-mid:none;marker-end:none;stroke-miterlimit:4;stroke-dasharray:none;stroke-dashoffset:0;stroke-opacity:1;visibility:visible;display:inline;overflow:visible;enable-background:accumulate" />
              <path
                 id="path23775"
                 d="M 254.29921,185.61038 L 256.17686,184.85612 L 257.52065,186.30157 L 257.29765,184.36361 L 259.13744,183.63625 L 257.12196,183.19279 L 256.91525,181.29779 L 255.89262,182.96167 L 253.92505,182.51786 L 255.3085,183.98966 L 254.29921,185.61038 z "
                 style="color:#000000;fill:#ffc600;fill-opacity:1;fill-rule:evenodd;stroke:#efde7b;stroke-width:0.38938329;stroke-linecap:butt;stroke-linejoin:miter;marker:none;marker-start:none;marker-mid:none;marker-end:none;stroke-miterlimit:4;stroke-dasharray:none;stroke-dashoffset:0;stroke-opacity:1;visibility:visible;display:inline;overflow:visible;enable-background:accumulate" />
              <path
                 id="path23777"
                 d="M 237.70156,187.46193 L 235.73388,186.98997 L 234.6156,188.61618 L 234.55318,186.66643 L 232.62689,186.21555 L 234.55599,185.4825 L 234.48374,183.57763 L 235.73841,185.07433 L 237.62006,184.34793 L 236.4664,186.00599 L 237.70156,187.46193 z "
                 style="color:#000000;fill:#ffc600;fill-opacity:1;fill-rule:evenodd;stroke:#efde7b;stroke-width:0.38938329;stroke-linecap:butt;stroke-linejoin:miter;marker:none;marker-start:none;marker-mid:none;marker-end:none;stroke-miterlimit:4;stroke-dasharray:none;stroke-dashoffset:0;stroke-opacity:1;visibility:visible;display:inline;overflow:visible;enable-background:accumulate" />
              <path
                 id="path23779"
                 d="M 260.68141,187.38346 L 262.64909,186.9115 L 263.76737,188.53771 L 263.82979,186.58796 L 265.75608,186.13708 L 263.82698,185.40403 L 263.89923,183.49916 L 262.64456,184.99586 L 260.76291,184.26946 L 261.91657,185.92752 L 260.68141,187.38346 z "
                 style="color:#000000;fill:#ffc600;fill-opacity:1;fill-rule:evenodd;stroke:#efde7b;stroke-width:0.38938329;stroke-linecap:butt;stroke-linejoin:miter;marker:none;marker-start:none;marker-mid:none;marker-end:none;stroke-miterlimit:4;stroke-dasharray:none;stroke-dashoffset:0;stroke-opacity:1;visibility:visible;display:inline;overflow:visible;enable-background:accumulate" />
            </g>
            <g
               id="g23788"
               transform="matrix(0.6188328,-0.7855227,0.7855227,0.6188328,-80.080626,281.30244)">
              <path
                 id="path23790"
                 d="M 250.69744,185.49795 L 249.00962,184.38182 L 247.40282,185.52781 L 248.01064,183.67417 L 246.3545,182.592 L 248.41798,182.56252 L 249.00121,180.7477 L 249.66869,182.58311 L 251.6853,182.54367 L 250.03436,183.7075 L 250.69744,185.49795 z "
                 style="color:#000000;fill:#ffc600;fill-opacity:1;fill-rule:evenodd;stroke:#efde7b;stroke-width:0.38938329;stroke-linecap:butt;stroke-linejoin:miter;marker:none;marker-start:none;marker-mid:none;marker-end:none;stroke-miterlimit:4;stroke-dasharray:none;stroke-dashoffset:0;stroke-opacity:1;visibility:visible;display:inline;overflow:visible;enable-background:accumulate" />
              <path
                 id="path23792"
                 d="M 244.30503,185.89971 L 242.42738,185.14545 L 241.08359,186.5909 L 241.30659,184.65294 L 239.4668,183.92558 L 241.48228,183.48212 L 241.68899,181.58712 L 242.71162,183.251 L 244.67919,182.80719 L 243.29574,184.27899 L 244.30503,185.89971 z "
                 style="color:#000000;fill:#ffc600;fill-opacity:1;fill-rule:evenodd;stroke:#efde7b;stroke-width:0.38938329;stroke-linecap:butt;stroke-linejoin:miter;marker:none;marker-start:none;marker-mid:none;marker-end:none;stroke-miterlimit:4;stroke-dasharray:none;stroke-dashoffset:0;stroke-opacity:1;visibility:visible;display:inline;overflow:visible;enable-background:accumulate" />
              <path
                 id="path23794"
                 d="M 254.29921,185.61038 L 256.17686,184.85612 L 257.52065,186.30157 L 257.29765,184.36361 L 259.13744,183.63625 L 257.12196,183.19279 L 256.91525,181.29779 L 255.89262,182.96167 L 253.92505,182.51786 L 255.3085,183.98966 L 254.29921,185.61038 z "
                 style="color:#000000;fill:#ffc600;fill-opacity:1;fill-rule:evenodd;stroke:#efde7b;stroke-width:0.38938329;stroke-linecap:butt;stroke-linejoin:miter;marker:none;marker-start:none;marker-mid:none;marker-end:none;stroke-miterlimit:4;stroke-dasharray:none;stroke-dashoffset:0;stroke-opacity:1;visibility:visible;display:inline;overflow:visible;enable-background:accumulate" />
              <path
                 id="path23796"
                 d="M 237.99116,187.60673 L 236.02348,187.13477 L 234.9052,188.76098 L 234.84278,186.81123 L 232.91649,186.36035 L 234.84559,185.6273 L 234.77334,183.72243 L 236.02801,185.21913 L 237.90966,184.49273 L 236.756,186.15079 L 237.99116,187.60673 z "
                 style="color:#000000;fill:#ffc600;fill-opacity:1;fill-rule:evenodd;stroke:#efde7b;stroke-width:0.38938329;stroke-linecap:butt;stroke-linejoin:miter;marker:none;marker-start:none;marker-mid:none;marker-end:none;stroke-miterlimit:4;stroke-dasharray:none;stroke-dashoffset:0;stroke-opacity:1;visibility:visible;display:inline;overflow:visible;enable-background:accumulate" />
              <path
                 id="path23798"
                 d="M 261.22599,187.13878 L 263.19367,186.66682 L 264.31195,188.29303 L 264.37437,186.34328 L 266.30066,185.8924 L 264.37156,185.15935 L 264.44381,183.25448 L 263.18914,184.75118 L 261.30749,184.02478 L 262.46115,185.68284 L 261.22599,187.13878 z "
                 style="color:#000000;fill:#ffc600;fill-opacity:1;fill-rule:evenodd;stroke:#efde7b;stroke-width:0.38938329;stroke-linecap:butt;stroke-linejoin:miter;marker:none;marker-start:none;marker-mid:none;marker-end:none;stroke-miterlimit:4;stroke-dasharray:none;stroke-dashoffset:0;stroke-opacity:1;visibility:visible;display:inline;overflow:visible;enable-background:accumulate" />
            </g>
            <g
               id="g23800"
               transform="matrix(-0.6188328,-0.7855227,-0.7855227,0.6188328,577.96607,280.9266)">
              <path
                 id="path23802"
                 d="M 250.69744,185.49795 L 249.00962,184.38182 L 247.40282,185.52781 L 248.01064,183.67417 L 246.3545,182.592 L 248.41798,182.56252 L 249.00121,180.7477 L 249.66869,182.58311 L 251.6853,182.54367 L 250.03436,183.7075 L 250.69744,185.49795 z "
                 style="color:#000000;fill:#ffc600;fill-opacity:1;fill-rule:evenodd;stroke:#efde7b;stroke-width:0.38938329;stroke-linecap:butt;stroke-linejoin:miter;marker:none;marker-start:none;marker-mid:none;marker-end:none;stroke-miterlimit:4;stroke-dasharray:none;stroke-dashoffset:0;stroke-opacity:1;visibility:visible;display:inline;overflow:visible;enable-background:accumulate" />
              <path
                 id="path23804"
                 d="M 244.30503,185.89971 L 242.42738,185.14545 L 241.08359,186.5909 L 241.30659,184.65294 L 239.4668,183.92558 L 241.48228,183.48212 L 241.68899,181.58712 L 242.71162,183.251 L 244.67919,182.80719 L 243.29574,184.27899 L 244.30503,185.89971 z "
                 style="color:#000000;fill:#ffc600;fill-opacity:1;fill-rule:evenodd;stroke:#efde7b;stroke-width:0.38938329;stroke-linecap:butt;stroke-linejoin:miter;marker:none;marker-start:none;marker-mid:none;marker-end:none;stroke-miterlimit:4;stroke-dasharray:none;stroke-dashoffset:0;stroke-opacity:1;visibility:visible;display:inline;overflow:visible;enable-background:accumulate" />
              <path
                 id="path23806"
                 d="M 254.29921,185.61038 L 256.17686,184.85612 L 257.52065,186.30157 L 257.29765,184.36361 L 259.13744,183.63625 L 257.12196,183.19279 L 256.91525,181.29779 L 255.89262,182.96167 L 253.92505,182.51786 L 255.3085,183.98966 L 254.29921,185.61038 z "
                 style="color:#000000;fill:#ffc600;fill-opacity:1;fill-rule:evenodd;stroke:#efde7b;stroke-width:0.38938329;stroke-linecap:butt;stroke-linejoin:miter;marker:none;marker-start:none;marker-mid:none;marker-end:none;stroke-miterlimit:4;stroke-dasharray:none;stroke-dashoffset:0;stroke-opacity:1;visibility:visible;display:inline;overflow:visible;enable-background:accumulate" />
              <path
                 id="path23808"
                 d="M 237.99116,187.60673 L 236.02348,187.13477 L 234.9052,188.76098 L 234.84278,186.81123 L 232.91649,186.36035 L 234.84559,185.6273 L 234.77334,183.72243 L 236.02801,185.21913 L 237.90966,184.49273 L 236.756,186.15079 L 237.99116,187.60673 z "
                 style="color:#000000;fill:#ffc600;fill-opacity:1;fill-rule:evenodd;stroke:#efde7b;stroke-width:0.38938329;stroke-linecap:butt;stroke-linejoin:miter;marker:none;marker-start:none;marker-mid:none;marker-end:none;stroke-miterlimit:4;stroke-dasharray:none;stroke-dashoffset:0;stroke-opacity:1;visibility:visible;display:inline;overflow:visible;enable-background:accumulate" />
              <path
                 id="path23810"
                 d="M 260.64008,186.86302 L 262.60776,186.39106 L 263.72604,188.01727 L 263.78846,186.06752 L 265.71475,185.61664 L 263.78565,184.88359 L 263.8579,182.97872 L 262.60323,184.47542 L 260.72158,183.74902 L 261.87524,185.40708 L 260.64008,186.86302 z "
                 style="color:#000000;fill:#ffc600;fill-opacity:1;fill-rule:evenodd;stroke:#efde7b;stroke-width:0.38938329;stroke-linecap:butt;stroke-linejoin:miter;marker:none;marker-start:none;marker-mid:none;marker-end:none;stroke-miterlimit:4;stroke-dasharray:none;stroke-dashoffset:0;stroke-opacity:1;visibility:visible;display:inline;overflow:visible;enable-background:accumulate" />
            </g>
          </g>
          <path
             id="path23817"
             d="M 210.37046,215.83755 L 211.50216,217.51497 L 213.42534,217.0717 L 212.15397,218.55125 L 213.26941,220.18516 L 211.35196,219.42215 L 210.11817,220.87525 L 210.20449,218.92415 L 208.32651,218.18828 L 210.2973,217.74544 L 210.37046,215.83755 z "
             style="color:#000000;fill:#ffc600;fill-opacity:1;fill-rule:evenodd;stroke:#efde7b;stroke-width:0.38938329;stroke-linecap:butt;stroke-linejoin:miter;marker:none;marker-start:none;marker-mid:none;marker-end:none;stroke-miterlimit:4;stroke-dasharray:none;stroke-dashoffset:0;stroke-opacity:1;visibility:visible;display:inline;overflow:visible;enable-background:accumulate" />
          <path
             id="path23819"
             d="M 288.36651,216.00127 L 287.19003,217.6476 L 285.27949,217.15268 L 286.51055,218.66594 L 285.3515,220.26921 L 287.2888,219.55813 L 288.483,221.04394 L 288.44927,219.09122 L 290.34639,218.40621 L 288.38825,217.91044 L 288.36651,216.00127 z "
             style="color:#000000;fill:#ffc600;fill-opacity:1;fill-rule:evenodd;stroke:#efde7b;stroke-width:0.38938329;stroke-linecap:butt;stroke-linejoin:miter;marker:none;marker-start:none;marker-mid:none;marker-end:none;stroke-miterlimit:4;stroke-dasharray:none;stroke-dashoffset:0;stroke-opacity:1;visibility:visible;display:inline;overflow:visible;enable-background:accumulate" />
        </g>
        <g
           id="g8118">
          <g
             id="g8088">
            <g
               id="g21800"
               transform="translate(-288,-38.875)">
              <g
                 id="g21786">
                <g
                   id="g19709"
                   transform="translate(288,39)">
                  <path
                     sodipodi:nodetypes="ccccccc"
                     id="path13889"
                     d="M 226.27417,255.09929 L 219.89504,255.05824 L 210.97984,245.2453 L 217.31412,245.14932 L 218.68794,239.02463 L 226.41368,248.89381 L 226.27417,255.09929 z "
                     style="fill:#008c42;fill-opacity:1;fill-rule:evenodd;stroke:none;stroke-width:0.60000002;stroke-linecap:butt;stroke-linejoin:miter;stroke-miterlimit:4;stroke-dasharray:none;stroke-opacity:1" />
                  <path
                     id="path15829"
                     d="M 217.25856,245.11141 L 226.09739,255.0109"
                     style="fill:none;fill-rule:evenodd;stroke:#009a3d;stroke-width:0.5;stroke-linecap:butt;stroke-linejoin:miter;stroke-miterlimit:4;stroke-dasharray:none;stroke-opacity:1" />
                  <path
                     sodipodi:nodetypes="ccccccc"
                     id="path17769"
                     d="M 226.17116,254.99326 L 219.79203,254.95221 L 210.87683,245.13927 L 217.21111,245.04329 L 218.58493,238.9186 L 226.31067,248.78778 L 226.17116,254.99326 z "
                     style="fill:none;fill-opacity:1;fill-rule:evenodd;stroke:#efde7b;stroke-width:0.60000002;stroke-linecap:butt;stroke-linejoin:miter;stroke-miterlimit:4;stroke-dasharray:none;stroke-opacity:1" />
                </g>
                <g
                   id="g19714"
                   transform="matrix(0.8021304,0.452274,-0.3466879,0.9973998,409.17409,-74.15926)">
                  <path
                     sodipodi:nodetypes="ccccccc"
                     id="path19716"
                     d="M 226.27417,255.09929 L 219.89504,255.05824 L 210.97984,245.2453 L 217.31412,245.14932 L 218.68794,239.02463 L 226.41368,248.89381 L 226.27417,255.09929 z "
                     style="fill:#008c42;fill-opacity:1;fill-rule:evenodd;stroke:none;stroke-width:0.60000002;stroke-linecap:butt;stroke-linejoin:miter;stroke-miterlimit:4;stroke-dasharray:none;stroke-opacity:1" />
                  <path
                     id="path19718"
                     d="M 217.25856,245.11141 L 226.09739,255.0109"
                     style="fill:none;fill-rule:evenodd;stroke:#009a3d;stroke-width:0.5;stroke-linecap:butt;stroke-linejoin:miter;stroke-miterlimit:4;stroke-dasharray:none;stroke-opacity:1" />
                  <path
                     sodipodi:nodetypes="ccccccc"
                     id="path19720"
                     d="M 226.17116,254.99326 L 219.79203,254.95221 L 210.87683,245.13927 L 217.21111,245.04329 L 218.58493,238.9186 L 226.31067,248.78778 L 226.17116,254.99326 z "
                     style="fill:none;fill-opacity:1;fill-rule:evenodd;stroke:#efde7b;stroke-width:0.60000002;stroke-linecap:butt;stroke-linejoin:miter;stroke-miterlimit:4;stroke-dasharray:none;stroke-opacity:1" />
                </g>
                <g
                   id="g21781">
                  <path
                     sodipodi:nodetypes="ccccccc"
                     id="path19724"
                     d="M 530.02367,299.82962 L 524.29159,302.62932 L 511.9429,297.80393 L 517.57387,294.90144 L 516.08108,288.80466 L 527.38938,294.20931 L 530.02367,299.82962 z "
                     style="fill:#008c42;fill-opacity:1;fill-rule:evenodd;stroke:none;stroke-width:0.60000002;stroke-linecap:butt;stroke-linejoin:miter;stroke-miterlimit:4;stroke-dasharray:none;stroke-opacity:1" />
                  <path
                     id="path19726"
                     d="M 517.50725,294.89219 L 529.82602,299.82906"
                     style="fill:none;fill-rule:evenodd;stroke:#009a3d;stroke-width:0.5;stroke-linecap:butt;stroke-linejoin:miter;stroke-miterlimit:4;stroke-dasharray:none;stroke-opacity:1" />
                  <path
                     sodipodi:nodetypes="ccccccc"
                     id="path19728"
                     d="M 529.88425,299.78046 L 524.15218,302.58015 L 511.80348,297.75476 L 517.43446,294.85227 L 515.94167,288.75549 L 527.24996,294.16014 L 529.88425,299.78046 z "
                     style="fill:none;fill-opacity:1;fill-rule:evenodd;stroke:#efde7b;stroke-width:0.60000008;stroke-linecap:butt;stroke-linejoin:miter;stroke-miterlimit:4;stroke-dasharray:none;stroke-opacity:1" />
                </g>
              </g>
              <g
                 transform="matrix(-1,0,0,1,785.4415,39.346594)"
                 id="g19744">
                <g
                   id="g19746">
                  <path
                     sodipodi:nodetypes="ccccccc"
                     id="path19748"
                     d="M 226.27417,255.09929 L 219.89504,255.05824 L 210.97984,245.2453 L 217.31412,245.14932 L 218.68794,239.02463 L 226.41368,248.89381 L 226.27417,255.09929 z "
                     style="fill:#008c42;fill-opacity:1;fill-rule:evenodd;stroke:none;stroke-width:0.60000002;stroke-linecap:butt;stroke-linejoin:miter;stroke-miterlimit:4;stroke-dasharray:none;stroke-opacity:1" />
                  <path
                     id="path19750"
                     d="M 217.25856,245.11141 L 226.09739,255.0109"
                     style="fill:none;fill-rule:evenodd;stroke:#009a3d;stroke-width:0.5;stroke-linecap:butt;stroke-linejoin:miter;stroke-miterlimit:4;stroke-dasharray:none;stroke-opacity:1" />
                  <path
                     sodipodi:nodetypes="ccccccc"
                     id="path19752"
                     d="M 226.17116,254.99326 L 219.79203,254.95221 L 210.87683,245.13927 L 217.21111,245.04329 L 218.58493,238.9186 L 226.31067,248.78778 L 226.17116,254.99326 z "
                     style="fill:none;fill-opacity:1;fill-rule:evenodd;stroke:#efde7b;stroke-width:0.60000002;stroke-linecap:butt;stroke-linejoin:miter;stroke-miterlimit:4;stroke-dasharray:none;stroke-opacity:1" />
                </g>
                <g
                   id="g19754"
                   transform="matrix(0.8021304,0.452274,-0.3466879,0.9973998,121.17409,-113.15926)">
                  <path
                     sodipodi:nodetypes="ccccccc"
                     id="path19756"
                     d="M 226.27417,255.09929 L 219.89504,255.05824 L 210.97984,245.2453 L 217.31412,245.14932 L 218.68794,239.02463 L 226.41368,248.89381 L 226.27417,255.09929 z "
                     style="fill:#008c42;fill-opacity:1;fill-rule:evenodd;stroke:none;stroke-width:0.60000002;stroke-linecap:butt;stroke-linejoin:miter;stroke-miterlimit:4;stroke-dasharray:none;stroke-opacity:1" />
                  <path
                     id="path19758"
                     d="M 217.25856,245.11141 L 226.09739,255.0109"
                     style="fill:none;fill-rule:evenodd;stroke:#009a3d;stroke-width:0.5;stroke-linecap:butt;stroke-linejoin:miter;stroke-miterlimit:4;stroke-dasharray:none;stroke-opacity:1" />
                  <path
                     sodipodi:nodetypes="ccccccc"
                     id="path19760"
                     d="M 226.17116,254.99326 L 219.79203,254.95221 L 210.87683,245.13927 L 217.21111,245.04329 L 218.58493,238.9186 L 226.31067,248.78778 L 226.17116,254.99326 z "
                     style="fill:none;fill-opacity:1;fill-rule:evenodd;stroke:#efde7b;stroke-width:0.60000002;stroke-linecap:butt;stroke-linejoin:miter;stroke-miterlimit:4;stroke-dasharray:none;stroke-opacity:1" />
                </g>
                <g
                   id="g19762"
                   transform="matrix(0.8957058,-0.4446473,0.4446473,0.8957058,-74.080626,132.94791)">
                  <path
                     sodipodi:nodetypes="ccccccc"
                     id="path19764"
                     d="M 226.27417,255.09929 L 219.89504,255.05824 L 210.97984,245.2453 L 217.31412,245.14932 L 218.68794,239.02463 L 226.41368,248.89381 L 226.27417,255.09929 z "
                     style="fill:#008c42;fill-opacity:1;fill-rule:evenodd;stroke:none;stroke-width:0.60000002;stroke-linecap:butt;stroke-linejoin:miter;stroke-miterlimit:4;stroke-dasharray:none;stroke-opacity:1" />
                  <path
                     id="path19766"
                     d="M 217.25856,245.11141 L 226.09739,255.0109"
                     style="fill:none;fill-rule:evenodd;stroke:#009a3d;stroke-width:0.5;stroke-linecap:butt;stroke-linejoin:miter;stroke-miterlimit:4;stroke-dasharray:none;stroke-opacity:1" />
                  <path
                     sodipodi:nodetypes="ccccccc"
                     id="path19768"
                     d="M 226.17116,254.99326 L 219.79203,254.95221 L 210.87683,245.13927 L 217.21111,245.04329 L 218.58493,238.9186 L 226.31067,248.78778 L 226.17116,254.99326 z "
                     style="fill:none;fill-opacity:1;fill-rule:evenodd;stroke:#efde7b;stroke-width:0.60000002;stroke-linecap:butt;stroke-linejoin:miter;stroke-miterlimit:4;stroke-dasharray:none;stroke-opacity:1" />
                </g>
              </g>
            </g>
            <path
               style="color:#000000;fill:#de2118;fill-opacity:1;fill-rule:evenodd;stroke:none;stroke-width:0.5;stroke-linecap:round;stroke-linejoin:round;marker:none;marker-start:none;marker-mid:none;marker-end:none;stroke-miterlimit:4;stroke-dashoffset:0;stroke-opacity:1;visibility:visible;display:inline;overflow:visible;enable-background:accumulate"
               d="M 256.349,263.60207 L 252.52207,264.84917 L 254.32025,268.78743 L 250.73236,266.96321 L 249.2191,271.01948 L 247.97199,267.19255 L 244.03374,268.99073 L 245.85796,265.40284 L 241.80169,263.88958 L 245.62862,262.64247 L 243.83044,258.70422 L 247.41833,260.52844 L 248.93159,256.47216 L 250.17869,260.2991 L 254.11695,258.50092 L 252.29273,262.08881 L 256.349,263.60207 z "
               id="path23871" />
          </g>
          <path
             sodipodi:nodetypes="ccccz"
             id="rect26781"
             d="M 248.96477,186.25548 C 264.95438,186.14805 282.40684,199.54495 283.52413,222.75565 L 249.06624,200.03385 L 214.06783,222.54568 C 215.02079,198.73336 232.84623,186.3629 248.96477,186.25548 z "
             style="color:#000000;fill:#73c6ef;fill-opacity:1;fill-rule:evenodd;stroke:#efde7b;stroke-width:0.51567227;stroke-linecap:round;stroke-linejoin:round;marker:none;marker-start:none;marker-mid:none;marker-end:none;stroke-miterlimit:4;stroke-dashoffset:0;stroke-opacity:1;visibility:visible;display:inline;overflow:visible;enable-background:accumulate" />
          <path
             sodipodi:nodetypes="ccccccccccccccccccccccccccccccccccccccccc"
             id="path2215"
             d="M 221.62803,212.08375 C 226.58311,205.1943 233.60069,202.61736 247.36827,203.04041 L 247.34996,201.34051 C 235.98443,201.29611 234.14923,202.03205 229.1587,194.80015 C 236.28811,198.87292 237.1372,199.35287 247.39161,198.98814 L 247.37282,197.62565 C 239.31141,197.79444 233.50001,194.58824 233.4386,193.13203 C 233.50306,191.56754 240.75501,187.81556 248.50697,187.75107 C 258.0411,187.60827 264.76273,191.34047 264.79686,192.82267 C 264.74945,194.08101 258.70203,197.77686 250.52962,197.6602 L 250.53135,198.87825 C 263.67445,199.38861 265.44254,196.39897 269.08564,194.90933 C 267.60226,197.9373 266.43138,201.27776 250.41675,201.24323 L 250.41989,203.00786 C 262.02468,202.9921 272.50448,204.91385 276.17177,212.02309 C 267.28245,206.7947 261.20562,205.12882 250.3163,205.08793 L 250.35601,206.972 C 260.53035,206.79917 269.51719,209.87635 271.81653,213.39102 C 265.82905,210.82474 257.27907,209.69595 250.35409,209.81717 L 250.26294,211.71008 C 254.27074,211.58298 259.33477,211.87637 262.59885,216.82877 C 260.05014,215.76502 254.62642,213.38878 250.26521,213.70003 L 250.24311,215.63954 C 255.05222,215.15001 259.73634,217.47299 261.29545,219.42096 C 257.58588,218.20114 252.87632,217.60633 250.35425,218.19901 L 250.32836,249.54341 L 251.95596,251.71965 L 249.04987,255.82971 L 245.85402,251.71337 L 247.40082,249.64696 L 247.26379,218.2249 C 245.07203,217.73469 240.75526,217.68197 236.8135,219.56676 C 237.34701,217.50873 242.88052,215.45071 247.35153,215.64268 L 247.36323,213.72749 C 240.83741,213.37163 236.81158,216.26576 234.78576,217.1599 C 235.68591,213.58248 241.71105,211.00506 247.3612,211.86514 L 247.40325,209.80596 C 238.70098,209.70341 232.12371,210.53837 224.79644,213.81082 C 229.10726,208.78467 238.91808,207.07102 247.3539,206.98237 L 247.37514,205.19575 C 235.79277,205.11675 228.4604,207.16275 221.62803,212.08375 z "
             style="fill:#008c42;fill-opacity:1;fill-rule:evenodd;stroke:#efde7b;stroke-width:0.5;stroke-linecap:round;stroke-linejoin:round;stroke-miterlimit:4;stroke-dasharray:none;stroke-opacity:1" />
        </g>
      </g>
    </g>
  </g>
</svg>
