<?xml version="1.0" encoding="UTF-8"?>
<svg version="1.0" xmlns="http://www.w3.org/2000/svg" width="320" height="216">
	<rect width="320" height="216" fill="#fff"/>
	<path d="M 0,0 V 216 H 320 L 281.98662,174.59382 L 174.44833,125.65168 L 94.579573,125.74879 L 132.2725,101.18281 L 62.471236,30.261482 z" fill="#fd9730"/>
	<path d="M 142.62553,96.269178 L 187.11604,89.710609 L 179.66636,118.78866 L 296.34045,152.36929 L 320,216 V 0 H 63.922505 z" fill="#1983dd"/>
	<g fill="#fff">
		<path d="M 215.72365,24.746156 L 223.11283,20.450664 L 221.37839,11.974158 L 227.67788,17.796894 L 235.06706,13.501401 L 231.5722,21.394119 L 237.87167,27.216849 L 229.4123,26.273395 L 225.91747,34.166101 L 224.18302,25.689617 z"/>
		<path d="M 202.38378,73.82633 L 209.77296,69.530838 L 208.03852,61.054331 L 214.33802,66.877067 L 221.7272,62.581574 L 218.23233,70.474293 L 224.5318,76.297022 L 216.07243,75.353568 L 212.57761,83.246275 L 210.84316,74.76979 z"/>
		<path d="M 270.00056,134.1013 L 277.38974,129.80581 L 275.6553,121.3293 L 281.95479,127.15204 L 289.34397,122.85655 L 285.84911,130.74926 L 292.14858,136.57199 L 283.68921,135.62854 L 280.19438,143.52125 L 278.45993,135.04476 z"/>
		<path d="M 268.03257,31.422021 L 275.42175,27.126529 L 273.68731,18.650023 L 279.9868,24.472759 L 287.37598,20.177267 L 283.88112,28.069984 L 290.18059,33.892714 L 281.72122,32.94926 L 278.22639,40.841966 L 276.49194,32.365482 z"/>
		<path d="M 269.32746,65.378053 L 273.20911,63.121566 L 272.29798,58.66873 L 275.6072,61.727502 L 279.48885,59.471014 L 277.65294,63.617177 L 280.96215,66.675947 L 276.51832,66.180335 L 274.68243,70.326494 L 273.7713,65.873669 z"/>
	</g>
</svg>
