<?xml version="1.0" encoding="UTF-8" standalone="no"?>
<!-- Creator: CorelDRAW 2019 (64-Bit) -->

<svg
   xml:space="preserve"
   width="23.8125cm"
   height="15.875cm"
   version="1.1"
   style="clip-rule:evenodd;fill-rule:evenodd;image-rendering:optimizeQuality;shape-rendering:geometricPrecision;text-rendering:geometricPrecision"
   viewBox="0 0 23810.535 15873.689"
   id="svg870"
   sodipodi:docname="Bandera_de_la_Provincia_de_Córdoba_2014.svg"
   inkscape:version="1.1.2 (b8e25be833, 2022-02-05)"
   xmlns:inkscape="http://www.inkscape.org/namespaces/inkscape"
   xmlns:sodipodi="http://sodipodi.sourceforge.net/DTD/sodipodi-0.dtd"
   xmlns="http://www.w3.org/2000/svg"
   xmlns:svg="http://www.w3.org/2000/svg"><sodipodi:namedview
   id="namedview872"
   pagecolor="#ffffff"
   bordercolor="#666666"
   borderopacity="1.0"
   inkscape:pageshadow="2"
   inkscape:pageopacity="0.0"
   inkscape:pagecheckerboard="0"
   inkscape:document-units="cm"
   showgrid="false"
   inkscape:zoom="0.32"
   inkscape:cx="120.3125"
   inkscape:cy="181.25"
   inkscape:window-width="1366"
   inkscape:window-height="705"
   inkscape:window-x="-8"
   inkscape:window-y="-8"
   inkscape:window-maximized="1"
   inkscape:current-layer="Capa_x0020_1" />
 <defs
   id="defs851">
  <style
   type="text/css"
   id="style849">
   <![CDATA[
    .fil0 {fill:#FEFEFE}
    .fil2 {fill:#7AABDE;fill-rule:nonzero}
    .fil1 {fill:#991426;fill-rule:nonzero}
    .fil3 {fill:#8F734A;fill-rule:nonzero}
   ]]>
  </style>
 
   
   
   
   
  </defs>
 <g
   id="Capa_x0020_1"
   inkscape:label="Capa 1"
   inkscape:groupmode="layer">
  <metadata
   id="CorelCorpID_0Corel-Layer" />
  <polygon
   class="fil0"
   points="149987.62,0 149987.62,89992.56 0,89992.56 0,0 "
   id="polygon854"
   transform="scale(0.15874999,0.17638891)"
   style="fill:#ffffff;fill-opacity:1" /><polygon
   class="fil1"
   points="0.01,89992.57 0.01,0.31 49877.71,0.31 49877.71,89992.57 "
   id="polygon856"
   transform="matrix(0.1591261,0,0,0.1763895,-3.7610844e-6,-0.05468075)"
   style="fill:#e41b23;fill-opacity:1" /><polygon
   class="fil2"
   points="100048.8,89992.57 100048.8,0 149987.61,0 149987.61,89992.57 "
   id="polygon858"
   transform="matrix(0.15893138,0,0,0.17638889,-27.204326,0)"
   style="fill:#6caee0;fill-opacity:1" /><path
   style="fill:#cfa55b;fill-opacity:1;fill-rule:nonzero;stroke:none;stroke-width:0.75732;stroke-linecap:butt;stroke-linejoin:miter;stroke-miterlimit:4;stroke-dasharray:none;stroke-opacity:1"
   d="m 11892.905,4431.405 c -59.111,570.7479 -86.403,1166.4767 -159.163,1724.4855 -42.666,-656.3106 -326.878,-585.4467 -270.808,-785.861 155.464,-514.1271 -310.504,-302.0498 -215.179,-860.5025 -244.949,580.4847 180.439,468.7634 40.564,729.7834 -307.278,483.744 251.845,461.5956 104.305,982.7131 l -816.288,-1538.4623 491.009,1662.9934 c -305.985,-587.7453 -538.259,-406.1413 -568.272,-612.6003 -66.179,-533.0663 -405.986,-150.0655 -545.0926,-699.2307 11.267,630.0535 354.7286,355.5074 332.6186,650.8878 -85.032,567.8335 418.7,318.9782 493.713,858.5687 -7.916,6.3889 -15.762,12.8167 -23.566,19.3371 L 9410.8184,5466.7151 10532.296,6787.0544 c -1.82,2.1675 -3.598,4.3985 -5.408,6.5747 -501.591,-427.1779 -648.4106,-173.23 -753.3176,-353.0961 -260.834,-469.4306 -432.363,13.0268 -766.839,-443.9805 246.213,579.9486 461.629,196.6242 551.66,478.7874 132.911,555.3118 503.4826,143.4074 774.5656,603.3185 -5.903,10.7678 -11.698,21.5855 -17.384,32.4864 l -1651.1186,-510.1136 1530.2006,801.7175 c -0.596,1.9038 -0.955,3.8946 -1.545,5.8011 -621.2776,-203.4645 -662.1876,86.0764 -826.7176,-40.6079 -418.406,-336.3035 -395.782,175.1723 -877.712,-121.824 446.494,444.182 501.835,7.7965 691.507,235.1395 331.954,463.6876 519.941,-56.3503 943.3856,265.3055 -1.338,12.5984 -2.402,25.2259 -3.477,37.9008 l -1720.2686,150.8296 1721.0416,164.3656 c 0.301,3.3605 0.838,6.7001 1.158,10.0553 -656.6626,38.7574 -587.3656,324.1595 -787.3136,266.8524 -512.659,-158.5891 -303.434,308.6423 -860.714,210.0013 578.427,248.5534 469.056,-177.4951 728.98,-35.9671 482.395,311.011 462.999,-251.6791 985.8806,-97.8459 2.866,9.55 5.864,19.1367 8.885,28.619 l -1553.7656,778.899 1634.8926,-473.3724 c -538.0286,291.3675 -371.9826,513.9105 -573.2946,541.8265 -532.922,62.5879 -152.433,405.568 -701.937,541.0517 629.423,-6.9503 357.206,-352.507 652.103,-328.3433 562.3256,88.3518 325.387,-409.5789 849.1236,-486.909 8.123,10.1582 16.387,20.1905 24.724,30.166 L 9431.2934,10416.633 10751.724,9307.4555 c 2.368,1.9937 4.576,4.2078 6.954,6.1879 -427.351,501.2599 -174.04,648.6726 -353.866,753.3746 -469.3626,260.314 12.428,433.242 -444.6506,767.297 579.7326,-245.485 197.0256,-461.85 479.0326,-551.494 555.063,-132.133 144.189,-504.4089 604.586,-775.0316 l -480.578,1669.9536 c 135.966,-155.223 700.49,-1561.8599 819.764,-1527.2462 -200.275,621.1472 88.051,660.7112 -37.859,825.6962 -334.58,419.949 176.511,395.648 -118.599,879.065 442.248,-448.419 6.085,-502.042 232.563,-692.656 461.723,-333.543 -57.149,-520.59 261.15,-944.8126 l 194.704,1724.4856 c 65.098,-568.308 85.714,-1175.396 170.365,-1724.4856 47.122,646.7966 328.169,576.4526 273.126,776.1926 -153.458,514.731 311.416,300.909 218.27,859.729 242.683,-581.437 -182.124,-468.218 -43.268,-729.784 303.819,-482.447 -247.698,-461.144 -110.1,-974.591 l 824.4,1527.247 -468.216,-1563.5996 c 272.945,483.4796 484.505,335.4321 509.552,530.9966 57.116,534.117 403.354,157.061 533.117,708.513 -0.566,-630.154 -348.539,-361.728 -321.415,-656.689 94.51,-565.398 -411.497,-326.9449 -478.647,-864.3705 l 1350.564,1097.9625 c -360.232,-450.3158 -752.539,-895.9888 -1097.913,-1347.0241 498.255,433.989 647.858,180.8848 751,361.9905 255.98,472.1014 432.845,-8.7237 762.59,451.7148 -240.218,-582.461 -459.908,-201.1229 -547.025,-484.2012 -127.633,-558.6514 -504.587,-145.8335 -771.088,-616.4671 l 1666.185,500.0582 c -504.112,-279.1851 -1037.578,-541.7087 -1527.498,-827.2425 632.281,207.8465 671.193,-85.3816 837.149,41.3815 419.703,334.6815 395.023,-177.1721 878.099,117.9565 -448.208,-442.4498 -501.733,-5.8259 -692.28,-232.4323 -335.943,-465.4446 -522.377,65.3403 -953.044,-268.0127 l 1731.859,-188.7304 -1728.769,-158.1777 c -0.04,-0.3837 0.04,-0.7772 0,-1.1596 659.567,-41.4453 588.329,-327.0886 788.86,-270.7199 513.459,155.9748 301.779,-310.4397 859.555,-214.6421 -144.922,-61.4001 -246.638,-80.9077 -321.802,-77.7353 -225.493,9.5172 -211.698,222.7205 -407.178,117.5698 -483.678,-308.3604 -461.282,253.0919 -983.95,102.8735 l 1539.473,-815.2534 c -555.209,150.1374 -1129.24,357.9887 -1674.297,481.8813 597.657,-303.2155 415.879,-538.8693 623.129,-567.3515 532.997,-61.9357 153.428,-405.0801 703.097,-539.8927 -629.431,6.1806 -358.009,352.0952 -652.876,327.571 -568.001,-89.9546 -320.931,419.0756 -866.122,487.6825 l 1091.731,-1362.4943 -1333.179,1116.9127 c -0.417,-0.349 -0.742,-0.8118 -1.159,-1.1596 436.334,-512.9967 176.637,-659.7729 356.957,-766.5239 467.46,-263.7195 -15.4,-433.0184 439.242,-770.3913 -577.936,249.6954 -193.821,463.2824 -475.169,554.9757 -558.262,137.1925 -133.62,510.9098 -608.836,785.4743 l 478.26,-1679.6233 c -121.623,151.5704 -713.222,1570.0366 -807.402,1539.6224 201.862,-628.5726 -89.335,-666.9096 36.314,-833.0436 332.754,-421.402 -178.274,-394.7548 114.736,-879.4528 -440.299,450.3391 -3.824,502.2188 -229.472,693.8164 -461.599,336.5158 62.228,520.8433 -259.992,949.0664 z m 8.499,1786.751 c 948.172,-2e-4 1717.565,770.24 1717.565,1719.4577 0,949.218 -769.392,1719.4571 -1717.565,1719.4571 -948.173,0 -1717.952,-770.2393 -1717.952,-1719.4571 0,-949.2173 769.779,-1719.4577 1717.952,-1719.4577 z"
   id="path7664"
   sodipodi:nodetypes="ccccccccccccccccccccccccccccccccccccccccccccccccccccccccccccccccccccccccccccccccccccccsccccccccccccccccccccccsssss" />
 </g>
</svg>
