<?xml version="1.0" encoding="UTF-8" standalone="no"?>
<!-- Created with Inkscape (http://www.inkscape.org/) -->
<svg
   xmlns:svg="http://www.w3.org/2000/svg"
   xmlns="http://www.w3.org/2000/svg"
   version="1.0"
   width="764.86255"
   height="503.57413"
   id="svg2">
  <defs
     id="defs4" />
  <g
     transform="translate(9.5741434,-289.14658)"
     id="layer1">
    <rect
       width="766.03015"
       height="504.5116"
       x="-9.5741434"
       y="288.07968"
       id="rect2221"
       style="opacity:1;fill:#73c5ee;fill-opacity:1;fill-rule:evenodd;stroke:none;stroke-width:1;stroke-linecap:round;stroke-linejoin:round;stroke-miterlimit:4;stroke-dasharray:none;stroke-opacity:1" />
    <path
       d="M 261.69618,336.4175 C 285.26641,144.80067 503.39107,173.79019 509.99073,335.59062 C 527.78625,343.6045 540.79676,357.76757 571.34228,360.03145 C 577.13475,344.48162 590.42723,349.43179 593.9697,350.13196 C 603.62655,351.02494 608.53341,346.66791 611.44026,341.31089 C 605.54013,343.24195 600.19831,344.82313 594.6768,340.23246 C 587.98441,332.93957 578.29203,331.64667 567.09964,342.35378 C 560.0564,343.42375 558.73985,353.44707 543.76511,337.40403 L 614.39001,308.57687 L 552.2504,308.41266 C 557.31453,301.57729 561.87865,294.24193 561.44278,287.90656 C 562.05045,279.20991 570.8019,276.0737 575.29203,277.09285 C 587.37739,279.72643 593.71276,270.69336 596.29812,261.99361 C 590.57629,262.29996 587.14287,267.64471 578.41335,266.69336 C 554.6763,262.3167 544.91202,294.20565 535.27983,291.44209 L 530.33009,281.5426 L 593.9697,227.09538 L 529.62298,251.84411 C 534.33702,239.35189 526.05107,219.35967 544.26511,215.11745 C 549.27205,214.80332 552.27899,212.2392 555.78593,205.17507 C 557.28593,200.68243 557.78593,195.68978 554.78593,191.94714 C 553.01469,197.27557 555.32679,200.02066 544.47222,200.93242 C 540.02146,202.2843 524.8171,206.66879 521.1377,220.73141 C 516.87382,229.33107 510.10995,240.93074 497.09607,240.5304 L 543.76511,159.21312 L 487.90368,203.05375 C 483.76806,194.09706 481.63244,183.22371 482.24682,176.18369 C 481.32525,170.91245 483.82035,169.72455 490.73211,164.86998 C 497.85589,157.80381 499.39632,144.32099 492.85343,135.17149 C 490.34649,142.50686 488.58955,150.34222 480.83261,155.67759 C 471.82567,159.97006 463.06874,162.01254 468.8118,178.30501 C 468.59775,189.2045 470.13371,201.854 454.66966,208.00349 L 467.39758,113.25118 L 432.04224,171.94105 C 431.18522,165.31279 428.8282,158.68453 424.97118,153.55627 C 419.41399,147.9709 420.60679,137.88554 427.7996,133.05017 C 427.66398,124.772 427.27837,117.49382 420.64275,110.96565 C 420.06432,118.97953 419.7359,125.4934 413.65747,133.75728 C 408.46466,139.94967 398.27185,144.64206 409.82904,161.08445 C 409.77921,172.01254 411.47938,183.69063 400.92955,189.61872 L 390.23716,108.21933 L 372.64527,188.91161 C 366.55255,183.16203 358.45982,174.66245 364.8671,164.16287 C 374.8814,155.76338 375.39569,147.86388 364.15999,134.46439 C 359.02437,127.62902 357.63876,119.04366 357.75314,111.95829 C 330.01949,125.52149 369.29879,161.90945 342.23968,179.71922 L 308.29856,117.49382 L 319.61227,203.76085 C 317.01954,199.04681 310.42682,197.58276 311.83409,189.61872 C 314.29856,175.93369 311.01302,160.49866 301.22749,149.31363 C 293.08759,143.33802 292.78749,137.14636 291.37089,131.09307 C 284.67808,137.62124 282.73527,140.64942 287.79246,155.67759 C 304.49088,171.77482 293.99613,186.86942 293.94931,203.18242 L 242.53763,156.3847 L 280.72139,234.87355 C 274.2875,233.07653 270.31192,243.07943 260.9224,227.09538 C 259.52984,218.46018 259.63729,194.07498 243.74473,198.68978 C 238.11647,198.91855 228.48822,192.89731 224.85996,185.37608 C 224.6169,198.11136 224.88734,207.32637 236.88077,210.83192 C 239.9449,215.07456 249.00903,207.0672 246.07316,223.55984 C 242.91588,230.86661 246.75861,237.42338 251.35133,245.48015 L 187.3833,220.73141 L 249.60869,278.00706 C 244.55192,281.75706 237.74515,285.25706 227.68838,278.00706 C 221.9531,258.68599 217.46782,254.11493 202.23254,256.79386 C 195.70437,256.21543 189.17619,254.63701 181.89802,247.80858 C 180.81917,258.60105 184.49032,264.89353 195.16147,270.936 C 203.01867,270.22907 208.88939,271.28566 214.25335,280.83549 C 216.78889,288.17086 218.07442,292.00622 224.85996,301.34159 L 155.56349,297.09895 L 231.22392,334.57561 C 226.46004,339.51842 224.44617,344.96122 207.18229,337.40403 C 201.19701,323.5756 192.71172,318.49718 181.72644,328.91875 C 175.87678,331.90445 169.77711,334.89016 160.67745,329.12586 C 161.83431,336.1471 173.74116,343.91833 178.89802,340.93957 C 188.70479,337.58948 194.76156,342.2394 199.81833,347.88931 C 216.90674,360.17874 236.4301,363.34127 261.69618,336.4175 z"
       transform="translate(-9.5741434,289.14658)"
       id="path11965"
       style="fill:#f5f100;fill-opacity:1;fill-rule:evenodd;stroke:#f5f100;stroke-width:0.5;stroke-linecap:round;stroke-linejoin:round;stroke-miterlimit:4;stroke-dasharray:none;stroke-opacity:1" />
    <g
       id="g3218">
      <path
         d="M 385.87565,203.55865 L 390.32294,116.65558 L 400.34744,205.35032 C 394.92629,203.52651 391.2968,203.27878 385.87565,203.55865 z"
         transform="translate(-9.5741434,289.14658)"
         id="path14875"
         style="opacity:1;fill:#f5b300;fill-opacity:0.6255708;fill-rule:evenodd;stroke:none;stroke-width:1;stroke-linecap:round;stroke-linejoin:round;stroke-miterlimit:4;stroke-dasharray:none;stroke-opacity:1" />
      <path
         d="M 421.54727,500.25719 L 455.00186,412.66356 L 437.91278,507.23628 C 433.30291,503.85037 426.79683,501.63903 421.54727,500.25719 z"
         id="path15846"
         style="opacity:1;fill:#f5b300;fill-opacity:0.6255708;fill-rule:evenodd;stroke:none;stroke-width:1;stroke-linecap:round;stroke-linejoin:round;stroke-miterlimit:4;stroke-dasharray:none;stroke-opacity:1" />
      <path
         d="M 458.84517,531.00852 L 526.06638,458.66075 L 477.66852,538.07659 C 474.7353,533.16624 463.14612,534.32049 458.84517,531.00852 z"
         id="path15848"
         style="opacity:1;fill:#f5b300;fill-opacity:0.6255708;fill-rule:evenodd;stroke:none;stroke-width:1;stroke-linecap:round;stroke-linejoin:round;stroke-miterlimit:4;stroke-dasharray:none;stroke-opacity:1" />
      <path
         d="M 490.87779,566.12626 L 576.57928,521.78304 L 496.38104,584.94579 C 494.96179,579.40494 494.06211,570.52254 490.87779,566.12626 z"
         id="path15850"
         style="opacity:1;fill:#f5b300;fill-opacity:0.6255708;fill-rule:evenodd;stroke:none;stroke-width:1;stroke-linecap:round;stroke-linejoin:round;stroke-miterlimit:4;stroke-dasharray:none;stroke-opacity:1" />
      <path
         d="M 498.3164,614.63581 L 597.49425,599.46631 L 502.13892,632.41142 C 503.06571,626.76728 499.46582,619.94109 498.3164,614.63581 z"
         id="path15852"
         style="opacity:1;fill:#f5b300;fill-opacity:0.6255708;fill-rule:evenodd;stroke:none;stroke-width:1;stroke-linecap:round;stroke-linejoin:round;stroke-miterlimit:4;stroke-dasharray:none;stroke-opacity:1" />
      <path
         d="M 325.53539,503.2356 L 302.38189,415.55075 L 342.99595,499.06631 C 337.28008,498.85647 330.65407,501.42831 325.53539,503.2356 z"
         id="path15854"
         style="opacity:1;fill:#f5b300;fill-opacity:0.6255708;fill-rule:evenodd;stroke:none;stroke-width:1;stroke-linecap:round;stroke-linejoin:round;stroke-miterlimit:4;stroke-dasharray:none;stroke-opacity:1" />
      <path
         d="M 290.52307,520.9446 L 236.03239,449.84626 L 304.12538,513.80077 C 298.90931,516.14765 294.3093,517.05466 290.52307,520.9446 z"
         id="path15856"
         style="opacity:1;fill:#f5b300;fill-opacity:0.6255708;fill-rule:evenodd;stroke:none;stroke-width:1;stroke-linecap:round;stroke-linejoin:round;stroke-miterlimit:4;stroke-dasharray:none;stroke-opacity:1" />
      <path
         d="M 265.65994,566.07432 L 192.5153,518.6208 L 271.5501,549.60529 C 267.0249,553.10355 268.43496,561.40886 265.65994,566.07432 z"
         id="path15858"
         style="opacity:1;fill:#f5b300;fill-opacity:0.6255708;fill-rule:evenodd;stroke:none;stroke-width:1;stroke-linecap:round;stroke-linejoin:round;stroke-miterlimit:4;stroke-dasharray:none;stroke-opacity:1" />
      <path
         d="M 259.55363,612.91357 L 155.32987,588.61986 L 256.25288,595.36737 C 253.81388,600.54101 259.90309,607.49646 259.55363,612.91357 z"
         id="path15860"
         style="opacity:1;fill:#f5b300;fill-opacity:0.6255708;fill-rule:evenodd;stroke:none;stroke-width:1;stroke-linecap:round;stroke-linejoin:round;stroke-miterlimit:4;stroke-dasharray:none;stroke-opacity:1" />
    </g>
    <path
       d="M 496.79368,275.98013 A 110.66805,92.414352 0 1 1 496.66378,275.15239"
       transform="matrix(1.1397378,0,0,1.2988158,-66.152646,229.46492)"
       id="path5142"
       style="opacity:1;fill:#1d97df;fill-opacity:1;fill-rule:evenodd;stroke:none;stroke-width:1;stroke-linecap:round;stroke-linejoin:round;stroke-miterlimit:4;stroke-dasharray:none;stroke-opacity:1" />
    <g
       id="g3234">
      <path
         d="M 259,333.57413 C 258.17905,323.88724 257.65546,313.95511 258.8024,304.97533 C 267.16577,294.8491 288.04044,294.51407 301,273.07413 C 302.77758,268.39215 310.56557,266.89215 318,268.57413 C 318.73223,251.86702 321.23223,234.80636 325.5,220.57413 C 331.66667,214.80636 341.83333,208.15992 348,205.57413 C 370.85993,201.36517 382.56358,210.78266 390.33333,229.2408 C 399.25795,249.28615 395.72733,268.42218 396.16667,299.07413 C 402,298.78614 407.52022,298.1446 415.12132,304.92768 C 418.01531,298.11457 413.7013,288.24479 417.3024,281.07812 C 418.57507,278.43658 422.81311,282.7408 425.5,282.57413 C 424.75245,278.36702 423.42311,272.20955 424.08978,268.70955 C 442.56465,278.48223 456.31802,295.50856 475.5,304.57413 C 479.5,306.90746 483.5,309.2408 487.5,311.57413 C 492.02022,309.6397 495.83333,311.2408 500,311.07413 C 507.02022,312.15992 504.4596,311.51195 510.41916,315.77972 C 511.53906,314.24868 509.16058,347.81296 503.83234,335.37653 C 479.49901,321.87653 466.33333,322.57413 439.5,333.57413 C 401,368.7408 363.5,359.90746 325.5,332.57413 C 306.83333,321.40746 282.66667,320.2408 259,333.57413 z"
         transform="translate(-9.5741434,289.14658)"
         id="path6113"
         style="opacity:1;fill:#a95e37;fill-opacity:1;fill-rule:evenodd;stroke:none;stroke-width:1;stroke-linecap:round;stroke-linejoin:round;stroke-miterlimit:4;stroke-dasharray:none;stroke-opacity:1" />
      <path
         d="M 258.80584,304.61043 C 257.88096,313.39906 258.09976,324.98075 258.44753,334.57561 C 262.66872,330.22574 267.51492,328.12586 272.23611,327.15099 C 276.85396,324.35463 276.34681,322.68326 272.58966,323.2619 C 268.42545,326.30479 267.76123,324.84769 268.34702,321.14058 C 271.69689,319.40141 275.79677,317.53723 275.77164,314.42306 C 281.45015,315.0017 282.62867,313.58034 277.93218,311.15898 C 275.79497,308.92584 276.96198,308.16124 280.01429,306.99844 C 285.55329,309.11576 291.09229,308.06861 296.63129,308.41266 C 300.13823,311.69472 299.89517,314.85179 308.65211,313.00885 C 308.77364,315.63017 305.77017,318.00149 302.6417,319.37281 C 299.46687,318.38711 296.16704,318.5264 292.74221,318.6657 C 288.78163,314.2764 288.19606,316.63711 284.61048,319.37281 C 282.29267,320.39773 281.09986,322.04764 281.78205,324.32256 C 282.95341,324.44756 284.37478,324.32256 285.67114,324.32256 C 286.14254,323.7333 287.48895,323.14405 287.96035,322.55479 C 296.83023,321.0103 301.15735,321.67509 307.59145,323.2619 C 311.24137,319.74066 311.89128,315.71943 312.5412,311.94819 C 315.01607,311.00538 317.49095,310.06257 319.96582,309.11976 C 323.71214,307.01989 323.83346,304.42001 325.95478,301.94514 C 325.95478,300.29522 326.32978,298.39531 326.32978,296.74539 C 326.35491,290.92043 323.25503,288.59548 318.78016,293.77052 C 316.42314,296.83465 313.31611,298.89878 311.83409,303.46291 C 308.30203,303.06299 307.39496,300.91308 307.7379,298.01316 C 313.42703,295.71701 316.61615,288.92085 316.43028,282.2497 C 311.44479,282.83549 308.7093,277.92127 303.34881,278.00706 C 301.0596,276.725 299.77038,275.06793 299.10617,273.41087 C 293.66399,276.26032 292.87302,288.38598 258.80584,304.61043 z"
         transform="translate(-9.5741434,289.14658)"
         id="path7084"
         style="opacity:1;fill:#883a28;fill-opacity:1;fill-rule:evenodd;stroke:none;stroke-width:1;stroke-linecap:round;stroke-linejoin:round;stroke-miterlimit:4;stroke-dasharray:none;stroke-opacity:1" />
      <path
         d="M 337.625,286.44913 C 334.91667,292.53246 334.95833,298.7408 338.125,304.69913 C 339.91667,308.57413 341.83333,308.19913 342.75,305.07413 C 342.95833,304.65746 343.16667,304.2408 343.375,303.82413 C 344.625,305.1158 345.75,304.65746 346.375,303.57413 C 349.41667,305.40746 352.33333,305.2408 354.75,303.44913 C 354.41667,300.1158 358.20833,300.90746 358.625,298.32413 C 359.58333,293.9908 357.79167,292.53246 355.5,290.19913 C 353.16667,291.65746 350.58333,290.8658 348.125,290.07413 C 343.75,289.6158 343.125,288.90746 343.625,285.69913 C 345.5,281.78246 343.125,281.9908 341,281.82413 C 339.375,282.9908 338.75,284.90746 337.625,286.44913 z"
         transform="translate(-9.5741434,289.14658)"
         id="path8055"
         style="opacity:1;fill:#883a28;fill-opacity:1;fill-rule:evenodd;stroke:none;stroke-width:1;stroke-linecap:round;stroke-linejoin:round;stroke-miterlimit:4;stroke-dasharray:none;stroke-opacity:1" />
      <path
         d="M 300.55086,614.34571 C 302.71753,612.26238 305.38419,609.30404 307.67586,606.97071 C 309.09253,608.42904 309.75919,610.76238 309.30086,612.47071 C 312.30086,615.09571 315.42586,615.47071 318.80086,614.22071 C 318.80086,614.22071 324.61679,611.50729 331.17586,609.84571 C 334.047,609.28369 342.92586,601.97071 342.92586,601.97071 C 338.84253,603.80404 350.75919,598.51238 346.05086,605.97071 C 343.46753,604.84571 342.50919,608.84571 339.80086,608.97071 C 341.80086,614.51238 339.42586,615.92904 333.05086,615.09571 C 328.84253,615.63738 324.63419,616.17904 320.42586,616.72071 C 321.34253,617.80404 320.25919,618.88738 320.17586,619.97071 C 328.75919,624.42904 347.21753,621.01238 356.42586,620.97071 C 363.37985,619.17462 362.99223,617.0559 356.17586,614.72071 C 344.65751,616.47571 343.57577,610.71516 355.17586,609.97071 C 364.13419,609.55404 368.84253,609.51238 374.17586,607.59571 C 380.96753,601.47071 374.75919,601.34571 372.80086,598.97071 C 358.59253,597.13738 362.75919,596.42904 371.42586,595.72071 C 374.80442,596.89486 377.36472,596.11117 377.80086,595.22071 C 379.2209,591.80607 383.21931,591.58845 384.17586,588.72071 C 388.13419,588.34571 394.59253,593.34571 399.80086,593.59571 C 403.96753,595.17904 402.63419,585.76238 403.80086,581.97071 C 403.34253,576.34571 409.50919,579.34571 409.80086,574.72071 C 413.59253,574.92904 407.59252,569.38738 409.00919,567.59571 C 408.25919,562.63738 416.30086,561.17904 418.55086,560.47071 C 421.55086,562.42904 423.80086,565.01238 424.55086,567.47071 C 421.21753,573.47071 425.75919,580.34571 425.42586,596.34571 C 427.67586,598.05404 429.80086,597.13738 431.80086,595.84571 C 430.50919,593.55404 430.84253,591.13738 431.67586,589.34571 C 433.80086,584.09571 435.30086,588.59571 436.55086,589.72071 C 437.9654,590.8895 438.19931,593.23893 438.30086,595.72071 C 441.00919,598.38738 443.84253,597.42904 446.42586,595.47071 C 451.42586,590.55404 459.05086,592.76238 465.55086,593.47071 C 469.21753,594.22071 471.63419,596.59571 474.67586,598.72071 C 477.46753,601.67904 480.50919,599.63738 483.80086,601.22071 C 484.55086,606.38738 491.55086,605.67904 492.80086,608.84571 C 485.25919,610.97071 488.46753,614.34571 482.92586,615.97071 C 468.00919,613.76238 452.59253,615.05404 437.42586,620.22071 C 429.17586,624.09571 420.42586,628.72071 412.30086,634.47071 C 395.80086,650.13738 369.30086,652.80404 345.17586,638.72071 C 329.38419,629.97071 316.21753,618.34571 300.55086,614.34571 z M 385.55086,609.84571 C 386.25919,612.17904 386.84253,614.01238 385.05086,616.47071 C 385.88419,618.59571 375.46753,616.59571 381.55086,621.72071 C 383.96753,623.30404 387.38419,624.26238 390.67586,622.72071 C 392.13419,620.38738 393.96753,617.17904 397.30086,617.59571 C 399.12251,616.04494 401.39761,614.07957 398.67586,611.22071 C 395.42586,609.13738 389.67586,603.42904 385.55086,609.84571 z"
         id="path8057"
         style="fill:#883a28;fill-opacity:1;fill-rule:evenodd;stroke:none;stroke-width:1;stroke-linecap:round;stroke-linejoin:round;stroke-miterlimit:4;stroke-opacity:1" />
      <path
         d="M 401.375,306.82413 C 397.83333,306.65746 394.16667,306.3658 393.75,309.32413 C 394.66667,313.8658 396.58333,315.28246 399.5,314.32413 C 403.79167,317.6158 404.83333,314.03246 408.625,315.94913 C 411.16667,318.19913 413.95833,317.32413 415.875,315.94913 C 418.375,314.15746 419.125,315.4908 420.75,315.94913 C 423.91667,317.82413 426.83333,316.94913 428,315.07413 C 430.45833,316.57413 432.41667,315.07413 434.625,315.07413 C 441.29167,314.07413 438.83333,309.44913 435.125,309.82413 C 423.25,312.4908 425.875,306.65746 407,310.32413 C 405.875,308.28246 403.25,307.9908 401.375,306.82413 z"
         transform="translate(-9.5741434,289.14658)"
         id="path8064"
         style="opacity:1;fill:#ffffff;fill-opacity:1;fill-rule:evenodd;stroke:none;stroke-width:1;stroke-linecap:round;stroke-linejoin:round;stroke-miterlimit:4;stroke-dasharray:none;stroke-opacity:1" />
      <path
         d="M 442.5,333.44913 C 409.25,325.32413 431.875,322.07413 431.875,322.07413 C 435.79167,319.94913 438.83333,317.57413 444.375,317.44913 C 444.45833,315.1158 444.79167,313.28246 449.5,313.82413 C 450.91667,312.8658 452.58333,312.03246 455.25,313.19913 C 457.5,313.1158 458.5,312.53246 460.125,311.07413 C 461.75,308.57413 463.5,307.57413 469.5,309.19913 C 471.70833,309.4908 473.79167,309.28246 476.125,310.07413 C 480.20833,311.94913 480.79167,314.19913 475.125,314.44913 C 473.75,313.90746 472.25,313.3658 470.75,313.32413 C 469,312.15746 467.375,312.3658 465.5,313.19913 C 462.95833,315.6158 462.16667,318.53246 454.875,317.82413 C 451.75,320.6158 445.625,322.90746 442.25,323.07413 C 439.75,323.2408 439.125,326.78246 444.375,326.32413 C 451.875,326.1158 459.375,325.78246 466.875,326.44913 C 458.125,327.69913 450.5,329.44913 442.5,333.44913 z"
         transform="translate(-9.5741434,289.14658)"
         id="path9036"
         style="opacity:1;fill:#ffffff;fill-opacity:1;fill-rule:evenodd;stroke:none;stroke-width:1;stroke-linecap:round;stroke-linejoin:round;stroke-miterlimit:4;stroke-dasharray:none;stroke-opacity:1" />
      <path
         d="M 397.8508,299.32413 C 401.3508,301.7408 405.125,302.15746 408.5,302.19913 C 409.79167,306.19913 415.45833,305.57413 414.5,300.94913 C 418.66667,302.44913 416.33333,283.69913 418.75,282.19913 C 423.375,288.32413 423.875,282.94913 424.375,281.07413 C 425.875,276.3658 426.875,269.90746 424.375,268.44913 C 422.16667,266.3658 420.83333,266.90746 419.25,268.57413 C 413.79167,270.82413 413.20833,285.07413 400.25,293.69913 C 397.45833,295.07413 393.76747,299.57413 397.8508,299.32413 z"
         transform="translate(-9.5741434,289.14658)"
         id="path9038"
         style="opacity:1;fill:#ffffff;fill-opacity:1;fill-rule:evenodd;stroke:none;stroke-width:1;stroke-linecap:round;stroke-linejoin:round;stroke-miterlimit:4;stroke-dasharray:none;stroke-opacity:1" />
      <path
         d="M 378.25,244.32413 C 381.25,230.82413 386.875,243.57413 386.875,243.57413 C 387.70833,245.65746 386.91667,250.9908 388.75,256.82413 C 391.66667,255.90746 390.33333,264.7408 391.875,269.19913 C 390.625,269.2408 389.875,269.40746 388.875,267.82413 C 387.25,265.82413 386.375,263.32413 385.875,261.07413 C 382.5,254.82413 381.25,257.57413 380.25,261.07413 C 379.41667,265.3658 380.08333,272.28246 379.25,277.69913 C 377.91667,284.1158 376.33333,279.78246 375.625,277.07413 C 374.625,265.7408 376.25,254.53246 378.25,244.32413 z"
         transform="translate(-9.5741434,289.14658)"
         id="path9042"
         style="opacity:1;fill:#ffffff;fill-opacity:1;fill-rule:evenodd;stroke:none;stroke-width:1;stroke-linecap:round;stroke-linejoin:round;stroke-miterlimit:4;stroke-dasharray:none;stroke-opacity:1" />
      <path
         d="M 367.51875,296.92217 C 370.93643,298.21853 375.06122,294.2116 378.83246,294.4473 C 386.31601,293.56342 388.67303,293.03309 389.08551,285.96202 C 387.19989,278.41955 388.1427,271.58418 386.61063,263.3346 C 385.19642,259.62229 381.66088,251.31378 380.24667,263.3346 C 381.0127,269.16823 380.18775,273.76442 379.71634,278.71417 C 376.35759,282.95681 381.66089,291.61887 378.30213,288.26011 C 375.7094,289.14399 372.9399,288.43689 370.52395,290.91176 C 368.108,291.67779 366.04561,293.85804 367.51875,296.92217 z"
         transform="translate(-9.5741434,289.14658)"
         id="path9046"
         style="opacity:1;fill:#883a28;fill-opacity:1;fill-rule:evenodd;stroke:none;stroke-width:1;stroke-linecap:round;stroke-linejoin:round;stroke-miterlimit:4;stroke-dasharray:none;stroke-opacity:1" />
      <path
         d="M 318.02128,267.75402 C 329.04036,270.52352 337.86383,276.48663 348.88291,279.25613 C 350.9453,280.14001 354.80411,283.01991 356.8665,283.90379 C 359.28245,262.63166 360.68339,235.81636 358.14959,214.89778 C 355.61579,215.36918 354.31942,220.79034 352.66951,226.38827 C 352.25703,235.81636 352.02133,245.24445 351.43207,254.67254 C 348.9572,260.27047 347.89654,257.73667 346.6591,253.4351 C 347.89654,244.83197 347.36621,233.04685 346.6591,222.85273 C 344.89134,222.61703 344.89133,225.20976 344.00745,226.38827 C 340.11837,248.48536 340.82547,222.14563 336.58283,226.38827 C 336.58283,234.87355 336.22928,242.47495 336.58283,251.84411 C 335.93464,258.7384 334.93291,257.85452 333.57762,251.31378 C 332.57589,241.41429 332.10448,233.63611 326.86011,245.48015 C 324.26738,246.54081 323.79599,260.85973 318.02128,267.75402 z"
         transform="translate(-9.5741434,289.14658)"
         id="path10017"
         style="opacity:1;fill:#883a28;fill-opacity:1;fill-rule:evenodd;stroke:none;stroke-width:1;stroke-linecap:round;stroke-linejoin:round;stroke-miterlimit:4;stroke-dasharray:none;stroke-opacity:1" />
      <path
         d="M 427,234.07413 L 421.68992,232.11597 L 416.5422,234.46806 L 416.76361,228.81277 L 412.93591,224.64383 L 418.38283,223.10682 L 421.1649,218.17819 L 424.30988,222.88356 L 429.85699,224.00644 L 426.35377,228.45152 L 427,234.07413 z"
         transform="matrix(0.7120905,0.35213,-0.3375418,0.7428663,191.47418,204.62852)"
         id="path11957"
         style="opacity:1;fill:#ffffff;fill-opacity:1;fill-rule:evenodd;stroke:none;stroke-width:1;stroke-linecap:round;stroke-linejoin:round;stroke-miterlimit:4;stroke-dasharray:none;stroke-opacity:1" />
      <path
         d="M 427,234.07413 L 421.68992,232.11597 L 416.5422,234.46806 L 416.76361,228.81277 L 412.93591,224.64383 L 418.38283,223.10682 L 421.1649,218.17819 L 424.30988,222.88356 L 429.85699,224.00644 L 426.35377,228.45152 L 427,234.07413 z"
         transform="matrix(0.7120905,0.35213,-0.3375418,0.7428663,189.97418,224.62852)"
         id="path11959"
         style="opacity:1;fill:#ffffff;fill-opacity:1;fill-rule:evenodd;stroke:none;stroke-width:1;stroke-linecap:round;stroke-linejoin:round;stroke-miterlimit:4;stroke-dasharray:none;stroke-opacity:1" />
      <path
         d="M 427,234.07413 L 421.68992,232.11597 L 416.5422,234.46806 L 416.76361,228.81277 L 412.93591,224.64383 L 418.38283,223.10682 L 421.1649,218.17819 L 424.30988,222.88356 L 429.85699,224.00644 L 426.35377,228.45152 L 427,234.07413 z"
         transform="matrix(0.6806684,0.4095839,-0.3975801,0.7125411,235.87028,208.7589)"
         id="path11961"
         style="opacity:1;fill:#ffffff;fill-opacity:1;fill-rule:evenodd;stroke:none;stroke-width:1;stroke-linecap:round;stroke-linejoin:round;stroke-miterlimit:4;stroke-dasharray:none;stroke-opacity:1" />
      <path
         d="M 427,234.07413 L 421.68992,232.11597 L 416.5422,234.46806 L 416.76361,228.81277 L 412.93591,224.64383 L 418.38283,223.10682 L 421.1649,218.17819 L 424.30988,222.88356 L 429.85699,224.00644 L 426.35377,228.45152 L 427,234.07413 z"
         transform="matrix(0.6567043,0.4469987,-0.4367957,0.6891983,263.84907,174.88783)"
         id="path11963"
         style="opacity:1;fill:#ffffff;fill-opacity:1;fill-rule:evenodd;stroke:none;stroke-width:1;stroke-linecap:round;stroke-linejoin:round;stroke-miterlimit:4;stroke-dasharray:none;stroke-opacity:1" />
      <path
         d="M 344.625,209.07413 C 350.33333,215.65746 347.79167,248.8658 356.125,212.94913 C 358.20833,209.1158 358.91667,204.15746 365.375,213.19913 C 369.16667,225.1158 370.70833,232.28246 375.25,220.44913 C 377.375,215.78246 378.75,214.7408 382.375,219.57413 C 391,234.1158 393.125,234.28246 388,218.57413 C 383.5,210.57413 379,202.82413 372.625,195.69913 C 361.5,181.57413 360.5,181.94913 353.5,191.57413 C 351.45833,197.40746 346.54167,202.4908 340.625,205.32413 C 334.83333,214.07413 335.66667,213.32413 344.625,209.07413 z"
         transform="translate(-9.5741434,289.14658)"
         id="path9044"
         style="opacity:1;fill:#ffffff;fill-opacity:1;fill-rule:evenodd;stroke:none;stroke-width:1;stroke-linecap:round;stroke-linejoin:round;stroke-miterlimit:4;stroke-dasharray:none;stroke-opacity:1" />
      <path
         d="M 303.25,269.94913 C 300.41419,272.33149 294.143,274.30724 303.5,277.19913 C 305.45833,277.03246 307.41667,276.8658 309.375,276.69913 C 312.04167,277.32413 314.70833,277.94913 317.375,278.57413 C 318.70833,278.53246 320.04167,278.4908 321.375,278.44913 C 323.625,279.78246 325.875,281.1158 328.125,282.44913 C 331.70833,282.44913 335.29167,282.44913 338.875,282.44913 C 340.95833,282.8658 343.04167,283.28246 345.125,283.69913 C 343.04566,285.37453 342.76272,287.24953 344.875,289.32413 C 348.20833,290.15746 352.16667,290.8658 355.625,289.19913 C 358.08333,289.07413 359.16667,290.57413 360,292.94913 C 360.5,294.28246 359.25,295.3658 358.875,296.57413 C 360.375,300.82413 364.125,300.57413 366.375,296.94913 C 367.45833,292.4908 369.29167,289.15746 375.25,288.82413 C 378,289.69913 378.25,285.44913 375.25,282.82413 C 375.41667,281.82413 374.58333,280.57413 373.125,280.19913 C 372.29167,273.57413 367.95833,271.82413 368.375,279.82413 C 367.58333,281.69913 370.16667,284.94913 366.375,285.44913 C 363.75,282.44913 360.875,277.57413 357.375,280.57413 C 356.54167,281.28246 355.45833,283.4908 353.375,280.82413 C 352.91667,276.9908 349.08333,274.53246 340.75,273.07413 C 329.61732,270.1037 316.19619,263.98911 303.25,269.94913 z"
         transform="translate(-9.5741434,289.14658)"
         id="path9040"
         style="opacity:1;fill:#ffffff;fill-opacity:1;fill-rule:evenodd;stroke:none;stroke-width:1;stroke-linecap:round;stroke-linejoin:round;stroke-miterlimit:4;stroke-dasharray:none;stroke-opacity:1" />
    </g>
    <g
       id="g3229">
      <path
         d="M -1,367.57413 L 78,334.57413 L 147,346.57413 L 194,370.57413 L 285,341.57413 L 372,365.57413 L 489,333.57413 L 564,370.57413 L 665,334.57413 L 770,368.57413 L 767.5,506.97413 L -1.6,507.07413 L -1,367.57413 z"
         transform="translate(-9.5741434,289.14658)"
         id="path2424"
         style="opacity:1;fill:#291873;fill-opacity:1;fill-rule:evenodd;stroke:none;stroke-width:1;stroke-linecap:butt;stroke-linejoin:miter;marker:none;marker-start:none;marker-mid:none;marker-end:none;stroke-miterlimit:4;stroke-dasharray:none;stroke-dashoffset:0;stroke-opacity:1;visibility:visible;display:inline;overflow:visible;enable-background:accumulate" />
      <path
         d="M -9,438.57413 C 52.631275,468.83394 55.003977,366.01695 148.8,431.17413 C 177.89247,447.97319 210.88941,452.0635 245,429.57413 C 278.42063,400.45502 310.2695,412.30551 337.5,431.57413 C 358.51996,452.31527 389.44467,453.13104 426,430.57413 C 461.80059,402.25969 488.52725,412.53274 521,430.37413 C 562.33544,456.13143 600.12067,440.89859 620,426.57413 C 697.90225,376.93453 715.91131,458.44494 768.5,445.07413"
         transform="translate(-9.5741434,289.14658)"
         id="path3196"
         style="opacity:1;fill:none;fill-opacity:1;fill-rule:evenodd;stroke:#ffffff;stroke-width:29;stroke-linecap:square;stroke-linejoin:miter;marker:none;marker-start:none;marker-mid:none;marker-end:none;stroke-miterlimit:4;stroke-dasharray:none;stroke-dashoffset:0;stroke-opacity:1;visibility:visible;display:inline;overflow:visible;enable-background:accumulate" />
      <path
         d="M -17.48143,650.73268 C 44.14984,680.99249 46.52255,578.1755 140.31857,643.33268 C 169.41104,660.13174 202.40798,664.22205 236.51857,641.73268 C 269.9392,612.61357 301.78807,624.46406 329.01857,643.73268 C 350.03853,664.47382 380.96324,665.28959 417.51857,642.73268 C 453.31916,614.41824 480.04582,624.69129 512.51857,642.53268 C 553.85401,668.28998 591.63924,653.05714 611.51857,638.73268 C 689.42082,589.09308 707.42988,670.60349 760.01857,657.23268"
         id="path3198"
         style="opacity:1;fill:none;fill-opacity:1;fill-rule:evenodd;stroke:#ffffff;stroke-width:29;stroke-linecap:square;stroke-linejoin:miter;marker:none;marker-start:none;marker-mid:none;marker-end:none;stroke-miterlimit:4;stroke-dasharray:none;stroke-dashoffset:0;stroke-opacity:1;visibility:visible;display:inline;overflow:visible;enable-background:accumulate" />
    </g>
  </g>
</svg>
