<svg enable-background="new 0 0 600 300" height="300" viewBox="0 0 600 300" width="600" xmlns="http://www.w3.org/2000/svg"><path d="m0 0h600v300h-600z" fill="#e65a00"/><path d="m410.836 172.536c5.638-2.712 13.602-3.043 18.467.859-4.865-3.902-6.315-11.738-4.921-17.816 1.392-6.101 6.07-12.534 12.173-13.926-6.103 1.392-13.104-2.331-17.007-7.228-3.902-4.891-5.996-12.571-3.281-18.208-2.715 5.637-10.006 8.799-16.267 8.799-6.259 0-13.55-3.162-16.266-8.799 2.716 5.637.622 13.317-3.281 18.208-3.902 4.896-10.936 8.619-17.008 7.228 6.072 1.392 10.782 7.825 12.174 13.926 1.394 6.078-.056 13.914-4.952 17.816 4.896-3.902 12.86-3.571 18.468-.859 5.643 2.717 10.865 8.712 10.865 14.969 0-6.257 5.225-12.252 10.836-14.969z"/><g fill="#fff"><path d="m421.994 132.479c11.678 14.648 60.03.094 36.644-29.228s-48.356 14.559-36.644 29.228z"/><path d="m400 121.885c18.75 0 37.497-46.87 0-46.87s-18.75 46.87 0 46.87z"/><path d="m378.007 132.479c11.681-14.67-13.258-58.549-36.643-29.228-23.387 29.322 24.965 43.877 36.643 29.228z"/><path d="m412.191 175.356c-16.888 8.122-13.44 58.503 20.34 42.241 33.78-16.298-3.449-50.387-20.34-42.241z"/><path d="m387.809 175.356c-16.92-8.146-54.148 25.942-20.338 42.241 33.779 16.262 37.225-34.118 20.338-42.241z"/><path d="m427.398 156.278c-4.145 18.275 37.386 46.971 45.713 10.414 8.36-36.554-41.531-28.69-45.713-10.414z"/><path d="m372.571 156.278c-4.172-18.276-54.042-26.141-45.683 10.414 8.33 36.557 49.86 7.862 45.683-10.414z"/></g><path d="m0 0h200v300h-200z"/><g fill="#fff"><path d="m99.985 85.014 8.692 8.017-.862-11.788 11.669-1.787-9.751-6.67 5.897-10.246-11.3 3.466-4.345-10.992-4.33 10.992-11.301-3.466 5.881 10.246-9.748 6.67 11.682 1.787-.859 11.788z"/><path d="m167.076 116.252h-10.106l-5.056-8.75-5.047 8.75h-10.103l5.044 8.765-5.044 8.747h10.103l5.047 8.737 5.056-8.737h10.106l-5.059-8.747z"/><path d="m104.653 213.767-4.668-11.267-4.651 11.267-11.252-4.663 4.666 11.231-11.253 4.669 11.253 4.669-4.666 11.237 11.252-4.639 4.651 11.237 4.668-11.237 11.25 4.639-4.666-11.237 11.252-4.669-11.252-4.664 4.666-11.236z"/><path d="m30.247 140.27-5.879-10.23 11.298 3.465 4.33-10.993 4.348 10.993 11.298-3.465-5.894 10.23 9.748 6.687-11.668 1.785.851 11.772-8.683-7.998-8.674 7.998.859-11.772-11.682-1.785z"/><path d="m119.176 152.966 3.313-6.712 3.3 6.712 7.401 1.071-5.359 5.229 1.265 7.339-6.607-3.479-6.612 3.479 1.253-7.339-5.342-5.229z"/></g></svg>
