<?xml version="1.0" encoding="UTF-8" standalone="no" ?>
<!DOCTYPE svg PUBLIC "-//W3C//DTD SVG 1.1//EN" "http://www.w3.org/Graphics/SVG/1.1/DTD/svg11.dtd">
<svg xmlns="http://www.w3.org/2000/svg" xmlns:xlink="http://www.w3.org/1999/xlink" version="1.1" width="1200" height="600" viewBox="0 0 1200 600" xml:space="preserve">
<desc>Created with Fabric.js 3.6.3</desc>
<defs>
</defs>
<g transform="matrix(1 0 0 1 600 300)"  >
<g style=""   >
		<g transform="matrix(1 0 0 1 0 0)" id="rect5"  >
<rect style="stroke: none; stroke-width: 1; stroke-dasharray: none; stroke-linecap: butt; stroke-dashoffset: 0; stroke-linejoin: miter; stroke-miterlimit: 4; fill: rgb(0,30,98); fill-rule: nonzero; opacity: 1;"  x="-600" y="-300" rx="0" ry="0" width="1200" height="600" />
</g>
		<g transform="matrix(1 0 0 1 -300 -150)" id="path7"  >
<path style="stroke: rgb(255,255,255); stroke-width: 60; stroke-dasharray: none; stroke-linecap: butt; stroke-dashoffset: 0; stroke-linejoin: miter; stroke-miterlimit: 4; fill: none; fill-rule: nonzero; opacity: 1;"  transform=" translate(-300, -150)" d="M 0 0 L 600 300 M 600 0 L 0 300" stroke-linecap="round" />
</g>
		<g transform="matrix(1 0 0 1 -300 -150)" id="path9" clip-path="url(#CLIPPATH_5)"  >
<clipPath id="CLIPPATH_5" >
	<path transform="matrix(1 0 0 1 50 25) translate(-350, -175)" id="path2" d="M 0 0 V 150 H 700 V 300 H 600 z M 0 300 V 350 H 300 V 0 H 600 z" stroke-linecap="round" />
</clipPath>
<path style="stroke: rgb(218,41,28); stroke-width: 40; stroke-dasharray: none; stroke-linecap: butt; stroke-dashoffset: 0; stroke-linejoin: miter; stroke-miterlimit: 4; fill: none; fill-rule: nonzero; opacity: 1;"  transform=" translate(-300, -150)" d="M 0 0 L 600 300 M 600 0 L 0 300" stroke-linecap="round" />
</g>
		<g transform="matrix(1 0 0 1 -250 -125)" id="path11"  >
<path style="stroke: rgb(255,255,255); stroke-width: 100; stroke-dasharray: none; stroke-linecap: butt; stroke-dashoffset: 0; stroke-linejoin: miter; stroke-miterlimit: 4; fill: none; fill-rule: nonzero; opacity: 1;"  transform=" translate(-350, -175)" d="M 0 150 H 700 M 300 0 V 350" stroke-linecap="round" />
</g>
		<g transform="matrix(1 0 0 1 -250 -125)" id="path13"  >
<path style="stroke: rgb(218,41,28); stroke-width: 60; stroke-dasharray: none; stroke-linecap: butt; stroke-dashoffset: 0; stroke-linejoin: miter; stroke-miterlimit: 4; fill: none; fill-rule: nonzero; opacity: 1;"  transform=" translate(-350, -175)" d="M 0 150 H 700 M 300 0 V 350" stroke-linecap="round" />
</g>
		<g transform="matrix(1 0 0 1 300 0)" id="rect881"  >
<rect style="stroke: none; stroke-width: 1.03653693; stroke-dasharray: none; stroke-linecap: round; stroke-dashoffset: 0; stroke-linejoin: miter; stroke-miterlimit: 4; fill: rgb(255,255,255); fill-rule: nonzero; opacity: 1;"  x="-200" y="-200" rx="0" ry="0" width="400" height="400" />
</g>
		<g transform="matrix(1 0 0 1 300 0)" id="rect883"  >
<rect style="stroke: none; stroke-width: 0.85837865; stroke-dasharray: none; stroke-linecap: round; stroke-dashoffset: 0; stroke-linejoin: miter; stroke-miterlimit: 4; fill: rgb(218,41,28); fill-rule: nonzero; opacity: 1;"  x="-33" y="-200" rx="0" ry="0" width="66" height="400" />
</g>
		<g transform="matrix(0 1 -1 0 300 0)" id="rect885"  >
<rect style="stroke: none; stroke-width: 0.85837865; stroke-dasharray: none; stroke-linecap: round; stroke-dashoffset: 0; stroke-linejoin: miter; stroke-miterlimit: 4; fill: rgb(218,41,28); fill-rule: nonzero; opacity: 1;"  x="-33" y="-200" rx="0" ry="0" width="66" height="400" />
</g>
		<g transform="matrix(1 0 0 1 0 0)" id="path887"  >
<path style="stroke: none; stroke-width: 1; stroke-dasharray: none; stroke-linecap: butt; stroke-dashoffset: 0; stroke-linejoin: miter; stroke-miterlimit: 4; fill: rgb(0,30,98); fill-rule: nonzero; opacity: 1;"  transform=" translate(-600, -300)" d="M 600 0 L 600 300 L 0 300 L 0 600 L 1200 600 L 1200 0 L 600 0 z M 900 150 A 150 150 0 0 1 1050 300 A 150 150 0 0 1 900 450 A 150 150 0 0 1 750 300 A 150 150 0 0 1 900 150 z" stroke-linecap="round" />
</g>
		<g transform="matrix(3.45 0 0 -3.35 299.9 0.05)" id="path2168"  >
<path style="stroke: rgb(0,0,0); stroke-width: 0.1412148; stroke-dasharray: none; stroke-linecap: butt; stroke-dashoffset: 0; stroke-linejoin: miter; stroke-miterlimit: 4; fill: rgb(255,200,40); fill-rule: nonzero; opacity: 1;"  transform=" translate(-15.37, 4.9)" d="M 0 0 C 0 0 0.66 -0.41 0.66 -1.114 C 0.66 -1.823 0.532 -2.073 0.5 -2.7 C 0.462 -3.334 0.386 -3.781 0.759 -4.486 C 1.131 -5.195 1.654 -5.64 1.654 -5.64 c 0 0 0.594 0.594 0.777 0.855 c 0.184 0.259 0.297 0.893 0.259 1.303 c -0.033 0.405 -0.112 1.037 0 1.263 c 0.114 0.221 0.82 1.375 0.783 1.637 c -0.043 0.259 -0.816 2 -0.816 2 L 3.619 1.531 L 3.732 2.65 L 4.476 2.462 L 4.735 2.982 L 5.258 2.721 L 5.518 3.171 L 5.928 2.909 L 6.262 3.503 L 6.813 3.056 L 7.077 3.543 L 7.562 2.945 L 8.119 3.392 L 8.448 2.761 L 8.858 3.133 L 9.16 2.499 L 9.57 2.794 c 0 0 0.254 -0.516 0.254 -0.778 V 1.647 c 0 0 0.745 0 0.782 -0.189 C 10.644 1.274 10.385 0.422 10.31 0.271 C 10.234 0.122 9.862 -0.471 9.862 -0.471 c 0 0 0.41 -0.634 0.485 -0.893 c 0.076 -0.262 0.076 -1.303 0.594 -1.786 c 0.518 -0.483 1.301 -0.782 1.301 -0.782 l 0.079 -0.295 c 0 0 0.406 -0.336 1.188 -0.336 c 0.777 0 2.266 0.558 5.758 1.192 c 3.496 0.631 4.537 0 5.206 -0.299 c 0.665 -0.295 1.711 -0.856 2.342 -0.856 c 0.631 0 1.3 0.373 1.3 0.966 c 0 0.599 -0.631 1.004 -1.488 1.192 c -0.853 0.184 -5.014 -0.04 -6.093 -0.372 c -1.079 -0.337 -2.94 -0.853 -4.98 -0.853 c -2.045 0 -4.462 0.554 -4.5 2.672 c -0.038 2.118 2.38 2.49 3.048 2.528 c 0.669 0.04 1.636 0 2.008 0.299 c 0.367 0.294 0.669 0.634 0.669 0.634 L 16.93 1.979 c 0 0 0.292 0.372 0.48 0.594 c 0.184 0.221 0.745 0.483 1.075 0.631 c 0.339 0.151 0.862 0.745 0.862 0.745 c 0 0 0.48 -0.816 0.48 -1.228 c 0 -0.41 -0.259 -1.152 -0.82 -1.447 c -0.555 -0.299 -1.559 -0.447 -2.487 -0.52 c -0.929 -0.078 -2.493 0 -2.714 -0.038 c -0.227 -0.04 -1.564 -0.224 -1.602 -1.487 c -0.033 -1.264 1.23 -1.524 1.672 -1.564 c 0.453 -0.033 2.53 -0.294 3.054 -0.033 c 0.518 0.259 1.333 0.259 1.409 0.705 c 0.075 0.447 0.037 0.819 0.037 0.819 c 0 0 0.448 0.034 0.669 -0.188 c 0.222 -0.222 0.485 -0.561 0.485 -0.561 c 0 0 0.26 0.229 0.33 0.45 c 0.08 0.222 0.113 0.632 0.113 0.632 c 0 0 0.448 -0.071 0.707 -0.37 c 0.264 -0.3 0.485 -0.561 0.485 -0.561 c 0 0 0.146 0.188 0.297 0.41 c 0.151 0.222 0.151 0.671 0.151 0.671 c 0 0 0.443 -0.077 0.702 -0.339 c 0.264 -0.259 0.485 -0.631 0.485 -0.631 c 0 0 0.189 0.226 0.26 0.45 c 0.07 0.221 0 0.593 0 0.593 c 0 0 0.556 -0.15 0.782 -0.334 c 0.221 -0.188 0.405 -0.559 0.405 -0.559 c 0 0 1.23 0.26 2.083 0.076 c 0.857 -0.186 3.161 -0.226 3.274 -2.528 c 0.109 -2.302 -2.049 -2.156 -2.049 -2.156 c 0 0 -0.071 -0.704 0.452 -1.154 c 0.513 -0.443 1.187 -0.664 2.007 -0.554 c 0.815 0.111 1.518 0.815 2.04 0.853 c 0.519 0.04 1.155 -0.148 1.192 -0.48 c 0.034 -0.335 0.184 -0.707 0.184 -0.707 c 0 0 0.448 -0.337 0.556 -0.521 c 0.113 -0.188 0.184 -0.443 0.184 -0.443 h -0.594 c 0 0 0.373 -0.226 0.41 -0.41 c 0.043 -0.188 0.076 -0.633 0.076 -0.633 l -0.335 -0.038 c 0 0 0.038 -0.594 0.113 -0.853 c 0.071 -0.261 0.702 -0.634 0.632 -1.154 c -0.076 -0.521 -0.486 -0.782 -0.745 -1.004 c -0.259 -0.221 -0.259 -0.853 -0.259 -0.853 c 0 0 -0.448 0.111 -0.56 0.332 c -0.109 0.227 -0.147 1.675 -0.147 1.675 c 0 0 0.038 -0.56 -0.146 -0.855 c -0.188 -0.299 -0.41 -0.259 -0.711 -0.372 c -0.292 -0.111 -0.665 -0.669 -0.665 -0.669 c 0 0 -0.339 0.299 -0.339 0.632 c 0 0.332 0.226 0.742 0.226 0.742 l 0.335 0.671 l -0.561 -0.599 c 0 0 -0.334 0.116 -0.594 -0.032 c -0.259 -0.151 -0.593 -0.373 -0.593 -0.373 c 0 0 -0.189 0.295 0 0.667 c 0.183 0.37 0.41 0.41 0.485 0.598 c 0.071 0.184 0.038 0.443 0.259 0.594 c 0.222 0.149 0.669 0.259 0.891 0.221 c 0.221 -0.039 0.523 0 0.556 0.373 c 0.038 0.37 -0.405 0.742 -0.815 0.669 c -0.41 -0.078 -1.748 -0.893 -3.534 -0.82 c -1.781 0.078 -2.304 1.265 -2.564 1.786 c -0.263 0.52 -0.033 1.413 -0.706 1.818 c -0.669 0.41 -1.635 0.521 -2.078 0.227 c -0.448 -0.3 -0.712 -0.632 -0.669 -1.082 c 0.037 -0.443 0.819 -0.554 1.225 -0.591 c 0.41 -0.04 0.853 -0.151 1.112 -0.594 c 0.259 -0.45 0.226 -1.192 0.226 -1.192 l -0.707 0.189 l 0.146 -1.376 c 0 0 -0.447 0.148 -0.669 0.111 c -0.221 -0.038 -0.221 -0.373 -0.33 -0.705 c -0.113 -0.337 -0.296 -0.488 -0.296 -0.488 c 0 0 -0.151 0.3 -0.561 0.488 c -0.41 0.184 -0.631 -0.41 -0.631 -0.41 c 0 0 -0.297 0.184 -1.155 0.149 c -0.853 -0.038 -1.522 -0.558 -2.078 -0.82 c -0.561 -0.259 -1.041 -0.37 -1.451 -0.332 c -0.405 0.037 -0.895 0.183 -0.853 0.332 c 0.038 0.151 0.669 0.45 0.669 0.45 c 0 -0.005 -0.301 0.033 -0.744 0.143 c -0.448 0.116 -0.707 0.078 -0.74 0.227 c -0.042 0.151 0.443 0.405 0.631 0.518 c 0.184 0.115 0.665 0.259 0.702 0.41 c 0.038 0.148 -0.669 0.221 -0.631 0.37 c 0.038 0.15 0.481 0.372 0.707 0.45 c 0.221 0.073 0.631 0.443 1.187 0.332 c 0.556 -0.111 0.815 -0.443 1.188 -0.483 c 0.371 -0.038 0.673 -0.111 1.267 -0.075 c 0.598 0.037 1.263 -0.113 1.376 0.52 c 0.108 0.631 -0.556 1.004 -1.338 1.004 c -0.783 0 -0.632 -0.445 -1.451 -0.406 c -0.816 0.033 -1.15 0.705 -1.225 1.259 c -0.076 0.56 0.852 1.564 0.852 1.564 c 0 0 -0.669 -0.04 -1.338 -0.372 c -0.664 -0.332 -0.702 -0.561 -0.664 -0.782 c 0.033 -0.222 -0.523 -0.37 -0.82 -0.26 c -0.302 0.111 -0.815 0.26 -0.815 0.038 c 0 -0.222 0.259 -0.41 0.141 -0.594 c -0.108 -0.188 -0.853 -0.148 -1.145 -0.148 c -0.301 0 -0.674 0.071 -0.674 -0.184 c 0 -0.266 0.556 -0.299 0.373 -0.488 c -0.189 -0.183 -0.891 -0.372 -1.711 -0.372 c -0.815 0 -1.743 0.483 -1.743 0.483 c 0 0 0.74 -0.926 0.518 -1.408 c -0.226 -0.488 -0.485 -0.559 -0.669 -0.71 c -0.189 -0.148 -0.669 -0.11 -1.041 -0.294 c -0.373 -0.188 -0.41 -0.149 -0.702 -0.299 c -0.302 -0.149 -1.122 -0.782 -1.122 -0.782 c 0 0 -0.254 0.117 -0.292 0.261 c -0.042 0.149 -0.188 0.337 -0.188 0.337 c 0 0 -0.707 -0.742 -1.042 -0.78 c -0.334 -0.04 -0.259 0.554 -0.447 0.554 c -0.184 0 -1.112 -0.742 -1.112 -0.742 c 0 0 -0.043 0.669 -0.264 0.669 c -0.222 0 -0.891 -0.669 -0.891 -0.669 c 0 0 -0.221 0.742 -1.154 0.78 c -0.924 0.04 -1.296 -0.443 -1.889 -0.41 c -0.599 0.04 -1.494 0.671 -1.494 0.671 c 0 0 0.674 0.148 0.711 0.332 c 0.033 0.189 -1.078 0.45 -1.078 0.672 c 0 0.221 0.965 0.299 1.078 0.482 c 0.109 0.189 -0.523 0.483 -0.447 0.67 c 0.075 0.183 0.89 -0.111 1.262 0.15 c 0.373 0.255 0.448 0.222 0.67 0.073 c 0.221 -0.15 0.857 -0.782 1.526 -0.893 c 0.665 -0.11 1.484 -0.334 2.342 -0.15 c 0.853 0.188 2.375 0.744 2.375 0.744 c 0 0 -0.632 -0.445 -1.225 0.038 c -0.594 0.483 -0.519 0.671 -0.783 0.782 c -0.259 0.111 -0.48 -0.222 -0.961 -0.151 c -0.485 0.073 -1.413 0.966 -1.413 0.966 c 0 0 -1.046 -0.261 -1.23 -0.037 c -0.184 0.225 0.302 0.779 0.184 1.079 c -0.109 0.294 -1.334 -0.189 -1.376 0.072 c -0.033 0.262 0.603 0.971 0.523 1.23 c -0.071 0.257 -1.225 -0.075 -1.225 0.184 c 0 0.262 0.593 0.782 0.561 1.004 c -0.038 0.221 -0.674 0.04 -0.783 0.221 c -0.113 0.189 0.481 0.521 0.443 0.745 c -0.033 0.221 -0.155 0.728 -0.636 1.027 c -0.485 0.294 -2.035 0.459 -2.035 0.459 l 1.898 0.389 c 0 0 -0.428 0.224 -0.391 0.594 c 0.034 0.372 -1.38 0.063 -1.38 0.063 l 2.431 0.853 l -1.969 0.266 c 0 0 1.705 1.178 3.147 0.13 z" stroke-linecap="round" />
</g>
		<g transform="matrix(3.45 0 0 -3.35 270.47 -11.16)" id="path2172"  >
<path style="stroke: rgb(0,0,0); stroke-width: 0.1412148; stroke-dasharray: none; stroke-linecap: butt; stroke-dashoffset: 0; stroke-linejoin: miter; stroke-miterlimit: 4; fill: rgb(255,200,40); fill-rule: nonzero; opacity: 1;"  transform=" translate(-0.5, 0.56)" d="M 0 0 C 0 0 -0.636 -0.071 -0.853 0.035 C -1.074 0.151 -1.357 0.726 -1.187 0.744 C -0.853 0.782 0.085 0.504 0.076 0.372 C 0.038 0 -0.222 -1.263 -0.222 -1.263 c 0 0 0.151 0.149 0.411 0.111 c 0.259 -0.038 0.442 -0.742 0.442 -0.742 c 0 0 0.151 0.742 0.373 0.704 c 0.226 -0.035 0.523 -0.11 0.523 -0.11 c 0 0 -0.594 1.373 -0.556 1.712 c 0.033 0.332 1.262 0.37 1.262 0.37 c 0 0 -0.15 -0.447 -0.485 -0.598 c -0.334 -0.149 -0.707 0 -0.707 0" stroke-linecap="round" />
</g>
		<g transform="matrix(3.45 0 0 -3.35 271.5 2.41)" id="path2176"  >
<path style="stroke: rgb(0,0,0); stroke-width: 0.1412148; stroke-dasharray: none; stroke-linecap: butt; stroke-dashoffset: 0; stroke-linejoin: miter; stroke-miterlimit: 4; fill: rgb(255,200,40); fill-rule: nonzero; opacity: 1;"  transform=" translate(-5.48, -0.04)" d="m 0 0 l 0.123 -1.713 l 1.512 0.724 l 0.787 1.314 l -0.787 -1.314 l 0.193 -1.64 l 1.381 0.787 l 0.264 1.38 l -0.264 -1.38 l 0.655 -1.381 l 0.985 1.119 l 0.065 1.376 l -0.065 -1.376 l 1.248 -1.119 l 0.721 1.51 l -0.391 1.251 l 0.391 -1.251 l 1.645 -0.718 l 0.391 1.442 l -0.853 1.314 l 0.853 -1.314 l 2.101 0.459 l -1.051 2.431 M 3.642 2.973 c 0 0 0 -0.556 0.141 -0.778 c 0.151 -0.226 0.114 -0.56 0.302 -0.636 c 0.189 -0.073 0.222 0.41 0.443 0.377 c 0.226 -0.04 0 -0.45 0.188 -0.782 C 4.9 0.815 5.018 0.521 5.348 0.483 c 0.334 -0.038 0.523 0.41 0.56 0.782 c 0.033 0.37 -0.037 0.782 0.147 0.782 c 0.188 0 0.151 -0.561 0.334 -0.561 c 0.184 0 0 0.672 0.297 0.856 c 0.297 0.186 0.561 0.963 0.339 0.963 c -0.23 0 -0.113 -0.627 -0.673 -0.742 c -0.561 -0.11 -0.82 0 -0.929 0.226 c -0.113 0.222 -0.297 0.262 -0.297 0.262 c 0 0 0.071 -0.189 -0.108 -0.373 C 4.829 2.49 4.787 2.49 4.42 2.49 C 4.047 2.49 3.864 2.94 3.642 2.973 Z" stroke-linecap="round" />
</g>
		<g transform="matrix(1 0 0 1 194.4 0)" id="path2272"  >
<path style="stroke: none; stroke-width: 3.88002229; stroke-dasharray: none; stroke-linecap: butt; stroke-dashoffset: 0; stroke-linejoin: miter; stroke-miterlimit: 4; fill: rgb(255,200,40); fill-rule: nonzero; opacity: 1;"  transform=" translate(-794.4, -300)" d="m 778.2778 316.12193 l 4.92474 -11.48376 l -11.60255 -4.63824 l 11.60239 -4.63818 l -4.92445 -11.48382 l 11.48379 4.92456 l 4.63815 -11.60262 l 4.63809 11.60262 l 11.48398 -4.92462 l -4.92467 11.48388 l 11.60259 4.63812 l -11.60259 4.63818 l 4.92473 11.48394 l -11.48392 -4.92456 l -4.63815 11.60256 l -4.63821 -11.60268 z" stroke-linecap="round" />
</g>
		<g transform="matrix(1 0 0 1 405.6 0)" id="path871"  >
<path style="stroke: none; stroke-width: 3.88002229; stroke-dasharray: none; stroke-linecap: butt; stroke-dashoffset: 0; stroke-linejoin: miter; stroke-miterlimit: 4; fill: rgb(255,200,40); fill-rule: nonzero; opacity: 1;"  transform=" translate(-1005.6, -300)" d="m 1021.7222 316.12193 l -4.9247 -11.48376 l 11.6025 -4.63824 l -11.6024 -4.63818 l 4.9245 -11.48382 l -11.4838 4.92456 l -4.6382 -11.60262 l -4.6381 11.60262 l -11.48396 -4.92462 l 4.92468 11.48388 l -11.60261 4.63812 l 11.60261 4.63818 l -4.92474 11.48394 l 11.48392 -4.92456 l 4.6382 11.60256 l 4.6382 -11.60268 z" stroke-linecap="round" />
</g>
		<g transform="matrix(1 0 0 1 300 105.6)" id="path884"  >
<path style="stroke: none; stroke-width: 3.88002229; stroke-dasharray: none; stroke-linecap: butt; stroke-dashoffset: 0; stroke-linejoin: miter; stroke-miterlimit: 4; fill: rgb(255,200,40); fill-rule: nonzero; opacity: 1;"  transform=" translate(-900, -405.6)" d="M 916.122 421.72212 L 904.63824 416.79738 L 900 428.39988 L 895.36182 416.7975 L 883.878 421.72194 L 888.80256 410.23818 L 877.19994 405.6 l 11.60262 -4.63806 l -4.92462 -11.484 l 11.48388 4.92468 l 4.63812 -11.60262 l 4.63818 11.60262 l 11.48394 -4.92474 l -4.92456 11.48394 l 11.60256 4.63812 l -11.60268 4.63824 z" stroke-linecap="round" />
</g>
		<g transform="matrix(1 0 0 1 300 -105.6)" id="path886"  >
<path style="stroke: none; stroke-width: 3.88002229; stroke-dasharray: none; stroke-linecap: butt; stroke-dashoffset: 0; stroke-linejoin: miter; stroke-miterlimit: 4; fill: rgb(255,200,40); fill-rule: nonzero; opacity: 1;"  transform=" translate(-900, -194.4)" d="M 916.122 178.27772 L 904.63824 183.20247 L 900 171.59992 l -4.63818 11.60239 l -11.48382 -4.92445 l 4.92456 11.48379 l -11.60262 4.63815 l 11.60262 4.63809 l -4.92462 11.48398 l 11.48388 -4.92468 l 4.63812 11.60261 l 4.63818 -11.60261 l 11.48394 4.92474 l -4.92456 -11.48392 l 11.60256 -4.63815 l -11.60268 -4.63821 z" stroke-linecap="round" />
</g>
</g>
</g>
</svg>
