<svg xmlns="http://www.w3.org/2000/svg" xmlns:xlink="http://www.w3.org/1999/xlink" width="720" height="504" version="1.1" viewBox="-200 -140 400 280">
	<defs>
		<clipPath id="elipse_clip">
			<ellipse fill="#fff" cx="0" cy="25" rx="190" ry="240" />
		</clipPath>
		<linearGradient id="gradiente_praia" x1="-190" x2="157" gradientUnits="userSpaceOnUse">
			<stop offset="0" stop-color="#fff"/>
			<stop offset="1" stop-color="#fbc98d"/>
		</linearGradient>
		<linearGradient id="gradiente_serra1" x1="0" x2="0" y1="25" y2="-90" gradientUnits="userSpaceOnUse">
			<stop offset="0" stop-color="#2a6d3d"/>
			<stop offset="1" stop-color="#51a266"/>
		</linearGradient>
		<linearGradient id="gradiente_serra2" x1="0" x2="0" y1="20" y2="-32" gradientUnits="userSpaceOnUse">
			<stop offset="0" stop-color="#2a6d3d"/>
			<stop offset="1" stop-color="#51a266"/>
		</linearGradient>
		<linearGradient id="gradiente_sertão" x1="-17" x2="90" gradientUnits="userSpaceOnUse">
			<stop offset="0" stop-color="#e8a87a"/>
			<stop offset="1" stop-color="#cc7f4b"/>
		</linearGradient>
		<linearGradient id="gradiente_mar" x1="-191" x2="3" gradientUnits="userSpaceOnUse">
			<stop offset="0" stop-color="#54a6a9"/>
			<stop offset="1" stop-color="#7bbfc0"/>
		</linearGradient>
		<linearGradient id="gradiente_farol" x1="-110" x2="-50" gradientUnits="userSpaceOnUse">
			<stop offset="0" stop-color="#d3d2d2"/>
			<stop offset="1" stop-color="#fff"/>
		</linearGradient>
		<radialGradient id="gradiente_ceu" cx="-68" cy="-13" r="200" fx="-68" fy="-13" gradientUnits="userSpaceOnUse">
			<stop offset="0" stop-color="#f9facf"/>
			<stop offset="1" stop-color="#59c9ef"/>
		</radialGradient>
		<radialGradient id="gradiente_escudo_verde" cx="0" cy="60" fx="0" fy="60" r="425" gradientUnits="userSpaceOnUse">
			<stop offset="0" stop-color="#33a963"/>
			<stop offset="1" stop-color="#207d3d"/>
		</radialGradient>
		<radialGradient id="gradiente_escudo_branco" cx="0" cy="70" fx="0" fy="70" r="500" gradientUnits="userSpaceOnUse">
			<stop offset="0" stop-color="#fff"/>
			<stop offset="1" stop-color="#efefef"/>
		</radialGradient>
		<radialGradient id="gradiente_forte_inferior" cx="0" cy="-360" fx="0" fy="-360" r="175" gradientUnits="userSpaceOnUse">
			<stop offset="0" stop-color="#dcbb73"/>
			<stop offset="1" stop-color="#cea34d"/>
		</radialGradient>
		<radialGradient id="gradiente_merloes" cx="0" cy="-445" fx="0" fy="-445" r="175" gradientUnits="userSpaceOnUse">
			<stop offset="0" stop-color="#e7ce9a"/>
			<stop offset="1" stop-color="#d0a652"/>
		</radialGradient>
		<radialGradient id="gradiente_base_merloes" cx="0" cy="-417" fx="0" fy="-417" r="175" gradientUnits="userSpaceOnUse">
			<stop offset="0" stop-color="#ba9d57"/>
			<stop offset="1" stop-color="#ac8d3d"/>
		</radialGradient>
		<path id="estrela" fill="#fff" d="M0-25.39l16.46 50.66-43.09-31.3h53.26l-43.09 31.3z"/>
	</defs>
	<path id="retangulo" fill="#258f44" d="M-200,-140h400v280h-400z" />
	<path id="losangulo" fill="#fff200" d="M-166,0 0,-106 166,0 0,106z" />
	<circle fill="#fff" r="70" />
	<g id="brasao" transform="scale(.105263157895)">
		<g id="forte">
			<path fill="#613a21" d="m 193.7,-300 c -128.6,-20.3 -259.1,-18.9 -387.8,0 l -10.4,2.5 44.6,-106.5 3.2,-0.2 c 51.6,-8.4 104.3,-14.2 156.7,-14.4 52.3,-0.2 103.9,5.5 155.5,14.2 l 3.2,0.6 45.8,105.5 z"/>
			<path fill="#cfa550" d="m 154.44,-314.98 -4.7,-18.63 0.71,0.07 c 11.45,1.22 22.87,2.61 34.27,4.19 l 0.28,0.04 8.42,19.42 c -12.98,-1.9 -25.97,-3.6 -38.98,-5.09 z m 27.36,-19.81 a 1190.26,1190.26 0 0 0 -82.34,-8.1 l -0.4,-0.02 -2.97,-17.89 0.63,0.05 c 26.08,1.86 52.1,4.58 77.98,8.28 l 0.28,0.04 7.7,17.75 z m -10.03,-23.14 a 1084.9,1084.9 0 0 0 -28.74,-3.6 l -0.35,-0.05 -4.61,-18.28 0.72,0.09 c 8.53,1.02 17.04,2.14 25.54,3.37 l 0.28,0.04 8.04,18.55 z m -10.38,-23.94 a 1099.04,1099.04 0 0 0 -69.68,-7.52 l -0.4,-0.03 -3.12,-18.77 0.65,0.07 c 22,2.37 43.91,5.5 65.73,9.17 l 0.27,0.04 7.43,17.16 z m -78.36,-26.86 3.15,18.93 -0.63,-0.05 c -27.33,-1.93 -54.73,-2.9 -82.13,-2.93 h -0.5 v -20.29 h 0.5 c 26.46,0.07 52.9,1.63 79.23,4.3 z m -85.12,-4.33 0.02,20.29 h -0.5 a 1237.39,1237.39 0 0 0 -83.02,3.1 l -0.63,0.04 3.16,-18.92 0.38,-0.04 a 846.39,846.39 0 0 1 80.09,-4.46 z m -86.13,5.06 -3.13,18.76 -0.39,0.03 a 1173.6,1173.6 0 0 0 -70.66,7.5 l -0.87,0.13 7.21,-17.16 0.28,-0.05 a 1235.4,1235.4 0 0 1 66.9,-9.15 z m -77.03,31.74 a 1148.4,1148.4 0 0 1 26.3,-3.38 l 0.71,-0.09 -4.72,18.71 -0.35,0.04 c -9.79,1.09 -19.57,2.3 -29.33,3.62 l -0.87,0.12 7.98,-18.98 z m -10.23,24.34 c 26.12,-3.63 52.37,-6.38 78.67,-8.32 l 0.64,-0.05 -2.98,17.88 -0.4,0.03 a 1297.9,1297.9 0 0 0 -82.8,8.12 l -0.87,0.1 7.46,-17.73 z m -9.7,23.07 c 11.47,-1.53 22.95,-2.91 34.46,-4.13 l 0.71,-0.07 -4.8,19.17 c -13.01,1.46 -26,3.1 -38.99,4.88 l 8.34,-19.8 z m 35.66,14.38 4.8,-19.12 0.35,-0.04 c 30.83,-3.1 61.77,-5.1 92.73,-6.17 l 0.57,-0.02 -1.7,17.94 a 1486.7,1486.7 0 0 0 -96.75,7.41 z m 101.8,-7.62 1.69,-17.9 0.44,-0.01 a 1598.89,1598.89 0 0 1 91.01,-0.28 h 0.44 l 1.68,17.67 a 1375.4,1375.4 0 0 0 -95.26,0.52 z m 100.3,-0.36 -1.68,-17.68 0.57,0.02 c 30.92,0.92 61.84,2.82 92.62,5.93 l 0.35,0.03 4.7,18.59 c -32.14,-3.53 -64.34,-5.8 -96.57,-6.89 z m 80.18,-58.02 4.62,18.32 -0.71,-0.07 a 1200.7,1200.7 0 0 0 -87.7,-6 l -0.44,-0.02 -1.56,-18.68 0.57,0.02 c 28.35,1.08 56.68,3.19 84.87,6.4 z m -90.82,-6.63 1.56,18.7 -0.56,-0.01 c -27.64,-0.78 -55.3,-0.7 -82.94,0.18 l -3.66,0.12 1.57,-18.87 0.44,-0.01 c 27.7,-0.99 55.44,-1.04 83.15,-0.12 z m -89.06,0.31 -1.57,18.86 -0.45,0.02 a 1312.75,1312.75 0 0 0 -87.8,6.24 l -0.72,0.08 4.73,-18.74 0.35,-0.04 a 1189.28,1189.28 0 0 1 84.9,-6.4 z m -43.53,26.1 a 1419.05,1419.05 0 0 1 88.06,-3.24 h 0.5 l 0.02,18.16 h -0.5 a 1547.25,1547.25 0 0 0 -90.83,2.99 l -0.63,0.04 2.99,-17.91 z m 94.06,-3.25 c 29.07,-0.04 58.15,0.85 87.15,2.77 l 0.4,0.03 2.99,17.93 -0.63,-0.04 a 1475.87,1475.87 0 0 0 -89.9,-2.54 h -0.5 v -18.15 "/>
			<path fill="#613a21" d="m -113.82,-451.15958 v -18.01 l 5.41,-0.53 a 1294.9,1294.9 0 0 1 43.34,-3.55 l 6.39,-0.42 19.15,18.17 11.99,-0.35 v -18.93 l 5.93,-0.07 a 2260,2260 0 0 1 43.25,-0.07 l 5.95,0.05 v 18.89 l 12.17,0.3 18.97,-17.99 v -0.19 l 6.38,0.4 c 14.46,0.92 28.92,2.09 43.34,3.5 l 5.42,0.54 v 18.24 l 31.13,-14.18 7,1.17 c 14.49,2.43 28.94,5.09 43.35,7.97 l 4.83,0.97 v 24.29 l -0.69,1.3 -10.22,22 -12.22,10.65 -2.04,1.55 -2.53,-0.4 c -51.6,-8.28 -103.47,-13.3 -155.73,-14.16 -62.95,-1.04 -125.26,4.01 -187.42,13.79 l -2.5,0.4 -2.03,-1.53 -14.37,-10.7 -9.87,-21.66 -0.65,-1.28 v -24.27 l 4.85,-0.95 a 1413.1,1413.1 0 0 1 43.32,-7.8 l 6.97,-1.13 z"/>
			<path fill="#cfa550" d="m -151,-439.82 c 14.36,-2 28.7,-3.8 43.1,-5.4 v -18.6 c 14.4,-1.4 28.73,-2.6 43.14,-3.53 v 18.76 c 14.37,-0.68 28.73,-1.17 43.14,-1.5 v -18.85 c 14.36,-0.16 28.73,-0.18 43.13,-0.07 v 18.82 c 14.37,0.26 28.73,0.7 43.14,1.33 v -18.7 c 14.37,0.9 28.73,2.07 43.14,3.49 v 18.47 c 14.40647,1.57628 28.7852,3.39654 43.13,5.46 v -18.2 c 14.43385,2.41775 28.82895,5.06141 43.18,7.93 v 17.89 c -2.47,4.7 -4.93,9.4 -7.4,14.1 h -0.2 c -63.8,-10.11 -122,-16 -186.5,-15.8 -60.9,0.2 -126.85,5.8 -186.95,15.4 l -0.1,0.11 c -2.37159,-4.58566 -4.72827,-9.17902 -7.07,-13.78 v -17.89 c 14.33841,-2.81279 28.72019,-5.39978 43.14,-7.76 z"/>
			<path fill="#cfa550" d="m -171.6,-402.16 c -5.48,-4.1 -8.9,-6.6 -14.37,-10.7 129.38,-20.73 241.1,-20.26 371.61,0.42 l -12.21,10.65 c -117.7,-18.86 -224.56,-19.32 -345.04,-0.37 z"/>
			<path id="path2107" fill="#dcc89c" d="M125.16-449.56l19.83-8.78v11.37c-6.6-.91-13.21-1.78-19.83-2.59zm-270.12-8.78v11.63c6.79-.92 13.58-1.79 20.39-2.6zm97.67 3.1l-11.4-10.98v11.43c3.8-.16 7.6-.32 11.4-.46zm94.83-.21l11.18-10.77v11.18c-3.73-.15-7.45-.29-11.18-.41z"/>
			<g id="porta">
				<path fill="#613a21" d="M-34.98-325.84c.76-7.27 1.33-14.5 2.58-21.72 3.17-18.3 10.92-36.6 32.45-36.6 7.32 0 14.07 2.1 19.55 7.06 13 11.76 13.79 34.8 15.48 51.1l.58 5.6-71.24.2z"/>
				<path fill="#e7cf9c" d="M-23.22-325.44c1.45-16.16 1.49-47.1 23.1-47.1 22.23 0 22.27 30.47 23.88 46.99l6.35.07c-2.14-20.6-2.83-53.68-30.06-53.68-26.62 0 -27.93 33.6-30.06 53.84l6.8-.12z"/>
			</g>
			<g id="janela1">
				<path fill="#613a21" d="M-87.55-331.27c-5.6.54-11.22.65-16.82 1.12l-14.98 1.24 1.35-14.98c1.08-11.88 3.03-23.67 4.1-35.55l.28-3.14 1.73-2.64c5.5-8.41 15.5-14.28 25.7-11.54 6.29 1.68 11.01 6.24 13.57 12.15l1.36 3.15-.42 3.41c-1.47 11.93-3.05 23.85-4.54 35.77l-1.26 10.04z"/>
				<path fill="#e7cf9c" d="M-88.16-337.56c-5.55.54-11.16.65-16.73 1.1l-7.5.63.68-7.5c1.08-11.88 3.03-23.65 4.1-35.54l.15-1.57.86-1.32c3.99-6.1 11.24-10.92 18.78-8.9 4.4 1.19 7.61 4.43 9.4 8.56l.68 1.57-.21 1.71c-1.47 11.92-3.05 23.83-4.54 35.75l-.63 5.02z"/>
				<path fill="#613a21" d="M-88.77-343.85c1.64-13.04 2.93-22.7 4.54-35.74-3.3-7.65-11.94-6.58-17.08 1.3-1.2 13.23-2.9 22.3-4.1 35.54 6.73-.56 11.45-.6 16.64-1.1z"/>
			</g>
			<g id="janela2">
				<path fill="#613a21" d="M84.25-331.27c5.6.54 11.22.65 16.82 1.12l14.99 1.24-1.36-14.98c-1.07-11.88-3.02-23.67-4.1-35.55l-.28-3.14-1.73-2.64c-5.5-8.41-15.5-14.28-25.7-11.54-6.29 1.68-11.01 6.24-13.57 12.15l-1.36 3.15.42 3.41c1.47 11.93 3.05 23.85 4.55 35.77l1.25 10.04z"/>
				<path fill="#e7cf9c" d="M84.85-337.56c5.56.54 11.16.65 16.73 1.1l7.5.63-.68-7.5c-1.07-11.88-3.02-23.65-4.1-35.54l-.13-1.57-.86-1.32c-4-6.1-11.24-10.92-18.78-8.9-4.41 1.19-7.62 4.43-9.4 8.56l-.69 1.57.22 1.71c1.47 11.92 3.04 23.83 4.54 35.75l.63 5.02 5.03.5z"/>
				<path fill="#613a21" d="M85.47-343.85c-1.64-13.04-2.93-22.7-4.54-35.74 3.3-7.65 11.94-6.58 17.08 1.3 1.2 13.23 2.9 22.3 4.1 35.54-6.72-.56-11.45-.6-16.64-1.1z"/>
			</g>
		</g>
		<path id="escudo_contorno" fill="#231f20" d="M-5.23 464.88c-12.82-24.85-43.8-46.04-67.05-60.41-34.9-21.57-72.32-39.95-108.47-59.4-34.76-18.7-70.63-38.92-101.5-63.58-26.52-21.17-51.7-47.78-61.82-80.88a107.16 107.16 0 0 1-4.71-31.43c0-49.73 17.27-94.4 35.8-139.65 13.81-33.73 33.54-76.8 29.43-113.88-4.2-37.77-30.57-63.72-61.05-83.4l-5.4-3.5 101.85-131.13 2.23-.39c163.22-27.82 328.97-31.44 491.97.03l2.15.41L350-171.25l-5.4 3.5c-30.48 19.68-56.85 45.63-61.04 83.4-4.12 37.07 15.61 80.15 29.42 113.88 18.53 45.26 35.8 89.92 35.8 139.65a107.1 107.1 0 0 1-4.7 31.43c-10.13 33.1-35.3 59.71-61.82 80.88-30.87 24.66-66.75 44.89-101.5 63.58-36.16 19.45-73.58 37.83-108.48 59.4-23.26 14.37-54.23 35.56-67.05 60.4L0 475l-5.22-10.12z"/>
		<path id="escudo_branco" fill="#f5f5f5" d="M0 462.2c-49-95-342.9-150.67-342.9-293.02s148.46-246.95 1.5-341.85L-244.93-297c172.99-29.5 336.08-29.68 489.86 0 l96.47 124.32c-146.96 94.9 1.5 199.5 1.5 341.85C342.9 311.53 49 367.3 0 462.2z"/>
		<path id="escudo_verde_contorno" fill="#231f20" d="M-4.1 418.93c-15.66-15.23-34.16-27.92-52.7-39.37-35.57-21.98-73.19-40.48-110-60.28-48.85-26.27-132.04-71.25-149.16-127.22a78.07 78.07 0 0 1-3.43-22.88c0-45.22 16.75-87.37 33.62-128.58 16.25-39.66 35.8-84.38 30.93-128.18-3.96-35.69-23.09-63.54-50.04-86.25l-4.33-3.65 77.15-97.9 2.26-.37c152.35-24.9 307.3-28.13 459.5-.25l2.19.4 77.33 98.12-4.34 3.65c-26.95 22.71-46.07 50.56-50.04 86.25-4.86 43.8 14.69 88.52 30.93 128.18 16.87 41.2 33.62 83.36 33.62 128.58 0 69.34-99.58 121.6-152.59 150.1-36.8 19.8-74.43 38.3-110 60.28-18.54 11.45-37.04 24.14-52.7 39.37l-4.1 4-4.1-4z"/>
		<path id="escudo_verde" fill="#258f44" d="M0 414.74c16.21-15.78 35.71-29.05 53.7-40.16 35.54-21.96 73.5-40.66 110.3-60.46 49.73-26.74 149.51-78.69 149.51-144.94 0 -44.33-16.65-85.98-33.19-126.37C263.62 2.03 244-43.22 249-88.22c4.2-37.87 24.61-66.94 52.09-90.09l-72.45-91.93c-151.64-27.78-305.66-24.55-457.5.27l-72.23 91.66c27.47 23.15 47.88 52.22 52.09 90.09 5 45-14.63 90.25-31.33 131.03-16.54 40.39-33.19 82.04-33.19 126.37 0 7.2 1.07 14.28 3.18 21.17 16.5 53.95 99.8 98.75 146.33 123.77 36.8 19.8 74.77 38.5 110.31 60.46 17.98 11.11 37.49 24.38 53.7 40.16z"/>
		<path id="fenda" stroke="#231f20" stroke-width="8" d="M 245,270-260,-235"/>
		<ellipse id="ellipse2134" cx="0" cy="25" fill="#231f20" rx="200" ry="250"/>
		<g id="interior_elipse" clip-path="url(#elipse_clip)">
			<path id="ceu" fill="#80d6f7" d="M190 20h-380v-245h380z"/>
			<g id="sol">
				<path id="raios" stroke="#b49700" stroke-width="5" d="M -83,25 -377.23,-33.52 M -83,25 -360.16,-89.8 M -83,25 -332.44,-141.67 M -83,25 -295.13,-187.13 M -83,25 -249.67,-224.44 M -83,25 -197.8,-252.16 M -83,25 -141.52,-269.23 M -83,25 v -300 m 0,300 58.52,-294.23 M -83,25 31.8,-252.16 M -83,25 83.67,-224.44 M -83,25 129.13,-187.13 M -83,25 166.44,-141.67 M -83,25 194.16,-89.8 M -83,25 211.23,-33.52 M -150.5,25 a 67.5,67.5 0 0 1 135,0"/>
				<path fill="#fbc707" d="m -148,25 a 65,65 0 0 1 130,0 z"/>
			</g>
			<path id="praia" fill="#fcd7a8" d="m -49,62 c -3.69,13.76 2.18,30.2 7.64,42.74 8,18.34 18.4,35.92 27.33,53.86 16.33,32.97 30.43,70.9 13.83,106.3 l 138.4,0 V 195.25 C 96.84,173.81 39.58,169.24 7.6,135.37 -24.89,101 -29.61,61.13 -10.8,30.23 -26.15,35.59 -44.6,45.73 -49,62 Z"/>
			<path id="serra1_contorno" fill="#231f20" d="M95.7-33.1c26.8-2.86 22.8-57.4 70.5-57.9h23.6l.2 116H-8C-4 13.2 6.2-1.8 13.9-11.5c6.2-7.8 13.4-15.6 21.3-21.6 6-4.6 14.4-9.7 22.3-8.4 5.4.9 10.9 2.3 16.2 3.7 4.7 1.2 17.5 5.17 22 4.7z"/>
			<path id="serra1" fill="#2a723f" d="M96.26-28.16c-7.33.78-26.88-6.4-39.55-8.45C39.36-39.4 5.27 2.8-2.13 24.93L190 25V-86h-24c-44.78.47-38.82 54.54-69.74 57.84z"/>
			<path id="serra2_contorno" fill="#231f20" d="M190 25H71.1l14.72-8.28c13.18-8.27 23.01-18.1 33.5-29.39 6.8-7.32 15.52-17.5 25.78-19.46 2.15-.41 4.31-.48 6.48-.22 5.66.67 11.35 1.8 16.94 2.9 4.85.96 9.7 1.97 14.57 2.78L190-25.5z"/>
			<path id="serra2" fill="#2a723f" d="M186.18-21.15c-9.76-1.28-24.68-5-35.18-6.25-18.42-2.2-40 42-73 52.4h112v-45.5l-3.8-.6z"/>
			<path id="sertão" fill="#cd7f4b" d="M-2 25c-17.4 27.4-26 65.4 13.22 107 31.11 32.95 88.1 37.36 130 59.3H190V25z"/>
			<path id="mar" fill="#54a7aa" d="M-8 25c-126.2 40 49 148.4 3 239.9l-185 .1V25z"/>
			<g id="jangada">
				<path fill="#231f20" d="m -117.19,163.81 c -20.75,-42.34 -20.68,-83.74 23.62,-108.74 l 15.5,-8.76 -8.68,15.55 c -3.25,5.82 -5.11,12.1 -4.43,18.81 2.06,20.38 28.76,41.22 43.64,53.01 l 8.39,6.64 -10.48,2.18 c -20.6,4.27 -42.86,10.8 -60.16,23.18 l -4.8,3.43 z"/>
				<path fill="#fff" d="m -112.7,161.6 c -23.95,-48.87 -13.49,-82.38 21.58,-102.18 -15.96,28.59 6.83,51.52 40.48,78.18 -23.77,4.93 -45.34,12.06 -62.06,24 z"/>
				<path fill="#231f20" d="m -58.73,162.68 h -10.91 c 0.05,-0.2 0.08,-0.42 0.08,-0.63 v -6 a 2.54,2.54 0 0 0 -2.54,-2.53 h -6.02 a 2.54,2.54 0 0 0 -2.53,2.53 v 6 c 0,0.21 0.03,0.42 0.08,0.63 h -43.52 v -3.8 h -8.5 v 3.8 h -9.54 c -2.48,1.95 -2.48,4.37 0,7.26 26.8,4.49 54.6,4.48 83.4,0 2.47,-2.42 2.47,-4.84 0,-7.26 z"/>
			</g>
			<path id="horizonte" stroke="#231f20" stroke-width="5" d="M195 22.5h-395"/>
			<g id="farol" fill="#231f20">
				<path id="luz" fill="#fbc707" d="m -70.5,-103 v 8 h -25 v -8 z"/>
				<circle	cx="-83" cy="-123" r="9" fill="#231f20"/>
				<circle	cx="-83" cy="-123" r="4" fill="#fff"/>
				<path fill="#fff" stroke="#231f20" stroke-width="5" d="m -93,-83.5 h 20 l 4,64 h -28 z"/>
				<path fill="#fff" stroke="#231f20" stroke-width="5" d="m -65.5,-93.5 v 15 h -35 v -15 z"/>
				<path d="m -50,25 h -66 v -92 h 66 z"/>
				<path fill="#fff" d="m -103,-62 v 8.3 h 8 V -62 h 8 v 8.3 h 8 V -62 h 8 v 8.3 h 8 V -62 h 8 v 82 h -56 v -82 z"/>
				<path d="M -76,2 V 21 H -90 V 2 c 0,-5 3,-8 7,-8 4,0 7,3 7,8 z"/>
				<path d="m -90,-21 v -14 h 14 v 14 z"/>
				<path d="m -53,-45 v 5 h -60 v -5 z"/>
				<path d="m -53,-16 v 5 h -60 v -5 z"/>
				<path d="m -83,-123 c 10,0 18,6 18,15 v 6 h -36 v -6 c 0,-9 9,-15 18,-15 z"/>
				<path fill="#fff" d="m -83,-118 c 7,0 13,5 13,10 v 1 h -26 v -1 c 0,-5 6,-10 13,-10 z"/>
				<path d="m -92,-95 h -5 v -8 h 5 z"/>
				<path d="m -80.5,-95 h -5 v -8 h 5 z"/>
				<path d="m -69,-95 h -5 v -8 h 5 z"/>
			</g>
			<g id="passaro" fill="#231f20">
				<path d="m 9.45,-139.08 c 16.99,-0.33 33.77,1.25 49.83,7.13 13.77,5.04 25.8,12.8 36.42,22.9 l 7.78,7.38 -36.6,4.16 -1.72,-1.94 c -15.84,-17.8 -35.91,-20.9 -57.53,-27.22 -3.76,-1.09 -10.98,-2.1 -10.22,-7.7 0.78,-5.6 8.12,-4.63 12.04,-4.71 z"/>
				<path fill="#fff" d="m 9.55,-134.08 c 16.46,-0.32 32.57,1.18 48.01,6.82 12.01,4.4 23.63,11.31 34.7,21.83 l -23.36,2.65 C 51.97,-121.8 30.82,-125.1 9.03,-131.47 c -9.14,-2.66 -8.77,-2.43 0.52,-2.6 z"/>
				<path d="m 121,-123.04 a 12.16,12.16 0 0 1 5.74,9.12 c 2.7,3.9 2.8,10.36 -1.53,13.18 -7.07,4.59 -14.46,5.07 -21.67,7.35 3.6,11.47 9.62,22.63 9.23,34.93 a 64.23,64.23 0 0 1 -0.62,7.11 c -2.38,17.1 -10.76,32.17 -13.7,48.75 -0.59,3.29 0.03,9.88 -5.44,10.07 -5.55,0.19 -5.32,-6.35 -5.9,-9.62 -2.06,-11.64 -2.92,-23.8 -4.22,-35.57 -1.2,-10.96 -3.5,-32.21 -9.64,-41.92 a 67.03,67.03 0 0 0 -12.94,-6.09 l -0.12,-0.03 -0.1,-0.05 c -2.96,-1.2 -7,-1.72 -10.29,-2.02 -3.2,0.8 -7,1.23 -10.16,2.1 l -7.6,2.1 1.34,-7.76 a 46.1,46.1 0 0 1 3.45,-10.65 c 2.94,-6.68 8.18,-11.25 15.7,-10.68 l 22.94,-4.78 0.69,0.04 c 4.04,0.29 8.37,-0.8 12.16,-2.11 4.22,-1.46 8.26,-3.38 12.3,-5.3 3.06,-1.47 7.02,-3.51 10.34,-4.15 4.06,-0.8 8.42,2.23 10.03,5.98 z"/>
				<path fill="#fff" d="m 75.82,-112.47 c 13.63,0.95 29.6,-10.38 36.1,-11.64 2.2,-0.43 6.14,3.27 4.22,5.14 -1.26,1.2 -8.64,3.96 -10.74,5.07 -1.38,0.73 10.41,-5.48 11.97,-5.24 3.3,0.5 5.34,5.95 3.87,7.1 0,0 -10.5,2.86 -13.67,4.31 -2.91,1.33 8.75,-4.08 13.67,-4.31 1.77,-0.09 3.76,5.48 1.26,7.1 -7.4,4.81 -17.2,5.02 -25,8.5 2.96,11.92 10.67,25.51 10.29,37.82 -0.6,19.21 -11.06,37.18 -14.26,55.15 -1.25,7.03 -0.05,8.6 -1.48,0.45 -4.15,-23.44 -4.4,-64.86 -15.22,-80.28 a 71.2,71.2 0 0 0 -14.86,-7.14 c -2.88,-1.17 -7.08,-1.98 -12.59,-2.45 -2.98,0.83 -8.59,2.02 -11.57,2.85 0.96,-5.59 4.51,-18.95 15,-17.63 z"/>
				<path d="m 51.77,-98.6 c 1.28,0.1 2.38,-0.9 2.47,-2.23 a 2.4,2.4 0 0 0 -2.13,-2.6 c -1.26,-0.1 -2.37,0.9 -2.46,2.24 a 2.4,2.4 0 0 0 2.12,2.6 z" />
				<path d="m 90.5,-64.3 3.85,-1.2 10.2,35 -3.2,3.3 z"/>
				<path d="m 95.3,-71.1 3.5,-1.8 10.5,22.2 -2,4.7 z"/>
				<path d="m 117.1,-121.6 4,2.5 -16.6,7.8 -1.8,-3.5 z"/>
				<path d="m 122.9,-113.1 1.8,3.7 -18.1,4.3 -0.8,-4 z"/>
			</g>
			<g id="carnauba" fill="#231f20">
				<path d="m 69.03,121.64 c 1.96,-7.85 3.95,-14.27 7.7,-20.82 l -9.25,9.25 -2.83,-2.83 7.38,-7.38 a 52.03,52.03 0 0 0 -14.18,12.59 l -0.23,1.07 0.03,1.31 1.73,17.58 8.67,-9.15 0.65,-0.7 0.32,-0.86 0.02,-0.06 z m 24.13,-12.48 c 0.21,7.79 0.45,15.56 0.7,23.35 l 3.62,-8.41 v -0.5 l -0.18,-0.28 c -1.36,-5.1 -2.48,-9.73 -4.14,-14.16 z m 1,32.75 c 0.73,22.18 1.51,44.36 1.96,66.55 l 0.08,4.08 H 73.3 l 2.38,-71.54 -3.16,-7.33 0.16,11.5 -4,0.04 -0.14,-10.93 -3.89,10.32 -3.74,-1.41 4.12,-10.94 -7.72,8.15 -2.9,-2.76 1.32,-1.4 -1.16,-11.8 -3.04,11.5 -3.87,-1.03 2.97,-11.2 -6.54,9.42 -3.29,-2.28 7.29,-10.48 -10.06,6.47 -2.17,-3.37 9.45,-6.07 -3.19,0.66 -1.15,2.04 -2.33,-1.31 -4.28,0.9 -0.82,-3.92 1.15,-0.24 -2.4,-2.3 9.7,-10.15 -11.87,6.94 -2.02,-3.45 13.03,-7.61 -14.57,3.27 -0.88,-3.9 12,-2.7 -12.28,-0.43 0.13,-4 13.7,0.48 -13.15,-4.3 1.24,-3.8 13.06,4.26 -6.89,-4.66 -1.05,0.17 -0.15,-0.99 -3.49,-2.36 2.25,-3.31 3.4,2.3 8.73,-1.39 -12.69,-1.39 0.44,-3.98 14.38,1.58 -12.98,-5.64 1.6,-3.67 13.07,5.69 -10.79,-9.33 2.62,-3.03 10.72,9.28 -7.65,-12.3 2.91,-1.8 0.78,-1.9 4.1,1.68 -0.43,-1.64 1.68,-0.45 -3.28,-2.43 2.38,-3.21 12.49,9.25 -9.25,-12.06 3.18,-2.43 10.08,13.15 -5.54,-15.4 3.76,-1.35 4.67,12.96 -1.21,-13.7 3.98,-0.35 1.34,15.1 2.97,-15.02 3.92,0.78 -2.94,14.9 4.4,-8.56 -1.44,-2.82 3.55,-1.83 0.15,0.28 0.44,-0.85 3.55,1.84 -1.74,3.38 4.7,9.12 -2.94,-14.9 3.92,-0.77 2.97,15.03 1.34,-15.12 3.98,0.36 -1.2,13.7 4.66,-12.96 3.76,1.35 -5.54,15.4 10.08,-13.15 3.18,2.43 -9.25,12.06 12.49,-9.25 2.38,3.21 -2.61,1.94 1.4,0.37 -0.54,2.1 3.82,-1.57 0.53,1.27 0.16,-0.25 3.4,2.11 -7.65,12.3 10.72,-9.28 2.62,3.03 -10.78,9.33 13.08,-5.69 1.6,3.67 -13,5.64 14.4,-1.58 0.43,3.98 -12.69,1.4 9.76,1.54 3.64,-2.46 2.24,3.31 -4.91,3.33 v 0.03 h -0.04 l -6.64,4.5 13.05,-4.28 1.25,3.8 -13.16,4.3 13.7,-0.47 0.14,4 -12.3,0.43 12.02,2.7 -0.88,3.9 -14.57,-3.27 13.03,7.6 -2.02,3.46 -11.88,-6.94 9.7,10.15 -2.4,2.3 1.15,0.24 -0.82,3.91 -4.27,-0.89 -2.33,1.31 -1.15,-2.04 -3.2,-0.66 9.45,6.07 -2.16,3.37 -10.06,-6.47 7.28,10.48 -3.28,2.28 -6.54,-9.41 2.97,11.19 -3.87,1.02 -3.05,-11.48 -1.15,11.8 1.32,1.4 -2.9,2.75 -7.73,-8.15 4.13,10.94 -3.74,1.4 -3.9,-10.3 -0.13,10.92 -4,-0.05 0.15,-11.49 -3.54,8.23 z M 76,131.63 76.72,110.09 a 96.3,96.3 0 0 0 -3.65,11.89 c -0.1,0.43 -0.21,0.85 -0.36,1.27 l 0.05,0.85 z M 109.7,79.8 a 78.53,78.53 0 0 0 -11.27,5.57 l 12.73,-2.18 0.68,3.94 -10.84,1.85 c 5.16,0.17 10.28,0.98 15.15,2.61 l 0.51,0.15 0.57,-0.17 13.49,-9.14 -18.48,-2.93 -1.48,-0.2 z m -18.12,5.4 c 5.25,-4.04 11.72,-7.17 17.03,-9.27 l 0.59,-0.31 0.1,-0.64 3.95,-15 -15.16,6.2 -0.88,0.37 -0.61,0.82 a 60.31,60.31 0 0 0 -6.52,13.46 l 11.02,-12.7 3.02,2.63 z m 20.85,27.08 A 47.82,47.82 0 0 0 96.7,98.92 l 8.38,8.7 -2.88,2.77 -7.5,-7.78 c 2.87,5.8 4.34,11.72 6.16,18.55 l 0.39,1.45 0.94,0.65 8.67,9.15 1.73,-17.58 0.17,-1.38 -0.32,-1.17 z M 87.03,77.46 A 63.95,63.95 0 0 1 93.1,65.41 l 0.2,-0.47 -0.05,-0.57 -9.1,-17.68 -8.82,17.1 0.17,1.04 A 64.39,64.39 0 0 1 83.05,80.6 V 62.9 h 4 v 14.55 z m 27.62,17.85 a 48.61,48.61 0 0 0 -13.07,-2.3 l 9.59,3.14 -1.25,3.8 -7.94,-2.6 a 52.66,52.66 0 0 1 14.8,14.08 l 0.14,0.2 0.01,0.02 8.57,1.8 -9.5,-16.86 -0.49,-0.85 -0.87,-0.43 z m -0.12,-40.17 0.52,-1.94 -5.23,3.87 z m 3.36,2.95 -1.8,6.8 5.07,-8.13 z M 72,66.79 71.45,66.06 70.5,65.62 l -14.89,-6.1 4.08,15.46 0.68,0.95 c 5.95,2.35 13.33,5.97 18.83,10.73 l 0.14,0.03 -14.4,-14.86 2.87,-2.79 10.89,11.27 A 60.15,60.15 0 0 0 72,66.8 Z M 58.87,79.6 57.86,79.29 56.74,79.5 39.29,82.27 53,91.57 l 0.57,0.12 0.53,-0.07 a 56.8,56.8 0 0 1 14.96,-2.63 l -10.85,-1.86 0.68,-3.94 11.22,1.92 z m 9.5,17.82 -8.13,2.75 -1.28,-3.8 L 68.98,93 c -4.56,0.22 -9.08,0.98 -13.38,2.34 l -0.76,0.46 -0.62,0.79 -9.5,16.85 8.6,-1.8 0.32,-0.4 0.42,-0.44 a 57.08,57.08 0 0 1 14.3,-13.38 z m -24.63,9.64 -7.87,8.24 3.67,-0.77 z m 7.24,-49.43 -3.49,-1.42 5.4,8.68 z m 3.36,-2.95 4.44,1.82 -4.93,-3.65 z m 76.38,59.85 3.67,0.77 -7.87,-8.24 z"/>
				<path d="m 81.32,92.31 -3.9,116.22 h 14.7 c -0.8,-39.37 -2.56,-76.84 -3.35,-116.22 -2.87,-3.92 -5.26,-3.05 -7.45,0 z"/>
				<path fill="#a4835b" d="m 81.32,92.31 -0.18,5.6 7.89,5.94 -0.15,-6.37 -7.3,-5.5 z m -3.67,109.6 -0.2,6.11 0.68,0.51 h 8.3 z m 0.4,-12.23 -0.2,6.1 14.23,10.72 -0.15,-6.36 z m 0.42,-12.24 -0.2,6.11 13.5,10.18 -0.17,-6.39 z m 0.41,-12.23 -0.2,6.1 12.74,9.6 -0.2,-6.4 z m 0.4,-12.24 -0.2,6.11 11.94,9 -0.2,-6.42 z m 0.42,-12.23 -0.2,6.1 11.1,8.38 -0.21,-6.43 z m 0.41,-12.24 -0.2,6.11 10.26,7.74 -0.2,-6.42 z m 0.41,-12.23 -0.2,6.1 9.44,7.12 -0.2,-6.41 z m 0.41,-12.23 -0.2,6.1 8.64,6.51 -0.18,-6.4 z"/>
			</g>
		</g>
		<use transform="translate(-215 -121)" xlink:href="#estrela"/>
		<use transform="translate(-232 10)" xlink:href="#estrela"/>
		<use transform="translate(-253 128)" xlink:href="#estrela"/>
		<use transform="translate(-212 222)" xlink:href="#estrela"/>
		<use transform="translate(-110 290)" xlink:href="#estrela"/>
		<use transform="translate(0 333)" xlink:href="#estrela"/>
		<use transform="translate(110 290)" xlink:href="#estrela"/>
	</g>
</svg>
