<?xml version="1.0" encoding="UTF-8" standalone="no"?>
<!-- Created with Inkscape (http://www.inkscape.org/) -->

<svg
   xmlns:dc="http://purl.org/dc/elements/1.1/"
   xmlns:cc="http://creativecommons.org/ns#"
   xmlns:rdf="http://www.w3.org/1999/02/22-rdf-syntax-ns#"
   xmlns:svg="http://www.w3.org/2000/svg"
   xmlns="http://www.w3.org/2000/svg"
   xmlns:sodipodi="http://sodipodi.sourceforge.net/DTD/sodipodi-0.dtd"
   xmlns:inkscape="http://www.inkscape.org/namespaces/inkscape"
   width="175.15427mm"
   height="122.50209mm"
   viewBox="0 0 175.15427 122.50209"
   version="1.1"
   id="svg8"
   inkscape:version="0.92.4 (5da689c313, 2019-01-14)"
   sodipodi:docname="Bandeira do Estado do Paraná.svg">
  <defs
     id="defs2" />
  <sodipodi:namedview
     id="base"
     pagecolor="#ffffff"
     bordercolor="#666666"
     borderopacity="1.0"
     inkscape:pageopacity="0.0"
     inkscape:pageshadow="2"
     inkscape:zoom="0.70710678"
     inkscape:cx="393.87932"
     inkscape:cy="188.92173"
     inkscape:document-units="mm"
     inkscape:current-layer="layer1"
     showgrid="false"
     inkscape:window-width="1280"
     inkscape:window-height="658"
     inkscape:window-x="-8"
     inkscape:window-y="-8"
     inkscape:window-maximized="1"
     showguides="false"
     inkscape:lockguides="true"
     fit-margin-top="0"
     fit-margin-left="0"
     fit-margin-right="0"
     fit-margin-bottom="0" />
  <metadata
     id="metadata5">
    <rdf:RDF>
      <cc:Work
         rdf:about="">
        <dc:format>image/svg+xml</dc:format>
        <dc:type
           rdf:resource="http://purl.org/dc/dcmitype/StillImage" />
        <dc:title />
      </cc:Work>
    </rdf:RDF>
  </metadata>
  <g
     inkscape:label="Camada 1"
     inkscape:groupmode="layer"
     id="layer1"
     transform="translate(-1261.1788,-101.7379)">
    <g
       id="g1304"
       transform="translate(25.929167,-5.2916666)"
       inkscape:export-xdpi="435.04507"
       inkscape:export-ydpi="435.04507">
      <g
         id="g1286">
        <rect
           style="opacity:1;fill:#ffffff;fill-opacity:1;fill-rule:evenodd;stroke:none;stroke-width:0.5;stroke-linecap:butt;stroke-linejoin:miter;stroke-miterlimit:4;stroke-dasharray:none;stroke-dashoffset:0;stroke-opacity:1;paint-order:normal"
           id="rect4575"
           width="175.15408"
           height="122.50198"
           x="1235.2496"
           y="107.02957"
           inkscape:export-xdpi="435.04553"
           inkscape:export-ydpi="435.04553" />
        <path
           id="path4566"
           d="m 1294.0115,107.02958 116.3924,63.67518 v -63.67518 z m -58.7618,58.8269 v 63.67518 h 116.3924 z"
           style="opacity:1;fill:#008c43;fill-opacity:1;fill-rule:evenodd;stroke:none;stroke-width:0.5;stroke-linecap:butt;stroke-linejoin:miter;stroke-miterlimit:4;stroke-dasharray:none;stroke-dashoffset:0;stroke-opacity:1;paint-order:normal"
           inkscape:connector-curvature="0" />
      </g>
      <g
         id="g1260">
        <g
           id="g959">
          <path
             inkscape:connector-curvature="0"
             id="path4589"
             d="m 1352.4714,168.49256 -0.4883,0.21807 c -2.113,-1.02178 -4.2371,-1.97488 -6.3717,-2.85616 -2.1346,-0.88127 -4.2799,-1.69095 -6.4348,-2.4262 -2.1548,-0.73526 -4.3197,-1.39599 -6.4936,-1.97973 -2.1739,-0.58374 -4.3568,-1.0905 -6.5485,-1.51722 -2.1916,-0.42671 -4.3919,-0.77347 -6.6001,-1.03766 -2.2081,-0.26419 -4.4243,-0.44541 -6.6476,-0.54157 -2.2234,-0.0962 -4.4538,-0.10735 -6.6911,-0.03 -1.1187,0.0387 -2.2391,0.0998 -3.361,0.18293 -1.1219,0.0831 -2.2454,0.18857 -3.3704,0.31678 l -0.062,-0.0822 a 27.025298,27.119791 0 0 0 -0.2986,3.79512 27.025298,27.119791 0 0 0 27.0252,27.11979 27.025298,27.119791 0 0 0 26.342,-21.16201 z"
             style="opacity:1;fill:#2649a5;fill-opacity:1;fill-rule:evenodd;stroke:none;stroke-width:0.54998523;stroke-linecap:butt;stroke-linejoin:miter;stroke-miterlimit:4;stroke-dasharray:none;stroke-dashoffset:0;stroke-opacity:1;paint-order:normal" />
          <path
             sodipodi:nodetypes="ccccccsscccccsccsccssccccc"
             inkscape:connector-curvature="0"
             id="path4587"
             d="m 1353.1267,161.74465 -0.6093,-0.25012 c -2.0054,-1.02376 -4.0334,-1.9628 -6.0807,-2.8205 -2.0474,-0.85769 -4.1144,-1.63434 -6.1971,-2.33267 -2.0826,-0.69833 -4.1813,-1.3183 -6.2926,-1.86397 -2.1114,-0.54567 -4.2352,-1.01673 -6.3686,-1.41645 -2.1335,-0.39972 -4.2765,-0.72809 -6.4255,-0.98857 -2.1489,-0.26048 -4.3042,-0.45342 -6.4621,-0.58136 -2.1579,-0.12795 -4.3185,-0.19115 -6.4787,-0.19327 -2.1602,-0.002 -4.3201,0.0572 -6.4761,0.17415 h -0.2568 c -1.0269,2.31342 -1.7258,4.75978 -2.0764,7.26777 l 0.062,0.0822 c 1.125,-0.12821 2.2485,-0.23368 3.3704,-0.31678 1.1219,-0.0831 2.2423,-0.14425 3.361,-0.18293 2.2373,-0.0774 4.4677,-0.0662 6.6911,0.03 2.2233,0.0962 4.4395,0.27738 6.6476,0.54157 2.2082,0.26419 4.4085,0.61095 6.6001,1.03766 2.1917,0.42672 4.3746,0.93348 6.5485,1.51722 2.1739,0.58374 4.3388,1.24447 6.4936,1.97973 2.1549,0.73525 4.3002,1.54493 6.4348,2.4262 2.1346,0.88128 4.2587,1.83438 6.3717,2.85616 l 0.3958,0.19098 0.092,-0.40905 c 0.4465,-1.95448 0.6757,-3.95262 0.6832,-5.95778 -0.01,-0.2635 -0.015,-0.5269 -0.028,-0.79013 z"
             style="opacity:1;fill:#ffffff;fill-opacity:1;fill-rule:evenodd;stroke:none;stroke-width:0.54998523;stroke-linecap:butt;stroke-linejoin:miter;stroke-miterlimit:4;stroke-dasharray:none;stroke-dashoffset:0;stroke-opacity:1;paint-order:normal" />
          <path
             style="font-style:normal;font-weight:normal;font-size:6.71687603px;line-height:1.25;font-family:sans-serif;letter-spacing:0.73025px;word-spacing:0px;fill:#008c43;fill-opacity:1;stroke:#f9f9f9;stroke-width:0.37795275;stroke-miterlimit:4;stroke-dasharray:none;stroke-opacity:1"
             d="m 280.35547,172.34766 -0.66211,18.44531 4.75781,0.16992 0.21485,-6.00781 2.96093,0.10742 c 1.34615,0.0482 2.47518,-0.0981 3.38867,-0.4375 0.92175,-0.33911 1.76436,-0.85815 2.5254,-1.55859 0.55602,-0.51759 0.99145,-1.16524 1.30859,-1.93946 0.31743,-0.78247 0.49192,-1.58625 0.52148,-2.41211 0.0381,-1.06535 -0.12688,-1.98383 -0.49609,-2.75781 -0.36095,-0.77368 -0.90503,-1.41777 -1.63086,-1.93164 -0.60491,-0.42684 -1.30908,-0.75524 -2.11133,-0.98242 -0.79369,-0.23515 -1.7765,-0.37208 -2.94922,-0.41406 z m 26.74414,1.18164 -8.12109,17.92187 4.7832,0.34375 1.54101,-3.63086 6.82618,0.49024 1.00586,3.8125 4.9082,0.35351 -5.47852,-18.89843 z m 18.86914,1.58008 -2.51367,18.28515 4.6914,0.64649 0.92188,-6.70508 2.17383,0.29883 4.0625,7.39062 5.75976,0.79102 -5.02539,-8.67383 c 1.24021,-0.40504 2.22947,-0.98999 2.96875,-1.75586 0.74747,-0.76475 1.21464,-1.823 1.40039,-3.17383 0.13509,-0.98242 0.0431,-1.8243 -0.27734,-2.52734 -0.31109,-0.71011 -0.78266,-1.31836 -1.41406,-1.82227 -0.62322,-0.50278 -1.31531,-0.86791 -2.07618,-1.09766 -0.76086,-0.22974 -1.68105,-0.41975 -2.76171,-0.56835 z m -40.98047,0.85351 0.81836,0.0293 c 0.78457,0.0281 1.41101,0.0619 1.88086,0.10351 0.47015,0.0334 0.94908,0.15906 1.4375,0.375 0.36631,0.16196 0.68398,0.43623 0.95117,0.82618 0.26749,0.38168 0.39168,0.83322 0.37305,1.35351 -0.0189,0.52855 -0.10607,0.97714 -0.25977,1.34375 -0.14514,0.35865 -0.37442,0.66463 -0.68945,0.91797 -0.36576,0.28459 -0.81556,0.46669 -1.34766,0.54687 -0.52383,0.0805 -1.19066,0.10515 -2,0.0762 l -1.36132,-0.0488 z m 24.44336,2.46875 1.78906,6.76563 -4.52539,-0.32618 z m 20.76563,0.6875 1.70703,0.23633 c 0.56489,0.0777 1.05925,0.16067 1.48047,0.25195 0.42233,0.0831 0.78271,0.21378 1.08398,0.38867 0.43257,0.25134 0.72197,0.55289 0.86523,0.90625 0.14327,0.35337 0.18219,0.75834 0.11914,1.2168 -0.0709,0.51577 -0.20596,0.91927 -0.40429,1.20898 -0.18902,0.28265 -0.4638,0.52757 -0.82617,0.73633 -0.37988,0.2147 -0.82799,0.32424 -1.34571,0.32813 -0.51771,0.004 -1.15306,-0.0449 -1.90625,-0.14844 l -1.44922,-0.19922 z m 24.20898,0.60938 -10.57422,16.59375 4.6875,1.01562 2.03906,-3.375 6.6875,1.44922 0.45703,3.91797 4.8086,1.04297 -2.75195,-19.48438 z m 18.64258,4.3789 -5.27735,17.6875 4.18164,1.2461 3.6211,-12.13868 3.88476,14.37891 4.39649,1.3125 5.27734,-17.6875 -4.18164,-1.24805 -3.02344,10.13282 -3.42578,-12.05664 z m -17.02735,0.80469 0.81446,6.94922 -4.4336,-0.96094 z m 50.65821,2.86914 -4.56641,3.49805 2.85742,1.0625 5.70118,-2.8125 0.0859,-0.23242 z m -4.83594,5.60742 -12.82422,14.92188 4.49609,1.67383 2.49805,-3.05274 6.41211,2.38477 -0.10351,3.94336 4.61328,1.71484 0.043,-19.67578 z m 0.86328,5.35938 -0.18164,6.99609 -4.25195,-1.58203 z"
             transform="matrix(0.26458333,0,0,0.26458333,1235.2496,107.02957)"
             id="text870"
             inkscape:connector-curvature="0"
             sodipodi:nodetypes="ccccccccccccccccccccccccccccccccsccccccsccccccccccccccccccccccccccccccccccccccccccccccccccccccccccccscscccccc" />
          <path
             inkscape:connector-curvature="0"
             id="path4582"
             d="m 1326.1294,135.41499 a 27.025298,27.119791 0 0 0 -24.6502,16.0569 h 0.2568 c 2.156,-0.117 4.3159,-0.17627 6.4761,-0.17415 2.1602,0.002 4.3208,0.0653 6.4787,0.19327 2.1579,0.12794 4.3132,0.32088 6.4621,0.58136 2.149,0.26048 4.292,0.58885 6.4255,0.98857 2.1334,0.39972 4.2572,0.87078 6.3686,1.41645 2.1113,0.54567 4.21,1.16564 6.2926,1.86397 2.0827,0.69833 4.1497,1.47498 6.1971,2.33267 2.0473,0.8577 4.0753,1.79674 6.0807,2.8205 l 0.6093,0.25012 a 27.025298,27.119791 0 0 0 -26.9973,-26.32966 z"
             style="opacity:1;fill:#2649a5;fill-opacity:1;fill-rule:evenodd;stroke:none;stroke-width:0.54998523;stroke-linecap:butt;stroke-linejoin:miter;stroke-miterlimit:4;stroke-dasharray:none;stroke-dashoffset:0;stroke-opacity:1;paint-order:normal" />
          <path
             inkscape:connector-curvature="0"
             id="path919"
             transform="scale(0.26458333)"
             d="m 5012.8711,526.50781 -3.8672,12.50781 -13.0781,0.59571 10.7012,7.54297 -3.4766,12.62109 10.4805,-7.84375 10.9316,7.20508 -4.2227,-12.39258 10.2305,-8.16797 -13.0898,0.18555 z m -66.9141,86.79297 -3.0312,9.99219 -10.4278,0.53125 8.5665,5.96875 -2.7168,10.08203 8.3242,-6.30273 8.748,5.69921 -3.4199,-9.86328 8.123,-6.55859 -10.4394,0.20508 z m 68.502,12.14258 -2.666,9.03711 -9.4043,0.55078 7.7695,5.32813 -2.3809,9.11523 7.4688,-5.74414 7.9316,5.08203 -3.1543,-8.87695 7.2852,-5.97461 -9.418,0.25586 z m 48.8047,2.4668 -3.0586,9.88867 -10.3418,0.4707 8.4609,5.9668 -2.748,9.98047 8.2871,-6.20313 8.6445,5.69727 -3.3398,-9.79883 8.0898,-6.46094 -10.3516,0.14844 z m -52.9844,48.67578 -2.7852,9.18554 -9.5859,0.48829 7.875,5.48632 -2.498,9.26758 7.6523,-5.79297 8.043,5.24024 -3.1446,-9.06836 7.4668,-6.0293 -9.5957,0.1875 z"
             style="opacity:1;fill:#ffffff;fill-opacity:1;fill-rule:evenodd;stroke:none;stroke-width:2.16972589;stroke-linecap:butt;stroke-linejoin:miter;stroke-miterlimit:4;stroke-dasharray:none;stroke-dashoffset:0;stroke-opacity:1;paint-order:normal" />
        </g>
        <g
           id="g1245">
          <path
             inkscape:connector-curvature="0"
             id="path1172"
             d="m 1319.8252,206.77867 c -0.5864,-0.10925 -1.8521,-0.60129 -1.8521,-0.72 0,-0.35565 2.8265,-2.16377 5.9206,-3.78741 1.0371,-0.54424 1.852,-1.04389 1.8109,-1.11033 -0.1586,-0.25669 -4.7165,-2.10449 -5.1911,-2.10449 -0.2612,0 -0.5847,0.89106 -0.4862,1.3395 0.06,0.27344 0.2135,0.43983 0.526,0.57041 0.7841,0.3276 0.939,0.99299 0.3846,1.65181 -0.3805,0.45219 -0.6766,0.50253 -1.2405,0.21089 -0.4253,-0.21989 -0.6019,-0.74261 -0.4523,-1.33849 0.052,-0.20788 0.1055,-0.76619 0.1186,-1.24068 0.013,-0.47449 0.07,-1.02642 0.1258,-1.22651 0.08,-0.28383 0.057,-0.3638 -0.1023,-0.3638 -0.3052,0 -0.6822,0.55286 -0.9435,1.38342 -0.2141,0.68075 -0.2158,0.76479 -0.021,1.06231 0.2685,0.40972 0.2709,0.98277 0.01,1.36129 -0.1583,0.2261 -0.3369,0.29402 -0.7732,0.29402 -0.7215,0 -1.0052,-0.29144 -1.0052,-1.03263 0,-0.54298 0.027,-0.57867 0.7659,-1.02723 0.088,-0.0532 0.5563,-1.45816 0.5477,-1.64244 -0.01,-0.17716 -0.02,-0.17737 -0.1,-0.002 -0.3449,0.75458 -1.0459,1.77886 -1.3945,2.0374 -0.4816,0.35722 -0.7835,0.45886 -1.8696,0.62938 -2.142,0.33627 -2.4693,0.28812 -3.4167,-0.50258 -0.2056,-0.17167 -0.4835,-0.31212 -0.6174,-0.31212 -0.3654,0 -1.3456,-0.46558 -1.7206,-0.8172 -0.3699,-0.34685 -0.6615,-0.81524 -0.6615,-1.06256 0,-0.09 -0.253,-0.38165 -0.5622,-0.64821 l -0.5622,-0.48466 0.031,-1.22269 c 0.017,-0.67248 0.099,-1.30433 0.1815,-1.40411 0.1857,-0.2237 0.803,-0.23744 1.0178,-0.0226 0.1964,0.19643 0.1957,0.17663 -0.021,-0.54826 -0.1511,-0.50533 -0.3134,-0.68562 -1.1555,-1.28301 -0.5389,-0.38228 -1.078,-0.69814 -1.198,-0.7019 -0.1201,-0.004 -0.5263,0.33022 -0.9028,0.74218 -0.5293,0.57909 -0.6646,0.81169 -0.5962,1.02527 0.048,0.15193 0.1197,0.44328 0.1582,0.64744 0.1693,0.89927 -1.219,1.41407 -1.8048,0.66929 -0.4891,-0.62177 -0.3069,-1.2142 0.5001,-1.6259 0.2755,-0.14054 0.6598,-0.49565 0.854,-0.78914 0.1942,-0.29349 0.5324,-0.66613 0.7515,-0.82811 0.3871,-0.28619 0.513,-0.50932 0.2873,-0.50932 -0.061,0 -0.3364,0.19347 -0.6119,0.42994 -0.2755,0.23648 -0.8357,0.68233 -1.245,0.9908 -0.7139,0.53809 -0.7827,0.56091 -1.6954,0.56224 -0.5232,7.9e-4 -0.9881,-0.0581 -1.033,-0.1309 -0.045,-0.0728 -0.2946,-0.13229 -0.5547,-0.13229 -1.0788,0 -2.173,-0.63242 -2.6101,-1.50859 -0.1055,-0.21126 -0.475,-0.59821 -0.8212,-0.8599 -0.8068,-0.60984 -1.1294,-1.16643 -1.1379,-1.96367 0,-0.3894 -0.1004,-0.76247 -0.2527,-0.97993 -0.283,-0.40418 -0.3424,-1.68218 -0.09,-1.93466 0.086,-0.0858 0.2836,-0.4102 0.4397,-0.72099 0.1877,-0.37395 0.3848,-0.57986 0.5826,-0.60878 0.3782,-0.0553 0.7752,0.29796 0.845,0.75199 0.03,0.19253 0.063,-0.29075 0.074,-1.07394 0.018,-1.27173 -0.012,-1.47313 -0.2778,-1.88352 -0.3655,-0.56416 -0.5297,-0.57617 -0.8934,-0.0653 -0.2386,0.33505 -0.2694,0.50714 -0.1959,1.09548 0.072,0.57981 0.043,0.75217 -0.1719,1.01803 -0.554,0.68412 -1.8807,0.19878 -1.8807,-0.68798 0,-0.43789 0.5187,-1.02926 0.9029,-1.02926 0.2992,0 1.3605,-1.52813 1.254,-1.80563 -0.1787,-0.46573 -1.6278,0.0859 -1.6278,0.61963 0,0.48802 -0.3718,1.02718 -0.7685,1.1143 -1.1056,0.24283 -1.7977,-0.94597 -1.0096,-1.73412 0.2667,-0.26669 0.4282,-0.32382 0.7607,-0.26908 0.8767,0.14435 2.3075,-0.91795 1.6013,-1.18893 -0.2077,-0.0797 -1.9886,0.43265 -2.2309,0.64181 -0.069,0.0597 -0.4234,0.10848 -0.7873,0.10848 -0.5112,0 -0.8211,-0.0966 -1.3626,-0.42483 -0.3856,-0.23366 -0.701,-0.47178 -0.701,-0.52917 0,-0.0574 -0.091,-0.10434 -0.2013,-0.10434 -0.7007,0 -1.9154,-1.40132 -1.9154,-2.20967 0,-0.22026 -0.1109,-0.54245 -0.2464,-0.71598 -0.7286,-0.933 -1.0139,-2.13836 -0.6616,-2.79644 0.083,-0.15441 0.14,-0.68376 0.1276,-1.17633 l -0.023,-0.8956 0.787,-0.79934 c 0.8026,-0.81515 1.018,-0.90964 1.4933,-0.65524 0.2527,0.1352 0.2664,0.24499 0.2228,1.77527 -0.044,1.5366 -0.029,1.651 0.2512,1.97356 0.2226,0.25607 0.2977,0.50777 0.2977,0.99821 0,0.5261 0.054,0.68455 0.2716,0.80118 0.3705,0.19829 0.7856,0.91042 0.7862,1.34881 0,0.26503 0.1038,0.41381 0.3908,0.56224 0.4936,0.25523 0.5361,0.25287 0.5343,-0.0297 0,-0.12733 -0.2262,-0.46963 -0.5009,-0.76068 -0.2748,-0.29104 -0.586,-0.79625 -0.6916,-1.12269 -0.1056,-0.32644 -0.3564,-0.91044 -0.5573,-1.29776 -0.279,-0.53761 -0.3654,-0.89014 -0.3654,-1.49006 0,-0.4357 -0.059,-0.78584 -0.1323,-0.78584 -0.2492,0 -0.1497,-1.4202 0.1318,-1.88196 0.1453,-0.23823 0.2643,-0.55518 0.2646,-0.70434 0,-0.14916 0.07,-0.34085 0.1553,-0.42598 0.1176,-0.11759 0.1181,-0.27491 0,-0.65484 -0.084,-0.27504 -0.1685,-0.64889 -0.1878,-0.8308 -0.056,-0.52891 -0.739,-0.5259 -1.3447,0.006 -0.4588,0.40281 -0.4728,0.4418 -0.3957,1.09882 0.069,0.59073 0.041,0.71592 -0.2095,0.94276 -0.3606,0.326 -1.1972,0.34965 -1.5043,0.0425 -0.1368,-0.13681 -0.2191,-0.43536 -0.2191,-0.79528 0,-0.49576 0.054,-0.60794 0.3842,-0.8032 0.2114,-0.12483 0.4644,-0.22697 0.5623,-0.22697 0.098,0 0.3403,-0.20344 0.5387,-0.45209 0.1984,-0.24864 0.6029,-0.5589 0.8988,-0.68946 0.5086,-0.22439 0.5214,-0.24359 0.2346,-0.35073 -0.548,-0.2047 -1.3559,0.007 -1.6753,0.43888 -0.2323,0.31422 -0.3889,0.39195 -0.79,0.39195 -0.9609,0 -1.3962,-0.88435 -0.8051,-1.63581 0.3181,-0.40442 0.9491,-0.46978 1.4111,-0.14615 0.198,0.13867 0.6655,0.21164 1.4847,0.23174 l 1.1956,0.0293 v -0.36731 c 0,-0.44791 -0.189,-0.53053 -1.7198,-0.75163 -0.6184,-0.0893 -1.3058,-0.2382 -1.5275,-0.33082 -0.4929,-0.20593 -1.0367,-0.83357 -1.3854,-1.59897 -0.1438,-0.31554 -0.3195,-0.60963 -0.3905,-0.65351 -0.071,-0.0439 -0.231,-0.29455 -0.3556,-0.55703 -0.2634,-0.55512 -0.2968,-2.05253 -0.052,-2.34706 0.1043,-0.12567 0.1274,-0.39637 0.068,-0.79422 -0.1612,-1.07521 0.021,-1.7321 0.6657,-2.39508 0.3171,-0.32624 0.6137,-0.76262 0.6592,-0.96974 0.1698,-0.77311 0.8404,-1.16946 2.4199,-1.43018 0.5942,-0.0981 0.8708,0.1535 0.7805,0.70986 l -0.07,0.43331 0.3424,-0.31746 c 0.3159,-0.29296 0.3293,-0.34888 0.1736,-0.72482 -0.1195,-0.28843 -0.2578,-0.40738 -0.4738,-0.40738 -0.1753,0 -0.4269,-0.15482 -0.5913,-0.36376 -0.7695,-0.97834 0.5288,-2.32529 1.4311,-1.48466 0.3835,0.35728 0.4895,0.84039 0.29,1.32194 -0.1318,0.31817 -0.1297,0.43502 0.011,0.60438 0.1559,0.18774 0.1866,0.17724 0.2912,-0.0993 0.064,-0.17011 0.1734,-0.654 0.2424,-1.07532 0.102,-0.62151 0.087,-0.82049 -0.077,-1.05469 -0.2719,-0.38809 -0.2503,-0.88718 0.056,-1.28513 0.197,-0.25636 0.3722,-0.32772 0.8049,-0.32772 0.6381,0 1.054,0.38337 1.054,0.9714 0,0.40837 -0.332,0.94082 -0.5866,0.94082 -0.2913,0 -0.4779,0.33626 -0.5988,1.07916 -0.091,0.55655 -0.074,0.74895 0.077,0.90521 0.17,0.17545 0.2448,0.13715 0.6453,-0.33072 0.2492,-0.29105 0.4552,-0.62806 0.458,-0.74892 0.01,-0.25761 0.731,-0.90473 1.0139,-0.90473 0.3097,0 0.9356,0.36692 1.0255,0.60124 0.1539,0.40084 0.083,0.81758 -0.201,1.17829 -0.2568,0.32651 -0.3507,0.35587 -1.0094,0.3155 -0.664,-0.0407 -0.7498,-0.0131 -1.0018,0.32252 l -0.2756,0.36703 0.359,0.33285 0.3589,0.33286 v -0.37577 c 0,-0.20668 0.072,-0.44721 0.1588,-0.53452 0.2179,-0.2179 0.7953,-0.19937 1.1058,0.0355 0.1412,0.10683 0.3886,0.19612 0.5498,0.19844 0.4944,0.007 1.1785,0.72474 1.3535,1.41981 0.086,0.34215 0.2987,0.76414 0.4723,0.93777 0.4714,0.47139 0.643,1.12894 0.521,1.99695 -0.057,0.4086 -0.09,1.22936 -0.072,1.82393 0.037,1.24121 0.028,1.26398 -1.1432,2.84878 -0.6969,0.94314 -0.971,1.20593 -1.5137,1.45119 -0.6303,0.28486 -0.6476,0.30603 -0.353,0.43329 0.1704,0.0736 0.3823,0.22422 0.4709,0.33475 0.2265,0.28235 0.2078,0.94746 -0.036,1.296 -0.3893,0.55571 -1.7785,0.29336 -1.7785,-0.33586 0,-0.0803 -0.1041,-0.17797 -0.2315,-0.21701 -0.2662,-0.0816 -1.2002,0.10905 -1.371,0.27985 -0.1058,0.10581 0.1308,1.52677 0.3393,2.03741 0.105,0.25722 0.6236,0.51673 1.2909,0.64603 0.4444,0.0861 0.4788,0.0727 0.3638,-0.14207 -0.1825,-0.34106 -0.1563,-0.72691 0.062,-0.90784 0.1038,-0.0861 0.5169,-0.1815 0.9182,-0.212 0.4012,-0.0305 0.7777,-0.0637 0.8366,-0.0738 0.4336,-0.0741 0.8044,0.0839 1.2551,0.53455 0.2868,0.28683 0.7302,0.5904 0.9854,0.67459 0.7119,0.23496 1.3168,0.92627 1.5687,1.79279 0.1206,0.41469 0.3849,0.96851 0.5875,1.23072 0.5266,0.68151 0.7103,1.23754 0.6256,1.89334 -0.2705,2.09379 -0.3666,2.54877 -0.6411,3.03582 -0.1857,0.32938 -0.5397,0.67753 -0.9038,0.8888 -0.3292,0.19102 -0.9393,0.54647 -1.356,0.78989 -0.4166,0.24341 -0.7562,0.51131 -0.7545,0.59531 0,0.084 0.1087,0.29024 0.238,0.4583 l 0.2351,0.30556 1.0792,-1.06624 c 1.1899,-1.17553 1.486,-1.28234 2.0974,-0.75645 0.9465,0.81415 -0.2195,2.36418 -1.2131,1.61265 -0.1412,-0.10683 -0.3371,-0.19612 -0.4352,-0.19844 -0.2714,-0.006 -0.946,0.77978 -0.946,1.1024 0,0.15668 0.3195,0.70105 0.71,1.20971 0.6754,0.87975 0.7344,0.9233 1.211,0.89334 0.6342,-0.0399 0.6608,-0.072 0.3952,-0.47733 -0.3153,-0.48131 -0.099,-0.78309 0.9236,-1.28636 0.7048,-0.34695 0.9656,-0.41027 1.4603,-0.35451 0.3312,0.0373 0.7119,0.16711 0.8459,0.28839 0.1634,0.14782 0.3555,0.19244 0.5829,0.13535 0.7021,-0.1762 1.7163,0.35505 2.3329,1.22194 0.1845,0.25952 0.6399,0.66657 1.0118,0.90456 0.729,0.46644 1.2371,1.27653 1.2478,1.98939 0,0.2135 0.092,0.62631 0.1964,0.91735 0.1049,0.29104 0.1916,0.88085 0.1927,1.3107 0,0.71494 -0.046,0.84456 -0.5564,1.52135 -0.307,0.4069 -0.7238,0.93537 -0.926,1.17438 -0.2023,0.239 -0.3677,0.48792 -0.3677,0.55315 0,0.0652 0.4531,0.44956 1.0071,0.85407 1.1144,0.81383 1.2979,0.83634 2.1859,0.26813 0.4795,-0.30685 1.4751,-0.41686 1.7679,-0.19537 0.073,0.055 0.5531,0.13354 1.0674,0.17446 0.5984,0.0476 1.1031,0.17355 1.4019,0.34981 0.2567,0.15147 0.7721,0.36607 1.1452,0.47689 0.3902,0.11588 0.9362,0.42455 1.2851,0.72649 0.7747,0.6705 1.0609,0.70394 0.8134,0.0951 -0.12,-0.29516 -0.2756,-0.44205 -0.4965,-0.46853 -0.4865,-0.0583 -0.948,-0.31402 -1.3,-0.72027 -0.2674,-0.30851 -0.4204,-0.36563 -0.9797,-0.36563 -0.5043,0 -0.7672,-0.0796 -1.0992,-0.33278 -0.3791,-0.28919 -0.5037,-0.31761 -0.9515,-0.21701 -0.7872,0.17688 -2.571,0.0373 -2.7713,-0.21693 -0.277,-0.35169 -0.1962,-0.52895 0.6315,-1.3854 l 0.7968,-0.82444 0.8899,-0.0126 c 0.4894,-0.007 1.0575,-0.0814 1.2623,-0.16536 0.7464,-0.30614 1.5943,-0.13838 2.538,0.50217 0.2183,0.14815 0.5499,0.26976 0.737,0.27024 0.187,5.3e-4 0.6633,0.16458 1.0583,0.36467 0.7326,0.37108 0.7352,0.37426 2.0512,2.51359 0.5395,0.87699 0.5487,1.39969 0.052,2.93781 -0.2531,0.78294 -0.3835,1.38545 -0.3135,1.44872 0.1774,0.16047 1.0116,0.42107 1.0917,0.34103 0.038,-0.038 0.06,-0.5118 0.049,-1.05279 -0.019,-0.91341 0,-1.00296 0.3241,-1.25436 0.4665,-0.36695 0.9868,-0.3445 1.3658,0.0589 0.5911,0.62918 0.2057,1.71439 -0.6437,1.81287 -0.2878,0.0334 -0.3475,0.10757 -0.3475,0.43166 0,0.32717 0.076,0.41888 0.463,0.55898 0.6708,0.2428 5.3933,2.00875 6.0317,2.25552 l 0.5416,0.20933 2.607,-1.11228 2.6069,-1.1123 0.4111,-0.85633 c 0.4099,-0.85384 0.4106,-0.85921 0.2464,-1.85208 -0.091,-0.54766 -0.2191,-1.05231 -0.2855,-1.12143 -0.2069,-0.21554 -0.1432,-0.32406 0.6862,-1.16903 0.4438,-0.45208 0.8971,-0.95591 1.0074,-1.11962 0.2502,-0.37134 0.567,-0.3867 0.567,-0.0275 0,0.25818 0.3401,2.06748 0.4756,2.53054 0.042,0.14183 -0.1336,0.4025 -0.4889,0.7276 -0.754,0.69003 -1.3096,1.47457 -1.3096,1.84936 0,0.37626 0.069,0.38172 0.7358,0.0584 0.6087,-0.29506 0.9414,-0.64217 1.4191,-1.48067 l 0.3467,-0.6087 0.899,-0.0763 c 1.1894,-0.10092 1.2952,-0.15402 1.4915,-0.74877 0.2034,-0.61625 0.1558,-0.99634 -0.3238,-2.58778 -0.059,-0.19609 0.1356,-0.52143 0.7519,-1.25677 0.4573,-0.5457 0.8851,-1.02195 0.9507,-1.05833 0.065,-0.0364 0.223,0.35057 0.3499,0.85989 0.1269,0.50933 0.291,1.11461 0.3645,1.34507 0.1242,0.38925 0.093,0.46443 -0.4446,1.05833 -0.6619,0.73173 -1.0399,1.42837 -0.9303,1.71419 0.1435,0.37377 1.7979,-1.01093 1.7979,-1.50474 0,-0.26798 0.5146,-0.56638 1.1998,-0.69579 0.8153,-0.15397 1.1131,-0.44395 1.2343,-1.20216 0.1133,-0.70849 -0.01,-1.33043 -0.4497,-2.26067 -0.1564,-0.33116 -0.1253,-0.41156 0.4608,-1.19062 0.3457,-0.45952 0.6873,-0.98431 0.7592,-1.16621 l 0.1307,-0.33073 0.1797,0.39687 c 0.5329,1.17745 0.8769,2.24129 0.7698,2.3806 -0.9618,1.25011 -1.4659,2.31576 -1.0956,2.31576 0.4638,0 1.5735,-1.27547 1.5735,-1.8084 0,-0.18439 0.3782,-0.38024 1.4883,-0.77062 l 0.6284,-0.22099 v -0.64649 c 0,-0.63735 -0.2131,-1.1576 -0.8304,-2.0276 -0.2362,-0.33294 -0.2476,-0.41619 -0.09,-0.66146 0.3084,-0.48077 0.9122,-1.72802 0.9165,-1.89335 0.01,-0.37374 0.2716,-0.27275 0.486,0.18756 0.1279,0.27454 0.3992,0.77363 0.603,1.10911 0.2037,0.33546 0.3704,0.69696 0.3704,0.80333 0,0.10636 -0.1823,0.52991 -0.405,0.94124 -0.2857,0.52736 -0.393,0.88735 -0.3639,1.22102 l 0.041,0.47317 0.5347,-0.503 c 0.414,-0.38944 0.5747,-0.67111 0.7118,-1.24761 0.1731,-0.72764 0.1948,-0.75307 0.9536,-1.11573 0.7594,-0.36299 0.7764,-0.3829 0.7752,-0.90904 0,-0.4406 -0.124,-0.70123 -0.6794,-1.44074 l -0.6781,-0.90283 0.164,-0.55238 c 0.09,-0.30381 0.2173,-0.68913 0.2825,-0.85626 0.065,-0.16714 0.1185,-0.4464 0.1185,-0.62058 0,-0.35317 0.1387,-0.49334 0.3529,-0.35665 0.078,0.0498 0.4567,0.50262 0.8417,1.00634 0.6986,0.91408 0.6996,0.91691 0.5393,1.45521 -0.3091,1.0378 -0.396,1.63411 -0.2931,2.01124 l 0.1038,0.3802 0.3995,-0.42379 c 0.3913,-0.41506 0.5695,-1.05355 0.5695,-2.04072 0,-0.3097 0.1283,-0.46226 0.7182,-0.85396 0.395,-0.26229 0.7484,-0.55552 0.7853,-0.65161 0.175,-0.45593 -0.3117,-1.21804 -1.2434,-1.9472 -0.4508,-0.35282 -0.4509,-0.35316 -0.2894,-0.95697 0.089,-0.33222 0.1615,-0.83779 0.1615,-1.12349 0,-0.2857 0.045,-0.54634 0.099,-0.57919 0.054,-0.0329 0.5046,0.31787 1.0002,0.77939 l 0.901,0.83912 -0.1396,0.50265 c -0.1933,0.69596 -0.1756,1.39696 0.043,1.69545 0.1747,0.23887 0.1978,0.22876 0.4714,-0.20623 0.2407,-0.38246 0.2778,-0.59621 0.2268,-1.30445 -0.061,-0.84262 -0.058,-0.85022 0.4952,-1.45521 0.5294,-0.57904 0.5488,-0.62931 0.4059,-1.04958 -0.1533,-0.45092 -0.5877,-0.91864 -1.353,-1.45699 l -0.43,-0.30243 v -1.18162 c 0,-0.91545 0.041,-1.18161 0.1823,-1.18161 0.1002,0 0.2546,0.0872 0.343,0.19373 0.088,0.10656 0.4749,0.40222 0.8587,0.65702 l 0.698,0.46328 -0.065,0.90606 c -0.049,0.68163 -0.011,1.01041 0.153,1.32736 0.1198,0.23171 0.2492,0.4213 0.2874,0.4213 0.038,0 0.1515,-0.19623 0.2517,-0.43608 0.1373,-0.32867 0.1543,-0.66103 0.069,-1.34943 -0.1147,-0.92499 -0.056,-1.20103 0.3235,-1.51579 0.1131,-0.0939 0.2056,-0.33945 0.2056,-0.54572 0,-0.40165 -0.4606,-0.85192 -1.4167,-1.3848 l -0.5015,-0.27955 -0.1195,-1.14872 c -0.066,-0.63179 -0.09,-1.17857 -0.053,-1.21505 0.036,-0.0365 0.5133,0.2023 1.0596,0.53064 l 0.9932,0.59697 0.086,0.93022 c 0.1275,1.37166 0.5388,1.87282 0.8737,1.06446 0.1612,-0.38937 0.1344,-0.5525 -0.2876,-1.74443 -0.1003,-0.28332 -0.051,-0.45888 0.2753,-0.97279 l 0.3976,-0.62708 -0.2801,-0.42737 c -0.1541,-0.23505 -0.4631,-0.50178 -0.6868,-0.59272 -0.2236,-0.091 -0.5257,-0.2145 -0.6712,-0.27456 -0.1455,-0.0601 -0.3578,-0.1383 -0.4717,-0.17385 -0.1274,-0.0398 -0.2728,-0.36273 -0.3777,-0.83882 -0.094,-0.4258 -0.2345,-0.90933 -0.3127,-1.07451 -0.2625,-0.55424 0.048,-0.58567 1.1606,-0.11758 l 1.0458,0.43986 0.2376,0.96652 c 0.1307,0.53158 0.3048,1.04754 0.387,1.14658 0.4466,0.53809 0.7814,-0.2416 0.468,-1.09 -0.1048,-0.28373 -0.2686,-0.70716 -0.3641,-0.94093 -0.1551,-0.38005 -0.1426,-0.48293 0.1183,-0.97162 0.3841,-0.71964 0.3718,-0.82069 -0.1561,-1.28423 -0.3165,-0.27787 -0.7041,-0.44414 -1.3216,-0.56688 -0.6849,-0.13612 -0.8914,-0.23286 -0.955,-0.44733 -0.045,-0.1505 -0.2324,-0.61718 -0.4174,-1.03707 -0.185,-0.41988 -0.3036,-0.79614 -0.2637,-0.83613 0.04,-0.04 0.5791,0.0279 1.198,0.15076 l 1.1252,0.22347 0.2912,0.79868 c 0.2769,0.75954 0.7606,1.41884 1.0408,1.41884 0.2253,0 0.2938,-0.48456 0.1239,-0.87777 -0.09,-0.20845 -0.33,-0.62785 -0.5332,-0.93201 -0.4177,-0.62505 -0.432,-0.73097 -0.2108,-1.55814 0.1468,-0.54879 0.1364,-0.61733 -0.137,-0.90841 -0.3617,-0.38506 -1.0954,-0.61783 -1.9553,-0.62037 -0.6312,-0.002 -0.6544,-0.0163 -1.0046,-0.62839 -0.1971,-0.34456 -0.4625,-0.78778 -0.5896,-0.98493 -0.1272,-0.19715 -0.204,-0.3852 -0.1708,-0.41789 0.033,-0.0327 0.5822,-0.0267 1.2199,0.0134 l 1.1594,0.0729 0.4699,0.77361 c 0.6583,1.0836 1.3791,1.54164 1.378,0.87559 0,-0.364 -0.3488,-0.94318 -0.925,-1.53869 l -0.4328,-0.44728 0.091,-1.31452 c 0.05,-0.72299 0.148,-1.46558 0.2182,-1.65021 0.1216,-0.31981 0.1688,-0.27259 0.9976,0.99734 l 0.8701,1.33305 -0.2319,0.98344 c -0.1996,0.84672 -0.2071,1.04298 -0.054,1.41171 l 0.1774,0.42826 0.3062,-0.38267 c 0.2557,-0.31955 0.3063,-0.5388 0.3069,-1.32916 v -0.94648 l 0.7606,-0.42494 c 0.4184,-0.23372 0.8612,-0.51313 0.9839,-0.6209 0.3728,-0.32734 0.4682,-0.0941 0.402,0.98321 -0.064,1.04856 -0.1955,1.49258 -0.4406,1.49258 -0.3559,0 -1.3536,0.86383 -1.5842,1.3716 -0.316,0.69594 -0.315,0.96603 0.01,1.63064 0.2586,0.53532 0.2586,0.54147 0,1.07679 -0.1633,0.33798 -0.2601,0.81335 -0.2601,1.27705 0,0.68692 0.018,0.72914 0.2535,0.60296 0.2594,-0.13886 0.6284,-1.08328 0.6991,-1.78959 0.036,-0.35963 0.1365,-0.43466 1.1334,-0.84645 0.6016,-0.24852 1.1258,-0.41983 1.1649,-0.3807 0.039,0.0391 -0.021,0.42862 -0.1347,0.86555 -0.1132,0.43692 -0.2058,0.92123 -0.2058,1.07624 0,0.17899 -0.1208,0.32777 -0.3312,0.40774 -1.277,0.48552 -1.8191,0.87238 -2.1658,1.54557 -0.1916,0.37197 -0.1901,0.99711 0,1.42178 0.1307,0.28689 0.1041,0.40467 -0.1883,0.83305 -0.4266,0.62497 -0.6583,2.07535 -0.3101,1.94175 0.1815,-0.0696 0.7981,-1.2039 1.045,-1.92223 0.042,-0.12313 0.29,-0.25201 0.5805,-0.30199 0.2786,-0.048 0.7883,-0.15575 1.1327,-0.23955 0.3443,-0.0838 0.6555,-0.12285 0.6915,-0.0868 0.06,0.0603 -0.6575,1.81791 -0.8981,2.19912 -0.057,0.0909 -0.2577,0.16537 -0.445,0.16537 -0.6718,0 -1.3852,0.3182 -1.9055,0.84991 -0.4983,0.50919 -0.5231,0.57247 -0.4473,1.13905 0.07,0.52119 0.036,0.64776 -0.2579,0.96473 -0.186,0.20066 -0.3733,0.52602 -0.4163,0.72302 -0.043,0.197 -0.1297,0.52189 -0.1927,0.72198 -0.089,0.28158 -0.071,0.36381 0.076,0.36381 0.1884,0 0.7191,-0.66537 1.1332,-1.42096 0.2023,-0.3689 0.2702,-0.39348 1.3071,-0.47345 0.6015,-0.0464 1.1419,-0.0546 1.2007,-0.0182 0.059,0.0364 -0.1746,0.52624 -0.5186,1.0886 l -0.6256,1.02247 -0.9364,0.0385 c -0.8575,0.0353 -0.983,0.0785 -1.4917,0.51395 -0.4971,0.42549 -0.5516,0.52949 -0.5183,0.9899 0.03,0.42154 -0.031,0.57733 -0.3383,0.86255 -0.3718,0.34482 -1.0779,1.73258 -0.9477,1.86278 0.1817,0.18169 1.1463,-0.78397 1.6411,-1.64298 0.1054,-0.18292 2.4035,-0.0777 2.4035,0.11005 0,0.0648 -0.2828,0.50044 -0.6284,0.96811 l -0.6283,0.85031 -1.0345,0.005 c -0.9257,0.005 -1.0945,0.0467 -1.6047,0.39771 -0.6505,0.44754 -0.7343,0.60427 -0.7343,1.37325 0,0.49859 -0.05,0.58418 -0.5062,0.86611 -0.4789,0.296 -1.2136,1.25397 -1.2136,1.58249 0,0.44757 1.2666,-0.34355 1.6745,-1.04589 l 0.2438,-0.41966 0.979,0.0809 c 0.5385,0.0445 1.1189,0.0809 1.2899,0.0809 0.1709,0 0.3092,0.0446 0.3072,0.0992 0,0.0546 -0.3531,0.48441 -0.7803,0.9552 l -0.7768,0.85599 -1.0839,-0.0411 c -0.9271,-0.0351 -1.1674,0.003 -1.6605,0.26473 -0.6134,0.32545 -0.7567,0.53402 -0.9384,1.36603 -0.094,0.42841 -0.2105,0.57261 -0.6435,0.79375 -0.6222,0.31771 -0.7007,0.38749 -1.1225,0.99783 -0.176,0.25466 -0.3807,0.50447 -0.455,0.55513 -0.2349,0.1603 0.2539,0.25747 0.6114,0.12154 0.185,-0.0703 0.6625,-0.39354 1.0612,-0.71824 l 0.7248,-0.59036 1.2128,0.34904 c 0.6852,0.19719 1.1975,0.41358 1.1776,0.49738 -0.054,0.22614 -1.8584,1.63402 -2.0969,1.63592 -0.1152,8e-4 -0.2502,-0.0391 -0.3001,-0.089 -0.1798,-0.17984 -1.0881,-0.43456 -1.5564,-0.43651 -0.2631,-0.001 -0.7784,0.12268 -1.1451,0.27505 -0.5763,0.23952 -0.7017,0.36136 -0.9253,0.89962 -0.2179,0.52423 -0.34,0.64769 -0.7732,0.78161 -0.4231,0.13082 -1.7712,1.21345 -1.7712,1.42244 0,0.0324 0.1513,0.0589 0.336,0.0589 0.3377,0 1.1652,-0.36773 1.7807,-0.79132 0.3223,-0.22176 0.3604,-0.21367 1.4851,0.31493 0.6349,0.2984 1.155,0.60207 1.1559,0.67483 0,0.17735 -2.3453,1.41404 -2.4286,1.27938 -0.072,-0.11685 -0.9792,-0.57249 -1.6082,-0.8079 -0.3182,-0.11909 -0.5692,-0.10796 -1.1854,0.0525 -0.43,0.11198 -0.8238,0.27802 -0.8754,0.36896 -0.051,0.091 -0.2774,0.41837 -0.5021,0.7276 -0.3325,0.45755 -0.4868,0.56224 -0.8284,0.56224 -0.4366,0 -1.6226,0.70359 -1.7594,1.04364 -0.1039,0.25833 0.8439,0.11665 1.7546,-0.2623 l 0.6983,-0.29052 0.4923,0.39452 c 0.2709,0.21699 0.7477,0.55517 1.0596,0.75152 0.3119,0.19635 0.535,0.40889 0.4958,0.47231 -0.039,0.0634 -0.4134,0.22222 -0.8317,0.35288 -0.4182,0.13065 -0.9092,0.31439 -1.0911,0.40829 -0.4361,0.22511 -0.4486,0.22309 -0.8828,-0.14215 -0.5237,-0.44044 -1.2431,-0.82804 -1.7389,-0.93695 -0.7829,-0.17195 -1.1773,0.0206 -1.7734,0.86585 -0.3035,0.43037 -0.5847,0.78728 -0.625,0.79312 -0.04,0.006 -0.3837,0.0264 -0.7631,0.0455 -0.4831,0.0245 -0.8492,0.14025 -1.2209,0.38625 -0.292,0.19323 -0.5917,0.35133 -0.666,0.35133 -0.074,0 -0.1351,0.0846 -0.1351,0.18792 0,0.29901 0.6609,0.35752 1.5213,0.13468 0.4366,-0.11308 0.9318,-0.23964 1.1005,-0.28125 0.2244,-0.0554 0.4196,0.0311 0.7276,0.3222 0.2315,0.21883 0.708,0.61333 1.0589,0.87667 l 0.638,0.4788 -0.3734,0.1423 c -0.2054,0.0783 -0.5511,0.17797 -0.7683,0.22156 -0.2171,0.0436 -0.6739,0.18127 -1.015,0.30595 l -0.6202,0.2267 -0.374,-0.39493 c -0.7189,-0.75906 -1.3847,-1.11893 -2.2471,-1.21459 l -0.8148,-0.0904 -0.6326,0.7328 -0.6326,0.73281 h -0.8161 c -0.6571,0 -0.9744,0.0816 -1.6285,0.41895 -0.4467,0.23042 -0.8123,0.46585 -0.8123,0.52317 0,0.0573 0.2232,0.14616 0.4961,0.19743 0.43,0.0808 1.0996,0.003 2.4143,-0.27893 0.2768,-0.0594 0.5117,0.10418 1.4403,1.00343 1.1841,1.14667 1.2167,1.29984 0.2795,1.31378 -0.2546,0.004 -0.8499,0.11202 -1.3229,0.24051 l -0.8599,0.23362 -0.8817,-0.875 c -0.8217,-0.81545 -0.9398,-0.8857 -1.735,-1.03223 -0.4694,-0.0865 -0.9656,-0.1571 -1.1027,-0.15693 -0.2412,2.6e-4 -3.5736,1.6181 -3.8015,1.84549 -0.062,0.0618 0.2953,0.30623 0.7938,0.54321 2.4816,1.17982 6.9255,3.9263 6.9255,4.2802 0,0.0986 -0.3423,0.32009 -0.7606,0.49225 -0.6371,0.26217 -0.9903,0.31303 -2.174,0.31303 -1.3832,0 -1.4218,-0.008 -1.819,-0.38856 -0.2231,-0.2137 -0.4057,-0.46799 -0.4057,-0.56507 0,-0.33977 -0.6958,-1.22343 -1.3702,-1.74025 -0.6497,-0.49784 -0.9838,-0.69957 -2.5708,-1.55202 l -0.6999,-0.37593 -0.8876,0.45471 c -2.0503,1.05029 -3.2885,2.0521 -3.7557,3.03862 -0.4759,1.00483 -0.6574,1.1113 -1.9505,1.14431 -0.624,0.0159 -1.2834,0.001 -1.4653,-0.0326 z m 2.5839,-0.50558 c 0.5689,-0.23769 0.5868,-0.51696 0.047,-0.74036 -0.7779,-0.32223 -3.3488,-0.0739 -3.7073,0.35804 -0.1296,0.15614 0.046,0.23053 1.1422,0.48247 0.6064,0.13946 2.085,0.0806 2.5177,-0.10015 z m 13.8797,0.008 c 0.7563,-0.1992 0.917,-0.43165 0.3799,-0.54934 -0.2052,-0.045 -0.5359,-0.14329 -0.7348,-0.21846 -0.5225,-0.19751 -2.292,-0.18234 -2.6756,0.0229 -0.5081,0.27197 -0.5208,0.52212 -0.037,0.73239 0.5395,0.23449 2.1991,0.24124 3.0676,0.0125 z m -21.4741,-7.2242 c 0.064,0 0.1157,-0.05 0.1157,-0.11106 0,-0.19027 -0.65,-0.41811 -1.1928,-0.41811 -0.4387,0 -1.1081,-0.26417 -1.6515,-0.65173 -0.073,-0.0519 -0.3884,-0.17518 -0.7014,-0.27396 -0.3328,-0.105 -0.9317,-0.49951 -1.4418,-0.94987 -0.9458,-0.83497 -1.356,-1.03206 -0.7106,-0.34146 0.2205,0.23585 0.4688,0.59303 0.552,0.79375 0.1063,0.2567 0.2464,0.36494 0.4724,0.36494 0.4322,0 1.0208,0.31823 1.3407,0.72496 0.2095,0.2663 0.3797,0.33337 0.8459,0.33337 0.4195,0 0.7118,0.0953 1.0393,0.33885 0.3357,0.24966 0.5557,0.3193 0.836,0.26458 0.2091,-0.0408 0.4324,-0.0743 0.4961,-0.0743 z m 3.5918,-0.63142 c 0.1,-0.12597 0.079,-0.1474 -0.084,-0.0851 -0.1195,0.0458 -0.2125,0.2109 -0.2067,0.36683 0.01,0.19351 0.034,0.22051 0.084,0.0851 0.04,-0.10914 0.1334,-0.27421 0.2067,-0.36683 z m -1.0167,-0.12829 c -0.092,-0.0917 -0.3427,0.0947 -0.3427,0.25455 0,0.0877 0.076,0.0777 0.2016,-0.0267 0.1109,-0.092 0.1744,-0.19459 0.1411,-0.22789 z m 0.8105,-2.51269 c -0.03,-0.20109 -0.056,-0.068 -0.057,0.29584 0,0.3638 0.024,0.52833 0.055,0.36562 0.031,-0.16272 0.032,-0.46037 0,-0.66146 z m -13.9194,-4.00364 c 0.045,-0.0728 -0.041,-0.1323 -0.1906,-0.1323 -0.1498,0 -0.2724,0.0595 -0.2724,0.1323 0,0.0728 0.086,0.13229 0.1906,0.13229 0.1049,0 0.2275,-0.0595 0.2724,-0.13229 z m -2.5342,-0.46916 c -0.043,-0.11252 -0.3677,-0.35115 -0.7212,-0.53029 -0.3536,-0.17914 -0.8372,-0.54532 -1.0749,-0.81373 -0.2377,-0.26841 -0.7361,-0.78881 -1.1077,-1.15643 -0.4102,-0.40593 -0.7686,-0.91688 -0.9125,-1.30112 -0.3069,-0.81893 -0.5323,-0.9702 -0.4185,-0.28083 0.047,0.28416 0.086,0.61599 0.087,0.73738 0,0.1214 0.2061,0.34722 0.4562,0.50182 0.2915,0.18011 0.5613,0.5167 0.7512,0.93683 0.163,0.36066 0.378,0.65573 0.4778,0.65573 0.3657,0 0.9438,0.40229 1.2197,0.84875 0.208,0.33645 0.396,0.47235 0.7073,0.5112 0.2333,0.0291 0.4669,0.0624 0.5192,0.0741 0.052,0.0116 0.06,-0.0709 0.017,-0.1834 z m 4.0101,-1.41852 c -0.036,-0.0896 -0.064,0.0157 -0.061,0.23403 0,0.21828 0.032,0.29156 0.066,0.16285 0.034,-0.12872 0.031,-0.30731 -0.01,-0.39688 z m -0.3042,-2.63528 c -0.059,-0.3657 -0.2067,-0.56564 -0.6442,-0.87403 -0.3867,-0.27255 -0.5964,-0.5324 -0.6587,-0.81612 -0.073,-0.33459 -0.2262,-0.48231 -0.778,-0.75295 -0.3917,-0.1921 -0.8079,-0.52186 -0.9691,-0.76787 -0.2374,-0.36211 -0.3895,-0.44535 -0.9496,-0.51965 -0.3668,-0.0487 -0.7026,-0.14627 -0.7463,-0.21693 -0.044,-0.0707 -0.14,-0.12845 -0.214,-0.12845 -0.2575,0 0.6163,0.62412 1.0897,0.77838 0.277,0.0902 0.9082,0.56908 1.5075,1.14364 0.567,0.54362 1.0749,0.9884 1.1285,0.9884 0.054,0 0.2575,0.32672 0.4529,0.72604 0.2957,0.60456 0.7031,1.06882 0.8281,0.9438 0.017,-0.0166 0,-0.24347 -0.047,-0.50426 z m -8.1693,-0.86517 c -0.044,-0.044 -0.075,0.0342 -0.069,0.17363 0.01,0.15411 0.038,0.18546 0.08,0.0799 0.038,-0.0955 0.034,-0.2096 -0.01,-0.25356 z m 2.9627,-3.34312 c 0,-0.0728 -0.063,-0.13229 -0.1401,-0.13229 -0.077,0 -0.1033,0.0595 -0.058,0.13229 0.045,0.0728 0.108,0.13229 0.1401,0.13229 0.032,0 0.058,-0.0595 0.058,-0.13229 z m -6.0854,-3.78447 c 0,-0.0286 -0.1637,-0.0511 -0.3638,-0.05 -0.2647,0.002 -0.313,0.0342 -0.1774,0.12005 0.1685,0.10664 0.5412,0.0584 0.5412,-0.0701 z m 2.1167,-1.21795 c 0,-0.16614 -0.039,-0.15631 -0.1942,0.0493 -0.2541,0.33596 -0.2567,0.53246 0,0.32294 0.1092,-0.0906 0.1985,-0.25808 0.1985,-0.37221 z m 0.474,-2.61639 c 0.071,-0.3774 0.03,-0.52694 -0.2154,-0.7881 -0.2156,-0.22948 -0.3202,-0.53117 -0.363,-1.04751 -0.052,-0.62799 -0.1174,-0.7689 -0.4876,-1.05123 -0.2856,-0.2179 -0.4832,-0.5252 -0.5955,-0.92649 -0.1378,-0.49194 -0.2718,-0.6612 -0.742,-0.93672 -0.3156,-0.18495 -0.6338,-0.4393 -0.7072,-0.56522 -0.121,-0.20759 -0.1338,-0.20842 -0.1374,-0.009 0,0.12099 0.3398,0.56917 0.76,0.99595 0.5243,0.53254 0.8195,0.96157 0.941,1.36754 0.097,0.32535 0.2893,0.74956 0.4266,0.9427 0.1373,0.19313 0.2496,0.41637 0.2496,0.49609 0,0.0797 0.059,0.14495 0.1323,0.14495 0.073,0 0.1323,0.18199 0.1323,0.40443 0,0.5748 0.274,1.58971 0.407,1.50751 0.062,-0.038 0.1512,-0.27874 0.1993,-0.53492 z m -3.3844,-5.61036 c 0,-0.0728 -0.063,-0.13229 -0.1401,-0.13229 -0.077,0 -0.1033,0.0595 -0.058,0.13229 0.045,0.0728 0.108,0.13229 0.1401,0.13229 0.032,0 0.058,-0.0595 0.058,-0.13229 z m -1.6577,-4.07054 c 0.3616,-0.0384 0.8379,-0.17976 1.0584,-0.31422 l 0.4008,-0.24446 -1.356,-5.3e-4 c -1.3325,-5.3e-4 -1.3559,0.005 -1.3559,0.30819 0,0.3868 0.1257,0.51803 0.3899,0.40702 0.113,-0.0474 0.5012,-0.11767 0.8628,-0.15603 z m -0.1205,-1.41536 c 0.194,-0.14671 0.2083,-0.19423 0.058,-0.19423 -0.1092,0 -0.314,0.0874 -0.4553,0.19423 -0.1939,0.14671 -0.2082,0.19423 -0.058,0.19423 0.1091,0 0.314,-0.0874 0.4552,-0.19423 z m -2.4552,-0.0703 c 0,-0.0728 -0.1042,-0.13138 -0.2315,-0.13027 -0.1978,0.002 -0.2026,0.0207 -0.033,0.13027 0.2496,0.16134 0.2645,0.16134 0.2645,0 z m -1.4514,-2.90128 c -0.149,-0.35967 -0.1052,-3.3914 0.051,-3.54783 0.043,-0.0425 0.077,-0.18461 0.077,-0.31579 0,-0.13118 0.1191,-0.45049 0.2646,-0.70958 0.1455,-0.25909 0.2646,-0.63067 0.2646,-0.82574 0,-0.33 -0.019,-0.31858 -0.2645,0.16406 -0.1455,0.28531 -0.3538,0.56875 -0.463,0.62986 -0.1416,0.0793 -0.1986,0.33543 -0.1986,0.8938 0,0.45764 -0.092,0.97488 -0.2206,1.24545 -0.208,0.43608 -0.2068,0.49359 0.021,0.99793 0.1965,0.43558 0.2129,0.59766 0.088,0.87088 -0.2235,0.49055 -0.1894,0.80015 0.1447,1.3132 l 0.2977,0.45708 0.043,-0.40848 c 0.024,-0.22466 -0.024,-0.56884 -0.105,-0.76484 z m 5.6454,0.79707 c 0.2572,-0.32651 0.274,-0.42609 0.1437,-0.85088 -0.1286,-0.419 -0.108,-0.55834 0.1602,-1.07959 0.2673,-0.5199 0.2854,-0.64034 0.1372,-0.91712 -0.1103,-0.20624 -0.1486,-0.61399 -0.1085,-1.15607 0.053,-0.72139 0.021,-0.89244 -0.2368,-1.23432 -0.1645,-0.21828 -0.3248,-0.57547 -0.3563,-0.79375 -0.051,-0.35543 -0.059,-0.3445 -0.077,0.10463 -0.011,0.27583 0.1033,0.88245 0.2537,1.34805 0.2083,0.64471 0.2398,0.90944 0.1323,1.11037 -0.078,0.14511 -0.1412,0.70674 -0.1412,1.24808 0,0.54134 -0.089,1.23735 -0.1985,1.54669 -0.2146,0.60849 -0.2575,1.06269 -0.099,1.05101 0.055,-0.004 0.2303,-0.17372 0.3906,-0.3771 z m -0.5422,-6.8558 c -0.044,-0.0439 -0.075,0.0342 -0.069,0.17364 0.01,0.15411 0.038,0.18546 0.08,0.0799 0.038,-0.0955 0.034,-0.20961 -0.01,-0.25357 z m -4.2333,-0.13229 c -0.044,-0.044 -0.075,0.0342 -0.07,0.17364 0.01,0.15411 0.038,0.18546 0.08,0.0799 0.038,-0.0955 0.034,-0.2096 -0.01,-0.25356 z"
             style="opacity:1;fill:#008c43;fill-opacity:1;fill-rule:evenodd;stroke:none;stroke-width:0.25;stroke-linecap:butt;stroke-linejoin:miter;stroke-miterlimit:4;stroke-dasharray:none;stroke-dashoffset:0;stroke-opacity:1;paint-order:normal" />
          <path
             inkscape:connector-curvature="0"
             id="path1195-1"
             d="m 1312.642,200.45897 c 2e-4,-0.29409 -2.0767,-0.84183 -2.5311,-0.66746 -0.3721,0.14277 -0.3967,0.10516 -0.1364,-0.20845 0.2619,-0.31558 0.1061,-0.50655 -0.8886,-1.08953 -1.2206,-0.7153 -1.563,-1.04147 -0.7764,-0.73964 0.3848,0.14768 0.3818,0.0845 -0.029,-0.60362 l -0.4586,-0.76854 0.593,0.66146 c 0.3261,0.36379 0.6962,0.63169 0.8225,0.59531 0.1262,-0.0364 0.2296,0.0979 0.2296,0.29833 0,0.20047 0.1876,0.52023 0.417,0.71059 0.3456,0.28684 0.4582,0.28107 0.6574,-0.0337 0.2014,-0.3182 0.241,-0.30996 0.2444,0.0508 0,0.50352 0.428,0.88699 1.2609,1.14232 0.4626,0.14184 0.5999,0.0754 0.6162,-0.29835 0.016,-0.37292 0.055,-0.39177 0.1719,-0.084 0.083,0.21828 0.2821,0.48434 0.4422,0.59125 0.4189,0.27978 1.8055,0.24792 1.6292,-0.0374 -0.082,-0.13195 0.078,-0.18077 0.3542,-0.1085 0.2764,0.0723 0.8421,-0.0856 1.2572,-0.35083 0.7317,-0.46761 0.7429,-0.4675 0.3686,0.004 -0.2123,0.26731 -0.6886,0.6045 -1.0584,0.74931 -0.7424,0.29076 -3.1863,0.43416 -3.186,0.18695 z m 3.0093,-3.17718 c 0.1258,-0.55512 0.029,-0.74533 -0.5045,-0.98828 -0.5552,-0.25294 -0.744,-0.2172 -1.1856,0.22441 -0.338,0.33801 -0.5253,0.40265 -0.5253,0.18131 0,-0.18919 0.1223,-0.46625 0.2718,-0.61573 0.1859,-0.18596 0.066,-0.36535 -0.3789,-0.56819 -0.5455,-0.24853 -0.7711,-0.20256 -1.3962,0.28461 l -0.7456,0.58104 0.4724,-0.73226 c 0.4645,-0.72002 0.4623,-0.73609 -0.1323,-0.96054 -0.3686,-0.13913 -0.8114,-0.12024 -1.1339,0.0484 -0.4585,0.23968 -0.4844,0.22235 -0.1941,-0.12968 0.2837,-0.34419 0.2116,-0.45741 -0.4715,-0.74039 -1.0023,-0.41513 -0.8739,-0.64696 0.1439,-0.25999 0.5658,0.2151 0.7938,0.20113 0.9587,-0.0588 0.1645,-0.25931 0.2173,-0.24025 0.2204,0.0796 0,0.2313 0.3017,0.55617 0.6655,0.72193 0.5664,0.25807 0.6621,0.23565 0.6655,-0.15597 0,-0.25154 0.1249,-0.63594 0.2727,-0.85422 0.2052,-0.30325 0.2348,-0.24084 0.1256,0.26458 -0.1614,0.74683 0.024,1.10727 0.7837,1.52279 0.4457,0.24377 0.5756,0.18067 0.8639,-0.41949 0.1866,-0.38853 0.2817,-0.49806 0.2113,-0.2434 -0.3378,1.2224 0.9769,2.09335 1.7391,1.15206 0.4458,-0.5505 0.4481,-0.54926 0.3111,0.16711 -0.116,0.60686 -0.017,0.76958 0.6196,1.02264 0.4166,0.16553 0.6153,0.35401 0.4415,0.41887 -0.1739,0.0648 -0.5538,-0.009 -0.8443,-0.16476 -0.4323,-0.2314 -0.6082,-0.17452 -0.9692,0.31357 l -0.4411,0.59624 z m 2.9614,-2.75214 c -0.1019,-0.54321 -0.3294,-0.92605 -0.5503,-0.92605 -0.2071,0 -0.3165,-0.15635 -0.2432,-0.34742 0.2001,-0.52145 -0.8311,-1.33125 -1.4793,-1.16173 -0.4417,0.11551 -0.4933,0.0727 -0.2562,-0.213 0.3863,-0.46552 -0.5833,-1.02597 -1.4788,-0.85478 -0.3431,0.0656 -0.5603,0.0165 -0.4827,-0.10899 0.2466,-0.39905 -0.7358,-0.58642 -1.5209,-0.29006 -0.4161,0.15707 -0.6892,0.17654 -0.6068,0.0433 0.082,-0.13326 -0.066,-0.2517 -0.3289,-0.26318 -0.2805,-0.0122 -0.341,-0.0764 -0.1463,-0.15489 0.1828,-0.0737 0.2526,-0.26313 0.1551,-0.42095 -0.1197,-0.19365 -0.013,-0.21621 0.3291,-0.0694 0.9899,0.42531 2.2257,0.48048 2.2342,0.0997 0.01,-0.23954 0.098,-0.20502 0.2777,0.10335 0.4468,0.76696 1.7974,1.34936 2.2529,0.97138 0.3074,-0.25518 0.3552,-0.24373 0.2396,0.0575 -0.1966,0.5123 1.1379,2.08359 1.6143,1.90078 0.2547,-0.0977 0.3262,-0.0145 0.2216,0.258 -0.085,0.22125 -0.036,0.82982 0.108,1.35237 0.1442,0.52255 0.1661,0.9501 0.049,0.9501 -0.1176,0 -0.292,-0.41671 -0.3876,-0.92603 z m -17.3436,-1.21443 c 0,-0.50043 -1.892,-1.19861 -2.4232,-0.89647 -0.2795,0.15896 -0.2901,0.12961 -0.048,-0.1327 0.2431,-0.2631 0.1438,-0.47783 -0.4538,-0.98061 -0.4207,-0.35406 -1.0012,-0.66154 -1.2899,-0.6833 -0.4024,-0.0303 -0.4575,-0.12077 -0.2361,-0.38751 0.2164,-0.26076 0.1249,-0.57822 -0.3647,-1.26647 -0.4805,-0.6753 -0.6198,-1.14646 -0.526,-1.77954 l 0.1277,-0.86106 0.3049,1.05834 c 0.2069,0.71804 0.3617,0.93072 0.4814,0.66145 0.1297,-0.29156 0.1703,-0.25646 0.1528,0.1323 -0.013,0.29104 -0.01,0.66248 0.01,0.82543 0.049,0.48008 1.9136,2.48186 2.3113,2.48186 0.2007,0 0.365,0.1 0.365,0.22211 0,0.3861 1.4266,0.92199 1.541,0.57885 0.062,-0.1864 0.2247,-0.12926 0.4296,0.15104 0.2765,0.3781 0.4644,0.40393 1.1639,0.16008 0.4588,-0.15994 0.8342,-0.18333 0.8342,-0.052 0,0.13135 -0.4465,0.32093 -0.9922,0.42127 -0.5457,0.10035 -1.0796,0.3141 -1.1865,0.47501 -0.1242,0.18695 -0.1959,0.14071 -0.1985,-0.12811 z m 3.1586,-2.76921 c -0.207,-0.24949 -0.6044,-0.37635 -0.9637,-0.30766 -0.6378,0.12192 -0.8562,-0.2035 -0.2807,-0.41818 0.2307,-0.086 0.154,-0.30729 -0.2534,-0.7311 -0.5164,-0.53729 -0.6697,-0.57105 -1.3229,-0.29126 l -0.7388,0.31645 0.5852,-0.50156 c 0.5602,-0.4801 0.565,-0.51991 0.1115,-0.93034 -0.5594,-0.50624 -1.3891,-0.55658 -1.8344,-0.11126 -0.2469,0.24695 -0.3175,0.24144 -0.3175,-0.0248 0,-0.18825 0.243,-0.40582 0.54,-0.48348 0.7599,-0.19872 0.5055,-0.68267 -0.5406,-1.02836 -0.5436,-0.17964 -0.7407,-0.3448 -0.5093,-0.42673 0.294,-0.10407 0.2312,-0.29851 -0.2838,-0.87839 l -0.6615,-0.74473 0.8372,0.57802 c 0.6115,0.42219 0.8734,0.48835 0.9713,0.24542 0.074,-0.18294 0.1435,-0.0832 0.155,0.2217 0.012,0.30487 0.2439,0.75611 0.5164,1.00277 0.4684,0.42384 0.5033,0.41883 0.6367,-0.0913 0.078,-0.29686 0.2952,-0.53975 0.4834,-0.53975 0.2662,0 0.2717,0.0706 0.025,0.3175 -0.4405,0.44049 -0.3966,1.00869 0.1223,1.58204 0.4156,0.45923 0.4674,0.46107 0.9398,0.0335 0.4814,-0.43564 0.4903,-0.42695 0.2394,0.23299 -0.219,0.57614 -0.1579,0.78196 0.3831,1.29023 0.354,0.3326 0.6437,0.47765 0.6437,0.32233 0,-0.15531 0.1769,-0.35026 0.393,-0.43321 0.3256,-0.12492 0.3389,-0.0642 0.078,0.35378 -0.2579,0.41302 -0.2255,0.60356 0.1786,1.05016 0.2716,0.30008 0.4321,0.60727 0.3567,0.68266 -0.075,0.0754 -0.2956,-0.054 -0.4894,-0.28749 z m 2.2181,-1.72628 c 0.2644,-0.70046 0.2406,-0.8642 -0.1693,-1.16391 -0.3524,-0.25769 -0.3869,-0.38133 -0.1322,-0.47348 0.5101,-0.18452 -0.3506,-1.65989 -0.9394,-1.61023 -0.3758,0.0317 -0.397,-0.0306 -0.1228,-0.36106 0.2738,-0.32991 0.2243,-0.48608 -0.2846,-0.89819 -0.3388,-0.27436 -0.7885,-0.49884 -0.9992,-0.49884 -0.2108,0 -0.3133,-0.11309 -0.2279,-0.25131 0.243,-0.39309 -0.8279,-0.83522 -1.64,-0.67707 -0.5869,0.11431 -0.6276,0.0953 -0.2039,-0.0956 0.5701,-0.25676 0.5779,-0.2529 -1.3229,-0.65486 -0.3127,-0.0661 -0.1774,-0.12445 0.3308,-0.14259 0.4927,-0.0176 0.8616,-0.17192 0.8639,-0.36142 0,-0.21638 0.071,-0.23484 0.1984,-0.0534 0.107,0.15253 0.5937,0.55636 1.0817,0.89739 0.6497,0.45405 0.9402,0.5344 1.085,0.30013 0.1305,-0.21127 0.3092,-0.0508 0.5259,0.47254 0.4205,1.01516 1.212,1.73376 1.6271,1.47723 0.2034,-0.12574 0.2538,-0.0885 0.1367,0.10093 -0.102,0.16501 -0.045,0.76889 0.1267,1.34194 0.2337,0.77975 0.4198,1.00433 0.7399,0.89254 0.3477,-0.12142 0.3658,-0.0827 0.097,0.20707 -0.1819,0.19604 -0.3307,0.62055 -0.3307,0.94334 0,0.74045 -0.2565,1.42393 -0.5345,1.42393 -0.1173,0 -0.075,-0.3668 0.094,-0.81512 z m -14.2168,-8.66544 c -0.1826,-0.29552 -1.4237,-0.56313 -1.5616,-0.33671 -0.054,0.088 -0.08,0.0477 -0.058,-0.0896 0.061,-0.3886 -1.6658,-1.7963 -1.9715,-1.60733 -0.4891,0.30226 -0.2872,-0.0216 0.4218,-0.67661 0.6462,-0.59702 0.6827,-0.60356 0.5267,-0.0945 -0.1181,0.38532 0.029,0.73114 0.4963,1.1706 0.3652,0.34304 0.6639,0.52067 0.6639,0.39473 0,-0.12594 0.1489,-0.0343 0.3308,0.20365 0.1819,0.23795 0.7376,0.46907 1.235,0.5136 0.7838,0.0702 0.8486,0.1267 0.4865,0.42453 -0.2394,0.19698 -0.4825,0.23868 -0.5696,0.0977 z m -0.4581,-1.56579 c -0.3291,-0.41964 -0.3197,-0.429 0.1,-0.0999 0.2547,0.19973 0.463,0.40808 0.463,0.46303 0,0.21776 -0.2172,0.0776 -0.5629,-0.36313 z m 2.4553,-0.48017 c -0.2415,-0.53015 -0.4389,-0.64292 -0.9023,-0.51547 -0.5469,0.15042 -0.5571,0.13401 -0.1302,-0.21045 0.5776,-0.46599 0.5847,-0.81723 0.028,-1.37383 -0.2806,-0.28061 -0.6795,-0.38368 -1.1244,-0.29052 l -0.6896,0.1444 0.6615,-0.30955 c 0.3638,-0.17025 0.7073,-0.34196 0.7634,-0.38158 0.2994,-0.21152 -0.8581,-1.41204 -1.3649,-1.41553 -0.461,-0.003 -0.5056,-0.0569 -0.2049,-0.24712 0.2113,-0.13369 0.4778,-0.18522 0.5922,-0.1145 0.2999,0.18531 -0.069,-0.7747 -0.4181,-1.08953 -0.1616,-0.14552 -0.3057,-0.44318 -0.3203,-0.66146 -0.015,-0.21828 -0.1079,-0.69453 -0.2075,-1.05833 -0.1422,-0.5194 -0.078,-0.47587 0.3001,0.20267 0.3936,0.70702 0.5454,0.80324 0.8352,0.52917 0.293,-0.27712 0.3069,-0.24284 0.081,0.19855 -0.195,0.38077 -0.1799,0.70782 0.053,1.14238 0.2903,0.54261 0.3633,0.56373 0.67,0.19409 0.1894,-0.22813 0.4573,-0.41478 0.5954,-0.41478 0.1381,0 0.064,0.1871 -0.1647,0.41577 -0.4454,0.44537 -0.4994,0.99555 -0.1783,1.81562 0.1378,0.3517 0.2609,0.41372 0.3939,0.19844 0.1065,-0.17224 0.3879,-0.31317 0.6254,-0.31317 0.3634,0 0.3514,0.0588 -0.076,0.37115 -0.4246,0.31042 -0.4632,0.49438 -0.2364,1.12448 0.1909,0.53004 0.4243,0.73046 0.7878,0.67615 0.422,-0.0631 0.4445,-0.0289 0.1232,0.18654 -0.3219,0.21588 -0.338,0.40985 -0.089,1.06936 0.3683,0.97567 0.032,1.08171 -0.4034,0.12705 z m 2.849,-0.63029 c 0.3894,-0.67181 0.4532,-1.00283 0.2425,-1.25677 -0.2062,-0.24845 -0.2032,-0.34475 0.011,-0.34475 0.4461,0 0.3572,-1.47272 -0.1124,-1.86247 -0.2784,-0.23105 -0.3164,-0.39726 -0.1188,-0.51941 0.3459,-0.21375 -0.1878,-1.58687 -0.6167,-1.58687 -0.1464,0 -0.1857,-0.0805 -0.087,-0.17881 0.2338,-0.23382 -0.8732,-1.40869 -1.3274,-1.40869 -0.1929,0 -0.321,-0.11066 -0.2846,-0.24591 0.036,-0.13525 -0.1719,-0.43947 -0.463,-0.67605 -0.5207,-0.42328 -0.5199,-0.42569 0.049,-0.15097 0.756,0.36522 0.9434,0.35236 0.7507,-0.0515 -0.087,-0.1819 0,-0.10947 0.1828,0.16096 1.1096,1.60176 1.3166,1.78059 1.6966,1.46522 0.3053,-0.25333 0.3432,-0.22664 0.2017,0.14201 -0.2516,0.65568 0.4292,2.53129 0.9188,2.53129 0.3169,0 0.3369,0.0706 0.09,0.3175 -0.3889,0.38888 -0.4243,2.32833 -0.043,2.32833 0.2934,0 0.2625,0.0479 -0.9401,1.45521 l -0.6783,0.79375 z m -8.8229,-0.77003 c -0.229,-0.44285 -0.6247,-0.93916 -0.8794,-1.1029 -0.4396,-0.28268 -0.4395,-0.29038 0,-0.15249 0.4929,0.15353 0.4763,-0.26457 -0.081,-2.03256 -0.1322,-0.41952 -0.1325,-0.6751 -7e-4,-0.59366 0.1272,0.0787 0.3567,-0.18516 0.5099,-0.58625 0.2515,-0.65838 0.2646,-0.6264 0.1351,0.32908 -0.107,0.7895 -0.072,0.95752 0.1369,0.66146 0.3638,-0.51506 0.3703,-0.11829 0.01,0.55655 -0.3004,0.5612 -0.091,1.65661 0.2736,1.4313 0.1214,-0.0751 0.1617,0.0896 0.089,0.36598 -0.072,0.27637 0.01,0.76298 0.1784,1.08136 0.1704,0.31839 0.2494,0.63928 0.1756,0.7131 -0.074,0.0738 -0.3216,-0.22812 -0.5506,-0.67097 z m -1.5914,-12.75961 c -0.4279,-0.40736 -0.9042,-0.67069 -1.0583,-0.58516 -0.1541,0.0855 -0.1406,0.004 0.03,-0.18036 0.3413,-0.36936 0.047,-1.33387 -0.667,-2.18917 -0.2874,-0.34416 -0.3011,-0.46302 -0.053,-0.46302 0.2328,0 0.3006,-0.33911 0.2249,-1.12448 -0.06,-0.62441 0.044,-1.41864 0.2351,-1.78595 0.189,-0.3638 0.3444,-0.99589 0.3453,-1.40467 10e-4,-0.44125 0.1121,-0.67492 0.2736,-0.57512 0.1496,0.0925 0.5171,-0.10889 0.8167,-0.44741 0.45,-0.50839 0.4395,-0.45743 -0.06,0.29286 -0.5632,0.84607 -0.5693,0.89573 -0.089,0.72413 0.3986,-0.14245 0.3694,-0.0698 -0.1288,0.32039 -0.3544,0.27755 -0.685,0.84466 -0.7347,1.26025 -0.05,0.4156 -0.1598,1.20342 -0.2448,1.75074 -0.1182,0.7612 -0.07,0.97353 0.2055,0.90327 0.198,-0.0505 0.2707,-0.0419 0.1616,0.0191 -0.2711,0.15161 -0.2434,1.4383 0.041,1.88671 0.127,0.20055 0.3522,0.28968 0.5004,0.19808 0.1621,-0.10015 0.2157,0.0395 0.1344,0.35014 -0.098,0.3747 0.094,0.65635 0.7005,1.02487 0.5268,0.32034 0.7081,0.55573 0.4906,0.63682 -0.1899,0.0708 -0.6953,-0.20466 -1.1233,-0.61203 z m 5.7535,0.41239 c 0.4082,-0.23241 0.83,-0.66029 0.9375,-0.95084 0.1919,-0.5187 0.2048,-0.51759 0.7132,0.0615 0.2847,0.32438 0.3614,0.49812 0.1703,0.38609 -0.1982,-0.11618 -0.5392,-0.0355 -0.7938,0.18781 -0.2455,0.21532 -0.744,0.46946 -1.1078,0.56475 -0.6269,0.16421 -0.6227,0.1512 0.081,-0.24931 z m -2.7223,-0.59748 c 0,-0.65115 -0.153,-0.92829 -0.5994,-1.10771 -0.585,-0.23512 -0.5834,-0.23958 0.09,-0.25606 0.5924,-0.0145 0.6787,-0.12441 0.6378,-0.81218 -0.052,-0.86916 -0.033,-0.8385 -0.7937,-1.29893 -0.4809,-0.29111 -0.4628,-0.30627 0.1985,-0.16628 0.6657,0.14094 0.7276,0.0868 0.7276,-0.6363 0,-0.58421 -0.1898,-0.89964 -0.7276,-1.2094 l -0.7276,-0.41906 0.7276,0.15105 c 0.6628,0.13763 0.7276,0.0819 0.7276,-0.62567 0,-0.4272 -0.089,-0.82667 -0.1985,-0.88771 -0.1091,-0.061 -0.05,-0.0747 0.1323,-0.0303 0.2143,0.0522 0.3464,-0.26583 0.3752,-0.90326 l 0.044,-0.98389 0.103,0.97808 c 0.081,0.77362 0.1965,0.9492 0.5508,0.83992 0.3983,-0.12285 0.3966,-0.10516 -0.015,0.15955 -0.2547,0.16374 -0.463,0.58945 -0.463,0.94602 0,0.52342 0.1401,0.65422 0.7276,0.679 0.5499,0.0232 0.5983,0.0618 0.1984,0.15797 -0.6869,0.16522 -0.8225,0.3234 -1.0292,1.2004 -0.1549,0.65694 -0.1004,0.72963 0.5611,0.74849 l 0.7327,0.0209 -0.7276,0.26574 c -0.5667,0.20698 -0.7276,0.43641 -0.7276,1.03745 0,0.5555 0.1297,0.77396 0.463,0.77975 0.441,0.008 0.441,0.0209 0,0.27773 -0.2547,0.14832 -0.4649,0.47213 -0.4671,0.71956 0,0.24744 -0.1195,0.62847 -0.2605,0.84676 -0.1944,0.30072 -0.2575,0.18648 -0.2605,-0.47155 z m 4.2292,-0.69102 c 0,-0.0745 0.1366,-0.43518 0.3035,-0.80152 0.2393,-0.52515 0.2253,-0.76219 -0.066,-1.12033 -0.3257,-0.40028 -0.315,-0.43378 0.09,-0.28198 0.4087,0.15316 0.4568,-0.0193 0.4338,-1.55485 -0.021,-1.40293 -0.1322,-1.82636 -0.592,-2.25574 -0.5113,-0.47739 -0.5167,-0.5097 -0.055,-0.3334 0.489,0.18694 0.4918,0.16828 0.066,-0.4394 -0.6184,-0.88289 -0.5556,-1.15713 0.1121,-0.48944 0.5872,0.58724 0.7131,0.95586 0.746,2.18368 0.016,0.58826 0.1166,0.71894 0.4546,0.58925 0.3513,-0.13482 0.3745,-0.0946 0.1213,0.21043 -0.1721,0.2074 -0.3448,0.92558 -0.3838,1.59595 -0.039,0.67037 -0.2126,1.36066 -0.3859,1.53397 -0.1733,0.17331 -0.3151,0.46287 -0.3151,0.64345 0,0.18059 -0.1191,0.40193 -0.2646,0.49187 -0.1455,0.0899 -0.2646,0.10257 -0.2646,0.0281 z"
             style="fill:#29993c;stroke-width:0.26458332" />
        </g>
      </g>
    </g>
  </g>
</svg>
