<svg width="540" height="360" version="1.1" viewBox="0 0 540 360" xmlns="http://www.w3.org/2000/svg">
<!-- 1 unidade = 9 pixels -->
<path id="faixa_azul" fill="#3155A4" d="M0 0h540v216H0z"/>
<path id="arco_vermelho" d="M69 270 A 129 129 202.5 0 1 471,270" style="fill:none;" stroke-width="12" stroke="#C34342"/>
<path id="arco_amarelo" d="M81 270 A 117 117 202.5 0 1 459,270" style="fill:none;" stroke-width="12" stroke="#FFB511"/>
<path id="arco_verde" d="M93 270 A 105 105 202.5 0 1 447,270" style="fill:none;" stroke-width="12" stroke="#00AD4A"/>
<path id="faixa_branca" fill="#fff" d="M0 216h540v144H0z"/>
<path id="cruz" d="M270 243v90m-27-58.5h54" stroke-width="12" stroke="#C34342" fill="none"/>
<path id="sol" fill="#FFB511" d="m 270,126 2.93684,9.19249 5.21596,-8.11915 0.45758,9.63937 7.13962,-6.49251 -2.05287,9.42935 8.57673,-4.42341 -4.42341,8.57673 9.42935,-2.05287 -6.49251,7.13962 9.63937,0.45758 -8.11915,5.21596 9.19249,2.93684 -9.19249,2.93684 8.11915,5.21596 -9.63937,0.45758 6.49251,7.13962 -9.42935,-2.05287 4.42341,8.57673 -8.57673,-4.42341 2.05287,9.42935 -7.13962,-6.49251 -0.45758,9.63937 -5.21596,-8.11915 L 270,189 l -2.93684,-9.19249 -5.21596,8.11915 -0.45758,-9.63937 -7.13962,6.49251 2.05287,-9.42935 -8.57673,4.42341 4.42341,-8.57673 -9.42935,2.05287 6.49251,-7.13962 -9.63937,-0.45758 8.11915,-5.21596 L 238.5,157.5 l 9.19249,-2.93684 -8.11915,-5.21596 9.63937,-0.45758 -6.49251,-7.13962 9.42935,2.05287 -4.42341,-8.57673 8.57673,4.42341 -2.05287,-9.42935 7.13962,6.49251 0.45758,-9.63937 5.21596,8.11915z" />
<path id="strela" fill="#FFB511" d="M270 18 l8.77283 27-22.96757-16.686918 h28.38948 l-22.96757 16.686917z"/>
</svg>
