<?xml version="1.0"?>
<svg version="1.1" width="900" height="450" viewBox="0 0 9000 4500" xmlns="http://www.w3.org/2000/svg" xmlns:xlink="http://www.w3.org/1999/xlink">
<title>Flag of Belarus</title>
<rect width="100%" height="100%" fill="#c8313e"/>
<rect y="3e3" width="100%" height="1500" fill="#4aa657"/>
<rect width="1e3" height="100%" fill="#fff"/>
<g id="a">
<path id="b" d="m173.9 0h130.4v73.77h43.48v73.77h43.48v73.77h43.48v73.77h43.48v73.77h-43.48v73.77h-43.48v73.77h-43.48v73.77h-43.48v73.77h-43.48v73.77h-43.48v-73.77h-43.48v-73.77h-43.48v-73.77h-43.48v-73.77h-43.48v-73.77h-43.48v-73.77h43.48v-73.77h43.48v-73.77h43.48v-73.77h43.48zm43.48 147.5h43.48v73.77h43.48v73.77h43.48v73.77h-43.48v73.77h-43.48v73.77h-43.48v-73.77h-43.48v-73.77h-43.48v-73.77h43.48v-73.77h43.48zm0 147.5h43.48v73.77h-43.48zm-217.4-221.3h43.48v73.77h-43.48zm0 442.6h43.48v73.77h-43.48zm478.2-516.4h26.09v147.5h-26.09zm0 516.4h26.09v147.5h-26.09zm-391.3 147.5h43.48v73.77h43.48v73.77h43.48v73.77h-43.48v73.77h-43.48v73.77h-43.48v-73.77h-43.48v-73.77h-43.48v-73.77h43.48v-73.77h43.48zm0 147.5h43.48v73.77h-43.48zm260.9-147.5h43.48v73.77h43.48v73.77h43.48v73.77h-43.48v73.77h-43.48v73.77h-43.48v-73.77h-43.48v-73.77h-43.48v-73.77h43.48v-73.77h43.48zm0 147.5h43.48v73.77h-43.48zm-347.8 295.1h43.48v73.77h-43.48zm478.2-73.77h26.09v147.5h-26.09zm-478.2 295.1h43.48v-73.77h43.48v-73.77h43.48v-73.77h43.48v-73.77h43.48v-73.77h43.48v73.77h43.48v73.77h43.48v73.77h43.48v73.77h43.48v73.77h43.48v73.77h26.09v295.1h-26.09v73.77h-43.48v73.77h-43.48v73.77h-43.48v73.77h-43.48v73.77h-43.48v191.8h-86.95v-44.26h-43.48v-73.77h-43.48v-73.77h-43.48v-73.77h-43.48v-221.3h43.48v73.77h43.48v73.77h43.48v73.77h43.48v-73.77h43.48v-73.77h43.48v-73.77h43.48v-73.77h43.48v-73.77h43.48v-73.77h-43.48v-73.77h-43.48v-73.77h-130.4v73.77h86.95v73.77h-43.48v73.77h-43.48v73.77h-43.48v-73.77h-43.48v-73.77h-43.48v-73.77h-43.48zm0 295.1h43.48v73.77h-43.48zm478.2 221.3h26.09v73.77h-26.09zm-86.95 147.5h43.48v73.77h43.48v73.77h26.09v118h-26.09v-44.26h-43.48v-73.77h-43.48zm-86.95 221.3h43.48v44.26h-43.48z" fill="#c8313e" fill-rule="evenodd"/>
<use transform="matrix(-1 0 0 1 1e3 0)" xlink:href="#b"/>
</g>
<use transform="matrix(1 0 0 -1 0 4500)" xlink:href="#a"/>
</svg>
