<?xml version="1.0" encoding="UTF-8" standalone="no"?>
<!-- Created with Inkscape (http://www.inkscape.org/) -->

<svg
   xmlns:dc="http://purl.org/dc/elements/1.1/"
   xmlns:cc="http://creativecommons.org/ns#"
   xmlns:rdf="http://www.w3.org/1999/02/22-rdf-syntax-ns#"
   xmlns:svg="http://www.w3.org/2000/svg"
   xmlns="http://www.w3.org/2000/svg"
   xmlns:xlink="http://www.w3.org/1999/xlink"
   xmlns:sodipodi="http://sodipodi.sourceforge.net/DTD/sodipodi-0.dtd"
   xmlns:inkscape="http://www.inkscape.org/namespaces/inkscape"
   version="1.1"
   width="1200"
   height="600"
   id="svg6055"
   inkscape:version="0.91 r13725"
   sodipodi:docname="Flag_of_the_Northwest_Territories.svg">
  <metadata
     id="metadata114">
    <rdf:RDF>
      <cc:Work
         rdf:about="">
        <dc:format>image/svg+xml</dc:format>
        <dc:type
           rdf:resource="http://purl.org/dc/dcmitype/StillImage" />
      </cc:Work>
    </rdf:RDF>
  </metadata>
  <sodipodi:namedview
     pagecolor="#ffffff"
     bordercolor="#666666"
     borderopacity="1"
     objecttolerance="10"
     gridtolerance="10"
     guidetolerance="10"
     inkscape:pageopacity="0"
     inkscape:pageshadow="2"
     inkscape:window-width="1440"
     inkscape:window-height="831"
     id="namedview112"
     showgrid="false"
     inkscape:zoom="0.87666667"
     inkscape:cx="600"
     inkscape:cy="300"
     inkscape:window-x="-4"
     inkscape:window-y="-4"
     inkscape:window-maximized="1"
     inkscape:current-layer="svg6055" />
  <defs
     id="defs6057">
    <clipPath
       id="clipPath1496">
      <path
         d="m 336.371,412.629 155.576,0 0,-77.077 -155.576,0 0,77.077 z"
         id="path1498" />
    </clipPath>
    <clipPath
       id="clipPath348-5">
      <path
         d="m 421.889,254.089 c -0.308,-0.145 -0.653,0.743 -1.378,1.215 -0.738,0.328 -1.825,0.87 -2.646,0.87 l 0.516,-0.005 c 1.313,-0.082 2.708,-0.41 3.446,-1.477 0,0 0.37,-0.458 0.062,-0.603"
         id="path350-1" />
    </clipPath>
    <clipPath
       id="clipPath358-7">
      <path
         d="m 0.139302,-0.636533 -1.014085,0 0,0.608451 1.014085,0 0,-0.608451 z"
         id="path360-1" />
    </clipPath>
    <clipPath
       id="clipPath810-1">
      <path
         d="m 422.432,254.089 c 0.309,-0.145 0.653,0.743 1.378,1.215 0.739,0.328 1.826,0.87 2.646,0.87 l -0.516,-0.005 c -1.313,-0.082 -2.708,-0.41 -3.446,-1.477 0,0 -0.369,-0.458 -0.062,-0.603"
         id="path812-5" />
    </clipPath>
    <clipPath
       id="clipPath820-2">
      <path
         d="m 1.003087,-0.636533 -1.014085,0 0,0.608451 1.014085,0 0,-0.608451 z"
         id="path822-7" />
    </clipPath>
    <clipPath
       id="clipPath832-6">
      <path
         d="m 0.191819,-0.19 -0.202817,0 0,0.202817 0.202817,0 0,-0.202817 z"
         id="path834-1" />
    </clipPath>
    <clipPath
       id="clipPath848-4">
      <path
         d="m 417.43,258.856 c 0,0 -0.435,1.015 -0.689,1.051 -0.254,0.037 -0.471,-0.217 -0.507,-0.435 -0.037,-0.217 -0.496,-1.161 -0.254,-0.87 0.362,0.435 0.616,0.435 0.797,0.399 0.182,-0.036 0.653,-0.145 0.653,-0.145"
         id="path850-2" />
    </clipPath>
    <clipPath
       id="clipPath858-3">
      <path
         d="m 0.764829,-0.950764 -1.44,0 0,1.44 1.44,0 0,-1.44 z"
         id="path860-2" />
    </clipPath>
    <clipPath
       id="clipPath872-2">
      <path
         d="m 427.362,259.001 c 0,0 0.29,1.124 0.544,1.16 0.254,0.036 0.471,-0.217 0.508,-0.435 0.036,-0.217 0.496,-1.161 0.253,-0.87 -0.362,0.435 -0.616,0.435 -0.797,0.399 -0.181,-0.036 -0.508,-0.254 -0.508,-0.254"
         id="path874-1" />
    </clipPath>
    <clipPath
       id="clipPath882-6">
      <path
         d="m 0.764745,-0.950757 -1.44,0 0,1.44 1.44,0 0,-1.44 z"
         id="path884-8" />
    </clipPath>
    <clipPath
       id="clipPath894-5">
      <path
         d="m 415.907,252.005 c 0.544,-0.544 1.269,-1.124 1.487,-1.414 0.217,-0.29 0.036,-0.906 0.398,-1.305 0.363,-0.399 0.58,-0.471 0.834,-0.181 0.254,0.29 1.124,0.326 1.378,0.326 0.253,0 0.688,-0.471 0.326,-0.435 -0.363,0.036 -1.051,0.363 -1.378,-0.217 -0.198,-0.354 0.762,-1.197 0.544,-1.197 -0.217,0 -0.87,0.145 -1.232,0.544 -0.363,0.399 -0.472,0.399 -0.762,1.051 -0.235,0.53 -0.326,0.943 -0.543,1.197 -0.218,0.253 -0.617,0.725 -0.834,0.906 -0.218,0.181 -0.218,0.725 -0.218,0.725"
         id="path896-7" />
    </clipPath>
    <clipPath
       id="clipPath904-6">
      <path
         d="m 0.549191,-0.70547 -0.87167,0 0,0.871671 0.87167,0 0,-0.871671 z"
         id="path906-1" />
    </clipPath>
    <clipPath
       id="clipPath916-8">
      <path
         d="m 0.333002,-0.19 -0.348668,0 0,0.348668 0.174334,0 0,-0.174334 0.174334,0 0,-0.174334 z"
         id="path918-9" />
    </clipPath>
    <clipPath
       id="clipPath928-2">
      <path
         d="m 428.087,252.005 c -0.543,-0.544 -1.268,-1.124 -1.486,-1.414 -0.217,-0.29 -0.036,-0.906 -0.399,-1.305 -0.362,-0.399 -0.761,0.471 -1.015,0.761 -0.253,0.29 -0.87,-0.036 -1.232,-0.398 -0.179,-0.18 -0.585,-0.867 -0.29,-0.653 0.399,0.29 1.015,1.196 1.341,0.616 0.199,-0.353 -1.087,-1.993 -0.87,-1.993 0.218,0 0.943,0.145 1.305,0.543 0.363,0.399 0.761,0.363 1.051,1.015 0.236,0.53 0.327,0.943 0.544,1.197 0.218,0.253 0.616,0.725 0.834,0.906 0.217,0.181 0.217,0.725 0.217,0.725"
         id="path930-7" />
    </clipPath>
    <clipPath
       id="clipPath938-9">
      <path
         d="m 0.549195,-0.70547 -0.87167,0 0,0.871671 0.87167,0 0,-0.871671 z"
         id="path940-5" />
    </clipPath>
    <clipPath
       id="clipPath950-4">
      <path
         d="m 0.333002,-0.19 -0.348668,0 0,0.348668 0.174334,0 0,-0.174334 0.174334,0 0,-0.174334 z"
         id="path952-3" />
    </clipPath>
    <clipPath
       id="clipPath962-1">
      <path
         d="m 420.547,250.917 c 0,0 0.29,-0.036 0.399,0.109 0.109,0.145 0.145,0.254 0.145,0.254 0,0 -0.036,-1.378 0.036,-1.595 0.073,-0.218 0,-0.943 0,-0.943 0,0 -0.036,0.399 -0.108,0.87 -0.073,0.472 -0.29,1.233 -0.472,1.305"
         id="path964-2" />
    </clipPath>
    <clipPath
       id="clipPath972-3">
      <path
         d="m 0.644883,-1 -0.96,0 0,1.92 0.96,0 0,-1.92 z"
         id="path974-3" />
    </clipPath>
    <clipPath
       id="clipPath984-4">
      <path
         d="m 423.375,250.917 c 0,0 -0.29,-0.036 -0.399,0.109 -0.109,0.145 -0.145,0.254 -0.145,0.254 0,0 0.036,-1.378 -0.036,-1.595 -0.073,-0.218 0,-0.943 0,-0.943 0,0 0.036,0.399 0.109,0.87 0.072,0.472 0.29,1.233 0.471,1.305"
         id="path986-1" />
    </clipPath>
    <clipPath
       id="clipPath994-1">
      <path
         d="m 0.644876,-1 -0.960001,0 0,1.92 0.960001,0 0,-1.92 z"
         id="path996-3" />
    </clipPath>
    <clipPath
       id="clipPath1006-8">
      <path
         d="m 418.155,257.986 c 0,0 1.667,0.508 2.32,0.798 0.652,0.29 0.616,0.507 1.051,0.326 0.435,-0.181 0.435,-0.326 0.435,-0.326 0,0 0.363,0.181 0.58,0.326 0.218,0.145 0.689,0.181 0.979,0.109 0.29,-0.073 1.051,-0.29 1.341,-0.472 0.29,-0.181 0.653,-0.253 0.906,-0.253 0.254,0 -0.942,-0.182 -1.087,-0.109 -0.145,0.072 -1.088,0.507 -1.559,0.435 -0.471,-0.073 -1.087,-0.435 -1.087,-0.435 0,0 -0.472,0.435 -0.762,0.435 -0.29,0 -1.413,-0.58 -1.812,-0.689 -0.399,-0.109 -1.305,-0.145 -1.305,-0.145"
         id="path1008-7" />
    </clipPath>
    <clipPath
       id="clipPath1016-4">
      <path
         d="m 0.742139,-0.308312 -1.42928,0 0,0.35732 1.42928,0 0,-0.35732 z"
         id="path1018-2" />
    </clipPath>
    <clipPath
       id="clipPath1028-7">
      <path
         d="m 0.16732,-0.308312 -0.17866,0 0,0.35732 0.35732,0 0,-0.17866 -0.17866,0 0,-0.17866 z"
         id="path1030-7" />
    </clipPath>
    <clipPath
       id="clipPath1040-9">
      <path
         d="m 420.511,251.824 c 0,0 -0.036,0.616 -0.217,0.761 -0.182,0.145 -0.327,0.326 -0.327,0.326 l -0.58,0.181 0.192,-0.381 c 0,0 -0.59,-0.307 -0.808,-0.162 -0.217,0.145 -0.181,0.471 -0.181,0.471 0,0 0.271,0.386 0.154,0.319 -0.118,-0.065 -0.734,-0.065 -0.734,-0.065 0,0 -0.383,-0.084 -0.318,-0.206 0.064,-0.121 0.573,-0.572 0.772,-0.763 0.198,-0.191 0.452,-0.445 0.923,-0.554 0.472,-0.109 1.015,0.036 1.015,0.036 l 0.109,0.037"
         id="path1042-3" />
    </clipPath>
    <clipPath
       id="clipPath1050-1">
      <path
         d="m 0.92,-1.232007 -1.44,0 0,1.92 1.44,0 0,-0.48 0.48,0 0,-0.96 -0.48,0 0,-0.48 z"
         id="path1052-9" />
    </clipPath>
    <clipPath
       id="clipPath1068-8">
      <path
         d="m 423.774,251.824 c 0,0 0.036,0.616 0.217,0.761 0.181,0.145 0.326,0.326 0.326,0.326 l 0.58,0.181 -0.191,-0.381 c 0,0 0.59,-0.307 0.808,-0.162 0.217,0.145 0.181,0.471 0.181,0.471 0,0 -0.271,0.386 -0.153,0.319 0.117,-0.065 0.733,-0.065 0.733,-0.065 0,0 0.383,-0.084 0.318,-0.206 -0.064,-0.121 -0.573,-0.572 -0.772,-0.763 -0.199,-0.191 -0.452,-0.445 -0.924,-0.554 -0.471,-0.109 -1.015,0.036 -1.015,0.036 l -0.108,0.037"
         id="path1070-6" />
    </clipPath>
    <clipPath
       id="clipPath1078-5">
      <path
         d="m 0.92,-1.232007 -1.44,0 0,1.92 1.44,0 0,-0.48 0.48,0 0,-0.96 -0.48,0 0,-0.48 z"
         id="path1080-0" />
    </clipPath>
    <clipPath
       id="SVGID_10_">
      <use
         xlink:href="#SVGID_9_"
         height="1"
         width="1"
         y="0"
         x="0"
         style="overflow:visible"
         id="use3578" />
    </clipPath>
    <clipPath
       id="SVGID_10_-8">
      <use
         xlink:href="#SVGID_9_"
         height="1"
         width="1"
         y="0"
         x="0"
         style="overflow:visible"
         id="use3578-9" />
    </clipPath>
  </defs>
  <g
     transform="translate(-422.76502,108.03614)"
     id="layer1">
    <path
       d="m 422.76502,-108.03614 1199.99998,0 0,600 -1199.99998,0 0,-600 z"
       id="path1500"
       style="fill:#ffffff;fill-opacity:1;fill-rule:nonzero;stroke:none" />
    <path
       d="m 422.76502,-108.03614 300,0 0,600 -300,0 0,-600 z"
       id="path1502"
       style="fill:#00549f;fill-opacity:1;fill-rule:nonzero;stroke:none" />
    <g
       id="g3561"
       transform="matrix(1.1559155,0,0,1.1559155,858.86077,-10.989076)">
      <g
         transform="translate(351.94969,-421.7178)"
         id="layer1-0"
         inkscape:label="Capa 1">
        <g
           id="g4135">
          <g
             id="g15169"
             transform="translate(-305.76271,-18.074306)" />
        </g>
      </g>
      <g
         transform="translate(134.49503,-83.293201)"
         id="g12165">
        <g
           transform="translate(-579.69754,4.9032502)"
           id="g12346">
          <g
             transform="matrix(1.2223674,0,0,1.2223674,1082.1988,11.141769)"
             id="g11939" />
        </g>
      </g>
      <g
         transform="translate(-432.07453,-134.07713)"
         id="g6895">
        <g
           transform="matrix(1.2223674,0,0,1.2223674,1501.1351,-0.42957161)"
           id="g11891">
          <path
             style="color:#000000;display:inline;overflow:visible;visibility:visible;fill:#004300;fill-opacity:1;stroke:none;stroke-width:3;marker:none;enable-background:accumulate"
             d="m -868.99161,115.62829 220.23925,0 c 0,38.87195 0.67816,75.59321 -0.13177,112.49698 -1.52125,69.31451 -18.5742,132.11203 -110.47727,163.50302 -88.49299,-36.43675 -106.26184,-94.80743 -108.46055,-158.00693 -1.35092,-38.83059 -0.73941,-75.98409 -1.16966,-117.99307 z"
             id="path6862"
             inkscape:connector-curvature="0"
             sodipodi:nodetypes="ccscsc" />
          <path
             sodipodi:nodetypes="ccscsc"
             inkscape:connector-curvature="0"
             id="path3366"
             d="m -868.99161,115.62829 220.23925,0 c 0,38.87195 0.67816,75.59321 -0.13177,112.49698 -1.52125,69.31451 -18.5742,132.11203 -110.47727,163.50302 -88.49299,-36.43675 -106.26184,-94.80743 -108.46055,-158.00693 -1.35092,-38.83059 -0.73941,-75.98409 -1.16966,-117.99307 z"
             style="color:#000000;display:inline;overflow:visible;visibility:visible;fill:none;stroke:#000000;stroke-width:3;stroke-linecap:butt;stroke-linejoin:miter;stroke-miterlimit:4;stroke-dasharray:none;stroke-dashoffset:0;stroke-opacity:1;marker:none;enable-background:accumulate" />
          <path
             inkscape:connector-curvature="0"
             id="path6880"
             d="m -868.61662,197.12829 c 0.12805,11.96643 0.36577,23.91103 0.78125,36 l 13.34375,0 0,-36 -14.125,0 z m 39.625,0 0,36 16.5,0 0,-36 -16.5,0 z m -22,49.5 0,36 16.5,0 0,-36 -16.5,0 z m 42,0.5 0,36 16.5,0 0,-36 -16.5,0 z m 42,0 0,36 16.5,0 0,-36 -16.5,0 z m -62,47.5 0,36 16.5,0 0,-36 -16.5,0 z m 124,0 0,36 16.5,0 0,-36 -16.5,0 z m -82.65625,0.5 0,36 16.5,0 0,-36 -16.5,0 z m 41.3125,0 0,36 16.5,0 0,-36 -16.5,0 z m -62.65625,50 0,18.75 c 5.06636,3.8731 10.55246,7.61893 16.5,11.21875 l 0,-29.96875 -16.5,0 z m 42,0.5 0,36 16.5,0 0,-36 -16.5,0 z m 42,0 0,31.03125 c 5.94234,-3.2721 11.42847,-6.73752 16.5,-10.375 l 0,-20.65625 -16.5,0 z"
             style="color:#000000;display:inline;overflow:visible;visibility:visible;fill:#ffd221;fill-opacity:1;fill-rule:nonzero;stroke:#291f0b;stroke-width:1.5;stroke-linecap:butt;stroke-linejoin:miter;stroke-miterlimit:4;stroke-dasharray:none;stroke-dashoffset:0;stroke-opacity:1;marker:none;enable-background:accumulate" />
          <path
             sodipodi:nodetypes="ccaaaaaacscc"
             inkscape:connector-curvature="0"
             id="path6857"
             d="m -833.49162,115.62829 0,52 c 4.35904,16.91319 3.34783,37.07697 15,50 7.25449,8.04571 22.08054,5.1079 30,12.5 8.17313,7.62888 7.09431,22.09431 15,30 9.22331,9.22331 25.77669,8.27669 35,17.5 7.90569,7.90569 7.09431,22.09431 15,30 7.90569,7.90569 22.09673,7.09188 30,15 5.37423,5.37752 10.1875,20.40625 10.1875,20.40625 26.62937,-31.94332 33.4686,-72.18288 34.40625,-114.90625 0.80993,-36.90377 0.15625,-73.62805 0.15625,-112.5 z"
             style="color:#000000;display:inline;overflow:visible;visibility:visible;fill:#ee281f;fill-opacity:1;fill-rule:nonzero;stroke:#550000;stroke-width:2;stroke-linecap:round;stroke-linejoin:round;marker:none;enable-background:accumulate" />
          <path
             inkscape:connector-curvature="0"
             style="color:#000000;display:inline;overflow:visible;visibility:visible;fill:#ffffff;stroke:none;stroke-width:3;marker:none;enable-background:accumulate"
             d="m -868.99162,115.62829 c 0.21942,21.42412 0.17399,41.57885 0.25,61.34375 l 18.75,20.15625 14.5,-18.5 18,18.5 14.5,-19 15.5,17.5 14.5,-18.5 15.5,19.5 15,-19 16,18.5 14,-17.5 14.5,19 15,-20.5 15,19 19.46875,-18.21875 c -0.0511,-20.37106 -0.21875,-41.0041 -0.21875,-62.28125 l -220.25,0 z"
             id="path6855" />
          <path
             sodipodi:nodetypes="accaaaaaaaccaaaaaaa"
             inkscape:connector-curvature="0"
             id="path3375"
             d="m -851.24162,137.62829 c -6.16974,-0.002 -17.5625,5.84375 -17.5625,5.84375 0.015,5.07598 0.0219,10.01866 0.0312,15 0,0 11.3714,-5.84375 17.53125,-5.84375 10.54093,0 19.46154,9.77226 30,10 12.12067,0.26194 22.84808,-10.26194 34.96875,-10 10.53846,0.22774 19.45907,10 30,10 10.54093,0 19.45907,-10 30,-10 10.54093,0 19.45907,10 30,10 10.54093,0 19.45907,-9.9972 30,-10 6.20268,-0.002 17.65625,5.875 17.65625,5.875 -0.0233,-4.98281 -0.009,-9.96691 -0.0312,-15 0,0 -11.43221,-5.875 -17.625,-5.875 -10.54093,0 -19.45907,10 -30,10 -10.54093,0 -19.45907,-10 -30,-10 -10.54093,0 -19.45907,10 -30,10 -10.54093,0 -19.46154,-9.77226 -30,-10 -12.12067,-0.26194 -22.84808,10.26194 -34.96875,10 -10.53846,-0.22774 -19.45907,-9.99719 -30,-10 z"
             style="color:#000000;display:inline;overflow:visible;visibility:visible;fill:#0056b9;fill-opacity:1;stroke:#214478;stroke-width:1;stroke-linecap:butt;stroke-linejoin:miter;stroke-miterlimit:4;stroke-dasharray:none;stroke-dashoffset:0;stroke-opacity:1;marker:none;enable-background:accumulate" />
          <path
             sodipodi:nodetypes="cccccccccccccccccc"
             inkscape:connector-curvature="0"
             id="path3368"
             d="m -868.99162,115.62829 c 0.21942,21.42412 0.17399,41.57885 0.25,61.34375 l 18.75,20.15625 14.5,-18.5 18,18.5 14.5,-19 15.5,17.5 14.5,-18.5 15.5,19.5 15,-19 16,18.5 14,-17.5 14.5,19 15,-20.5 15,19 19.46875,-18.21875 c -0.0511,-20.37106 -0.21875,-41.0041 -0.21875,-62.28125 z"
             style="color:#000000;display:inline;overflow:visible;visibility:visible;fill:none;stroke:#1a1a1a;stroke-width:2;stroke-linecap:butt;stroke-linejoin:miter;stroke-miterlimit:4;stroke-dasharray:none;stroke-dashoffset:0;stroke-opacity:1;marker:none;enable-background:accumulate" />
          <path
             style="color:#000000;display:inline;overflow:visible;visibility:visible;fill:none;stroke:#000000;stroke-width:3;stroke-linecap:butt;stroke-linejoin:miter;stroke-miterlimit:4;stroke-dasharray:none;stroke-dashoffset:0;stroke-opacity:1;marker:none;enable-background:accumulate"
             d="m -868.99161,115.62829 220.23925,0 c 0,38.87195 0.67816,75.59321 -0.13177,112.49698 -1.52125,69.31451 -18.5742,132.11203 -110.47727,163.50302 -88.49299,-36.43675 -106.26184,-94.80743 -108.46055,-158.00693 -1.35092,-38.83059 -0.73941,-75.98409 -1.16966,-117.99307 z"
             id="path6909"
             inkscape:connector-curvature="0"
             sodipodi:nodetypes="ccscsc" />
          <g
             transform="matrix(0.14523642,0,0,0.14523642,-595.48854,124.83298)"
             id="g5034">
            <g
               id="g4993"
               transform="translate(599.67314,-173.30004)">
              <path
                 id="path3641"
                 transform="matrix(2.0872979,0,0,2.0872979,454.64608,-57.351538)"
                 d="m -904.6875,393.875 c -7.10939,0.10514 -14.15474,0.8001 -20.875,2.875 -16.2375,5.01337 -31.88675,13.98728 -43.8125,26.09375 -8.10893,8.23182 -14.96128,17.80004 -20.625,28.0625 -0.25037,4.11992 -0.51375,8.52458 -0.78125,13.59375 -0.56417,10.69124 -1.30699,20.85777 -1.65625,22.59375 -0.38298,1.90371 -1.65687,4.54199 -3.21875,6.65625 -1.42433,1.928 -3.0345,4.54871 -3.5625,5.8125 -1.71675,4.10866 -3.19585,11.95432 -3.25005,17.0625 -0.048,4.51608 0.1581,5.44863 2.375,9.8125 4.84785,9.54243 17.83201,27.40989 24.68755,33.96875 8.32135,7.96125 28.0464,18.20974 43.1875,22.4375 4.00944,1.11953 5.45443,2.27735 22.4375,18.09375 2.93493,2.73329 6.3878,5.60683 7.65625,6.375 2.34633,1.42098 7.95281,3.21287 11.53125,3.6875 8.38456,1.11206 20.8808,-0.24557 26.5625,-2.875 6.11677,-2.83079 12.97744,-9.75433 18.5625,-18.75 2.47511,-3.98659 5.18512,-7.88803 6.03125,-8.65625 0.84613,-0.76827 8.34123,-5.00378 16.65625,-9.4375 17.24239,-9.19399 17.37567,-9.26218 21.71875,-12.84375 4.5724,-3.77066 17.14635,-18.27897 18.78125,-21.65625 2.38835,-4.93365 2.86346,-9.67782 2.53125,-26.15625 -0.0356,-1.76679 -0.0548,-3.29177 -0.0937,-4.75 -2.40088,-6.83538 -4.52974,-13.36721 -5.9375,-18.71875 -2.20203,-8.37103 -1.38925,-17.44472 -4.21875,-25.625 -4.52202,-13.07333 -10.33077,-26.48162 -20.03125,-36.34375 -11.17181,-11.35798 -26.53159,-18.24105 -41.46875,-23.78125 -6.44155,-2.38917 -13.15141,-3.99489 -19.96875,-5.125 -0.59758,0.20756 -1.14148,0.18204 -1.84375,0.0625 -3.66481,-0.62384 -18.86157,-1.6875 -24.25,-1.6875 -2.82309,0 -5.91875,-0.27331 -6.84375,-0.625 -0.0538,-0.0204 -0.20671,-0.12073 -0.28125,-0.15625 z"
                 style="color:#000000;display:inline;overflow:visible;visibility:visible;fill:#e6e6e6;fill-opacity:1;fill-rule:nonzero;stroke:#000000;stroke-width:0.35931623;stroke-linecap:round;stroke-linejoin:round;stroke-miterlimit:4;stroke-dasharray:none;stroke-dashoffset:0;stroke-opacity:1;marker:none;enable-background:accumulate"
                 inkscape:connector-curvature="0" />
              <path
                 sodipodi:nodetypes="assscasssccacsssacsssccsccsscsssssssaaaaaa"
                 inkscape:connector-curvature="0"
                 id="path4973"
                 d="m -1458.0099,964.03266 c 17.3042,-11.19747 24.0122,-45.82447 30.8201,-53.60487 6.8078,-7.7804 33.0668,-22.3687 38.9021,-21.3962 5.8353,0.9726 34.0393,26.259 39.8746,37.9296 5.8354,11.6706 5.8354,35.9844 8.753,40.8472 2.9177,4.8628 28.9919,-0.96622 41.5182,5.16442 8.6377,4.2275 13.5688,12.6432 20.3767,20.42362 6.8079,7.78037 10.074,13.31407 23.6897,23.03957 13.6158,9.7256 6.8079,4.8628 22.3688,18.4785 15.5608,13.6158 22.3687,20.4236 21.3961,26.259 -0.9725,5.8353 -30.1491,31.1216 -30.1491,31.1216 0,0 -29.4775,17.1276 -39.8747,30.1492 -6.8804,8.6171 -13.6157,30.1491 -13.6157,30.1491 0,0 21.3961,-13.6157 31.1217,-18.4785 9.7255,-4.8628 36.957,-15.5608 47.6551,-27.2315 10.698,-11.6706 33.0667,-34.0393 37.9295,-43.7648 4.8628,-9.7256 12.6205,-72.24621 -1.2574,-104.02611 -9.4288,-21.59158 -51.2604,-48.6647 -51.2604,-48.6647 0,0 -62.7089,-55.74469 -67.1062,-59.3257 -4.7248,-3.84772 -19.3556,-21.42969 -37.8239,-38.09886 -17.6877,-15.96462 -38.8954,-31.09197 -58.2919,-32.51488 -19.7576,-1.44939 -52.5179,27.82143 -52.5179,27.82143 l -68.2455,48.62763 c 0,0 -36.957,34.03938 -41.8198,38.90208 -4.8627,4.8628 -35.0119,33.0668 -35.0119,33.0668 l -39.8746,51.5453 c 0,0 -15.5609,39.87471 -6.8079,55.43551 8.753,15.5608 28.204,48.6276 35.0119,52.5178 6.8079,3.8902 10.6981,18.4785 19.4511,24.3138 8.7529,5.8354 10.698,8.753 27.2314,19.4511 16.5334,10.6981 48.6277,22.3687 53.4904,24.3138 4.8628,1.9451 23.3413,6.8079 19.4511,0.9726 -3.8902,-5.8354 -26.2589,-30.1492 -32.0943,-34.0394 -5.8353,-3.8902 -28.204,-14.5883 -35.9844,-22.3687 -7.7804,-7.7804 -28.204,-15.5608 -30.1491,-28.204 -1.9451,-12.6432 3.8902,-35.0119 11.6706,-43.7649 7.7804,-8.7529 29.7229,-10.032 40.8472,-20.4236 4.6724,-4.3647 6.0448,-11.30517 9.7255,-16.53341 5.7513,-8.16945 10.7473,-17.6865 19.1962,-23.01878 3.5575,-2.24521 8.0677,-2.49651 12.2271,-3.12565 6.4188,-0.97087 12.9775,-0.48738 19.4511,-0.9726 3.2489,-0.24351 6.9902,0.79749 9.7255,-0.9725 z"
                 style="color:#000000;display:inline;overflow:visible;visibility:visible;fill:#d2d3d6;fill-opacity:1;fill-rule:nonzero;stroke:none;stroke-width:0.75;marker:none;enable-background:accumulate" />
              <circle
                 style="color:#000000;display:inline;overflow:visible;visibility:visible;fill:none;stroke:#000000;stroke-width:0.75;stroke-linecap:round;stroke-linejoin:round;stroke-miterlimit:4;stroke-dasharray:none;stroke-dashoffset:0;stroke-opacity:1;marker:none;enable-background:accumulate"
                 id="path3645"
                 transform="translate(158.51452,12.722423)"
                 cx="-1472.7064"
                 cy="989.61749"
                 r="19.599409" />
              <path
                 sodipodi:nodetypes="cacac"
                 inkscape:connector-curvature="0"
                 id="path3647"
                 d="m -1314.5358,993.39983 c 0,0 -2.0168,5.36672 -1.8142,8.13887 0.215,2.9423 3.1608,8.2667 3.1608,8.2667 0,0 1.7339,-5.8078 1.4589,-8.7529 -0.2526,-2.70514 -2.8055,-7.65267 -2.8055,-7.65267 z"
                 style="color:#000000;display:inline;overflow:visible;visibility:visible;fill:#000000;stroke:#000000;stroke-width:0.75;stroke-linecap:round;stroke-linejoin:round;stroke-miterlimit:4;stroke-dasharray:none;stroke-dashoffset:0;stroke-opacity:1;marker:none;enable-background:accumulate" />
              <g
                 id="g3671">
                <path
                   style="color:#000000;display:inline;overflow:visible;visibility:visible;fill:#000000;fill-opacity:1;fill-rule:nonzero;stroke:#000000;stroke-width:0.69798213;stroke-linecap:round;stroke-linejoin:round;stroke-miterlimit:4;stroke-dasharray:none;stroke-dashoffset:0;stroke-opacity:1;marker:none;enable-background:accumulate"
                   d="m -1478.5625,982.375 c -12.5479,0 -22.7187,10.17081 -22.7187,22.7188 0,11.338 8.3289,20.7305 19.1874,22.4374 0.032,0.01 0.062,0.026 0.094,0.031 4.5976,1.7594 8.6682,2.5383 13.0162,1.9528 3.5841,-0.4826 9.9213,-4.3903 9.9213,-4.3903 l -7.5313,9.4688 c 0,0 7.5358,1.457 10.4376,-0.4688 4.7092,-3.1252 6.8169,-9.6798 7.2812,-15.3125 0.6516,-7.9058 -2.493,-16.0658 -6.5625,-22.875 -1.5003,-2.51027 -6.2813,-6.125 -6.2813,-6.125 -0.9718,-0.98117 -1.7664,-2.16374 -2.9374,-2.875 -4.1696,-2.53264 -9.5936,-4.50726 -13.9063,-4.5625 z"
                   id="path3651"
                   inkscape:connector-curvature="0"
                   sodipodi:nodetypes="csccaccaaacac" />
                <circle
                   style="color:#000000;display:inline;overflow:visible;visibility:visible;fill:#666666;stroke:#000000;stroke-width:0.75;stroke-linecap:round;stroke-linejoin:round;stroke-miterlimit:4;stroke-dasharray:none;stroke-dashoffset:0;stroke-opacity:1;marker:none;enable-background:accumulate"
                   id="path3643"
                   transform="translate(-5.8454377,15.129368)"
                   cx="-1472.7064"
                   cy="989.61749"
                   r="19.599409" />
                <path
                   style="color:#000000;display:inline;overflow:visible;visibility:visible;fill:#000000;fill-opacity:1;fill-rule:nonzero;stroke:#000000;stroke-width:0.75;stroke-linecap:round;stroke-linejoin:round;stroke-miterlimit:4;stroke-dasharray:none;stroke-dashoffset:0;stroke-opacity:1;marker:none;enable-background:accumulate"
                   d="m -1476.4775,996.04728 c -2.9217,-0.0553 -4.1225,4.75282 -4.2409,7.67272 -0.1314,3.2376 0.7584,8.7866 3.9978,8.8606 3.1696,0.072 4.2997,-5.3115 4.3035,-8.482 0,-3.0057 -1.0552,-7.99445 -4.0604,-8.05132 z"
                   id="path3649"
                   inkscape:connector-curvature="0"
                   sodipodi:nodetypes="aaaaa" />
              </g>
              <path
                 sodipodi:nodetypes="ccc"
                 inkscape:connector-curvature="0"
                 id="path3655"
                 d="m -1426.7347,770.31436 c -79.0137,-59.12765 -86.4439,-53.06953 -108.9258,-56.89432 -82.3427,27.66026 -74.0029,138.28846 -79.3344,221.82879"
                 style="color:#000000;display:inline;overflow:visible;visibility:visible;fill:#d2d3d6;fill-opacity:1;fill-rule:nonzero;stroke:#000000;stroke-width:0.75;stroke-linecap:round;stroke-linejoin:round;stroke-miterlimit:4;stroke-dasharray:none;stroke-dashoffset:0;stroke-opacity:1;marker:none;enable-background:accumulate" />
              <path
                 sodipodi:nodetypes="cccc"
                 inkscape:connector-curvature="0"
                 id="path3653"
                 d="m -1443.4793,802.21963 c -20.6225,-38.98886 -33.7091,-85.85614 -92.8393,-84.58692 -22.2835,6.70418 -42.3936,30.0713 -59.1811,78.91163 -12.9786,46.5162 -12.5104,92.93727 -18.5288,137.71342"
                 style="color:#000000;display:inline;overflow:visible;visibility:visible;fill:#bec1c3;fill-opacity:1;fill-rule:nonzero;stroke:#000000;stroke-width:0.75;stroke-linecap:round;stroke-linejoin:round;stroke-miterlimit:4;stroke-dasharray:none;stroke-dashoffset:0;stroke-opacity:1;marker:none;enable-background:accumulate" />
              <path
                 sodipodi:nodetypes="caaaaaacc"
                 inkscape:connector-curvature="0"
                 id="path3663"
                 d="m -1367.8953,772.74574 c 0,0 22.442,-22.86974 35.9845,-31.12168 13.5716,-8.2697 28.6267,-14.84177 44.2512,-17.74908 11.7935,-2.19446 24.9134,-4.13267 35.9844,0.48628 6.2941,2.62595 10.4943,8.89072 14.5883,14.34514 5.0283,6.69927 8.7684,14.36213 11.9137,22.12558 8.8246,21.78111 13.8474,44.95424 19.208,67.83554 6.6571,28.41529 16.0471,86.07091 16.0471,86.07091 l 1.4588,18.4785"
                 style="color:#000000;display:inline;overflow:visible;visibility:visible;fill:#d2d3d6;fill-opacity:1;fill-rule:nonzero;stroke:#000000;stroke-width:0.75;stroke-linecap:round;stroke-linejoin:round;stroke-miterlimit:4;stroke-dasharray:none;stroke-dashoffset:0;stroke-opacity:1;marker:none;enable-background:accumulate" />
              <path
                 sodipodi:nodetypes="ccccc"
                 inkscape:connector-curvature="0"
                 id="path3657"
                 d="m -1350.3893,797.05956 c 0.9943,-19.81845 15.4824,-37.7092 34.5256,-54.94922 25.7105,-16.37358 47.0685,-21.55508 63.7022,-14.58829 28.5733,22.64785 32.8173,63.86214 36.4707,97.25526 l 11.1969,95.01015"
                 style="color:#000000;display:inline;overflow:visible;visibility:visible;fill:#bec1c3;fill-opacity:1;fill-rule:nonzero;stroke:#000000;stroke-width:0.75;stroke-linecap:round;stroke-linejoin:round;stroke-miterlimit:4;stroke-dasharray:none;stroke-dashoffset:0;stroke-opacity:1;marker:none;enable-background:accumulate" />
              <g
                 transform="matrix(-1,0,0,1,-2788.1402,-2.4313815)"
                 id="g3676">
                <path
                   sodipodi:nodetypes="csccaccaaacac"
                   inkscape:connector-curvature="0"
                   id="path3678"
                   d="m -1478.5625,982.375 c -12.5479,0 -22.7187,10.17081 -22.7187,22.7188 0,11.338 8.3289,20.7305 19.1874,22.4374 0.032,0.01 0.062,0.026 0.094,0.031 4.5976,1.7594 8.6682,2.5383 13.0162,1.9528 3.5841,-0.4826 9.9213,-4.3903 9.9213,-4.3903 l -7.5313,9.4688 c 0,0 7.5358,1.457 10.4376,-0.4688 4.7092,-3.1252 6.8169,-9.6798 7.2812,-15.3125 0.6516,-7.9058 -2.493,-16.0658 -6.5625,-22.875 -1.5003,-2.51027 -6.2813,-6.125 -6.2813,-6.125 -0.9718,-0.98117 -1.7664,-2.16374 -2.9374,-2.875 -4.1696,-2.53264 -9.5936,-4.50726 -13.9063,-4.5625 z"
                   style="color:#000000;display:inline;overflow:visible;visibility:visible;fill:#000000;fill-opacity:1;fill-rule:nonzero;stroke:#000000;stroke-width:0.69798213;stroke-linecap:round;stroke-linejoin:round;stroke-miterlimit:4;stroke-dasharray:none;stroke-dashoffset:0;stroke-opacity:1;marker:none;enable-background:accumulate" />
                <circle
                   transform="translate(-5.8454377,15.129368)"
                   id="path3680"
                   style="color:#000000;display:inline;overflow:visible;visibility:visible;fill:#666666;stroke:#000000;stroke-width:0.75;stroke-linecap:round;stroke-linejoin:round;stroke-miterlimit:4;stroke-dasharray:none;stroke-dashoffset:0;stroke-opacity:1;marker:none;enable-background:accumulate"
                   cx="-1472.7064"
                   cy="989.61749"
                   r="19.599409" />
                <path
                   sodipodi:nodetypes="aaaaa"
                   inkscape:connector-curvature="0"
                   id="path3682"
                   d="m -1475.7899,996.04728 c -2.9239,0.0777 -3.3877,5.14432 -3.449,8.06862 -0.063,3.0165 0.1912,8.3444 3.2059,8.4647 3.1981,0.1276 4.13,-5.4794 4.1056,-8.6799 -0.022,-2.9172 -0.9463,-7.93091 -3.8625,-7.85342 z"
                   style="color:#000000;display:inline;overflow:visible;visibility:visible;fill:#000000;fill-opacity:1;fill-rule:nonzero;stroke:#000000;stroke-width:0.75;stroke-linecap:round;stroke-linejoin:round;stroke-miterlimit:4;stroke-dasharray:none;stroke-dashoffset:0;stroke-opacity:1;marker:none;enable-background:accumulate" />
              </g>
              <path
                 sodipodi:nodetypes="aaaaaacaaaaaa"
                 inkscape:connector-curvature="0"
                 id="path3693"
                 d="m -1384.0108,1140.3257 c -6.1133,-0.024 -12.5337,-0.8259 -18.3008,1.2024 -3.0062,1.0573 -5.5749,3.2329 -7.8316,5.4828 -3.175,3.1652 -7.1012,6.5579 -7.7474,10.9943 -1.046,7.1822 1.7132,15.6057 6.9443,20.637 4.7222,4.5418 14.3704,0.7661 18.8592,5.5387 4.4468,4.7277 4.333,18.9828 4.333,18.9828 0,0 -0.03,-14.5358 4.5301,-19.3325 4.4841,-4.7162 13.8084,-1.1832 18.7592,-5.4068 4.3397,-3.7023 6.9322,-9.7975 7.2708,-15.4918 0.2845,-4.7808 -1.8603,-9.6556 -4.5203,-13.6382 -2.267,-3.3939 -5.491,-6.4458 -9.2609,-8.0098 -4.0243,-1.6696 -8.6786,-0.9419 -13.0356,-0.9589 z"
                 style="color:#000000;display:inline;overflow:visible;visibility:visible;fill:#0f1719;fill-opacity:1;stroke:none;stroke-width:0.75;marker:none;enable-background:accumulate" />
              <path
                 sodipodi:nodetypes="sssaass"
                 inkscape:connector-curvature="0"
                 id="path3684"
                 d="m -1398.4274,1158.194 c -1.6724,-1.3149 -5.8332,1.777 -6.0785,3.8902 -0.2993,2.5791 -0.4154,4.7292 -1.2156,8.0235 -0.2909,1.1976 0.6116,2.7077 1.7019,3.2824 2.0587,1.0852 5.1059,0.5948 6.9295,-0.851 1.3895,-1.1016 3.1505,-3.0246 1.8357,-4.9929 -0.9087,-1.3604 -0.257,-7.0595 -3.173,-9.3522 z"
                 style="color:#000000;display:inline;overflow:visible;visibility:visible;fill:#000000;stroke:#000000;stroke-width:0.75;stroke-linecap:round;stroke-linejoin:round;stroke-miterlimit:4;stroke-dasharray:none;stroke-dashoffset:0;stroke-opacity:1;marker:none;enable-background:accumulate" />
              <path
                 style="color:#000000;display:inline;overflow:visible;visibility:visible;fill:#000000;stroke:#000000;stroke-width:0.75;stroke-linecap:round;stroke-linejoin:round;stroke-miterlimit:4;stroke-dasharray:none;stroke-dashoffset:0;stroke-opacity:1;marker:none;enable-background:accumulate"
                 d="m -1376.8601,1158.7751 c 1.6724,-1.3149 5.8332,1.777 6.0785,3.8902 0.2993,2.5791 0.4154,4.7292 1.2156,8.0235 0.2909,1.1976 -0.6116,2.7077 -1.7019,3.2824 -2.0587,1.0852 -5.1059,0.5948 -6.9295,-0.851 -1.3895,-1.1016 -3.1505,-3.0246 -1.8357,-4.9929 0.9087,-1.3604 0.257,-7.0595 3.173,-9.3522 z"
                 id="path3686"
                 inkscape:connector-curvature="0"
                 sodipodi:nodetypes="sssaass" />
              <path
                 sodipodi:nodetypes="ccac"
                 inkscape:connector-curvature="0"
                 id="path3689"
                 d="m -1432.4549,1197.4648 c 27.4235,3.0976 55.6439,4.9586 88.6616,-0.6242 0,0 -27.9566,7.7598 -42.3046,7.9682 -15.6434,0.2273 -46.357,-7.344 -46.357,-7.344 z"
                 style="color:#000000;display:inline;overflow:visible;visibility:visible;fill:#0f1719;fill-opacity:1;fill-rule:nonzero;stroke:none;stroke-width:0.75;marker:none;enable-background:accumulate" />
              <path
                 sodipodi:nodetypes="caaaaacssccaaaassscc"
                 inkscape:connector-curvature="0"
                 id="path3691"
                 d="m -1536.4072,721.81903 c -11.6707,8.75298 -21.2651,19.70417 -27.4574,32.44821 -5.6406,11.60863 -6.6842,25.06975 -7.7804,37.92956 -0.854,10.01861 1.6982,20.12041 0.9726,30.14913 -0.6654,9.1967 -1.5026,18.6448 -4.8628,27.23147 -3.5066,8.96064 -12.0884,15.33991 -15.5609,24.31382 -4.866,12.57525 -7.7804,32.09423 -6.8079,39.87465 0.9726,7.78042 0,19.45106 9.7256,11.67064 9.7255,-7.78043 19.451,-20.42361 27.2315,-30.14914 7.7804,-9.72552 36.9569,-33.06678 36.9569,-33.06678 l 13.6158,-10.69808 c 0,0 -22.8051,-7.73371 -30.1491,-16.5334 -9.1962,-11.01896 -15.9337,-26.68336 -13.6158,-40.84721 1.3394,-8.18444 10.5239,-12.87022 14.9811,-19.86401 5.0464,-7.91856 5.7803,-19.1482 13.2229,-24.87341 7.9157,-6.08913 24.3139,-10.69808 29.1766,-6.80787 4.8628,3.89021 44.2512,65.16103 44.2512,60.29827 0,-2.98322 -12.6637,-37.29958 -30.0654,-58.40093 -10.9638,-13.29472 -29.7466,-17.45818 -29.7466,-17.45818 z"
                 style="color:#000000;display:inline;overflow:visible;visibility:visible;fill:#aeb0b5;fill-opacity:1;fill-rule:nonzero;stroke:none;stroke-width:0.75000006;marker:none;enable-background:accumulate" />
              <path
                 sodipodi:nodetypes="caaaaaaaaacaaacaaaaaaaaaac"
                 inkscape:connector-curvature="0"
                 id="path3712"
                 d="m -1326.5618,811.16157 c 2.4314,-4.86276 4.2295,-22.05234 9.7256,-31.60796 7.1489,-12.42923 16.1947,-25.51973 29.1765,-31.60796 8.5232,-3.99723 19.2935,-4.49576 28.2041,-1.45883 8.4871,2.89258 23.924,9.25094 20.4236,17.50595 -2.0338,4.79633 -11.2223,-4.34283 -15.5609,-1.45883 -7.2153,4.79622 -10.8294,16.69034 -7.7804,24.80009 2.7392,7.28587 14.669,6.42692 19.9373,12.15691 3.1891,3.46859 6.9071,7.96786 6.3216,12.64319 -1.5707,12.54314 -15.2156,20.44802 -24.8001,28.6903 -6.683,5.74711 -22.3687,14.10201 -22.3687,14.10201 0,0 4.38,2.35661 6.3216,3.89021 5.2167,4.12048 8.7965,10.09649 14.102,14.10201 4.5749,3.45394 10.5213,4.819 15.0257,8.36445 6.0301,4.74639 15.6097,16.92192 15.6097,16.92192 0,0 0.8817,-11.3206 2.9177,-16.53339 2.7318,-6.99434 10.6012,-11.6188 12.1569,-18.96478 2.2086,-10.42865 -3.5629,-21.02757 -4.8628,-31.60796 -1.5086,-12.27882 -1.4909,-24.73466 -3.4039,-36.957 -2.0798,-13.28796 -2.3903,-27.53884 -8.753,-39.38838 -5.857,-10.90767 -14.1283,-22.53912 -25.7726,-26.7452 -8.283,-2.99194 -17.9335,0.0458 -26.2589,2.91766 -9.9081,3.41779 -18.6904,9.8274 -26.7452,16.5334 -8.9075,7.41586 -19.172,14.95806 -23.3413,25.77264 -1.6326,4.23477 -0.8583,9.15905 0,13.61574 1.6507,8.57143 9.7255,24.31381 9.7255,24.31381 z"
                 style="color:#000000;display:inline;overflow:visible;visibility:visible;fill:#aeb0b5;fill-opacity:1;fill-rule:nonzero;stroke:none;stroke-width:0.75000012;marker:none;enable-background:accumulate" />
              <path
                 sodipodi:nodetypes="cacac"
                 inkscape:connector-curvature="0"
                 id="path3731"
                 d="m -1439.8758,889.75534 c 0,0 9.8528,29.02385 10.9253,44.14471 1.3949,19.66596 -5.963,58.84473 -5.963,58.84473 0,0 0.2929,-36.98298 -0.6508,-55.44022 -0.8126,-15.894 -4.3115,-47.54922 -4.3115,-47.54922 z"
                 style="color:#000000;display:inline;overflow:visible;visibility:visible;fill:#999999;fill-opacity:1;fill-rule:nonzero;stroke:none;stroke-width:0.75;marker:none;enable-background:accumulate" />
              <path
                 sodipodi:nodetypes="cacac"
                 inkscape:connector-curvature="0"
                 id="path3733"
                 d="m -1352.9759,889.55735 c -2.7508,7.56468 -8.8157,29.04476 -8.9055,44.0127 -0.1176,19.59925 10.9686,57.76668 10.9686,57.76668 0,0 -3.97,-39.45881 -4.1751,-59.26006 -0.1469,-14.18982 2.112,-42.51932 2.112,-42.51932 z"
                 style="color:#000000;display:inline;overflow:visible;visibility:visible;fill:#999999;fill-opacity:1;fill-rule:nonzero;stroke:none;stroke-width:0.75;marker:none;enable-background:accumulate" />
              <path
                 sodipodi:nodetypes="csscscsscc"
                 inkscape:connector-curvature="0"
                 id="path3735"
                 d="m -1456.8838,798.51839 c -1.9451,-2.91766 -16.5334,-30.14913 -23.3413,-38.41583 -6.8079,-8.2667 -17.0197,-24.80009 -26.7452,-23.34126 -9.7255,1.45883 -24.8001,15.07456 -27.7177,19.45105 -2.9177,4.37649 -6.8079,15.07457 -14.102,24.31382 -7.2942,9.23925 -6.8079,11.18435 -6.3216,19.93732 0.4862,8.75298 -1.4589,16.04712 7.2941,26.7452 8.753,10.69808 17.506,17.01967 24.8001,20.90988 7.2941,3.89021 8.8018,3.28594 8.8018,3.28594 9.8595,-34.25882 34.7309,-48.26679 57.3318,-52.88612 z"
                 style="color:#000000;display:inline;overflow:visible;visibility:visible;fill:#d2d3d6;fill-opacity:1;fill-rule:nonzero;stroke:none;stroke-width:0.75000006;marker:none;enable-background:accumulate" />
              <path
                 sodipodi:nodetypes="cacac"
                 inkscape:connector-curvature="0"
                 id="path3737"
                 d="m -1437.6734,1037.8441 c 0,0 -10.481,19.5434 -10.4122,30.4403 0.076,12.0967 11.9965,35.5489 11.9965,35.5489 0,0 -5.3789,-23.2919 -5.5761,-34.9224 -0.1788,-10.5446 3.9918,-31.0668 3.9918,-31.0668 z"
                 style="color:#000000;display:inline;overflow:visible;visibility:visible;fill:#999999;fill-opacity:1;fill-rule:nonzero;stroke:none;stroke-width:0.75;marker:none;enable-background:accumulate" />
              <path
                 style="color:#000000;display:inline;overflow:visible;visibility:visible;fill:#999999;fill-opacity:1;fill-rule:nonzero;stroke:none;stroke-width:0.75;marker:none;enable-background:accumulate"
                 d="m -1349.5104,1038.2347 c 0,0 12.1239,18.7366 12.9176,29.4945 0.881,11.9422 -9.2895,35.7137 -9.2895,35.7137 0,0 3.5827,-23.2694 2.8607,-34.7579 -0.6549,-10.4161 -6.4888,-30.4503 -6.4888,-30.4503 z"
                 id="path3762"
                 inkscape:connector-curvature="0"
                 sodipodi:nodetypes="cacac" />
              <path
                 sodipodi:nodetypes="csscsccccssscc"
                 inkscape:connector-curvature="0"
                 id="path3764"
                 d="m -1328.222,808.56332 c 0,0 7.0093,-29.49598 12.3583,-34.35875 5.349,-4.86276 3.8902,-18.4785 16.5334,-22.85498 12.6432,-4.37649 34.5256,-7.78042 34.5256,-7.78042 0,0 12.1569,2.91765 16.5334,5.34904 4.3765,2.43138 13.1295,14.10201 11.6706,17.01967 -1.4588,2.91765 -15.0745,-0.97256 -18.4785,1.9451 -3.4039,2.91766 -7.7804,18.96478 -7.7804,18.96478 l 3.8902,3.89021 c 0,0 18.9648,8.26669 21.3962,13.12945 2.4314,4.86277 -0.4863,15.56085 -2.4314,17.99223 -1.9451,2.43138 -15.0746,18.4785 -19.9373,20.42361 -4.8628,1.9451 -22.3688,13.12945 -22.3688,13.12945 -9.8811,-17.28497 -24.1297,-33.2261 -45.9113,-46.84939 z"
                 style="color:#000000;display:inline;overflow:visible;visibility:visible;fill:#d2d3d6;fill-opacity:1;fill-rule:nonzero;stroke:none;stroke-width:0.75000006;marker:none;enable-background:accumulate" />
              <path
                 sodipodi:nodetypes="cacac"
                 inkscape:connector-curvature="0"
                 id="path3817"
                 d="m -1446.3208,1115.6041 c 0,0 -13.7585,12.6488 -17.7176,20.871 -4.4206,9.1805 -5.8822,29.997 -5.8822,29.997 0,0 -2.319,-23.7309 2.917,-33.7269 4.1549,-7.9318 20.6828,-17.1411 20.6828,-17.1411 z"
                 style="color:#000000;display:inline;overflow:visible;visibility:visible;fill:#6a6f72;fill-opacity:1;fill-rule:nonzero;stroke:none;stroke-width:0.75;marker:none;enable-background:accumulate" />
              <path
                 style="color:#000000;display:inline;overflow:visible;visibility:visible;fill:#6a6f72;fill-opacity:1;fill-rule:nonzero;stroke:none;stroke-width:0.75;marker:none;enable-background:accumulate"
                 d="m -1330.1418,1112.1656 c 0,0 13.7585,12.6488 17.7176,20.871 4.4206,9.1805 5.8822,29.997 5.8822,29.997 0,0 2.319,-23.7309 -2.917,-33.7269 -4.1549,-7.9318 -20.6828,-17.1411 -20.6828,-17.1411 z"
                 id="path3836"
                 inkscape:connector-curvature="0"
                 sodipodi:nodetypes="cacac" />
              <path
                 sodipodi:nodetypes="cccc"
                 inkscape:connector-curvature="0"
                 id="path3867"
                 d="m -1503.9911,999.6354 c -3.8902,1.9451 -36.046,14.7897 -36.046,14.7897 l 35.4982,-10.6981 z"
                 style="color:#000000;display:inline;overflow:visible;visibility:visible;fill:#999999;fill-opacity:1;fill-rule:nonzero;stroke:none;stroke-width:0.75;marker:none;enable-background:accumulate" />
              <path
                 sodipodi:nodetypes="cccc"
                 inkscape:connector-curvature="0"
                 id="path3903"
                 d="m -1284.6626,999.28698 c 5.4117,1.93612 33.326,8.41712 33.0512,8.55452 -10.8037,-1.4602 -21.2747,-3.2532 -32.6656,-4.1262 z"
                 style="color:#000000;display:inline;overflow:visible;visibility:visible;fill:#999999;fill-opacity:1;fill-rule:nonzero;stroke:none;stroke-width:0.75;marker:none;enable-background:accumulate" />
              <path
                 sodipodi:nodetypes="aaaaaacacasssaaca"
                 inkscape:connector-curvature="0"
                 id="path4878"
                 d="m -1420.4883,862.9874 c -6.4122,17.91459 -5.6895,37.65946 -7.1964,56.62727 -1.9966,25.13119 -0.3926,50.46423 -2.4314,75.59203 -0.997,12.288 -3.6549,24.3979 -4.7859,36.6743 -1.4743,16.0019 -5.1607,32.2743 -2.6008,48.1388 1.1342,7.0288 5.6522,13.0959 7.8022,19.8833 1.6483,5.2034 3.8861,15.907 3.8861,15.907 0,0 26.4003,-4.6629 39.7206,-4.4306 10.7031,0.1867 31.7727,4.6708 31.7727,4.6708 0,0 3.878,-15.0314 4.5774,-22.7277 0.5588,-6.1485 -1.3924,-10.6971 -0.3238,-18.5188 2.0412,-14.9403 -0.2847,-29.0681 -4.3452,-43.8818 -3.2163,-11.7341 -2.7811,-22.486 -5.0569,-34.21142 -5.0401,-25.96699 -5.0328,-53.84001 -9.3824,-80.50381 -2.8127,-17.24262 -3.3614,-35.47672 -10.7914,-51.28858 -5.3521,-11.38996 -23.4796,-29.5651 -23.4796,-29.5651 0,0 -13.699,17.39149 -17.3652,27.63431 z"
                 style="color:#000000;display:inline;overflow:visible;visibility:visible;fill:#d2d3d6;fill-opacity:1;fill-rule:nonzero;stroke:none;stroke-width:0.75000006;marker:none;enable-background:accumulate" />
              <path
                 sodipodi:nodetypes="caacaac"
                 inkscape:connector-curvature="0"
                 id="path15034"
                 d="m -1338.1948,988.73376 c 0,0 11.7693,-11.79874 18.7926,-16.14234 7.9284,-4.9036 16.7189,-8.6493 25.7795,-10.842 8.142,-1.9703 25.0569,-1.9274 25.0569,-1.9274 0,0 -20.7769,-4.9345 -31.0801,-3.373 -7.7884,1.1803 -15.5208,4.4902 -21.6838,9.3963 -7.4145,5.9025 -16.8651,22.88844 -16.8651,22.88844 z"
                 style="color:#000000;display:inline;overflow:visible;visibility:visible;fill:#999999;fill-opacity:1;fill-rule:nonzero;stroke:none;stroke-width:0.10825793;marker:none;enable-background:accumulate" />
              <path
                 style="color:#000000;display:inline;overflow:visible;visibility:visible;fill:#999999;fill-opacity:1;fill-rule:nonzero;stroke:none;stroke-width:0.10825793;marker:none;enable-background:accumulate"
                 d="m -1446.8546,992.58869 c 0,0 -11.7693,-11.7987 -18.7926,-16.14237 -7.9283,-4.9035 -16.7188,-8.6492 -25.7795,-10.8419 -8.1419,-1.9704 -25.0569,-1.9274 -25.0569,-1.9274 0,0 20.777,-4.9345 31.0802,-3.3731 7.7884,1.1803 15.5207,4.4902 21.6837,9.3964 7.4145,5.9024 16.8651,22.88837 16.8651,22.88837 z"
                 id="path15053"
                 inkscape:connector-curvature="0"
                 sodipodi:nodetypes="caacaac" />
            </g>
            <path
               style="color:#000000;display:inline;overflow:visible;visibility:visible;fill:none;stroke:#000000;stroke-width:5.63277912;stroke-linecap:round;stroke-linejoin:round;stroke-miterlimit:4;stroke-dasharray:none;stroke-dashoffset:0;stroke-opacity:1;marker:none;enable-background:accumulate"
               d="m -804.63819,1044.6711 c -7.46926,-0.9907 -19.17195,-4.7349 -24.06945,-7.7009 -2.64764,-1.6034 -9.82613,-7.5832 -15.9522,-13.2884 -35.44872,-33.01354 -38.47603,-35.45584 -46.84493,-37.79264 -31.60398,-8.8246 -72.75819,-30.2048 -90.12732,-46.8223 -14.30955,-13.6903 -41.40011,-50.9612 -51.51891,-70.8791 -4.6275,-9.1087 -5.1081,-11.0764 -5.0082,-20.5028 0.1131,-10.6623 3.2543,-27.0115 6.8376,-35.5875 1.1021,-2.6379 4.4363,-8.0888 7.4093,-12.1131 3.2601,-4.4131 5.9313,-9.9315 6.7307,-13.9051 0.729,-3.6235 2.289,-24.84658 3.4666,-47.16238 3.5946,-68.11783 6.0799,-91.68532 12.1957,-115.65038 10.36368,-40.61071 26.42751,-62.74933 56.53109,-77.90925 l 9.56959,-4.81916 10.38753,2.04645 c 19.55639,3.85282 41.75154,15.14166 72.61541,36.93346 8.51993,6.0156 17.0705,11.53805 19.00125,12.27212 1.93076,0.73408 8.33173,1.33468 14.22437,1.33468 11.24726,0 43.01142,2.1888 50.66098,3.49094 4.05965,0.69105 5.40003,-0.11084 14.44167,-8.63983 26.69393,-25.18038 54.78889,-37.76898 84.92583,-38.05298 11.40343,-0.10747 13.71964,0.28311 18.20033,3.06904 15.62857,9.71732 28.5794,36.97012 40.05339,84.28545 7.8234,32.26137 16.39684,77.33826 21.55498,113.33036 2.26834,15.8278 3.92553,22.7123 7.11816,29.57098 7.64201,16.4174 8.27033,20.2707 8.97081,55.0159 0.69342,34.3954 -0.25541,44.2763 -5.24061,54.5743 -3.41252,7.0494 -29.69257,37.3117 -39.23653,45.1822 -9.0653,7.4758 -9.31913,7.626 -45.30914,26.8166 -17.35593,9.2545 -33.00124,18.1384 -34.76736,19.742 -1.76612,1.6035 -7.43808,9.7237 -12.60437,18.0449 -11.65768,18.77664 -25.94973,33.22084 -38.71725,39.12954 -11.85941,5.4884 -37.99795,8.3081 -55.49902,5.9869 l 0,0 z"
               id="path5032"
               inkscape:connector-curvature="0" />
          </g>
        </g>
      </g>
    </g>
    <use
       transform="translate(900,0)"
       id="use6649"
       x="0"
       y="0"
       width="1200"
       height="600"
       xlink:href="#path1502" />
  </g>
</svg>
