<svg xmlns="http://www.w3.org/2000/svg" xmlns:svg="http://www.w3.org/2000/svg" id="svg2" width="1000" height="500" version="1.0"><metadata id="metadata30"/><path id="rect4" fill="#fff" stroke="none" d="m 0,0 1000,0 0,500 -1000,0 z"/><path id="path10" fill="#002373" fill-opacity="1" stroke="none" d="M 30,280 30,450 340,280 z"/><path id="path12" fill="#002373" fill-opacity="1" stroke="none" d="m 400,310 0,160 -290,0 z"/><path id="path18" fill="#cd0019" fill-opacity="1" stroke="none" d="m 460,300 0,170 510,0 z"/><path id="path20" fill="#fff" stroke="none" d="m 480,330 0,120 370,0 z"/><path id="path22" fill="#cd0019" fill-opacity="1" stroke="none" d="m 460,220 490,0 25,30 -25,30 -490,0 30,-30 z"/><path id="path24" fill="#f8d80e" fill-opacity="1" stroke="none" d="m 490,230 450,0 20,20 -20,20 -450,0 20,-20 z"/><path id="path3790" fill="#002373" fill-opacity="1" stroke="none" d="M 30,220 30,50 340,220 z"/><path id="path3792" fill="#002373" fill-opacity="1" stroke="none" d="M 400,190 400,30 110,30 z"/><path id="path3794" fill="#cd0019" fill-opacity="1" stroke="none" d="m 460,200 0,-170 510,0 z"/><path id="path3796" fill="#fff" stroke="none" d="m 480,170 0,-120 370,0 z"/></svg>