<svg xmlns="http://www.w3.org/2000/svg" xmlns:svg="http://www.w3.org/2000/svg" id="svg2" width="2400" height="1200" x="0" y="0" enable-background="new 0 0 2400 1200" version="1.1" viewBox="0 0 2400 1200" xml:space="preserve"><metadata id="metadata55"/><rect id="rect124" width="2400" height="1200" fill="#CF142B"/><rect id="_126201808" width="1200" height="600" fill="#00247D"/><polygon id="path146" fill="#FFF" points="134.169 600 0 600 0 532.917 1065.84 0 1200 0 1200 67"/><polygon id="path146_0" fill="#FFF" points="0 67.086 1065.84 600 1200 600 1200 532.918 134.169 0 0 0"/><polygon id="path136" fill="#FFF" points="0 200.003 0 400 1200 400 1200 200"/><polygon id="path136_1" fill="#FFF" points="500 600 700 600 700 0 500 0"/><polygon id="path141_2" fill="#CF142B" points="0 240 0 360 1200 360 1200 240.002"/><polygon id="path150" fill="#CF142B" points="1200 555.279 1200 600 800.003 400.002 889.444 400.002"/><polygon id="path150_3" fill="#CF142B" points="710.561 200 1110.561 0 1200 0 800 200"/><polygon id="path150_4" fill="#CF142B" points="400 200 310.562 200 0 44.726 0 0"/><polygon id="path150_5" fill="#CF142B" points="89.447 600 0 600 400 400 489.445 400"/><path id="path604" fill="#007934" stroke="#000" stroke-width="8" d="M1560.061,500.044l0.072,99.848 c0.101,132.705,132.407,254.243,239.862,300.107c107.454-45.864,239.763-167.402,239.862-300.107l0.072-99.808L1560.061,500.044 L1560.061,500.044L1560.061,500.044z"/><g id="g15"><path id="path17" fill="#F3CC00" stroke="none" d="M1992.82,673.181l18.66-13.026l-18.69-13.065l3.06-5.217l-39.16-0.031l19.541-33.84 l-6.061,0.032l-2.04-22.706l-20.69,9.582l-3-5.263l-19.529,33.844l-19.61-33.897l-2.989,5.255l-20.66-9.651l-1.95,22.675 l-6.06-0.045l19.619,33.888l-17.14-0.018l2.69,4.568l-16.33,11.4l16.35,11.433l-2.67,4.563l34.26,0.034l0.31,0.179 c-27.102,40.043-63.903,77.775-104.903,107.59l-0.026-157.299l29.681,17.102l-0.03-5.288l19.88-1.726l-8.44-18.036l4.601-2.615 l-14.84-8.552l33.93-19.541l-5.27-2.989l9.649-20.612l-22.72-1.972l0.04-6.045l-33.931,19.553v-39.077l-5.229,3.057L1800,518.781 l-13.12,18.642l-5.229-3.057v39.077l-33.931-19.553l0.04,6.045l-22.72,1.972l9.649,20.612l-5.27,2.989l33.93,19.541l-14.84,8.552 l4.601,2.615l-8.44,18.036l19.88,1.726l-0.03,5.288l29.681-17.102l-0.021,157.002c-40.973-29.866-77.732-67.63-104.77-107.688 l0.17-0.099l34.26-0.035l-2.67-4.562l16.35-11.434l-16.33-11.398l2.69-4.57l-17.14,0.019l19.62-33.889l-6.061,0.046l-1.95-22.675 l-20.66,9.651l-2.989-5.254l-19.61,33.896l-19.529-33.844l-3,5.263l-20.69-9.582l-2.04,22.705l-6.061-0.031l19.541,33.839 l-39.16,0.031l3.06,5.219l-18.69,13.064l18.66,13.027l-3.069,5.223l39.159-0.044l-8.58,14.83l5.301-0.04l1.699,19.841l18.08-8.445 l2.62,4.598l17.16-29.654l0.309-0.179c29.522,43.992,68.903,83.845,114.32,115.688l-0.009,66.535l5.84-0.039l5.83,0.039 l-0.012-66.254c45.45-31.794,84.873-71.608,114.453-115.574l0.169,0.098l17.159,29.653l2.621-4.597l18.08,8.445l1.699-19.84 l5.301,0.04l-8.58-14.831l39.16,0.044L1992.82,673.181z"/><line id="_126096560" x1="1799.95" x2="1799.95" y1="533.216" y2="615.795" fill="none" fill-opacity="1" stroke="#007934" stroke-linecap="round" stroke-linejoin="round" stroke-opacity="1" stroke-width="2"/><line id="_126096056" x1="1846.11" x2="1736.72" y1="629.139" y2="568.436" fill="none" fill-opacity="1" stroke="#007934" stroke-linecap="round" stroke-linejoin="round" stroke-opacity="1" stroke-width="2"/><line id="_126095552" x1="1753.63" x2="1863.28" y1="629.217" y2="568.266" fill="none" fill-opacity="1" stroke="#007934" stroke-linecap="round" stroke-linejoin="round" stroke-opacity="1" stroke-width="2"/><path id="_126095048_2_" fill="none" stroke="#000" stroke-linecap="round" stroke-linejoin="round" stroke-width="2" d="M1787.92,545.083"/><path id="_126095048" fill="none" stroke="#007934" stroke-linecap="round" stroke-linejoin="round" stroke-opacity="1" stroke-width="2" d="M1787.92,545.083l12.08,20.803l12.08-20.803"/><path id="_126094544_2_" fill="none" stroke="#000" stroke-linecap="round" stroke-linejoin="round" stroke-width="2" d="M1740.98,584.112"/><path id="_126094544" fill="none" stroke="#007934" stroke-linecap="round" stroke-linejoin="round" stroke-opacity="1" stroke-width="2" d="M1740.98,584.112l24.06-0.059l-11.979-20.002"/><path id="_126094040_1_" fill="none" stroke="#007934" stroke-linecap="round" stroke-linejoin="round" stroke-opacity="1" stroke-width="2" d="M1859.02,583.941l-24.06-0.06l11.979-20.001"/><path id="_126093536_2_" fill="none" stroke="#000" stroke-linecap="round" stroke-linejoin="round" stroke-width="2" d="M1841.85,613.465"/><path id="_126093032_2_" fill="none" stroke="#000" stroke-linecap="round" stroke-linejoin="round" stroke-width="2" d="M1757.89,613.541"/><line id="_126092528" x1="1960.859" x2="1919.58" y1="597.802" y2="669.317" fill="none" fill-opacity="1" stroke="#007934" stroke-linecap="round" stroke-linejoin="round" stroke-opacity="1" stroke-width="2"/><line id="_126092024" x1="1952.88" x2="1888.5" y1="703.955" y2="596.689" fill="none" fill-opacity="1" stroke="#007934" stroke-linecap="round" stroke-linejoin="round" stroke-opacity="1" stroke-width="2"/><line id="_126091520" x1="1872.75" x2="1998.189" y1="657.782" y2="659.823" fill="none" fill-opacity="1" stroke="#007934" stroke-linecap="round" stroke-linejoin="round" stroke-opacity="1" stroke-width="2"/><path id="_126091016_2_" fill="none" stroke="#000" stroke-linecap="round" stroke-linejoin="round" stroke-width="2" d="M1944.51,602.065"/><path id="_126091016" fill="none" stroke="#007934" stroke-linecap="round" stroke-linejoin="round" stroke-opacity="1" stroke-width="2" d="M1944.51,602.065l0.062,24.054l20.87-11.975"/><path id="_126090512_2_" fill="none" stroke="#000" stroke-linecap="round" stroke-linejoin="round" stroke-width="2" d="M1884.35,612.396"/><path id="_126090512" fill="none" stroke="#007934" stroke-linecap="round" stroke-linejoin="round" stroke-opacity="1" stroke-width="2" d="M1884.35,612.396l20.86,11.977l-0.37-23.309"/><path id="_126090008_1_" fill="none" stroke="#007934" stroke-linecap="round" stroke-linejoin="round" stroke-opacity="1" stroke-width="2" d="M1986.66,671.265l-20.801-12.074l20.371-11.335"/><path id="_126089504_2_" fill="none" stroke="#000" stroke-linecap="round" stroke-linejoin="round" stroke-width="2" d="M1957.03,688.248"/><path id="_126089000_2_" fill="none" stroke="#000" stroke-linecap="round" stroke-linejoin="round" stroke-width="2" d="M1884.28,646.339"/><line id="_126088496" x1="1639.14" x2="1680.43" y1="597.488" y2="669.004" fill="none" fill-opacity="1" stroke="#007934" stroke-linecap="round" stroke-linejoin="round" stroke-opacity="1" stroke-width="2"/><line id="_126087992" x1="1647.12" x2="1711.5" y1="703.642" y2="596.375" fill="none" fill-opacity="1" stroke="#007934" stroke-linecap="round" stroke-linejoin="round" stroke-opacity="1" stroke-width="2"/><line id="_126087488" x1="1727.25" x2="1601.811" y1="657.469" y2="659.509" fill="none" fill-opacity="1" stroke="#007934" stroke-linecap="round" stroke-linejoin="round" stroke-opacity="1" stroke-width="2"/><path id="_126086976" fill="none" stroke="#007934" stroke-linecap="round" stroke-linejoin="round" stroke-opacity="1" stroke-width="2" d="M1655.49,601.752l-0.062,24.054l-20.87-11.973"/><path id="_126086488" fill="none" stroke="#007934" stroke-linecap="round" stroke-linejoin="round" stroke-opacity="1" stroke-width="2" d="M1715.65,612.081l-20.86,11.978l0.37-23.308"/><path id="_126086016_2_" fill="none" stroke="#000" stroke-linecap="round" stroke-linejoin="round" stroke-width="2" d="M1613.34,670.952"/><path id="_126086016" fill="none" stroke="#007934" stroke-linecap="round" stroke-linejoin="round" stroke-opacity="1" stroke-width="2" d="M1613.34,670.952l20.8-12.078l-20.37-11.335"/></g><rect id="_126101704" width="479.961" height="200.146" x="1560.04" y="300.032" fill="#FFF"/><polygon id="path141_8" fill="#cf142b" fill-opacity="1" points="1822.52 300.058 1777.52 300.058 1777.52 500.157 1822.52 500.157"/><polygon id="path141_9" fill="#cf142b" fill-opacity="1" points="2040 377.602 1560.04 377.602 1560.04 422.611 2040 422.611"/><rect id="rect613" width="479.963" height="200.147" x="1560" y="300.002" fill="none" stroke="#000" stroke-width="8"/><polygon id="polygon3848" fill="#CF142B" points="540 0 540 600 660 600 660 0"/></svg>