<?xml version="1.0" encoding="UTF-8" standalone="no"?>
<svg
   xmlns:dc="http://purl.org/dc/elements/1.1/"
   xmlns:cc="http://creativecommons.org/ns#"
   xmlns:rdf="http://www.w3.org/1999/02/22-rdf-syntax-ns#"
   xmlns:svg="http://www.w3.org/2000/svg"
   xmlns="http://www.w3.org/2000/svg"
   xmlns:sodipodi="http://sodipodi.sourceforge.net/DTD/sodipodi-0.dtd"
   xmlns:inkscape="http://www.inkscape.org/namespaces/inkscape"
   sodipodi:docname="Flag_of_Canton_of_Aargau.svg"
   inkscape:version="1.0beta2 (2b71d25, 2019-12-03)"
   xml:space="preserve"
   enable-background="new -206.827 -207.477 475.531 477.108"
   viewBox="-206.827 -207.477 471.98199 473.556"
   height="473.556"
   width="471.98199"
   y="0px"
   x="0px"
   id="Ebene_1"
   version="1.1"><metadata
   id="metadata31"><rdf:RDF><cc:Work
       rdf:about=""><dc:format>image/svg+xml</dc:format><dc:type
         rdf:resource="http://purl.org/dc/dcmitype/StillImage" /></cc:Work></rdf:RDF></metadata><defs
   id="defs29">
	
	
	
	
	
	
	
	
	

		
		
			
	</defs><sodipodi:namedview
   inkscape:document-rotation="0"
   inkscape:current-layer="g3789"
   inkscape:window-maximized="1"
   inkscape:window-y="25"
   inkscape:window-x="0"
   inkscape:cy="245.36233"
   inkscape:cx="224.02973"
   inkscape:zoom="0.98929382"
   fit-margin-bottom="0"
   fit-margin-right="0"
   fit-margin-left="0"
   fit-margin-top="0"
   showgrid="false"
   id="namedview27"
   inkscape:window-height="847"
   inkscape:window-width="1440"
   inkscape:pageshadow="2"
   inkscape:pageopacity="0"
   guidetolerance="10"
   gridtolerance="10"
   objecttolerance="10"
   borderopacity="1"
   bordercolor="#666666"
   pagecolor="#ffffff" />
<g
   id="g3789"><rect
     style="fill:#010202"
     id="rect5"
     height="473.556"
     width="471.979"
     y="-207.47701"
     x="-206.827" /><rect
     style="fill:#268bcc"
     id="rect7"
     height="473.556"
     width="235.99699"
     y="-207.47701"
     x="29.157993" /><polygon
     style="fill:#ffffff"
     id="polygon9"
     points="202.07,-4.341 170.414,16.038 181.398,-18.837 152.977,-37.876 188.648,-37.876 202.07,-74.349 215.492,-37.876 251.147,-37.876 222.977,-18.556 233.711,16.038 "
     transform="translate(-1.7760072,-1.775996)" /><polygon
     style="fill:#ffffff"
     id="polygon11"
     points="91.836,-4.341 60.445,16.038 71.164,-18.837 42.742,-37.876 78.43,-37.876 91.836,-74.349 105.258,-37.876 140.93,-37.876 112.773,-18.556 123.492,16.038 "
     transform="translate(-1.7760072,-1.775996)" /><polygon
     style="fill:#ffffff"
     id="polygon13"
     points="147.086,92.213 115.43,112.315 126.148,77.729 98.008,58.417 133.664,58.417 147.086,22.209 160.492,58.674 196.148,58.674 167.742,77.729 178.742,112.588 "
     transform="translate(-1.7760072,-1.775996)" /><path
     style="fill:#ffffff;stroke-width:1.00866"
     inkscape:connector-curvature="0"
     id="path15"
     d="m 28.378637,8.187004 c -11.656179,-2.144 -13.559707,-9.918 -31.4239692,-9.918 -20.7566878,0 -17.5977078,10.797 -42.3964658,10.797 -24.798758,0 -22.251226,-10.797 -43.007914,-10.797 -20.760758,0 -19.223488,10.797 -43.095408,10.797 -23.88108,0 -21.55229,-10.797 -42.30897,-10.797 -19.30285,0 -19.97839,9.047 -34.38456,10.328 v -34.395 c 14.40617,-1.277 15.08171,-10.328 34.38456,-10.328 20.75668,0 18.42789,10.793 42.30897,10.793 23.87293,0 22.33465,-10.793 43.095408,-10.793 20.756688,0 18.209156,10.793 43.007914,10.793 24.798758,0 21.639778,-10.793 42.3964658,-10.793 17.8642622,0 19.7759292,7.762 31.4239692,9.938 z" /><path
     style="fill:#ffffff;stroke-width:1.00866"
     inkscape:connector-curvature="0"
     id="path17"
     d="m 28.378637,54.125004 c -11.656179,-2.141 -13.559707,-9.922 -31.4239692,-9.922 -20.7566878,0 -17.5977078,10.797 -42.3964658,10.797 -24.798758,0 -22.251226,-10.797 -43.007914,-10.797 -20.760758,0 -19.223488,10.797 -43.095408,10.797 -23.88108,0 -21.55229,-10.797 -42.30897,-10.797 -19.30285,0 -19.97839,9.047 -34.38456,10.328 v -34.39 c 14.40617,-1.281 15.08171,-10.328 34.38456,-10.328 20.75668,0 18.42789,10.801 42.30897,10.801 23.87293,0 22.33465,-10.801 43.095408,-10.801 20.756688,0 18.209156,10.801 43.007914,10.801 24.798758,0 21.639778,-10.801 42.3964658,-10.801 17.8642622,0 19.7759292,7.766 31.4239692,9.918 z" /><path
     style="fill:#ffffff;stroke-width:1.00866"
     inkscape:connector-curvature="0"
     id="path19"
     d="M 28.378637,100.062 C 16.722458,97.898004 14.81893,90.140004 -3.0453322,90.140004 -23.80202,90.140004 -20.64304,100.921 -45.441798,100.921 c -24.798758,0 -22.251226,-10.780996 -43.007914,-10.780996 -20.760758,0 -19.223488,10.780996 -43.095408,10.780996 -23.88108,0 -21.55229,-10.780996 -42.30897,-10.780996 -19.30285,0 -19.97839,9.047 -34.38456,10.312996 V 66.062004 c 14.40617,-1.266 15.08171,-10.313 34.38456,-10.313 20.75668,0 18.42789,10.781 42.30897,10.781 23.87293,0 22.33465,-10.781 43.095408,-10.781 20.756688,0 18.209156,10.781 43.007914,10.781 24.798758,0 21.639778,-10.781 42.3964658,-10.781 17.8642622,0 19.7759292,7.766 31.4239692,9.922 z" /></g>
</svg>
