<?xml version="1.0" encoding="UTF-8" standalone="no"?>
<!-- Generator: Adobe Illustrator 16.0.2, SVG Export Plug-In . SVG Version: 6.00 Build 0)  -->

<svg
   xmlns:dc="http://purl.org/dc/elements/1.1/"
   xmlns:cc="http://creativecommons.org/ns#"
   xmlns:rdf="http://www.w3.org/1999/02/22-rdf-syntax-ns#"
   xmlns:svg="http://www.w3.org/2000/svg"
   xmlns="http://www.w3.org/2000/svg"
   xmlns:sodipodi="http://sodipodi.sourceforge.net/DTD/sodipodi-0.dtd"
   xmlns:inkscape="http://www.inkscape.org/namespaces/inkscape"
   version="1.1"
   id="Ebene_1"
   x="0px"
   y="0px"
   width="469.862"
   height="471.422"
   viewBox="-205.823 -206.293 469.862 471.422"
   enable-background="new -205.823 -206.293 473.414 474.974"
   xml:space="preserve"
   inkscape:version="0.48.4 r9939"
   sodipodi:docname="Flag_of_Canton_of_Appenzell_Ausserrhoden.svg"><metadata
   id="metadata101"><rdf:RDF><cc:Work
       rdf:about=""><dc:format>image/svg+xml</dc:format><dc:type
         rdf:resource="http://purl.org/dc/dcmitype/StillImage" /></cc:Work></rdf:RDF></metadata><defs
   id="defs99">
	
	
	
	
	
	
	
	
	
	
	
	
	
	
	
	
	
	
	
	
	
	
	
	
	
	
	
	
	
	
	
	
	
	
	
	
	
	
	
	
	
	
	
	

		
		
			
	</defs><sodipodi:namedview
   pagecolor="#ffffff"
   bordercolor="#666666"
   borderopacity="1"
   objecttolerance="10"
   gridtolerance="10"
   guidetolerance="10"
   inkscape:pageopacity="0"
   inkscape:pageshadow="2"
   inkscape:window-width="1366"
   inkscape:window-height="706"
   id="namedview97"
   showgrid="false"
   fit-margin-top="0"
   fit-margin-left="0"
   fit-margin-right="0"
   fit-margin-bottom="0"
   inkscape:zoom="0.99373861"
   inkscape:cx="234.931"
   inkscape:cy="235.711"
   inkscape:window-x="-8"
   inkscape:window-y="-8"
   inkscape:window-maximized="1"
   inkscape:current-layer="Ebene_1" />
<g
   id="g3300"><rect
     x="-205.823"
     y="-206.293"
     width="469.862"
     height="471.422"
     id="rect5"
     style="fill:#ffffff" /><rect
     x="-205.823"
     y="-206.293"
     width="469.862"
     height="471.422"
     id="rect7"
     style="fill:#ffffff" /><path
     d="m -36.128004,-107.789 c 17.816,5.535 46.434,15.870998 51.52,19.081998 -2.055,2.605 -11.3750001,15.344 -13.8630001,41.832 -8.641,5.184 -11.5899999,0.406 -11.5899999,0.406 0,0 -3.449,0.434 -4.043,2.473 -6.918,-4.199 -5.941,-10.656 -10.277,-6.465 -1.035,0.977 -6.594,-8.832 -8.121,-4.031 -4.824,-1.016 -4.848,-7.352 -6.152,-7.602 -1.32,-0.246 -3.824,2.48 -4.672,0.824 -1.441,-2.809 -3.098,-6.121 -3.594,-6.574 -0.512,-0.465 -1.895,1.031 -3.965,0.391 -2.059,-0.641 -3.633,-6.414 -5.449,-7.129 -3.488,1.816 -5.84,-4.656 -6.113,-5.543 -0.438,1.855 -5.246,2.824 -4.793,-0.313 1.648,-10.91 -13.191,-9.551 -12.52,-19.968998 -19.055,-2.293 -17.246,-42.254 -20.999996,-42.781 -6.887,-0.992 -11.535,-0.137 -11.535,-0.137 0,0 0.266,-6.129 9.688,-7.535 -5.191,-3.57 -11.824,-4.121 -11.824,-4.121 0,0 2.426,-4.953 14.418,-3.258 -2.984,-6.695 -9.473,-9.645 -9.473,-9.645 0,0 7.105,-2.578 14.952996,4.359 -1.066,-8.563 -7.343996,-15.152 -7.343996,-15.152 0,0 7.007996,-1.594 14.565996,11.52 1.16,-8.289 -1.984,-16.785 -1.984,-16.785 0,0 7.695,0.688 10.855,17.543 7.031,9.723 3.527,25.152 11.266,42.16 4.304,9.473 15.871,11.747 31.046,16.45"
     id="path9"
     inkscape:connector-curvature="0"
     style="fill:#010202" /><path
     d="m -2.2880041,124.058 c 5.77,-22.18 25.2810001,-36.898002 45.1020001,-35.063002 1.047,-4.578 1.914,-8.695 1.578,-9.492 -11.625,-27.813 -18.52,-30.922 -18.52,-30.922 0,0 -25.60900015,-6.164 -41.055,1.969 -3.121,1.641 -26.184,18.102 -21.664,19.219 7.48,1.844 -2.969,7.328 -4.625,11.875 -1.656,4.563 2.441,3.469 2.633,4.047 0.465,1.359 -10.344,13.219 -7.664,13.828 10.023,2.219002 -4.504,13.492002 -1.383,14.328002 8.613,2.328 -1.961,12.133 1.117,12.641 1.098,0.164 3.199,0.75 4.891,1.031 -0.961,1.938 -3.488,7.516 -2.961,13.266 0.254,2.641 3.023,-2.438 4.43,1.063 -7.102,6.531 6.18,25.172 7.098,36.266 -4.809,0.625 -3.984,-6.234 -8.16,-8.25 -2.254,4.594 -6.824,4.578 -12.281,3.047 -5.453,-1.5 -11.816,-4.508 -17.629,-4.586 -12.801,-3.656 -18.121,1.313 -19.289,2.945 0.383,0.148 4.871,1.328 11.297,4.43 -10.855,0.898 -12.777,8.344 -12.777,8.344 0,0 5.582,-0.375 12.535,1.164 -11.27,6.445 -9.711,13.563 -9.711,13.563 0,0 6.23,-4.156 12.672,-4.734 -3.48,2.922 -6.359,9.328 -4.223,13.953 2.543,-2.719 7.469,-5.266 9.254,-6.109 -2.383,6.141 -2.023,10.625 0.602,13.891 7.039,-10.875 9.551,-10.203 11.59,-10.039 1.113,0.102 4.152,1.18 8.609,1.727 3.719,0.422 8.422,0.273 13.809,0.617 12.918,0.836 27.8789999,1.328 37.75799985,-9.898 C -2.2880041,173.191 -7.8150041,145.371 -2.2880041,124.058"
     id="path11"
     inkscape:connector-curvature="0"
     style="fill:#010202" /><path
     d="m -76.600004,-7.2540017 c 5.137,-0.816 12.082,7.34399999 17.449,1.344 -10.238,-4.6370003 -20.855,-20.2780003 -31.488,-22.4610003 -11.976996,-16.617 -19.405996,-14.473 -19.405996,-14.473 0,0 9.406,14.152 9.117,17.711 -15.719,-8.641 -20.934,-2.91 -20.934,-2.91 l 15.191,11.191 c 0,0 -13.938,-2.129 -17.656,5.07 7.816,0.367 15.824,3.2270003 16.199,4.9450003 -0.801,0.453 -11.055,2.758 -11,9.758 4.129,-0.773 11.785,-0.896 13.656,0.883 -3.398,3.477 -9.945,8.9839997 -6.52,15.7579997 4.742,-2.848 7.633,-7.48 12.487996,-8.223 5.512,-4.2299997 20.672,6.854 22.145,7.953 1.48,1.109 29.078,16.078 33.781,3.957 0.32,-0.832 9.664,4.105 10.242,1.969 1.895,-7.063 1.863,-4.809 5.262,-3.102 1.746,0.871 4.516,-2.313 6.875,-0.313 1.488,-7.57 10.527,-0.906 12.7109999,-7.473 4.84,0.824 8.09799995,2.344 7.344,-4.016 6.223,4.391 7.449,-1.0429997 10.566,0.613 0.305,-6.4769997 6.5630001,-4.0629997 8.9300001,-4.1679997 20.985,-0.853 24.063,-16.435 25.079,-18.8290003 1.906,-4.477 4.055,-4.148 3.414,-1.535 -3.531,14.08100029 -11.187,25.847 -32.109,24.722 -1.168,-0.066 -1.688,0.477 -2.176,1.277 -0.488,0.793 -0.473,1.449 -0.344,4.281 0.199,5.848 14.137,23.109 22.137,36.063 10.461,16.938 13.82,25.672 12.539,29.453 -2.227,6.703 -6.945,41.656002 -6.719,42.789002 0.203,1.148 1.906,2.164 3.578,0.57 2.016,2.391 -1.859,11.547 0.641,11.789 1.898,-1.344 4.234,-2.523 4.234,-2.523 0,0 -3.938,10.297 1.734,15.211 0.727,-2.867 2.961,-4.969 2.961,-4.969 0,0 -1.117,9.953 4.359,12.758 0.117,-0.625 0,-1.055 0.633,-4.203 3.297,12.047 4.844,13.156 5.711,12.328 0.867,-0.828 -1.594,-5.047 1.281,-4.125 1.008,10.523 3.898,10.375 3.898,10.375 0,0 0.344,-0.43 1.75,-2.875 3.266,8.953 21.828,18.484 18.578,39.984 -0.672,0.438 -2.164,0.391 -2.625,-1.266 -0.453,-1.672 -1.57,-6.547 -2.109,-7.234 -0.523,-0.672 -2.094,-2.813 -14.313,-4.281 -12.203,-1.438 -18.281,4.859 -18.281,4.859 0,0 -13.5,-4.563 -20.715,5.094 4.27,-1.016 14.824,4.719 14.824,4.719 0,0 -10.844,2.625 -12.5,13.875 7.719,-4.031 15.586,-2.938 15.586,-2.938 0,0 -9.57,7.422 -7.648,17.953 6.75,-7.188 13.813,-9.047 13.813,-9.047 0,0 -6.492,11.077 -1.094,18.438 2.602,-3.859 7.406,-11.953 11.031,-11.359 1.492,10.984 7.625,14.875 8.469,14.094 0.844,-0.766 -1.672,-10.141 4.547,-15.914 10.641,-2.578 36.773004,-7.68 46.891004,-32.477 -1.172,-7.672 -22.563,-43.609 -22.125,-69.5 0.125,-7.219 1.086,-35.828002 1.086,-35.828002 0,0 0.789,-16.758 -5.063004,-27.875 3.641004,0.313 5.023004,7.641 7.109004,8.984 2.102,1.328 3.742,-2.047 3.742,-2.047 l -0.789,-6.313 4.164,5.125 c 0,0 3.594,-8.031 0.578,-17.953 -3.016,-9.938 -17.063004,-29.223 -18.984004,-35.781 -1.359,-4.563 -3.875,-21.71499971 -4.875,-28.7929997 -1,-7.0740003 -0.633,-28.6090003 -0.633,-28.6090003 0,0 2.93,0.496 4.867,2.242 1.539,-1.898 -0.781,-8.328 -0.07,-9.258 0.656,1.242 3.32,1.359 4.883,3.016 2.547004,-5.262 0.328,-10.398 0.055,-11.086 4.289004,1.871 8.211004,1.488 8.852004,-0.203 -1.641,-1.688 -3.883,-11.719 -3.789,-12.973 1.648,-0.824 6.367,3.422 7.18,1.895 -2.555,-4.078 -1.164,-10.336 -5.195,-17.32 1.508,-1.215 3.07,0.992 4.875,-1.969 -7.875,-12.613 1.813,-25.327998 0.945,-34.710998 -1.344,-15 -9.406,-17.535 -9.406,-17.535 0,0 21.281,-0.105 16.797,-17.527 -4.484,-17.434 -15.539,-6.313 -22.766004,-10.801 -7.227,-4.496 -7.063,-16.395 -18.219,-17.051 -15.766,-0.918 -36.828,11.229 -49.074,11.229 -3.824,-0.031 -3.328,0.664 -12.406,-2.031 -2.379,13.031 2.328,14.406 0.969,17.461 -2.563,5.691 -1.609,7.152 -1.609,7.152 l 1.359,0.027 c -0.375,2 -0.535,5.879 2.266,10.246 3.344,-5.229 4.461,-8.535 4.832,-10.104 l 0.934,0.021 c -0.16,2.402 -0.063,6.809 2.199,10.082 3.379,-3.457 4.57,-7.84 4.961,-9.938 l 0.211,0.012 c 0,0 7.703,-0.594 12.641,2.172 4.938,2.77 4.742,13.434 4.742,13.434 0,0 -13.398,-4.543 -19.176,-4.426 -8.168,0.195 -20.84,3.691 -28.5270001,1.859 -7.691,-1.824 -14.6559999,-13.008 -14.6559999,-13.008 0,0 -12.115,18.476 14.9319999,23.078 6.016,1.023 11.7030001,0.648 16.6410001,-0.145 0,0 12.879,-2.863 15.652,-3.254 2.766,-0.395 13.984,1.262 13.984,1.262 0,0 -0.641,4.137 -6.164,4.137 -1.852,0 -23.824,-0.414 -23.824,-0.414 0,0 -0.566,7.461 4.266,7.918 1.574,0.145 7.328,-0.449 14.77,0.672 15.641,2.367 33.406,8.688 46.359,-5.656 11.18,-12.375 2.414,-30.711 12.438,-38.551 8.250004,-6.465 17.336004,-0.625 17.711004,1.879 -12.359,-5.094 -14.945,-0.598 -16.359004,0.488 -9.93,7.586 4.922004,46.129 -32.852,47.273 -13.133,0.391 -26.984,1.207 -32.984,7.757998 -3.402,3.723 -6.805,3.523 -11.746,8.531 -13.3790001,13.598 -13.8240001,32 -15.2190001,40.414 -0.543,3.313 0.938,2.242 0.938,2.242 0,0 7.1130001,-2.57 12.2970001,-3.297 0.918,-0.113 1.031,0.504 1.031,0.504 0,0 0.016,0.719 -0.887,1.238 -45.587,11.376 -71.724,61.931 -95.876,40.5360003"
     id="path13"
     inkscape:connector-curvature="0"
     style="fill:#010202" /><path
     d="m 84.172996,-178.492 c 5.953,-8.152 29.000004,-2.77 18.422004,16.617 -9.094004,2.582 -10.031004,-15.106 -18.422004,-16.617"
     id="path15"
     inkscape:connector-curvature="0"
     style="fill:#010202" /><path
     d="m 34.907996,-115.539 h -0.016 0.016 z"
     id="path17"
     inkscape:connector-curvature="0"
     style="fill:#ffffff" /><path
     d="m -12.671004,-135.414 c 0,1.371 0.23,2.648 0.695,3.801 1.801,4.504 7.0079999,7.512 15.4879999,8.953 4.984,0.848 10.2380001,0.801 16.1210001,-0.152 0.086,-0.016 12.82,-2.848 15.688,-3.25 2.461,-0.352 10.164,0.656 13.367,1.105 0,0 1.008,0.152 1.367,0.207 0.133,-0.695 0.398,-1.941 0.523,-2.605 -0.406,-0.129 -1.492,-0.441 -1.492,-0.441 -2.945,-0.953 -13,-4.07 -17.559,-3.969 -2.887,0.066 -6.406,0.57 -10.137,1.098 -6.703,0.949 -13.6330001,1.934 -18.8090001,0.711 -6.047,-1.441 -11.469,-7.887 -14.0159999,-11.336 -0.618,1.573 -1.236,3.655 -1.236,5.878"
     id="path19"
     inkscape:connector-curvature="0"
     style="fill:#e8423f" /><path
     d="m 19.536996,60.190998 c 0,0 6.656,-2.078 16.473,1.836 1.297,2.461 3.836,6.688 5.664,11.242 -3.782,-4.484 -22.137,-13.078 -22.137,-13.078"
     id="path21"
     inkscape:connector-curvature="0"
     style="fill:#e8423f" /><path
     d="m -122.143,-12.981002 c 4.512,0.52 10.105,1.84 13,3.7190003 0.082,-2.0780003 0.793,-5.2460003 1.07,-6.3440003 -2.262,-0.23 -9.988,-0.664 -14.07,2.625"
     id="path23"
     inkscape:connector-curvature="0"
     style="fill:#e8423f" /><path
     d="m -117.448,1.2929983 c 3.031,-0.37100001 8.16,-0.57000001 11.266,0.52 -0.297,-0.688 -0.586,-1.37500001 -0.824,-2.06600001 -0.578,-1.67199999 -0.992,-3.32799999 -1.273,-4.98399999 -1.392,0.471 -8.095,2.936 -9.169,6.53"
     id="path25"
     inkscape:connector-curvature="0"
     style="fill:#e8423f" /><path
     d="m -119.608,-28.027002 c 0.855,0.629 12.832,9.473 13.281,9.801 1.016,-1.723 3.574,-4.836 4.391,-5.816 -9.688,-5.259 -15.094,-4.884 -17.672,-3.985"
     id="path27"
     inkscape:connector-curvature="0"
     style="fill:#e8423f" /><path
     d="m -111.495,17.698998 c 1.008,-0.762 2.023,-1.609 3.184,-2.672 2.039,-1.887 4.168,-3.832 6.914,-4.777 -1.328,-1.5199997 -2.563,-3.2069997 -3.641,-5.0859997 -1.297,1.254 -7.808,7.8629997 -6.457,12.5349997"
     id="path29"
     inkscape:connector-curvature="0"
     style="fill:#e8423f" /><path
     d="m -100.534,-28.516002 c 0.336,0.887 0.488,1.59 0.542996,2.184 1.184,-0.625 4.91,-2.527 7.313,-3.105 -7.464996,-9.391 -12.862996,-12.008 -15.753996,-12.68 2.488,3.633 6.41,9.648 7.898,13.601"
     id="path31"
     inkscape:connector-curvature="0"
     style="fill:#e8423f" /><path
     d="m 35.125996,205.074 c 4.938,0.984 11.141,4.281 11.844,4.656 0,0 0.609,0.344 1.016,0.563 -0.008,-0.164 -0.008,-0.328 -0.008,-0.492 0,-3.031 0.836,-5.484 2.477,-7.344 -3.797,-0.742 -10.415,-1.234 -15.329,2.617"
     id="path33"
     inkscape:connector-curvature="0"
     style="fill:#e8423f" /><path
     d="m 50.235996,223.418 0,0 c -0.078,0.086 -6.906,5.578 -7.211,13.383 5.43,-4.984 10.508,-6.805 11.805,-7.219 -0.805,-0.922 -1.539,-2.031 -2.203,-3.297 0.008,0.016 0,0.016 -1.047,-2.203 0,0 -0.422,-0.891 -0.586,-1.25 -0.149,0.141 -0.36,0.297 -0.758,0.586"
     id="path35"
     inkscape:connector-curvature="0"
     style="fill:#e8423f" /><path
     d="m 46.633996,212.746 0,0 c -0.086,0.016 -7.883,2.133 -10.57,9.789 6.984,-2.805 13.242,-2.047 13.5,-2.016 0,0 0.328,0.047 0.594,0.094 -1.141,-2.828 -1.844,-5.578 -2.117,-8.219 -0.212,0.047 -0.618,0.172 -1.407,0.352"
     id="path37"
     inkscape:connector-curvature="0"
     style="fill:#e8423f" /><path
     d="m 66.938996,237.785 c 0,0.031 0.016,0.094 0.016,0.094 0.938,7.016 3.891,10.852 5.734,12.234 -0.016,-0.547 -0.023,-1.594 -0.023,-1.594 0,-2.906 0.352,-7.148 2.852,-10.893 -2.392,0.909 -5.392,0.987 -8.579,0.159"
     id="path39"
     inkscape:connector-curvature="0"
     style="fill:#e8423f" /><path
     d="m 56.758996,231.863 c -0.023,0.078 -2.992,5.25 -2.992,10.539 0,1.578 0.305,2.984 0.836,4.234 2.438,-3.773 5.93,-9 9.453,-9.922 -2.656,-1.08 -5.164,-2.721 -7.273,-4.854 l -0.024,0.003 0,0 z"
     id="path41"
     inkscape:connector-curvature="0"
     style="fill:#e8423f" /><path
     d="m -79.823004,-167.836 c 0.008,0 0.008,-0.008 0.023,-0.016 -2.16,-8.992 -5.52,-12.785 -7.809,-14.352 0.52,1.758 1.105,4.086 1.449,6.734 0.32,2.457 0.449,5.152 0.152,7.871 l -0.098,0.816 c 2.201,-0.975 4.361,-1.35 6.283,-1.053"
     id="path43"
     inkscape:connector-curvature="0"
     style="fill:#e8423f" /><path
     d="m -88.717004,-167.211 c -4.082,-6.738 -7.883,-9.297 -10.457,-10.273 2.113,2.91 4.84,7.543 5.617,13.055 l 0.191,1.488 c 1.75,-1.336 3.551,-2.391 5.32,-3.168 l -0.671,-1.102 z"
     id="path45"
     inkscape:connector-curvature="0"
     style="fill:#e8423f" /><path
     d="m -100.87,-157.063 c -5.793,-0.605 -9.191,0.227 -11.145,1.172 2.625,0.492 6.23,1.484 9.473,3.527 l 0.52,0.328 c 0.633,-1.57 1.504,-3.146 2.573996,-4.691 l -1.421996,-0.336 z"
     id="path47"
     inkscape:connector-curvature="0"
     style="fill:#e8423f" /><path
     d="m -102.663,-149.445 c -4.992,0.938 -7.074,3.055 -7.961,4.641 1.465,-0.168 4.52,-0.328 7.625,-0.273 -0.105,-1.367 0.063,-2.855 0.441,-4.383 l -0.105,0.015 z"
     id="path49"
     inkscape:connector-curvature="0"
     style="fill:#e8423f" /><path
     d="m -94.671004,-161.75 -1.25,-1.055 c -3.871,-3.266 -7.476996,-4.223 -10.101996,-4.391 4.695,3.086 7.253996,8.574 7.604996,9.277 0.379,-0.559 2.059,-2.359 3.281,-3.438 0.154,-0.143 0.314,-0.264 0.466,-0.393"
     id="path51"
     inkscape:connector-curvature="0"
     style="fill:#e8423f" /><path
     d="m -73.921004,193.715 -1.855,1.578 c -2.438,2.063 -4.398,5.82 -4.398,9.148 0,0.273 0.047,0.539 0.086,0.813 3.027,-2.453 6.992,-4.391 7.898,-4.813 l 2.48,-1.172 c -1.64,-1.625 -3.097,-3.484 -4.211,-5.554"
     id="path53"
     inkscape:connector-curvature="0"
     style="fill:#e8423f" /><path
     d="m -76.503004,185.223 -2.441,1.391 c -6.223,3.547 -8.191,7.156 -8.773,9.438 2.477,-1.313 6.621,-3.188 10.941,-3.578 l 2.176,-0.18 c -0.086,-0.203 -0.207,-0.414 -0.285,-0.609 -0.825,-2.087 -1.344,-4.283 -1.618,-6.462"
     id="path55"
     inkscape:connector-curvature="0"
     style="fill:#e8423f" /><path
     d="m -76.397004,177.043 -2.859,0.227 c -6.176,0.5 -9.109,3.219 -10.461,5.172 2.336,0.016 6.055,0.25 10.391,1.219 l 2.703,0.609 c -0.231,-2.485 -0.153,-4.954 0.226,-7.227"
     id="path57"
     inkscape:connector-curvature="0"
     style="fill:#e8423f" /><path
     d="m -70.296004,202.504 c -0.984,2.539 -1.48,4.766 -1.48,6.703 0,1.438 0.289,2.688 0.816,3.828 3.984,-5.828 6.586,-7.969 8.695,-8.641 -2.383,-1.063 -4.809,-2.625 -6.957,-4.641 l -1.074,2.751 z"
     id="path59"
     inkscape:connector-curvature="0"
     style="fill:#e8423f" /><path
     d="m -87.639004,170.613 c 2.031,0.695 5.113,1.844 8.855,3.656 l 2.656,1.297 c 0.543,-2.438 1.402,-4.578 2.535,-6.172 -7.519,-1.734 -11.855,-0.203 -14.046,1.219"
     id="path61"
     inkscape:connector-curvature="0"
     style="fill:#e8423f" /><path
     d="m 100.189,-139.727 c 0,0 -1.461004,0.172 -1.375004,1.195 0.078,1.023 1.172,1.191 1.172,1.191 0,0 5.875004,1.832 7.367004,-5.543 -0.984,3.528 -7.164,3.157 -7.164,3.157"
     id="path63"
     inkscape:connector-curvature="0"
     style="fill:#e8423f" /><path
     d="m 100.892,-145.109 c -0.5,-0.109 -2.063004,0.824 -2.016004,1.848 0.031,0.578 0.578,0.602 1.109,0.688 2.367004,0.395 7.711004,-4.383 5.344004,-5.262 -1,-0.368 -1.171,2.96 -4.437,2.726"
     id="path65"
     inkscape:connector-curvature="0"
     style="fill:#e8423f" /><path
     d="m 73.547996,-168.676 c -0.563,-0.68 -19.188,7.008 -19.594,10.785 -0.047,0.309 0.367,1.285 1.328,1.047 0.688,-0.168 9.922,-1.258 17.008,-0.816 2.75,0.176 5.18,0.848 6.648,1.496 1.906,0.832 4.578,0.512 4.672,-0.434 0.094,-0.941 -6.766,-3.16 -9.781,-3.445 -5.453,-0.539 -16.313,1.039 -16.313,1.039 0,0 16.915,-8.68 16.032,-9.672"
     id="path67"
     inkscape:connector-curvature="0"
     style="fill:#e8423f" /><path
     d="m -76.296004,-117.27 c 2.266,-16.223 -8.102,-30.703 -8.945,-43.055 -2.207,9.559 3.082,19.238 5.473,29.063 2.625,10.738 2.801,19.73 -3.223,20.082 -1.098,0.109 -0.902,1.48 -0.281,1.414 5.266,-0.64 6.281,-3.625 6.976,-7.504"
     id="path69"
     inkscape:connector-curvature="0"
     style="fill:#ffffff" /><path
     d="m 71.844996,-155.172 c 0.688,0.559 1.148,1.453 1.148,2.48 0,1.695 -1.258,3.07 -2.805,3.07 -1.555,0 -2.82,-1.375 -2.82,-3.07 0,-1.113 0.539,-2.074 1.359,-2.617 -2.539,0.602 -4.805,2.574 -4.805,3.641 0,1.254 3.117,3.879 6.156,4 2.914,0.113 5.766,-2.832 5.766,-3.824 10e-4,-0.793 -1.819,-2.879 -3.999,-3.68"
     id="path71"
     inkscape:connector-curvature="0"
     style="fill:#ffffff" /><path
     d="m 21.297996,-125.188 c -0.586,1.223 -1.289,3.125 -1.289,5.262 0,2.344 0.816,4.352 2.336,5.824 l 0.32,0.32 h 6.375 l -1.32,-2 c -0.832,-1.254 -1.414,-2.824 -2.023,-4.59 -0.727,-2.105 -1.422,-3.945 -2.559,-5.137 l -1.121,-1.145 -0.719,1.466 z"
     id="path73"
     inkscape:connector-curvature="0"
     style="fill:#110a0e" /><path
     d="m 29.496996,-125.547 c -0.594,1.359 -1.297,3.613 -1.297,6.68 0,1.16 0.129,2.43 0.375,3.789 l 0.195,1.059 3.262,-0.168 c -0.016,0 2.914,-0.098 2.914,-0.098 l 2.07,-0.063 -1.156,-1.898 c -0.672,-1.094 -1.227,-2.559 -1.828,-4.117 -0.781,-1.992 -1.547,-3.914 -2.566,-5.41 l -1.145,-1.672 -0.824,1.898 z"
     id="path75"
     inkscape:connector-curvature="0"
     style="fill:#110a0e" /><path
     d="m 19.121996,-141.965 c 0,1.359 0.246,3.09 1.094,5.016 1.848,-3.16 2.824,-5.664 3.234,-7 -1.504,-0.121 -3.02,0.031 -4.129,-0.055 -0.113,0.512 -0.199,1.199 -0.199,2.039"
     id="path77"
     inkscape:connector-curvature="0"
     style="fill:#ffffff" /><path
     d="m 27.313996,-142.574 c 0,1.73 0.223,3.961 1.063,5.961 1.938,-2.582 2.848,-5.633 3.227,-7.336 -1.441,0 -2.922,-0.008 -4.234,-0.129 -0.033,0.441 -0.056,0.922 -0.056,1.504"
     id="path79"
     inkscape:connector-curvature="0"
     style="fill:#ffffff" /><path
     d="m 24.618996,-119.934 c -0.656,-1.887 -1.305,-3.629 -2.289,-4.664 -0.633,1.313 -1.168,2.953 -1.168,4.672 0,0.25 0.016,0.496 0.031,0.746 0.953,0.016 2.215,0.039 3.703,0.07 -0.086,-0.273 -0.184,-0.55 -0.277,-0.824"
     id="path81"
     inkscape:connector-curvature="0"
     style="fill:#ffffff" /><path
     d="m 32.969996,-119.859 c -0.734,-1.867 -1.48,-3.746 -2.434,-5.145 -0.473,1.047 -1.168,3.105 -1.191,5.984 1.32,0.023 2.664,0.039 3.984,0.063 -0.125,-0.297 -0.234,-0.598 -0.359,-0.902"
     id="path83"
     inkscape:connector-curvature="0"
     style="fill:#ffffff" /><path
     d="m -194.878,38.518998 v 1.328 c 0,0 14.566,1.883 20.551,11.211 5.985,9.328 55.969,120.984002 55.254,124.688002 0.801,0.055 1.348,-0.273 1.348,-0.273 L -63.264004,53.206998 c 0,0 5.258,-12.359 18.152,-12.297 3.281,-0.25 4.809,-0.516 4.809,-0.516 v -1.344 l -49.664,0.266 v 1.344 h 5.344 c 0,0 14.695,-0.047 9.344,15.484 -5.352,15.516 -34.710996,92.109002 -34.710996,92.109002 0,0 -38.273,-86.656002 -39.777,-97.453002 -1.504,-10.82 13.625,-10.688 13.625,-10.688 h 3.465 v -1.328 l -62.201,-0.265 z"
     id="path91"
     inkscape:connector-curvature="0"
     style="fill:#010202" /><path
     d="m 178.876,170.402 c 0,0 -10.914,-1.852 -12.266,-8.539 -1.359,-6.703 -0.539,-56.063 -0.539,-56.063 0,0 1.164,-1.172 1.867,-0.82 0.727,0.359 1.859,2.148 1.859,2.148 0,0 39.563,60.828 71.829,63.539 2.72,-0.414 8.563,-1.344 10.938,-1.852 -35.258,-23.742 -56.266,-54.164 -59.258,-58.758 -3.008,-4.57 0.992,-5.555 2.406,-5.602 36.586,-1.148 38.82,-29.117002 38.977,-32.313002 0.813,-15.531 -12.5,-23.297 -21.109,-26.164 -8.57,-2.852 -27.5,-3.195 -27.5,-3.195 l -25.891,1.063 h -7.477 l -18.648,-2.445 c 0,0 -0.797,0.102 -0.875,0.383 -0.063,0.258 0.164,0.555 0.266,0.766 0.922,2.031 11.93,3.719 12.852,6.906 1.836,6.305 -0.266,109.195002 -0.266,109.195002 0,0 -2.07,10.656 -15.477,11.75 0.125,0.164 0,1.344 0,1.344 h 48.313 l -0.001,-1.343 0,0 z"
     id="path93"
     inkscape:connector-curvature="0"
     style="fill:#010202" /><path
     d="m 212.517,71.362998 c 0,0 1.859,4.844 -1.859,14.938 -3.734,10.109 -21.094,13.094 -21.094,13.094 0,0 -17.531,2.281002 -22.953,1.063002 -2.852,-5.891002 -0.539,-50.453002 -0.539,-50.453002 0,0 5.383,-3.297 18.43,-3.75 24.257,-0.837 28.015,25.108 28.015,25.108"
     id="path95"
     inkscape:connector-curvature="0"
     style="fill:#ffffff" /></g>
</svg>
