<?xml version="1.0" encoding="UTF-8" standalone="no"?>
<!-- Generator: Adobe Illustrator 16.0.2, SVG Export Plug-In . SVG Version: 6.00 Build 0)  -->

<svg
   xmlns:dc="http://purl.org/dc/elements/1.1/"
   xmlns:cc="http://creativecommons.org/ns#"
   xmlns:rdf="http://www.w3.org/1999/02/22-rdf-syntax-ns#"
   xmlns:svg="http://www.w3.org/2000/svg"
   xmlns="http://www.w3.org/2000/svg"
   xmlns:sodipodi="http://sodipodi.sourceforge.net/DTD/sodipodi-0.dtd"
   xmlns:inkscape="http://www.inkscape.org/namespaces/inkscape"
   version="1.1"
   id="Ebene_1"
   x="0px"
   y="0px"
   width="469.77301"
   height="471.35199"
   viewBox="-205.948 -206.508 469.773 471.352"
   enable-background="new -205.948 -206.508 473.337 474.904"
   xml:space="preserve"
   inkscape:version="0.48.4 r9939"
   sodipodi:docname="Flag_of_Canton_of_Appenzell_Innerrhoden.svg"><metadata
   id="metadata3167"><rdf:RDF><cc:Work
       rdf:about=""><dc:format>image/svg+xml</dc:format><dc:type
         rdf:resource="http://purl.org/dc/dcmitype/StillImage" /></cc:Work></rdf:RDF></metadata><defs
   id="defs3165">
	
	
	
	
	
	
	
	
	
	
	
	
	
	
	
	
	
	
	
	
	
	
	
	
	
	
	
	
	
	
	
	
	
	
	
	
	
	
	
	

		
			
	</defs><sodipodi:namedview
   pagecolor="#ffffff"
   bordercolor="#666666"
   borderopacity="1"
   objecttolerance="10"
   gridtolerance="10"
   guidetolerance="10"
   inkscape:pageopacity="0"
   inkscape:pageshadow="2"
   inkscape:window-width="1366"
   inkscape:window-height="706"
   id="namedview3163"
   showgrid="false"
   fit-margin-top="0"
   fit-margin-left="0"
   fit-margin-right="0"
   fit-margin-bottom="0"
   inkscape:zoom="0.9938851"
   inkscape:cx="234.8025"
   inkscape:cy="235.67599"
   inkscape:window-x="-8"
   inkscape:window-y="-8"
   inkscape:window-maximized="1"
   inkscape:current-layer="Ebene_1" />
<g
   id="g3211"><rect
     x="-205.94801"
     y="-206.508"
     width="469.77301"
     height="471.35199"
     id="rect3081"
     style="fill:#ffffff" /><path
     d="m -17.038006,-109.09001 c 19.4419998,8.598 40.641,18.359005 45.313,22.781005 1.344,1.266 -13.754,14.594 -14.938,41.625 -10.3750002,4.426 -13.16800021,-0.734 -13.16800021,-0.734 0,0 -2.81599999,0.391 -3.70299999,2.406 -7.3909998,-4.969 -5.574,-11.422 -10.9529998,-7.604 -1.262,0.895 -6.078,-9.922 -8.359,-5.195 -5.344,-1.512 -4.664,-7.965 -6.121,-8.352 -1.453,-0.383 -4.598,2.137 -5.383,0.371 -1.32,-3 -2.824,-6.523 -3.344,-7.051 -0.52,-0.528 -1.254,1.602 -3.527,0.746 -2.258,-0.859 -3.398,-6.883 -5.375,-7.801 -4.152,1.496 -6.09,-5.32 -6.313,-6.25 -0.703,1.848 -6.266,2.348 -5.375,-0.797 3.07,-10.93 -11.816,-13.738 -9.898,-24.258005 -21.336,-4.246 -14.977,-42.559 -19.16,-43.488 -7.711,-1.695 -13.063004,-1.297 -13.063004,-1.297 0,0 0.984004,-6.191 11.816004,-6.672 -5.48,-4.16 -12.938004,-5.391 -12.938004,-5.391 0,0 3.305004,-4.793 16.703004,-1.848 -2.629,-7.113 -9.656,-10.77 -9.656,-10.77 0,0 8.336,-1.895 16.465,5.93 -0.246,-8.809 -6.625,-16.137 -6.625,-16.137 0,0 8.121,-0.91 15.219,13.168 2.23,-8.313 -0.371,-17.25 -0.371,-17.25 0,0 8.641,1.465 10.34,18.922 6.871,10.578 1.176,25.906 8.039,43.977 3.817,10.078 18.16,13.801 34.375,20.969"
     id="path3083"
     inkscape:connector-curvature="0"
     style="fill:#010202" /><path
     d="m 8.6259938,127.49999 c 6.2970002,-22.172 27.6050002,-35.952995 49.2460002,-34.108995 1.156,-4.578 2.109,-9.641 1.75,-10.422 -12.703,-27.82 -20.227,-29.672 -20.227,-29.672 0,0 -27.984,-6.492 -44.8750002,1.656 -3.39,1.641 -28.6199998,17.141 -23.6629998,18.281 8.168,1.867 -3.254,7.328 -5.063,11.883 -1.816,4.539 2.672,3.461 2.879,4.016 0.496,1.359 -11.305,13.226995 -8.367,13.835995 10.945,2.211 -4.938,13.5 -1.543,14.328 9.438,2.313 -2.113,12.125 1.238,12.625 1.199,0.18 3.496,0.766 5.352,1.047 -1.047,1.938 -3.824,7.508 -3.23,13.25 0.273,2.656 3.289,-2.43 4.84,1.078 -7.77,6.523 6.742,25.164 7.762,36.266 -5.273,0.617 -4.371,-6.266 -8.93,-8.25 -2.465,4.594 -7.457,4.578 -13.426,3.047 -5.973,-1.508 -12.91,-4.531 -19.27,-4.594 -14,-3.656 -19.809,1.313 -21.09,2.953 0.418,0.141 5.328,1.328 12.359,4.422 -11.887,0.906 -13.98,8.344 -13.98,8.344 0,0 6.102,-0.391 13.711,1.188 -12.336,6.422 -10.625,13.547 -10.625,13.547 0,0 6.824,-4.164 13.855,-4.758 -3.809,2.953 -6.934,9.344 -4.613,13.953 2.781,-2.742 8.176,-5.281 10.117,-6.117 -2.605,6.133 -2.207,10.609 0.656,13.875 7.688,-10.844 10.441,-10.203 12.672,-10.016 1.227,0.094 4.543,1.203 9.402,1.719 4.07,0.438 9.215,0.297 15.102,0.641 14.113,0.844 30.4879998,1.328 41.281,-9.922 -3.3200002,-24.986 -9.3670002,-52.783 -3.3200002,-74.095"
     id="path3085"
     inkscape:connector-curvature="0"
     style="fill:#010202" /><path
     d="m 32.481994,-115.73101 c 0,0 -0.641,7.473 4.656,7.918 1.703,0.16 7.969,-0.445 16.125,0.684 17.094,2.359 36.508,8.688005 50.671996,-5.656 12.219,-12.379 2.641,-30.715 13.578,-38.539 9.047,-6.477 18.969,-0.633 19.375,1.867 -13.5,-5.098 -16.328,-0.602 -17.875,0.492 -10.852,7.578 5.367,46.121 -35.897996,47.258 -14.375,0.398 -29.508,1.207 -36.086,7.770005 -3.703,3.719 -7.422,3.512 -12.797,8.52 -14.621,13.597 -15.125,30.733 -16.637,39.151 -0.609,3.309 1.031,2.246 1.031,2.246 0,0 9.23,-2.422 14.902,-3.137 1,-0.125 1.125,0.496 1.125,0.496 0,0 0.328,1.16 -0.969,1.234 -18.852,1.16 -68.883,23.848 -91.324,24.078 -1.398,-0.328 -14.496,-3.375 -16.117,-10.68 1.816,-2.246 10.184,11.121 18.031,7.039 -9.215,-7.879 -14.906,-26.535 -25.391,-32.125 -6.777,-20.066 -15.426,-20.418 -15.426,-20.418 0,0 4.938,16.832 3.359,20.207 -13.598004,-13.543 -21.184004,-9.68 -21.184004,-9.68 l 12.145,15.84 c 0,0 -14.023,-6.621 -20.543,-0.84 8.16,2.906 15.629,8.32 15.422,10.098 -1.008,0.168 -12.719,-0.938 -15.152,5.887 4.664,0.594 12.816,2.969 14.168,5.328 -4.848,2.258 -13.75,5.496 -12.535,13.176 6.047,-1.23 10.77,-4.766 16.176,-3.918 7.352004,-2.297 13.641004,5.734 22.000004,14.3439996 9.863,10.168 24.297,19.7810004 31.082,16.934 1.629,-0.688 0.688,-2.246 1.895,-2.453 1.215,-0.203 9.543,7.2620004 10.168,5.1090004 2.078,-7.0630004 2.383,-3.2150004 6.105,-1.512 1.902,0.871 4.926,0.219 7.504,2.219 1.613,-7.5780004 12.215,3.828 14.59,-2.738 5.2969998,0.816 10.92199979,4.543 10.0979998,-1.8160004 6.816,4.3910004 7.453,2.1290004 10.871,3.7850004 0.328,-6.4880004 7.2660002,-1.23 9.8710002,-1.297 27.188,-0.543 33.875,-8.6880004 39.063,-19.7340004 2.094,-4.4729996 4.438,-4.1599996 3.719,-1.5429996 -3.852,14.0629996 -13.594,24.262 -36.422,23.141 -1.262,-0.063 -1.855,0.488 -2.406,1.266 -0.512,0.801 -0.504,1.457 -0.359,4.297 0.23,5.84 16.109,24.668 24.859,37.621 11.438,16.953 15.781,25.672 14.391,29.469 -2.438,6.688 -7.25,42.265995 -7,43.413995 0.234,1.133 2.094,2.148 3.922,0.539 2.195,2.391 -2.07,11.547 0.703,11.789 2.063,-1.344 4.625,-2.523 4.625,-2.523 0,0 -4.297,10.289 1.883,15.211 0.805,-2.836 3.227,-4.969 3.227,-4.969 0,0 -1.211,9.969 4.758,12.773 0.133,-0.625 0.016,-1.07 0.703,-4.203 3.609,12.047 5.297,13.141 6.25,12.313 0.945,-0.82 -1.742,-5.047 1.406,-4.109 1.102,10.508 4.266,10.359 4.266,10.359 0,0 0.375,-0.43 1.898,-2.875 3.594,8.953 23.530996,17.859 19.983996,39.344 -0.75,0.453 -2.391,0.406 -2.867,-1.25 -0.508,-1.672 -1.742,-6.578 -2.313,-7.25 -0.594,-0.656 -2.297,-2.813 -15.640996,-4.266 -13.359,-1.453 -19.984,4.859 -19.984,4.859 0,0 -14.766,-4.563 -22.656,5.109 4.672,-1.047 16.195,4.688 16.195,4.688 0,0 -11.852,2.641 -13.672,13.875 8.43,-4.016 17.055,-2.938 17.055,-2.938 0,0 -10.477,7.438 -8.359,17.954 7.375,-7.172 15.078,-9.046 15.078,-9.046 0,0 -7.078,11.093 -1.18,18.455 2.852,-3.854 8.109,-11.984 12.063,-11.375 1.625,11 8.328,14.875 9.266,14.094 0.898,-0.75 -1.836,-10.143 4.969,-15.883 11.601996,-2.625 40.179996,-7.711 51.241996,-32.494 -1.258,-7.672 -24.672,-43.609 -24.18,-69.484 0.141,-7.234 1.18,-35.844 1.18,-35.844 0,0 0.867,-15.155995 -5.523,-26.296995 3.984,0.313 5.5,7.641 7.781,8.984 2.281,1.343 4.078,-2.031 4.078,-2.031 l -0.844,-6.328 4.547,5.148 c 0,0 3.922,-8.023 0.625,-17.969 -3.297,-9.922 -18.625,-28.578 -20.75,-35.129 -1.469,-4.559 -4.234,-23.9220004 -5.328,-31.0000004 -1.078,-7.063 -0.703,-29.8629996 -0.703,-29.8629996 0,0 3.234,0.48 5.328,2.246 1.688,-1.902 -0.836,-8.328 -0.063,-9.262 0.719,1.23 3.625,1.359 5.328,3.016 2.797,-5.266 0.375,-10.395 0.063,-11.074 4.703,1.859 8.984,1.465 9.688,-0.215 -1.797,-1.68 -4.25,-11.711 -4.141,-12.969 1.797,-0.824 6.93,3.426 7.852,1.891 -2.805,-4.082 -1.281,-10.336 -5.688,-17.313 1.641,-1.207 3.344,0.992 5.328,-1.969 -8.609,-12.617 1.984,-24.063005 1.047,-33.449005 -1.477,-14.992 -10.297,-17.527 -10.297,-17.527 0,0 23.266,-0.105 18.375,-17.527 -4.898,-17.434 -17,-6.32 -24.883,-10.801 -7.906,-4.504 -7.719,-16.391 -19.921996,-17.047 -17.234,-0.93 -40.266,11.223 -53.641,11.223 -4.156,-0.039 -3.641,0.656 -13.547,-2.039 -2.574,13.039 2.547,14.414 1.066,17.465 -2.785,5.695 -1.754,7.16 -1.754,7.16 l 1.488,0.023 c -0.406,2 -0.574,5.871 2.473,10.246 3.641,-5.23 4.867,-8.543 5.266,-10.102 l 1.016,0.023 c -0.164,2.391 -0.047,6.801 2.406,10.078 3.688,-3.461 5,-7.832 5.445,-9.926 h 0.211 c 0,0 8.43,-0.594 13.82,2.176 5.39,2.77 5.18,12.48 5.18,12.48 0,0 -14.656,-4.547 -20.969,-4.418 -8.898,0.184 -22.75,3.68 -31.16,1.855 -8.4060002,-1.833 -16.0310002,-13.009 -16.0310002,-13.009 0,0 -13.2299998,19.418 16.3440002,24.016 6.578,1.027 12.785,0.656 18.168,-0.148 0,0 14.078,-2.859 17.094,-3.25 3.016,-0.398 15.297,1.258 15.297,1.258 0,0 -0.703,4.141 -6.734,4.141 -2.033,0 -26.017,-0.422 -26.017,-0.422"
     id="path3087"
     inkscape:connector-curvature="0"
     style="fill:#010202" /><path
     d="m 103.10699,-174.99601 c 6.5,-8.168 31.703,-2.773 20.125,16.602 -9.953,2.581 -10.953,-15.098 -20.125,-16.602"
     id="path3089"
     inkscape:connector-curvature="0"
     style="fill:#010202" /><path
     d="m -2.7180062,-131.92201 c 0,1.367 0.246,2.641 0.75,3.801 1.95299999,4.5 7.656,7.5 16.9380002,8.949 5.426,0.848 11.184,0.801 17.594,-0.152 0.109,-0.031 13.996,-2.848 17.137,-3.254 2.695,-0.352 11.117,0.656 14.594,1.102 0,0 1.117,0.16 1.508,0.211 0.148,-0.691 0.445,-1.938 0.555,-2.602 -0.422,-0.146 -1.602,-0.441 -1.602,-0.441 -3.234,-0.949 -14.219,-4.086 -19.18,-3.973 -3.164,0.07 -7,0.559 -11.086,1.094 -7.313,0.961 -14.871,1.945 -20.527,0.723 -6.6100002,-1.442 -12.5440002,-7.892 -15.3290002,-11.349 -0.68,1.586 -1.352,3.649 -1.352,5.891"
     id="path3091"
     inkscape:connector-curvature="0"
     style="fill:#e8423f" /><path
     d="m 32.481994,63.640995 c 0,0 7.266,-2.063 17.969,1.844 1.406,2.453 4.188,6.688 6.203,11.25 -4.125,-4.501 -24.172,-13.094 -24.172,-13.094"
     id="path3093"
     inkscape:connector-curvature="0"
     style="fill:#e8423f" /><path
     d="m -119.06101,-52.180005 c 4.465,1.984 9.777,5.074 12.086,7.785 0.824,-1.922 2.707,-4.68 3.387,-5.641 -2.266,-0.929 -10.083,-3.878 -15.473,-2.144"
     id="path3095"
     inkscape:connector-curvature="0"
     style="fill:#e8423f" /><path
     d="m -119.91701,-37.156005 c 3.254,0.641 8.633,2.129 11.438,4.184 -0.055,-0.75 -0.102,-1.504 -0.102,-2.23 0,-1.754 0.16,-3.457 0.473,-5.113 -1.594,-0.017 -9.434,0.112 -11.809,3.159"
     id="path3097"
     inkscape:connector-curvature="0"
     style="fill:#e8423f" /><path
     d="m -111.54201,-65.891005 c 0.664,0.855 10.008,13.063 10.352,13.512 1.656004,-1.313 5.383004,-3.441 6.578004,-4.113 -8.211004,-8.055 -13.938004,-9.43 -16.930004,-9.399"
     id="path3099"
     inkscape:connector-curvature="0"
     style="fill:#e8423f" /><path
     d="m -119.31901,-19.555005 c 1.305,-0.375 2.672,-0.832 4.258,-1.426 2.816,-1.063 5.727,-2.168 8.887,-2.109 -0.785,-1.875 -1.406,-3.891 -1.816,-6.016 -1.802,0.719 -10.978,4.688 -11.329,9.551"
     id="path3101"
     inkscape:connector-curvature="0"
     style="fill:#e8423f" /><path
     d="m -91.327006,-59.402005 c 0,0.961 -0.117,1.664 -0.285,2.246 1.438,-0.168 6,-0.637 8.672,-0.336 -4.027,-11.414 -8.539,-15.758 -11.242,-17.406 1.144,4.269 2.855,11.296 2.855,15.496"
     id="path3103"
     inkscape:connector-curvature="0"
     style="fill:#e8423f" /><path
     d="m 49.481994,208.49999 c 5.406,1 12.172,4.281 12.953,4.672 0,0 0.688,0.359 1.109,0.563 -0.016,-0.172 -0.031,-0.328 -0.031,-0.484 0,-3.07 0.938,-5.508 2.719,-7.344 -4.141,-0.751 -11.375,-1.266 -16.75,2.593"
     id="path3105"
     inkscape:connector-curvature="0"
     style="fill:#e8423f" /><path
     d="m 66.028994,226.85899 0,0 c -0.094,0.047 -7.578,5.563 -7.906,13.345 5.906,-4.938 11.484,-6.796 12.891,-7.188 -0.859,-0.93 -1.688,-2.031 -2.406,-3.289 0,0.016 0,0 -1.164,-2.234 0,0 -0.445,-0.867 -0.641,-1.211 -0.134,0.116 -0.368,0.28 -0.774,0.577"
     id="path3107"
     inkscape:connector-curvature="0"
     style="fill:#e8423f" /><path
     d="m 62.059994,216.18699 0,0 c -0.078,0.016 -8.625,2.094 -11.547,9.781 7.625,-2.797 14.484,-2.047 14.766,-2.016 0,0 0.359,0.047 0.656,0.102 -1.25,-2.836 -2.031,-5.594 -2.328,-8.234 -0.25,0.055 -0.688,0.18 -1.547,0.367"
     id="path3109"
     inkscape:connector-curvature="0"
     style="fill:#e8423f" /><path
     d="m 84.262994,241.20299 c 0,0.047 0.016,0.094 0.016,0.094 1.031,7 4.25,10.844 6.266,12.234 -0.016,-0.563 -0.031,-1.578 -0.031,-1.578 0,-2.922 0.406,-7.156 3.141,-10.898 -2.642,0.914 -5.923,1 -9.392,0.148"
     id="path3111"
     inkscape:connector-curvature="0"
     style="fill:#e8423f" /><path
     d="m 73.137994,235.29699 c -0.031,0.063 -3.266,5.235 -3.266,10.532 0,1.578 0.313,2.983 0.906,4.267 2.656,-3.781 6.5,-9.031 10.344,-9.953 -2.922,-1.057 -5.656,-2.713 -7.984,-4.846"
     id="path3113"
     inkscape:connector-curvature="0"
     style="fill:#e8423f" /><path
     d="m -61.159006,-174.72301 c 0.008,0 0.008,-0.008 0.023,-0.016 -1.055,-9.184 -4.141,-13.391 -6.406,-15.242 0.313,1.816 0.602,4.195 0.602,6.867 0,2.477 -0.258,5.168 -0.961,7.832 l -0.215,0.789 c 2.535,-0.687 4.918,-0.765 6.957,-0.23"
     id="path3115"
     inkscape:connector-curvature="0"
     style="fill:#e8423f" /><path
     d="m -70.839006,-174.98101 c -3.598,-7.176 -7.406,-10.141 -10.094,-11.398 1.949,3.145 4.336,8.039 4.496,13.602 l 0.047,1.504 c 2.055,-1.129 4.137,-1.977 6.152,-2.539 l -0.601,-1.169 z"
     id="path3117"
     inkscape:connector-curvature="0"
     style="fill:#e8423f" /><path
     d="m -85.167006,-166.37101 c -6.191,-1.352 -10,-0.969 -12.238,-0.273 2.766,0.832 6.543,2.273 9.75,4.73 l 0.52,0.383 c 0.922,-1.465 2.09,-2.918 3.465,-4.305 l -1.497,-0.535 z"
     id="path3119"
     inkscape:connector-curvature="0"
     style="fill:#e8423f" /><path
     d="m -88.526006,-159.09801 c -5.566,0.246 -8.129,2.055 -9.32,3.52 1.617,0.031 4.938,0.285 8.297,0.766 0.098,-1.375 0.488,-2.824 1.129,-4.293 l -0.106,0.007 z"
     id="path3121"
     inkscape:connector-curvature="0"
     style="fill:#e8423f" /><path
     d="m -77.870006,-170.41001 -1.238,-1.176 c -3.801,-3.68 -7.609,-5.051 -10.441,-5.504 4.719,3.598 6.848,9.336 7.121,10.07 0.488,-0.504 2.535,-2.102 3.992,-3.047 0.183,-0.128 0.367,-0.226 0.566,-0.343"
     id="path3123"
     inkscape:connector-curvature="0"
     style="fill:#e8423f" /><path
     d="m -69.686006,197.15599 -2.039,1.578 c -2.672,2.047 -4.801,5.813 -4.801,9.125 0,0.281 0.055,0.563 0.082,0.813 3.316,-2.438 7.652,-4.375 8.637,-4.797 l 2.715,-1.172 c -1.786,-1.617 -3.387,-3.5 -4.594,-5.547"
     id="path3125"
     inkscape:connector-curvature="0"
     style="fill:#e8423f" /><path
     d="m -72.518006,188.67199 -2.672,1.398 c -6.793,3.523 -8.945,7.148 -9.59,9.422 2.711,-1.344 7.246,-3.18 11.965,-3.57 l 2.379,-0.188 c -0.098,-0.203 -0.219,-0.422 -0.313,-0.625 -0.898,-2.078 -1.457,-4.265 -1.769,-6.437"
     id="path3127"
     inkscape:connector-curvature="0"
     style="fill:#e8423f" /><path
     d="m -72.405006,180.48399 -3.121,0.234 c -6.75,0.5 -9.969,3.203 -11.434,5.172 2.555,0.016 6.625,0.242 11.363,1.211 l 2.957,0.602 c -0.261,-2.484 -0.167,-4.945 0.235,-7.219"
     id="path3129"
     inkscape:connector-curvature="0"
     style="fill:#e8423f" /><path
     d="m -65.718006,205.93699 c -1.082,2.531 -1.625,4.766 -1.625,6.703 0,1.43 0.313,2.688 0.898,3.836 4.352,-5.836 7.191,-7.984 9.504,-8.656 -2.602,-1.047 -5.266,-2.602 -7.609,-4.617 l -1.168,2.734 z"
     id="path3131"
     inkscape:connector-curvature="0"
     style="fill:#e8423f" /><path
     d="m -84.694006,174.05499 c 2.23,0.703 5.586,1.836 9.68,3.648 l 2.914,1.297 c 0.59,-2.453 1.527,-4.57 2.766,-6.164 -8.208,-1.735 -12.942,-0.227 -15.36,1.219"
     id="path3133"
     inkscape:connector-curvature="0"
     style="fill:#e8423f" /><path
     d="m 120.62199,-136.23401 c 0,0 -1.594,0.168 -1.508,1.184 0.094,1.023 1.281,1.191 1.281,1.191 0,0 6.422,1.824 8.063,-5.543 -1.101,3.527 -7.836,3.168 -7.836,3.168"
     id="path3135"
     inkscape:connector-curvature="0"
     style="fill:#e8423f" /><path
     d="m 121.38799,-141.60901 c -0.547,-0.129 -2.25,0.816 -2.188,1.832 0.016,0.574 0.625,0.598 1.188,0.688 2.594,0.391 8.422,-4.387 5.844,-5.266 -1.094,-0.368 -1.282,2.96 -4.844,2.746"
     id="path3137"
     inkscape:connector-curvature="0"
     style="fill:#e8423f" /><path
     d="m 91.512994,-165.19501 c -0.641,-0.672 -21.016,7.008 -21.438,10.785 -0.047,0.313 0.391,1.289 1.438,1.047 0.766,-0.168 10.875,-1.246 18.609,-0.816 3,0.176 5.641,0.848 7.25,1.496 2.094,0.84 5.015996,0.512 5.108996,-0.43 0.109,-0.945 -7.374996,-3.152 -10.671996,-3.449 -5.969,-0.527 -17.828,1.039 -17.828,1.039 0,0 18.469,-8.68 17.532,-9.672"
     id="path3139"
     inkscape:connector-curvature="0"
     style="fill:#e8423f" /><path
     d="m 32.008994,-138.48401 c 0,1.363 0.281,3.09 1.199,5.02 2.023,-3.172 3.07,-5.664 3.516,-7.012 -1.641,-0.109 -3.266,0.043 -4.504,-0.047 -0.098,0.511 -0.211,1.206 -0.211,2.039"
     id="path3141"
     inkscape:connector-curvature="0"
     style="fill:#ffffff" /><path
     d="m 40.949994,-139.09001 c 0,1.727 0.25,3.961 1.172,5.961 2.109,-2.586 3.094,-5.633 3.516,-7.348 -1.563,0 -3.188,0 -4.609,-0.117 -0.032,0.43 -0.079,0.926 -0.079,1.504"
     id="path3143"
     inkscape:connector-curvature="0"
     style="fill:#ffffff" /><path
     d="m -62.534006,-123.87501 c 4.375,-16.262 -5.75,-32.023 -5.297,-44.672 -3.574,9.504 1.313,19.855 2.938,30.098 1.766,11.176 0.961,20.336 -5.914,20.086 -1.246,0 -1.191,1.426 -0.461,1.426 6.031,-0.137 7.527,-3.075 8.734,-6.938"
     id="path3145"
     inkscape:connector-curvature="0"
     style="fill:#ffffff" /><path
     d="m 89.606994,-151.69201 c 0.773,0.563 1.266,1.465 1.266,2.488 0,1.695 -1.375,3.074 -3.063,3.074 -1.703,0 -3.063,-1.379 -3.063,-3.074 0,-1.113 0.578,-2.078 1.484,-2.617 -2.797,0.602 -5.266,2.578 -5.266,3.641 0,1.258 3.43,3.879 6.734,4 3.172,0.113 6.281,-2.832 6.281,-3.832 0.002,-0.789 -1.967,-2.871 -4.373,-3.68"
     id="path3147"
     inkscape:connector-curvature="0"
     style="fill:#ffffff" /><path
     d="m 34.403994,-121.70701 c -0.656,1.223 -1.422,3.137 -1.422,5.258 0,2.344 0.867,4.359 2.539,5.828 l 0.367,0.313 h 6.945 l -1.453,-1.992 c -0.906,-1.254 -1.531,-2.828 -2.203,-4.598 -0.781,-2.105 -1.539,-3.938 -2.797,-5.137 l -1.203,-1.146 -0.773,1.474 z"
     id="path3149"
     inkscape:connector-curvature="0"
     style="fill:#110a0e" /><path
     d="m 43.340994,-122.07401 c -0.656,1.359 -1.422,3.625 -1.422,6.68 0,1.168 0.125,2.449 0.406,3.801 l 0.234,1.055 3.523,-0.168 3.195,-0.094 2.266,-0.066 -1.266,-1.887 c -0.719,-1.098 -1.344,-2.563 -2,-4.121 -0.836,-2 -1.703,-3.918 -2.813,-5.406 l -1.234,-1.676 -0.889,1.882 z"
     id="path3151"
     inkscape:connector-curvature="0"
     style="fill:#110a0e" /><path
     d="m 38.012994,-116.45701 c -0.719,-1.875 -1.422,-3.633 -2.508,-4.656 -0.688,1.313 -1.258,2.949 -1.258,4.664 0,0.254 0.016,0.504 0.031,0.75 1.031,0.016 2.438,0.047 4.047,0.078 -0.093,-0.278 -0.203,-0.559 -0.312,-0.836"
     id="path3153"
     inkscape:connector-curvature="0"
     style="fill:#ffffff" /><path
     d="m 47.121994,-116.37901 c -0.781,-1.855 -1.609,-3.742 -2.656,-5.152 -0.5,1.047 -1.266,3.113 -1.297,5.984 1.438,0.023 2.906,0.047 4.344,0.07 -0.125,-0.293 -0.25,-0.597 -0.391,-0.902"
     id="path3155"
     inkscape:connector-curvature="0"
     style="fill:#ffffff" /><polyline
     transform="translate(-1.8660062,-1.7760054)"
     points="51.113,-110.283 51.098,-110.283 51.113,-110.283  "
     id="polyline3157"
     style="fill:#ffffff" /></g>
</svg>
