<?xml version="1.0" encoding="UTF-8" standalone="no"?>
<svg
   xmlns:dc="http://purl.org/dc/elements/1.1/"
   xmlns:cc="http://creativecommons.org/ns#"
   xmlns:rdf="http://www.w3.org/1999/02/22-rdf-syntax-ns#"
   xmlns:svg="http://www.w3.org/2000/svg"
   xmlns="http://www.w3.org/2000/svg"
   xmlns:sodipodi="http://sodipodi.sourceforge.net/DTD/sodipodi-0.dtd"
   xmlns:inkscape="http://www.inkscape.org/namespaces/inkscape"
   sodipodi:docname="Flag_of_Canton_of_Bern.svg"
   inkscape:version="1.0beta2 (2b71d25, 2019-12-03)"
   xml:space="preserve"
   enable-background="new -205.249 -205.621 472.177 473.748"
   viewBox="-205.249 -205.621 468.625 470.20399"
   height="470.20398"
   width="468.625"
   y="0px"
   x="0px"
   id="Ebene_1"
   version="1.1"><metadata
   id="metadata89"><rdf:RDF><cc:Work
       rdf:about=""><dc:format>image/svg+xml</dc:format><dc:type
         rdf:resource="http://purl.org/dc/dcmitype/StillImage" /></cc:Work></rdf:RDF></metadata><defs
   id="defs87">
	
	
	
	
	
	
	
	
	
	
	
	
	
	
	
	
	
	
	
	
	
	
	
	
	
	
	
	
	
	
	
	
	
	
	
	
	
	
</defs><sodipodi:namedview
   inkscape:document-rotation="0"
   inkscape:current-layer="Ebene_1"
   inkscape:window-maximized="1"
   inkscape:window-y="25"
   inkscape:window-x="0"
   inkscape:cy="280.97795"
   inkscape:cx="287.57924"
   inkscape:zoom="0.70449777"
   fit-margin-bottom="0"
   fit-margin-right="0"
   fit-margin-left="0"
   fit-margin-top="0"
   showgrid="false"
   id="namedview85"
   inkscape:window-height="847"
   inkscape:window-width="1440"
   inkscape:pageshadow="2"
   inkscape:pageopacity="0"
   guidetolerance="10"
   gridtolerance="10"
   objecttolerance="10"
   borderopacity="1"
   bordercolor="#666666"
   pagecolor="#ffffff" />
<rect
   x="-205.24901"
   y="-205.621"
   width="468.625"
   height="470.18799"
   id="rect5"
   style="fill:#ffd730" /><polygon
   transform="translate(-1.7760008,-1.7680032)"
   points="265.152,-13.212 -14.551,-203.845 265.152,-203.845 "
   id="polygon11"
   style="fill:#e8423f" /><polygon
   transform="translate(-1.7760008,-1.7680032)"
   points="-203.473,43.241 123.246,266.351 -203.473,266.351 "
   id="polygon17"
   style="fill:#e8423f" /><path
   d="m 219.173,12.499997 c -3.656,-7.7660002 -31.953,-39.465 -67.984,-61.742 -15.867,-9.809 -64.953001,-39.73 -105.781001,-49.25 -4.422,-1.031 -8.219,-3.183997 -12.734,-2.304997 -1.871,0.359 -4.559,-2.512 -1.266,-4.277 1.797,-0.984 3.625,-1.793 12.734,-1.227 -7.539,-5.918 -10.141,-5.184 -22.484,-5.445 2.816,-5.09 17.219,-4.496 17.219,-4.496 0,0 -6.477,-4.48 -26.234,-3.852 4.109,-3.215 11.887,-4.469 11.887,-4.469 0,0 -10.559,-5.016 -23.1679998,0.289 -1.01600003,0.422 -2.19900003,1.375 -4.641,1.422 -2.406,0.055 -8.3440002,-1.078 -9.2970002,-1.352 -0.949,-0.258 -4.719,-1.121 -4.156,-4.656 0.527,-3.527 3.527,-3.496 4.262,-3.543 0.77,-0.074 9.6410002,1.008 12.12900017,-3.32 1.70300003,-2.922 5.11300003,-14.527 -2.80099997,-18.234 -11.3440002,-5.301 -17.2460002,-1.566 -19.0000002,-1.238 -1.727,0.344 -4.023,-1.578 -4.023,-1.578 0,0 -8.504,-9.672 -11.281,-12.008 -2.766,-2.32 -10.902,-6.664 -17.152,-8.031 -1.367,-0.305 -3.824,-1.094 -4.191,-1.453 -1.375,-1.273 -6.07,-2.188 -7.773,-2.113 -2.082,0.094 -6.609,-0.832 -9.227,2.895 -1.648,2.367 -2.871,2.367 -6.023,2.77 -3.152,0.383 -11.359,-0.457 -11.359,-0.457 0,0 -10.647999,-0.496 -13.976999,-3.055 -1.551,-1.176 -6.32,-5.992 -7.594,-7.723 -1.27,-1.711 -3.391,-0.789 -3.254,-0.152 0.688,3.09 -0.145,8.664 -3.48,12.164 -3.793,3.973 -8.063,7.688 -8.816,8.574 -0.773,0.863 -2.102,5.223 0.367,6.977 2.473,1.766 4.402,3.07 4.402,3.07 0,0 -2.066,10.801 -1.832,14.082 -2.367,-1.152 -6.434,-3.656 -8.863,-5.832 -15.922,-14.297 -16.699,-29.57 -20.066,-30.281 -3.359,-0.719 -8.758,16.961 0.137,29.641 10.281,14.656 30.945,18.848 30.945,18.848 0,0 -3.594,4.305 -3.434,10.414 -3.68,1.715 -4.223,2.93 -4.223,2.93 0,0 -0.402,2.434 1.824,4.434 64.183999,1.152 108.007999,66.062997 94.444999,137.909997 -1.965,10.441 -10.367,27.543 -13.727,35.051 -3.359,7.492 -4.77,19.836 -4.77,19.836 0,0 -1.16,3.82 -2.992,3.477 -1.832,-0.359 -1.895,-1.891 -1.781,-2.844 0.375,-1.43 -0.648,-7.172 0,-10.656 0.656,-3.516 -1.234,-6.125 -1.234,-6.125 0,0 5.387,-11.109 -6.973,-21.453 1.758,12.914 -2.441,15.609 -2.441,15.609 0,0 -4.602,-17.297 -21.199,-17.438 6.895,6.609 7.648,15.734 7.879,16.398 -1.895,-4.211 -17.921999,-16.148 -28.159999,-1.258 16.229999,1.688 18.694999,8.141 18.694999,8.141 0,0 -19.101999,-8.203 -28.183999,10.656 9.359,-2.094 18.992,0.219 18.992,0.219 0,0 -11.641,2.203 -12.199,12.602 6.457,-2.914 16.237999,-0.344 16.237999,-0.344 0,0 -0.313,0 -0.246,0.992 1.543,0.57 8.254,11.906003 14.086,15.047003 5.84,3.156 40.504,4.57 55.25,-1.703 3.758,-1.594 3.949,-0.891 5.504,-5.500003 5.102,-15.188 21.6050002,-48.914 35.121,-74.156 9.045,-16.9440002 17.435,-30.0580002 17.525,-31.1550002 0.16,-2.125 -7.922,-12.9489998 -9.051,-14.3909998 -1.125,-1.422 1.113,-2.078 1.113,-2.078 0,0 9.344,5.191 12.379,10.039 3.031,4.8549998 1.734,6.1679998 0.969,8.6559998 -0.789,2.504 -7.348,20.3670002 -7.348,20.3670002 0,0 70.504,2.953 86.988001,10.664 -18.000001,1.07 -25.609001,2.359 -33.234001,3.703 -13.109,2.297 -25.813,16.957 -24.719,21.535 4.563,19.047 4.234,63.047003 4.523,66.641003 0.313,3.586 4.859,5.57 6.625,5.766 1.773,0.164 11.148,0.625 11.922,2.164 0.82,1.602 -0.523,2.102 -0.523,2.102 0,0 -2.148,1.5 -5.891,1 -3.719,-0.5 -22.219,-6.594 -25.594,-10.773 -3.391,-4.211 -5.063,-6.344 -5.063,-6.344 0,0 2.828,-18.133003 -14.188,-16.836003 5.75,9.047003 1,12.750003 1,12.750003 0,0 -6.262,-13.703003 -27.5739998,-8.078003 C 15.127999,105.325 15.373999,109.536 15.373999,109.536 c 0,0 -11.5039998,-5.906 -23.9019998,5 15.766,0.836 17.641,7.219 17.641,7.219 0,0 -18.641,-3.75 -23.0350002,15.672 13.02000017,-7.508 20.7070002,-2.797 20.7070002,-2.797 0,0 -19.8750002,5.453 -15.184,23.516 7.96499997,-7.5 17.75,-9.063 17.75,-9.063 l 0.25,0.828 c 0,0 4.5739998,2.234 8.7969998,2.469 4.234,0.234 5.266,-0.414 4.801,-2.828 -0.457,-2.406 0.543,-5.094 0.609,-6 0.078,-0.906 1.605,-1.094 1.605,-1.094 0,0 0.953,-0.234 1.219,1.195 0.559,3.195 -1.816,5.664 1.016,9.391 2.84,3.727 7.492,3.102 8.914,3.727 1.414,0.594 9.445,2.516 9.445,2.516 0,0 20.734,3.008 28.047,0.172 5.133,-1.984 20.414,-11.266 24.742,-17.969 2.109001,-3.242 3.125001,-7.484 3.781001,-12.156 2.484,-17.922 8.344,-37.352003 21.391,-47.031003 1,-0.766 3.078,-1.273 4.188,-1.891 1.227,-0.719 2.313,-0.953 2.836,-2.164 0.461,-2.836 -4.148,-32.039 -4.414,-42.258 -0.484,-18.48 -13,-36.13700017 -13,-36.13700017 0,0 0.086,-1.20700003 1.531,-1.46500003 1.438,-0.262 3.75,1.21100003 3.75,1.21100003 0,0 7.477,3.59799997 12.375,37.72700017 4.891,34.148 2.641,62.729003 8.711,75.836003 1.82,3.922 10.406,19.609 17.211,34.844 5.625,12.578 9.547,24.875 11.82,30.063 5,11.5 -0.492,25.898 -2.703,27.305 -2.219,1.43 -2.313,0.055 -3.086,-0.453 -0.734,-0.539 0.508,-5.906 0.508,-5.906 0,0 2.234,-2.508 -0.508,-7.328 -2.734,-4.789 -15.891,-8.719 -15.891,-8.719 0,0 -1.922,-1.539 -3.188,-2.336 1.906,-13.617 -18.75,-16.906 -18.75,-16.906 0,0 6.047,9.625 4.781,18.617 -15.484,-12.742 -28.891,-1.227 -28.891,-1.227 0,0 11.969,2.719 17.039,12.781 -20.953001,-6.5 -23.891001,9.516 -23.891001,9.516 0,0 8.742001,-3.656 17.625001,4.047 -19.984001,0.703 -17.539001,17.078 -17.539001,17.078 0,0 5.5,-6.875 20.734001,-0.883 -0.344,0.445 -13.109,9.43 -6,25.211 1.953,-3.914 6.852,-10.203 12.484,-12.359 0.516,0.768 0.641,0.721 0.797,0.875 0,0 12.516,-4.904 18.82,-4.813 6.281,0.094 11.461,-0.094 19.586,-0.602 8.172,-0.523 13.023,-4.273 16.891,-6.352 3.906,-2.094 20.453,-18.063 24.391,-21.328 3.938,-3.258 5.164,-9.063 5.164,-9.063 0,0 3.414,-11.328 5.625,-30.266 2.18,-18.945 5.242,-49.859 5.508,-66.484003 0.328,-22.719 -12.625,-75.852 -12.625,-75.852 0,0 0,-1.715 1.234,-2.082 1.203,-0.359 1.156,0.059 2.688,2.816 1.516,2.754 3.219,16.414 5.75,18.625 1,0.867 2.281,2.984 6.508,1.836 4.234,-1.172 4.398,-6.906 5.281,-11.395 0.824,-4.441 -4.473,-12.137 -8.145,-19.922 M -115.046,-150.234 c 0.469,0.199 1,0.512 1,0.512 0,0 -1.48,9.641 -0.266,14.055 -5.734,-2.52 -10.383,-4.465 -10.383,-4.465 0,0 5.896,-8.575 9.649,-10.102 m -1.074,32.816 c -0.23,0 -0.902,-0.145 -1.84,-0.266 -4.129,-3.84 -4.262,-10.199 -4.262,-10.199 0,0 9.422,2.801 11,3.609 -0.847,2.032 -4.327,4.528 -4.898,6.856 m 11.594,2.422 c -1.152,-0.441 -3.754,-3.063 -3.777,-4.688 -0.039,-2.238 -0.496,-3.672 -0.496,-3.672 0,0 13.761999,4.512 17.495999,11.801 -5.575,-1.671 -12.062999,-3.007 -13.222999,-3.441 m -8.352,-19.984 c 0,0 4.84,-7.246 8.848,-8.992 12.780999,7.586 18.573999,20.008 20.479999,28.699 -6.914,-9.739 -29.327999,-19.707 -29.327999,-19.707"
   id="path21"
   inkscape:connector-curvature="0"
   style="fill:#010202" /><path
   d="m -117.069,-15.476003 c 17.069999,-4.207 35.237999,-22.094 47.894999,-33.695 7.207,-6.566 12.359,-9.922 13.785,-10.961 1.957,1.746 10.262,16.617 13.965,30.848 2.859,11 2.113,22.2109998 1.809,25.4569998 -0.895,9.793 -7.527,11.473 -7.527,11.473 0,0 -40.336,11.3590002 -47.168,10.9020002 -3.168,-0.207 -27.726999,4.586 -34.769999,3.625 -18.477,-2.504 -22.59,-11.48 -22.59,-11.48 l -8.625,-16.3280002 c 0,0 -1.023,-3.758 2.336,-2.504 3.359,1.281 3.793,1.395 6.816,2.336 3.008,0.953 0.727,-2.152 0.727,-2.152 0,0 -2.957,-1.801 -5.582,-3.0469998 -8.359,-4.07 -8.77,-16.512 -8.77,-16.512 0,0 -0.008,-10.25 0.715,-17.742 0.727,-7.5 -16.848,-7.707 -16.848,-7.707 0,0 7.27,-13.465 27.605,-4.672 0.48,-7.359 -17.398,-13.621 -17.398,-13.621 0,0 11.598,-11.203 31.375,5.91 1.559,-11.824 -8.414,-21.688 -8.414,-21.688 0,0 16.469,-2.266 22.223,20.617 7.199,-5.266 3.59,-20.617 3.59,-20.617 0,0 15.473,9.359 9.867,25.105 8.293,-1.105 11.84,-11.656 11.84,-11.656 0,0 5.894999,11.367 -4.84,21.871 -4.043,3.934 -4.848,2.695 -4.848,2.695 0,0 -17.305,20.59 -7.891,48.03899983 1.207,3.55099997 3.578,1.023 3.945,-0.53500003 0.36,-1.528 -0.273,-7.329 -3.222,-13.9609998"
   id="path23"
   inkscape:connector-curvature="0"
   style="fill:#010202" /><path
   d="m -36.303001,-171.309 c 0,0 11.641,11.695 12.746,13.176 0.918,1.234 8.367,-2.527 12.102,-1.461 2.2970002,0.656 -0.969,-6.785 -2.328,-8.938 -1.375,-2.168 -6,-7.633 -11.863,-6.871 -5.009,0.657 -10.657,4.094 -10.657,4.094"
   id="path25"
   inkscape:connector-curvature="0"
   style="fill:#040304" /><path
   d="m -90.487001,-115.082 c -5.879,-7.953 -19.151999,-11.746 -34.456999,-16.418 -11.039,-3.383 -22.926,-8.879 -28.621,-18.031 -2.977,-4.785 -4.281,-9.945 -4.281,-14.504 0,-3.449 0.598,-6.449 1.297,-8.375 0.27,0.621 0.535,1.262 0.789,1.887 2.488,6.016 6.504,16.297 17.441,25.793 5.207,4.527 14.688,7.871 23.895,11.91 9.883,3.969 20.417999,9.703 26.690999,16.816 0,0 3.973,4.922 4.285,6.52 -0.941,-0.223 -2.406,-0.641 -4.199,-1.039 -0.574,-1.719 -2.84,-4.559 -2.84,-4.559"
   id="path27"
   inkscape:connector-curvature="0"
   style="fill:#e8423f" /><path
   d="m -126.487,-118.363 c 1.617,0.047 3.664,-0.055 5.273,0.191 -2.211,-1.734 -2.93,-8.238 -2.93,-8.238 0,0 -2.413,3.559 -2.343,8.047"
   id="path29"
   inkscape:connector-curvature="0"
   style="fill:#ffffff" /><path
   d="m -113.96,-116.98 c 1.563,0.152 2.711,0.551 5.32,1.145 -2.273,-1.719 -1.168,-4.672 -2.031,-6.031 -1.753,2.686 -2.761,2.929 -3.289,4.886"
   id="path31"
   inkscape:connector-curvature="0"
   style="fill:#ffffff" /><path
   d="m -112.549,-139.035 c 2.605,-3.922 6.07,-6.223 6.254,-6.273 -1.129,-0.598 -5.766,-3.27 -5.766,-3.27 0,0 -0.738,9.16 -0.488,9.543"
   id="path33"
   inkscape:connector-curvature="0"
   style="fill:#ffffff" /><path
   d="m -125.143,-143.156 c 0,0 5.512,-7.145 7.824,-8.145 -3.496,-1.23 -4.961,-2.16 -6.105,-2.895 -1.239,5.641 -1.719,11.04 -1.719,11.04"
   id="path35"
   inkscape:connector-curvature="0"
   style="fill:#ffffff" /><path
   d="m 105.47,38.159997 c 0,0 14.148,-1.508 21.672,5.656 -0.047,-1.359 -0.656,-9.063 -0.656,-9.063 0,0 -13.5,-5.565 -21.016,3.407"
   id="path37"
   inkscape:connector-curvature="0"
   style="fill:#e8423f" /><path
   d="m -65.526001,-172.723 c 0,0 3.832,0.488 5.023,4.375 1.152,3.777 1.535,9.328 -1.641,20.527 -0.297,1.031 -2.273,0.738 -2.273,-0.559 0,-1.289 1.504,-6.863 1.977,-10.137 0.473,-3.258 0.211,-7.313 -0.816,-8.336 -0.855,-0.848 -2.453,-1.578 -2.789,-1.664 -0.352,-0.086 -2.234,-0.559 -1.77,-2.422 0.473,-1.834 2.289,-1.784 2.289,-1.784"
   id="path39"
   inkscape:connector-curvature="0"
   style="fill:#ffffff" /><path
   d="m -65.061001,-161.601 c 1.934,-0.492 1.16,-2.547 -1.16,-3.531 -2.328,-0.984 -7.77,0.219 -9.656,5.375 -1.73,4.699 5.598,8.979 7.168,8.979 2.664,0 3.48,-3.613 1.934,-4.438 -1.551,-0.809 -4.039,-1.191 -3.742,-3.297 0.303,-2.108 3.518,-2.62 5.456,-3.088"
   id="path41"
   inkscape:connector-curvature="0"
   style="fill:#ffffff" /><path
   d="m -110.944,-58.891003 c 0,0 4.457,0.336 9.113,-6.031 -0.617,5.855 -5.535,10.621 -5.535,10.621 l -3.578,-4.59 z"
   id="path43"
   inkscape:connector-curvature="0"
   style="fill:#e8423f" /><path
   d="m -173.678,-55.371003 c 6.648,-4.914 19.344,0.777 19.344,0.777 l -6.809,5.391 c -0.008,-0.008 -2.442,-5.809 -12.535,-6.168"
   id="path45"
   inkscape:connector-curvature="0"
   style="fill:#e8423f" /><path
   d="m -162.608,-71.250003 c 9.418,-2.539 22.008,9.238 22.008,9.238 0,0 -7.039,3.223 -9.125,4.152 0.183,-0.753 -0.625,-9.07 -12.883,-13.39"
   id="path47"
   inkscape:connector-curvature="0"
   style="fill:#e8423f" /><path
   d="m -140.823,-82.965003 c 9.008,3.449 11.945,18.527 11.945,18.527 l -7.387,1.152 c 10e-4,10e-4 2.473,-9.413 -4.558,-19.679"
   id="path49"
   inkscape:connector-curvature="0"
   style="fill:#e8423f" /><path
   d="m -122.686,-64.211003 c 3.566,-3.391 6.047,-8.824 4.84,-15.418 2.32,2.281 4.977,11.441 2.063,17.898 -1.056,-0.609 -2.321,-2.081 -6.903,-2.48"
   id="path51"
   inkscape:connector-curvature="0"
   style="fill:#e8423f" /><path
   d="m -63.678001,63.440997 c -1.234,-0.852 -3.199,-1.313 -4.563,-1.375 3.945,-3.609 3.328,-9.297 3.328,-9.297 0,0 3.387,6.063 1.235,10.672"
   id="path53"
   inkscape:connector-curvature="0"
   style="fill:#e8423f" /><path
   d="m -73.448001,61.972997 c -3.613,0.172 -6.176,0.891 -6.887,1.266 -0.113,-10.734 -3.602,-15.797 -3.602,-15.797 0,0 8.282,5.359 10.489,14.531"
   id="path55"
   inkscape:connector-curvature="0"
   style="fill:#e8423f" /><path
   d="m -83.717001,64.394997 c -1.898,1.289 -1.547,0.75 -4.531,2.875 -3.199,-5.875 -6.68,-10.875 -18.679999,-11.664 9.417999,-6.368 20.776999,2.195 23.210999,8.789"
   id="path57"
   inkscape:connector-curvature="0"
   style="fill:#e8423f" /><path
   d="m -114.678,72.175997 c 3.598,-6.391 17.253999,-6.18 23.784999,-2.148 -2.137,2.414 -2.648,3.492 -3.523,6.18 -5.918999,-4.196 -16.964999,-4.227 -20.261999,-4.032"
   id="path59"
   inkscape:connector-curvature="0"
   style="fill:#e8423f" /><path
   d="m -109.893,84.628997 c 4.773,-6.031 13.964999,-5.664 14.093999,-5.391 -0.328,0.406 -2.094,5.484 -2.121,6.156 -0.454,-0.328 -5.414999,-1.874 -11.972999,-0.765"
   id="path61"
   inkscape:connector-curvature="0"
   style="fill:#e8423f" /><path
   d="m 38.594999,110.395 c -2.031,-0.547 -4.797,-1.188 -6.707,-1.609 0.816,-0.719 3.27,-6.688 0.816,-11.297003 1.829,0.593 6.172,2.406 5.891,12.906003"
   id="path63"
   inkscape:connector-curvature="0"
   style="fill:#e8423f" /><path
   d="m 19.313999,110.277 c 2.656,-1.555 4.375,-1.664 6.391,-1.492 -2.129,-5.969 -13.375,-8.742 -15.344,-8.156 1.215,0.609 8.824,4.859 8.953,9.648"
   id="path65"
   inkscape:connector-curvature="0"
   style="fill:#e8423f" /><path
   d="m -0.42400083,112.738 c 7.75400003,-3.477 14.78499983,-0.313 15.32799983,0.094 -0.887,0.797 -3.215,3.188 -4.246,5.484 -1.5119998,-4.14 -11.08199983,-5.578 -11.08199983,-5.578"
   id="path67"
   inkscape:connector-curvature="0"
   style="fill:#e8423f" /><path
   d="m -8.3580008,131.293 c 0.672,-1.508 8.14499997,-8.539 16.129,-5.836 -1.363,2.25 -1.594,3.547 -1.066,5.516 -7.735,-3.617 -14.801,0.25 -15.063,0.32"
   id="path69"
   inkscape:connector-curvature="0"
   style="fill:#e8423f" /><path
   d="m -6.0140008,152.27 c 2.246,-9.75 9.344,-12.281 12.816,-13.797 -0.16,1.531 0.215,5.922 0.918,7.156 -0.918,-0.242 -9.605,1.859 -13.734,6.641"
   id="path71"
   inkscape:connector-curvature="0"
   style="fill:#e8423f" /><path
   d="m 140.892,180.316 c -2.438,0.578 -6.078,1.945 -7.391,2.75 0.672,-5.922 -0.891,-11.789 -2.508,-14.453 2.79,0.547 10.93,4.43 9.899,11.703"
   id="path73"
   inkscape:connector-curvature="0"
   style="fill:#e8423f" /><path
   d="m 121.986,193.371 c -0.672,-2.602 -7.375,-11.094 -13.625,-12.648 4.953,-2.547 13.422,-1.875 20.953,5.141 -3.172,1.968 -6.594,6.171 -7.328,7.507"
   id="path75"
   inkscape:connector-curvature="0"
   style="fill:#e8423f" /><path
   d="m 99.453999,199.801 c 4.281001,-7.25 16.688001,-3.734 20.172001,-2.164 -1.594,1.664 -3.094,4.625 -3.625,9.297 -2.89,-5.836 -12.515,-8 -16.547001,-7.133"
   id="path77"
   inkscape:connector-curvature="0"
   style="fill:#e8423f" /><path
   d="m 98.063999,218.832 c -0.281,0.703 2.203001,-9.172 17.266001,-7.789 -0.625,3.742 -0.703,5.336 -0.328,9.07 -9.594,-4.609 -16.938001,-1.281 -16.938001,-1.281"
   id="path79"
   inkscape:connector-curvature="0"
   style="fill:#e8423f" /><path
   d="m 110.314,241.473 c 0,0 -1.047,-8 5.75,-13.906 0.531,3.438 1.453,5.477 2.75,6.859 -4.094,1.187 -8.5,7.047 -8.5,7.047"
   id="path81"
   inkscape:connector-curvature="0"
   style="fill:#e8423f" /><path
   d="m -120.753,-56.914003 c -3.375,2.848 -6.773,2.141 -9.84,5.352 -2.223,2.32 -8.301,10.344 -5.824,23.934 1.625,8.863 2.867,24.3709998 3.801,29.4099998 1.258,6.773 -2.934,12.9450002 -5.656,12.9450002"
   id="path83"
   inkscape:connector-curvature="0"
   style="fill:none;stroke:#ffffff;stroke-width:3.32800007;stroke-linecap:round;stroke-linejoin:round" />
</svg>
