<?xml version="1.0" encoding="UTF-8" standalone="no"?>
<!-- Generator: Adobe Illustrator 16.0.2, SVG Export Plug-In . SVG Version: 6.00 Build 0)  -->

<svg
   xmlns:dc="http://purl.org/dc/elements/1.1/"
   xmlns:cc="http://creativecommons.org/ns#"
   xmlns:rdf="http://www.w3.org/1999/02/22-rdf-syntax-ns#"
   xmlns:svg="http://www.w3.org/2000/svg"
   xmlns="http://www.w3.org/2000/svg"
   xmlns:sodipodi="http://sodipodi.sourceforge.net/DTD/sodipodi-0.dtd"
   xmlns:inkscape="http://www.inkscape.org/namespaces/inkscape"
   version="1.1"
   id="Ebene_1"
   x="0px"
   y="0px"
   width="470.84399"
   height="472.418"
   viewBox="-206.276 -206.676 470.844 472.418"
   enable-background="new -206.276 -206.676 474.396 475.97"
   xml:space="preserve"
   inkscape:version="0.48.4 r9939"
   sodipodi:docname="Flag_of_Canton_of_Basel.svg"><metadata
   id="metadata3035"><rdf:RDF><cc:Work
       rdf:about=""><dc:format>image/svg+xml</dc:format><dc:type
         rdf:resource="http://purl.org/dc/dcmitype/StillImage" /></cc:Work></rdf:RDF></metadata><defs
   id="defs3033">
	
	
	
	
	
	
	
</defs><sodipodi:namedview
   pagecolor="#ffffff"
   bordercolor="#666666"
   borderopacity="1"
   objecttolerance="10"
   gridtolerance="10"
   guidetolerance="10"
   inkscape:pageopacity="0"
   inkscape:pageshadow="2"
   inkscape:window-width="1366"
   inkscape:window-height="706"
   id="namedview3031"
   showgrid="false"
   fit-margin-top="0"
   fit-margin-left="0"
   fit-margin-right="0"
   fit-margin-bottom="0"
   inkscape:zoom="0.99165914"
   inkscape:cx="235.422"
   inkscape:cy="236.209"
   inkscape:window-x="-8"
   inkscape:window-y="-8"
   inkscape:window-maximized="1"
   inkscape:current-layer="Ebene_1" />
<rect
   style="fill:#ffffff"
   id="rect3015"
   height="472.418"
   width="470.84399"
   y="-206.67601"
   x="-206.276" /><polygon
   style="fill:#010202"
   id="polygon3021"
   points="43.242,244.549 80.422,204.174 132.602,243.76 101.836,49.002 -15.324,49.002 -46.102,243.76 6.074,204.174 43.242,244.549 43.242,244.581 "
   transform="translate(-1.776,-1.7760087)" /><path
   style="fill:#010202"
   inkscape:connector-curvature="0"
   id="path3023"
   d="m 112.38,35.640991 c 0,-4.125 -3.352,-7.473 -7.469,-7.473 -0.063,0 -0.125,0.02 -0.172,0.02 h -126.77 c -0.047,0 -0.109,-0.02 -0.16,-0.02 -4.145,0 -7.469,3.348 -7.469,7.473 0,4.133 3.324,7.477 7.469,7.477 h 0.035 v 0.031 h 127.098 v -0.031 c 4.102,-0.017 7.438,-3.36 7.438,-7.477" /><path
   style="fill:#010202"
   inkscape:connector-curvature="0"
   id="path3025"
   d="m 105.357,-13.063009 c 0,-4.113 -3.023,-7.457 -6.742,-7.457 -0.031,0 -0.078,0.016 -0.141,0.016 H -15.764 c -0.031,0 -0.09,-0.016 -0.137,-0.016 -3.719,0 -6.727,3.344 -6.727,7.457 0,4.1290003 3.008,7.4880003 6.727,7.4880003 0,0 0.016,-0.016 0.023,-0.016 v 0.047 H 98.63 v -0.047 c 3.719,10e-4 6.727,-3.343 6.727,-7.4720003" /><path
   style="fill:#010202"
   inkscape:connector-curvature="0"
   id="path3027"
   d="m 111.927,-0.94900867 0,0 H -28.878 c -6.781,0 -12.297,5.51199997 -12.297,12.31299967 0,6.781 5.523,12.297 12.32,12.297 0.035,0 0.059,0 0.082,0 h 140.598 c 0.055,0 0.055,0 0.102,0 6.797,-10e-4 12.297,-5.517 12.297,-12.298 0,-6.7929997 -5.508,-12.31199967 -12.297,-12.31199967" /><path
   style="fill:#010202"
   inkscape:connector-curvature="0"
   id="path3029"
   d="m -57.299,-85.621009 c 3,-14.258 22.375,-19.563001 34.52,0.254 4.75,7.754 7.766,50.793 -42.535,49.297 -30.523,-0.918 -52.305,-37.535 -43.539,-76.832001 8.801,-39.457 48.547,-62.656 83.074,-61.785 60.301,1.504 91.082,47.832 99.848,73.809 8,23.777001 12.719,55.680001 12.516,75.875001 H -3.741 c 6.313,-36.664 2.496,-51.609 2.496,-51.609 0,0 -8.777,-37.273001 -35.031,-37.273001 -26.266,0 -31.785,23.266001 -31.785,23.266001 0,0 -2.887,18.215 10.25,21.016 3.52,0.758 10.398,0.223 10.398,-8.52 -0.008,-4.354 -3.574,-8.26 -9.886,-7.498" />
</svg>
