<?xml version="1.0" encoding="UTF-8" standalone="no"?>
<!-- Generator: Adobe Illustrator 16.0.2, SVG Export Plug-In . SVG Version: 6.00 Build 0)  -->

<svg
   xmlns:dc="http://purl.org/dc/elements/1.1/"
   xmlns:cc="http://creativecommons.org/ns#"
   xmlns:rdf="http://www.w3.org/1999/02/22-rdf-syntax-ns#"
   xmlns:svg="http://www.w3.org/2000/svg"
   xmlns="http://www.w3.org/2000/svg"
   xmlns:sodipodi="http://sodipodi.sourceforge.net/DTD/sodipodi-0.dtd"
   xmlns:inkscape="http://www.inkscape.org/namespaces/inkscape"
   version="1.1"
   id="Ebene_1"
   x="0px"
   y="0px"
   width="469.862"
   height="471.439"
   viewBox="-205.784 -206.266 469.862 471.439"
   enable-background="new -205.784 -206.266 473.414 474.991"
   xml:space="preserve"
   inkscape:version="0.48.4 r9939"
   sodipodi:docname="Flag_of_Canton_of_Glarus.svg"><metadata
   id="metadata79"><rdf:RDF><cc:Work
       rdf:about=""><dc:format>image/svg+xml</dc:format><dc:type
         rdf:resource="http://purl.org/dc/dcmitype/StillImage" /></cc:Work></rdf:RDF></metadata><defs
   id="defs77">
	
	
	
	
	
	
	
	
	
	
	
	
	
	
	
	
	
	
	
	
	
	
	
	
	
	
	
	
	
	
	
	
	
	
</defs><sodipodi:namedview
   pagecolor="#ffffff"
   bordercolor="#666666"
   borderopacity="1"
   objecttolerance="10"
   gridtolerance="10"
   guidetolerance="10"
   inkscape:pageopacity="0"
   inkscape:pageshadow="2"
   inkscape:window-width="1366"
   inkscape:window-height="706"
   id="namedview75"
   showgrid="false"
   fit-margin-top="0"
   fit-margin-left="0"
   fit-margin-right="0"
   fit-margin-bottom="0"
   inkscape:zoom="0.99370304"
   inkscape:cx="234.93099"
   inkscape:cy="235.71949"
   inkscape:window-x="-8"
   inkscape:window-y="-8"
   inkscape:window-maximized="1"
   inkscape:current-layer="Ebene_1" />
<rect
   style="fill:#e8423f"
   id="rect5"
   height="471.439"
   width="469.862"
   y="-206.26601"
   x="-205.784" /><path
   style="fill:#ffd730"
   inkscape:connector-curvature="0"
   id="path11"
   d="m 109.62599,-137.97299 c 0,27.488 -24.390996,49.770995 -54.507996,49.770995 -30.109,0 -54.50400047,-22.280995 -54.50400047,-49.770995 0,-27.484 24.39500047,-49.766 54.50400047,-49.766 30.118,0.001 54.507996,22.282 54.507996,49.766" /><path
   style="fill:none;stroke:#010202;stroke-width:3.33599997;stroke-miterlimit:10"
   inkscape:connector-curvature="0"
   id="path13"
   d="m 55.125994,-187.73799 c 30.102,0 54.499996,22.281 54.499996,49.766 0,27.488 -24.397996,49.770995 -54.499996,49.770995 -30.102,0 -54.50400047,-22.281995 -54.50400047,-49.770995 0,-27.485 24.40300047,-49.766 54.50400047,-49.766 z"
   stroke-miterlimit="10" /><polygon
   style="fill:#010202"
   id="polygon15"
   points="-79.688,252.009 -64.344,250.285 -112.328,-168.169 -131.441,-166.052 "
   transform="translate(-1.7760065,-1.7759945)" /><path
   style="fill:#ffd730"
   inkscape:connector-curvature="0"
   id="path17"
   d="m -129.34601,-164.76999 c 0.082,0.633 50.816004,410.56 50.898004,411.167 0.551,-0.068 7.91,-0.891 8.473,-0.938 -0.066,-0.641 -47.113004,-410.96 -47.184004,-411.582 -0.594,0.064 -11.601,1.287 -12.187,1.353" /><path
   style="fill:#040304"
   inkscape:connector-curvature="0"
   id="path19"
   d="m -125.99101,-183.65999 0,0 c -9.859,1.242 -17.152,7.945 -16.258,14.945 0.879,7 9.617,11.688 19.473,10.449 5.793,-0.746 10.992,-3.426 13.902,-7.168 1.883,-2.426 2.695,-5.113 2.352,-7.793 -0.879,-7 -9.621,-11.679 -19.469,-10.433" /><path
   style="fill:#ffd730"
   inkscape:connector-curvature="0"
   id="path21"
   d="m -125.55301,-180.21899 c -7.559,0.961 -13.313,5.488 -13.313,10.32 0,0.254 0.023,0.504 0.051,0.762 0.645,5.102 7.656,8.43 15.598,7.43 4.898,-0.617 9.25,-2.809 11.609,-5.848 1.297,-1.672 1.871,-3.496 1.648,-5.23 -0.64,-5.114 -7.64,-8.442 -15.593,-7.434" /><path
   style="fill:#010202"
   inkscape:connector-curvature="0"
   id="path23"
   d="m -112.53801,-77.257995 0,0 c -9.488,1.215 -16.512,7.719 -15.633,14.48 0.867,6.75 9.297,11.254 18.793,10.031 9.504004,-1.219 16.512004,-7.711 15.641004,-14.473 -0.863,-6.761 -9.305004,-11.272 -18.801004,-10.038" /><path
   style="fill:#ffd730"
   inkscape:connector-curvature="0"
   id="path25"
   d="m -112.09601,-73.827995 c -7.199,0.938 -12.68,5.266 -12.68,9.854 0,0.242 0.016,0.488 0.039,0.738 0.625,4.855 7.32,8.023 14.922,7.039 7.59,-0.977 13.270004,-5.734 12.645004,-10.582 -0.637,-4.858 -7.317004,-8.022 -14.926004,-7.049" /><path
   style="fill:#010202"
   inkscape:connector-curvature="0"
   id="path27"
   d="m -72.346006,-36.921995 c 41.227,-3.563 90.867,-17.945 113.043,-71.601995 21.781,0 27.883,-1.449 27.883,-1.449 0,0 8.047,10.585995 46.343996,30.745995 7.266,3.824 29.359,83.0630005 29.359,83.0630005 0,0 4.102,15.6719995 -7.328,16.9839995 -11.438,1.297 -32.141,0.457 -32.141,0.457 0,0 26.633,209.902005 26.828,211.691005 -1.516,0.453 -10.578,5.233 -20.93,10.64 -10.289,5.375 -21.882996,11.346 -28.726996,13.064 -0.422,0.108 -5.484,1.358 -7.813,-3.267 -2.344,-4.642 0.875,-8.125 0.875,-8.125 l 22.406,-19.759 c 0,0 0.625,-1.109 0.578,-1.898 -0.023,-0.773 -1.016,-1.063 -1.016,-1.063 l -36.633,-0.281 -34.463,-177.607005 -4.047,0.922 33.426,177.195005 -71.555,0.086 18.9459995,-232.2070045 -72.6329995,-0.199 c 0.016,-0.008 -2.176,-25.2460005 -2.402,-27.3910005" /><polygon
   style="fill:#ffffff"
   id="polygon29"
   points="44.277,-86.451 69.895,-86.451 72.582,-106.755 66.176,-92.869 47.215,-92.869 41.871,-105.681 "
   transform="translate(-1.7760065,-1.7759945)" /><rect
   style="fill:#ffd730"
   id="rect31"
   height="32.297001"
   width="48.047001"
   y="-42.577991"
   x="39.563995" /><rect
   style="fill:#ffd730"
   id="rect33"
   height="32.297001"
   width="7.2150002"
   y="-42.577991"
   x="30.223993" /><rect
   style="fill:#ffd730"
   id="rect35"
   height="32.297001"
   width="4.539"
   y="-42.577991"
   x="23.813993" /><path
   style="fill:#010202"
   inkscape:connector-curvature="0"
   id="path37"
   d="m 90.438994,-137.97299 c 0,18.707 -16.305,33.875 -36.375,33.875 -20.094,0 -36.375,-15.168 -36.375,-33.875 0,-18.719 16.281,-33.879 36.375,-33.879 20.07,-0.007 36.375,15.16 36.375,33.879" /><path
   style="fill:#ffffff"
   inkscape:connector-curvature="0"
   id="path39"
   d="m 53.250994,-152.94499 c 8.344,0.145 22.938,-2.922 20.031,14.871 -0.594,3.711 0,8.625 0,8.625 0,0 0.547,5.695 -0.141,9.461 -1.25,11.402 -3.891,13.563 -16.977,14.043 -15.422,0.551 -15.141,-0.977 -17.648,-7.234 -5.703,-17.383 -3.352,-30.727 -3.352,-30.727 0,0 1.4,-9.313 18.087,-9.039" /><path
   style="fill:#010202"
   inkscape:connector-curvature="0"
   id="path41"
   d="m 10.008994,226.34401 c 0,0 -17.0900005,0 -26.777,-0.063 -6.465,9.109 -26.031,6.375 -31.258,6.672 -4.59,0.281 -7.734,3.227 -7.734,8.017 0,4.78 3.969,8.063 8.246,8.063 H 1.6379935 c 5.984,0 7.746,-5.391 7.746,-5.391 l 0.6250005,-17.298 z" /><path
   style="fill:#ffffff"
   inkscape:connector-curvature="0"
   id="path43"
   d="m 62.641994,14.750005 -2.984,-22.8709995 -15.829,0.125 h -14.796 c -0.625,0 -1.137,0.641 -1.137,1.441 0,0.785 0.504,1.441 1.137,1.441 h 11.773 c 0,0 0.273,2.031 -0.57,2.078 0,0 -12.957,0.234 -13.555,0.234 -0.578,0 -4.297,-3.25 -4.297,-3.25 -0.207,-0.215 -0.305,-0.328 -0.402,-0.441 -0.141,-0.23 -0.199,-0.574 -0.199,-0.59 0,-0.656 -0.199,-1.266 -0.953,-1.297 -0.758,-0.047 -1.336,0.422 -1.43,1.078 -0.168,1.488 0.094,1.609 0.176,1.785 0.105,0.168 0.254,0.441 4.719,4.88699999 0.234,0.313 0.793,0.516 1.137,0.516 l 11.836,-0.098 0.102,2.23000001 h -12.025 c -0.625,0 -1.16,0.641 -1.16,1.441 0,0.785 0.527,1.441 1.16,1.441 h 12.156 l 0.094,2.031 h -11.699 c -0.625,0 -1.152,0.641 -1.152,1.438 0,0.801 0.52,1.441 1.152,1.441 h 11.84 l 0.094,2.1289995 h -11.184 c -0.621,0 -1.168,0.656 -1.168,1.457 0,0.781 0.539,1.422 1.168,1.422 h 15.058 c 0.039,0 0.109,-0.031 0.172,-0.047 h 20.766 v -0.021 z" /><path
   style="fill:#010202"
   inkscape:connector-curvature="0"
   id="path45"
   d="m -120.84201,-35.448995 c 0,1.855 1.313,4.805 4.953,4.805 h 13.871 v 21.3280005 l 57.922004,-0.2 -2.648,-28.0700005 -74.098004,-0.066 v 2.203 z" /><path
   style="fill:#ffffff"
   inkscape:connector-curvature="0"
   id="path47"
   d="m -71.616006,-11.722995 -2.234,-23.68 -44.766004,-0.047 c 0,0.918 0.59,2.637 2.727,2.637 h 16.082004 v 21.129 l 28.191,-0.039 z" /><path
   style="fill:#010202"
   inkscape:connector-curvature="0"
   id="path49"
   d="m -114.58501,-32.800995 c -2.031,0 -3.695,1.734 -3.695,3.871 0,2.129 1.664,3.871 3.695,3.871 h 14.023 c 2.047004,0 3.703004,-1.754 3.703004,-3.871 0,-2.145 -1.656,-3.871 -3.703004,-3.871 h -14.023 z" /><path
   style="fill:#ffffff"
   inkscape:connector-curvature="0"
   id="path51"
   d="m -114.58501,-30.593995 c -0.816,0 -1.488,0.75 -1.488,1.672 0,0.902 0.672,1.672 1.488,1.672 h 14.023 c 0.840004,0 1.496004,-0.77 1.496004,-1.672 0,-0.922 -0.656,-1.672 -1.496004,-1.672 h -14.023 z" /><path
   style="fill:#010202"
   inkscape:connector-curvature="0"
   id="path53"
   d="m -113.55301,-26.835995 c -2.023,0 -3.664,1.723 -3.664,3.84 0,2.113 1.641,3.816 3.664,3.816 h 13.551 c 2.012004,0 3.656004,-1.703 3.656004,-3.816 0,-2.125 -1.645,-3.84 -3.656004,-3.84 h -13.551 z" /><path
   style="fill:#ffffff"
   inkscape:connector-curvature="0"
   id="path55"
   d="m -113.55301,-24.608995 c -0.809,0 -1.457,0.719 -1.457,1.621 0,0.891 0.648,1.609 1.457,1.609 h 13.551 c 0.801004,0 1.449004,-0.719 1.449004,-1.609 0,-0.902 -0.648,-1.621 -1.449004,-1.621 h -13.551 z" /><path
   style="fill:#010202"
   inkscape:connector-curvature="0"
   id="path57"
   d="m -113.05701,-20.987995 c -1.984,0 -3.617,1.578 -3.617,3.531 0,1.934 1.633,3.527 3.617,3.527 h 13.703004 c 1.984,0 3.609,-1.594 3.609,-3.527 0,-1.953 -1.625,-3.531 -3.609,-3.531 h -13.703004 z" /><path
   style="fill:#ffffff"
   inkscape:connector-curvature="0"
   id="path59"
   d="m -113.05701,-18.784995 c -0.809,0 -1.457,0.59 -1.457,1.328 0,0.719 0.648,1.309 1.457,1.309 h 13.703004 c 0.801,0 1.457,-0.59 1.457,-1.309 0,-0.738 -0.656,-1.328 -1.457,-1.328 h -13.703004 z" /><path
   style="fill:#010202"
   inkscape:connector-curvature="0"
   id="path61"
   d="m -112.18601,-15.987995 c -1.984,0 -3.59,1.512 -3.59,3.379 0,1.863 1.605,3.3590005 3.59,3.3590005 h 12.992004 c 1.977,0 3.586,-1.5040005 3.586,-3.3590005 0,-1.855 -1.609,-3.379 -3.586,-3.379 h -12.992004 z" /><path
   style="fill:#ffffff"
   inkscape:connector-curvature="0"
   id="path63"
   d="m -112.18601,-13.769995 c -0.766,0 -1.375,0.512 -1.375,1.16 0,0.645 0.609,1.16 1.375,1.16 h 12.992004 c 0.762,0 1.379,-0.516 1.379,-1.16 0,-0.648 -0.617,-1.16 -1.379,-1.16 h -12.992004 z" /><path
   style="fill:#110a0e"
   inkscape:connector-curvature="0"
   id="path65"
   d="m 44.516994,-132.89899 c 0,1.215 -1,2.207 -2.219,2.207 -1.227,0 -2.219,-0.992 -2.219,-2.207 0,-1.223 0.992,-2.223 2.219,-2.223 1.219,-0.007 2.219,0.993 2.219,2.223" /><path
   style="fill:#110a0e"
   inkscape:connector-curvature="0"
   id="path67"
   d="m 64.563994,-132.89899 c 0,1.215 -0.969,2.207 -2.188,2.207 -1.25,0 -2.25,-0.992 -2.25,-2.207 0,-1.223 1,-2.223 2.25,-2.223 1.219,-0.007 2.188,0.993 2.188,2.223" /><path
   style="fill:#110a0e"
   inkscape:connector-curvature="0"
   id="path69"
   d="m 56.422994,-140.27399 c -0.469,0.383 -0.531,1.078 -0.141,1.551 0.398,0.473 1.758,0.879 2.211,0.504 0.148,-0.113 3.867,-2.152 4.836,-1.961 1.641,0.305 3.688,0.898 6.023,2.074 0.555,0.27 1.18,0.246 1.539,-0.25 0.375,-0.496 0.047,-1.43 -0.445,-1.793 -7.46,-5.437 -13.96,-0.199 -14.023,-0.125" /><path
   style="fill:#110a0e"
   inkscape:connector-curvature="0"
   id="path71"
   d="m 39.266994,-140.37899 c -0.555,0.242 -0.82,0.895 -0.555,1.473 0.227,0.551 1.258,1.008 1.852,0.758 1.164,-0.512 4.266,-1.75 6.125,-0.438 1.109,0.785 1.594,2.398 1.43,4.793 -0.742,10.055 -0.672,12.965 -0.672,13.086 0.023,0.586 0.492,1.063 1.07,1.086 l 9.078,0.348 c 0.625,0.016 0.703,-2.203 0.109,-2.227 0,0 -6.289,0.219 -7.961,0.145 0.023,-1.535 0.133,-5.473 0.57,-12.254 0.055,-0.387 0.055,-0.738 0.055,-1.074 0,-2.68 0.328,-4.617 -1.25,-5.766 -3.445,-2.516 -9.624,-0.028 -9.851,0.07" /><path
   style="fill:#110a0e"
   inkscape:connector-curvature="0"
   id="path73"
   d="m 48.578994,-114.62099 c -0.922,0 -1.656,0.754 -1.656,1.676 0,0.91 0.734,1.672 1.656,1.672 h 10.063 c 0.922,0 1.656,-0.762 1.656,-1.672 0,-0.922 -0.734,-1.676 -1.656,-1.676 h -10.063 z" />
</svg>
