<?xml version="1.0" encoding="UTF-8" standalone="no"?>
<!-- Generator: Adobe Illustrator 16.0.2, SVG Export Plug-In . SVG Version: 6.00 Build 0)  -->

<svg
   xmlns:dc="http://purl.org/dc/elements/1.1/"
   xmlns:cc="http://creativecommons.org/ns#"
   xmlns:rdf="http://www.w3.org/1999/02/22-rdf-syntax-ns#"
   xmlns:svg="http://www.w3.org/2000/svg"
   xmlns="http://www.w3.org/2000/svg"
   xmlns:sodipodi="http://sodipodi.sourceforge.net/DTD/sodipodi-0.dtd"
   xmlns:inkscape="http://www.inkscape.org/namespaces/inkscape"
   version="1.1"
   id="Ebene_1"
   x="0px"
   y="0px"
   width="467.96899"
   height="469.54303"
   viewBox="-204.866 -205.348 467.96898 469.54302"
   enable-background="new -204.866 -205.348 471.661 473.088"
   xml:space="preserve"
   inkscape:version="0.48.4 r9939"
   sodipodi:docname="Flag_of_Canton_of_Jura.svg"><metadata
   id="metadata59"><rdf:RDF><cc:Work
       rdf:about=""><dc:format>image/svg+xml</dc:format><dc:type
         rdf:resource="http://purl.org/dc/dcmitype/StillImage" /></cc:Work></rdf:RDF></metadata><defs
   id="defs57" /><sodipodi:namedview
   pagecolor="#ffffff"
   bordercolor="#666666"
   borderopacity="1"
   objecttolerance="10"
   gridtolerance="10"
   guidetolerance="10"
   inkscape:pageopacity="0"
   inkscape:pageshadow="2"
   inkscape:window-width="1366"
   inkscape:window-height="706"
   id="namedview55"
   showgrid="false"
   fit-margin-top="0"
   fit-margin-left="0"
   fit-margin-right="0"
   fit-margin-bottom="0"
   inkscape:zoom="0.99770019"
   inkscape:cx="192.61236"
   inkscape:cy="240.45057"
   inkscape:window-x="-8"
   inkscape:window-y="-8"
   inkscape:window-maximized="1"
   inkscape:current-layer="Ebene_1" />


























<g
   id="g3870"><rect
     style="fill:#ffffff"
     id="rect3"
     height="67.082001"
     width="234.625"
     y="-138.25801"
     x="28.477997" /><rect
     style="fill:#ffffff"
     id="rect5"
     height="67.082001"
     width="234.625"
     y="-4.1049991"
     x="28.477997" /><rect
     style="fill:#ffffff"
     id="rect7"
     height="67.078003"
     width="234.625"
     y="130.05499"
     x="28.477997" /><rect
     style="fill:#ffffff"
     id="rect9"
     height="469.543"
     width="467.96899"
     y="-205.34801"
     x="-204.866" /><path
     style="fill:#e8423f"
     inkscape:connector-curvature="0"
     id="path13"
     d="m -186.315,-136.684 c 0,21.738 10.059,47.387001 38.395,48.121001 5.254,0.145 18.43,-0.48 27.328,-9.152 5.543,-5.406001 8.359,-12.941001 8.359,-22.406001 0,-15.883 -7.961,-22.777 -14.648,-25.754 -7.336,-3.27 -15.992,-3.031 -21.328,-1.598 1.801,-4.52 6.137,-11.418 19.992,-11.883 5.582,-0.184 13.609,1.25 20.113,9.168 8.167996,9.93 15.526996,31.977 4.238,80.570001 l -0.512,2.168 h 57.831996 l 0.023,-1.754 c 0.719,-50.719001 -9.488,-87.176001 -30.367,-108.359001 -16.863,-17.105 -35.885996,-18.941 -43.287996,-18.941 -65.375,0.008 -66.137,59.223 -66.137,59.82" /><path
     style="fill:#010202"
     inkscape:connector-curvature="0"
     id="path15"
     d="m -120.178,-198.281 c -34.527,0 -51.137,16.328 -59,30.021 -8.809,15.359 -8.91,30.918 -8.91,31.566 0,22.523 10.504,49.121001 40.109,49.898001 h 0.512 l 0.625,0.016 c 17.586,0 36.375,-8.771 36.375,-33.344001 0,-22.242 -15.309,-30.176 -29.637,-30.176 -1.496,0 -3.188,0.094 -4.875,0.313 2.418,-3.602 7.09,-7.273 16.816,-7.594 0.289,-0.008 0.57,-0.023 0.855,-0.023 7.227,0 13.488,3.078 18.105,8.895 10.909996,13.73 12.190996,41.688 3.602,78.688001 l -1.027,4.352 h 4.48 53.847996 3.504 l 0.051,-3.5 c 0.719,-51.227001 -9.664,-88.113001 -30.891,-109.633001 -17.335,-17.6 -36.932996,-19.479 -44.541996,-19.479 m -64.368,61.566 c 0.016,-2.496 1.305,-58.021 64.367,-58.021 14.215,0 71.729996,6.984 71.921996,120.055001 0,1.793 -0.016,3.609 -0.043,5.465 H -102.148 c 4.042996,-17.375 5.776996,-31.855001 5.776996,-43.785001 -0.008,-35.078 -15.046996,-48.156 -30.937996,-48.156 -0.336,0 -0.645,0.008 -0.965,0.023 -20.762,0.695 -22.145,15.688 -23.035,16.84 0.57,-0.512 1.707,-1.035 3.242,-1.465 0.352,-0.098 0.727,-0.191 1.129,-0.281 1.91,-0.43 4.262,-0.711 6.832,-0.711 11.078,0 26.078,5.223 26.078,26.633 0,27.008001 -23.785,29.789001 -32.816,29.789001 -0.375,0 -0.719,-0.008 -1.039,-0.008 -26.512,-0.703 -36.664,-24.680001 -36.664,-46.352001 l 0.001,-0.026 0,0 z" /><rect
     style="fill:#e8423f"
     id="rect17"
     height="11.938"
     width="77.582001"
     y="-63.202999"
     x="-114.089" /><rect
     style="fill:none;stroke:#010202;stroke-width:3.55200005;stroke-miterlimit:10"
     id="rect19"
     height="11.93"
     width="77.582001"
     stroke-miterlimit="10"
     y="-63.194996"
     x="-114.089" /><rect
     style="fill:#e8423f"
     id="rect21"
     height="11.934"
     width="77.582001"
     y="-30.289"
     x="-114.089" /><rect
     style="fill:none;stroke:#010202;stroke-width:3.55200005;stroke-miterlimit:10"
     id="rect23"
     height="11.918"
     width="77.582001"
     stroke-miterlimit="10"
     y="-30.272999"
     x="-114.089" /><rect
     style="fill:#e8423f"
     id="rect25"
     height="11.93"
     width="108.918"
     y="-46.690998"
     x="-129.75301" /><rect
     style="fill:none;stroke:#010202;stroke-width:3.55200005;stroke-miterlimit:10"
     id="rect27"
     height="11.93"
     width="108.918"
     stroke-miterlimit="10"
     y="-46.690998"
     x="-129.75301" /><polygon
     transform="translate(-1.7760037,-1.7679991)"
     style="fill:#e8423f"
     id="polygon29"
     points="-38.961,-11.697 -12.379,210.354 -46.672,169.401 -73.539,257.683 -100.656,169.167 -134.699,210.354 -108.371,-11.697 " /><polygon
     transform="translate(-1.7760037,-1.7679991)"
     style="fill:none;stroke:#010202;stroke-width:3.55200005;stroke-miterlimit:10"
     id="polygon31"
     points="-38.961,-11.697 -12.379,210.354 -46.672,169.401 -73.539,257.683 -100.656,169.167 -134.699,210.354 -108.371,-11.697 "
     stroke-miterlimit="10" /><rect
     style="fill:#e8423f"
     id="rect33"
     height="67.073997"
     width="234.625"
     y="-205.332"
     x="28.477997" /><rect
     style="fill:#e8423f"
     id="rect39"
     height="67.063004"
     width="234.625"
     y="-71.167999"
     x="28.477997" /><rect
     style="fill:#e8423f"
     id="rect45"
     height="67.078003"
     width="234.625"
     y="62.977005"
     x="28.477997" /><rect
     style="fill:#e8423f"
     id="rect51"
     height="67.07"
     width="234.625"
     y="197.125"
     x="28.477997" /><path
     inkscape:connector-curvature="0"
     id="path3804"
     d="m 28.147963,-205.37571 0,469.58963"
     style="fill:none;stroke:#000000;stroke-width:3.52199984;stroke-linecap:butt;stroke-linejoin:miter;stroke-miterlimit:4;stroke-opacity:1;stroke-dasharray:none" /><path
     inkscape:connector-curvature="0"
     id="path3804-1"
     d="m 27.947585,-138.08223 235.190725,0"
     style="fill:none;stroke:#000000;stroke-width:3.52199984;stroke-linecap:butt;stroke-linejoin:miter;stroke-miterlimit:4;stroke-opacity:1;stroke-dasharray:none" /><path
     inkscape:connector-curvature="0"
     id="path3804-1-7"
     d="m 27.827609,-71.563864 235.190711,0"
     style="fill:none;stroke:#000000;stroke-width:3.52199984;stroke-linecap:butt;stroke-linejoin:miter;stroke-miterlimit:4;stroke-opacity:1;stroke-dasharray:none" /><path
     inkscape:connector-curvature="0"
     id="path3804-1-4"
     d="m 27.827604,-3.7023227 235.190726,0"
     style="fill:none;stroke:#000000;stroke-width:3.52199984;stroke-linecap:butt;stroke-linejoin:miter;stroke-miterlimit:4;stroke-opacity:1;stroke-dasharray:none" /><path
     inkscape:connector-curvature="0"
     id="path3804-1-0"
     d="m 27.827604,62.91893 235.190726,0"
     style="fill:none;stroke:#000000;stroke-width:3.52199984;stroke-linecap:butt;stroke-linejoin:miter;stroke-miterlimit:4;stroke-opacity:1;stroke-dasharray:none" /><path
     inkscape:connector-curvature="0"
     id="path3804-1-9"
     d="m 27.827609,129.89455 235.190711,0"
     style="fill:none;stroke:#000000;stroke-width:3.52199984;stroke-linecap:butt;stroke-linejoin:miter;stroke-miterlimit:4;stroke-opacity:1;stroke-dasharray:none" /><path
     inkscape:connector-curvature="0"
     id="path3804-1-48"
     d="m 27.827605,197.22454 235.190725,0"
     style="fill:none;stroke:#000000;stroke-width:3.52199984;stroke-linecap:butt;stroke-linejoin:miter;stroke-miterlimit:4;stroke-opacity:1;stroke-dasharray:none" /></g></svg>
