<?xml version="1.0" encoding="UTF-8" standalone="no"?>
<!-- Generator: Adobe Illustrator 16.0.2, SVG Export Plug-In . SVG Version: 6.00 Build 0)  -->

<svg
   xmlns:dc="http://purl.org/dc/elements/1.1/"
   xmlns:cc="http://creativecommons.org/ns#"
   xmlns:rdf="http://www.w3.org/1999/02/22-rdf-syntax-ns#"
   xmlns:svg="http://www.w3.org/2000/svg"
   xmlns="http://www.w3.org/2000/svg"
   xmlns:sodipodi="http://sodipodi.sourceforge.net/DTD/sodipodi-0.dtd"
   xmlns:inkscape="http://www.inkscape.org/namespaces/inkscape"
   version="1.1"
   id="Ebene_1"
   x="0px"
   y="0px"
   width="468.55099"
   height="469.82397"
   viewBox="-205.299 -205.34 468.55098 469.82398"
   enable-background="new -205.299 -205.34 470.946 472.305"
   xml:space="preserve"
   inkscape:version="0.48.4 r9939"
   sodipodi:docname="Flag_of_Canton_of_Nidwalden.svg"><metadata
   id="metadata55"><rdf:RDF><cc:Work
       rdf:about=""><dc:format>image/svg+xml</dc:format><dc:type
         rdf:resource="http://purl.org/dc/dcmitype/StillImage" /></cc:Work></rdf:RDF></metadata><defs
   id="defs53">
	
	
	
	
	
	
	
	
	
	
	
	
	
	
	
	
	
	
	
	

		
		
			
	</defs><sodipodi:namedview
   pagecolor="#ffffff"
   bordercolor="#666666"
   borderopacity="1"
   objecttolerance="10"
   gridtolerance="10"
   guidetolerance="10"
   inkscape:pageopacity="0"
   inkscape:pageshadow="2"
   inkscape:window-width="1366"
   inkscape:window-height="706"
   id="namedview51"
   showgrid="false"
   fit-margin-top="0"
   fit-margin-left="0"
   fit-margin-right="0"
   fit-margin-bottom="0"
   inkscape:zoom="0.99935425"
   inkscape:cx="215.84885"
   inkscape:cy="246.2295"
   inkscape:window-x="-8"
   inkscape:window-y="-8"
   inkscape:window-maximized="1"
   inkscape:current-layer="Ebene_1" />
<polygon
   style="fill:#ffffff"
   id="polygon5"
   points="-203.34,-203.083 -203.074,265.639 264.055,265.639 264.055,-203.083 -203.074,-203.083 "
   transform="translate(-1.9590109,-2.257)" /><polygon
   style="fill:#e8423f"
   id="polygon7"
   points="264.055,265.889 264.305,-202.826 -202.809,-202.826 -203.074,265.889 264.305,265.889 "
   transform="translate(-1.9590109,-2.257)" /><polygon
   style="fill:#ffffff"
   id="polygon13"
   points="149.648,-32.689 149.648,-10.931 194.258,-10.931 194.258,-35.603 177.797,-35.603 177.797,-45.435 177.797,-55.259 194.258,-55.259 194.258,-80.201 149.648,-80.201 149.648,-58.443 131.336,-58.443 131.336,-80.201 107.211,-80.201 107.211,-89.755 107.211,-99.306 131.336,-99.306 131.336,-121.076 149.648,-121.076 149.648,-99.306 194.258,-99.306 194.258,-123.994 177.797,-123.994 177.797,-133.818 177.797,-143.626 194.258,-143.626 194.258,-168.314 149.648,-168.314 149.648,-146.826 131.336,-146.826 131.336,-168.314 90.742,-168.314 90.742,-146.826 64.727,-146.826 64.727,-32.689 90.742,-32.689 90.742,-10.931 131.336,-10.931 131.336,-32.689 "
   transform="translate(-1.9590109,-2.257)" /><polyline
   style="fill:none;stroke:#040304;stroke-width:2.92000008;stroke-linecap:square;stroke-miterlimit:10"
   id="polyline15"
   points="   64.727,-32.689 90.742,-32.689 90.742,-10.931 131.336,-10.931 131.336,-32.689 149.648,-32.689 149.648,-10.931 194.258,-10.931    194.258,-35.603 177.797,-35.603 177.797,-45.435 177.797,-55.259 194.258,-55.259 194.258,-80.201 149.648,-80.201    149.648,-58.443 131.336,-58.443 131.336,-80.201 107.211,-80.201 107.211,-89.755 107.211,-99.306 131.336,-99.306    131.336,-121.076 149.648,-121.076 149.648,-99.306 194.258,-99.306 194.258,-123.994 177.797,-123.994 177.797,-133.818    177.797,-143.626 194.258,-143.626 194.258,-168.314 149.648,-168.314 149.648,-146.826 131.336,-146.826 131.336,-168.314    90.742,-168.314 90.742,-146.826 64.727,-146.826  "
   stroke-miterlimit="10"
   transform="translate(-1.9590109,-2.257)" /><polygon
   style="fill:#ffffff"
   id="polygon17"
   points="-89.211,-32.689 -89.211,-10.931 -134.066,-10.931 -134.066,-35.603 -117.348,-35.603 -117.348,-45.435 -117.348,-55.259 -134.066,-55.259 -134.066,-80.201 -89.211,-80.201 -89.211,-58.443 -70.906,-58.443 -70.906,-80.201 -46.746,-80.201 -46.746,-89.755 -46.746,-99.306 -70.906,-99.306 -70.906,-121.076 -89.211,-121.076 -89.211,-99.306 -134.066,-99.306 -134.066,-123.994 -117.348,-123.994 -117.348,-133.818 -117.348,-143.626 -134.066,-143.626 -134.066,-168.314 -89.211,-168.314 -89.211,-146.826 -70.906,-146.826 -70.906,-168.314 -30.297,-168.314 -30.297,-146.826 -4.281,-146.826 -4.281,-32.689 -30.297,-32.689 -30.297,-10.931 -70.906,-10.931 -70.906,-32.689 "
   transform="translate(-1.9590109,-2.257)" /><polyline
   style="fill:none;stroke:#040304;stroke-width:2.92000008;stroke-linecap:square;stroke-miterlimit:10"
   id="polyline19"
   points="   -4.281,-32.689 -30.297,-32.689 -30.297,-10.931 -70.906,-10.931 -70.906,-32.689 -89.211,-32.689 -89.211,-10.931    -134.066,-10.931 -134.066,-35.603 -117.348,-35.603 -117.348,-45.435 -117.348,-55.259 -134.066,-55.259 -134.066,-80.201    -89.211,-80.201 -89.211,-58.443 -70.906,-58.443 -70.906,-80.201 -46.746,-80.201 -46.746,-89.755 -46.746,-99.306    -70.906,-99.306 -70.906,-121.076 -89.211,-121.076 -89.211,-99.306 -134.066,-99.306 -134.066,-123.994 -117.348,-123.994    -117.348,-133.818 -117.348,-143.626 -134.066,-143.626 -134.066,-168.314 -89.211,-168.314 -89.211,-146.826 -70.906,-146.826    -70.906,-168.314 -30.297,-168.314 -30.297,-146.826 -4.281,-146.826  "
   stroke-miterlimit="10"
   transform="translate(-1.9590109,-2.257)" /><polygon
   style="fill:#ffffff"
   id="polygon21"
   points="35.539,51.983 35.539,54.1 35.797,56.756 36.063,59.67 36.063,63.124 36.32,66.577 36.867,70.295 37.125,73.741 37.648,77.202 38.195,80.1 38.977,83.311 40.289,86.217 41.914,88.342 43.492,90.202 45.336,91.795 47.469,92.858 49.602,93.92 51.719,94.702 53.844,95.233 55.711,96.03 58.086,96.561 61.008,96.827 64.461,97.084 68.438,97.084 72.695,96.561 76.93,95.756 81.18,94.452 85.43,92.592 89.414,90.202 93.125,87.28 95.258,85.952 97.898,84.624 100.82,83.311 104.273,82.233 107.727,80.905 111.172,80.1 114.617,79.038 117.805,78.514 120.977,78.249 123.914,77.983 130.273,78.514 136.391,79.842 142.242,81.967 147.539,85.155 152.047,88.608 156.023,92.858 159.227,97.639 161.602,102.936 163.195,108.772 163.727,114.624 163.195,120.452 161.602,126.03 159.227,131.342 156.023,136.124 152.047,140.358 147.539,144.069 142.242,146.999 136.391,149.381 130.273,150.709 123.914,151.249 120.977,150.983 117.805,150.709 114.617,149.905 111.172,149.124 107.727,148.053 104.273,146.999 100.82,145.67 97.898,144.608 95.258,143.28 93.125,141.952 89.414,139.038 85.43,136.905 81.18,135.592 76.664,135.053 72.156,134.772 67.93,135.053 63.93,135.842 60.477,136.639 57.82,137.967 55.711,139.038 52.258,142.483 49.883,146.202 48.539,150.186 47.992,154.686 48.273,158.952 49.07,163.452 50.398,167.967 52.258,172.202 54.375,176.452 56.758,180.17 57.023,181.499 57.57,182.827 57.82,184.686 58.086,186.53 58.086,188.381 58.359,190.264 58.359,192.381 58.359,193.983 58.617,195.561 58.617,196.889 58.086,201.397 57.023,205.655 55.438,209.358 53.047,213.069 50.133,216.28 46.93,218.92 42.961,221.038 38.977,222.639 34.461,223.702 29.949,224.233 25.445,223.702 20.934,222.639 16.949,221.038 12.965,218.92 9.789,216.28 6.879,213.069 4.469,209.358 2.895,205.655 1.82,201.397 1.293,196.889 1.293,195.561 1.566,193.983 1.566,192.381 1.566,190.264 1.82,188.381 1.82,186.53 2.094,184.686 2.359,182.827 2.895,181.499 3.156,180.17 5.535,176.452 7.652,172.202 9.535,167.967 10.844,163.452 11.637,158.952 11.91,154.686 11.375,150.186 10.055,146.202 7.652,142.483 4.207,139.038 2.094,137.967 -0.57,136.639 -4.02,135.842 -7.996,135.053 -12.25,134.772 -16.754,135.053 -21.266,135.592 -25.508,136.905 -29.5,139.038 -33.211,141.952 -35.34,143.28 -37.988,144.608 -40.906,145.67 -44.355,146.999 -47.801,148.053 -51.258,149.124 -54.707,149.905 -57.898,150.709 -61.074,150.983 -64.004,151.249 -70.371,150.709 -76.473,149.381 -82.313,146.999 -87.355,144.069 -92.129,140.358 -96.105,136.124 -99.297,131.342 -101.684,126.03 -103.281,120.452 -103.809,114.624 -103.281,108.772 -101.684,102.936 -99.297,97.639 -96.105,92.858 -92.129,88.608 -87.355,85.155 -82.313,81.967 -76.473,79.842 -70.371,78.514 -64.004,77.983 -61.074,78.249 -57.898,78.514 -54.707,79.038 -51.258,80.1 -47.801,80.905 -44.355,82.233 -40.906,83.311 -37.988,84.624 -35.34,85.952 -33.211,87.28 -29.5,90.202 -25.508,92.592 -21.266,94.452 -17.027,95.756 -12.77,96.561 -8.523,97.084 -4.547,97.084 -1.09,96.827 1.82,96.561 4.207,96.03 6.07,95.233 8.207,94.702 10.309,93.639 12.438,92.592 14.566,91.53 16.688,89.936 18.551,88.069 20.141,85.952 21.469,83.311 22.254,80.374 22.789,77.452 23.055,74.28 23.598,71.358 23.855,68.428 24.117,65.514 24.383,62.608 24.383,59.67 24.383,56.483 24.383,53.561 24.383,50.381 24.637,26.756 24.637,-188.49 -5.609,-188.49 -5.609,27.03 -5.875,50.381 -5.875,51.452 -5.875,52.772 -5.875,53.842 -6.137,55.155 -6.137,56.217 -6.137,57.545 -6.137,58.874 -6.137,59.952 -6.137,61.264 -6.137,62.608 -6.402,66.053 -7.449,68.17 -9.059,69.499 -10.652,70.295 -12.77,70.561 -14.625,70.295 -16.492,69.756 -17.82,69.233 -18.875,68.967 -19.129,68.702 -23.129,65.772 -27.105,62.858 -31.082,59.952 -35.602,57.545 -40.113,55.155 -44.617,53.311 -49.395,51.709 -54.441,50.381 -59.754,49.858 -65.066,49.592 -76.211,50.381 -87.09,52.772 -97.172,56.756 -106.195,62.053 -114.426,68.702 -121.332,76.139 -127.172,84.624 -131.41,93.92 -134.066,103.999 -134.867,114.624 -134.066,125.233 -131.41,135.053 -127.172,144.608 -121.332,153.084 -114.426,160.53 -106.195,167.17 -97.172,172.467 -87.09,176.452 -76.211,178.842 -65.066,179.639 -59.754,179.374 -54.441,178.842 -49.395,178.038 -44.617,176.725 -39.852,175.139 -35.34,173.014 -30.82,170.874 -26.836,168.499 -22.594,165.561 -18.875,162.655 -17.555,163.452 -19.684,166.374 -21.531,169.28 -23.129,172.467 -24.457,175.67 -25.508,179.1 -26.57,182.561 -27.371,185.999 -27.906,189.467 -28.172,193.17 -28.172,196.889 -27.371,205.905 -25.242,214.686 -21.793,222.639 -17.289,229.795 -11.441,236.428 -4.809,242.014 2.621,246.514 10.844,249.709 19.605,251.842 28.895,252.624 38.195,251.842 46.93,249.709 55.172,246.514 62.602,242.014 69.242,236.428 74.805,229.795 79.602,222.639 83.039,214.686 85.164,205.905 85.945,196.889 85.945,193.17 85.43,189.467 84.914,185.999 84.367,182.561 83.289,179.1 82.258,175.67 80.914,172.467 79.32,169.28 77.469,166.374 75.336,163.452 76.664,162.655 80.383,165.561 84.367,168.499 88.602,170.874 93.125,173.014 97.617,175.139 102.148,176.725 107.211,178.038 112.242,178.842 117.273,179.374 122.586,179.639 133.992,178.842 144.883,176.452 154.703,172.467 163.977,167.17 172.227,160.53 179.109,153.084 184.688,144.608 188.93,135.053 191.602,125.233 192.648,114.624 191.602,103.999 188.93,93.92 184.688,84.624 179.109,76.139 172.227,68.702 163.977,62.053 154.703,56.756 144.883,52.772 133.992,50.381 122.586,49.592 117.555,49.858 112.5,50.381 107.727,51.709 103.211,53.311 98.961,55.155 94.719,57.545 90.742,59.952 86.75,62.858 83.039,65.772 79.32,68.702 78.797,68.967 77.734,69.233 76.406,69.756 74.555,70.03 72.43,70.295 70.57,70.03 68.703,69.233 67.117,67.905 66.055,65.772 65.789,62.608 65.789,61.53 65.789,60.483 65.789,59.139 65.789,57.827 65.789,56.483 65.789,55.155 65.789,53.842 65.789,52.514 65.789,51.452 65.789,50.381 66.055,27.03 65.789,27.03 66.055,-188.49 35.797,-188.49 35.797,27.03 35.539,50.381 "
   transform="translate(-1.9590109,-2.257)" /><polyline
   style="fill:none;stroke:#040304;stroke-width:2.92000008;stroke-linecap:square;stroke-miterlimit:10"
   id="polyline23"
   points="65.789,27.03    66.055,-188.49 35.797,-188.49 35.797,27.03 35.539,50.381 35.539,51.983 35.539,54.1 35.797,56.756 36.063,59.67 36.063,63.124    36.32,66.577 36.867,70.295 37.125,73.741 37.648,77.202 38.195,80.1 38.977,83.311 40.289,86.217 41.914,88.342 43.492,90.202    45.336,91.795 47.469,92.858 49.602,93.92 51.719,94.702 53.844,95.233 55.711,96.03 58.086,96.561 61.008,96.827 64.461,97.084    68.438,97.084 72.695,96.561 76.93,95.756 81.18,94.452 85.43,92.592 89.414,90.202 93.125,87.28 95.258,85.952 97.898,84.624    100.82,83.311 104.273,82.233 107.727,80.905 111.172,80.1 114.617,79.038 117.805,78.514 120.977,78.249 123.914,77.983    130.273,78.514 136.391,79.842 142.242,81.967 147.539,85.155 152.047,88.608 156.023,92.858 159.227,97.639 161.602,102.936    163.195,108.772 163.727,114.624 163.195,120.452 161.602,126.03 159.227,131.342 156.023,136.124 152.047,140.358    147.539,144.069 142.242,146.999 136.391,149.381 130.273,150.709 123.914,151.249 120.977,150.983 117.805,150.709    114.617,149.905 111.172,149.124 107.727,148.053 104.273,146.999 100.82,145.67 97.898,144.608 95.258,143.28 93.125,141.952    89.414,139.038 85.43,136.905 81.18,135.592 76.664,135.053 72.156,134.772 67.93,135.053 63.93,135.842 60.477,136.639    57.82,137.967 55.711,139.038 52.258,142.483 49.883,146.202 48.539,150.186 47.992,154.686 48.273,158.952 49.07,163.452    50.398,167.967 52.258,172.202 54.375,176.452 56.758,180.17 57.023,181.499 57.57,182.827 57.82,184.686 58.086,186.53    58.086,188.381 58.359,190.264 58.359,192.381 58.359,193.983 58.617,195.561 58.617,196.889 58.086,201.397 57.023,205.655    55.438,209.358 53.047,213.069 50.133,216.28 46.93,218.92 42.961,221.038 38.977,222.639 34.461,223.702 29.949,224.233    25.445,223.702 20.934,222.639 16.949,221.038 12.965,218.92 9.789,216.28 6.879,213.069 4.469,209.358 2.895,205.655    1.82,201.397 1.293,196.889 1.293,195.561 1.566,193.983 1.566,192.381 1.566,190.264 1.82,188.381 1.82,186.53 2.094,184.686    2.359,182.827 2.895,181.499 3.156,180.17 5.535,176.452 7.652,172.202 9.535,167.967 10.844,163.452 11.637,158.952    11.91,154.686 11.375,150.186 10.055,146.202 7.652,142.483 4.207,139.038 2.094,137.967 -0.57,136.639 -4.02,135.842    -7.996,135.053 -12.25,134.772 -16.754,135.053 -21.266,135.592 -25.508,136.905 -29.5,139.038 -33.211,141.952 -35.34,143.28    -37.988,144.608 -40.906,145.67 -44.355,146.999 -47.801,148.053 -51.258,149.124 -54.707,149.905 -57.898,150.709    -61.074,150.983 -64.004,151.249 -70.371,150.709 -76.473,149.381 -82.313,146.999 -87.355,144.069 -92.129,140.358    -96.105,136.124 -99.297,131.342 -101.684,126.03 -103.281,120.452 -103.809,114.624 -103.281,108.772 -101.684,102.936    -99.297,97.639 -96.105,92.858 -92.129,88.608 -87.355,85.155 -82.313,81.967 -76.473,79.842 -70.371,78.514 -64.004,77.983    -61.074,78.249 -57.898,78.514 -54.707,79.038 -51.258,80.1 -47.801,80.905 -44.355,82.233 -40.906,83.311 -37.988,84.624    -35.34,85.952 -33.211,87.28 -29.5,90.202 -25.508,92.592 -21.266,94.452 -17.027,95.756 -12.77,96.561 -8.523,97.084    -4.547,97.084 -1.09,96.827 1.82,96.561 4.207,96.03 6.07,95.233 8.207,94.702 10.309,93.639 12.438,92.592 14.566,91.53    16.688,89.936 18.551,88.069 20.141,85.952 21.469,83.311 22.254,80.374 22.789,77.452 23.055,74.28 23.598,71.358 23.855,68.428    24.117,65.514 24.383,62.608 24.383,59.67 24.383,56.483 24.383,53.561 24.383,50.381 24.637,26.756 24.637,-188.49    -5.609,-188.49 -5.609,27.03 -5.875,50.381 -5.875,51.452 -5.875,52.772 -5.875,53.842 -6.137,55.155 -6.137,56.217 -6.137,57.545    -6.137,58.874 -6.137,59.952 -6.137,61.264 -6.137,62.608 -6.402,66.053 -7.449,68.17 -9.059,69.499 -10.652,70.295 -12.77,70.561    -14.625,70.295 -16.492,69.756 -17.82,69.233 -18.875,68.967 -19.129,68.702 -23.129,65.772 -27.105,62.858 -31.082,59.952    -35.602,57.545 -40.113,55.155 -44.617,53.311 -49.395,51.709 -54.441,50.381 -59.754,49.858 -65.066,49.592 -76.211,50.381    -87.09,52.772 -97.172,56.756 -106.195,62.053 -114.426,68.702 -121.332,76.139 -127.172,84.624 -131.41,93.92 -134.066,103.999    -134.867,114.624 -134.066,125.233 -131.41,135.053 -127.172,144.608 -121.332,153.084 -114.426,160.53 -106.195,167.17    -97.172,172.467 -87.09,176.452 -76.211,178.842 -65.066,179.639 -59.754,179.374 -54.441,178.842 -49.395,178.038    -44.617,176.725 -39.852,175.139 -35.34,173.014 -30.82,170.874 -26.836,168.499 -22.594,165.561 -18.875,162.655 -17.555,163.452    -19.684,166.374 -21.531,169.28 -23.129,172.467 -24.457,175.67 -25.508,179.1 -26.57,182.561 -27.371,185.999 -27.906,189.467    -28.172,193.17 -28.172,196.889 -27.371,205.905 -25.242,214.686 -21.793,222.639 -17.289,229.795 -11.441,236.428 -4.809,242.014    2.621,246.514 10.844,249.709 19.605,251.842 28.895,252.624 38.195,251.842 46.93,249.709 55.172,246.514 62.602,242.014    69.242,236.428 74.805,229.795 79.602,222.639 83.039,214.686 85.164,205.905 85.945,196.889 85.945,193.17 85.43,189.467    84.914,185.999 84.367,182.561 83.289,179.1 82.258,175.67 80.914,172.467 79.32,169.28 77.469,166.374 75.336,163.452    76.664,162.655 80.383,165.561 84.367,168.499 88.602,170.874 93.125,173.014 97.617,175.139 102.148,176.725 107.211,178.038    112.242,178.842 117.273,179.374 122.586,179.639 133.992,178.842 144.883,176.452 154.703,172.467 163.977,167.17 172.227,160.53    179.109,153.084 184.688,144.608 188.93,135.053 191.602,125.233 192.648,114.624 191.602,103.999 188.93,93.92 184.688,84.624    179.109,76.139 172.227,68.702 163.977,62.053 154.703,56.756 144.883,52.772 133.992,50.381 122.586,49.592 117.555,49.858    112.5,50.381 107.727,51.709 103.211,53.311 98.961,55.155 94.719,57.545 90.742,59.952 86.75,62.858 83.039,65.772 79.32,68.702    78.797,68.967 77.734,69.233 76.406,69.756 74.555,70.03 72.43,70.295 70.57,70.03 68.703,69.233 67.117,67.905 66.055,65.772    65.789,62.608 65.789,61.53 65.789,60.483 65.789,59.139 65.789,57.827 65.789,56.483 65.789,55.155 65.789,53.842 65.789,52.514    65.789,51.452 65.789,50.381 66.055,27.03  "
   stroke-miterlimit="10"
   transform="translate(-1.9590109,-2.257)" /><polygon
   style="fill:#ffffff"
   id="polygon25"
   points="80.914,32.342 81.961,31.014 82.508,29.686 83.289,28.084 83.586,26.495 83.586,24.639 83.586,23.053 83.289,21.448 82.508,19.854 81.961,18.526 80.914,17.213 79.844,16.151 78.539,15.358 77.211,14.823 75.883,14.292 74.273,14.292 -13.836,14.292 -15.164,14.292 -16.754,14.823 -18.082,15.358 -19.395,16.151 -20.457,17.213 -21.266,18.526 -22.066,19.854 -22.859,21.448 -23.129,23.053 -23.129,24.639 -23.129,26.495 -22.859,28.084 -22.066,29.686 -21.266,31.014 -20.457,32.342 -19.395,33.397 -18.082,34.202 -16.754,34.725 -15.164,35.249 -13.836,35.249 74.273,35.249 73.992,35.249 75.883,35.249 77.211,34.725 78.539,34.202 79.844,33.397 "
   transform="translate(-1.9590109,-2.257)" /><polyline
   style="fill:none;stroke:#040304;stroke-width:2.92000008;stroke-linecap:square;stroke-miterlimit:10"
   id="polyline27"
   points="   73.992,35.249 75.883,35.249 77.211,34.725 78.539,34.202 79.844,33.397 80.914,32.342 81.961,31.014 82.508,29.686 83.289,28.084    83.586,26.495 83.586,24.639 83.586,23.053 83.289,21.448 82.508,19.854 81.961,18.526 80.914,17.213 79.844,16.151 78.539,15.358    77.211,14.823 75.883,14.292 74.273,14.292 -13.836,14.292 -15.164,14.292 -16.754,14.823 -18.082,15.358 -19.395,16.151    -20.457,17.213 -21.266,18.526 -22.066,19.854 -22.859,21.448 -23.129,23.053 -23.129,24.639 -23.129,26.495 -22.859,28.084    -22.066,29.686 -21.266,31.014 -20.457,32.342 -19.395,33.397 -18.082,34.202 -16.754,34.725 -15.164,35.249 -13.836,35.249    74.273,35.249  "
   stroke-miterlimit="10"
   transform="translate(-1.9590109,-2.257)" /><rect
   style="fill:#e8423f"
   id="rect29"
   height="468.64899"
   width="467.086"
   y="-204.16501"
   x="-203.83401" /><polygon
   style="fill:#ffffff"
   id="polygon31"
   points="149.648,-32.689 149.648,-10.931 194.258,-10.931 194.258,-35.603 177.797,-35.603 177.797,-55.259 194.258,-55.259 194.258,-80.201 149.648,-80.201 149.648,-58.443 131.336,-58.443 131.336,-80.201 107.211,-80.201 107.211,-99.306 131.336,-99.306 131.336,-121.076 149.648,-121.076 149.648,-99.306 194.258,-99.306 194.258,-123.994 177.797,-123.994 177.797,-143.626 194.258,-143.626 194.258,-168.314 149.648,-168.314 149.648,-146.826 131.336,-146.826 131.336,-168.314 90.742,-168.314 90.742,-146.826 64.727,-146.826 64.727,-32.689 90.742,-32.689 90.742,-10.931 131.336,-10.931 131.336,-32.689 "
   transform="translate(-1.9590109,-2.257)" /><polygon
   style="fill:none;stroke:#010202;stroke-width:3.55200005;stroke-linecap:square;stroke-miterlimit:10"
   id="polygon33"
   points="149.648,-32.689 149.648,-10.931 194.258,-10.931 194.258,-35.603 177.797,-35.603 177.797,-55.259 194.258,-55.259 194.258,-80.201 149.648,-80.201 149.648,-58.443 131.336,-58.443 131.336,-80.201 107.211,-80.201 107.211,-99.306 131.336,-99.306 131.336,-121.076 149.648,-121.076 149.648,-99.306 194.258,-99.306 194.258,-123.994 177.797,-123.994 177.797,-143.626 194.258,-143.626 194.258,-168.314 149.648,-168.314 149.648,-146.826 131.336,-146.826 131.336,-168.314 90.742,-168.314 90.742,-146.826 64.727,-146.826 64.727,-32.689 90.742,-32.689 90.742,-10.931 131.336,-10.931 131.336,-32.689 "
   stroke-miterlimit="10"
   transform="translate(-1.9590109,-2.257)" /><polygon
   style="fill:#ffffff"
   id="polygon35"
   points="-89.473,-32.689 -89.473,-10.931 -134.059,-10.931 -134.059,-35.603 -117.602,-35.603 -117.602,-55.259 -134.059,-55.259 -134.059,-80.201 -89.473,-80.201 -89.473,-58.443 -71.156,-58.443 -71.156,-80.201 -47.004,-80.201 -47.004,-99.306 -71.156,-99.306 -71.156,-121.076 -89.473,-121.076 -89.473,-99.306 -134.059,-99.306 -134.059,-123.994 -117.602,-123.994 -117.602,-143.626 -134.059,-143.626 -134.059,-168.314 -89.473,-168.314 -89.473,-146.826 -71.156,-146.826 -71.156,-168.314 -30.547,-168.314 -30.547,-146.826 -4.547,-146.826 -4.547,-32.689 -30.547,-32.689 -30.547,-10.931 -71.156,-10.931 -71.156,-32.689 "
   transform="translate(-1.9590109,-2.257)" /><polygon
   style="fill:none;stroke:#010202;stroke-width:3.55200005;stroke-linecap:square;stroke-miterlimit:10"
   id="polygon37"
   points="-89.473,-32.689 -89.473,-10.931 -134.059,-10.931 -134.059,-35.603 -117.602,-35.603 -117.602,-55.259 -134.059,-55.259 -134.059,-80.201 -89.473,-80.201 -89.473,-58.443 -71.156,-58.443 -71.156,-80.201 -47.004,-80.201 -47.004,-99.306 -71.156,-99.306 -71.156,-121.076 -89.473,-121.076 -89.473,-99.306 -134.059,-99.306 -134.059,-123.994 -117.602,-123.994 -117.602,-143.626 -134.059,-143.626 -134.059,-168.314 -89.473,-168.314 -89.473,-146.826 -71.156,-146.826 -71.156,-168.314 -30.547,-168.314 -30.547,-146.826 -4.547,-146.826 -4.547,-32.689 -30.547,-32.689 -30.547,-10.931 -71.156,-10.931 -71.156,-32.689 "
   stroke-miterlimit="10"
   transform="translate(-1.9590109,-2.257)" /><path
   style="fill:#ffffff"
   inkscape:connector-curvature="0"
   id="path39"
   d="m 31.966989,-192.395 0.23,262.715 c 0,0.281 0.344,27.078 27.664,27.078 14.633,0 21.156,-4.828 27.469,-9.5 6.719,-4.969 13.656001,-10.117 31.430001,-10.117 6.367,-0.063 21.438,0.82 31.367,10.625 6.406,6.328 9.648,15.328 9.648,26.75 0,10.445 -6.898,20.688 -17.992,26.773 -14.633,8 -32.242,7.094 -47.094001,-2.43 l -3.555,-2.391 c -8.461,-5.82 -20.023,-13.773 -33.789,-6.898 -8.406,4.18 -13.141,11.094 -13.141,19.094 0,0.453 0.016,0.891 0.047,1.328 0.016,5.344 1.766,8.375 3.797,11.867 2.938,5.07 6.578,11.383 6.578,28.219 0,10.164 -3.117,27.477 -23.957,29.344 -0.406,0.047 -2.496,0.148 -2.496,0.148 l -2.008,-0.102 C 4.9349891,218.21 1.8209891,200.897 1.8209891,190.717 c 0,-16.836 3.648,-23.164 6.586,-28.219 2.0229999,-3.508 3.7729999,-6.523 3.7729999,-11.719 0.031,-0.477 0.051,-0.898 0.051,-1.375 0,-8.117 -4.7299999,-15.016 -13.13699985,-19.195 -13.78500015,-6.859 -25.35200015,1.094 -33.80900015,6.914 l -3.52,2.375 c -14.855,9.508 -32.465,10.43 -47.09,2.43 -11.102,-6.063 -17.999999,-16.328 -17.999999,-26.773 0,-11.422 3.25,-20.422 9.647999,-26.75 9.93,-9.82 24.992,-10.688 31.008,-10.625 18.129,0 25.074,5.148 31.785,10.117 6.305,4.672 12.824,9.5 27.4570001,9.5 27.3199999,0 27.6719999,-26.797 27.6719999,-27.078 l 0.215,-262.715 H -9.3540109 V 56.843 c 0,4.328 -1.1680001,7.328 -3.2230001,8.25 -2.457,1.078 -6.242,-0.508 -10.496,-4.281 -11.504,-10.375 -30.922,-15.031 -45.051,-15.031 -14.246,0 -67.437999,11.734 -67.437999,69.148 0,30.836 23.152,64.031 73.968999,64.031 14.469,0 29.07,-7.047 37.68,-12.836 -3.809,7.297 -6.426,15.508 -6.426,24.555 0,7.906 1.504,16.133 4.586,23.922 8.32,21.078 25.61300015,34.625 47.445,37.188 1.016,0.096 1.625,0.156 1.625,0.156 1.031,0.104 1.895,0.164 1.895,0.164 0.777,0.03 1.648,0.102 1.648,0.102 1.305,0.018 2.707,0.049 2.707,0.049 l 1.277,-0.148 1.25,-0.063 c 1.031,-0.104 1.641,-0.164 1.641,-0.164 22.844,-2.656 40.133,-16.203 48.461,-37.298 3.07,-7.781 4.578,-16 4.578,-23.906 0,-9.063 -2.617,-17.258 -6.43,-24.555 8.609,5.789 23.211001,12.836 37.672001,12.836 50.828,0 73.969,-33.188 73.969,-64.031 0,-57.414 -53.195,-69.148 -67.445,-69.148 -14.125,0 -33.523001,4.656 -45.047001,15.031 -4.227,3.805 -8.047,5.359 -10.492,4.281 -2.063,-0.922 -3.227,-3.922 -3.227,-8.25 v -249.238 l -33.807,-0.002 0,0 z" /><path
   style="fill:#010202"
   inkscape:connector-curvature="0"
   id="path41"
   d="m 67.579989,-194.18 h -3.563 -30.273 -3.555 v 3.551 l 0.242,260.934 c 0.008,9.984 6.164,28.859 29.43,28.859 15.227,0 21.984,-5.016 28.516,-9.859 6.789,-5.016 13.172001,-9.766 30.383001,-9.766 h 0.367 c 0.219,-0.016 0.516,-0.016 0.875,-0.016 11.422,0 37.984,3.484 37.984,35.625 0,16.172 -17.516,30.359 -37.5,30.359 -8.563,0 -17.172,-2.594 -24.844001,-7.516 -1.125,-0.719 -2.281,-1.508 -3.508,-2.359 -6.391,-4.391 -14.359,-9.867 -23.977,-9.867 -3.953,0 -7.859,0.953 -11.625,2.836 -9.531,4.75 -14.664,12.836 -14.063,22.148 l 0.008,0.133 c 0,5.555 1.961,8.93 4.023,12.508 2.828,4.867 6.336,10.945 6.336,27.328 0,9.539 -2.898,25.836 -22.328,27.555 -0.078,0 -0.207,0.031 -0.328,0.031 -0.664,0.047 -1.297,0.102 -1.961,0.117 -0.664,-0.016 -1.293,-0.07 -1.918,-0.086 -0.16,-0.031 -0.281,-0.063 -0.375,-0.063 C 6.5079891,216.553 3.6129891,200.256 3.6129891,190.717 c 0,-16.383 3.512,-22.461 6.328,-27.328 2.0779999,-3.578 4.0309999,-6.953 4.0309999,-12.609 0.609,-9.344 -4.5269999,-17.43 -14.08999985,-22.164 -3.75800005,-1.891 -7.66400005,-2.844 -11.62100015,-2.844 -9.625,0 -17.578,5.484 -23.977,9.875 -1.215,0.852 -2.375,1.641 -3.48,2.375 -7.688,4.891 -16.289,7.5 -24.863,7.5 -19.977,0 -37.487999,-14.188 -37.487999,-30.359 0,-32.141 26.558999,-35.625 37.976999,-35.625 0.352,0 0.633,0 0.863,0.016 h 0.391 c 17.191,0 23.602,4.75 30.379,9.766 6.543,4.844 13.293,9.859 28.5200001,9.859 23.2539999,0 29.4379999,-18.875 29.4379999,-28.859 l 0.234,-260.93 v -3.57 h -3.563 -30.2529999 -3.5430001 v 3.551 247.472 c 0,2.039 -0.313,6.789 -3.145,6.789 -0.914,0 -3.488,-0.406 -7.625,-4.148 -10.434,-9.406 -28.57,-15.477 -46.242,-15.477 -14.613,0 -69.206999,12.039 -69.206999,70.906 0,16.641 6.746,32.953 18.512,44.75 13.777,13.789 33.562999,21.055 57.233999,21.055 11.797,0 23.703,-4.508 32.543,-9.313 -4.695,13.258 -4.215,29.313 1.809,44.273 8.238,20.444 24.7660001,33.938 45.625,37.431 0.063,-0.375 0.215,-0.509 0.445,-0.509 0.535,0 1.48,0.767 2.578,0.953 0.023,0 0.047,0 0.07,0 h -0.031 c 0.031,0 0.055,0.017 0.086,0.017 h 0.008 c 0.172,0.03 0.34,0.047 0.508,0.047 0.504,0 1,-0.117 1.438,-0.234 0.457,-0.125 0.832,-0.232 1.113,-0.232 0.344,0 0.527,0.172 0.488,0.719 0.023,0 0.047,0.017 0.07,0.017 l 0.359,0.017 0.352,0.03 c 0.313,0.017 0.633,0.03 0.953,0.047 h 0.066 l 0.078,0.048 c 0.426,0 0.84,-0.017 1.258,-0.017 0.445,0 0.863,0.017 1.285,0.017 h 0.051 l 0.078,-0.048 c 0.465,-0.017 0.906,-0.047 1.359,-0.077 0.098,-0.017 0.199,-0.017 0.313,-0.017 -0.047,-0.595 0.152,-0.767 0.488,-0.767 0.297,0 0.688,0.125 1.141,0.25 0.461,0.107 0.969,0.232 1.5,0.232 0.109,0 0.219,-0.016 0.344,-0.016 0.078,0 0.172,-0.016 0.234,-0.031 h -0.047 c 0.031,0 0.063,0 0.086,0 1.094,-0.188 2.031,-0.953 2.57,-0.953 0.227,0 0.391,0.143 0.461,0.51 20.852,-3.492 37.367,-16.984 45.602,-37.415 6.039,-14.977 6.508,-31.031 1.828,-44.273 8.828,4.805 20.734001,9.297 32.539001,9.297 23.672,0 43.461,-7.266 57.211,-21.055 11.766,-11.797 18.523,-28.109 18.523,-44.75 0,-58.867 -54.594,-70.906 -69.227,-70.906 -17.641,0 -35.789001,6.07 -46.234001,15.477 -4.148,3.742 -6.703,4.148 -7.617,4.148 -2.82,0 -3.117,-4.75 -3.117,-6.789 v -247.463 -3.563 h -0.03 z m -33.844,3.562 h 30.266 V 56.851 c 0,6.688 2.563,10.328 6.672,10.328 2.75,0 6.18,-1.609 10.016,-5.047 10.5,-9.453 28.594001,-14.563 43.844001,-14.563 15.266,0 65.664,12.266 65.664,67.359 0,29.609 -22.539,62.25 -72.18,62.25 -19.703001,0 -39.141001,-13.094 -43.063001,-17.469 0.641,0.766 1.242,1.563 1.828,2.406 1.383,1.969 2.578,4.078 3.625,6.297 3.102,6.688 4.625,14.328 4.609,22.203 -0.031,26.453 -17.391,55.522 -50.484,59.421 v 0.018 c -0.086,0 -0.156,0 -0.234,0.016 -0.219,0.031 -0.477,0.047 -0.719,0.063 -0.547,0.047 -1.102,0.108 -1.652,0.142 -0.379,0.03 -0.77,0.047 -1.16,0.063 -0.426,0.056 -0.832,0.087 -1.258,0.103 v 0.047 h -0.023 c -0.422,0 -0.84,-0.016 -1.289,-0.031 -0.43,0.017 -0.832,0.031 -1.254,0.031 h -0.031 v -0.031 c -0.363,-0.047 -0.691,-0.063 -1.016,-0.102 -0.066,0 -0.129,0 -0.188,-0.017 -0.422,-0.03 -0.824,-0.048 -1.207,-0.077 -0.551,-0.031 -1.102,-0.096 -1.648,-0.143 -0.23,-0.017 -0.504,-0.03 -0.734,-0.063 -0.082,-0.016 -0.16,-0.016 -0.223,-0.016 -33.105,-3.906 -50.465,-32.984 -50.508,-59.438 0,-5.641 0.777,-11.172 2.371,-16.313 0.621,-2.031 1.375,-4 2.254,-5.891 1.465,-3.141 3.289,-6.063 5.441,-8.703 -3.922,4.375 -23.352,17.469 -43.047,17.469 -49.640999,0 -72.202999,-32.641 -72.202999,-62.25 0,-55.094 50.425999,-67.359 65.663999,-67.359 15.266,0 33.371,5.109 43.859,14.563 3.813,3.438 7.254,5.047 10.008,5.047 4.125,0 6.6880001,-3.641 6.6880001,-10.328 V -190.617 H 22.677989 l -0.215,260.937 c 0,0 -0.031,25.313 -25.8869999,25.313 -29.4180001,0 -23.7300001,-19.625 -58.8980001,-19.625 -0.223,0 -0.656,-0.016 -1.254,-0.016 -7.395,0 -41.519999,1.422 -41.519999,39.164 0,18.117 18.796999,33.906 41.030999,33.906 8.703,0 17.941,-2.445 26.781,-8.07 6.641,-4.273 15.258,-11.688 25.539,-11.688 3.1840001,0 6.5430001,0.719 10.0390001,2.477 11.16,5.555 12.1839999,14.047 12.1759999,17.508 0,0.805 -0.055,1.313 -0.055,1.492 0,11.969 -10.36299985,11.391 -10.36299985,39.938 0,9.781 2.99999995,29.109 25.54699985,31.109 0.152,0.016 0.285,0.039 0.438,0.055 0.715,0.047 1.434,0.094 2.168,0.109 0.746,-0.016 1.465,-0.063 2.168,-0.109 0.16,-0.016 0.297,-0.039 0.457,-0.055 22.547,-2.016 25.563,-21.328 25.563,-31.109 0,-28.547 -10.359,-27.969 -10.359,-39.938 0,-0.164 -0.063,-0.688 -0.063,-1.492 0,-3.469 1.016,-11.953 12.164,-17.508 3.492,-1.758 6.836,-2.477 10.023,-2.477 10.281,0 18.914,7.414 25.563,11.688 8.828001,5.625 18.070001,8.07 26.773001,8.07 22.227,0 41.047,-15.805 41.047,-33.906 0,-37.75 -34.148,-39.164 -41.539,-39.164 -0.602,0 -1.031,0.016 -1.234,0.016 -35.156001,0 -29.484001,19.625 -58.898001,19.625 -25.852,0 -25.883,-25.313 -25.883,-25.313 l -0.251,-260.938 z m 40.891,349.891 c 0.094,0.141 0.203,0.266 0.344,0.438 -0.117,-0.173 -0.235,-0.298 -0.344,-0.438 m -92.813,0 c -0.129,0.141 -0.246,0.266 -0.359,0.438 0.07,-0.094 0.145,-0.156 0.184,-0.234 0.062,-0.064 0.129,-0.142 0.175,-0.204 m 52.094,94.39 c -0.055,0 -0.094,0 -0.133,0.016 h 0.063 l 0.07,-0.016 z m -11.367,0 0.082,0.016 h 0.063 c -0.063,-0.016 -0.094,-0.016 -0.145,-0.016" /><path
   style="fill:#ffffff"
   inkscape:connector-curvature="0"
   id="path43"
   d="m 81.845989,22.445 c 0,5.801 -4.711,10.5 -10.5,10.5 h -86.043 c -5.809,0 -10.512,-4.699 -10.512,-10.5 0,-5.816 4.711,-10.512 10.512,-10.512 h 86.043 c 5.789,-0.008 10.5,4.695 10.5,10.512" /><path
   stroke-miterlimit="10"
   d="m 81.845989,22.445 c 0,5.801 -4.711,10.5 -10.5,10.5 h -86.043 c -5.809,0 -10.512,-4.699 -10.512,-10.5 0,-5.816 4.711,-10.512 10.512,-10.512 h 86.043 c 5.789,-0.008 10.5,4.695 10.5,10.512 z"
   id="path47"
   inkscape:connector-curvature="0"
   style="fill:none;stroke:#040304;stroke-width:3.55200005;stroke-linecap:square;stroke-miterlimit:10" />
</svg>
