<?xml version="1.0" encoding="UTF-8" standalone="no"?>
<!-- Generator: Adobe Illustrator 16.0.2, SVG Export Plug-In . SVG Version: 6.00 Build 0)  -->

<svg
   xmlns:dc="http://purl.org/dc/elements/1.1/"
   xmlns:cc="http://creativecommons.org/ns#"
   xmlns:rdf="http://www.w3.org/1999/02/22-rdf-syntax-ns#"
   xmlns:svg="http://www.w3.org/2000/svg"
   xmlns="http://www.w3.org/2000/svg"
   xmlns:sodipodi="http://sodipodi.sourceforge.net/DTD/sodipodi-0.dtd"
   xmlns:inkscape="http://www.inkscape.org/namespaces/inkscape"
   version="1.1"
   id="Ebene_1"
   x="0px"
   y="0px"
   width="470.496"
   height="471.52798"
   viewBox="-205.467 -206.348 470.49602 471.528"
   enable-background="new -205.467 -206.348 473.416 474.994"
   xml:space="preserve"
   inkscape:version="0.48.4 r9939"
   sodipodi:docname="Flag_of_Canton_of_Obwalden.svg"><metadata
   id="metadata87"><rdf:RDF><cc:Work
       rdf:about=""><dc:format>image/svg+xml</dc:format><dc:type
         rdf:resource="http://purl.org/dc/dcmitype/StillImage" /></cc:Work></rdf:RDF></metadata><defs
   id="defs85">
	
	
	
	
	
	
	
	
	
	
	
	
		
	
	
	
	
	
	
	
	
	
	
	
	
	
	
	
	
	
	
	
	
	
	
	
	
</defs><sodipodi:namedview
   pagecolor="#ffffff"
   bordercolor="#666666"
   borderopacity="1"
   objecttolerance="10"
   gridtolerance="10"
   guidetolerance="10"
   inkscape:pageopacity="0"
   inkscape:pageshadow="2"
   inkscape:window-width="1366"
   inkscape:window-height="706"
   id="namedview83"
   showgrid="false"
   fit-margin-top="0"
   fit-margin-left="0"
   fit-margin-right="0"
   fit-margin-bottom="0"
   inkscape:zoom="0.99369679"
   inkscape:cx="260.36917"
   inkscape:cy="223.36147"
   inkscape:window-x="-8"
   inkscape:window-y="-8"
   inkscape:window-maximized="1"
   inkscape:current-layer="Ebene_1" />
<rect
   style="fill:#feffff"
   id="rect5"
   height="234.918"
   width="470.57559"
   y="30.262007"
   x="-205.467" /><rect
   style="fill:#e8423f"
   id="rect7"
   height="234.938"
   width="470.57462"
   y="-206.34801"
   x="-205.45663" /><path
   style="fill:#e8423f"
   inkscape:connector-curvature="0"
   id="path13"
   d="m 98.646,203.68801 c 0,-18.109 -7.133,-26.938 -10.773,-30.328 -9.484,-8.734 -34.703,-3.75 -33.477,10.266 12.672,-6.703 17.016,-4.133 19.461,-3.625 9.656,1.922 18.016,51.109 -38.266,52.508 -56.258,-1.406 -47.898,-50.586 -38.2419999,-52.508 2.44500003,-0.508 6.801,-3.078 19.4729999,3.625 1.23,-14.016 -23.9999999,-19 -33.488,-10.266 -3.641,3.391 -10.77,12.219 -10.77,30.328 0,22.797 17.5780001,51.984 61.715,53.063 0,0 0.875,0.031 1.313,0.031 0.453,0 1.328,-0.031 1.328,-0.031 44.164,-1.079 61.726,-30.274 61.726,-53.063" /><path
   style="fill:none;stroke:#010202;stroke-width:3.55200005;stroke-linecap:square;stroke-miterlimit:10"
   inkscape:connector-curvature="0"
   id="path15"
   d="m 98.646,203.68801 c 0,-18.109 -7.133,-26.938 -10.773,-30.328 -9.484,-8.734 -34.703,-3.75 -33.477,10.266 12.672,-6.703 17.016,-4.133 19.461,-3.625 9.656,1.922 18.016,51.109 -38.266,52.508 -56.258,-1.406 -47.898,-50.586 -38.2419999,-52.508 2.44500003,-0.508 6.801,-3.078 19.4729999,3.625 1.23,-14.016 -23.9999999,-19 -33.488,-10.266 -3.641,3.391 -10.77,12.219 -10.77,30.328 0,22.797 17.5780001,51.984 61.715,53.063 0,0 0.875,0.031 1.313,0.031 0.453,0 1.328,-0.031 1.328,-0.031 44.164,-1.079 61.726,-30.274 61.726,-53.063 z"
   stroke-miterlimit="10" /><polygon
   style="fill:#ffffff"
   id="polygon17"
   points="-38.484,-129.541 -71.063,-129.541 -71.063,-99.107 -26.477,-99.107 -26.477,-116.458 -14.727,-116.458 -14.727,-99.107 2.898,-99.107 2.898,-87.353 -14.727,-87.353 -14.727,-69.74 -26.477,-69.74 -26.477,-87.353 -71.063,-87.353 -71.063,-56.931 -38.484,-56.931 -38.484,-43.833 -71.063,-43.833 -71.063,-13.412 -26.477,-13.412 -26.477,-30.755 -14.727,-30.755 -14.727,-13.412 27.996,-13.412 27.996,-173.068 -14.727,-173.068 -14.727,-155.443 -26.477,-155.443 -26.477,-173.068 -71.063,-173.068 -71.063,-142.626 -38.484,-142.626 "
   transform="translate(-1.1429999,-1.7679925)" /><polygon
   style="fill:#ffffff"
   id="polygon19"
   points="-38.484,-129.541 -71.063,-129.541 -71.063,-99.107 -26.477,-99.107 -26.477,-116.458 -14.727,-116.458 -14.727,-99.107 2.898,-99.107 2.898,-87.353 -14.727,-87.353 -14.727,-69.74 -26.477,-69.74 -26.477,-87.353 -71.063,-87.353 -71.063,-56.931 -38.484,-56.931 -38.484,-43.833 -71.063,-43.833 -71.063,-13.412 -26.477,-13.412 -26.477,-30.755 -14.727,-30.755 -14.727,-13.412 27.996,-13.412 27.996,-173.068 -14.727,-173.068 -14.727,-155.443 -26.477,-155.443 -26.477,-173.068 -71.063,-173.068 -71.063,-142.626 -38.484,-142.626 "
   transform="translate(-1.1429999,-1.7679925)" /><polygon
   style="fill:none;stroke:#010202;stroke-width:3.55200005;stroke-linecap:square;stroke-miterlimit:10"
   id="polygon21"
   points="-38.484,-129.541 -71.063,-129.541 -71.063,-99.107 -26.477,-99.107 -26.477,-116.458 -14.727,-116.458 -14.727,-99.107 2.898,-99.107 2.898,-87.353 -14.727,-87.353 -14.727,-69.74 -26.477,-69.74 -26.477,-87.353 -71.063,-87.353 -71.063,-56.931 -38.484,-56.931 -38.484,-43.833 -71.063,-43.833 -71.063,-13.412 -26.477,-13.412 -26.477,-30.755 -14.727,-30.755 -14.727,-13.412 27.996,-13.412 27.996,-173.068 -14.727,-173.068 -14.727,-155.443 -26.477,-155.443 -26.477,-173.068 -71.063,-173.068 -71.063,-142.626 -38.484,-142.626 "
   stroke-miterlimit="10"
   transform="translate(-1.1429999,-1.7679925)" /><path
   style="fill:#e8423f"
   inkscape:connector-curvature="0"
   id="path23"
   d="m 8.9080001,156.20301 c 0,6.977 -5.926,12.648 -13.238,12.648 -7.3050001,0 -13.2420001,-5.672 -13.2420001,-12.648 0,-6.984 5.938,-12.641 13.2420001,-12.641 7.312,0.001 13.238,5.657 13.238,12.641" /><path
   style="fill:#e8423f"
   inkscape:connector-curvature="0"
   id="path25"
   d="m 88.677,156.42201 c 0,6.984 -5.93,12.641 -13.234,12.641 -7.313,0 -13.227,-5.656 -13.227,-12.641 0,-6.985 5.914,-12.656 13.227,-12.656 7.305,0 13.234,5.672 13.234,12.656" /><rect
   style="fill:#ffffff"
   id="rect27"
   height="230.672"
   width="30.43"
   y="-191.242"
   x="20.326" /><rect
   style="fill:none;stroke:#010202;stroke-width:3.55200005;stroke-linecap:square;stroke-miterlimit:10"
   id="rect29"
   height="230.672"
   width="30.43"
   stroke-miterlimit="10"
   y="-191.242"
   x="20.326" /><path
   style="fill:#e8423f"
   inkscape:connector-curvature="0"
   id="path31"
   d="m 8.9080001,156.20301 c 0,6.977 -5.926,12.648 -13.238,12.648 -7.3050001,0 -13.2420001,-5.672 -13.2420001,-12.648 0,-6.984 5.938,-12.641 13.2420001,-12.641 7.312,0.001 13.238,5.657 13.238,12.641" /><path
   style="fill:none;stroke:#010202;stroke-width:3.55200005;stroke-linecap:square;stroke-miterlimit:10"
   inkscape:connector-curvature="0"
   id="path33"
   d="m -4.3309999,143.54701 c 7.313,0 13.238,5.656 13.238,12.656 0,6.984 -5.926,12.648 -13.238,12.648 -7.3120001,0 -13.2420001,-5.664 -13.2420001,-12.648 0,-7 5.93,-12.656 13.2420001,-12.656 z"
   stroke-miterlimit="10" /><path
   style="fill:#e8423f"
   inkscape:connector-curvature="0"
   id="path35"
   d="m 88.677,156.42201 c 0,6.984 -5.93,12.641 -13.234,12.641 -7.313,0 -13.227,-5.656 -13.227,-12.641 0,-6.985 5.914,-12.656 13.227,-12.656 7.305,0 13.234,5.672 13.234,12.656" /><path
   style="fill:none;stroke:#010202;stroke-width:3.55200005;stroke-linecap:square;stroke-miterlimit:10"
   inkscape:connector-curvature="0"
   id="path37"
   d="m 75.443,143.78101 c 7.305,0 13.234,5.656 13.234,12.641 0,6.985 -5.93,12.641 -13.234,12.641 -7.304,0 -13.227,-5.656 -13.227,-12.641 0,-6.985 5.922,-12.641 13.227,-12.641 z"
   stroke-miterlimit="10" /><path
   style="fill:#e8423f"
   inkscape:connector-curvature="0"
   id="path39"
   d="m 125.11501,198.34401 c 0,6.969 -5.914,12.641 -13.227,12.641 -7.313,0 -13.23401,-5.672 -13.23401,-12.641 0,-6.984 5.92201,-12.656 13.23401,-12.656 7.312,0 13.227,5.671 13.227,12.656" /><path
   style="fill:none;stroke:#010202;stroke-width:3.55200005;stroke-linecap:square;stroke-miterlimit:10"
   inkscape:connector-curvature="0"
   id="path41"
   d="m 111.88801,185.70301 c 7.305,0 13.227,5.656 13.227,12.641 0,6.985 -5.922,12.641 -13.227,12.641 -7.313,0 -13.23401,-5.656 -13.23401,-12.641 0,-6.985 5.92201,-12.641 13.23401,-12.641 z"
   stroke-miterlimit="10" /><path
   style="fill:#e8423f"
   inkscape:connector-curvature="0"
   id="path43"
   d="m -27.436,198.34401 c 0,6.969 -5.93,12.641 -13.23,12.641 -7.313,0 -13.242,-5.672 -13.242,-12.641 0,-6.984 5.93,-12.656 13.242,-12.656 7.3,0 13.23,5.671 13.23,12.656" /><path
   style="fill:none;stroke:#010202;stroke-width:3.55200005;stroke-linecap:square;stroke-miterlimit:10"
   inkscape:connector-curvature="0"
   id="path45"
   d="m -40.674,185.70301 c 7.313,0 13.238,5.656 13.238,12.641 0,6.985 -5.926,12.641 -13.238,12.641 -7.312,0 -13.242,-5.656 -13.242,-12.641 0,-6.985 5.929,-12.641 13.242,-12.641 z"
   stroke-miterlimit="10" /><path
   style="fill:#e8423f"
   inkscape:connector-curvature="0"
   id="path47"
   d="m 64.099,33.391007 c 0,2.813 -2.047,5.094 -4.555,5.094 H 11.779 c -2.5199999,0 -4.5659999,-2.281 -4.5659999,-5.094 0,-2.816 2.047,-5.082 4.5659999,-5.082 h 47.766 c 2.507,0 4.554,2.265 4.554,5.082" /><path
   style="fill:none;stroke:#010202;stroke-width:3.55200005;stroke-miterlimit:10"
   inkscape:connector-curvature="0"
   id="path49"
   d="m 64.099,33.391007 c 0,2.813 -2.047,5.094 -4.555,5.094 H 11.779 c -2.5199999,0 -4.5659999,-2.281 -4.5659999,-5.094 0,-2.816 2.047,-5.082 4.5659999,-5.082 h 47.766 c 2.507,0 4.554,2.265 4.554,5.082 z"
   stroke-miterlimit="10" /><path
   style="fill:#e8423f"
   inkscape:connector-curvature="0"
   id="path51"
   d="m 64.099,48.625007 c 0,2.813 -2.047,5.094 -4.555,5.094 H 11.779 c -2.5199999,0 -4.5659999,-2.281 -4.5659999,-5.094 0,-2.82 2.047,-5.078 4.5659999,-5.078 h 47.766 c 2.507,0 4.554,2.258 4.554,5.078" /><path
   style="fill:none;stroke:#010202;stroke-width:3.55200005;stroke-miterlimit:10"
   inkscape:connector-curvature="0"
   id="path53"
   d="m 64.099,48.625007 c 0,2.813 -2.047,5.094 -4.555,5.094 H 11.779 c -2.5199999,0 -4.5659999,-2.281 -4.5659999,-5.094 0,-2.82 2.047,-5.078 4.5659999,-5.078 h 47.766 c 2.507,0 4.554,2.258 4.554,5.078 z"
   stroke-miterlimit="10" /><path
   style="fill:#e8423f"
   inkscape:connector-curvature="0"
   id="path55"
   d="m 69.826,40.984007 c 0,3.328 -2.469,6.047 -5.492,6.047 H 6.9820001 c -3.043,0 -5.496,-2.719 -5.496,-6.047 0,-3.328 2.453,-6.031 5.496,-6.031 H 64.334 c 3.023,0 5.492,2.703 5.492,6.031" /><path
   style="fill:none;stroke:#010202;stroke-width:3.55200005;stroke-miterlimit:10"
   inkscape:connector-curvature="0"
   id="path57"
   d="m 69.826,40.984007 c 0,3.328 -2.469,6.047 -5.492,6.047 H 6.9820001 c -3.043,0 -5.496,-2.719 -5.496,-6.047 0,-3.328 2.453,-6.031 5.496,-6.031 H 64.334 c 3.023,0 5.492,2.703 5.492,6.031 z"
   stroke-miterlimit="10" /><path
   style="fill:#e8423f"
   inkscape:connector-curvature="0"
   id="path59"
   d="m 51.591,53.094007 c -3.359,-0.078 -8.492,-0.219 -12.641,-0.313 0,0 -1.273,-0.109 -3.328,-0.063 -2.047,-0.047 -3.324,0.063 -3.324,0.063 -4.141,0.094 -9.27,0.234 -12.621,0.313 -6.441,0.188 -19.47299987,1.875 -16.0309999,16.766 3.445,14.891 6.4529999,13.672 9.7969999,35.656003 h 44.383 c 3.344,-21.984003 6.344,-20.766003 9.797,-35.656003 3.437,-14.891 -9.594,-16.579 -16.032,-16.766" /><path
   style="fill:none;stroke:#010202;stroke-width:3.55200005;stroke-miterlimit:10"
   inkscape:connector-curvature="0"
   id="path61"
   d="m 51.591,53.094007 c -3.359,-0.078 -8.492,-0.219 -12.641,-0.313 0,0 -1.273,-0.109 -3.328,-0.063 -2.047,-0.047 -3.324,0.063 -3.324,0.063 -4.141,0.094 -9.27,0.234 -12.621,0.313 -6.441,0.188 -19.47299987,1.875 -16.0309999,16.766 3.445,14.891 6.4529999,13.672 9.7969999,35.656003 h 44.383 c 3.344,-21.984003 6.344,-20.766003 9.797,-35.656003 3.437,-14.891 -9.594,-16.579 -16.032,-16.766 z"
   stroke-miterlimit="10" /><path
   style="fill:#e8423f"
   inkscape:connector-curvature="0"
   id="path63"
   d="m 53.67,113.37501 c 0,9.656 -8.109,17.469 -18.094,17.469 -9.98,0 -18.074,-7.813 -18.074,-17.469 0,-9.625 8.094,-17.453003 18.074,-17.453003 9.984,0 18.094,7.828003 18.094,17.453003" /><path
   style="fill:none;stroke:#010202;stroke-width:3.55200005;stroke-miterlimit:10"
   inkscape:connector-curvature="0"
   id="path65"
   d="m 53.67,113.37501 c 0,9.656 -8.109,17.469 -18.094,17.469 -9.98,0 -18.074,-7.813 -18.074,-17.469 0,-9.625 8.094,-17.453003 18.074,-17.453003 9.984,0 18.094,7.828003 18.094,17.453003 z"
   stroke-miterlimit="10" /><path
   style="fill:#e8423f"
   inkscape:connector-curvature="0"
   id="path67"
   d="m 74.576,75.852007 c -16.078,9.25 -20.641,19.508 -21.953,24.164003 -3.375,12.094 12.734,29.828 24.609,21.672 -11.813,-6.781 -11.531,-11.578 -12.234,-13.781 -2.766,-8.773003 37.08601,-40.656003 64.36701,3.883 24.82,45.938 -22.773,64.359 -28.953,57.594 -1.55501,-1.711 -5.85201,-3.891 -5.78901,-17.508 -13.016,6.195 -5.781,29.031 6.40601,32.156 4.672,1.203 15.828,2.414 31.891,-6.828 20.25,-11.656 38.078,-40.727 18.594,-76.773 0,0 -0.383,-0.727003 -0.594,-1.070003 -0.188,-0.359 -0.625,-1.047 -0.625,-1.047 -21.391,-34.923 -55.45401,-34.111 -75.71901,-22.462" /><path
   style="fill:none;stroke:#010202;stroke-width:3.55200005;stroke-miterlimit:10"
   inkscape:connector-curvature="0"
   id="path69"
   d="m 74.576,75.852007 c -16.078,9.25 -20.641,19.508 -21.953,24.164003 -3.375,12.094 12.734,29.828 24.609,21.672 -11.813,-6.781 -11.531,-11.578 -12.234,-13.781 -2.766,-8.773003 37.08601,-40.656003 64.36701,3.883 24.82,45.938 -22.773,64.359 -28.953,57.594 -1.55501,-1.711 -5.85201,-3.891 -5.78901,-17.508 -13.016,6.195 -5.781,29.031 6.40601,32.156 4.672,1.203 15.828,2.414 31.891,-6.828 20.25,-11.656 38.078,-40.727 18.594,-76.773 0,0 -0.383,-0.727003 -0.594,-1.070003 -0.188,-0.359 -0.625,-1.047 -0.625,-1.047 -21.391,-34.923 -55.45401,-34.111 -75.71901,-22.462 z"
   stroke-miterlimit="10" /><path
   style="fill:#e8423f"
   inkscape:connector-curvature="0"
   id="path71"
   d="M -3.4049999,75.852007 C 12.693,85.102007 17.236,95.360007 18.533,100.01601 c 3.391,12.094 -12.7189999,29.828 -24.6089999,21.672 11.832,-6.781 11.543,-11.578 12.25,-13.781 2.75,-8.773003 -37.0820001,-40.656003 -64.3590001,3.883 -24.801,45.938 22.766,64.359 28.949,57.594 1.578,-1.711 5.863,-3.891 5.785,-17.508 13.016,6.195 5.777,29.031 -6.398,32.156 -4.664,1.203 -15.816,2.414 -31.898,-6.828 -20.246,-11.656 -38.063,-40.727 -18.582,-76.773 0,0 0.375,-0.727003 0.582,-1.070003 0.207,-0.359 0.633,-1.047 0.633,-1.047 21.389,-34.923 55.463,-34.111 75.7090001,-22.462" /><path
   style="fill:#e8423f"
   inkscape:connector-curvature="0"
   id="path79"
   d="m 50.755,73.219007 c 0,11.289 -6.766,20.484 -15.133,20.484 -8.355,0 -15.137,-9.188 -15.137,-20.484 0,-11.313 6.781,-20.492 15.137,-20.492 8.368,0 15.133,9.179 15.133,20.492" /><path
   style="fill:none;stroke:#010202;stroke-width:3.55200005;stroke-miterlimit:10"
   inkscape:connector-curvature="0"
   id="path81"
   d="m 35.623,52.727007 c 8.359,0 15.133,9.172 15.133,20.492 0,11.313 -6.773,20.484 -15.133,20.484 -8.363,0 -15.137,-9.172 -15.137,-20.484 0,-11.32 6.773,-20.492 15.137,-20.492 z"
   stroke-miterlimit="10" />
<path
   style="fill:none;stroke:#000000;stroke-width:3.53958082;stroke-linecap:butt;stroke-linejoin:miter;stroke-miterlimit:4;stroke-opacity:1;stroke-dasharray:none"
   d="m -205.46597,28.248864 470.67892,0"
   id="path3871"
   inkscape:connector-curvature="0" /><path
   style="fill:none;stroke:#010202;stroke-width:3.55200028;stroke-miterlimit:10"
   inkscape:connector-curvature="0"
   id="path69-1"
   d="m -62.95062,177.70083 c 16.139783,9.14176 27.29294,7.85545 31.969294,6.61793 12.130125,-3.24277 19.210515,-26.13083 6.149721,-32.20961 0.167003,13.61987 -4.107067,15.816 -5.646652,17.54144 -6.148103,6.8423 -53.864707,-11.26389 -29.38274,-57.40073 C -32.923073,67.52089 7.1371686,99.137386 4.4539405,107.89854 3.771222,110.10749 4.0787772,114.91602 -7.6788779,121.78514 4.2734317,129.84347 20.258996,112.0028 16.753649,99.919704 15.414145,95.284997 10.784846,85.062844 -5.3404313,75.929931 -25.673197,64.418947 -59.770637,63.847943 -80.903536,98.95265 c 0,0 -0.431296,0.699439 -0.619368,1.05552 -0.213553,0.34441 -0.583811,1.07051 -0.583811,1.07051 -19.196295,36.17585 -1.178291,65.09469 19.156095,76.62215 z"
   stroke-miterlimit="10" /></svg>
