<?xml version="1.0" encoding="UTF-8" standalone="no"?>
<!-- Generator: Adobe Illustrator 16.0.2, SVG Export Plug-In . SVG Version: 6.00 Build 0)  -->

<svg
   xmlns:dc="http://purl.org/dc/elements/1.1/"
   xmlns:cc="http://creativecommons.org/ns#"
   xmlns:rdf="http://www.w3.org/1999/02/22-rdf-syntax-ns#"
   xmlns:svg="http://www.w3.org/2000/svg"
   xmlns="http://www.w3.org/2000/svg"
   xmlns:sodipodi="http://sodipodi.sourceforge.net/DTD/sodipodi-0.dtd"
   xmlns:inkscape="http://www.inkscape.org/namespaces/inkscape"
   version="1.1"
   id="Ebene_1"
   x="0px"
   y="0px"
   width="469.862"
   height="471.46201"
   viewBox="-205.87 -206.309 469.862 471.462"
   enable-background="new -205.87 -206.309 473.414 475.014"
   xml:space="preserve"
   inkscape:version="0.48.4 r9939"
   sodipodi:docname="Flag_of_Canton_of_Schaffhausen.svg"><metadata
   id="metadata87"><rdf:RDF><cc:Work
       rdf:about=""><dc:format>image/svg+xml</dc:format><dc:type
         rdf:resource="http://purl.org/dc/dcmitype/StillImage" /></cc:Work></rdf:RDF></metadata><defs
   id="defs85">
	
	
	
	
	
	
	
	
	
	
	
	
	
	
	
	
	
	
	
	
	
	
	
	
	
	
	
	
	
	
	
	
	
	
	
	
	
	

		
			
	</defs><sodipodi:namedview
   pagecolor="#ffffff"
   bordercolor="#666666"
   borderopacity="1"
   objecttolerance="10"
   gridtolerance="10"
   guidetolerance="10"
   inkscape:pageopacity="0"
   inkscape:pageshadow="2"
   inkscape:window-width="1366"
   inkscape:window-height="706"
   id="namedview83"
   showgrid="false"
   fit-margin-top="0"
   fit-margin-left="0"
   fit-margin-right="0"
   fit-margin-bottom="0"
   inkscape:zoom="0.99365491"
   inkscape:cx="234.93099"
   inkscape:cy="235.731"
   inkscape:window-x="-8"
   inkscape:window-y="-8"
   inkscape:window-maximized="1"
   inkscape:current-layer="Ebene_1" />
<rect
   style="fill:#ffd730"
   id="rect5"
   height="471.46201"
   width="469.862"
   y="-206.30901"
   x="-205.87" /><path
   style="fill:none;stroke:#010202;stroke-width:3.55200005;stroke-miterlimit:10"
   inkscape:connector-curvature="0"
   id="path7"
   d="m -124.86201,-99.093998 c 0,0 12.953,10.504 22.199,11.48 5.527004,0.57 10.223004,-8.047 8.719004,-8.293 -4.023,-0.676 -21.152004,-12.648002 -26.734004,-17.348002 -1.586,-1.351 -4.184,14.161002 -4.184,14.161002 z"
   stroke-miterlimit="10" /><path
   style="fill:#ffd730"
   inkscape:connector-curvature="0"
   id="path9"
   d="m -93.440006,-85.444998 c 0,0 -33.840004,-17.246002 -35.605004,-19.176002 -1.762,-1.934 -2.938,16.504002 4.102,24.375002 4.023,4.504 18.336,-1.879 28.824004,2.184 2.593,0.999 2.679,-7.383 2.679,-7.383" /><path
   style="fill:#010202"
   inkscape:connector-curvature="0"
   id="path11"
   d="m -101.05301,-98.788998 c -0.625,0.695 -4.801,6.152 -4.801,6.152 l 1.59,13.082 c 0,0 5.840004,2.016 5.883004,2.406 0.039,0.391 -3.520004,3.816 -3.707004,5.305 2.211004,6.895 9.289004,2.168 15.426004,3.793 6.129,1.613 16.77,14.688 16.77,14.688 l 12.152,14.32 c 0,0 5.805,5.672 10.469,12.566 5.914,8.688 4.25,28.8399997 6.594,32.2299997 1.68,2.41 4.328,10.9840003 9.047,12.9530003 4.93,2.066 9.922,-5.656 9.922,-5.918 0,-2.098 -1.387,-3.9690003 -1.387,-5.8160003 0,-1.847 2.336,-5.707 4.281,-8.832 2.566,-4.113 -8.391,-29.3129997 -9.078,-32.0309997 -0.075,-4.691 -1.884,-9.051 -1.884,-9.051 0,0 -3.887,-5.816 -5.32,-7.246 -1.43,-1.418 -6.141,-2.93 -7.336,-3.527 -1.199,-0.609 -13.637,-13.953 -15.605,-15.832 -1.953,-1.867 -17.609,-13.922 -19.777,-13.746 -4.025,-2.856 -10.071,-19.176002 -23.239004,-15.496" /><path
   style="fill:none;stroke:#010202;stroke-width:3.55200005"
   inkscape:connector-curvature="0"
   id="path13"
   d="m 70.211994,129.394 c 0.266,1.297 4.547,32.266 4.641,33.18 0.102,0.922 -6.953,10.203 -16.328,9.383 -6.125,-0.563 -9.539,-11.508 -8.164,-22.523 1.429,-11.055 16.898,-20.86 19.851,-20.04 z" /><path
   style="fill:#ffd730"
   inkscape:connector-curvature="0"
   id="path15"
   d="m 96.180994,160.824 c -6.688,-10 -20.492,-29.938 -20.492,-29.938 0,0 -13.07,2.313 -12.047,22.609 1.023,20.313 26.32,18.642 32.539,7.329" /><path
   style="fill:none;stroke:#010202;stroke-width:3.55200005"
   inkscape:connector-curvature="0"
   id="path17"
   d="m 96.180994,160.824 c -6.688,-10 -20.492,-29.938 -20.492,-29.938 0,0 -13.07,2.313 -12.047,22.609 1.023,20.313 26.32,18.642 32.539,7.329 z" /><path
   style="fill:none;stroke:#010202;stroke-width:3.55200005;stroke-miterlimit:10"
   inkscape:connector-curvature="0"
   id="path19"
   d="m -162.46401,61.019002 -4.961,23.719 c 0,0 -20.629,2.969 -18.863,1.18 1.762,-1.766 10.273,-19.016 12.297,-20.031 2.008,-1 11.527,-4.868 11.527,-4.868 z m 69.024004,-146.464 c 0,0 -33.840004,-17.246002 -35.605004,-19.176002 -1.762,-1.934 -2.938,16.504002 4.102,24.375002 4.023,4.504 18.336,-1.879 28.824004,2.184 2.593,0.999 2.679,-7.383 2.679,-7.383 z"
   stroke-miterlimit="10" /><path
   style="fill:#ffd730"
   inkscape:connector-curvature="0"
   id="path21"
   d="m -163.54901,59.168002 c 0,0 14.559,0.422 13.629,0.242 -0.926,-0.164 3.371,18.852 2.945,19.953 -0.414,1.102 -15.711,14.445 -26.184,12.133 -1.512,-0.344 9.61,-32.328 9.61,-32.328" /><path
   style="fill:none;stroke:#010202;stroke-width:3.55200005;stroke-miterlimit:10"
   inkscape:connector-curvature="0"
   id="path23"
   d="m -163.54901,59.168002 c 0,0 14.559,0.422 13.629,0.242 -0.926,-0.164 3.371,18.852 2.945,19.953 -0.414,1.102 -15.711,14.445 -26.184,12.133 -1.512,-0.344 9.61,-32.328 9.61,-32.328 z"
   stroke-miterlimit="10" /><path
   style="fill:none;stroke:#010202;stroke-width:3.55200005"
   inkscape:connector-curvature="0"
   id="path25"
   d="m -65.069006,225.871 c 0,0 10.285,-0.75 12.055,1.508 1.785,2.297 -14.848,16.882 -14.848,16.882 0,0 -17.039,1.086 -18.047,-0.508 -1.019,-1.585 20.84,-17.882 20.84,-17.882 z" /><path
   style="fill:#ffd730"
   inkscape:connector-curvature="0"
   id="path27"
   d="m -51.823006,223.082 7.504,2.609 c 0,0 1.945,18.985 -0.672,21.837 -2.625,2.875 -17.785,9.188 -30.711,3.805 -3.039,-1.251 23.879,-28.251 23.879,-28.251" /><path
   style="fill:none;stroke:#010202;stroke-width:3.55200005"
   inkscape:connector-curvature="0"
   id="path29"
   d="m 192.35299,220.855 c 3.375,-2.492 7.172,-5.188 12.93,-5.516 l -0.836,26.469 c 0,0 -17.922,7.875 -18.461,6.672 -0.508,-1.234 3.508,-25.5 6.367,-27.625 z m -244.175996,2.227 7.504,2.609 c 0,0 1.945,18.985 -0.672,21.837 -2.625,2.875 -17.785,9.188 -30.711,3.805 -3.039,-1.251 23.879,-28.251 23.879,-28.251 z" /><path
   style="fill:#ffd730"
   inkscape:connector-curvature="0"
   id="path31"
   d="m 205.04799,208.308 c 0,0 -9.523,40.017 -8.695,41.22 0.828,1.211 24.586,-9.609 25.648,-17.407 1.063,-7.789 -6.195,-25.414 -6.195,-25.414 l -10.758,1.601 z" /><path
   style="fill:none;stroke:#010202;stroke-width:3.55200005"
   inkscape:connector-curvature="0"
   id="path33"
   d="m 205.04799,208.308 c 0,0 -9.523,40.017 -8.695,41.22 0.828,1.211 24.586,-9.609 25.648,-17.407 1.063,-7.789 -6.195,-25.414 -6.195,-25.414 l -10.758,1.601 z" /><path
   style="fill:#010202"
   inkscape:connector-curvature="0"
   id="path35"
   d="m 233.05599,19.980002 c 0.469,-13.3790003 -10.781,-14.2500003 -17.844,-7.313 -0.477,-1.047 -11.75,-8.8160003 -18.984,7.688 -15.617,-2 -13.539,11.473 -13.539,11.473 0,0 -12.719,-2.84 -11.57,14.309 -5.711,0.859 -4.938,4.656 -4.938,4.656 0,0 2.391,24 -19.43,28.266 -8.352,-12.797 -32.117,-19.344 -48.812996,-27.438 -10.913,-5.297 -18.46,-11.609 -17.202,-13.828 6.961,-12.223 4.281,-14.805 4.281,-14.805 0,0 11.93,-5.395 9.938,-12.609 11.585996,-3.3280003 8.069996,-12.1290003 10.163996,-14.5120003 2.078,-2.375 12.219,-1.215 7.406,-13.8319997 -0.844,-2.16 -13.374996,-6.262 -18.124996,-12.527 -0.938,0 -1.797,0.113 -1.797,0.113 0,0 -0.406,-8.832 -4.391,-9.113 -3.969,-0.297 -9.656,6.176 -14.406,5.977 -2.281,-0.098 -9.688,-0.375 -11.672,-0.672 -1.984,-0.281 -9.195,5.223 -9.195,5.223 0,0 -16.039,-3.504 -20.578,5.047 -11.75,-5.23 -17.625,4.266 -17.625,4.266 0,0 -14.98499986,-4.376 -17.5429999,12.2129997 -17.0710001,2.801 -16.0080001,11.032 -15.6640001,14.704 0.375,3.6910003 2.113,3.7380003 0.855,7.5080003 -6.152,1.5 -12.414,8.246 -12.414,8.246 0,0 -36.746,-5.512 -45.809,-7.391 -11.895,-2.488 -13.473,-4.504 -15.746,-6.3630003 -2.277,-1.855 -7.84,-2.359 -15.727004,2.1290003 -3.43,1.938 -12.254,11.281 -20.902,19.234 -10.41,9.555 -20.969,19.016 -29.387,18.836 -5.094,-0.094 -14.16,8.203 -13.398,14.328 0.75,6.109 25.047,3.125 24.977,0.563 -0.074,-2.547 1.605,-3.891 1.605,-3.891 0,0 7.012,10.234 12.906,1.141 5.887,-9.094 13.926,-23.32 13.926,-23.32 0,0 7.152,-11.328 16.516,-8.816 9.359004,2.512 55.949004,10.059 63.445004,19.902 1.199,1.594 -1.598,7.016 1.695,11.453 2.41,3.25 8.578,1.781 10.152,3.836 2.586,3.313 9.082,19.852 25.80900014,6.914 4.18399996,8.836 63.38299986,26.117 58.41399986,24.844 -23.313,-5.484 -21.719,2.063 -26.27,0.266 -4.551,-1.797 -16.473,-8.063 -20.281,5.233998 -9.5899999,-2.343998 -14.1089999,-1.797 -20.6949999,10.328 -1.3280001,0.609 -17.4060001,3.359 -13.2700001,19.266 -9.824,5.375 -7.266,13.523 1.613,22.555 -1.137,8.711 -3.641,15.641 12.6090001,17.547 0.938,1.422 2.832,7.617 16.59,6.914 2.5699999,4.086 -0.461,5.969 -0.461,5.969 0,0 -37.1370001,24.844 -53.4020001,25.719 -6.59,0.344 -6.262,0.773 -7.969,2.172 -1.695,1.406 -6.352,11.75 -6.352,11.75 0,0 -1.816,2.797 0.762,4.094 2.574,1.281 9.094,3.594 13.656,3.875 1.359,0.078 3.344,-0.406 4.176,-3.313 0.832,-2.907 7.063,-5.328 7.969,3.313 0.094,0.906 5.504,-0.25 5.965,-0.938 4.027,-6.047 7.098,-15.094 24.5390001,-21.672 14.4059999,-5.438 40.9449999,-14.156 42.9919999,-15.422 2.031,-1.266 3.047,-8.75 1.219,-11.188 -1.813,-2.422 -6.438,-8.156 -6.438,-8.156 0,0 16.828,-5.469 18.297,-6.078 -12.516,-17.922 4.992,-41.109 22.109,-37.547 -0.422,0.594 -5.141,5.313 3.797,11 -6.172,12.234 9.758,14.984 9.758,14.984 0,0 0.578,7.688 2.289,8.922 1.688,1.234 1.813,1.328 15.077996,0.563 3.883,-0.219 11.172,13.094 25.227,-0.188 2.93,7.094 19.617,9.953 22.555,-0.094 16.406,8.359 22.492,-7.875 21.328,-10.625 2.016,-0.094 2.016,-0.281 2.953,-2 7.867,4 8.93,11.563 12.609,21.547 4.188,11.328 8.258,24.078 8.258,24.078 0,0 0.758,5.234 -0.281,5.875 -2.336,1.484 -4.672,7.211 -2.477,13.281 14.984,7.211 22.656,0.852 22.852,-0.281 0.195,-1.148 0.938,-4.922 2.086,-5.789 1.148,-0.852 7.281,-3.477 7.094,-4.82 -0.211,-1.328 -1.852,-3.422 -4.344,-6.047 -2.852,-1.094 -4.469,-4.625 -6.734,-5.836 -3.805,-1.984 -16.797,-40.773 -18.117,-46.555 -1.344,-5.789 3.805,-20.477 -4.742,-22.039 -7.75,-1.406 -10.828,6.508 -15.75,2.328 -1.406,-1.344 3.219,-2.477 -0.57,-7.703 -0.672,-0.914 -3.805,-4.164 -9.492,-3.031 2.016,-11.391 -12.5,-12.43 -12.5,-12.43 0,0 2.266,-5.586 -6.727,-18.866998 23.695,1.523 21.32,-6.539 25.211,-7.492 2,-0.484 19.25,4.836 21.148,-7.031 2.555,0 14.883,1.719 17.648,-10.609 12.891,2.922 15.375,-10.914 15.375,-10.914 0,0 17.344,-3.016 8.907,-15.461 6.907,-5.15 7.416,-14.565 -5.187,-15.893 M 78.571994,124.324 c -2.672,3.047 -6.945,4.75 -7.297,3.891 1.367,-8.734 -2.734,-19.766 -10.047,-28.172 8.594,1.008 20.5,20.711 17.344,24.281" /><path
   style="fill:none;stroke:#010202;stroke-width:3.55200005"
   inkscape:connector-curvature="0"
   id="path37"
   d="m 118.82199,-130.027 c 2.156,-3.297 3.406,-7.297 3.406,-11.609 0,-11.289 -8.578,-20.441 -19.172,-20.441 -0.5,0 -0.992,0.043 -1.484,0.082 3.82,-4.746 4.656,-11.215 1.531,-16.328 -4.054996,-6.672 -13.249996,-8.496 -20.530996,-4.055 -0.438,0.254 -0.859,0.543 -1.25,0.84 -0.203,-2.051 -0.906,-4.031 -2.109,-5.793 -4.297,-6.23 -13.484,-7.359 -20.508,-2.521 -0.758,0.535 -1.461,1.137 -2.133,1.766 -4.438,-5.797 -13.289,-6.75 -20.109,-2.047 -1.969,1.375 -3.547,3.07 -4.727,4.93 -4.293,-2.168 -9.461,-2.074 -13.527,0.734 -5.566,3.855 -7.129,11.465 -3.855,17.641 -3.512,-0.176 -6.9609999,0.969 -9.5039999,3.527 -5.03099996,5.066 -4.55899996,13.68 1.063,19.23 0.348,0.336 0.691,0.656 1.043,0.961 -0.176,0.168 -0.402,0.336 -0.586,0.52 -4.785,4.832 -4.688,12.707 0.215,17.57 3.5779999,3.535 8.7149999,4.504 13.0899999,2.926 -1.574,4.32 -0.777,9.145 2.496,12.379 4.609,4.551 12.34,4.207 17.293,-0.777 0.883,-0.887 1.617,-1.871 2.203,-2.906 4.234,4.953 11.398,5.844 16.141,1.969 4.375,-3.582 5.164,-10.008 2.078,-15 12.727,-9.84 -5.219,-25.941 -15.797,-15.91 5.391,2.313 5.188,7.961 1.578,10.559 -0.719,0.258 -1.422,0.594 -2.063,1.016 -1.289,0.395 -2.813,0.473 -4.531,0.098 -10.871,-2.375 -6.383,-17.521 -6.383,-17.521 0,0 10.727,-17.297 30.867,-7.219 3.891,1.938 31.711,8.609 12.234,60.355002 13.063,11.68 28.921996,25.301 28.921996,25.301 2.516,1.809 17.297,-30.207 20.141,-33.176002 2.844,-2.965 4.609,-7.07 4.609,-11.598 -0.001,-7.191 -4.446,-13.304 -10.641,-15.503 z m -95.034996,-12.024 c -4.184,-37.273 89.831996,-38.938 65.895,41.719" /><path
   style="fill:#ffd730"
   inkscape:connector-curvature="0"
   id="path39"
   d="m 227.92299,-36.507998 c 5.602,-3.488 8.961,-9.891 8.069,-16.672 -0.796,-5.953 -4.671,-10.754 -9.906,-13.129 1.375,-2.824 1.969,-6 1.531,-9.271 -1.203,-8.988 -9.664,-15.316 -19.188,-14.605 0.875,-1.883 1.242,-3.969 0.969,-6.098 -0.891,-6.734002 -7.984,-11.336002 -15.828,-10.297002 -4.18,0.563 -7.719,2.625 -9.961,5.449 -2.805,-7.359 -10.789,-12.078 -19.43,-10.918 -5.484,0.734 -10.078,3.672 -12.922,7.719 -4.188,-2.594 -9.813,-3.824 -15.781,-3.023 -11.445,1.52 -19.789,9.941002 -18.609,18.801002 0.359,2.84 1.703,5.375 3.703,7.469 l -17.241,11.357 16.117,21.699 c 0,0 23.031,-17.16 42.828,-16.418 22.25,0.832 33.094,10.289 32.266,27.824 -0.719,15.273 -17.234,15.305 -20.586,7.785 -3.328,-7.52 3.914,-11.41 3.914,-11.41 -10.047,-9.27 -20.078,-1.637 -21.516,4.625 -3.281,-0.77 -6.75,-0.113 -9.438,2.082 -4.75,3.902 -5.219,11.229 -0.984,16.375 0.781,0.969 1.688,1.801 2.68,2.473 -2.727,4.23 -2.367,10.2149997 1.32,14.70299971 4.438,5.42599999 12.047,6.52699999 16.984,2.48799999 0.125,-0.082 0.219,-0.184 0.313,-0.281 0.484,1.082 1.109,2.113 1.891,3.082 4.438,5.4220003 12.297,6.3440003 17.523,2.063 2.055,-1.703 3.398,-3.953 4,-6.40599999 0.305,0.34399999 0.625,0.68799999 1,1.01599999 6.031,5.527 15.508,5.047 21.164,-1.11299999 3.813,-4.16800001 4.867,-9.85500001 3.273,-14.83199971 0.789,-0.016 1.57,-0.047 2.398,-0.168 8.906,-1.184 15.422,-7.77 14.492,-14.688 -0.428,-3.154 -2.295,-5.81 -5.045,-7.681" /><path
   style="fill:none;stroke:#010202;stroke-width:3.55200005"
   inkscape:connector-curvature="0"
   id="path41"
   d="m 167.00899,-26.636998 c 10.844,23.9219997 51.469,5.84 31.703,-29.488 -12.875,-23.023 -52.281,-21.496 -70.086,-5.281 m 99.297,24.898 c 5.602,-3.488 8.961,-9.891 8.069,-16.672 -0.796,-5.953 -4.671,-10.754 -9.906,-13.129 1.375,-2.824 1.969,-6 1.531,-9.271 -1.203,-8.988 -9.664,-15.316 -19.188,-14.605 0.875,-1.883 1.242,-3.969 0.969,-6.098 -0.891,-6.734002 -7.984,-11.336002 -15.828,-10.297002 -4.18,0.563 -7.719,2.625 -9.961,5.449 -2.805,-7.359 -10.789,-12.078 -19.43,-10.918 -5.484,0.734 -10.078,3.672 -12.922,7.719 -4.188,-2.594 -9.813,-3.824 -15.781,-3.023 -11.445,1.52 -19.789,9.941002 -18.609,18.801002 0.359,2.84 1.703,5.375 3.703,7.469 l -17.241,11.357 16.117,21.699 c 0,0 23.031,-17.16 42.828,-16.418 22.25,0.832 33.094,10.289 32.266,27.824 -0.719,15.273 -17.234,15.305 -20.586,7.785 -3.328,-7.52 3.914,-11.41 3.914,-11.41 -10.047,-9.27 -20.078,-1.637 -21.516,4.625 -3.281,-0.77 -6.75,-0.113 -9.438,2.082 -4.75,3.902 -5.219,11.229 -0.984,16.375 0.781,0.969 1.688,1.801 2.68,2.473 -2.727,4.23 -2.367,10.2149997 1.32,14.70299971 4.438,5.42599999 12.047,6.52699999 16.984,2.48799999 0.125,-0.082 0.219,-0.184 0.313,-0.281 0.484,1.082 1.109,2.113 1.891,3.082 4.438,5.4220003 12.297,6.3440003 17.523,2.063 2.055,-1.703 3.398,-3.953 4,-6.40599999 0.305,0.34399999 0.625,0.68799999 1,1.01599999 6.031,5.527 15.508,5.047 21.164,-1.11299999 3.813,-4.16800001 4.867,-9.85500001 3.273,-14.83199971 0.789,-0.016 1.57,-0.047 2.398,-0.168 8.906,-1.184 15.422,-7.77 14.492,-14.688 -0.428,-3.154 -2.295,-5.81 -5.045,-7.681 z" /><path
   style="fill:#ffd730"
   inkscape:connector-curvature="0"
   id="path43"
   d="m 103.64999,-72.269998 c 2.664,3.129 8.609,2.441 13.273,-1.535 4.695,-3.977 6.305,-9.742 3.648,-12.863 -2.672,-3.137 -8.594,-2.449 -13.289,1.527 -4.671,3.977 -6.312,9.742 -3.632,12.871" /><path
   style="fill:#ffd730"
   inkscape:connector-curvature="0"
   id="path45"
   d="m 83.539994,-91.019998 c 2.789,3.27 8.844,2.703 13.516,-1.273 4.687996,-3.977 6.218996,-9.863002 3.421996,-13.137002 -2.772996,-3.27 -8.827996,-2.719 -13.499996,1.266 -4.672,3.985 -6.203,9.863002 -3.438,13.144002" /><path
   style="fill:#ffd730"
   inkscape:connector-curvature="0"
   id="path47"
   d="m 119.30599,-54.569998 c 2.773,3.27 8.875,2.621 13.664,-1.434 4.758,-4.059 6.383,-9.977 3.602,-13.242 -2.781,-3.254 -8.898,-2.613 -13.672,1.434 -4.75,4.062 -6.375,9.984 -3.594,13.242" /><path
   style="fill:none;stroke:#010202;stroke-width:3.55200005"
   inkscape:connector-curvature="0"
   id="path49"
   d="m 119.30599,-54.569998 c 2.773,3.27 8.875,2.621 13.664,-1.434 4.758,-4.059 6.383,-9.977 3.602,-13.242 -2.781,-3.254 -8.898,-2.613 -13.672,1.434 -4.75,4.062 -6.375,9.984 -3.594,13.242 z m -35.765996,-36.45 c 2.789,3.27 8.844,2.703 13.516,-1.273 4.687996,-3.977 6.218996,-9.863002 3.421996,-13.137002 -2.772996,-3.27 -8.827996,-2.719 -13.499996,1.266 -4.672,3.985 -6.203,9.863002 -3.438,13.144002 z m 20.109996,18.75 c 2.664,3.129 8.609,2.441 13.273,-1.535 4.695,-3.977 6.305,-9.742 3.648,-12.863 -2.672,-3.137 -8.594,-2.449 -13.289,1.527 -4.671,3.977 -6.312,9.742 -3.632,12.871 z" /><path
   style="fill:#ffd730"
   inkscape:connector-curvature="0"
   id="path51"
   d="m 71.180994,-96.589998 c 5.984,-12.230002 3.078,-25.023002 3.078,-25.023002 0,0 20.445,8.898 11.531,34.762002 -0.953,-0.825 -9.445,-7.091 -14.609,-9.739" /><path
   style="fill:#ffd730"
   inkscape:connector-curvature="0"
   id="path53"
   d="m 120.38399,-46.651998 c 13.5,-7.648 32.68,-4.449 32.68,-4.449 0,0 -14.586,-20.445 -38.781,-4.734 1,0.784 4.179,4.311 6.101,9.183" /><path
   style="fill:none;stroke:#010202;stroke-width:3.55200005"
   inkscape:connector-curvature="0"
   id="path55"
   d="m 120.38399,-46.651998 c 13.5,-7.648 32.68,-4.449 32.68,-4.449 0,0 -14.586,-20.445 -38.781,-4.734 1,0.784 4.179,4.311 6.101,9.183 z m -49.202996,-49.938 c 5.984,-12.230002 3.078,-25.023002 3.078,-25.023002 0,0 20.445,8.898 11.531,34.762002 -0.953,-0.825 -9.445,-7.091 -14.609,-9.739 z" /><path
   style="fill:#040304"
   inkscape:connector-curvature="0"
   id="path57"
   d="m 37.446994,-50.316998 c -2.453,1.977 -38.6599999,14.359 -47.773,3.129 -9.793,-12.031 3.0000001,-25.711 4.8870001,-24.762 1.906,0.945 2.625,15.535 12.281,18.145 9.6719999,2.609 27.6519999,0.801 27.6519999,0.801 l 2.953,2.687 z" /><path
   style="fill:#ffd730"
   inkscape:connector-curvature="0"
   id="path59"
   d="m 81.899994,-69.413998 c 4.453,5.227 14.102,4.32 21.562996,-2.039 7.477,-6.344 9.914,-15.727 5.484,-20.945 -4.469,-5.23 -14.108996,-4.316 -21.577996,2.027 -7.469,6.351 -9.907,15.726 -5.469,20.957" /><path
   style="fill:#ffd730"
   inkscape:connector-curvature="0"
   id="path61"
   d="m 100.73599,-56.659998 c 3.711,4.367 12.211,3.207 19.008,-2.559 6.797,-5.777 9.289,-13.992 5.594,-18.363 -3.719,-4.359 -12.219,-3.207 -19.023,2.57 -6.789996,5.766 -9.297996,13.992 -5.579,18.352" /><path
   style="fill:none;stroke:#010202;stroke-width:3.55200005"
   inkscape:connector-curvature="0"
   id="path63"
   d="m 100.73599,-56.659998 c 3.711,4.367 12.211,3.207 19.008,-2.559 6.797,-5.777 9.289,-13.992 5.594,-18.363 -3.719,-4.359 -12.219,-3.207 -19.023,2.57 -6.789996,5.766 -9.297996,13.992 -5.579,18.352 z m -18.835996,-12.754 c 4.453,5.227 14.102,4.32 21.562996,-2.039 7.477,-6.344 9.914,-15.727 5.484,-20.945 -4.469,-5.23 -14.108996,-4.316 -21.577996,2.027 -7.469,6.351 -9.907,15.726 -5.469,20.957 z" /><path
   style="fill:#ffd730"
   inkscape:connector-curvature="0"
   id="path65"
   d="m 66.133994,-90.804998 c 27.422,14.137 43.491996,39.688 47.874996,48.855 3.219,-1.621 4.516,-4.078 7.625,-5.457 -10.695,-21.512 -30.913996,-41.957 -49.827996,-50.992 -1.625,2.707 -3.594,5.02 -5.672,7.594" /><path
   style="fill:none;stroke:#010202;stroke-width:3.55200005"
   inkscape:connector-curvature="0"
   id="path67"
   d="m 66.133994,-90.804998 c 27.422,14.137 43.491996,39.688 47.874996,48.855 3.219,-1.621 4.516,-4.078 7.625,-5.457 -10.695,-21.512 -30.913996,-41.957 -49.827996,-50.992 -1.625,2.707 -3.594,5.02 -5.672,7.594 z" /><path
   style="fill:#010202"
   inkscape:connector-curvature="0"
   id="path69"
   d="m 90.180994,-78.933998 c 10.890996,9.793 21.687996,23.426 25.296996,33.953 -0.461,0.609 1.508,-0.488 0.672,-0.016 4,1.441 4.82,2.375 9.18,5.984 2.242,1.84 4.305,3.344 5.43,6.734 0.797,2.379 0.836,4.832 0.977,7.266 0.445,8.113 -1.992,15.7339997 -5.555,17.8549997 -4.844,2.887 -5.258,-3.1679997 -7.852,-7.3749997 -5.164,-8.395 -19.522996,-13.84 -23.718996,-20.602 -1.102,-1.766 -3.195,-10.215 -3.195,-10.215 0,0 -12.438,8.438 -20.117,9.359 -7.648,0.918 -11.609,-4.688 -26.031,-4.23 -5.039,4.309 -10.055,5.984 -14.297,7.766 -4.367,1.84 -6.754,-5.473 -12.832,-9.16 2.277,-1.734 18.902,1.16 19.293,-8.703 -2.445,1.977 -38.6519999,14.359 -47.766,3.129 -9.793,-12.031 3.0000001,-25.711 4.8870001,-24.762 1.906,0.945 2.625,15.535 12.281,18.145 9.6719999,2.609 27.6599999,0.801 27.6599999,0.801 0,0 -0.625,-0.313 -1.086,-0.648 -0.328,1.168 -23.9019999,-0.418 -23.9019999,-0.418 0,0 -3.238,-5.902 -1.031,-9.359 0.902,-1.07 1.031,-1.078 1.031,-1.078 l 2.2809999,-4.594 c 0,0 1.391,-1.84 3.375,-1.078 1.984,0.758 6.297,0.617 6.297,0.617 0,0 19.316,-15.18 25.754,-12.738 0.563,-4.91 8.82,-17.023 21.164,-11.504 0.742,-0.422 0.023,0.48 0.625,0.727 1.671,0.051 11.57,5.531 21.179,14.144" /><path
   style="fill:#e8423f"
   inkscape:connector-curvature="0"
   id="path71"
   d="m -10.518006,-59.843998 c -0.199,0.961 -0.297,1.895 -0.297,2.824 0,2.816 0.9690001,5.457 2.9380001,7.855 6.863,8.543 34.5659999,0.672 43.5659999,-2.504 -8.305,2.504 -24.008,1.871 -30.1449999,0.551 -7.093,-1.382 -11.465,-10.831 -12.343,-16.093 v -0.016 c -1.36,1.621 -3.024,4.239 -3.7190001,7.383" /><path
   style="fill:#ffd730"
   inkscape:connector-curvature="0"
   id="path73"
   d="m 67.625994,-67.941998 c -2.336,0.938 -4.953,-0.109 -5.852,-2.336 -0.875,-2.223 0.297,-4.785 2.633,-5.703 2.336,-0.938 4.953,0.113 5.852,2.336 0.891,2.231 -0.297,4.786 -2.633,5.703" /><path
   style="fill:#ffd730"
   inkscape:connector-curvature="0"
   id="path75"
   d="m 69.289994,-73.667998 c -0.5,-0.395 -4.813,-3.129 -6.719,-2.922 -0.57,-0.535 -3.273,-1.992 -1.844,-2.613 0.781,-0.336 2.203,-0.512 2.516,-0.512 0.297,0 3.5,0.461 4.188,0.512 2.984,0.375 9.297,4.664 8.094,12.313 -0.242,1.55 -4.852,-5.7 -6.235,-6.778" /><polygon
   style="fill:#ffd730"
   id="polygon77"
   points="24.891,-59.365 22.73,-58.029 21.418,-58.029 20.609,-58.556 20.074,-59.623 20.891,-60.958 23.547,-63.365 25.418,-63.892 27.008,-63.099 27.008,-62.294 26.203,-60.701 "
   transform="translate(-1.7760059,-1.7759983)" />
</svg>
