<?xml version="1.0" encoding="UTF-8" standalone="no"?>
<!-- Generator: Adobe Illustrator 16.0.2, SVG Export Plug-In . SVG Version: 6.00 Build 0)  -->

<svg
   xmlns:dc="http://purl.org/dc/elements/1.1/"
   xmlns:cc="http://creativecommons.org/ns#"
   xmlns:rdf="http://www.w3.org/1999/02/22-rdf-syntax-ns#"
   xmlns:svg="http://www.w3.org/2000/svg"
   xmlns="http://www.w3.org/2000/svg"
   xmlns:sodipodi="http://sodipodi.sourceforge.net/DTD/sodipodi-0.dtd"
   xmlns:inkscape="http://www.inkscape.org/namespaces/inkscape"
   version="1.1"
   id="Ebene_1"
   x="0px"
   y="0px"
   width="469.879"
   height="471.42999"
   viewBox="-205.796 -206.414 469.879 471.43"
   enable-background="new -205.796 -206.414 473.431 474.982"
   xml:space="preserve"
   inkscape:version="0.48.4 r9939"
   sodipodi:docname="Flag_of_Canton_of_Thurgau.svg"><metadata
   id="metadata91"><rdf:RDF><cc:Work
       rdf:about=""><dc:format>image/svg+xml</dc:format><dc:type
         rdf:resource="http://purl.org/dc/dcmitype/StillImage" /></cc:Work></rdf:RDF></metadata><defs
   id="defs89">
	
	
	
	
	
	
	
	
	
	
	
	
	
	
	
	
	
	
	
	
	
	
	
	
	
	
	
	
	
	
	
	
	
	
	
	

		
		
			
		
	</defs><sodipodi:namedview
   pagecolor="#ffffff"
   bordercolor="#666666"
   borderopacity="1"
   objecttolerance="10"
   gridtolerance="10"
   guidetolerance="10"
   inkscape:pageopacity="0"
   inkscape:pageshadow="2"
   inkscape:window-width="1366"
   inkscape:window-height="706"
   id="namedview87"
   showgrid="false"
   fit-margin-top="0"
   fit-margin-left="0"
   fit-margin-right="0"
   fit-margin-bottom="0"
   inkscape:zoom="0.99372188"
   inkscape:cx="234.39349"
   inkscape:cy="235.17825"
   inkscape:window-x="-8"
   inkscape:window-y="-8"
   inkscape:window-maximized="1"
   inkscape:current-layer="Ebene_1" />
<g
   id="g3112"><polygon
     transform="translate(-1.7760026,-1.776)"
     points="265.859,-204.638 265.859,266.792 -204.02,-204.638 "
     id="polygon5"
     style="fill:#ffffff" /><polygon
     transform="translate(-1.7760026,-1.776)"
     points="-204.02,-204.638 265.859,266.792 -204.02,266.792 "
     id="polygon7"
     style="fill:#16a74e" /><path
     d="m 180.74,129.93 c 0,0 -0.547,-3.555 0.563,-5.344 1.102,-1.781 1.438,-6.555 1.219,-8.016 -0.234,-1.438 0.547,-1.883 -7.234,-2.883 6.563,-3.117 17.922,0.797 20.25,2.469 2.344,1.656 4.227,13.125 7.344,14.906 -1.219,2.781 -6.789,2.219 -6.789,2.219 L 180.74,129.93 z"
     id="path9"
     inkscape:connector-curvature="0"
     style="fill:#ffd730" /><path
     d="m 180.74,129.93 c 0,0 -0.547,-3.555 0.563,-5.344 1.102,-1.781 1.438,-6.555 1.219,-8.016 -0.234,-1.438 0.547,-1.883 -7.234,-2.883 6.563,-3.117 17.922,0.797 20.25,2.469 2.344,1.656 4.227,13.125 7.344,14.906 -1.219,2.781 -6.789,2.219 -6.789,2.219 L 180.74,129.93 z"
     id="path11"
     inkscape:connector-curvature="0"
     style="fill:none;stroke:#010202;stroke-width:3.55200005" /><path
     d="m -81.878003,-28.133 c -1.215,-0.457 -6.305,-1.559 -7.605,0.672 -7.348,12.512 4.672,40.281 15.965,45.816 6.09,2.969 6.168,0.855 6.152,0.199 -0.168,-7.855 -22.558,-31.695 -14.512,-46.687"
     id="path13"
     inkscape:connector-curvature="0"
     style="fill:#e8423f" /><path
     d="m -81.878003,-28.133 c -1.215,-0.457 -6.305,-1.559 -7.605,0.672 -7.348,12.512 4.672,40.281 15.965,45.816 6.09,2.969 6.168,0.855 6.152,0.199 -0.168,-7.855 -22.558,-31.695 -14.512,-46.687 z"
     id="path15"
     inkscape:connector-curvature="0"
     style="fill:none;stroke:#010202;stroke-width:3.55200005" /><path
     d="m -4.7170026,134.359 c -20.2150004,2.852 -51.8160004,23.078 -51.8160004,23.078 0,0 -14.848,9.797 -15.32,20.391 -0.48,10.563 4.898,12.953 4.898,12.953 0,0 14.055,12 10.422,20.516 -9.949,6.484 -28.934,9.836 -35.543,5.211 -6.793,-4.742 -0.633,-11.523 -2.055,-16.102 -3.008,-9.703 -12.042997,-11.242 -14.538997,-9.031 -1.574,1.445 5.441,3.25 3.953,8.531 -1.734,6.172 -9.473,0.094 -15,-0.688 -5.535,-0.781 -8.855,4.328 -8.855,4.328 0,0 5.215,-0.156 6.641,0.484 1.422,0.625 3.16,5.203 1.262,7.25 -2.895,3.156 -13.43,2.063 -16.27,12.328 4.262,-3.156 6.727,-2.391 7.262,-2.203 4.273,1.43 0.633,8.688 10.586,10.25 -6,2.234 -7.922,3.063 -9.16,3.953 6.641,-1.422 7.113,6.188 12.168,6.484 5.055,0.313 8.336,-1.344 9.313,-0.945 44.550997,18.305 93.046997,-23.219 95.405997,-28.594 0.578,-1.297 -9,-6.625 -11.207,-8.836 -1.258,-1.266 -3.633,-10.117 -3.48,-10.672 2.383,-8.578 0.641,-10.344 1.434,-11.445 3.781,-5.289 40.137,-15 40.137,-15 0,0 -16.27599955,-25.913 -20.2369996,-32.241"
     id="path17"
     inkscape:connector-curvature="0"
     style="fill:#ffd730" /><path
     d="m -4.7170026,134.359 c -20.2150004,2.852 -51.8160004,23.078 -51.8160004,23.078 0,0 -14.848,9.797 -15.32,20.391 -0.48,10.563 4.898,12.953 4.898,12.953 0,0 14.055,12 10.422,20.516 -9.949,6.484 -28.934,9.836 -35.543,5.211 -6.793,-4.742 -0.633,-11.523 -2.055,-16.102 -3.008,-9.703 -12.042997,-11.242 -14.538997,-9.031 -1.574,1.445 5.441,3.25 3.953,8.531 -1.734,6.172 -9.473,0.094 -15,-0.688 -5.535,-0.781 -8.855,4.328 -8.855,4.328 0,0 5.215,-0.156 6.641,0.484 1.422,0.625 3.16,5.203 1.262,7.25 -2.895,3.156 -13.43,2.063 -16.27,12.328 4.262,-3.156 6.727,-2.391 7.262,-2.203 4.273,1.43 0.633,8.688 10.586,10.25 -6,2.234 -7.922,3.063 -9.16,3.953 6.641,-1.422 7.113,6.188 12.168,6.484 5.055,0.313 8.336,-1.344 9.313,-0.945 44.550997,18.305 93.046997,-23.219 95.405997,-28.594 0.578,-1.297 -9,-6.625 -11.207,-8.836 -1.258,-1.266 -3.633,-10.117 -3.48,-10.672 2.383,-8.578 0.641,-10.344 1.434,-11.445 3.781,-5.289 40.137,-15 40.137,-15 0,0 -16.27599955,-25.913 -20.2369996,-32.241 z"
     id="path19"
     inkscape:connector-curvature="0"
     style="fill:none;stroke:#010202;stroke-width:3.55200005" /><path
     stroke-miterlimit="17"
     d="m -4.7170026,134.359 c -20.2150004,2.852 -51.8160004,23.078 -51.8160004,23.078 0,0 -14.848,9.797 -15.32,20.391 -0.48,10.563 4.898,12.953 4.898,12.953 0,0 14.055,12 10.422,20.516 -9.949,6.484 -28.934,9.836 -35.543,5.211 -6.793,-4.742 -0.633,-11.523 -2.055,-16.102 -3.008,-9.703 -12.042997,-11.242 -14.538997,-9.031 -1.574,1.445 5.441,3.25 3.953,8.531 -1.734,6.172 -9.473,0.094 -15,-0.688 -5.535,-0.781 -8.855,4.328 -8.855,4.328 0,0 5.215,-0.156 6.641,0.484 1.422,0.625 3.16,5.203 1.262,7.25 -2.895,3.156 -13.43,2.063 -16.27,12.328 4.262,-3.156 6.727,-2.391 7.262,-2.203 4.273,1.43 0.633,8.688 10.586,10.25 -6,2.234 -7.922,3.063 -9.16,3.953 6.641,-1.422 7.113,6.188 12.168,6.484 5.055,0.313 8.336,-1.344 9.313,-0.945 44.550997,18.305 93.046997,-23.219 95.405997,-28.594 0.578,-1.297 -9,-6.625 -11.207,-8.836 -1.258,-1.266 -3.633,-10.117 -3.48,-10.672 2.383,-8.578 0.641,-10.344 1.434,-11.445 3.781,-5.289 40.137,-15 40.137,-15 0,0 -16.27599955,-25.913 -20.2369996,-32.241 z"
     id="path21"
     inkscape:connector-curvature="0"
     style="fill:none;stroke:#010202;stroke-width:3.55200005;stroke-miterlimit:17" /><path
     d="m -110.71,202.453 c 0,0 -0.313,16.109 9.32,23.078 9.632997,6.938 15.952997,3.625 27.335997,18.938 M -122.557,213.203 c 0,0 0.32,3.313 6.793,4.422 -1.105,3.313 4.105,19.734 9.641,23.375"
     id="path23"
     inkscape:connector-curvature="0"
     style="fill:none;stroke:#010202;stroke-width:3.55200005" /><path
     d="m -31.932003,68.312 c -0.008,-0.086 -0.016,-0.172 -0.016,-0.297 l -0.008,0.031 c 0.008,0.11 0.016,0.196 0.024,0.266 m 0,0 c 0.008,0.204 0.015,0.204 0,0 M 121.427,149.672 c -11.961,-17.563 -37.000003,-31.148 -49.977003,-35.844 -15.68,-11.859 -18.93,-11.875 -23.602,-15.25 2.235,-15.375 -10.624,-34.031 -10.624,-34.031 0,0 -5.98,-6.859 -19.262,-6.922 3.504,2.734 17.559,13.984 13.918,16.688 -16.011,-27.938 -39.2299996,-18.641 -39.2299996,-18.641 0,0 9.547,1.805 12.137,7.477 2.609,5.688 12.3829996,27.453 22.9689996,37.523 3.375,3.219 10.266,8.375 19.094,11.508 21.602,7.656 52.594,26.602 59.141003,35.102 3.391,4.406 5.594,10.484 5.484,12.672 -0.094,2.195 -2.391,4.195 -5.578,3.797 -4.094,-0.508 -52.594003,-31.844 -52.594003,-31.844 0,0 -10.477,-7.578 -31.715,-12.797 -13.8799996,-18.829 -54.602,-38.079 -63.208,-45.173 -0.066,0.078 -0.129,0.156 -0.191,0.234 4.551,-5.469 7.992,-11.375 10.469,-16.609 -0.703,5.578 -0.637,9.25 -0.582,10.469 0.078,-2 21.168,-23.406 17.168,-33.18 15.26600045,-6.047 13.3440004,-7.77 12.6250004,-13.609 -0.563,0.199 -1.699,0.129 -3.129,-0.016 1.039,0.066 2.078,0.098 3.129,0.016 -0.016,-7.832 -19.1680004,-11.918 -18.6570004,-12.949 0.52,-1.035 6.215,1.5 7.391,0.391 0.457,-0.426 -24.016,-29.473 -29.574,-28.688 -2.145,0.688 -3.273,2.641 -5.672,1.297 -2.41,-1.344 -8.121,-7.098 -10.344,-7.473 0.125,0.816 -2.586,2.934 -2.586,2.934 0,0 -3.273,1.113 -5.91,3 -2.648,1.891 -2.465,8.297 0.148,10.922 0.152,0.145 -2.215,6.871 -2.215,6.871 0,0 4.098,-5.504 4.816,-5.504 0.727,0 8.297,4.801 8.609,9.25 0.582,8.094 -13.336,20.422 -13.848,20.5 -2.848,0.441 -8.32,-9.828 -9.68,-10.527 -0.531,-0.262 -2.664,-2.277 -5.488,8.098 -0.219,0.801 0.582,2.559 1.992,4.84 -0.008,-0.016 -0.02,-0.016 -0.02,-0.016 0,0 -11.359,-7.902 -22.663997,-8.887 1.898,0.125 3.633,0.422 4.945,0.832 -3.934,-8.266 -11.832,-39.922 -8.047,-56.84 25.616997,-9.691 22.944997,-13.738 22.671997,-18.602 3.848,-4.785 -2.09,-10.512 -2.09,-10.512 l -2.285,6.434 c 0,0 -2.594,1.729 -5.785,-0.539 -3.191,-2.262 -1.129,-10.855 -2.496,-15.719 -1.366997,-4.848 -6.862997,-9.824 -6.862997,-9.824 0,0 1.254,3.855 1.488,5.008 0.23,1.137 -0.504,3.398 -5.008,3.152 -4.504,-0.258 -4.336,-4.984 -6.855,-7.234 -2.523,-2.246 -7.609,-3.52 -7.609,-3.52 0,0 3.406,7.402 2.598,8.531 -2.293,0.207 -5.191,6.855 -7.047,7.422 -1.848,0.543 -7.246,-7.918 -11.496,-2.23 5.25,-0.609 5.746,2.262 5.832,3.254 0.336,3.609 -8.48,17.465 -1.566,21.594 -6.664,15.43 0.191,24.656 0.191,24.656 0,0 -5.152,25.656 -5.754,55.641 0.746,0.504 1.355,1.191 1.832,1.895 l -0.008,-0.016 c -15.984,-13.832 -25.863,-56.344 -24.992,-61.578 0.457,-2.75 1.082,-3.766 1.082,-3.766 0,0 2.047,0.281 4.176,-0.281 2.121,-0.559 2.777,-1.109 2.777,-1.109 0,0 6.031,-0.547 7.621,-1.051 1.602,-0.504 7.387,-11.574 4.336,-18.984 -0.84,1.816 -1.965,6.051 -4.445,6.672 -2.48,0.641 -2.184,-1.664 -6.074,-3.254 1.199,-11.57 -10.055,-23.992 -10.055,-23.992 0,0 3.77,7.719 1.273,9.129 -2.496,1.398 -6.785,2.695 -6.785,2.695 l -1.305,13.391 c 0.199,-2.801 0.406,-6.941 0.406,-12.398 -1.535,-3.488 -4.789,-9.379 -9.078,-14.273 1.992,3.199 4.383,8.785 -0.703,16.074 0.184,0.469 0.551,1.543 3.551,8.086 -3.406,-5.984 -15.727,-13.68 -15.727,-13.68 0,0 3.094,11.777 -3.066,18.52 4.371,1.938 1.273,40.656 12.25,42.641 2.801,5.801 5.887,75.242 20.457,93.703 1.824,0.086 16.238,-0.078 16.238,-0.078 l -2.77,0.672 c 0,0 18.73,20.82 25.578,26.047 9.449,7.18 49.862997,13.773 77.503997,16.57 27.641,2.789 41.3130004,12.859 42.1990004,11.477 0.504,-1.094 -6.3750004,-9.094 -5,-9.477 2.895,-0.828 16.609,38.281 27.9689996,47.875 11.359,9.578 38.348,12.328 40.051,21.406 1.344,7.148 -2.703,25.969 -13.898,24.492 -1.68,-0.211 -6.609,-17.984 -9.43,-19.258 -2.828,-1.297 -10.316,-2.875 -16.973,0.828 1.137,0.352 7.953,1.922 10.609,2.531 2.313,2.375 -1.656,7.125 -3.047,7.625 -3.168,1.141 -5.672,0.375 -8.137,0.906 -6.719,1.438 -10.8479996,10.703 -10.8479996,10.703 0,0 12.2459996,0.375 12.7659996,6.969 6.578,-3.703 8.672,-6.594 13.27,-3.797 -14.867,3.391 -16.066,6.969 -18.586,17.453 5.613,-2.984 8.941,-5.453 10.598,-4.328 1.656,1.141 3.609,2.453 6.137,1.5 0.465,-0.164 1.031,-0.438 1.672,-0.75 -1.25,0.828 -2.25,1.608 -2.504,2.155 -0.809,1.742 0.313,10.017 1.391,11.117 0.496,-1.117 1.684,-5.298 4.496,-5.392 2.797,-0.117 12.234,1.603 13.594,-0.461 1.367,-2.047 -0.992,0.172 1.969,-3.233 2.953,-3.438 14.805,-8.556 17.781,-10.647 3.484,-7.023 29.719,-35.656 28.469,-54.656 -17.82,-3.297 -17.484,-7.086 -19.555,-10.164 -12.281,-2.836 -29.883,-29.453 -33.211,-34.406 4.836,5.047 48.586,33.109 59.617003,36.359 13.385,3.936 27.463,-10.142 16.963,-25.595 M -10.131003,20.715 c -2.824,-0.199 -5.738,-0.146 -7.609,0.922 2.198,-1.25 4.808,-1.188 7.609,-0.922 m -56.036,69.855 c 0.938,-0.258 1.852,-0.555 2.754,-0.883 -0.902,0.329 -1.816,0.625 -2.754,0.883"
     id="path25"
     inkscape:connector-curvature="0"
     style="fill:#ffd730" /><path
     d="m -31.932003,68.312 c -0.008,-0.086 -0.016,-0.172 -0.016,-0.297 l -0.008,0.031 c 0.008,0.11 0.016,0.196 0.024,0.266 z m 0,0 c 0.008,0.204 0.015,0.204 0,0 z M 121.427,149.672 c -11.961,-17.563 -37.000003,-31.148 -49.977003,-35.844 -15.68,-11.859 -18.93,-11.875 -23.602,-15.25 2.235,-15.375 -10.624,-34.031 -10.624,-34.031 0,0 -5.98,-6.859 -19.262,-6.922 3.504,2.734 17.559,13.984 13.918,16.688 -16.011,-27.938 -39.2299996,-18.641 -39.2299996,-18.641 0,0 9.547,1.805 12.137,7.477 2.609,5.688 12.3829996,27.453 22.9689996,37.523 3.375,3.219 10.266,8.375 19.094,11.508 21.602,7.656 52.594,26.602 59.141003,35.102 3.391,4.406 5.594,10.484 5.484,12.672 -0.094,2.195 -2.391,4.195 -5.578,3.797 -4.094,-0.508 -52.594003,-31.844 -52.594003,-31.844 0,0 -10.477,-7.578 -31.715,-12.797 -13.8799996,-18.829 -54.602,-38.079 -63.208,-45.173 -0.066,0.078 -0.129,0.156 -0.191,0.234 4.551,-5.469 7.992,-11.375 10.469,-16.609 -0.703,5.578 -0.637,9.25 -0.582,10.469 0.078,-2 21.168,-23.406 17.168,-33.18 15.26600045,-6.047 13.3440004,-7.77 12.6250004,-13.609 -0.563,0.199 -1.699,0.129 -3.129,-0.016 1.039,0.066 2.078,0.098 3.129,0.016 -0.016,-7.832 -19.1680004,-11.918 -18.6570004,-12.949 0.52,-1.035 6.215,1.5 7.391,0.391 0.457,-0.426 -24.016,-29.473 -29.574,-28.688 -2.145,0.688 -3.273,2.641 -5.672,1.297 -2.41,-1.344 -8.121,-7.098 -10.344,-7.473 0.125,0.816 -2.586,2.934 -2.586,2.934 0,0 -3.273,1.113 -5.91,3 -2.648,1.891 -2.465,8.297 0.148,10.922 0.152,0.145 -2.215,6.871 -2.215,6.871 0,0 4.098,-5.504 4.816,-5.504 0.727,0 8.297,4.801 8.609,9.25 0.582,8.094 -13.336,20.422 -13.848,20.5 -2.848,0.441 -8.32,-9.828 -9.68,-10.527 -0.531,-0.262 -2.664,-2.277 -5.488,8.098 -0.219,0.801 0.582,2.559 1.992,4.84 -0.008,-0.016 -0.02,-0.016 -0.02,-0.016 0,0 -11.359,-7.902 -22.663997,-8.887 1.898,0.125 3.633,0.422 4.945,0.832 -3.934,-8.266 -11.832,-39.922 -8.047,-56.84 25.616997,-9.691 22.944997,-13.738 22.671997,-18.602 3.848,-4.785 -2.09,-10.512 -2.09,-10.512 l -2.285,6.434 c 0,0 -2.594,1.729 -5.785,-0.539 -3.191,-2.262 -1.129,-10.855 -2.496,-15.719 -1.366997,-4.848 -6.862997,-9.824 -6.862997,-9.824 0,0 1.254,3.855 1.488,5.008 0.23,1.137 -0.504,3.398 -5.008,3.152 -4.504,-0.258 -4.336,-4.984 -6.855,-7.234 -2.523,-2.246 -7.609,-3.52 -7.609,-3.52 0,0 3.406,7.402 2.598,8.531 -2.293,0.207 -5.191,6.855 -7.047,7.422 -1.848,0.543 -7.246,-7.918 -11.496,-2.23 5.25,-0.609 5.746,2.262 5.832,3.254 0.336,3.609 -8.48,17.465 -1.566,21.594 -6.664,15.43 0.191,24.656 0.191,24.656 0,0 -5.152,25.656 -5.754,55.641 0.746,0.504 1.355,1.191 1.832,1.895 l -0.008,-0.016 c -15.984,-13.832 -25.863,-56.344 -24.992,-61.578 0.457,-2.75 1.082,-3.766 1.082,-3.766 0,0 2.047,0.281 4.176,-0.281 2.121,-0.559 2.777,-1.109 2.777,-1.109 0,0 6.031,-0.547 7.621,-1.051 1.602,-0.504 7.387,-11.574 4.336,-18.984 -0.84,1.816 -1.965,6.051 -4.445,6.672 -2.48,0.641 -2.184,-1.664 -6.074,-3.254 1.199,-11.57 -10.055,-23.992 -10.055,-23.992 0,0 3.77,7.719 1.273,9.129 -2.496,1.398 -6.785,2.695 -6.785,2.695 l -1.305,13.391 c 0.199,-2.801 0.406,-6.941 0.406,-12.398 -1.535,-3.488 -4.789,-9.379 -9.078,-14.273 1.992,3.199 4.383,8.785 -0.703,16.074 0.184,0.469 0.551,1.543 3.551,8.086 -3.406,-5.984 -15.727,-13.68 -15.727,-13.68 0,0 3.094,11.777 -3.066,18.52 4.371,1.938 1.273,40.656 12.25,42.641 2.801,5.801 5.887,75.242 20.457,93.703 1.824,0.086 16.238,-0.078 16.238,-0.078 l -2.77,0.672 c 0,0 18.73,20.82 25.578,26.047 9.449,7.18 49.862997,13.773 77.503997,16.57 27.641,2.789 41.3130004,12.859 42.1990004,11.477 0.504,-1.094 -6.3750004,-9.094 -5,-9.477 2.895,-0.828 16.609,38.281 27.9689996,47.875 11.359,9.578 38.348,12.328 40.051,21.406 1.344,7.148 -2.703,25.969 -13.898,24.492 -1.68,-0.211 -6.609,-17.984 -9.43,-19.258 -2.828,-1.297 -10.316,-2.875 -16.973,0.828 1.137,0.352 7.953,1.922 10.609,2.531 2.313,2.375 -1.656,7.125 -3.047,7.625 -3.168,1.141 -5.672,0.375 -8.137,0.906 -6.719,1.438 -10.8479996,10.703 -10.8479996,10.703 0,0 12.2459996,0.375 12.7659996,6.969 6.578,-3.703 8.672,-6.594 13.27,-3.797 -14.867,3.391 -16.066,6.969 -18.586,17.453 5.613,-2.984 8.941,-5.453 10.598,-4.328 1.656,1.141 3.609,2.453 6.137,1.5 0.465,-0.164 1.031,-0.438 1.672,-0.75 -1.25,0.828 -2.25,1.608 -2.504,2.155 -0.809,1.742 0.313,10.017 1.391,11.117 0.496,-1.117 1.684,-5.298 4.496,-5.392 2.797,-0.117 12.234,1.603 13.594,-0.461 1.367,-2.047 -0.992,0.172 1.969,-3.233 2.953,-3.438 14.805,-8.556 17.781,-10.647 3.484,-7.023 29.719,-35.656 28.469,-54.656 -17.82,-3.297 -17.484,-7.086 -19.555,-10.164 -12.281,-2.836 -29.883,-29.453 -33.211,-34.406 4.836,5.047 48.586,33.109 59.617003,36.359 13.385,3.936 27.463,-10.142 16.963,-25.595 z M -10.131003,20.715 c -2.824,-0.199 -5.738,-0.146 -7.609,0.922 2.198,-1.25 4.808,-1.188 7.609,-0.922 z m -56.036,69.855 c 0.938,-0.258 1.852,-0.555 2.754,-0.883 -0.902,0.329 -1.816,0.625 -2.754,0.883 z"
     id="path27"
     inkscape:connector-curvature="0"
     style="fill:none;stroke:#010202;stroke-width:3.55200005" /><path
     d="m 20.243997,216.844 c 8.832,0.969 24.355,11.406 21.965,4.156 m 13.499,-218.02 c -0.859,2.703 -0.797,3.047 3.813,7.781 -8.359,16.234 -2.375,28.16 -2.375,28.16"
     id="path29"
     inkscape:connector-curvature="0"
     style="fill:none;stroke:#110a0e;stroke-width:2.78399992" /><path
     d="m -135.085,-28.742 c 6.672,-1.031 13.336,-10.109 20.656,-21.59 7.32,-11.488 15.382997,-14.09 17.608997,-13.801 M -135.549,-53.852 c 0,0 14.273,-15.113 24.273,-18.074 -3.801,-10.277 0.551,-9.625 0.551,-9.625 m -43.91,27.234 c 0,0 -8.992,9.273 -9.449,19.93"
     id="path31"
     inkscape:connector-curvature="0"
     style="fill:none;stroke:#010202;stroke-width:3.55200005" /><path
     d="m -19.116003,146.047 c 0,0 15.9410004,8 21.7030004,7.781 -1.047,-2.844 -4.121,-9.047 -4.121,-9.047 0,0 -6.137,-3.523 -17.5820004,1.266"
     id="path33"
     inkscape:connector-curvature="0"
     style="fill:#e8423f" /><path
     d="m -19.116003,146.047 c 0,0 15.9410004,8 21.7030004,7.781 -1.047,-2.844 -4.121,-9.047 -4.121,-9.047 0,0 -6.137,-3.523 -17.5820004,1.266 z"
     id="path35"
     inkscape:connector-curvature="0"
     style="fill:none;stroke:#010202;stroke-width:3.55200005" /><path
     d="M 171.537,9.187 C 169.084,7.874 144.389,3.746 132.084,5.66 c -12.305,1.918 -14.516,14.23 -15.32,19.84 -0.805,5.605 0.883,14.359 -16.727,11.141 -7.469003,-1.359 -17.023003,-10.699 -16.930003,-15.508 0.102,-6.691 8.281,-9.396 8.477,-14.578 0.063,-1.543 0.156,-14.512 -9.797,-14.512 -0.828,2.77 3.656,10.098 -2.422,10.754 -5.859,0.637 -10.734,-7.832 -15.781,-11.02 -3.836,-2.438 -8.984,-0.719 -8.984,-0.719 l 6.703,4.234 c 0,0 -0.164,5.719 -2.656,7.047 -4.72,2.505 -14.392,-5.687 -23.243,4.048 5.727,-0.734 7.406,0.871 8.984,1.234 1.703,4.246 -2.148,11.855 4.586,14.797 -1.391,-0.184 -10.891,-0.832 -10.734,-0.504 5.688,1.906 4.773,7 4.773,7 0,0 2.18,6.938 12.469,8.297 16.18,22.164 59.727003,39.391 88.234003,37.836 -0.414,-22.688 6.984,-29.031 20.422,-31.344 1.086,-5.117 7.18,-33.445 7.399,-34.516"
     id="path37"
     inkscape:connector-curvature="0"
     style="fill:#ffd730" /><path
     d="m -53.174003,-148.926 c -0.309,1.09 -3.504,11.824 2.832,22.555 0.121,-0.297 -0.063,-1.984 -0.063,-1.984 0,0 3.984,-2.832 5.551,-5.977 0.738,-1.48 6.09,-3.555 9.113,-7.234 3.063,-4.551 0.602,-14.293 -5.375,-19.598 0.367,4.641 1.512,7.414 0.719,8.254 -3.184,3.449 -12.481,2.906 -12.777,3.984"
     id="path39"
     inkscape:connector-curvature="0"
     style="fill:#ffd730" /><path
     d="m -53.174003,-148.926 c -0.309,1.09 -3.504,11.824 2.832,22.555 0.121,-0.297 -0.063,-1.984 -0.063,-1.984 0,0 3.984,-2.832 5.551,-5.977 0.738,-1.48 6.09,-3.555 9.113,-7.234 3.063,-4.551 0.602,-14.293 -5.375,-19.598 0.367,4.641 1.512,7.414 0.719,8.254 -3.184,3.449 -12.481,2.906 -12.777,3.984 z"
     id="path41"
     inkscape:connector-curvature="0"
     style="fill:none;stroke:#010202;stroke-width:3.55200005" /><path
     d="m 80.223997,-177.531 c -1.406,-0.184 -7.086,-0.012 -7.883,2.902 -4.508,16.434 15.508,44.832 28.914003,47.969 7.219,1.688 6.766,-0.754 6.57,-1.504 -2.242,-8.953 -32.195003,-29.938 -27.601003,-49.367"
     id="path43"
     inkscape:connector-curvature="0"
     style="fill:#e8423f" /><path
     d="m 80.223997,-177.531 c -1.406,-0.184 -7.086,-0.012 -7.883,2.902 -4.508,16.434 15.508,44.832 28.914003,47.969 7.219,1.688 6.766,-0.754 6.57,-1.504 -2.242,-8.953 -32.195003,-29.938 -27.601003,-49.367 z"
     id="path45"
     inkscape:connector-curvature="0"
     style="fill:none;stroke:#010202;stroke-width:3.55200005" /><path
     d="m 80.223997,-177.531 c -1.406,-0.184 -7.086,-0.012 -7.883,2.902 -4.508,16.434 15.508,44.832 28.914003,47.969 7.219,1.688 6.766,-0.754 6.57,-1.504 -2.242,-8.953 -32.195003,-29.938 -27.601003,-49.367 z"
     id="path47"
     inkscape:connector-curvature="0"
     style="fill:none;stroke:#110a0e;stroke-width:2.78399992" /><path
     d="M 171.537,9.187 C 169.084,7.874 144.389,3.746 132.084,5.66 c -12.305,1.918 -14.516,14.23 -15.32,19.84 -0.805,5.605 0.883,14.359 -16.727,11.141 -7.469003,-1.359 -17.023003,-10.699 -16.930003,-15.508 0.102,-6.691 8.281,-9.396 8.477,-14.578 0.063,-1.543 0.156,-14.512 -9.797,-14.512 -0.828,2.77 3.656,10.098 -2.422,10.754 -5.859,0.637 -10.734,-7.832 -15.781,-11.02 -3.836,-2.438 -8.984,-0.719 -8.984,-0.719 l 6.703,4.234 c 0,0 -0.164,5.719 -2.656,7.047 -4.72,2.505 -14.392,-5.687 -23.243,4.048 5.727,-0.734 7.406,0.871 8.984,1.234 1.703,4.246 -2.148,11.855 4.586,14.797 -1.391,-0.184 -10.891,-0.832 -10.734,-0.504 5.688,1.906 4.773,7 4.773,7 0,0 2.18,6.938 12.469,8.297 16.18,22.164 59.727003,39.391 88.234003,37.836 -0.414,-22.688 6.984,-29.031 20.422,-31.344 1.086,-5.117 7.18,-33.445 7.399,-34.516 z"
     id="path49"
     inkscape:connector-curvature="0"
     style="fill:none;stroke:#010202;stroke-width:3.55200005" /><path
     d="m 138.568,14.09 c 9.242,-0.047 20.375,0.395 23.141,4.906 0.031,1.887 0.68,6.109 0.984,9.109 -4.571,-0.636 -24.125,-12.984 -24.125,-14.015"
     id="path51"
     inkscape:connector-curvature="0"
     style="fill:#e8423f" /><path
     d="m 252.912,27.012 c -0.953,-9.184 -10.656,-33.344 -34.344,-69.527 -16.719,-25.543 -18.117,-38.656 -15.031,-49.871 15.375,-2.242 35.625,-23.059 35.063,-35.664 -0.547,-12.609 -8.164,-19.02 -8.164,-19.02 0,0 -4.336,27.219 -9.992,25.664 1.945,-2.773 7.797,-11.512 7.898,-23.824 0.094,-12.301 -17.328,-23.207 -19.805,-23.383 1.625,2.25 8.422,9.32 6.688,14.801 -1.742,5.465 -6.313,11.734 -12.539,19.918 -6.305,8.266 -14.445,21.914 -15.43,34.938 -0.984,12.938 6.141,28.367 9.359,37.711 3.43,9.898 26.742,47.633 26.742,47.633 0,0 27.883,42.047 18.454,49.816 -2.867,2.375 -15.022,1.672 -21.819,-7.785 -6.359,-8.855 -5.5,-8.488 -10.961,-16.688 -7.742,-11.59 -12.594,-10.766 -12.922,-12.168 -24.914,-41.887 -59.734,-65.191 -64.867,-68.246 0,0 8.031,-7.875 10.469,-16.594 -0.141,3.063 -0.766,10.855 -0.766,10.855 0,0 22.469,-25.223 19.867,-38.359 29.055,-2.598 18.344,-16.504 15.891,-17.879 0.164,-1.656 -16.602,-8.809 -16.602,-10.383 0,0 0.391,-0.234 0.945,-0.473 5.508,1.656 6.836,1.336 6.766,0.473 -0.078,-0.859 -22.867,-26.648 -32.383,-28.457 -3.156,2.191 -3.703,0.941 -5.766,1.336 -3.141,0.473 -10.914,-9.754 -14.844,-9.984 -0.398,1.566 -4.023,3.457 -4.023,3.457 0,0 -7.852,2.359 -9.43,5.27 -1.570003,2.906 1.328,9.746 1.328,9.746 l -1.25,6.527 c 0,0 4.156,-5.191 4.391,-5.586 2.125,3.152 8.898,2.832 10.555,11.875 1.641,9.039 -5.281,12.031 -7.945,17.453 -2.672,5.426 -5.422,3.457 -7.711,3.066 -3.367003,-0.578 -11.242003,-8.488 -11.555003,-8.488 -3.547,0 -5.422,9.27 -5.344,10.527 1.016,-0.391 1.484,3.383 2.469,3.863 0.477,0.223 1.156,0.641 1.859,1.129 -12.219,-8.168 -32.344,-6.129 -32.203,-5.551 0.156,0.613 5.508,2.75 5.203,4.125 -0.234,0.977 -9.547,-1.406 -22.086,3.02 0.148,-0.059 0.281,-0.113 0.414,-0.152 0,0 -22.215,-23.051 -16.277,-39.496 7.488,-1.707 13.434,-1.051 17.863,-2.785 7.391,-2.871 10.898,-11.535 10.773,-15.609 -7.219,7.863 -9.398,5.848 -10.594,5.305 -4.469,-2 0.391,-13.559 0,-17.688 -0.422,-4.137 -5.844,-9.023 -5.844,-9.023 0,0 1.688,6.137 -7.242,9.023 -4.199,1.352 -7.68,-4.832 -10.605,-7.434 -2.953,-2.598 -8.5039996,-3.008 -8.5039996,-3.008 0,0 4.4449996,6.73 3.1679996,8.496 -2.8709996,0.074 -5.5199996,4.785 -9.3589996,5.656 -3.83899995,0.871 -7.594,-7.771 -14.1600004,-2.121 4.9020004,-0.484 5.3360004,0.938 5.8320004,1.77 2.293,3.73 -1.25,4.855 -2.793,19.465 -0.664,6.375 -0.105,13.121 0.566,18.656 1.531,12.535 10.891,26.809 16.203,55.809 0.031,0.023 0.078,0.047 0.125,0.063 -19.6880004,-8.105 -41.6640004,-13.648 -53.0700004,-25.07 -11.863,-11.863 -10.266,-30.25 -8.746,-33.027 0,-0.965 -7.941,-12.98 -23.023,-14.836 7.953,6.477 6.938,4.438 1.113,13.734 3.879,4.328 5.984,8.609 7.105,11.68 -1.098,-2.297 -3.145,-5.543 -6.977,-10.016 -4.043,-1.258 -10.578,-1.488 -18.992,0.711 11.23,1.922 9.063,14.801 9.063,14.801 0,0 2.879,1.945 8.602,4.902 -6.273,-2.695 -25.296997,1.289 -25.296997,1.289 0,0 15.390997,1.328 14.007997,10.906 7.77,5.133 16.785,15.535 20.816,17.719 1.543,0.945 0.832,1.703 8.59,3.344 28.168,34.016 73.145,61.383 78.129,63.297 5.688,-1.25 15.668,-0.832 15.668,-0.832 0,0 -4.164,0.543 -8.469,1.016 7.5,9.801 33.828,11.605 67.828,15.641 C 140.663,-10.138 158.71,15.389 161.35,15.815 c 0.828,-2.219 -1.531,-3.473 -1.813,-11.512 7.625,12.621 -1.391,50.059 12.211,64.09 13.039,13.477 31.492,25.133 36.195,31.508 1.477,1.984 3.328,6.102 2.359,17.625 -0.461,5.258 -4.297,8.164 -8.133,14.984 -2.453,1.18 -5.586,1.461 -9.617,0 -23.43,-8.43 -30.398,3.867 -30.398,3.867 0,0 14.164,-1.508 13.742,6.82 1.195,-0.227 2.578,-0.359 4.031,-0.391 -3.328,1.18 -6.594,3.93 -8.594,9.703 6.086,-3.508 11.641,3.586 14.313,7.148 2.656,3.57 5.719,0.484 5.719,0.484 0,0 7.281,-8.484 13.359,-8.578 -0.664,0.375 -18.422,4.813 -13.828,24.328 2.344,-12.297 16.5,-2.859 20.031,-7.625 0.203,-0.906 -0.063,-3.563 1.898,-6.219 1.977,-2.641 13.383,-6.672 13.383,-6.672 0,0 11.281,-18.422 11.906,-29.109 0.172,-2.953 2.844,-17.625 3.094,-43.406 -19.398,-1.688 -20.367,-14.594 -22.172,-28.625 -1.242,-9.641 -4.359,-16.594 -6.203,-20.031 3.656,5.719 14.273,19.406 30.063,15.734 10.851,-2.547 10.969,-13.735 10.016,-22.926 M 90.489997,-117.516 c -0.313,-0.281 -0.625,-0.535 -0.953,-0.793 0.343,0.274 0.671,0.528 0.953,0.793 m -1.383,-1.121 c -0.313,-0.215 -0.617,-0.449 -0.938,-0.664 0.313,0.223 0.625,0.442 0.938,0.664"
     id="path53"
     inkscape:connector-curvature="0"
     style="fill:#ffd730" /><g
     transform="translate(-1.7760026,-1.776)"
     id="g55">
		<path
   d="m 254.688,28.788 c -0.953,-9.184 -10.656,-33.344 -34.344,-69.527 -16.719,-25.543 -18.117,-38.656 -15.031,-49.871 15.375,-2.242 35.625,-23.059 35.063,-35.664 -0.547,-12.609 -8.164,-19.02 -8.164,-19.02 0,0 -4.336,27.219 -9.992,25.664 1.945,-2.773 7.797,-11.512 7.898,-23.824 0.094,-12.301 -17.328,-23.207 -19.805,-23.383 1.625,2.25 8.422,9.32 6.688,14.801 -1.742,5.465 -6.313,11.734 -12.539,19.918 -6.305,8.266 -14.445,21.914 -15.43,34.938 -0.984,12.938 6.141,28.367 9.359,37.711 3.43,9.898 26.742,47.633 26.742,47.633 0,0 27.883,42.047 18.454,49.816 -2.867,2.375 -15.022,1.672 -21.819,-7.785 -6.359,-8.855 -5.5,-8.488 -10.961,-16.688 -7.742,-11.59 -12.594,-10.766 -12.922,-12.168 -24.914,-41.887 -59.734,-65.191 -64.867,-68.246 0,0 8.031,-7.875 10.469,-16.594 -0.141,3.063 -0.766,10.855 -0.766,10.855 0,0 22.469,-25.223 19.867,-38.359 29.055,-2.598 18.344,-16.504 15.891,-17.879 0.164,-1.656 -16.602,-8.809 -16.602,-10.383 0,0 0.391,-0.234 0.945,-0.473 5.508,1.656 6.836,1.336 6.766,0.473 -0.078,-0.859 -22.867,-26.648 -32.383,-28.457 -3.156,2.191 -3.703,0.941 -5.766,1.336 -3.141,0.473 -10.914,-9.754 -14.844,-9.984 -0.398,1.566 -4.023,3.457 -4.023,3.457 0,0 -7.852,2.359 -9.43,5.27 -1.57,2.906 1.328,9.746 1.328,9.746 l -1.25,6.527 c 0,0 4.156,-5.191 4.391,-5.586 2.125,3.152 8.898,2.832 10.555,11.875 1.641,9.039 -5.281,12.031 -7.945,17.453 -2.672,5.426 -5.422,3.457 -7.711,3.066 -3.367,-0.578 -11.242,-8.488 -11.555,-8.488 -3.547,0 -5.422,9.27 -5.344,10.527 1.016,-0.391 1.484,3.383 2.469,3.863 0.477,0.223 1.156,0.641 1.859,1.129 -12.219,-8.168 -32.344,-6.129 -32.203,-5.551 0.156,0.613 5.508,2.75 5.203,4.125 -0.234,0.977 -9.547,-1.406 -22.086,3.02 0.148,-0.059 0.281,-0.113 0.414,-0.152 0,0 -22.215,-23.051 -16.277,-39.496 7.488,-1.707 13.434,-1.051 17.863,-2.785 7.391,-2.871 10.898,-11.535 10.773,-15.609 -7.219,7.863 -9.398,5.848 -10.594,5.305 -4.469,-2 0.391,-13.559 0,-17.688 -0.422,-4.137 -5.844,-9.023 -5.844,-9.023 0,0 1.688,6.137 -7.242,9.023 -4.199,1.352 -7.68,-4.832 -10.605,-7.434 -2.953,-2.598 -8.504,-3.008 -8.504,-3.008 0,0 4.445,6.73 3.168,8.496 -2.871,0.074 -5.52,4.785 -9.359,5.656 -3.839,0.871 -7.594,-7.771 -14.16,-2.121 4.902,-0.484 5.336,0.938 5.832,1.77 2.293,3.73 -1.25,4.855 -2.793,19.465 -0.664,6.375 -0.105,13.121 0.566,18.656 1.531,12.535 10.891,26.809 16.203,55.809 0.031,0.023 0.078,0.047 0.125,0.063 -19.688,-8.105 -41.664,-13.648 -53.07,-25.07 -11.863,-11.863 -10.266,-30.25 -8.746,-33.027 0,-0.965 -7.941,-12.98 -23.023,-14.836 7.953,6.477 6.938,4.438 1.113,13.734 3.879,4.328 5.984,8.609 7.105,11.68 -1.098,-2.297 -3.145,-5.543 -6.977,-10.016 -4.043,-1.258 -10.578,-1.488 -18.992,0.711 11.23,1.922 9.063,14.801 9.063,14.801 0,0 2.879,1.945 8.602,4.902 -6.273,-2.695 -25.297,1.289 -25.297,1.289 0,0 15.391,1.328 14.008,10.906 7.77,5.133 16.785,15.535 20.816,17.719 1.543,0.945 0.832,1.703 8.59,3.344 28.168,34.016 73.145,61.383 78.129,63.297 5.688,-1.25 15.668,-0.832 15.668,-0.832 0,0 -4.164,0.543 -8.469,1.016 7.5,9.801 33.828,11.605 67.828,15.641 45.672,5.391 63.719,30.918 66.359,31.344 0.828,-2.219 -1.531,-3.473 -1.813,-11.512 7.625,12.621 -1.391,50.059 12.211,64.09 13.039,13.477 31.492,25.133 36.195,31.508 1.477,1.984 3.328,6.102 2.359,17.625 -0.461,5.258 -4.297,8.164 -8.133,14.984 -2.453,1.18 -5.586,1.461 -9.617,0 -23.43,-8.43 -30.398,3.867 -30.398,3.867 0,0 14.164,-1.508 13.742,6.82 1.195,-0.227 2.578,-0.359 4.031,-0.391 -3.328,1.18 -6.594,3.93 -8.594,9.703 6.086,-3.508 11.641,3.586 14.313,7.148 2.656,3.57 5.719,0.484 5.719,0.484 0,0 7.281,-8.484 13.359,-8.578 -0.664,0.375 -18.422,4.813 -13.828,24.328 2.344,-12.297 16.5,-2.859 20.031,-7.625 0.203,-0.906 -0.063,-3.563 1.898,-6.219 1.977,-2.641 13.383,-6.672 13.383,-6.672 0,0 11.281,-18.422 11.906,-29.109 0.172,-2.953 2.844,-17.625 3.094,-43.406 -19.398,-1.688 -20.367,-14.594 -22.172,-28.625 -1.242,-9.641 -4.359,-16.594 -6.203,-20.031 3.656,5.719 14.273,19.406 30.063,15.734 10.851,-2.547 10.969,-13.735 10.016,-22.926 z M 92.266,-115.74 c -0.313,-0.281 -0.625,-0.535 -0.953,-0.793 0.343,0.274 0.671,0.528 0.953,0.793 z m -1.383,-1.121 c -0.313,-0.215 -0.617,-0.449 -0.938,-0.664 0.313,0.223 0.625,0.442 0.938,0.664 z"
   id="path57"
   inkscape:connector-curvature="0"
   style="fill:none;stroke:#010202;stroke-width:3.55200005" />
		<path
   stroke-miterlimit="16"
   d="m 133,-66.908 c 5.148,3.055 39.953,26.352 64.875,68.246 0.328,1.41 5.188,0.578 12.922,12.168 5.461,8.199 4.609,7.832 10.969,16.688 6.789,9.457 18.938,10.16 21.813,7.785 9.438,-7.77 -18.453,-49.816 -18.453,-49.816 0,0 -23.313,-37.727 -26.734,-47.633 -3.227,-9.344 -10.344,-24.773 -9.359,-37.711 0.984,-13.023 9.117,-26.672 15.422,-34.938 6.234,-8.184 10.805,-14.461 12.547,-19.918 1.734,-5.48 -5.07,-12.543 -6.688,-14.801 2.469,0.168 19.883,11.082 19.797,23.383 -0.109,12.305 -5.953,21.051 -7.898,23.824 5.656,1.555 9.992,-25.664 9.992,-25.664 0,0 7.617,6.41 8.172,19.02 0.555,12.605 -19.688,33.422 -35.063,35.664 -3.094,11.215 -1.688,24.324 15.031,49.871 23.688,36.184 33.391,60.344 34.344,69.527 0.953,9.183 0.828,20.379 -10.017,22.902 -19.835,4.609 -31.5,-18.145 -31.5,-18.145 0,0 5.828,8.379 7.633,22.441 1.82,14.031 2.781,26.938 22.164,28.625 -0.234,25.789 -2.906,40.461 -3.088,43.406 -0.625,10.688 -11.913,29.117 -11.913,29.117 0,0 -11.398,4.031 -13.375,6.672 -1.969,2.656 -1.695,5.313 -1.906,6.211 -3.523,4.773 -17.688,-4.672 -20.031,7.625 -4.594,-19.508 13.172,-23.953 13.836,-24.328 -6.086,0.102 -13.359,8.57 -13.359,8.57 0,0 -3.07,3.102 -5.727,-0.484 -2.672,-3.547 -8.219,-10.641 -14.313,-7.141 5.531,-15.844 20.516,-9.063 20.516,-9.063 0,0 -10.125,-1.344 -15.953,-0.25 0.422,-8.328 -13.734,-6.813 -13.734,-6.813 0,0 6.969,-12.297 30.391,-3.875 4.031,1.453 7.172,1.188 9.625,0 3.828,-6.813 7.672,-9.719 8.125,-14.984 0.969,-11.531 -0.875,-15.641 -2.359,-17.625 -4.703,-6.375 -23.156,-18.031 -36.188,-31.5 -13.602,-14.031 -4.586,-51.477 -12.203,-64.102 0.266,8.051 2.625,9.297 1.805,11.512 -2.641,-0.422 -20.68,-25.949 -66.352,-31.344 -34,-4.031 -60.328,-5.84 -67.836,-15.637 4.305,-0.473 8.477,-1.02 8.477,-1.02 0,0 -9.988,-0.422 -15.676,0.836 -4.986,-1.902 -49.951,-29.277 -78.13,-63.293 -7.758,-1.641 -7.047,-2.402 -8.59,-3.344 -4.031,-2.176 -13.047,-12.586 -20.816,-17.723 1.383,-9.574 -14.008,-10.902 -14.008,-10.902 0,0 20.809,-4.359 26.078,-0.887 -6.246,-3.195 -9.383,-5.305 -9.383,-5.305 0,0 2.168,-12.871 -9.063,-14.801 8.414,-2.191 14.949,-1.969 18.992,-0.711 9.16,10.68 8.199,14.551 8.199,14.551 0,0 -0.977,-8.031 -8.328,-16.215 5.824,-9.297 6.84,-7.258 -1.113,-13.738 15.082,1.855 23.023,13.871 23.023,14.84 -1.52,2.777 -3.117,21.16 8.746,33.023 16.23,16.227 53.832,20.594 75.758,37.328 14.59,11.129 12.488,28.715 -2.184,30.152 6.211,5.77 32.445,4.527 32.445,4.527 0,0 -5,4.723 -6.672,6.234 2.219,1.672 31.078,5.543 49.125,-15.398 -2.5,5.68 -4.023,8.605 -4.023,8.605 0,0 7.354,1.139 31.213,-24.244 z"
   id="path59"
   inkscape:connector-curvature="0"
   style="fill:none;stroke:#010202;stroke-width:3.55200005;stroke-miterlimit:16" />
	</g><path
     stroke-miterlimit="9"
     d="m 29.145997,-48.379 c 6.211,5.766 32.438,4.527 32.438,4.527 0,0 -5,4.719 -6.672,6.23 2.227,1.672 31.078,5.543 49.133003,-15.398 -2.508,5.68 -4.023,8.605 -4.023,8.605 0,0 7.352,1.113 31.203,-24.277 0,0 8.031,-7.875 10.477,-16.594 -0.148,3.063 -0.773,10.855 -0.773,10.855 0,0 22.477,-25.223 19.875,-38.359 29.047,-2.598 18.344,-16.504 15.891,-17.879 -0.766,-0.152 -8.258,0 -14.672,-0.313 -6.422,-0.305 -8.406,6.121 -8.406,6.121 0,0 -4.422,10.535 -14.063,23.223 -14.328,18.879 -37.281,-5.648 -49.070003,-15.879 -11.75,-10.25 -34.695,-7.953 -34.523,-7.344 0.148,0.613 5.5,2.75 5.195,4.125 -0.305,1.379 -18.797,-3.965 -38.832,12.691 0.922,0 10.246,-0.137 9.934,2.438 -0.156,1.227 -12.98,2.762 -17.262,17.578 0.906,0.305 11.516,5.824 16.328,9.504 14.603,11.119 12.494,28.712 -2.178,30.146"
     id="path61"
     inkscape:connector-curvature="0"
     style="fill:none;stroke:#010202;stroke-width:3.55200005;stroke-miterlimit:9" /><path
     d="m 15.000997,-88.027 c 4.281,-14.824 17.113,-16.352 17.27,-17.578 0.313,-2.566 -9.02,-2.438 -9.941,-2.438 6.02,-5 11.879,-8.016 17.16,-9.824 0,0 -22.215,-23.051 -16.277,-39.496 7.488,-1.707 13.434,-1.051 17.863,-2.785 7.391,-2.871 10.898,-11.535 10.773,-15.609 -7.219,7.863 -9.398,5.848 -10.594,5.305 -4.469,-2 0.391,-13.561 0,-17.688 -0.422,-4.137 -5.844,-9.023 -5.844,-9.023 0,0 1.688,6.137 -7.242,9.023 -4.199,1.352 -7.68,-4.832 -10.605,-7.434 -2.953,-2.598 -8.5039996,-3.008 -8.5039996,-3.008 0,0 4.4489996,6.73 3.1679996,8.496 -2.8709996,0.074 -5.5199996,4.785 -9.3589996,5.656 -3.83899995,0.871 -7.594,-7.771 -14.1600004,-2.121 4.9020004,-0.484 5.3360004,0.938 5.8320004,1.77 2.293,3.73 -1.25,4.855 -2.793,19.465 -0.664,6.375 -0.105,13.121 0.566,18.656 1.531,12.535 10.891,26.809 16.203,55.809 0.68,0.39 6.4839996,2.824 6.4839996,2.824 z"
     id="path63"
     inkscape:connector-curvature="0"
     style="fill:none;stroke:#010202;stroke-width:3.55200005" /><path
     stroke-miterlimit="5"
     d="m 176.693,-130.66 c -0.008,0.313 -8.258,0 -14.672,-0.313 -6.422,-0.305 -8.406,6.121 -8.406,6.121 0,0 -4.422,10.535 -14.063,23.223 -14.328,18.879 -37.281,-5.648 -49.070003,-15.879 -1.273,-1.129 -3.195,-2.441 -4.18,-2.914 -0.984,-0.488 -1.453,-4.254 -2.477,-3.863 -0.078,-1.258 1.805,-10.527 5.352,-10.527 0.305,0 8.18,7.902 11.547003,8.488 2.289,0.391 5.039,2.359 7.711,-3.063 2.664,-5.426 9.586,-8.418 7.945,-17.457 -1.656,-9.043 -8.438,-8.729 -10.555,-11.871 -0.227,0.391 -4.391,5.582 -4.391,5.582 l 1.25,-6.527 c 0,0 -2.898003,-6.832 -1.328,-9.746 1.57,-2.91 9.43,-5.27 9.43,-5.27 0,0 3.625,-1.883 4.016,-3.457 3.93,0.23 11.719,10.457 14.844,9.984 2.063,-0.395 2.609,0.855 5.766,-1.336 9.5,1.809 32.305,27.59 32.383,28.457 0.086,0.863 -1.258,1.184 -6.766,-0.473 -0.555,0.23 -0.945,0.473 -0.945,0.473 0.007,1.559 16.781,8.711 16.609,10.368 z"
     id="path65"
     inkscape:connector-curvature="0"
     style="fill:none;stroke:#110a0e;stroke-width:2.78399992;stroke-miterlimit:5" /><path
     d="m 131.716,-161.723 c 1.242,0.164 13.117,3.23 15.242,17.148 -0.477,0.785 -15.242,-2.277 -15.242,-6.688 0,-4.983 5.11,-6.054 0,-10.46"
     id="path67"
     inkscape:connector-curvature="0"
     style="fill:#010202" /><path
     d="m -137.51,32.586 c 0,0 1.211,-6.168 13.488,-4.871 1.289,-2.281 -7.879,-4.094 -7.719,-4.801 0.16,-0.719 13.223,-6.168 22.152,-4.145 -1.879,-1.438 -3.223,-2.031 -5.785,-2.246 4.504,-1.855 11,-1.488 14.465,-0.426 -3.938,-8.262 -11.832,-39.918 -8.047,-56.84 25.612997,-9.688 22.940997,-13.734 22.671997,-18.598 3.848,-4.785 -2.09,-10.512 -2.09,-10.512 l -2.285,6.43 c 0,0 -2.594,1.73 -5.785,-0.535 -3.191,-2.265 -1.129,-10.855 -2.496,-15.719 -1.366997,-4.848 -6.862997,-9.824 -6.862997,-9.824 0,0 1.254,3.855 1.488,5.008 0.23,1.137 -0.504,3.398 -5.008,3.152 -4.508,-0.258 -4.336,-4.984 -6.859,-7.234 -2.52,-2.246 -7.605,-3.52 -7.605,-3.52 0,0 3.406,7.402 2.598,8.527 -2.293,0.211 -5.191,6.859 -7.047,7.426 -1.848,0.543 -7.246,-7.918 -11.496,-2.23 5.25,-0.609 5.746,2.262 5.832,3.254 0.336,3.609 -8.48,17.465 -1.566,21.594 -6.664,15.43 0.191,24.656 0.191,24.656 0,0 -5.152,25.652 -5.754,55.637 2.847,2.075 3.519,5.817 3.519,5.817 z m 162.823997,-221.07 c 0.656,2.809 -5.781,5.105 -8.734,10.793 -13.2299996,3.328 -22.3279996,13.977 -24.9839996,20.926 m 3.847,21.8 c 2.512,-1.238 18.4099996,-33.93 31.9379996,-39.84 7.328,-3.199 6.727,0.734 12.203,-2.816 M 138.568,14.09 c 9.242,-0.047 20.375,0.395 23.141,4.906 0.031,1.887 0.68,6.109 0.984,9.109 -4.571,-0.636 -24.125,-12.984 -24.125,-14.015 z"
     id="path69"
     inkscape:connector-curvature="0"
     style="fill:none;stroke:#010202;stroke-width:3.55200005" /><path
     stroke-miterlimit="17"
     d="m -69.573003,-2.469 c 0,0 4.098,-5.504 4.816,-5.504 0.727,0 8.297,4.801 8.609,9.25 0.582,8.094 -13.336,20.422 -13.852,20.5 -2.848,0.441 -8.316,-9.828 -9.68,-10.527 -0.527,-0.262 -2.664,-2.277 -5.488,8.098 -0.871,3.168 14.418,21.785 20.418,27.027 19.777,17.328 36.695,-9.266 38.734,-11.313 5.961,-5.898 4.258,-11.156 8.273,-13.418 4.23,-2.395 9.9530004,-0.016 15.5940004,-0.426 -0.02,-7.832 -19.1680004,-11.918 -18.6560004,-12.953 0.52,-1.031 6.215,1.504 7.391,0.395 0.457,-0.426 -24.016,-29.473 -29.574,-28.688 -2.145,0.688 -3.273,2.641 -5.672,1.293 -2.41,-1.344 -8.121,-7.094 -10.348,-7.469 0.129,0.816 -2.582,2.934 -2.582,2.934 0,0 -3.273,1.113 -5.914,3 -2.645,1.891 -2.461,8.297 0.152,10.922 0.146,0.145 -2.221,6.879 -2.221,6.879 z"
     id="path71"
     inkscape:connector-curvature="0"
     style="fill:none;stroke:#010202;stroke-width:3.55200005;stroke-miterlimit:17" /><path
     stroke-miterlimit="7"
     d="m -83.190003,24.172 c 4.219,6.816 13.938,18.266 18.441,22.203 19.777,17.328 36.695,-9.266 38.734,-11.313 5.961,-5.906 4.258,-11.164 8.273,-13.426 4.23,-2.395 13.6250004,0.293 15.5940004,-0.426 0.719,5.84 2.63700005,7.559 -12.6250004,13.609 4.031,9.836 -17.359,31.461 -17.176,33.211 0.176,1.773 -0.441,-2.344 0.59,-10.5 -5.75,12.141 -16.582,27.953 -34.797,33.031 0.469,-0.953 1.98,-3.641 3.613,-7.781 -25,24.359 -50.276997,15.453 -50.276997,15.453 0,0 1.781,-1.516 6.277,-5.328 -16.625,-0.766 -23.816,-2.906 -39.16,-15.281 9.52,-1.313 13.801,-10.688 14.883,-19.453 1.078,-8.797 -3.012,-10.172 -5.145,-15.016 -2.137,-4.875 -1.539,-10.578 -1.539,-10.578 0,0 1.211,-6.168 13.488,-4.871 1.289,-2.281 -7.879,-4.094 -7.719,-4.801 0.16,-0.719 13.223,-6.168 22.152,-4.145 -1.879,-1.438 -4.191,-2.512 -6.742,-2.75 13.303,-5.471 33.134997,8.162 33.134997,8.162 z"
     id="path73"
     inkscape:connector-curvature="0"
     style="fill:none;stroke:#010202;stroke-width:3.55200005;stroke-miterlimit:7" /><path
     stroke-miterlimit="10"
     d="m -41.643003,73.914 c -5.754,6.805 -14.059,13.758 -24.523,16.656 0.473,-0.945 1.984,-3.641 3.617,-7.789 -25,24.367 -50.280997,15.461 -50.280997,15.461 0,0 1.785,-1.508 6.281,-5.328 -16.625,-0.766 -23.816,-2.898 -39.16,-15.273 9.52,-1.313 13.801,-10.688 14.879,-19.461 1.082,-8.805 -3.008,-10.164 -5.141,-15.016 -2.137,-4.867 -1.539,-10.578 -1.539,-10.578 0,0 -0.191,-2.375 -1.672,-3.902 -15.984,-13.832 -25.863,-56.344 -24.992,-61.578 0.457,-2.75 1.082,-3.766 1.082,-3.766 0,0 2.047,0.281 4.176,-0.281 2.121,-0.559 2.777,-1.109 2.777,-1.109 0,0 6.031,-0.547 7.621,-1.051 1.602,-0.504 7.387,-11.574 4.336,-18.984 -0.84,1.816 -1.965,6.051 -4.445,6.672 -2.48,0.641 -2.184,-1.664 -6.074,-3.254 1.199,-11.57 -10.055,-23.992 -10.055,-23.992 0,0 3.77,7.719 1.273,9.129 -2.496,1.398 -6.785,2.695 -6.785,2.695 l -1.719,17.664 c 0,0 0.82,-5.688 0.82,-16.664 -1.535,-3.488 -4.789,-9.379 -9.078,-14.273 1.16,3.551 4.383,8.785 -0.703,16.074 0.207,0.504 0.598,1.695 4.191,9.484 -1.992,-6.094 -16.367,-15.07 -16.367,-15.07 0,0 3.094,11.777 -3.066,18.52 4.371,1.938 1.273,40.656 12.25,42.641 2.801,5.801 5.887,75.242 20.457,93.703 1.824,0.086 16.238,-0.078 16.238,-0.078 l -2.77,0.672 c 0,0 18.73,20.82 25.578,26.047 9.449,7.18 49.862997,13.773 77.503997,16.57 27.641,2.789 41.3130004,12.859 42.1990004,11.477 0.504,-1.094 -1.887,-7.164 -5,-9.477 4.313,0.133 16.609,38.281 27.9689996,47.875 11.359,9.578 38.348,12.328 40.051,21.406 1.344,7.148 -2.703,25.969 -13.898,24.492 -1.68,-0.211 -6.609,-17.984 -9.43,-19.258 -2.828,-1.297 -10.316,-2.875 -16.973,0.836 1.137,0.344 7.953,1.914 10.609,2.523 2.313,2.375 -1.656,7.125 -3.047,7.625 -3.168,1.141 -5.672,0.375 -8.137,0.906 -6.719,1.438 -10.8479996,10.703 -10.8479996,10.703 0,0 12.2459996,0.375 12.7659996,6.969 6.578,-3.703 8.672,-6.594 13.27,-3.797 -14.867,3.391 -16.066,6.969 -18.586,17.453 5.613,-2.984 8.941,-5.453 10.598,-4.328 1.656,1.141 3.609,2.453 6.137,1.5 2.555,-0.969 8.633,-4.734 8.633,-4.734 0,0 -8.641,4.393 -9.473,6.143 -0.809,1.742 0.313,10.018 1.391,11.117 0.496,-1.117 1.691,-5.299 4.496,-5.393 2.789,-0.117 12.234,1.604 13.594,-0.461 1.367,-2.047 -0.992,0.172 1.969,-3.227 2.961,-3.445 14.805,-8.563 17.781,-10.656 3.477,-7.016 29.711,-35.656 28.461,-54.656 -17.813,-3.297 -17.477,-7.086 -19.547,-10.164 -12.984,-3 -31.938,-32.656 -33.648,-35.047 0,2.313 48.375,33.563 60.055003,37 13.406,3.922 27.484,-10.156 16.977,-25.609 -11.961,-17.563 -37.000003,-31.141 -49.977003,-35.836 -15.68,-11.852 -18.922,-11.867 -23.594,-15.25 2.227,-15.375 -10.625,-34.031 -10.625,-34.031 0,0 -5.988,-6.852 -19.27,-6.914 3.504,2.734 17.566,13.984 13.926,16.688 -16.02,-27.939 -39.2379996,-18.643 -39.2379996,-18.643 0,0 9.546,1.797 12.136,7.469 2.609,5.688 12.3869996,27.453 22.9689996,37.531 3.375,3.211 10.266,8.375 19.086,11.5 21.609,7.656 52.602,26.609 59.141003,35.094 3.398,4.406 5.594,10.484 5.492,12.672 -0.094,2.203 -2.391,4.203 -5.57,3.797 -4.102,-0.5 -52.594003,-31.836 -52.594003,-31.836 0,0 -10.484,-7.57 -31.723,-12.805 -13.9099996,-18.851 -54.625,-38.093 -63.238,-45.195 z"
     id="path75"
     inkscape:connector-curvature="0"
     style="fill:none;stroke:#010202;stroke-width:3.55200005;stroke-miterlimit:10" /><path
     d="m -44.053003,-10.957 c 11.84,3.129 14,15.441 14.168,16.832 -1.27,0.359 -12.641,-2.031 -13.864,-6.442 -1.144,-4.078 5.938,-7.175 -0.304,-10.39"
     id="path77"
     inkscape:connector-curvature="0"
     style="fill:#010202" /><path
     style="fill:none;stroke:#010202;stroke-width:3.55200005"
     inkscape:connector-curvature="0"
     id="path81"
     d="m 84.864997,59.094 c 0.734,-15.734 -13.484,-24.66 -16.422,-36.129 -2.078,-8.129 5.422,-21.488 5.422,-21.488" /><line
     style="fill:none;stroke:#010202;stroke-width:3.55200005"
     id="line85"
     y2="265.01599"
     x2="264.06"
     y1="-206.399"
     x1="-205.76401" /></g>
</svg>
