<?xml version="1.0" encoding="UTF-8" standalone="no"?>
<!-- Generator: Adobe Illustrator 16.0.2, SVG Export Plug-In . SVG Version: 6.00 Build 0)  -->

<svg
   xmlns:dc="http://purl.org/dc/elements/1.1/"
   xmlns:cc="http://creativecommons.org/ns#"
   xmlns:rdf="http://www.w3.org/1999/02/22-rdf-syntax-ns#"
   xmlns:svg="http://www.w3.org/2000/svg"
   xmlns="http://www.w3.org/2000/svg"
   xmlns:sodipodi="http://sodipodi.sourceforge.net/DTD/sodipodi-0.dtd"
   xmlns:inkscape="http://www.inkscape.org/namespaces/inkscape"
   version="1.1"
   id="Ebene_1"
   x="0px"
   y="0px"
   width="469.86301"
   height="471.44901"
   viewBox="-206.038 -206.332 469.86302 471.449"
   enable-background="new -206.038 -206.332 473.416 475.001"
   xml:space="preserve"
   inkscape:version="0.48.4 r9939"
   sodipodi:docname="Flag_of_Canton_of_Uri.svg"><metadata
   id="metadata67"><rdf:RDF><cc:Work
       rdf:about=""><dc:format>image/svg+xml</dc:format><dc:type
         rdf:resource="http://purl.org/dc/dcmitype/StillImage" /></cc:Work></rdf:RDF></metadata><defs
   id="defs65">
	
	
	
	
	
	
	
	
	
	
	
	
	
	
	
	
	
	
	
	
	
	
	
	
	
	
	
</defs><sodipodi:namedview
   pagecolor="#ffffff"
   bordercolor="#666666"
   borderopacity="1"
   objecttolerance="10"
   gridtolerance="10"
   guidetolerance="10"
   inkscape:pageopacity="0"
   inkscape:pageshadow="2"
   inkscape:window-width="1366"
   inkscape:window-height="706"
   id="namedview63"
   showgrid="false"
   fit-margin-top="0"
   fit-margin-left="0"
   fit-margin-right="0"
   fit-margin-bottom="0"
   inkscape:zoom="0.9936821"
   inkscape:cx="252.55462"
   inkscape:cy="235.7245"
   inkscape:window-x="-8"
   inkscape:window-y="-8"
   inkscape:window-maximized="1"
   inkscape:current-layer="Ebene_1" />
<rect
   style="fill:#ffd730"
   id="rect5"
   height="471.44901"
   width="469.86301"
   y="-206.33202"
   x="-206.03799" /><path
   style="fill:none;stroke:#ffffff;stroke-width:5.55999994;stroke-linecap:round;stroke-linejoin:round"
   inkscape:connector-curvature="0"
   id="path7"
   d="m -80.237007,-7.7500113 c -1.684,-10.2809997 -2.57,-21.9019997 -1.633,-29.7699997 1.328,-11.254 5.008,-22.797 10.566,-27.535 -2.785,-3.895 -16.961,-23.078 5.563,-32.262 M 138.80199,-7.7500113 c 1.68,-10.2809997 2.563,-21.9019997 1.633,-29.7699997 -1.328,-11.254 -5.008,-22.797 -10.57,-27.535 2.781,-3.895 16.961,-23.078 -5.563,-32.262" /><line
   style="fill:none;stroke:#ffffff;stroke-width:5.55999994"
   id="line9"
   y2="180.86699"
   x2="70.61499"
   y1="180.86699"
   x1="-13.776007" /><path
   style="fill:none;stroke:#ffffff;stroke-width:5.55999994;stroke-linecap:round"
   inkscape:connector-curvature="0"
   id="path11"
   d="m 132.12999,-53.492011 -69.217997,47.6949997 -0.313,90.1950003 c 0,0 0.844,12.969 4.508,20.703001 2.023,4.234 13.945,14.313 18.102,15.609 m -159.743,-174.202001 69.2230004,47.6949997 0.297,90.1950003 c 0,0 -0.824,12.969 -4.504,20.703001 -2.0160004,4.234 -13.9530004,14.313 -18.0980004,15.609" /><path
   style="fill:#010202"
   inkscape:connector-curvature="0"
   id="path13"
   d="m -66.741007,-99.231011 c 0,0 -11.371,-4.933999 -29,-50.413999 -17.633003,-45.48 -46.211003,-40.824 -46.480003,-40.762 -0.898,0.184 -2.984,0.367 -3.473,3 -0.488,2.648 1.598,3.793 2.254,4.074 0.672,0.277 17.441,4.641 25.066,51.797 8.48,52.351999 36.863003,65.159999 42.801003,66.679999 -14.496,-28.046 8.832,-34.375 8.832,-34.375" /><path
   style="fill:#010202"
   inkscape:connector-curvature="0"
   id="path15"
   d="m 154.12199,-149.64501 c 17.648,-45.48 46.211,-40.824 46.477,-40.762 0.891,0.184 2.984,0.367 3.469,3 0.5,2.648 -1.586,3.793 -2.242,4.074 -0.656,0.277 -17.43,4.641 -25.063,51.797 -8.477,52.351999 -36.867,65.159999 -42.805,66.679999 14.508,-28.047 -8.828,-34.375 -8.828,-34.375" /><path
   style="fill:#010202"
   inkscape:connector-curvature="0"
   id="path17"
   d="m 136.52099,-58.645011 c 0,0 10.953,20.809 4.563,50.9019997 0.828,1.395 12.969,11.953 34.656,5 21.695,-6.949 22.805,-31.9839997 41.727,-38.0939997 -11.962,-20.042 -38.938,-45.616 -80.946,-17.808" /><path
   style="fill:none;stroke:#ffffff;stroke-width:3.55200005;stroke-linecap:round;stroke-linejoin:round"
   inkscape:connector-curvature="0"
   id="path19"
   d="m 212.73999,-41.957011 c 0,0 -17.234,-8.625 -26.969,-8.625 -9.735,0 -31.156,13.352 -35.047,13.07 -3.898,-0.262 -7.781,-0.262 -7.781,-0.262" /><path
   style="fill:#010202"
   inkscape:connector-curvature="0"
   id="path21"
   d="m -78.167007,-59.477011 c 0,0 -10.938,20.801 -4.559,50.9019997 -0.832,1.391 -12.961,11.953 -34.648003,5 -21.695,-6.9529997 -22.816,-31.9689997 -41.723,-38.1019997 11.954,-20.015 38.93,-45.608 80.930003,-17.8" /><path
   style="fill:none;stroke:#ffffff;stroke-width:3.55200005;stroke-linecap:round;stroke-linejoin:round"
   inkscape:connector-curvature="0"
   id="path23"
   d="m -154.38901,-42.781011 c 0,0 17.254,-8.633 26.992,-8.633 9.734,0 31.141003,13.352 35.031003,13.074 3.895,-0.273 7.793,-0.273 7.793,-0.273" /><path
   style="fill:#010202"
   inkscape:connector-curvature="0"
   id="path25"
   d="m -13.753007,182.39799 h 84.477 c 0,0 1.484,15.125 -10.391,15.125 H -5.3030066 c -9.0940004,0 -8.4500004,-15.125 -8.4500004,-15.125" /><path
   style="fill:#010202"
   inkscape:connector-curvature="0"
   id="path27"
   d="m -76.678007,-51.902011 69.6950004,47.4639997 0.223,89.1640003 c 0,0 -1.895,11.703 -5.0940004,20.375001 -1.617,4.398 -13.977,14.477 -18.289,14.359 -2.488,-0.078 -11.879,-27.945001 -17.137,-37.508001 -2.543,-4.633 -22.703,-21.305 -9.957,-39.836 -37.043,-56.737 -19.441,-94.018 -19.441,-94.018" /><path
   style="fill:#010202"
   inkscape:connector-curvature="0"
   id="path29"
   d="m 134.66199,-51.902011 -69.703997,47.4639997 -0.234,89.1640003 c 0,0 1.906,11.703 5.102,20.375001 1.633,4.398 13.992,14.477 18.305,14.359 2.5,-0.078 11.859,-27.945001 17.140997,-37.508001 2.539,-4.633 22.688,-21.305 9.953,-39.836 37.03,-56.737 19.437,-94.018 19.437,-94.018" /><path
   style="fill:#ffffff"
   inkscape:connector-curvature="0"
   id="path31"
   d="m -48.272007,-18.277011 c 0,10.6559997 9.184,19.2969997 20.504,19.2969997 5.609,0 10.699,-2.129 14.402,-5.563 l -32.57,-22.6409997 c -1.481,2.672 -2.336,5.707 -2.336,8.907" /><path
   style="fill:#010202"
   inkscape:connector-curvature="0"
   id="path33"
   d="m -42.120007,-18.277011 c 0,7.473 6.426,13.5119997 14.352,13.5119997 3.867,0 7.371,-1.457 9.953,-3.801 l -22.742,-15.8159997 c -0.992,1.855 -1.563,3.921 -1.563,6.105" /><path
   style="fill:#ffffff"
   inkscape:connector-curvature="0"
   id="path35"
   d="m 105.72399,-18.277011 c 0,10.6559997 -9.171997,19.2969997 -20.499997,19.2969997 -5.594,0 -10.695,-2.129 -14.391,-5.563 L 103.37999,-27.184011 c 1.5,2.672 2.344,5.707 2.344,8.907" /><path
   style="fill:#010202"
   inkscape:connector-curvature="0"
   id="path37"
   d="m 99.582993,-18.277011 c 0,7.473 -6.422,13.5119997 -14.352,13.5119997 -3.867,0 -7.375,-1.457 -9.945,-3.801 l 22.734,-15.8159997 c 1.001,1.855 1.563,3.921 1.563,6.105" /><path
   style="fill:#010202"
   inkscape:connector-curvature="0"
   id="path39"
   d="m 95.575993,126.39799 c -1,-0.375 -9.359,0.555 -22.242,-11.789 -3.211,-3.078 -8.656,-9.852 -9,-11.133 -2.594,-9.828001 -3.477,-20.484001 -3.234,-37.242001 0.266,-19.492 0.094,-72.8710003 0.094,-72.8710003 L 133.88199,-57.020011 c 0,0 -5.328,-11.281 -13.781,-11.648 -4.125,-0.18 -70.007997,0.086 -91.089997,0.184 -21.0779996,-0.105 -86.953,-0.371 -91.07,-0.184 -8.465,0.367 -13.801,11.648 -13.801,11.648 l 72.6930004,50.3829997 c 0,0 -0.176,53.3950003 0.098,72.8710003 0.238,16.773 -0.648,27.43 -3.242,37.242001 -0.328,1.266 -5.7700004,8.055 -9.0000004,11.133 -12.871,12.344 -21.23,11.414 -22.23,11.789 -5.008,1.852 -10.848,5.75 -5.023,28.453 5.84,22.734 15.965,24.328 15.965,24.328 h 111.261 c 0,0 10.125,-1.594 15.937997,-24.328 5.827,-22.703 -0.017,-26.601 -5.023997,-28.453" /><path
   style="fill:#ffffff"
   inkscape:connector-curvature="0"
   id="path41"
   d="m -67.366007,-99.149011 c -6.586,2.566 -11.129,6.637 -12.93,11.68 -0.613,1.727 -0.91,3.52 -0.91,5.414 0,4.945 1.75,11.535 5.977,17.512 11.824,16.762 26.43,14.801 33.367,11.633 0.016,0.023 0.016,0.023 0.023,0.039 2.207,4.203 4.336,6.906 9.215,9.113 3.488,1.559 7.953,0.281 12.266,-0.961 1.496,-0.43 3.688,-1.055 4.574,-1.094 0.625,0.336 2.023,1.629 2.984,2.52 2.527,2.367 5.4100004,5.047 8.8010004,5.414 2.688,0.281 5.496,-0.781 8.465,-1.895 2.328,-0.871 4.969,-1.863 6.5659996,-1.738 0,0 0.328,0.051 0.344,0.059 0.016,0.016 0.281,0.215 0.281,0.215 2.48,2.098 5.504,3.809 17.441,3.953 12.203,-0.145 15.008,-1.977 17.219,-4.168 0,0 0.016,-0.023 0.047,-0.039 0.047,-0.008 0.109,-0.02 0.109,-0.02 1.609,-0.133 4.25,0.859 6.563,1.738 2.984,1.113 5.789,2.176 8.469,1.895 3.391,-0.367 6.273,-3.047 8.797,-5.414 0.945,-0.871 2.328,-2.16 3,-2.512 0.898,0.039 3.078,0.656 4.563,1.086 4.313,1.242 8.781,2.52 12.273,0.961 4.883,-2.199 6.992,-4.902 9.211,-9.113 0.016,-0.031 0.016,-0.031 0.016,-0.047 4.265997,1.777 21.179997,5.199 34.280997,-11.625 4.016,-5.168 5.078,-12.566 5.078,-17.512 0,-1.855 -0.313,-3.629 -0.891,-5.313 -2.125,-6.055 -7.438,-9.559 -12.516,-11.605" /><path
   style="fill:#010202"
   inkscape:connector-curvature="0"
   id="path43"
   d="m 120.59899,-96.613011 c 0.539,-1.695 0.836,-3.503999 0.836,-5.374999 0,-9.832 -8.133,-17.809 -18.188,-17.809 -2.273,0 -4.437997,0.43 -6.452997,1.184 -2.367,-7.137 -9.195,-12.281 -17.289,-12.281 -4.109,0 -7.891,1.352 -10.945,3.609 -3.164,-5.031 -8.766,-8.398 -15.18,-8.398 -3.922,0 -7.555,1.262 -10.508,3.406 -3.883,2.824 -13.504,-3.215 -13.504,-3.215 0,0 -11.832,5.039 -16.879,2.16 -2.6169996,-1.496 -5.6409996,-2.352 -8.8629996,-2.352 -6.25,0 -11.746,3.191 -14.9380004,8.016 -2.969,-2.137 -6.59,-3.418 -10.52,-3.418 -7.992,0 -14.762,5.207 -17.055,12.395 -2.074,-0.828 -4.313,-1.297 -6.68,-1.297 -9.891,0 -17.906,7.977 -17.906,17.797 0,1.906 0.313,3.729999 0.855,5.448999 -7.641,2.121 -22.613,10.434 -8.863,29.906 13.785,19.52 28.879,9.445 28.879,9.445 0,0 2.488,-1.336 4.41,2.297 1.895,3.641 3.43,5.551 7.27,7.273 3.824,1.719 13.203,-3.25 16.266,-2.297 3.063,0.961 7.4730004,7.465 11.1050004,7.84 3.62900001,0.391 10.152,-4.016 14.9259996,-3.633 4.785,0.391 0.547,4.023 17.785,4.207 17.219,-0.184 12.203,-3.824 16.992,-4.207 4.789,-0.383 11.297,4.023 14.945,3.633 3.625,-0.383 8.031,-6.879 11.094,-7.84 3.063,-0.953 12.438,4.016 16.273,2.297 3.82,-1.723 5.359,-3.633 7.273,-7.273 1.922,-3.633 4.397997,-2.297 4.397997,-2.297 0,0 15.719,9.793 29.492,-9.734 13.464,-19.106 -1.278,-27.223 -9.028,-29.488" /><path
   style="fill:#010202"
   inkscape:connector-curvature="0"
   id="path45"
   d="m 0.14599341,154.49199 c 1.40599999,2.797 0.527,6.094 -1.95300001,7.344 l -4.07,2.047 c -2.496,1.25 -5.6560004,0 -7.0740004,-2.828 l -8.129,-16.164 c -1.414,-2.82 -0.527,-6.102 1.961,-7.344 l 4.074,-2.047 c 2.496,-1.25 5.6560004,0.016 7.0630004,2.82 l 8.12800001,16.172 z" /><path
   style="fill:#010202"
   inkscape:connector-curvature="0"
   id="path47"
   d="m 56.856993,154.49199 c -1.406,2.797 -0.523,6.094 1.969,7.344 l 4.055,2.047 c 2.5,1.25 5.664,0 7.063,-2.828 l 8.125,-16.164 c 1.43,-2.82 0.547,-6.102 -1.938,-7.344 l -4.078,-2.047 c -2.5,-1.25 -5.672,0.016 -7.063,2.82 l -8.133,16.172 z" /><path
   style="fill:none;stroke:#ffffff;stroke-width:3.55200005"
   inkscape:connector-curvature="0"
   id="path49"
   d="m 56.856993,154.49199 c -1.406,2.797 -0.523,6.094 1.969,7.344 l 4.055,2.047 c 2.5,1.25 5.664,0 7.063,-2.828 l 8.125,-16.164 c 1.43,-2.82 0.547,-6.102 -1.938,-7.344 l -4.078,-2.047 c -2.5,-1.25 -5.672,0.016 -7.063,2.82 l -8.133,16.172 z m -56.71099959,0 c 1.40599999,2.797 0.527,6.094 -1.95300001,7.344 l -4.07,2.047 c -2.496,1.25 -5.6560004,0 -7.0740004,-2.828 l -8.129,-16.164 c -1.414,-2.82 -0.527,-6.102 1.961,-7.344 l 4.074,-2.047 c 2.496,-1.25 5.6560004,0.016 7.0630004,2.82 l 8.12800001,16.172 z" /><path
   style="fill:#e8423f"
   inkscape:connector-curvature="0"
   id="path51"
   d="m 63.973993,146.16399 c 3.672,-5.984 4.93,-5.828 5.031,-5.75 15.172,11.297 24.922,28.828 24.922,48.5 0,34.094 -29.25,61.75 -65.344,61.75 -36.0779996,0 -65.336,-27.656 -65.336,-61.75 0,-19.688 9.762,-37.234 24.961,-48.531 0.488,-0.359 2.6720004,-1.375 5.0000004,5.938 2.313,7.313 2.242,8.438 2.066,8.594 -9.9840004,8.422 -16.2500004,20.547 -16.2500004,34 0,25.344 22.2340004,45.984 49.559,45.984 27.336,0 49.57,-20.641 49.57,-45.984 0,-13.609 -6.43,-25.891 -16.625,-34.313 10e-4,-0.008 -1.687,-1.704 2.446,-8.438" /><path
   style="fill:none;stroke:#010202;stroke-width:3.55200005"
   inkscape:connector-curvature="0"
   id="path53"
   d="m 63.973993,146.16399 c 3.672,-5.984 4.93,-5.828 5.031,-5.75 15.172,11.297 24.922,28.828 24.922,48.5 0,34.094 -29.25,61.75 -65.344,61.75 -36.0779996,0 -65.336,-27.656 -65.336,-61.75 0,-19.688 9.762,-37.234 24.961,-48.531 0.488,-0.359 2.6720004,-1.375 5.0000004,5.938 2.313,7.313 2.242,8.438 2.066,8.594 -9.9840004,8.422 -16.2500004,20.547 -16.2500004,34 0,25.344 22.2340004,45.984 49.559,45.984 27.336,0 49.57,-20.641 49.57,-45.984 0,-13.609 -6.43,-25.891 -16.625,-34.313 10e-4,-0.008 -1.687,-1.704 2.446,-8.438 z" /><path
   style="fill:#e8423f"
   inkscape:connector-curvature="0"
   id="path55"
   d="m 46.215993,179.55499 c 1.086,3.828 1.68,8.094 1.68,12.578 0,17.188 -8.828,31.109 -19.711,31.109 -10.895,0 -19.7189996,-13.922 -19.7189996,-31.109 0,-4.469 0.582,-8.703 1.6559996,-12.516 9.969,-0.008 32.321,-0.062 36.094,-0.062" />
</svg>
