<?xml version="1.0" encoding="UTF-8" standalone="no"?>
<!-- Generator: Adobe Illustrator 16.0.2, SVG Export Plug-In . SVG Version: 6.00 Build 0)  -->

<svg
   xmlns:dc="http://purl.org/dc/elements/1.1/"
   xmlns:cc="http://creativecommons.org/ns#"
   xmlns:rdf="http://www.w3.org/1999/02/22-rdf-syntax-ns#"
   xmlns:svg="http://www.w3.org/2000/svg"
   xmlns="http://www.w3.org/2000/svg"
   xmlns:sodipodi="http://sodipodi.sourceforge.net/DTD/sodipodi-0.dtd"
   xmlns:inkscape="http://www.inkscape.org/namespaces/inkscape"
   version="1.1"
   id="Ebene_1"
   x="0px"
   y="0px"
   width="470.56598"
   height="472.16"
   viewBox="-206.049 -206.68 470.56598 472.16"
   enable-background="new -206.049 -206.68 474.134 475.712"
   xml:space="preserve"
   inkscape:version="0.48.4 r9939"
   sodipodi:docname="Flag_of_Canton_of_Valais.svg"><metadata
   id="metadata81"><rdf:RDF><cc:Work
       rdf:about=""><dc:format>image/svg+xml</dc:format><dc:type
         rdf:resource="http://purl.org/dc/dcmitype/StillImage" /></cc:Work></rdf:RDF></metadata><defs
   id="defs79">
	
	
	
	
	
	
	
	
	
	
	
	
	
	
	
	
	
	
	
	
	
	
	
	
	
	
	
	
	
	
	
	
	
	
		

		
		
			
	</defs><sodipodi:namedview
   pagecolor="#ffffff"
   bordercolor="#666666"
   borderopacity="1"
   objecttolerance="10"
   gridtolerance="10"
   guidetolerance="10"
   inkscape:pageopacity="0"
   inkscape:pageshadow="2"
   inkscape:window-width="1366"
   inkscape:window-height="706"
   id="namedview77"
   showgrid="false"
   fit-margin-top="0"
   fit-margin-left="0"
   fit-margin-right="0"
   fit-margin-bottom="0"
   inkscape:zoom="0.99219695"
   inkscape:cx="235.291"
   inkscape:cy="236.08"
   inkscape:window-x="-8"
   inkscape:window-y="-8"
   inkscape:window-maximized="1"
   inkscape:current-layer="Ebene_1" />
<g
   id="g3096"><rect
     x="29.239996"
     y="-206.68001"
     width="235.27699"
     height="472.16"
     id="rect5"
     style="fill:#e8423f" /><rect
     x="-206.049"
     y="-206.68001"
     width="235.289"
     height="472.16"
     id="rect7"
     style="fill:#ffffff" /><polygon
     transform="translate(-1.776005,-1.7759945)"
     points="159.59,-81.294 128.309,-60.982 139.012,-95.736 110.668,-114.728 146.223,-114.728 159.59,-151.095 172.965,-114.728 208.52,-114.728 180.449,-95.47 191.16,-60.982 "
     id="polygon9"
     style="fill:#ffffff" /><polygon
     transform="translate(-1.776005,-1.7759945)"
     points="159.59,-81.294 128.309,-60.982 139.012,-95.736 110.668,-114.728 146.223,-114.728 159.59,-151.095 172.965,-114.728 208.52,-114.728 180.449,-95.47 191.16,-60.982 "
     id="polygon11"
     style="fill:none;stroke:#010202;stroke-width:3.55200005" /><polygon
     transform="translate(-1.776005,-1.7759945)"
     points="159.59,7.143 128.309,27.456 139.012,-7.31 110.668,-26.294 146.223,-26.294 159.59,-62.654 172.965,-26.294 208.52,-26.294 180.449,-7.033 191.16,27.456 "
     id="polygon13"
     style="fill:#ffffff" /><polygon
     transform="translate(-1.776005,-1.7759945)"
     points="159.59,7.143 128.309,27.456 139.012,-7.31 110.668,-26.294 146.223,-26.294 159.59,-62.654 172.965,-26.294 208.52,-26.294 180.449,-7.033 191.16,27.456 "
     id="polygon15"
     style="fill:none;stroke:#010202;stroke-width:3.55200005" /><polygon
     transform="translate(-1.776005,-1.7759945)"
     points="159.59,95.569 128.309,115.881 139.012,81.124 110.668,62.139 146.223,62.139 159.59,25.768 172.965,62.139 208.52,62.139 180.449,81.389 191.16,115.881 "
     id="polygon17"
     style="fill:#ffffff" /><polygon
     transform="translate(-1.776005,-1.7759945)"
     points="159.59,95.569 128.309,115.881 139.012,81.124 110.668,62.139 146.223,62.139 159.59,25.768 172.965,62.139 208.52,62.139 180.449,81.389 191.16,115.881 "
     id="polygon19"
     style="fill:none;stroke:#010202;stroke-width:3.55200005" /><polygon
     transform="translate(-1.776005,-1.7759945)"
     points="159.59,183.983 128.309,204.311 139.012,169.553 110.668,150.569 146.223,150.569 159.59,114.209 172.965,150.569 208.52,150.569 180.449,169.827 191.16,204.311 "
     id="polygon21"
     style="fill:#ffffff" /><polygon
     transform="translate(-1.776005,-1.7759945)"
     points="159.59,183.983 128.309,204.311 139.012,169.553 110.668,150.569 146.223,150.569 159.59,114.209 172.965,150.569 208.52,150.569 180.449,169.827 191.16,204.311 "
     id="polygon23"
     style="fill:none;stroke:#010202;stroke-width:3.55200005" /><polygon
     transform="translate(-1.776005,-1.7759945)"
     points="-97.488,-81.294 -128.77,-60.982 -118.082,-95.736 -146.41,-114.728 -110.855,-114.728 -97.488,-151.095 -84.121,-114.728 -48.543,-114.728 -76.633,-95.47 -65.93,-60.982 "
     id="polygon25"
     style="fill:#e8423f" /><polygon
     transform="translate(-1.776005,-1.7759945)"
     points="-97.488,-81.294 -128.77,-60.982 -118.082,-95.736 -146.41,-114.728 -110.855,-114.728 -97.488,-151.095 -84.121,-114.728 -48.543,-114.728 -76.633,-95.47 -65.93,-60.982 "
     id="polygon27"
     style="fill:none;stroke:#010202;stroke-width:3.55200005" /><polygon
     transform="translate(-1.776005,-1.7759945)"
     points="-97.488,7.143 -128.77,27.456 -118.082,-7.31 -146.41,-26.294 -110.855,-26.294 -97.488,-62.654 -84.121,-26.294 -48.543,-26.294 -76.633,-7.033 -65.93,27.456 "
     id="polygon29"
     style="fill:#e8423f" /><polygon
     transform="translate(-1.776005,-1.7759945)"
     points="-97.488,7.143 -128.77,27.456 -118.082,-7.31 -146.41,-26.294 -110.855,-26.294 -97.488,-62.654 -84.121,-26.294 -48.543,-26.294 -76.633,-7.033 -65.93,27.456 "
     id="polygon31"
     style="fill:none;stroke:#010202;stroke-width:3.55200005" /><polygon
     transform="translate(-1.776005,-1.7759945)"
     points="-97.488,95.569 -128.77,115.881 -118.082,81.124 -146.41,62.139 -110.855,62.139 -97.488,25.768 -84.121,62.139 -48.543,62.139 -76.633,81.389 -65.93,115.881 "
     id="polygon33"
     style="fill:#e8423f" /><polygon
     transform="translate(-1.776005,-1.7759945)"
     points="-97.488,95.569 -128.77,115.881 -118.082,81.124 -146.41,62.139 -110.855,62.139 -97.488,25.768 -84.121,62.139 -48.543,62.139 -76.633,81.389 -65.93,115.881 "
     id="polygon35"
     style="fill:none;stroke:#010202;stroke-width:3.55200005" /><polygon
     transform="translate(-1.776005,-1.7759945)"
     points="-97.488,183.983 -128.77,204.311 -118.082,169.553 -146.41,150.569 -110.855,150.569 -97.488,114.209 -84.121,150.569 -48.543,150.569 -76.633,169.827 -65.93,204.311 "
     id="polygon37"
     style="fill:#e8423f" /><polygon
     transform="translate(-1.776005,-1.7759945)"
     points="-97.488,183.983 -128.77,204.311 -118.082,169.553 -146.41,150.569 -110.855,150.569 -97.488,114.209 -84.121,150.569 -48.543,150.569 -76.633,169.827 -65.93,204.311 "
     id="polygon39"
     style="fill:none;stroke:#010202;stroke-width:3.55200005" /><polygon
     transform="translate(-1.776005,-1.7759945)"
     points="31,-188.416 31,-118.638 -0.551,-98.576 10.152,-133.072 -17.93,-152.326 17.625,-152.326 "
     id="polygon41"
     style="fill:#e8423f" /><polygon
     transform="translate(-1.776005,-1.7759945)"
     points="31,-118.638 31,-188.416 44.355,-152.056 79.949,-152.056 51.59,-133.072 62.551,-98.318 "
     id="polygon43"
     style="fill:#ffffff" /><polygon
     transform="translate(-1.776005,-1.7759945)"
     points="31,-118.638 -0.551,-98.576 10.152,-133.072 -17.93,-152.326 17.625,-152.326 31,-188.416 44.355,-152.056 79.949,-152.056 51.59,-133.072 62.551,-98.318 "
     id="polygon45"
     style="fill:none;stroke:#010202;stroke-width:3.55200005" /><polygon
     transform="translate(-1.776005,-1.7759945)"
     points="31,-99.99 31,-30.193 -0.551,-10.134 10.152,-44.63 -17.93,-63.888 17.625,-63.888 "
     id="polygon47"
     style="fill:#e8423f" /><polygon
     transform="translate(-1.776005,-1.7759945)"
     points="31,-30.193 31,-99.99 44.355,-63.63 79.949,-63.63 51.59,-44.63 62.551,-9.857 "
     id="polygon49"
     style="fill:#ffffff" /><polygon
     transform="translate(-1.776005,-1.7759945)"
     points="31,-30.193 -0.551,-10.134 10.152,-44.63 -17.93,-63.888 17.625,-63.888 31,-99.99 44.355,-63.63 79.949,-63.63 51.59,-44.63 62.551,-9.857 "
     id="polygon51"
     style="fill:none;stroke:#010202;stroke-width:3.55200005" /><polygon
     transform="translate(-1.776005,-1.7759945)"
     points="31,-11.56 31,58.241 -0.551,78.264 10.152,43.795 -17.93,24.553 17.625,24.553 "
     id="polygon53"
     style="fill:#e8423f" /><polygon
     transform="translate(-1.776005,-1.7759945)"
     points="31,58.241 31,-11.56 44.355,24.815 79.949,24.815 51.59,43.795 62.551,78.553 "
     id="polygon55"
     style="fill:#ffffff" /><polygon
     transform="translate(-1.776005,-1.7759945)"
     points="31,58.241 -0.551,78.264 10.152,43.795 -17.93,24.553 17.625,24.553 31,-11.56 44.355,24.815 79.949,24.815 51.59,43.795 62.551,78.553 "
     id="polygon57"
     style="fill:none;stroke:#010202;stroke-width:3.55200005" /><polygon
     transform="translate(-1.776005,-1.7759945)"
     points="31,76.866 31,146.655 -0.551,166.702 10.152,132.241 -17.93,112.967 17.625,112.967 "
     id="polygon59"
     style="fill:#e8423f" /><polygon
     transform="translate(-1.776005,-1.7759945)"
     points="31,146.655 31,76.866 44.355,113.241 79.949,113.241 51.59,132.241 62.551,166.999 "
     id="polygon61"
     style="fill:#ffffff" /><polygon
     transform="translate(-1.776005,-1.7759945)"
     points="31,146.655 -0.551,166.702 10.152,132.241 -17.93,112.967 17.625,112.967 31,76.866 44.355,113.241 79.949,113.241 51.59,132.241 62.551,166.999 "
     id="polygon63"
     style="fill:none;stroke:#010202;stroke-width:3.55200005" /><polygon
     transform="translate(-1.776005,-1.7759945)"
     points="31,165.311 31,235.108 -0.551,255.155 10.152,220.655 -17.93,201.389 17.625,201.389 "
     id="polygon65"
     style="fill:#e8423f" /><polygon
     transform="translate(-1.776005,-1.7759945)"
     points="31,235.108 31,165.311 44.355,201.67 79.949,201.67 51.59,220.655 62.551,255.405 "
     id="polygon67"
     style="fill:#ffffff" /><polygon
     transform="translate(-1.776005,-1.7759945)"
     style="fill:none;stroke:#010202;stroke-width:3.55200005"
     id="polygon71"
     points="10.152,220.655 -17.93,201.389 17.625,201.389 31,165.311 44.355,201.67 79.949,201.67 51.59,220.655 62.551,255.405 31,235.108 -0.551,255.155 " /><line
     stroke-miterlimit="10"
     x1="29.239996"
     y1="-206.664"
     x2="29.239996"
     y2="265.465"
     id="line75"
     style="fill:none;stroke:#010202;stroke-width:3.55200005;stroke-miterlimit:10" /></g>
</svg>
