<?xml version="1.0" encoding="UTF-8" standalone="no"?>
<svg
   xmlns:dc="http://purl.org/dc/elements/1.1/"
   xmlns:cc="http://creativecommons.org/ns#"
   xmlns:rdf="http://www.w3.org/1999/02/22-rdf-syntax-ns#"
   xmlns:svg="http://www.w3.org/2000/svg"
   xmlns="http://www.w3.org/2000/svg"
   xmlns:sodipodi="http://sodipodi.sourceforge.net/DTD/sodipodi-0.dtd"
   xmlns:inkscape="http://www.inkscape.org/namespaces/inkscape"
   sodipodi:docname="Flag_of_Canton_of_Vaud.svg"
   inkscape:version="1.0beta2 (2b71d25, 2019-12-03)"
   xml:space="preserve"
   enable-background="new -205.819 -205.652 473.406 474.978"
   viewBox="-205.819 -205.652 469.85549 472.28101"
   height="472.28101"
   width="469.8555"
   y="0px"
   x="0px"
   id="Ebene_1"
   version="1.1"><metadata
   id="metadata79"><rdf:RDF><cc:Work
       rdf:about=""><dc:format>image/svg+xml</dc:format><dc:type
         rdf:resource="http://purl.org/dc/dcmitype/StillImage" /></cc:Work></rdf:RDF></metadata><defs
   id="defs77">
	
	
	
	
	
	
	
	
	
	
	
	
	
	
	
	
	
	
	
	
	
	
	
	
	
	
	
	
	
	
	
	
	

		
			
		
	</defs><sodipodi:namedview
   inkscape:document-rotation="0"
   inkscape:current-layer="g3093"
   inkscape:window-maximized="1"
   inkscape:window-y="25"
   inkscape:window-x="0"
   inkscape:cy="235.72001"
   inkscape:cx="234.927"
   inkscape:zoom="0.99373024"
   fit-margin-bottom="0"
   fit-margin-right="0"
   fit-margin-left="0"
   fit-margin-top="0"
   showgrid="false"
   id="namedview75"
   inkscape:window-height="847"
   inkscape:window-width="1440"
   inkscape:pageshadow="2"
   inkscape:pageopacity="0"
   guidetolerance="10"
   gridtolerance="10"
   objecttolerance="10"
   borderopacity="1"
   bordercolor="#666666"
   pagecolor="#ffffff" />
<g
   id="g3093"><rect
     style="fill:#ffffff"
     id="rect5"
     height="235.715"
     width="469.854"
     y="-205.65199"
     x="-205.819" /><rect
     style="fill:#16a74e"
     id="rect7"
     height="235.72301"
     width="469.854"
     y="30.905998"
     x="-205.819" /><path
     style="fill:#010202"
     inkscape:connector-curvature="0"
     id="path9"
     d="m -138.31501,-183.41 v 5.008 l 1.488,0.086 c 2.574,0.137 3.559,0.488 3.91,0.688 0.594,0.32 1.344,0.961 1.344,3.09 v 36.969 c 0,2.168 -0.813,2.832 -1.422,3.168 -0.391,0.191 -1.391,0.543 -3.793,0.637 l -1.527,0.059 v 5.039 h 47.047005 l 3.695,-20.473 h -5.191 l -0.391,1.016 c -2.129,5.516 -4.641,9.242 -7.465005,11.082 -2.84,1.832 -6.449,2.785 -10.719,2.785 -3.066,0 -4.047,-0.41 -4.336,-0.586 -0.359,-0.223 -0.578,-0.953 -0.578,-2.023 v -36.07 c 0,-3.531 0.77,-4.281 0.914,-4.395 0.352,-0.254 1.566,-0.863 5.352,-0.984 l 1.527,-0.047 v -5.047 h -29.855 v -0.002 z" /><path
     style="fill:#ffd730"
     inkscape:connector-curvature="0"
     id="path11"
     d="m -136.11601,-181.203 v 0.734 c 1.984,0.152 3.41,0.449 4.258,0.914 1.648,0.871 2.488,2.559 2.488,5.016 v 36.969 c 0,2.488 -0.883,4.207 -2.609,5.117 -0.879,0.473 -2.297,0.723 -4.137,0.832 v 0.746 h 42.992005 c 0.168,-0.922 2.664,-14.727 2.906,-16.047 h -1.058 c -2.27,5.727 -5.008,9.695 -8.152,11.734 -3.207005,2.094 -7.215005,3.152 -11.918005,3.152 -2.703,0 -4.504,-0.297 -5.496,-0.922 -1.074,-0.664 -1.625,-1.973 -1.625,-3.895 v -36.086 c 0,-3.25 0.594,-5.266 1.816,-6.164 1.07,-0.805 3.055,-1.238 5.969,-1.391 v -0.719 h -25.434 v 0.01 z" /><path
     style="fill:#010202"
     inkscape:connector-curvature="0"
     id="path13"
     d="m -87.530005,-183.41 v 5.023 l 1.512,0.07 c 2.664,0.113 3.711,0.465 4.094,0.672 0.578,0.297 1.344,0.945 1.344,3.105 v 36.984 c 0,2.176 -0.824,2.855 -1.445,3.176 -0.402,0.191 -1.457,0.543 -3.969,0.605 l -1.535,0.035 v 5.063 h 29.848 v -5.098 h -1.578 c -2.59,0 -3.902,-0.469 -4.551,-0.848 -0.688,-0.414 -1.023,-1.398 -1.023,-2.934 v -36.984 c 0,-2.176 0.785,-2.832 1.375,-3.137 0.367,-0.184 1.441,-0.527 4.273,-0.641 l 1.504,-0.063 v -5.031 h -29.849 v 0.003 z" /><path
     style="fill:#ffd730"
     inkscape:connector-curvature="0"
     id="path15"
     d="m -85.323005,-181.203 v 0.734 c 2.055,0.129 3.52,0.402 4.414,0.867 1.691,0.879 2.539,2.582 2.539,5.063 v 36.984 c 0,2.504 -0.891,4.23 -2.648,5.145 -0.93,0.473 -2.402,0.711 -4.305,0.801 v 0.734 h 25.43 v -0.711 c -2.191,-0.066 -3.871,-0.426 -5.063,-1.145 -1.383,-0.832 -2.086,-2.465 -2.086,-4.824 v -36.984 c 0,-2.504 0.863,-4.215 2.574,-5.105 0.902,-0.449 2.434,-0.719 4.574,-0.84 v -0.719 h -25.429 l 0,0 z" /><path
     style="fill:#010202"
     inkscape:connector-curvature="0"
     id="path17"
     d="m -57.749005,-183.41 v 5.008 l 1.48,0.086 c 2.527,0.137 3.488,0.488 3.84,0.68 0.328,0.184 1.281,0.707 1.281,3.098 v 36.984 c 0,2.16 -0.801,2.832 -1.398,3.16 -0.379,0.191 -1.355,0.535 -3.691,0.629 l -1.512,0.059 v 5.039 h 26.066 c 6.781,0 12.313,-1.414 16.438,-4.199 4.336,-2.914 6.5309998,-6.816 6.5309998,-11.57 0,-5.094 -2.2969998,-9.102 -6.8439998,-11.926 -1.184,-0.727 -2.512,-1.336 -3.91,-1.855 1.449,-0.648 2.832,-1.496 4.152,-2.555 2.672,-2.164 4.031,-5.109 4.031,-8.75 0,-5.906 -3.199,-10.023 -9.527,-12.215 -3.16,-1.105 -7.145,-1.648 -11.832,-1.648 h -25.105 v -0.025 z m 21.848,7.559 c 0,-1.008 0.211,-1.527 0.395,-1.688 0.086,-0.082 0.582,-0.434 2.32,-0.434 2.43,0 3.984,0.707 4.758,2.152 0.938,1.762 1.41,3.977 1.41,6.609 0,3.473 -0.656,5.84 -1.953,7.063 -0.809,0.777 -2.672,1.664 -6.922,1.848 v -15.551 l -0.008,0.001 0,0 z m 0.395,40.742 -0.016,-0.031 c -0.105,-0.176 -0.344,-0.734 -0.379,-2.168 v -17.496 c 3.082,0.051 5.402,0.473 6.859,1.281 2.719,1.52 4.031,4.609 4.031,9.479 0,3.271 -0.641,5.785 -1.883,7.473 -1.148,1.535 -3.277,2.313 -6.375,2.313 -1.749,0 -2.109,-0.64 -2.237,-0.851" /><path
     style="fill:#ffd730"
     inkscape:connector-curvature="0"
     id="path19"
     d="m -55.546005,-181.203 v 0.734 c 1.957,0.152 3.352,0.449 4.199,0.914 1.59,0.871 2.406,2.559 2.406,5.016 v 36.984 c 0,2.488 -0.863,4.191 -2.574,5.102 -0.863,0.473 -2.242,0.723 -4.031,0.832 v 0.746 h 23.863 c 6.313,0 11.43,-1.289 15.191,-3.816 3.742,-2.521 5.574,-5.711 5.574,-9.754 0,-4.328 -1.91,-7.613 -5.832,-10.063 -2,-1.23 -4.414,-2.145 -7.152,-2.672 l -0.504,-0.094 v -1.754 l 0.512,-0.098 c 2.563,-0.477 4.969,-1.613 7.188,-3.396 2.16,-1.742 3.199,-4.039 3.199,-7.023 0,-4.93 -2.633,-8.25 -8.059,-10.145 -2.91,-1.008 -6.645,-1.521 -11.102,-1.521 h -22.878 v 0.008 z m 17.446,5.352 c 0,-1.578 0.387,-2.711 1.16,-3.367 0.754,-0.648 1.977,-0.961 3.754,-0.961 3.27,0 5.52,1.129 6.703,3.32 1.121,2.086 1.672,4.648 1.672,7.648 0,4.102 -0.879,7.008 -2.648,8.664 -1.77,1.68 -5.039,2.496 -10.008,2.496 h -0.633 v -17.8 z m 0,38.593 v -19.746 l 0.617,-0.023 c 4.336,-0.09 7.449,0.426 9.52,1.59 3.434,1.898 5.168,5.738 5.168,11.395 0,3.758 -0.785,6.719 -2.328,8.785 -1.582,2.133 -4.32,3.207 -8.145,3.207 -2.008,0 -3.398,-0.656 -4.145,-1.961 -0.437,-0.719 -0.664,-1.786 -0.687,-3.247" /><path
     style="fill:#010202"
     inkscape:connector-curvature="0"
     id="path21"
     d="m -6.9790052,-183.41 v 5.008 l 1.504,0.086 c 2.594,0.137 3.559,0.488 3.93,0.695 0.61299996,0.313 1.39099996,0.961 1.39099996,3.082 v 36.984 c 0,2.109 -0.77,2.781 -1.31999996,3.094 -0.406,0.227 -1.434,0.602 -3.977,0.695 l -1.52,0.059 v 5.039 H 40.543995 l 3.75,-19.008 h -5.047 l -0.422,0.922 c -2.234,4.863 -4.805,8.191 -7.605,9.902 -2.816,1.727 -6.551,2.594 -11.121,2.594 -3.141,0 -4.023,-0.457 -4.223,-0.586 -0.496,-0.359 -0.566,-1.414 -0.566,-2.016 v -16.832 c 2.984,0.176 5.168,0.848 6.328,2.09 1.43,1.508 2.391,4.293 2.902,8.27 l 0.168,1.375 h 4.922 v -28.879 h -4.832 l -0.25,1.289 c -0.926,4.969 -2.223,7.16 -3.129,8.117 -1.016,1.082 -3.168,1.684 -6.117,1.809 v -16.031 c 0,-1.137 0.23,-1.566 0.328,-1.633 0.031,-0.016 0.621,-0.406 3.477,-0.406 5.738,0 9.648,0.801 11.676,2.383 1.988,1.563 3.449,4.633 4.355,9.137 l 0.227,1.273 h 4.836 V -183.41 H -6.9790052 z" /><path
     style="fill:#ffd730"
     inkscape:connector-curvature="0"
     id="path23"
     d="m -4.7640052,-181.203 v 0.734 c 1.984,0.152 3.426,0.449 4.27299996,0.914 1.68000004,0.863 2.53500004,2.559 2.53500004,5.016 v 36.984 c 0,2.43 -0.832,4.109 -2.47300004,5.016 -0.90199996,0.52 -2.39099996,0.809 -4.34399996,0.91 v 0.746 H 38.714995 c 0.172,-0.898 2.625,-13.266 2.875,-14.586 h -0.969 c -2.375,5.066 -5.156,8.602 -8.25,10.504 -3.168,1.938 -7.313,2.922 -12.281,2.922 -2.75,0 -4.527,-0.328 -5.488,-0.992 -1.016,-0.703 -1.52,-1.984 -1.52,-3.824 v -19.121 h 0.642 c 4.496,0 7.695,0.961 9.488,2.854 1.711,1.809 2.824,4.771 3.418,8.953 h 0.789 v -24.457 h -0.824 c -0.832,4.176 -2.016,7.059 -3.59,8.707 -1.672,1.773 -4.719,2.613 -9.297,2.566 l -0.617,-0.008 v -18.289 c 0,-1.664 0.395,-2.777 1.195,-3.383 0.773,-0.586 2.293,-0.863 4.82,-0.863 6.32,0 10.586,0.934 13.047,2.848 2.328,1.832 4,5.191 5.016,9.941 h 0.828 v -14.094 l -42.7610002,0.002 0,0 z" /><path
     style="fill:#010202"
     inkscape:connector-curvature="0"
     id="path25"
     d="m 44.090995,-183.41 v 4.965 l 1.453,0.121 c 3.195,0.281 3.969,0.785 4.094,0.879 0.328,0.25 1.063,1.211 1.063,4.508 v 33.789 c 0,3.281 -0.672,4.152 -0.875,4.344 -0.375,0.32 -1.398,0.898 -4.234,1.039 l -1.492,0.074 v 5.023 h 28.742 v -5.039 l -1.523,-0.059 c -2.984,-0.117 -3.922,-0.781 -4.18,-1.063 -0.281,-0.273 -0.906,-1.254 -0.906,-4.32 v -10.289 c 3.969,5.305 15.523,20.762 15.523,20.762 h 18.312995 v -4.848 l -1.476995,-0.105 c -0.523,-0.039 -0.961,-0.125 -1.273,-0.254 -0.086,-0.023 -0.313,-0.152 -0.641,-0.617 -0.016,-0.021 -11.086,-14.809 -14.938,-19.969 2.117,-0.68 4.164,-1.59 6.117,-3 3.609,-2.703 5.438,-6.43 5.438,-11.086 0,-6.336 -3.438,-10.77 -10.203,-13.168 -3.352,-1.129 -7.68,-1.688 -12.906,-1.688 l -26.095,0.001 0,0 z m 22.125,7.43 c 0,-0.457 0.07,-1.055 0.359,-1.285 0.016,-0.02 0.563,-0.426 3.039,-0.426 3.164,0 5.195,1.113 6.359,3.488 0.703,1.496 1.063,3.609 1.063,6.32 0,4.168 -0.852,6.895 -2.492,7.902 -1.656,1.031 -4.5,1.617 -8.328,1.793 v -17.792 z" /><path
     style="fill:#ffd730"
     inkscape:connector-curvature="0"
     id="path27"
     d="m 46.301995,-181.203 v 0.75 c 2.359,0.242 3.914,0.664 4.719,1.281 1.266,1.031 1.867,3.07 1.867,6.223 v 33.793 c 0,3.047 -0.508,4.992 -1.602,5.969 -0.953,0.879 -2.625,1.383 -4.984,1.559 v 0.738 h 24.328 v -0.73 c -2.492,-0.168 -4.188,-0.711 -5.117,-1.688 -1.016,-1.063 -1.508,-2.977 -1.508,-5.848 v -36.824 c 0,-1.367 0.414,-2.383 1.195,-3.016 0.773,-0.613 2.164,-0.902 4.414,-0.902 4,0 6.82,1.59 8.344,4.719 0.852,1.816 1.289,4.258 1.289,7.297 0,5.117 -1.156,8.313 -3.539,9.781 -2.258,1.41 -5.883,2.129 -11.047,2.203 0,0 -0.445,0 -0.57,0.008 0.156,0.184 1.125,1.422 1.125,1.422 0,0 17.25,23.098 17.625,23.586 h 15 v -0.664 c -0.477,-0.063 -0.984,-0.129 -1.359,-0.273 -0.578,-0.223 -1.133,-0.703 -1.625,-1.398 l -16.828,-22.52 1,-0.191 c 2.625,-0.473 5.141,-1.594 7.5,-3.313 3.063,-2.281 4.547,-5.328 4.547,-9.305 0,-5.375 -2.859,-9 -8.734,-11.09 -3.063,-1.039 -7.156,-1.559 -12.156,-1.559 h -23.884 v -0.008 z" /><path
     style="fill:#010202"
     inkscape:connector-curvature="0"
     id="path29"
     d="m 97.286995,-183.41 -0.102,18.504 h 5.218995 l 0.125,-1.441 c 0.445,-4.945 2.188,-8.184 5.375,-9.918 1.477,-0.793 3.594,-1.273 6.266,-1.473 v 38.559 c 0,3.16 -0.703,4.16 -1,4.434 -0.313,0.293 -1.422,0.973 -4.953,0.973 h -1.555 v 5.09 h 30.406 v -5.09 h -1.57 c -3.641,0 -4.734,-0.664 -5.047,-0.949 -0.281,-0.273 -0.969,-1.258 -0.969,-4.457 v -38.551 c 2.719,0.184 4.836,0.672 6.242,1.457 2.922,1.672 4.742,5.039 5.398,10.008 l 0.18,1.367 h 5.148 l -0.086,-18.512 -49.076995,-0.001 0,0 z" /><path
     style="fill:#ffd730"
     inkscape:connector-curvature="0"
     id="path31"
     d="m 99.481995,-181.203 c 0,1.109 -0.063,12.984 -0.063,14.102 h 1.015995 c 0.602,-5.316 2.734,-9.086 6.438,-11.102 2.063,-1.113 5.047,-1.727 8.852,-1.832 l 0.641,-0.023 v 40.887 c 0,2.992 -0.555,4.969 -1.688,6.039 -1.031,0.977 -2.984,1.473 -5.82,1.539 v 0.703 h 26 v -0.695 c -2.922,-0.074 -4.883,-0.547 -5.922,-1.523 -1.109,-1.063 -1.648,-3.047 -1.648,-6.063 v -40.887 l 0.633,0.023 c 3.891,0.105 6.875,0.719 8.875,1.832 3.453,1.977 5.578,5.742 6.391,11.102 h 1.047 c 0,-1.117 -0.063,-12.992 -0.078,-14.102 H 99.481995 l 0,0 z" /><path
     style="fill:#010202"
     inkscape:connector-curvature="0"
     id="path33"
     d="m 177.87199,-201.773 c -0.57,0.41 -1.125,0.922 -1.625,1.539 l -11.844,14.613 h 7.766 l 10.609,-7.023 c 1.078,-0.695 1.898,-1.375 2.5,-2.047 0.734,-0.855 1.109,-1.979 1.109,-3.336 0,-1.352 -0.453,-2.527 -1.359,-3.488 -0.891,-0.945 -2.172,-1.457 -3.641,-1.457 -1.233,0.007 -2.413,0.41 -3.515,1.199 m -30.523,18.363 v 5.008 l 1.508,0.086 c 2.57,0.137 3.563,0.488 3.922,0.695 0.617,0.313 1.406,0.961 1.406,3.082 v 36.984 c 0,2.109 -0.773,2.781 -1.328,3.094 -0.414,0.227 -1.445,0.602 -3.969,0.695 l -1.531,0.059 v 5.039 h 47.516 l 3.766,-19.008 h -5.063 l -0.438,0.922 c -2.234,4.863 -4.789,8.191 -7.578,9.902 -2.82,1.727 -6.563,2.594 -11.125,2.594 -3.148,0 -4.023,-0.457 -4.234,-0.586 -0.492,-0.359 -0.563,-1.414 -0.563,-2.016 v -16.832 c 3,0.176 5.156,0.848 6.313,2.09 1.438,1.508 2.422,4.293 2.922,8.27 l 0.172,1.375 h 4.922 v -28.879 h -4.828 l -0.266,1.289 c -0.922,4.969 -2.219,7.16 -3.117,8.117 -1.047,1.082 -3.164,1.684 -6.125,1.809 v -16.031 c 0,-1.137 0.227,-1.566 0.328,-1.633 0.016,-0.016 0.633,-0.406 3.492,-0.406 5.719,0 9.633,0.801 11.656,2.383 2,1.563 3.469,4.633 4.359,9.137 l 0.227,1.273 h 4.836 v -18.512 h -47.18 z" /><path
     style="fill:#ffd730"
     inkscape:connector-curvature="0"
     id="path35"
     d="m 179.18499,-199.98 -0.031,0.008 c -0.414,0.289 -0.805,0.656 -1.164,1.105 0,0 -6.594,8.137 -8.953,11.031 h 2.461 c 0.328,-0.191 10.063,-6.648 10.063,-6.648 0.906,-0.582 1.594,-1.145 2.047,-1.664 0.391,-0.438 0.578,-1.07 0.578,-1.871 0,-0.785 -0.234,-1.418 -0.758,-1.953 -0.508,-0.527 -1.164,-0.773 -2.047,-0.773 -0.766,-0.009 -1.509,0.23 -2.196,0.765 m -29.625,18.777 v 0.734 c 2,0.152 3.43,0.449 4.281,0.914 1.672,0.863 2.516,2.559 2.516,5.016 v 36.984 c 0,2.43 -0.813,4.109 -2.438,5.016 -0.938,0.52 -2.422,0.809 -4.359,0.91 v 0.746 h 43.484 c 0.188,-0.898 2.625,-13.266 2.891,-14.586 h -0.969 c -2.406,5.066 -5.172,8.602 -8.266,10.504 -3.188,1.938 -7.305,2.922 -12.273,2.922 -2.758,0 -4.539,-0.328 -5.492,-0.992 -1,-0.703 -1.516,-1.984 -1.516,-3.824 v -19.121 h 0.625 c 4.516,0 7.703,0.961 9.5,2.854 1.719,1.809 2.82,4.771 3.414,8.953 h 0.781 v -24.457 h -0.82 c -0.828,4.176 -2,7.059 -3.57,8.707 -1.688,1.773 -4.734,2.613 -9.297,2.566 l -0.625,-0.008 v -18.289 c 0,-1.664 0.398,-2.777 1.188,-3.383 0.766,-0.586 2.289,-0.863 4.828,-0.863 6.313,0 10.578,0.934 13.039,2.848 2.328,1.832 4,5.191 5.016,9.941 h 0.813 v -14.094 l -42.751,0.002 0,0 z" /><path
     style="fill:#010202"
     inkscape:connector-curvature="0"
     id="path37"
     d="m -20.370005,-114.445 v 5.016 l 1.477,0.082 c 2.586,0.145 3.586,0.496 3.93,0.695 0.625,0.32 1.406,0.969 1.406,3.09 v 36.983999 c 0,2.109 -0.75,2.773 -1.336,3.086 -0.398,0.227 -1.43,0.602 -3.949,0.695 l -1.52,0.059 v 5.047 h 47.504 l 3.742,-19.008 h -5.047 l -0.418,0.91 c -2.246,4.867 -4.805,8.195 -7.598,9.906 -2.816,1.727 -6.547,2.598 -11.1130002,2.598 -3.145,0 -4.031,-0.453 -4.23,-0.59 -0.504,-0.352 -0.578,-1.418 -0.578,-2.008 v -16.832 c 3.016,0.168 5.168,0.848 6.313,2.078 1.441,1.512 2.4410002,4.305 2.9300002,8.281 l 0.176,1.375 h 4.902 V -101.86 h -4.824 l -0.254,1.281 c -0.945,4.968999 -2.2190002,7.159999 -3.1290002,8.116999 -1.031,1.09 -3.168,1.68 -6.129,1.816 V -106.677 c 0,-1.129 0.242,-1.559 0.328,-1.633 0.016,-0.016 0.641,-0.398 3.488,-0.398 5.7190002,0 9.6410002,0.801 11.6720002,2.375 2,1.559 3.465,4.641 4.328,9.145999 l 0.266,1.273 h 4.824 V -114.43 h -47.16 v -0.014 l -10e-4,-10e-4 0,0 z" /><path
     style="fill:#ffd730"
     inkscape:connector-curvature="0"
     id="path39"
     d="m -18.163005,-112.234 v 0.734 c 2.008,0.16 3.422,0.449 4.281,0.914 1.68,0.871 2.527,2.559 2.527,5.023 v 36.983999 c 0,2.422 -0.832,4.109 -2.457,5.016 -0.922,0.512 -2.398,0.797 -4.359,0.902 v 0.754 h 43.488 c 0.184,-0.898 2.621,-13.273 2.879,-14.594 h -0.961 c -2.398,5.063 -5.168,8.609 -8.277,10.504 -3.168,1.938 -7.281,2.922 -12.2500002,2.922 -2.75,0 -4.551,-0.328 -5.504,-0.992 -0.99200004,-0.715 -1.50400004,-1.992 -1.50400004,-3.824 v -19.121 h 0.625 c 4.51200004,0 7.70300004,0.961 9.51200004,2.848 1.6950002,1.809 2.8160002,4.77 3.3910002,8.961 h 0.801 v -24.449 h -0.816 c -0.855,4.168 -2.016,7.051 -3.5740002,8.703 -1.707,1.777 -4.746,2.609 -9.31300004,2.563 l -0.625,-0.008 V -106.683 c 0,-1.664 0.391,-2.77 1.184,-3.383 0.77000004,-0.586 2.30500004,-0.855 4.83200004,-0.855 6.3130002,0 10.5780002,0.926 13.0230002,2.848 2.336,1.832 4.023,5.184 5.023,9.940999 h 0.832 V -112.241 h -42.758 v 0.007 z" /><path
     style="fill:#010202"
     inkscape:connector-curvature="0"
     id="path41"
     d="m 31.395995,-114.445 -0.078,18.515999 h 5.211 l 0.133,-1.441 c 0.414,-4.944999 2.164,-8.190999 5.359,-9.929999 1.477,-0.793 3.57,-1.27 6.242,-1.465 v 38.554999 c 0,3.168 -0.688,4.16 -0.977,4.438 -0.313,0.289 -1.414,0.969 -4.938,0.969 h -1.578 v 5.098 h 30.414 v -5.098 h -1.563 c -3.641,0 -4.75,-0.656 -5.047,-0.949 -0.297,-0.273 -0.969,-1.258 -0.969,-4.457 V -108.772 c 2.703,0.195 4.828,0.684 6.234,1.465 2.914,1.672 4.75,5.043 5.391,9.999999 l 0.18,1.379 h 5.164 l -0.094,-18.515999 -49.084,-10e-4 0,0 z" /><path
     style="fill:#ffd730"
     inkscape:connector-curvature="0"
     id="path43"
     d="m 33.590995,-112.234 c -0.016,1.109 -0.063,12.991999 -0.078,14.108999 h 1.031 c 0.609,-5.327999 2.742,-9.093999 6.43,-11.101999 2.063,-1.121 5.047,-1.738 8.852,-1.832 l 0.656,-0.023 v 40.878999 c 0,2.992 -0.563,4.977 -1.688,6.039 -1.047,0.977 -2.984,1.488 -5.828,1.543 v 0.707 h 25.984 v -0.695 c -2.906,-0.066 -4.875,-0.555 -5.891,-1.523 -1.141,-1.063 -1.664,-3.047 -1.664,-6.063 V -111.074 l 0.648,0.023 c 3.875,0.094 6.859,0.711 8.859,1.832 3.453,1.969 5.578,5.727 6.391,11.101999 h 1.047 c 0,-1.117 -0.063,-12.999999 -0.063,-14.108999 h -44.686 v -0.008 z" /><path
     style="fill:#010202"
     inkscape:connector-curvature="0"
     id="path45"
     d="m -108.65101,-45.469001 v 4.922 l 1.406,0.168 c 2.809,0.297 3.816,0.855 4.16,1.16 0.082,0.063 0.762,0.75 0.762,4.215 v 33.801 c 0,3.078 -0.586,4.016 -0.84,4.266 -0.258,0.277 -1.168,0.918 -4.016,1.109 l -1.473,0.113 v 5 h 28.465005 v -5.05 l -1.511,-0.063 c -2.816,-0.109 -3.84,-0.688 -4.203,-1.031 -0.207,-0.184 -0.887,-1.078 -0.887,-4.344 v -12.688 c 3.777,-0.031 6.785,-0.129 8.848,-0.313 2.457,-0.215 4.938,-0.84 7.395,-1.832 3.383,-1.504 5.832,-3.488 7.328,-5.953 1.469,-2.441 2.223,-5.094 2.223,-7.871 0,-5.703 -1.961,-9.816 -5.832,-12.199 -3.633,-2.266 -8.914,-3.41 -15.68,-3.41 h -26.145005 z m 21.855005,6.793 c 0,-0.375 0.063,-0.672 0.168,-0.719 0.191,-0.113 0.816,-0.359 2.504,-0.359 2.711,0 4.457,0.781 5.328,2.406 1.039,1.887 1.566,4.488 1.566,7.688 0,4.512 -0.973,7.426 -2.895,8.656 -0.77,0.488 -2.566,1.098 -6.672,1.281 l 0.001,-18.953 0,0 z" /><path
     style="fill:#ffd730"
     inkscape:connector-curvature="0"
     id="path47"
     d="m -106.43601,-43.265001 v 0.766 c 2.297,0.313 3.898,0.832 4.801,1.609 1.023,0.887 1.52,2.816 1.52,5.887 v 33.801 c 0,2.887 -0.48,4.801 -1.465,5.816 -0.902,0.918 -2.52,1.473 -4.855,1.703 v 0.754 h 24.039005 v -0.739 c -2.375,-0.168 -4.039,-0.656 -5.016,-1.574 -1.063,-1 -1.582,-2.938 -1.582,-5.953 v -14.887 h 0.625 c 4.504,0 7.949,-0.113 10.23,-0.313 2.238,-0.199 4.512,-0.77 6.754,-1.672 2.902,-1.281 5.023,-2.969 6.277,-5.051 1.266,-2.094 1.906,-4.359 1.906,-6.734 0,-4.953 -1.57,-8.328 -4.793,-10.344 -3.281,-2.031 -8.16,-3.063 -14.512,-3.063 h -23.930005 l 0.001,-0.006 0,0 z m 17.441005,4.589 c 0,-1.281 0.438,-2.184 1.313,-2.672 0.758,-0.406 1.926,-0.609 3.566,-0.609 3.543,0 5.984,1.184 7.273,3.547 1.207,2.215 1.832,5.168 1.832,8.75 0,5.313 -1.32,8.855 -3.914,10.512 -1.633,1.047 -4.719,1.594 -9.43,1.672 l -0.641,0.016 10e-4,-21.216 0,0 z" /><path
     style="fill:#010202"
     inkscape:connector-curvature="0"
     id="path49"
     d="m -42.573005,-46.594001 -17.285,42.829 c -1.602,3.93800002 -2.465,5.492 -2.906,6.082 -0.855,1.168 -1.895,1.77 -3.27,1.855 l -1.465,0.113 v 5 h 18.719 v -5.097 l -1.551,-0.016 c -1.961,-0.031 -2.961,-0.215 -3.457,-0.375 -1.105,-0.375 -1.105,-0.77 -1.105,-0.891 0,-0.406 0.129,-1.438 0.93,-3.78099998 -0.008,0 1.16,-3.18400002 1.785,-4.87100002 h 15 c 0.504,1.215 1.512,3.672 1.512,3.672 l 0.969,2.51200002 c 0.461,1.40599998 0.504,2.01599998 0.504,2.21499998 0,0.703 -0.145,0.969 -0.184,0.984 -0.289,0.129 -1.258,0.406 -4.363,0.527 l -1.512,0.063 v 5.051 h 27.832 v -5.16 l -1.621,0.047 c -1.203,0.047 -2.066,-0.359 -2.707,-1.23 -0.59,-0.832 -1.789,-2.95299998 -4.102,-8.41 l -17.418,-41.125 h -4.305 v 0.006 z m -2.344,22.11 c 1.457,3.504 4.105,9.875 5.234,12.594 h -10.16 c 1.047,-2.688 3.544,-9.067 4.926,-12.594" /><path
     style="fill:#ffd730"
     inkscape:connector-curvature="0"
     id="path51"
     d="m -41.085005,-44.371001 c -0.313,0.77 -16.727,41.441 -16.727,41.441 -1.375,3.39100002 -2.418,5.527 -3.176,6.559 -1.098,1.512 -2.559,2.375 -4.305,2.656 v 0.785 h 14.305 v -0.722 c -1.465,-0.047 -2.656,-0.184 -3.465,-0.441 -2.191,-0.75 -2.648,-2.047 -2.648,-3 0,-0.965 0.344,-2.45299998 1.039,-4.5 0.012,0 2.336,-6.363 2.336,-6.363 h 0.441 17.57 l 2.086,5.02 1.008,2.65200002 c 0.434,1.29699998 0.641,2.26599998 0.641,2.93799998 0,1.594 -0.527,2.609 -1.566,3.031 -0.785,0.328 -2.281,0.543 -4.496,0.656 v 0.723 h 23.422 v -0.724 c -1.633,-0.113 -2.953,-0.801 -3.895,-2.113 -0.984,-1.359 -2.41,-4.24599998 -4.352,-8.836 0,0 -15.234,-35.938 -16.859,-39.77 h -1.359 v 0.008 z m -4.558,15.695 h 1.383 l 7.883,18.984 h -16.699 l 7.433,-18.984 z" /><path
     style="fill:#010202"
     inkscape:connector-curvature="0"
     id="path53"
     d="m -17.370005,-45.469001 -0.09,18.512 h 5.223 l 0.113,-1.438 c 0.441,-4.938 2.1989998,-8.184 5.3909998,-9.922 1.465,-0.801 3.586,-1.277 6.24199996,-1.473 v 38.547 c 0,3.168 -0.68799996,4.16 -0.99199996,4.453 -0.305,0.281 -1.41,0.953 -4.938,0.953 h -1.574 v 5.113 H 22.410995 v -5.112 h -1.566 c -3.633,0 -4.719,-0.656 -5.031,-0.938 -0.289,-0.277 -0.977,-1.262 -0.977,-4.469 v -38.547 c 2.719,0.188 4.832,0.672 6.23,1.457 2.938,1.672 4.754,5.031 5.418,10 l 0.168,1.375 h 5.168 l -0.082,-18.512 -49.109,0.001 0,0 z" /><path
     style="fill:#ffd730"
     inkscape:connector-curvature="0"
     id="path55"
     d="m -15.163005,-43.265001 c 0,1.109 -0.074,12.98 -0.074,14.109 h 1.035 c 0.582,-5.328 2.711,-9.094 6.4139998,-11.109 2.082,-1.113 5.063,-1.723 8.863,-1.836 l 0.649,-0.016 v 40.875 c 0,3 -0.543,4.984 -1.68800004,6.047 -1.04599996,0.984 -2.98399996,1.488 -5.82399996,1.543 v 0.703 H 20.203995 v -0.703 c -2.902,-0.063 -4.871,-0.559 -5.918,-1.527 -1.105,-1.047 -1.656,-3.031 -1.656,-6.063 v -40.875 l 0.637,0.016 c 3.898,0.113 6.883,0.723 8.883,1.844 3.445,1.965 5.574,5.719 6.391,11.094 h 1.055 c 0,-1.129 -0.07,-13 -0.07,-14.109 h -44.688 l -10e-4,0.007 0,0 z" /><path
     style="fill:#010202"
     inkscape:connector-curvature="0"
     id="path57"
     d="m 32.856995,-45.469001 v 4.969 l 1.453,0.129 c 3.188,0.277 3.969,0.77 4.078,0.871 0.328,0.25 1.078,1.199 1.078,4.504 v 33.801 c 0,3.281 -0.672,4.145 -0.875,4.328 -0.375,0.328 -1.406,0.902 -4.227,1.047 l -1.507,0.082 v 5.031 h 28.734 v -5.047 l -1.508,-0.066 c -2.992,-0.109 -3.93,-0.766 -4.195,-1.047 -0.25,-0.297 -0.875,-1.281 -0.875,-4.328 v -10.281 c 3.953,5.297 15.5,20.77 15.5,20.77 h 18.313 v -4.856 l -1.461,-0.113 c -0.539,-0.031 -0.984,-0.129 -1.281,-0.246 -0.094,-0.035 -0.32,-0.16 -0.641,-0.625 -0.023,-0.016 -11.078,-14.801 -14.93,-19.969 2.109,-0.672 4.164,-1.578 6.109,-3 3.594,-2.703 5.422,-6.422 5.422,-11.094 0,-6.328 -3.422,-10.754 -10.188,-13.145 -3.328,-1.145 -7.656,-1.707 -12.883,-1.707 h -26.116 v -0.008 z m 22.133,7.442 c 0,-0.473 0.047,-1.047 0.344,-1.297 0.031,-0.016 0.57,-0.422 3.031,-0.422 3.195,0 5.195,1.109 6.367,3.488 0.711,1.484 1.078,3.621 1.078,6.328 0,4.164 -0.859,6.887 -2.492,7.902 -1.672,1.016 -4.508,1.609 -8.328,1.801 v -17.8 z" /><path
     style="fill:#ffd730"
     inkscape:connector-curvature="0"
     id="path59"
     d="m 35.059995,-43.265001 v 0.75 c 2.359,0.25 3.93,0.672 4.719,1.297 1.273,1.016 1.883,3.063 1.883,6.215 v 33.801 c 0,3.031 -0.523,4.984 -1.602,5.969 -0.961,0.871 -2.633,1.375 -5,1.559 v 0.738 h 24.32 v -0.74 c -2.492,-0.168 -4.18,-0.703 -5.117,-1.688 -1.016,-1.066 -1.5,-2.969 -1.5,-5.84 v -36.832 c 0,-1.375 0.406,-2.395 1.188,-3.016 0.773,-0.625 2.172,-0.906 4.406,-0.906 4.016,0 6.828,1.594 8.359,4.723 0.844,1.816 1.281,4.262 1.281,7.297 0,5.109 -1.156,8.309 -3.531,9.781 -2.266,1.41 -5.891,2.129 -11.055,2.199 0,0 -0.445,0 -0.555,0 0.148,0.184 1.117,1.426 1.117,1.426 0,0 17.243,23.095 17.618,23.595 h 15 v -0.672 c -0.469,-0.066 -0.961,-0.129 -1.359,-0.281 -0.57,-0.219 -1.133,-0.688 -1.602,-1.395 l -16.836,-22.512 0.984,-0.184 c 2.633,-0.488 5.156,-1.605 7.508,-3.328 3.047,-2.277 4.539,-5.328 4.539,-9.313 0,-5.359 -2.867,-8.98 -8.742,-11.063 -3.07,-1.047 -7.148,-1.574 -12.148,-1.574 h -23.875 v -0.006 z" /><path
     style="fill:#010202"
     inkscape:connector-curvature="0"
     id="path61"
     d="m 87.903995,-45.469001 v 5.031 l 1.516,0.066 c 2.656,0.113 3.703,0.473 4.094,0.672 0.578,0.313 1.344,0.953 1.344,3.113 V 0.39899902 c 0,2.16399998 -0.828,2.85499998 -1.445,3.16399998 -0.398,0.203 -1.461,0.547 -3.969,0.609 l -1.54,0.047 v 5.066 h 29.858995 v -5.113 h -1.578 c -2.578,0 -3.906,-0.473 -4.547,-0.855 -0.672,-0.41 -1.016,-1.391 -1.016,-2.91799998 V -36.585001 c 0,-2.168 0.781,-2.832 1.375,-3.145 0.359,-0.184 1.445,-0.512 4.266,-0.641 l 1.508,-0.066 v -5.031 l -29.866995,-10e-4 0,0 z" /><path
     style="fill:#ffd730"
     inkscape:connector-curvature="0"
     id="path63"
     d="m 90.121995,-43.265001 v 0.719 c 2.063,0.145 3.523,0.422 4.422,0.887 1.688,0.871 2.539,2.578 2.539,5.066 V 0.39099902 c 0,2.49999998 -0.898,4.22999998 -2.664,5.14099998 -0.922,0.473 -2.398,0.703 -4.297,0.801 v 0.738 h 25.452995 v -0.707 c -2.203,-0.063 -3.891,-0.438 -5.078,-1.145 -1.391,-0.84 -2.117,-2.469 -2.117,-4.82799998 V -36.593001 c 0,-2.516 0.883,-4.234 2.594,-5.113 0.898,-0.457 2.438,-0.723 4.586,-0.84 v -0.719 H 90.121995 z" /><path
     style="fill:#010202"
     inkscape:connector-curvature="0"
     id="path65"
     d="m 117.54399,-45.469001 v 5.016 l 1.5,0.082 c 2.578,0.145 3.563,0.504 3.922,0.688 0.625,0.328 1.391,0.984 1.391,3.098 V 0.39899902 c 0,2.10899998 -0.766,2.76599998 -1.313,3.09399998 -0.406,0.215 -1.438,0.609 -3.977,0.688 l -1.523,0.047 v 5.066 h 47.516 l 3.75,-19.016 h -5.047 l -0.422,0.902 c -2.242,4.871 -4.813,8.19900002 -7.602,9.922 -2.82,1.719 -6.57,2.59 -11.117,2.59 -3.141,0 -4.031,-0.457 -4.227,-0.59 -0.492,-0.359 -0.57,-1.41 -0.57,-2.016 v -16.832 c 3,0.184 5.164,0.855 6.328,2.094 1.422,1.504 2.391,4.297 2.906,8.266 l 0.172,1.391 h 4.906 v -28.887 h -4.828 l -0.242,1.281 c -0.93,4.965 -2.227,7.156 -3.133,8.109 -1.031,1.098 -3.164,1.688 -6.125,1.832 v -16.031 c 0,-1.145 0.25,-1.574 0.344,-1.641 0.016,-0.016 0.617,-0.406 3.469,-0.406 5.734,0 9.656,0.801 11.672,2.375 2,1.574 3.453,4.656 4.344,9.16 l 0.25,1.266 h 4.828 v -18.516 h -47.172 v -0.016 z" /><path
     style="fill:#ffd730"
     inkscape:connector-curvature="0"
     id="path67"
     d="m 119.77099,-43.265001 v 0.734 c 1.984,0.16 3.414,0.457 4.266,0.922 1.672,0.855 2.539,2.543 2.539,5.016 V 0.39099902 c 0,2.42199998 -0.828,4.10899998 -2.469,5.01599998 -0.906,0.512 -2.406,0.797 -4.344,0.902 v 0.754 h 43.469 c 0.188,-0.906 2.625,-13.281 2.891,-14.594 h -0.969 c -2.391,5.063 -5.156,8.609 -8.25,10.504 -3.164,1.934 -7.313,2.918 -12.273,2.918 -2.758,0 -4.539,-0.328 -5.492,-0.984 -1.016,-0.703 -1.523,-1.98 -1.523,-3.828 v -19.113 h 0.617 c 4.516,0 7.727,0.953 9.508,2.84 1.711,1.816 2.82,4.785 3.414,8.969 h 0.781 v -24.473 h -0.813 c -0.836,4.168 -2.016,7.047 -3.594,8.719 -1.672,1.77 -4.703,2.609 -9.297,2.543 h -0.617 v -18.277 c 0,-1.672 0.391,-2.77 1.195,-3.395 0.75,-0.59 2.297,-0.855 4.82,-0.855 6.305,0 10.586,0.938 13.031,2.84 2.344,1.832 4.016,5.188 5.031,9.953 h 0.82 v -14.113 h -42.742 l 10e-4,0.018 0,0 z" /></g>
</svg>
