<!DOCTYPE svg PUBLIC "-//W3C//DTD SVG 20010904//EN" "http://www.w3.org/TR/2001/REC-SVG-20010904/DTD/svg10.dtd">
<svg version="1.0" xmlns="http://www.w3.org/2000/svg" width="1035px" height="650px" viewBox="0 0 10350 6500" preserveAspectRatio="xMidYMid meet">
<g id="layer101" fill="#00a043" stroke="none">
 <path d="M0 3250 l0 -3250 5175 0 5175 0 0 3250 0 3250 -5175 0 -5175 0 0 -3250z m4695 1920 c3 -5 4 -10 1 -10 -3 0 -8 5 -11 10 -3 6 -4 10 -1 10 3 0 8 -4 11 -10z m-1308 -787 c-4 -3 -10 -3 -14 0 -3 4 0 7 7 7 7 0 10 -3 7 -7z"/>
 </g>
<g id="layer102" fill="#fce100" stroke="none">
 <path d="M0 3250 l0 -3250 5175 0 5175 0 0 3250 0 3250 -5175 0 -5175 0 0 -3250z m5879 1873 c-68 -75 -151 -204 -194 -302 -50 -112 -65 -218 -65 -446 0 -179 1 -193 20 -210 19 -17 21 -17 61 0 55 25 103 87 96 124 -8 38 14 97 49 130 16 15 45 45 64 67 49 56 104 88 137 79 34 -8 75 -55 69 -78 -4 -18 32 -86 47 -87 4 0 17 15 28 34 11 19 26 37 34 40 8 3 18 20 23 38 5 19 18 38 32 45 13 6 30 23 37 37 16 30 53 35 73 11 9 -11 22 -14 42 -10 24 6 31 2 46 -24 21 -37 32 -39 60 -6 33 38 66 32 117 -19 31 -30 45 -52 45 -70 0 -30 20 -42 47 -28 10 6 43 35 73 66 30 31 61 56 68 56 28 0 113 -33 125 -49 7 -9 24 -24 38 -33 49 -31 56 -190 11 -241 -9 -10 -17 -28 -18 -40 -1 -33 -14 -67 -25 -67 -5 0 -17 -17 -26 -37 -10 -21 -25 -47 -34 -58 -9 -11 -22 -37 -29 -57 -9 -30 -18 -40 -43 -46 -19 -5 -37 -19 -47 -37 -10 -18 -26 -31 -41 -33 -13 -2 -31 -9 -39 -16 -8 -7 -33 -18 -56 -24 -53 -15 -82 -45 -64 -67 20 -24 53 -18 81 14 34 39 70 47 119 28 36 -14 40 -14 56 4 9 10 26 21 38 25 11 4 27 15 34 25 7 11 24 19 38 19 14 0 32 7 40 15 21 21 42 19 89 -8 25 -14 41 -31 43 -45 2 -12 9 -34 17 -48 11 -21 10 -33 -2 -72 -8 -26 -16 -59 -17 -73 -2 -15 -12 -39 -24 -54 -12 -15 -22 -34 -22 -41 0 -12 -41 -54 -86 -89 -16 -12 -17 -16 -5 -24 9 -6 22 -6 32 0 35 18 69 9 110 -28 l42 -38 -6 -108 c-7 -108 -17 -141 -58 -192 -9 -11 -19 -31 -22 -45 -4 -14 -31 -44 -61 -69 -64 -50 -80 -93 -52 -136 9 -13 16 -30 16 -38 0 -33 -133 -147 -172 -147 -9 0 -21 -6 -28 -14 -6 -8 -21 -16 -32 -18 -12 -2 -23 -9 -26 -15 -3 -10 13 -13 56 -13 75 0 130 -22 138 -55 18 -71 -69 -187 -161 -214 -25 -7 -45 -16 -45 -20 0 -9 58 -43 99 -58 19 -7 43 -21 53 -30 26 -23 14 -77 -29 -129 -18 -23 -33 -48 -33 -57 0 -9 -15 -20 -35 -27 -19 -6 -37 -20 -40 -31 -4 -10 -18 -22 -33 -26 -14 -3 -61 -30 -104 -60 l-79 -53 -94 0 c-82 0 -96 -2 -104 -19 -6 -10 -24 -24 -41 -31 -26 -11 -30 -17 -26 -36 7 -27 -27 -100 -58 -127 -61 -53 -96 -67 -164 -70 -64 -1 -106 8 -162 38 -17 9 -31 10 -40 5 -35 -23 -109 3 -150 51 l-20 24 -23 -27 c-12 -15 -37 -31 -55 -34 -19 -4 -40 -17 -49 -30 -8 -13 -22 -24 -30 -24 -7 0 -26 -12 -41 -28 -30 -30 -37 -35 -113 -75 -33 -17 -63 -27 -78 -24 -13 3 -37 -3 -54 -14 -17 -10 -35 -15 -41 -12 -5 4 -39 8 -75 9 -120 5 -173 14 -198 34 -14 11 -40 20 -58 20 -19 0 -39 8 -50 20 -10 11 -29 20 -43 20 -14 0 -36 13 -53 31 -16 17 -41 34 -56 38 -16 4 -38 23 -51 42 -13 19 -34 40 -47 46 -13 7 -26 22 -30 32 -3 11 -21 29 -40 40 -19 11 -35 27 -35 35 0 8 -11 28 -25 44 -14 17 -25 37 -25 45 0 8 -9 26 -20 40 -11 14 -20 35 -20 47 0 27 -26 49 -56 50 -12 0 -35 7 -50 15 -16 8 -38 15 -49 15 -11 0 -29 7 -39 15 -11 8 -29 15 -41 15 -12 0 -32 11 -44 24 -13 14 -33 26 -45 28 -11 2 -27 15 -34 30 -7 15 -22 30 -33 33 -12 4 -28 23 -36 43 -8 21 -28 49 -44 64 -20 19 -29 36 -29 58 0 18 -9 45 -21 61 -13 19 -19 38 -15 52 3 13 -1 35 -9 51 -8 16 -15 37 -15 47 0 16 -7 19 -41 19 -33 0 -46 6 -75 38 -64 68 -108 144 -105 178 2 33 4 31 -89 99 -37 27 -53 52 -90 140 -20 46 -22 123 -5 148 8 12 15 29 15 39 0 9 9 22 20 28 28 15 26 25 -23 99 -40 60 -44 71 -39 114 4 43 7 49 42 67 27 14 49 18 71 13 44 -8 35 16 -14 40 -34 17 -64 44 -120 105 -11 12 -19 38 -21 64 -2 38 3 50 32 84 29 33 39 39 74 39 23 0 43 5 44 10 4 13 -62 55 -88 55 -11 0 -33 11 -50 25 -16 14 -40 25 -52 25 -30 0 -76 43 -76 70 0 12 -8 32 -18 45 -10 12 -24 42 -32 65 -12 38 -12 46 3 72 9 16 17 39 17 50 0 29 60 89 87 86 12 -2 32 7 46 20 24 23 26 23 51 7 19 -13 30 -14 39 -7 23 19 204 2 240 -23 14 -10 25 -10 47 -2 23 9 36 8 65 -6 20 -10 40 -15 45 -12 24 15 63 -11 98 -64 75 -113 242 -161 399 -112 96 29 271 128 294 166 12 19 19 49 19 84 0 90 26 119 135 152 22 6 52 16 66 21 32 11 85 61 91 86 19 72 -127 371 -240 495 l-26 27 628 0 628 0 -53 -57z"/>
 <path d="M4873 4420 c-66 -30 -77 -45 -107 -136 -18 -56 -63 -105 -137 -151 -156 -96 -195 -139 -154 -170 38 -27 237 -8 385 38 99 30 106 38 114 111 16 136 23 313 13 326 -14 18 -45 14 -114 -18z"/>
 </g>

</svg>
