<?xml version="1.0" standalone="no"?>
<!DOCTYPE svg PUBLIC "-//W3C//DTD SVG 20010904//EN"
 "http://www.w3.org/TR/2001/REC-SVG-20010904/DTD/svg10.dtd">
<svg version="1.0" xmlns="http://www.w3.org/2000/svg"
 width="780.000000pt" height="498.000000pt" viewBox="0 0 780.000000 498.000000"
 preserveAspectRatio="xMidYMid meet">
<metadata>
Created by potrace 1.15, written by Peter Selinger 2001-2017
</metadata>
<g fill="#ffd100" stroke="none">
<rect  x="50" y="20" width="680" height="398"  />
</g>

<g transform="translate(0.000000,498.000000) scale(0.100000,-0.100000)"
fill="#0073cf" stroke="none">
<path d="M32 4938 c-16 -16 -18 -4869 -2 -4899 11 -19 65 -19 3870 -19 3494 0
3860 1 3874 16 14 14 16 250 16 2445 0 1656 -3 2436 -10 2450 -11 19 -65 19
-3873 19 -2991 0 -3866 -3 -3875 -12z m4043 -1166 c79 -13 216 -87 279 -149
31 -30 58 -63 61 -74 8 -26 85 -26 141 0 56 26 140 36 159 21 12 -10 15 -38
15 -122 0 -60 5 -118 10 -128 6 -11 28 -24 49 -30 139 -37 280 -191 348 -378
38 -104 46 -157 40 -292 -5 -143 -14 -174 -84 -274 -18 -26 -33 -52 -33 -58 0
-5 32 -55 71 -111 39 -55 73 -106 76 -113 9 -24 -34 -50 -137 -83 -58 -19
-108 -37 -113 -41 -4 -3 -12 -45 -17 -92 -27 -237 -215 -444 -484 -532 -128
-42 -206 -47 -292 -17 -31 11 -63 17 -74 13 -10 -4 -48 -45 -84 -92 -37 -47
-71 -91 -76 -97 -14 -17 -56 -17 -70 0 -6 6 -40 51 -76 99 -35 48 -69 90 -73
93 -5 2 -37 -4 -71 -15 -184 -59 -424 24 -610 210 -74 75 -81 84 -111 137 -36
64 -60 144 -67 222 l-7 75 -45 17 c-25 10 -76 30 -115 45 -38 14 -76 32 -83
38 -19 18 -3 51 68 148 33 45 60 92 60 104 0 11 -15 41 -34 66 -50 65 -86 188
-86 293 0 46 6 104 14 127 8 24 17 59 21 78 18 95 110 251 189 324 45 41 129
94 162 102 16 4 41 13 57 21 l27 14 0 118 c0 98 3 122 18 140 16 20 19 21 57
7 85 -30 172 -56 192 -56 12 0 32 15 48 38 75 101 207 182 338 207 76 14 252
13 342 -3z"/>
<path d="M3258 3408 c-29 -17 -58 -62 -58 -91 0 -3 24 -22 53 -41 74 -49 152
-148 174 -218 16 -53 5 -86 -47 -149 -26 -31 -57 -78 -69 -105 -13 -27 -28
-60 -36 -74 -27 -52 -57 -231 -50 -302 8 -86 -6 -115 -77 -153 -66 -37 -140
-54 -239 -54 -82 -1 -89 -6 -89 -56 0 -28 45 -85 67 -85 8 0 33 15 56 34 83
68 215 108 301 92 29 -6 41 -16 69 -61 93 -149 245 -263 418 -314 85 -26 99
-35 117 -74 31 -70 23 -278 -13 -317 -24 -26 -19 -59 11 -70 36 -14 97 -12
118 3 17 12 16 16 -5 72 -17 45 -24 87 -27 163 -3 90 -1 108 19 146 18 38 30
47 76 65 30 12 62 21 72 21 23 0 114 46 181 91 78 53 132 108 185 190 28 42
57 74 73 80 81 32 253 -22 336 -104 36 -36 40 -38 64 -25 14 7 33 30 42 51 33
73 -1 119 -72 99 -40 -11 -193 13 -219 34 -8 6 -23 14 -35 18 -11 3 -35 21
-53 40 l-33 34 1 104 c1 56 -3 126 -8 153 -11 55 -39 144 -53 161 -4 6 -20 33
-34 60 -14 26 -44 71 -67 98 -35 41 -42 57 -41 90 2 84 107 226 202 275 48 25
56 35 48 65 -6 24 -72 66 -104 66 -30 0 -52 -27 -52 -63 0 -18 -7 -43 -15 -57
-7 -14 -21 -40 -29 -59 -9 -18 -45 -62 -81 -97 -57 -56 -70 -64 -103 -64 -21
0 -47 6 -58 14 -36 26 -185 58 -269 59 -87 1 -208 -24 -267 -54 -84 -43 -151
-11 -234 111 -43 62 -74 136 -74 175 0 42 -25 50 -72 23z m792 -329 c25 -5 79
-27 120 -47 93 -46 232 -180 268 -257 12 -27 30 -63 38 -80 27 -51 40 -203 26
-309 -27 -216 -178 -397 -407 -486 -81 -32 -292 -36 -370 -6 -223 83 -340 197
-410 399 -34 99 -36 274 -4 369 32 98 74 171 143 247 65 70 224 158 316 174
51 9 236 6 280 -4z"/>
</g>
</svg>
