<?xml version="1.0" encoding="UTF-8"?>
<svg id="svg" width="400" height="254.37" version="1.1" viewBox="0 0 400 254.37" xmlns="http://www.w3.org/2000/svg"><g id="svgg" fill-rule="evenodd"><path d="m0 127.23v127.23h36.387 36.387v-127.23-127.23h-36.387-36.387v127.23m327.74 0v127.23h36.133 36.132v-127.23-127.23h-36.132-36.133v127.23m-128.18-80.47c-1.493 2.156-4.676 12.516-6.274 20.42-3.66 18.1-3.738 46.24-0.17 61.766 0.293 1.278 1.017 4.799 1.228 5.982 0.224 1.25-0.292 0.714-1.331-1.383-10.071-20.308-29.015-42.038-47.074-53.996-8.222-5.444-8.725-5.469-7.393-0.374 2.28 8.723 5.937 17.766 10.533 26.045 5.556 10.008 23.105 29.08 33.371 36.268 1.418 0.994 0.384 0.902-2.443-0.216-2.739-1.083-7.511-2.687-9.132-3.07-0.56-0.132-1.647-0.409-2.417-0.616-1.238-0.332-4.079-0.938-8.015-1.709-7.3-1.429-24.127-1.66-25.438-0.348-1.54 1.54 9.379 9.796 18.122 13.703 8.983 4.015 22.385 6.615 30.216 5.862 3.053-0.294 3.302 0.133 0.728 1.246-8.579 3.711-18.047 10.59-23.296 16.927-2.878 3.473-2.647 4.116 1.237 3.442 11.021-1.912 23.75-8.952 32.962-18.23 1.919-1.932 3.551-3.513 3.626-3.513 0.232 0 0.139 10.921-0.113 13.359-0.741 7.172-2.302 14.584-4.417 20.977-0.622 1.881-1.074 3.569-1.004 3.753 0.189 0.491 14.209 0.488 14.398-3e-3 0.07-0.184-0.325-1.701-0.879-3.371-1.36-4.102-2.239-7.516-3.297-12.807-1.125-5.632-2.136-21.908-1.36-21.908 0.107 0 1.523 1.354 3.146 3.008 9.521 9.705 22.227 16.804 33.567 18.755 3.207 0.551 3.86 0.041 2.416-1.892-5.058-6.772-15.305-14.477-24.599-18.497-2.572-1.112-2.323-1.534 0.728-1.232 9.075 0.898 24.16-2.513 33.969-7.683 5.555-2.927 14.758-9.92 14.758-11.214 0-1.939-16.476-2.154-25.827-0.336-9.111 1.772-12.864 2.814-19.689 5.466-2.963 1.151-3.65 1.102-1.924-0.138 8.288-5.954 20.102-18.109 28.79-29.621 5.613-7.438 11.491-20.24 14.555-31.701 1.533-5.737 1.135-5.804-6.21-1.036-18.28 11.863-36.727 32.729-47.726 53.983-0.76 1.47-1.411 2.72-1.447 2.778-0.291 0.483-0.35-0.5-0.094-1.573 0.174-0.733 0.421-1.847 0.548-2.477s0.343-1.66 0.48-2.29c4.924-22.615 3.117-56.083-4.159-77.058-2.117-6.102-2.648-6.895-3.65-5.448" fill="#14ac54"/><path d="m72.774 127.23v127.23h127.48 127.48v-127.23-127.23h-127.48-127.48v127.23m128.06-80.725c1.336 1.483 4.743 12.484 6.403 20.675 3.686 18.181 3.741 45.475 0.125 62.086-0.137 0.63-0.353 1.66-0.48 2.29s-0.374 1.744-0.548 2.477c-0.256 1.073-0.197 2.056 0.094 1.573 0.036-0.058 0.687-1.308 1.447-2.778 10.999-21.254 29.446-42.12 47.726-53.983 7.345-4.768 7.743-4.701 6.21 1.036-3.064 11.461-8.942 24.263-14.555 31.701-8.688 11.512-20.502 23.667-28.79 29.621-1.726 1.24-1.039 1.289 1.924 0.138 6.825-2.652 10.578-3.694 19.689-5.466 7.43-1.444 24.128-1.657 25.461-0.323 1.659 1.659-10.442 10.529-19.51 14.298-8.613 3.58-21.702 5.966-28.851 5.258-3.051-0.302-3.3 0.12-0.728 1.232 9.294 4.02 19.541 11.725 24.599 18.497 1.444 1.933 0.791 2.443-2.416 1.892-11.34-1.951-24.046-9.05-33.567-18.755-1.623-1.654-3.039-3.008-3.146-3.008-0.776 0 0.235 16.276 1.36 21.908 1.058 5.291 1.937 8.705 3.297 12.807 0.554 1.67 0.949 3.187 0.879 3.371-0.189 0.491-14.209 0.494-14.398 3e-3 -0.07-0.184 0.382-1.872 1.004-3.753 2.115-6.393 3.676-13.805 4.417-20.977 0.252-2.438 0.345-13.359 0.113-13.359-0.075 0-1.707 1.581-3.626 3.513-9.212 9.278-21.941 16.318-32.962 18.23-3.884 0.674-4.115 0.031-1.237-3.442 5.249-6.337 14.717-13.216 23.296-16.927 2.574-1.113 2.325-1.54-0.728-1.246-7.831 0.753-21.233-1.847-30.216-5.862-8.743-3.907-19.662-12.163-18.122-13.703 1.311-1.312 18.138-1.081 25.438 0.348 3.936 0.771 6.777 1.377 8.015 1.709 0.77 0.207 1.857 0.484 2.417 0.616 1.621 0.383 6.393 1.987 9.132 3.07 2.827 1.118 3.861 1.21 2.443 0.216-10.266-7.188-27.815-26.26-33.371-36.268-4.596-8.279-8.253-17.322-10.533-26.045-1.332-5.095-0.829-5.07 7.393 0.374 18.059 11.958 37.003 33.688 47.074 53.996 1.039 2.097 1.555 2.633 1.331 1.383-0.211-1.183-0.935-4.704-1.228-5.982-4.599-20.017-3.203-52.882 3.121-73.471 2.213-7.205 3.658-10.02 4.604-8.97" fill="#fff"/></g></svg>
