<!DOCTYPE svg PUBLIC "-//W3C//DTD SVG 20010904//EN" "http://www.w3.org/TR/2001/REC-SVG-20010904/DTD/svg10.dtd">
<svg version="1.0" xmlns="http://www.w3.org/2000/svg" width="1600px" height="1018px" viewBox="0 0 16000 10180" preserveAspectRatio="xMidYMid meet">
<g id="layer101" fill="#1a1a18" stroke="none">
 <path d="M0 5090 l0 -5090 8000 0 8000 0 0 5090 0 5090 -8000 0 -8000 0 0 -5090z"/>
 </g>
<g id="layer102" fill="#009a3c" stroke="none">
 <path d="M0 5090 l0 -5090 8000 0 8000 0 0 5090 0 5090 -8000 0 -8000 0 0 -5090z m6850 1745 c39 -20 66 -19 99 6 l28 20 1459 -4 c1016 -3 1494 -8 1574 -16 532 -54 769 -169 1057 -512 39 -46 175 -226 303 -399 308 -418 305 -414 380 -488 49 -49 59 -63 40 -57 -53 16 -131 60 -199 111 -39 30 -71 51 -71 46 0 -15 47 -145 75 -207 48 -108 149 -248 243 -336 102 -96 206 -159 326 -200 90 -30 258 -59 352 -60 96 -1 107 -12 33 -32 -321 -86 -583 -73 -851 43 -192 83 -372 214 -568 416 -148 152 -225 246 -482 586 -240 319 -330 430 -422 515 -122 114 -209 162 -295 163 -68 0 -109 -24 -150 -89 -43 -66 -66 -140 -106 -334 -75 -360 -145 -576 -269 -832 -168 -342 -325 -547 -832 -1085 -226 -239 -404 -436 -467 -514 l-31 -39 31 6 c56 11 287 29 333 25 l45 -3 -75 -29 c-352 -135 -597 -366 -781 -736 -102 -204 -182 -476 -194 -660 -8 -114 1 -127 55 -75 22 21 40 37 40 35 0 -3 -24 -78 -53 -168 l-53 -162 -51 62 c-54 66 -133 147 -133 135 0 -3 12 -23 26 -44 70 -102 145 -298 198 -513 30 -126 79 -387 74 -400 -2 -6 -44 35 -93 91 -100 112 -150 156 -216 191 -37 19 -58 23 -139 23 -78 -1 -118 -7 -225 -37 -287 -81 -418 -87 -560 -28 -119 51 -185 48 -435 -18 -176 -46 -380 -92 -410 -92 -6 0 -22 11 -35 25 -31 30 -34 92 -6 126 18 22 22 23 62 12 24 -6 45 -10 47 -8 9 8 -42 46 -68 52 -28 5 -30 8 -30 53 0 47 8 64 70 147 11 16 25 55 31 88 6 33 17 71 24 85 l14 25 7 -33 c16 -76 103 -94 209 -43 83 39 175 111 223 173 42 54 89 158 72 158 -5 0 -33 -14 -62 -32 -29 -17 -125 -61 -213 -97 l-160 -66 -9 -43 c-12 -50 -23 -53 -38 -11 -10 28 -13 30 -42 24 -65 -15 -71 -13 -69 25 2 49 64 102 201 174 180 94 283 220 313 381 17 88 5 321 -21 425 -58 238 -168 493 -325 759 -62 104 -60 105 60 11 84 -65 125 -93 131 -88 5 6 -70 235 -101 304 -14 31 -41 78 -61 105 l-36 49 75 -34 74 -34 7 117 c6 114 30 247 62 346 9 28 56 151 104 275 82 211 131 363 162 505 18 83 18 819 0 1005 -24 248 -58 366 -128 449 -35 42 -86 67 -186 90 -65 15 -88 26 -108 48 -14 16 -37 36 -51 45 -28 18 -53 63 -64 118 l-7 35 23 -21 c54 -48 88 -54 126 -24 24 19 41 20 282 20 272 0 288 -3 322 -50 11 -14 30 -77 44 -140 29 -130 56 -193 116 -265 40 -48 41 -51 35 -105 -3 -30 -8 -72 -12 -93 -8 -50 18 -202 76 -437 57 -231 82 -300 122 -346 103 -118 244 1 485 408 58 98 109 175 114 172 5 -3 9 -22 9 -43 0 -54 35 -185 70 -258 96 -206 276 -360 505 -433 100 -32 284 -39 391 -15 67 15 240 82 232 91 -2 1 -39 -7 -83 -17 -102 -26 -262 -28 -360 -5 -38 9 -110 36 -160 61 -201 97 -350 270 -427 495 -30 88 -32 105 -33 225 0 116 3 139 28 217 16 47 44 109 63 138 l34 51 -35 14 c-70 30 -232 66 -305 68 -41 1 -111 -2 -155 -7 -75 -7 -82 -6 -115 15 -19 13 -44 42 -54 65 -12 25 -32 48 -54 60 -39 21 -67 68 -77 129 -7 39 -7 40 10 17 9 -12 29 -29 45 -37z m307 -5670 c21 -98 35 -141 68 -219 l16 -38 -30 21 c-91 65 -303 292 -287 308 14 14 105 32 156 30 l55 -2 22 -100z"/>
 <path d="M6361 1454 c-23 -19 -31 -34 -31 -58 l0 -33 55 19 c30 10 88 25 128 33 107 22 109 25 37 46 -94 27 -151 25 -189 -7z"/>
 </g>
<g id="layer103" fill="#178c45" stroke="none">
 <path d="M7 10173 c-4 -3 -7 -2294 -7 -5090 l0 -5083 8000 0 8000 0 0 4284 0 4285 -57 7 c-82 10 -207 -2 -288 -27 -150 -46 -271 -124 -535 -344 -201 -167 -312 -246 -425 -302 -147 -73 -268 -103 -419 -103 -120 0 -200 14 -319 54 -163 56 -268 129 -538 375 -193 175 -327 257 -494 302 -113 31 -316 30 -430 0 -169 -45 -290 -123 -537 -345 -182 -164 -276 -235 -391 -291 -122 -60 -224 -85 -373 -92 -144 -7 -253 7 -371 47 -156 53 -271 131 -503 341 -314 284 -470 361 -740 362 -139 1 -208 -11 -322 -55 -132 -50 -228 -119 -460 -330 -160 -144 -262 -220 -371 -273 -147 -71 -224 -88 -412 -89 -139 -1 -170 2 -239 22 -174 50 -325 141 -561 336 -350 290 -469 363 -651 401 -152 31 -291 12 -449 -64 -116 -56 -206 -118 -400 -280 -255 -211 -339 -271 -469 -332 -125 -58 -214 -80 -351 -86 -311 -14 -507 72 -830 364 -238 214 -332 281 -463 331 -114 44 -183 56 -322 55 -269 -1 -428 -79 -740 -362 -223 -203 -343 -285 -491 -337 -209 -74 -477 -71 -677 6 -153 59 -256 132 -491 345 -300 272 -456 346 -733 348 l-138 1 0 808 0 808 7998 3 7997 2 -7996 3 c-4398 1 -7999 -1 -8002 -5z m6843 -3338 c39 -20 66 -19 99 6 l28 20 1459 -4 c1016 -3 1494 -8 1574 -16 532 -54 769 -169 1057 -512 39 -46 175 -226 303 -399 308 -418 305 -414 380 -488 49 -49 59 -63 40 -57 -53 16 -131 60 -199 111 -39 30 -71 51 -71 46 0 -15 47 -145 75 -207 48 -108 149 -248 243 -336 102 -96 206 -159 326 -200 90 -30 258 -59 352 -60 96 -1 107 -12 33 -32 -321 -86 -583 -73 -851 43 -192 83 -372 214 -568 416 -148 152 -225 246 -482 586 -240 319 -330 430 -422 515 -122 114 -209 162 -295 163 -68 0 -109 -24 -150 -89 -43 -66 -66 -140 -106 -334 -75 -360 -145 -576 -269 -832 -168 -342 -325 -547 -832 -1085 -226 -239 -404 -436 -467 -514 l-31 -39 31 6 c56 11 287 29 333 25 l45 -3 -75 -29 c-352 -135 -597 -366 -781 -736 -102 -204 -182 -476 -194 -660 -8 -114 1 -127 55 -75 22 21 40 37 40 35 0 -3 -24 -78 -53 -168 l-53 -162 -51 62 c-54 66 -133 147 -133 135 0 -3 12 -23 26 -44 70 -102 145 -298 198 -513 30 -126 79 -387 74 -400 -2 -6 -44 35 -93 91 -100 112 -150 156 -216 191 -37 19 -58 23 -139 23 -78 -1 -118 -7 -225 -37 -287 -81 -418 -87 -560 -28 -119 51 -185 48 -435 -18 -176 -46 -380 -92 -410 -92 -6 0 -22 11 -35 25 -31 30 -34 92 -6 126 18 22 22 23 62 12 24 -6 45 -10 47 -8 9 8 -42 46 -68 52 -28 5 -30 8 -30 53 0 47 8 64 70 147 11 16 25 55 31 88 6 33 17 71 24 85 l14 25 7 -33 c16 -76 103 -94 209 -43 83 39 175 111 223 173 42 54 89 158 72 158 -5 0 -33 -14 -62 -32 -29 -17 -125 -61 -213 -97 l-160 -66 -9 -43 c-12 -50 -23 -53 -38 -11 -10 28 -13 30 -42 24 -65 -15 -71 -13 -69 25 2 49 64 102 201 174 180 94 283 220 313 381 17 88 5 321 -21 425 -58 238 -168 493 -325 759 -62 104 -60 105 60 11 84 -65 125 -93 131 -88 5 6 -70 235 -101 304 -14 31 -41 78 -61 105 l-36 49 75 -34 74 -34 7 117 c6 114 30 247 62 346 9 28 56 151 104 275 82 211 131 363 162 505 18 83 18 819 0 1005 -24 248 -58 366 -128 449 -35 42 -86 67 -186 90 -65 15 -88 26 -108 48 -14 16 -37 36 -51 45 -28 18 -53 63 -64 118 l-7 35 23 -21 c54 -48 88 -54 126 -24 24 19 41 20 282 20 272 0 288 -3 322 -50 11 -14 30 -77 44 -140 29 -130 56 -193 116 -265 40 -48 41 -51 35 -105 -3 -30 -8 -72 -12 -93 -8 -50 18 -202 76 -437 57 -231 82 -300 122 -346 103 -118 244 1 485 408 58 98 109 175 114 172 5 -3 9 -22 9 -43 0 -54 35 -185 70 -258 96 -206 276 -360 505 -433 100 -32 284 -39 391 -15 67 15 240 82 232 91 -2 1 -39 -7 -83 -17 -102 -26 -262 -28 -360 -5 -38 9 -110 36 -160 61 -201 97 -350 270 -427 495 -30 88 -32 105 -33 225 0 116 3 139 28 217 16 47 44 109 63 138 l34 51 -35 14 c-70 30 -232 66 -305 68 -41 1 -111 -2 -155 -7 -75 -7 -82 -6 -115 15 -19 13 -44 42 -54 65 -12 25 -32 48 -54 60 -39 21 -67 68 -77 129 -7 39 -7 40 10 17 9 -12 29 -29 45 -37z m307 -5670 c21 -98 35 -141 68 -219 l16 -38 -30 21 c-91 65 -303 292 -287 308 14 14 105 32 156 30 l55 -2 22 -100z"/>
 <path d="M6361 1454 c-23 -19 -31 -34 -31 -58 l0 -33 55 19 c30 10 88 25 128 33 107 22 109 25 37 46 -94 27 -151 25 -189 -7z"/>
 </g>
<g id="layer104" fill="#45a247" stroke="none">
 <path d="M2 5088 l-2 -5088 8000 0 8000 0 0 4284 0 4285 -57 7 c-82 10 -207 -2 -288 -27 -150 -46 -271 -124 -535 -344 -201 -167 -312 -246 -425 -302 -147 -73 -268 -103 -419 -103 -120 0 -200 14 -319 54 -163 56 -268 129 -538 375 -193 175 -327 257 -494 302 -113 31 -316 30 -430 0 -169 -45 -290 -123 -537 -345 -182 -164 -276 -235 -391 -291 -122 -60 -224 -85 -373 -92 -144 -7 -253 7 -371 47 -156 53 -271 131 -503 341 -314 284 -470 361 -740 362 -139 1 -208 -11 -322 -55 -132 -50 -228 -119 -460 -330 -160 -144 -262 -220 -371 -273 -147 -71 -224 -88 -412 -89 -139 -1 -170 2 -239 22 -174 50 -325 141 -561 336 -350 290 -469 363 -651 401 -152 31 -291 12 -449 -64 -116 -56 -206 -118 -400 -280 -255 -211 -339 -271 -469 -332 -125 -58 -214 -80 -351 -86 -311 -14 -507 72 -830 364 -238 214 -332 281 -463 331 -114 44 -183 56 -322 55 -269 -1 -428 -79 -740 -362 -223 -203 -343 -285 -491 -337 -209 -74 -477 -71 -677 6 -153 59 -256 132 -491 345 -300 272 -456 346 -733 348 l-138 1 -2 811 c-2 445 -4 -1479 -6 -4277z m6848 1747 c39 -20 66 -19 99 6 l28 20 1459 -4 c1016 -3 1494 -8 1574 -16 532 -54 769 -169 1057 -512 39 -46 175 -226 303 -399 308 -418 305 -414 380 -488 49 -49 59 -63 40 -57 -53 16 -131 60 -199 111 -39 30 -71 51 -71 46 0 -15 47 -145 75 -207 48 -108 149 -248 243 -336 102 -96 206 -159 326 -200 90 -30 258 -59 352 -60 96 -1 107 -12 33 -32 -321 -86 -583 -73 -851 43 -192 83 -372 214 -568 416 -148 152 -225 246 -482 586 -240 319 -330 430 -422 515 -122 114 -209 162 -295 163 -68 0 -109 -24 -150 -89 -43 -66 -66 -140 -106 -334 -75 -360 -145 -576 -269 -832 -168 -342 -325 -547 -832 -1085 -226 -239 -404 -436 -467 -514 l-31 -39 31 6 c56 11 287 29 333 25 l45 -3 -75 -29 c-352 -135 -597 -366 -781 -736 -102 -204 -182 -476 -194 -660 -8 -114 1 -127 55 -75 22 21 40 37 40 35 0 -3 -24 -78 -53 -168 l-53 -162 -51 62 c-54 66 -133 147 -133 135 0 -3 12 -23 26 -44 70 -102 145 -298 198 -513 30 -126 79 -387 74 -400 -2 -6 -44 35 -93 91 -100 112 -150 156 -216 191 -37 19 -58 23 -139 23 -78 -1 -118 -7 -225 -37 -287 -81 -418 -87 -560 -28 -119 51 -185 48 -435 -18 -176 -46 -380 -92 -410 -92 -6 0 -22 11 -35 25 -31 30 -34 92 -6 126 18 22 22 23 62 12 24 -6 45 -10 47 -8 9 8 -42 46 -68 52 -28 5 -30 8 -30 53 0 47 8 64 70 147 11 16 25 55 31 88 6 33 17 71 24 85 l14 25 7 -33 c16 -76 103 -94 209 -43 83 39 175 111 223 173 42 54 89 158 72 158 -5 0 -33 -14 -62 -32 -29 -17 -125 -61 -213 -97 l-160 -66 -9 -43 c-12 -50 -23 -53 -38 -11 -10 28 -13 30 -42 24 -65 -15 -71 -13 -69 25 2 49 64 102 201 174 180 94 283 220 313 381 17 88 5 321 -21 425 -58 238 -168 493 -325 759 -62 104 -60 105 60 11 84 -65 125 -93 131 -88 5 6 -70 235 -101 304 -14 31 -41 78 -61 105 l-36 49 75 -34 74 -34 7 117 c6 114 30 247 62 346 9 28 56 151 104 275 82 211 131 363 162 505 18 83 18 819 0 1005 -24 248 -58 366 -128 449 -35 42 -86 67 -186 90 -65 15 -88 26 -108 48 -14 16 -37 36 -51 45 -28 18 -53 63 -64 118 l-7 35 23 -21 c54 -48 88 -54 126 -24 24 19 41 20 282 20 272 0 288 -3 322 -50 11 -14 30 -77 44 -140 29 -130 56 -193 116 -265 40 -48 41 -51 35 -105 -3 -30 -8 -72 -12 -93 -8 -50 18 -202 76 -437 57 -231 82 -300 122 -346 103 -118 244 1 485 408 58 98 109 175 114 172 5 -3 9 -22 9 -43 0 -54 35 -185 70 -258 96 -206 276 -360 505 -433 100 -32 284 -39 391 -15 67 15 240 82 232 91 -2 1 -39 -7 -83 -17 -102 -26 -262 -28 -360 -5 -38 9 -110 36 -160 61 -201 97 -350 270 -427 495 -30 88 -32 105 -33 225 0 116 3 139 28 217 16 47 44 109 63 138 l34 51 -35 14 c-70 30 -232 66 -305 68 -41 1 -111 -2 -155 -7 -75 -7 -82 -6 -115 15 -19 13 -44 42 -54 65 -12 25 -32 48 -54 60 -39 21 -67 68 -77 129 -7 39 -7 40 10 17 9 -12 29 -29 45 -37z m307 -5670 c21 -98 35 -141 68 -219 l16 -38 -30 21 c-91 65 -303 292 -287 308 14 14 105 32 156 30 l55 -2 22 -100z"/>
 <path d="M6361 1454 c-23 -19 -31 -34 -31 -58 l0 -33 55 19 c30 10 88 25 128 33 107 22 109 25 37 46 -94 27 -151 25 -189 -7z"/>
 </g>
<g id="layer105" fill="#fdec00" stroke="none">
 <path d="M6285 8564 c-91 -20 -249 -96 -350 -169 -44 -32 -143 -110 -220 -174 -255 -211 -339 -271 -469 -332 -125 -58 -214 -80 -351 -86 -311 -14 -507 72 -830 364 -238 214 -332 281 -463 331 -114 44 -183 56 -322 55 -269 -1 -428 -79 -740 -362 -223 -203 -343 -285 -491 -337 -209 -74 -477 -71 -677 6 -153 59 -256 132 -491 345 -297 270 -456 346 -726 348 -72 1 -136 -2 -142 -6 -10 -7 -13 -873 -13 -4278 l0 -4269 8000 0 8000 0 0 4284 0 4285 -57 7 c-82 10 -207 -2 -288 -27 -150 -46 -271 -124 -535 -344 -201 -167 -312 -246 -425 -302 -147 -73 -268 -103 -419 -103 -120 0 -200 14 -319 54 -163 56 -268 129 -538 375 -193 175 -327 257 -494 302 -113 31 -316 30 -430 0 -169 -45 -290 -123 -537 -345 -182 -164 -276 -235 -391 -291 -122 -60 -224 -85 -373 -92 -144 -7 -253 7 -371 47 -156 53 -271 131 -503 341 -314 284 -470 361 -740 362 -139 1 -208 -11 -322 -55 -132 -50 -228 -119 -460 -330 -160 -144 -262 -220 -371 -273 -147 -71 -224 -88 -412 -89 -139 -1 -170 2 -239 22 -174 50 -325 141 -561 336 -188 156 -320 256 -395 300 -177 104 -357 137 -535 100z m565 -1729 c39 -20 66 -19 99 6 l28 20 1459 -4 c1016 -3 1494 -8 1574 -16 532 -54 769 -169 1057 -512 39 -46 175 -226 303 -399 308 -418 305 -414 380 -488 49 -49 59 -63 40 -57 -53 16 -131 60 -199 111 -39 30 -71 51 -71 46 0 -15 47 -145 75 -207 48 -108 149 -248 243 -336 102 -96 206 -159 326 -200 90 -30 258 -59 352 -60 96 -1 107 -12 33 -32 -321 -86 -583 -73 -851 43 -192 83 -372 214 -568 416 -148 152 -225 246 -482 586 -240 319 -330 430 -422 515 -122 114 -209 162 -295 163 -68 0 -109 -24 -150 -89 -43 -66 -66 -140 -106 -334 -75 -360 -145 -576 -269 -832 -168 -342 -325 -547 -832 -1085 -226 -239 -404 -436 -467 -514 l-31 -39 31 6 c56 11 287 29 333 25 l45 -3 -75 -29 c-352 -135 -597 -366 -781 -736 -102 -204 -182 -476 -194 -660 -8 -114 1 -127 55 -75 22 21 40 37 40 35 0 -3 -24 -78 -53 -168 l-53 -162 -51 62 c-54 66 -133 147 -133 135 0 -3 12 -23 26 -44 70 -102 145 -298 198 -513 30 -126 79 -387 74 -400 -2 -6 -44 35 -93 91 -100 112 -150 156 -216 191 -37 19 -58 23 -139 23 -78 -1 -118 -7 -225 -37 -287 -81 -418 -87 -560 -28 -119 51 -185 48 -435 -18 -176 -46 -380 -92 -410 -92 -6 0 -22 11 -35 25 -31 30 -34 92 -6 126 18 22 22 23 62 12 24 -6 45 -10 47 -8 9 8 -42 46 -68 52 -28 5 -30 8 -30 53 0 47 8 64 70 147 11 16 25 55 31 88 6 33 17 71 24 85 l14 25 7 -33 c16 -76 103 -94 209 -43 83 39 175 111 223 173 42 54 89 158 72 158 -5 0 -33 -14 -62 -32 -29 -17 -125 -61 -213 -97 l-160 -66 -9 -43 c-12 -50 -23 -53 -38 -11 -10 28 -13 30 -42 24 -65 -15 -71 -13 -69 25 2 49 64 102 201 174 180 94 283 220 313 381 17 88 5 321 -21 425 -58 238 -168 493 -325 759 -62 104 -60 105 60 11 84 -65 125 -93 131 -88 5 6 -70 235 -101 304 -14 31 -41 78 -61 105 l-36 49 75 -34 74 -34 7 117 c6 114 30 247 62 346 9 28 56 151 104 275 82 211 131 363 162 505 18 83 18 819 0 1005 -24 248 -58 366 -128 449 -35 42 -86 67 -186 90 -65 15 -88 26 -108 48 -14 16 -37 36 -51 45 -28 18 -53 63 -64 118 l-7 35 23 -21 c54 -48 88 -54 126 -24 24 19 41 20 282 20 272 0 288 -3 322 -50 11 -14 30 -77 44 -140 29 -130 56 -193 116 -265 40 -48 41 -51 35 -105 -3 -30 -8 -72 -12 -93 -8 -50 18 -202 76 -437 57 -231 82 -300 122 -346 103 -118 244 1 485 408 58 98 109 175 114 172 5 -3 9 -22 9 -43 0 -54 35 -185 70 -258 96 -206 276 -360 505 -433 100 -32 284 -39 391 -15 67 15 240 82 232 91 -2 1 -39 -7 -83 -17 -102 -26 -262 -28 -360 -5 -38 9 -110 36 -160 61 -201 97 -350 270 -427 495 -30 88 -32 105 -33 225 0 116 3 139 28 217 16 47 44 109 63 138 l34 51 -35 14 c-70 30 -232 66 -305 68 -41 1 -111 -2 -155 -7 -75 -7 -82 -6 -115 15 -19 13 -44 42 -54 65 -12 25 -32 48 -54 60 -39 21 -67 68 -77 129 -7 39 -7 40 10 17 9 -12 29 -29 45 -37z m307 -5670 c21 -98 35 -141 68 -219 l16 -38 -30 21 c-91 65 -303 292 -287 308 14 14 105 32 156 30 l55 -2 22 -100z"/>
 <path d="M6361 1454 c-23 -19 -31 -34 -31 -58 l0 -33 55 19 c30 10 88 25 128 33 107 22 109 25 37 46 -94 27 -151 25 -189 -7z"/>
 </g>

</svg>
