<?xml version="1.0" encoding="UTF-8" standalone="no"?>
<!-- Created with Inkscape (http://www.inkscape.org/) -->

<svg
   xmlns:dc="http://purl.org/dc/elements/1.1/"
   xmlns:cc="http://creativecommons.org/ns#"
   xmlns:rdf="http://www.w3.org/1999/02/22-rdf-syntax-ns#"
   xmlns:svg="http://www.w3.org/2000/svg"
   xmlns="http://www.w3.org/2000/svg"
   xmlns:sodipodi="http://sodipodi.sourceforge.net/DTD/sodipodi-0.dtd"
   xmlns:inkscape="http://www.inkscape.org/namespaces/inkscape"
   width="650.11169"
   height="414"
   id="svg2"
   version="1.1"
   inkscape:version="0.48.5 r10040"
   sodipodi:docname="svg.svg">
  <defs
     id="defs4" />
  <sodipodi:namedview
     id="base"
     pagecolor="#f6f3f1"
     bordercolor="#666666"
     borderopacity="1.0"
     inkscape:pageopacity="0"
     inkscape:pageshadow="2"
     inkscape:zoom="1"
     inkscape:cx="311.62877"
     inkscape:cy="241.17017"
     inkscape:document-units="px"
     inkscape:current-layer="layer1"
     showgrid="true"
     showborder="true"
     inkscape:window-width="1920"
     inkscape:window-height="1017"
     inkscape:window-x="-8"
     inkscape:window-y="-8"
     inkscape:window-maximized="1"
     fit-margin-top="0"
     fit-margin-left="0"
     fit-margin-right="0"
     fit-margin-bottom="0">
    <inkscape:grid
       type="xygrid"
       id="grid2993"
       empspacing="5"
       visible="true"
       enabled="true"
       snapvisiblegridlinesonly="true"
       originx="-549.88832px"
       originy="-395.99999px" />
  </sodipodi:namedview>
  <metadata
     id="metadata7">
    <rdf:RDF>
      <cc:Work
         rdf:about="">
        <dc:format>image/svg+xml</dc:format>
        <dc:type
           rdf:resource="http://purl.org/dc/dcmitype/StillImage" />
      </cc:Work>
    </rdf:RDF>
  </metadata>
  <g
     inkscape:label="Layer 1"
     inkscape:groupmode="layer"
     id="layer1"
     transform="translate(-549.88832,-242.36218)">
    <path
       sodipodi:nodetypes="cccc"
       style="fill:#0073ce;fill-opacity:1;stroke:none"
       d="m 1200,242.36218 -650,0 0,414.00001 650,0"
       id="path2995"
       inkscape:connector-curvature="0" />
    <path
       style="fill:#ffffff;stroke:none"
       d="m 549.88832,656.36219 189.11168,0 0,-46.01438 27.61771,0 0,-45.97126 -27.61771,0 0,-46.01435 27.61771,0 0,-46.01439 -27.61771,0 0,-45.97125 27.61771,0 0,-46.01439 -27.61771,0 0,-46.01436 27.61771,0 0,-45.97124 -27.61771,0 0,-46.01439 -189.11168,0 z"
       id="rect3770"
       inkscape:connector-curvature="0"
       sodipodi:nodetypes="ccccccccccccccccccccc" />
    <path
       style="fill:#ffffff;stroke:none"
       d="m 972.93124,305.36164 c -6.19808,0.10938 -9.76615,5.20107 -8.84196,11.07911 1.34419,8.54977 11.93125,8.52226 15.34018,25.56678 -17.04468,-3.40884 -17.01712,-13.99586 -25.56697,-15.33996 -8.54985,-1.34437 -15.32886,6.8177 -7.72335,18.74909 -7.60551,11.93112 -0.8265,20.09318 7.72335,18.74909 8.54985,-1.34437 8.52229,-11.93139 25.56697,-15.34024 l 0,47.24565 -21.25259,-12.25105 -3.40895,5.91239 24.66154,14.22168 0,39.46902 -34.19577,-19.70788 0,-28.49652 -6.81787,0 -0.0542,24.55506 -40.90707,-23.64944 c 11.47449,-13.05667 20.66049,-7.70252 26.09959,-14.43473 5.43909,-6.73224 1.72488,-16.70691 -12.41063,-16.08599 -6.52999,-12.55203 -16.96991,-10.73971 -20.08072,-2.6631 -3.11079,8.07662 6.04947,13.30918 0.47938,29.77496 -13.05661,-11.47476 -7.70237,-20.60747 -14.43468,-26.04651 -6.73225,-5.43903 -16.76011,-1.77823 -16.13908,12.35725 -3.92259,2.04088 -6.4107,4.46015 -7.77664,6.92452 -3.00495,5.4219 -0.38594,11.07094 5.16664,13.20954 8.07655,3.1107 13.30932,-6.10274 29.77486,-0.5327 -11.47452,13.05666 -20.60726,7.75578 -26.04632,14.48798 -5.43906,6.7322 -1.7782,16.6537 12.35735,16.03272 6.52996,12.55236 17.02317,10.793 20.13397,2.71638 3.1108,-8.07634 -6.10274,-13.36242 -0.53265,-29.82794 l 40.90708,23.64944 -21.19923,12.25076 3.40894,5.91238 24.66142,-14.22158 34.19564,19.76086 -34.19577,19.70788 -24.66139,-14.22158 -3.40894,5.91238 21.1992,12.25076 -40.90703,23.64944 c -5.5701,-16.46552 3.64345,-21.7516 0.53263,-29.82794 -3.1108,-8.07662 -13.60399,-9.83598 -20.13395,2.71638 -14.13554,-0.62098 -17.79641,9.30052 -12.35736,16.03272 5.43906,6.7322 14.5718,1.43132 26.04631,14.48798 -16.46552,5.57004 -21.6983,-3.59014 -29.77485,-0.47944 -8.07646,3.1107 -9.94225,13.5507 2.60999,20.08052 -0.19407,4.41744 0.67923,7.8117 2.13056,10.22686 3.19304,5.3133 9.38012,5.87006 14.00854,2.1307 6.73231,-5.43906 1.37807,-14.57182 14.43469,-26.04654 5.57008,16.4658 -3.59016,21.7516 -0.47939,29.82822 3.1108,8.07662 13.55071,9.8357 20.08072,-2.71638 14.13547,0.62098 17.84967,-9.30052 12.41057,-16.03272 -5.43905,-6.7322 -14.62502,-1.43132 -26.09954,-14.48798 l 40.90704,-23.64944 0.0542,24.55506 6.81784,0 0,-28.49652 34.19592,-19.70788 0,39.46902 -24.66154,14.22168 3.40895,5.9121 21.25259,-12.25076 0,47.24562 c -17.04468,-3.40886 -17.01712,-13.99582 -25.56697,-15.34024 -8.54985,-1.34404 -15.32886,6.818 -7.72336,18.7491 -7.6055,11.93138 -0.82649,20.09352 7.72336,18.7491 8.54985,-1.34414 8.52229,-11.9311 25.56697,-15.33996 -3.40893,17.04448 -13.99599,17.01706 -15.34019,25.56682 -1.34425,8.54976 6.81792,15.38216 18.7491,7.7765 3.7285,2.37688 7.0899,3.35184 9.90719,3.30262 6.19801,-0.10825 9.76544,-5.20116 8.84174,-11.07912 -1.344,-8.54986 -11.93101,-8.52234 -15.33995,-25.56682 17.04535,3.40886 17.01755,13.99582 25.56585,15.33996 8.5506,1.34442 15.3304,-6.81772 7.7251,-18.7491 7.6053,-11.9311 0.8255,-20.09324 -7.7251,-18.7491 -8.5483,1.34432 -8.5205,11.93138 -25.56585,15.34024 l 0,-47.24562 21.25315,12.25076 3.4076,-5.9122 -24.66075,-14.22158 0,-39.46912 34.19615,19.70798 0,28.49652 6.8173,0 0.043,-24.55506 40.9074,23.64944 c -11.475,13.05666 -20.6608,7.70252 -26.0982,14.43472 -5.44,6.7322 -1.7257,16.70696 12.4103,16.08598 6.5293,12.55208 16.9693,10.73974 20.08,2.66312 3.1108,-8.07662 -6.0492,-13.30916 -0.4784,-29.77496 13.0549,11.47472 7.7023,20.60748 14.4334,26.04654 6.7337,5.43896 16.7605,1.7782 16.1398,-12.35756 3.9215,-2.04056 6.4102,-4.45986 7.7766,-6.92424 3.0051,-5.4219 0.3866,-11.01768 -5.1673,-13.15628 -8.0769,-3.1107 -13.3086,6.04948 -29.7749,0.47944 11.4741,-13.05666 20.6074,-7.75578 26.0462,-14.48798 5.4399,-6.7322 1.7797,-16.6536 -12.357,-16.03272 -6.5292,-12.55236 -17.0228,-10.793 -20.1335,-2.71638 -3.1107,8.07634 6.1034,13.36242 0.5327,29.82794 l -40.9079,-23.64944 21.1989,-12.25076 -3.4076,-5.91238 -24.6619,14.22158 -34.19585,-19.70788 34.19585,-19.76086 24.6621,14.22158 3.4074,-5.91238 -21.1988,-12.25076 40.9079,-23.64944 c 5.5707,16.46552 -3.6434,21.7516 -0.5327,29.82794 3.1107,8.07662 13.6045,9.83598 20.1335,-2.71638 14.1367,0.62088 17.7968,-9.30052 12.357,-16.03272 -5.4385,-6.7322 -14.5721,-1.43132 -26.0463,-14.48798 16.4664,-5.57004 21.6981,3.6434 29.775,0.5327 8.0769,-3.1107 9.9432,-13.60398 -2.6093,-20.13406 0.1927,-4.41721 -0.6787,-7.81142 -2.1307,-10.22654 -3.1938,-5.31341 -9.3798,-5.87014 -14.0091,-2.13071 -6.7312,5.43906 -1.3784,14.57175 -14.4335,26.04651 -5.5707,-16.46578 3.5892,-21.69835 0.4785,-29.77496 -3.1107,-8.07661 -13.5507,-9.88895 -20.0801,2.6631 -14.1359,-0.62092 -17.8502,9.35375 -12.4103,16.08599 5.4374,6.73221 14.6233,1.37805 26.0983,14.43473 l -40.9074,23.64944 -0.043,-24.55506 -6.8174,0 0,28.49652 -34.19615,19.70788 0,-39.46902 24.66075,-14.22168 -3.4076,-5.91239 -21.25315,12.25095 0,-47.24555 c 17.04535,3.40885 17.01755,13.99587 25.56585,15.34024 8.5506,1.34409 15.3304,-6.81797 7.7251,-18.74909 7.6053,-11.93139 0.8255,-20.09346 -7.7251,-18.74909 -8.5483,1.3441 -8.5205,11.93112 -25.56585,15.33996 3.40894,-17.04452 13.99595,-17.01701 15.33995,-25.56678 1.345,-8.54976 -6.81767,-15.38221 -18.74893,-7.77652 -3.72856,-2.37688 -7.08995,-3.35185 -9.90713,-3.30259 z"
       id="path3939"
       inkscape:connector-curvature="0"
       sodipodi:nodetypes="sscscscccccccccccscscsccscscscccccccccccscscsccscscscccccccccccscscsccscscscccccccccccscscscsscscscccccccccccscscsccscscscccccccccccscscscs" />
  </g>
</svg>
