<!DOCTYPE svg PUBLIC "-//W3C//DTD SVG 20010904//EN" "http://www.w3.org/TR/2001/REC-SVG-20010904/DTD/svg10.dtd">
<svg version="1.0" xmlns="http://www.w3.org/2000/svg" width="1382px" height="878px" viewBox="0 0 13820 8780" preserveAspectRatio="xMidYMid meet">
<g id="layer101" fill="#359743" stroke="none">
 <path d="M0 4570 l0 -4210 38 21 c67 37 180 127 219 175 21 25 50 60 64 76 14 17 50 69 79 117 107 172 165 257 238 343 253 302 578 460 1022 498 423 36 597 109 793 335 60 69 104 134 230 340 36 59 144 190 213 258 108 105 216 185 330 241 216 106 382 146 709 171 338 26 554 139 741 392 30 40 64 92 77 116 47 88 161 249 238 336 260 295 569 442 1009 481 326 29 442 60 602 162 125 80 237 214 388 464 106 176 283 364 441 468 234 156 450 220 849 251 214 17 400 79 528 178 29 22 84 73 121 113 68 73 99 116 225 314 37 58 81 125 99 150 54 78 257 273 342 329 217 142 454 217 760 241 454 36 664 149 871 467 43 67 102 157 129 200 138 214 338 400 549 507 176 90 359 137 626 161 311 29 439 66 600 175 71 48 180 164 248 263 l53 77 -6715 0 -6716 0 0 -4210z m3219 3059 c248 -69 421 -280 438 -532 8 -125 -8 -212 -59 -317 -41 -84 -48 -92 -502 -547 -253 -255 -465 -463 -471 -463 -11 0 -185 171 -185 181 0 3 201 208 446 454 356 357 451 458 470 498 108 233 -70 494 -325 475 -121 -9 -219 -76 -273 -186 -29 -59 -33 -76 -32 -147 0 -122 25 -166 170 -309 l119 -116 -98 -98 -98 -97 -132 135 c-109 111 -139 148 -170 212 -87 175 -88 378 -4 545 83 162 224 275 397 318 87 21 221 18 309 -6z m529 -1744 c325 -325 457 -450 490 -465 172 -81 365 -13 450 159 23 48 27 68 26 141 0 67 -5 95 -23 132 -34 71 -95 133 -159 165 -50 24 -69 28 -147 28 -122 0 -165 -23 -311 -166 -60 -60 -114 -109 -118 -109 -11 0 -186 171 -186 182 0 18 247 251 300 283 103 62 170 80 310 80 149 0 229 -21 328 -85 103 -67 168 -140 221 -247 84 -169 80 -385 -11 -556 -37 -68 -129 -168 -198 -214 -205 -137 -475 -133 -685 10 -16 11 -234 223 -483 471 l-452 451 92 92 c51 51 97 93 101 93 5 0 210 -200 455 -445z m-1873 420 c33 -8 94 -31 135 -51 71 -35 102 -64 540 -500 l465 -464 -98 -97 -97 -98 -448 447 c-496 496 -498 498 -627 506 -311 20 -475 -364 -245 -572 80 -72 190 -106 281 -87 88 19 134 49 255 167 l117 114 51 -48 c28 -26 71 -69 96 -95 l45 -49 -135 -132 c-112 -109 -148 -137 -210 -167 -103 -50 -168 -64 -285 -63 -102 2 -169 18 -270 65 -71 33 -169 122 -222 201 -72 108 -98 196 -98 333 0 175 44 290 158 412 127 135 254 191 437 192 52 0 122 -6 155 -14z m1353 -1272 c-504 -505 -501 -501 -502 -637 0 -97 24 -164 84 -230 196 -213 551 -94 577 194 12 124 -24 194 -176 345 l-111 110 92 92 c51 51 97 93 103 93 14 0 202 -191 249 -253 37 -49 72 -118 97 -192 8 -25 14 -86 14 -165 0 -104 -4 -136 -23 -190 -123 -356 -514 -516 -854 -350 -128 63 -244 196 -296 343 -36 100 -38 268 -5 372 45 141 66 166 552 652 l454 455 96 -96 96 -96 -447 -447z"/>
 <path d="M383 3 c4 -3 10 -3 14 0 3 4 0 7 -7 7 -7 0 -10 -3 -7 -7z"/>
 </g>
<g id="layer102" fill="#2a71c9" stroke="none">
 <path d="M13773 8381 c-24 -33 -43 -63 -43 -66 0 -17 -246 -248 -310 -292 -205 -139 -429 -218 -706 -248 -77 -8 -182 -20 -235 -25 -219 -24 -390 -99 -536 -233 -59 -55 -135 -146 -136 -164 -1 -4 -8 -15 -18 -23 -9 -8 -51 -72 -93 -142 -256 -423 -567 -646 -1011 -727 -60 -11 -170 -25 -244 -31 -354 -29 -526 -100 -712 -297 -62 -66 -113 -138 -240 -340 -155 -244 -347 -423 -578 -538 -181 -90 -357 -135 -631 -160 -271 -25 -393 -57 -540 -142 -87 -51 -222 -188 -293 -298 -226 -350 -295 -439 -419 -546 -82 -71 -185 -140 -273 -184 -33 -16 -63 -34 -66 -38 -3 -5 -9 -8 -13 -7 -4 1 -48 -12 -99 -29 -122 -41 -248 -67 -382 -81 -255 -25 -294 -31 -375 -51 -170 -42 -299 -118 -420 -245 -81 -86 -85 -91 -218 -301 -108 -170 -181 -261 -294 -368 -238 -225 -521 -341 -908 -374 -185 -16 -271 -29 -368 -57 -237 -69 -400 -209 -572 -494 -65 -106 -147 -226 -183 -267 -11 -13 -18 -23 -16 -23 7 0 -155 -162 -175 -175 -8 -5 -56 -39 -106 -73 -202 -141 -436 -217 -756 -247 -208 -19 -229 -22 -329 -47 -91 -22 -225 -81 -225 -98 0 -6 -4 -9 -9 -6 -14 9 -120 -74 -186 -146 -71 -76 -112 -134 -205 -286 -124 -202 -244 -343 -389 -457 l-64 -50 6708 -3 c3690 -1 6710 -1 6712 1 2 2 2 1902 1 4221 l-3 4218 -42 -61z m-2925 -3802 c106 -36 192 -146 192 -247 l0 -42 -287 2 -288 3 -3 23 c-2 12 4 47 13 79 13 44 28 68 73 112 89 88 182 110 300 70z m1480 -433 c2 -76 -1 -104 -13 -122 l-15 -24 -1554 0 -1554 0 -11 31 c-12 35 -15 201 -4 212 3 4 713 6 1577 5 l1571 -3 3 -99z m-78 -223 c-1 -36 -29 -99 -64 -140 l-28 -33 -1408 0 -1409 0 -24 33 c-34 45 -54 87 -62 130 l-7 37 1501 0 1501 0 0 -27z m-150 -269 l0 -44 -1345 0 -1345 0 0 45 0 45 1333 2 c732 2 1338 1 1345 -1 7 -2 12 -20 12 -47z m-145 -168 c-111 -150 -256 -397 -326 -555 -54 -123 -94 -257 -123 -414 -15 -78 -35 -461 -36 -674 l0 -73 -720 0 -720 0 0 148 c0 220 -17 516 -35 612 -47 250 -123 439 -281 699 -38 63 -77 128 -88 145 -10 17 -45 66 -77 109 l-59 77 1260 0 1260 0 -55 -74z m-515 -1774 c0 -5 -18 -37 -40 -70 l-40 -62 -608 0 -609 0 -31 43 c-17 24 -34 56 -37 70 l-7 27 686 0 c377 0 686 -4 686 -8z m-170 -190 c0 -21 -163 -108 -262 -141 l-38 -13 0 -172 c0 -231 15 -216 -214 -216 -160 0 -175 2 -200 21 l-26 20 0 174 0 173 -72 28 c-98 36 -145 61 -192 98 -37 29 -38 31 -17 36 34 8 1021 1 1021 -8z"/>
 <path d="M10679 1279 c-23 -24 -29 -40 -29 -74 0 -37 5 -47 35 -74 41 -36 76 -39 122 -11 58 35 64 121 11 165 -44 37 -101 35 -139 -6z"/>
 </g>
<g id="layer103" fill="#fbfdfc" stroke="none">
 <path d="M13374 8698 c-161 -232 -338 -351 -595 -402 -41 -8 -153 -22 -249 -31 -267 -24 -450 -71 -626 -161 -211 -107 -411 -293 -549 -507 -185 -288 -212 -326 -290 -402 -173 -169 -354 -237 -710 -265 -306 -24 -543 -99 -760 -241 -85 -56 -288 -251 -342 -329 -18 -25 -62 -92 -99 -150 -126 -198 -157 -241 -225 -314 -37 -40 -92 -91 -121 -113 -128 -99 -314 -161 -528 -178 -399 -31 -615 -95 -849 -251 -158 -104 -335 -292 -441 -468 -151 -250 -263 -384 -388 -464 -160 -102 -276 -133 -602 -162 -406 -36 -690 -159 -940 -410 -111 -111 -193 -217 -280 -365 -222 -373 -448 -520 -845 -550 -327 -25 -493 -65 -709 -171 -114 -56 -222 -136 -330 -241 -69 -68 -177 -199 -213 -258 -126 -206 -170 -271 -230 -340 -196 -226 -370 -299 -793 -335 -444 -38 -769 -196 -1022 -498 -73 -86 -131 -171 -238 -343 -29 -48 -65 -100 -79 -117 -14 -16 -43 -51 -64 -76 -39 -47 -152 -138 -217 -173 l-35 -20 -3 -182 -2 -182 198 3 199 3 58 45 c143 110 271 260 395 462 146 239 259 365 403 446 142 82 262 111 545 137 424 38 707 159 958 410 106 106 179 203 284 375 173 285 336 425 572 494 97 28 183 41 368 57 387 33 670 149 908 374 113 107 186 198 294 368 133 210 137 215 218 301 121 127 250 203 420 245 81 20 120 26 375 51 336 34 606 144 833 339 124 107 193 196 419 546 71 110 206 247 293 298 147 85 269 117 540 142 274 25 450 70 631 160 231 115 423 294 578 538 127 202 178 274 240 340 186 197 358 268 712 297 596 48 955 264 1255 758 101 165 170 257 247 328 146 135 317 210 536 234 53 5 158 17 235 25 277 30 501 109 706 248 97 67 281 251 348 351 l52 78 0 164 0 164 -194 0 -194 0 -58 -82z"/>
 <path d="M2910 7635 c-206 -51 -371 -208 -436 -414 -24 -74 -28 -215 -10 -299 28 -135 75 -211 223 -362 l132 -135 98 97 98 98 -119 116 c-145 143 -170 187 -170 309 -1 71 3 88 32 147 54 110 152 177 273 186 255 19 433 -242 325 -475 -19 -40 -114 -141 -470 -498 -245 -246 -446 -451 -446 -454 0 -10 174 -181 185 -181 6 0 218 208 471 463 454 455 461 463 502 547 144 297 32 643 -258 803 -112 62 -298 84 -430 52z"/>
 <path d="M3192 6237 l-92 -92 452 -451 c249 -248 467 -460 483 -471 140 -95 306 -131 462 -99 139 28 226 76 328 180 172 176 215 457 104 679 -53 107 -118 180 -221 247 -99 64 -179 85 -328 85 -140 0 -207 -18 -310 -80 -53 -32 -300 -265 -300 -283 0 -11 175 -182 186 -182 4 0 58 49 118 109 146 143 189 166 311 166 78 0 97 -4 147 -28 64 -32 125 -94 159 -165 18 -37 23 -65 23 -132 1 -73 -3 -93 -26 -141 -85 -172 -278 -240 -450 -159 -33 15 -165 140 -490 465 -245 245 -450 445 -455 445 -4 0 -50 -42 -101 -93z"/>
 <path d="M1573 6305 c-119 -32 -200 -82 -290 -178 -114 -122 -158 -237 -158 -412 0 -137 26 -225 98 -333 113 -168 289 -263 492 -266 117 -1 182 13 285 63 62 30 98 58 210 167 l135 132 -45 49 c-25 26 -68 69 -96 95 l-51 48 -117 -114 c-121 -118 -167 -148 -255 -167 -119 -25 -273 45 -341 156 -90 145 -47 347 94 444 68 47 129 64 211 59 129 -8 131 -10 627 -506 l448 -447 97 98 98 97 -465 464 c-438 436 -469 465 -540 500 -41 20 -102 43 -135 51 -76 18 -234 18 -302 0z"/>
 <path d="M3029 5217 c-486 -486 -507 -511 -552 -652 -33 -104 -31 -272 5 -372 90 -251 312 -408 578 -407 262 1 485 162 572 414 19 54 23 86 23 190 0 79 -6 140 -14 165 -25 74 -60 143 -97 192 -47 62 -235 253 -249 253 -6 0 -52 -42 -103 -93 l-92 -92 111 -110 c152 -151 188 -221 176 -345 -26 -288 -381 -407 -577 -194 -60 66 -84 133 -84 230 1 136 -2 132 502 637 l447 447 -96 96 -96 96 -454 -455z"/>
 <path d="M10655 4582 c-74 -24 -158 -111 -180 -185 -9 -32 -15 -67 -13 -79 l3 -23 288 -3 287 -2 0 42 c0 101 -86 211 -192 247 -72 25 -124 25 -193 3z"/>
 <path d="M9177 4243 c-11 -11 -8 -177 4 -212 l11 -31 1554 0 1554 0 15 24 c12 18 15 46 13 122 l-3 99 -1571 3 c-864 1 -1574 -1 -1577 -5z"/>
 <path d="M9255 3913 c8 -43 28 -85 62 -130 l24 -33 1409 0 1408 0 28 33 c35 41 63 104 64 140 l0 27 -1501 0 -1501 0 7 -37z"/>
 <path d="M10743 3702 l-1333 -2 0 -45 0 -45 1345 0 1345 0 0 44 c0 27 -5 45 -12 47 -7 2 -613 3 -1345 1z"/>
 <path d="M9549 3483 c32 -43 67 -92 77 -109 11 -17 50 -82 88 -145 158 -260 234 -449 281 -699 18 -96 35 -392 35 -612 l0 -148 720 0 720 0 0 73 c1 213 21 596 36 674 29 157 69 291 123 414 70 158 215 405 326 555 l55 74 -1260 0 -1260 0 59 -77z"/>
 <path d="M10075 1693 c3 -14 20 -46 37 -70 l31 -43 609 0 608 0 40 62 c22 33 40 65 40 70 0 4 -309 8 -686 8 l-686 0 7 -27z"/>
 <path d="M10249 1530 c-21 -5 -20 -7 17 -36 47 -37 94 -62 192 -98 l72 -28 0 -173 0 -174 26 -20 c25 -19 40 -21 200 -21 229 0 214 -15 214 216 l0 172 38 13 c99 33 262 120 262 141 0 9 -987 16 -1021 8z m569 -245 c53 -44 47 -130 -11 -165 -46 -28 -81 -25 -122 11 -30 27 -35 37 -35 74 0 92 98 139 168 80z"/>
 </g>

</svg>
