<?xml version="1.0" encoding="UTF-8" standalone="no"?>
<svg
   xmlns:dc="http://purl.org/dc/elements/1.1/"
   xmlns:cc="http://creativecommons.org/ns#"
   xmlns:rdf="http://www.w3.org/1999/02/22-rdf-syntax-ns#"
   xmlns:svg="http://www.w3.org/2000/svg"
   xmlns="http://www.w3.org/2000/svg"
   xmlns:sodipodi="http://sodipodi.sourceforge.net/DTD/sodipodi-0.dtd"
   xmlns:inkscape="http://www.inkscape.org/namespaces/inkscape"
   inkscape:version="1.0 (4035a4fb49, 2020-05-01)"
   sodipodi:docname="svg.svg"
   id="svg8"
   version="1.1"
   viewBox="0 0 198.4375 132.29167"
   height="500"
   width="750">
  <defs
     id="defs2" />
  <sodipodi:namedview
     inkscape:object-nodes="true"
     inkscape:showpageshadow="false"
     inkscape:window-maximized="1"
     inkscape:window-y="-8"
     inkscape:window-x="-8"
     inkscape:window-height="1017"
     inkscape:window-width="1920"
     units="px"
     showgrid="false"
     inkscape:document-rotation="0"
     inkscape:current-layer="layer1"
     inkscape:document-units="px"
     inkscape:cy="317.21141"
     inkscape:cx="493.83585"
     inkscape:zoom="0.64593752"
     inkscape:pageshadow="2"
     inkscape:pageopacity="0.0"
     borderopacity="1.0"
     bordercolor="#666666"
     pagecolor="#ffffff"
     id="base"
     inkscape:snap-others="false"
     inkscape:lockguides="true" />
  <metadata
     id="metadata5">
    <rdf:RDF>
      <cc:Work
         rdf:about="">
        <dc:format>image/svg+xml</dc:format>
        <dc:type
           rdf:resource="http://purl.org/dc/dcmitype/StillImage" />
        <dc:title></dc:title>
      </cc:Work>
    </rdf:RDF>
  </metadata>
  <g
     transform="translate(24.361688,-53.114795)"
     id="layer1"
     inkscape:groupmode="layer"
     inkscape:label="Шар 1">
    <g
       id="g838"
       inkscape:label="Kambja_LIPP_ja_VAPP_august_2020"
       transform="matrix(0,0.46669489,0.46669489,0,-77.006272,-19.636871)">
      <path
         d="M 155.887,112.803 H 439.352 V 538.0005 H 155.887 Z"
         style="fill:#289442;fill-opacity:1;fill-rule:nonzero;stroke:none"
         id="path858" />
      <g
         id="g860"
         transform="translate(209.239,243.7)">
        <path
           d="M 0,0 C 0.834,1.402 1.267,2.909 1.303,4.537 1.339,6.155 0.981,7.754 0.446,9.266 l -0.004,0.01 c -0.609,1.469 -1.463,2.858 -2.368,4.162 -0.768,1.105 -1.59,2.174 -2.427,3.227 -0.33,0.416 -0.641,0.778 -0.898,1.25 -0.179,0.327 -0.341,0.663 -0.496,1.017 -0.162,0.42 -0.296,0.852 -0.413,1.286 -1.151,4.292 -1.597,9.158 -1.855,13.589 -0.018,0.3 -0.035,0.601 -0.05,0.902 0.108,-5.288 0.596,-10.372 1.655,-15.62 0.197,-0.974 0.334,-1.911 0.399,-2.889 C -5.969,15.57 -6.03,15.417 -6.072,14.745 -6.104,14.252 -6.11,13.756 -6.094,13.262 -6.036,11.477 -5.684,9.689 -5.12,7.995 -4.591,6.409 -3.864,4.868 -2.962,3.459 -2.149,2.19 -1.157,0.971 0,0 Z m 153.742,11.421 -10e-4,-0.018 c -0.024,-0.381 -0.024,-0.765 0,-1.146 l 10e-4,-0.018 c 0.146,-2.23 1.111,-4.237 2.596,-5.723 1.616,-1.615 3.848,-2.615 6.314,-2.615 2.465,0 4.698,1 6.313,2.615 1.616,1.616 2.616,3.849 2.616,6.314 0,2.465 -1,4.698 -2.616,6.313 -1.615,1.616 -3.848,2.616 -6.313,2.616 -2.466,0 -4.698,-1 -6.314,-2.616 -1.485,-1.485 -2.45,-3.492 -2.596,-5.722 z m -0.18,3.869 h -2.334 V 6.371 h 2.335 c -0.579,1.176 -0.927,2.462 -1.009,3.795 l -0.01,0.176 c -0.016,0.342 -0.015,0.686 0.003,1.028 l 0.007,0.124 c 0.081,1.333 0.429,2.62 1.008,3.796 z M 150.038,3.413 v 14.835 l -4.762,-0.253 V 3.665 Z m -5.952,14.519 -2.382,-0.127 V 3.855 l 2.382,-0.126 z m -3.572,-0.19 -14.588,-0.775 c 0.179,-0.709 0.327,-1.425 0.442,-2.147 0.207,-1.287 0.315,-2.59 0.315,-3.894 v -0.105 l -0.002,-0.327 -0.006,-0.311 c -0.047,-1.858 -0.299,-3.706 -0.75,-5.489 l 14.589,-0.776 z m -15.022,-6.816 c -0.005,1.27 -0.107,2.507 -0.299,3.706 -0.202,1.258 -0.505,2.495 -0.902,3.699 l -0.13,0.394 c -1.196,3.429 -3.146,6.512 -5.654,9.035 -4.247,4.273 -10.095,6.935 -16.578,6.935 v 0.003 l -0.313,-0.002 H 101.613 12.25 V 22.24 h 89.389 v 0.003 c 3.145,0 5.997,-1.28 8.063,-3.348 2.063,-2.065 3.341,-4.917 3.341,-8.066 0,-3.152 -1.278,-6.006 -3.343,-8.071 -2.066,-2.066 -4.92,-3.344 -8.072,-3.344 H 12.25 v -12.449 h 89.378 c 6.588,0 12.554,2.672 16.873,6.991 2.563,2.563 4.546,5.706 5.735,9.216 l 0.002,0.004 c 0.156,0.464 0.3,0.932 0.427,1.405 l 0.002,0.004 c 0.487,1.801 0.768,3.685 0.817,5.628 l 0.001,0.006 c 0.006,0.232 0.007,0.465 0.007,0.698 z M -0.661,12.405 c 1.021,1.272 1.66,2.705 1.922,4.312 0.26,1.597 0.129,3.231 -0.191,4.802 l -0.002,0.01 c -0.399,1.54 -1.052,3.034 -1.767,4.451 -0.606,1.201 -1.271,2.374 -1.953,3.533 -0.269,0.459 -0.526,0.861 -0.716,1.363 -0.131,0.349 -0.245,0.704 -0.349,1.077 -0.102,0.439 -0.175,0.884 -0.23,1.331 -0.543,4.411 -0.307,9.291 0.054,13.715 0.024,0.299 0.049,0.6 0.076,0.9 C -4.446,42.648 -4.67,37.545 -4.352,32.2 c 0.059,-0.991 0.065,-1.938 -0.007,-2.916 -0.046,-0.63 -0.127,-0.773 -0.263,-1.432 -0.1,-0.484 -0.175,-0.974 -0.228,-1.466 -0.191,-1.776 -0.091,-3.595 0.232,-5.351 0.303,-1.644 0.808,-3.272 1.506,-4.792 0.628,-1.37 1.44,-2.715 2.451,-3.838 z m 1.072,12.377 c 1.188,1.117 2.02,2.447 2.503,4.002 0.48,1.545 0.577,3.181 0.48,4.782 l -0.001,0.01 C 3.212,35.156 2.773,36.727 2.263,38.23 1.83,39.504 1.334,40.758 0.82,42 c -0.202,0.492 -0.401,0.926 -0.519,1.45 -0.082,0.363 -0.145,0.731 -0.196,1.115 -0.04,0.448 -0.05,0.9 -0.042,1.35 0.076,4.443 0.989,9.243 1.962,13.573 0.065,0.294 0.132,0.588 0.2,0.881 -1.354,-5.113 -2.286,-10.134 -2.714,-15.471 -0.079,-0.99 -0.206,-1.929 -0.413,-2.887 -0.133,-0.617 -0.234,-0.748 -0.46,-1.382 -0.166,-0.465 -0.309,-0.939 -0.43,-1.419 -0.436,-1.733 -0.591,-3.548 -0.515,-5.331 0.071,-1.671 0.345,-3.353 0.824,-4.955 0.432,-1.444 1.049,-2.89 1.894,-4.142 z m 2.784,12.107 c 1.332,0.941 2.341,2.142 3.036,3.615 0.69,1.463 1.014,3.07 1.14,4.668 v 0.01 C 7.412,46.773 7.197,48.389 6.9,49.948 6.649,51.27 6.332,52.581 5.996,53.883 5.864,54.397 5.728,54.855 5.684,55.39 c -0.03,0.372 -0.042,0.744 -0.039,1.132 0.023,0.449 0.076,0.898 0.146,1.342 0.694,4.39 2.266,9.016 3.832,13.169 0.106,0.281 0.213,0.563 0.321,0.845 C 7.892,67.003 6.27,62.16 5.103,56.934 4.887,55.965 4.631,55.052 4.293,54.132 4.075,53.54 3.957,53.425 3.645,52.829 3.415,52.391 3.208,51.941 3.022,51.483 2.348,49.828 1.943,48.052 1.77,46.275 1.607,44.611 1.644,42.907 1.896,41.254 2.123,39.764 2.532,38.247 3.195,36.889 Z M 7.637,48.49 c 1.449,0.747 2.616,1.796 3.509,3.158 0.887,1.353 1.432,2.899 1.779,4.464 l 0.002,0.01 c 0.262,1.569 0.273,3.2 0.197,4.785 -0.066,1.344 -0.197,2.686 -0.348,4.022 -0.059,0.528 -0.131,1 -0.099,1.536 0.021,0.373 0.062,0.743 0.118,1.126 0.086,0.442 0.2,0.879 0.332,1.31 1.298,4.25 3.498,8.612 5.627,12.507 0.144,0.264 0.29,0.528 0.436,0.791 -2.711,-4.542 -4.991,-9.111 -6.874,-14.124 -0.349,-0.93 -0.73,-1.797 -1.192,-2.662 -0.299,-0.556 -0.431,-0.653 -0.823,-1.2 C 10.013,63.811 9.744,63.394 9.496,62.967 8.599,61.422 7.95,59.719 7.531,57.984 7.139,56.358 6.939,54.666 6.958,52.993 6.975,51.487 7.17,49.927 7.637,48.49 Z m 6.012,10.871 c 1.54,0.538 2.842,1.414 3.916,2.638 1.067,1.216 1.821,2.671 2.382,4.173 l 0.004,0.01 c 0.477,1.517 0.716,3.13 0.86,4.711 0.123,1.339 0.18,2.687 0.216,4.031 0.015,0.531 0.01,1.009 0.115,1.536 0.074,0.365 0.165,0.727 0.275,1.098 0.146,0.426 0.32,0.842 0.51,1.25 1.877,4.028 4.663,8.042 7.313,11.602 0.18,0.242 0.36,0.483 0.542,0.724 -3.317,-4.121 -6.21,-8.328 -8.773,-13.03 -0.475,-0.873 -0.972,-1.679 -1.551,-2.47 -0.372,-0.509 -0.518,-0.587 -0.982,-1.075 -0.341,-0.357 -0.665,-0.733 -0.97,-1.122 -1.103,-1.405 -1.983,-3.001 -2.639,-4.661 -0.615,-1.554 -1.049,-3.203 -1.262,-4.861 -0.194,-1.495 -0.218,-3.066 0.044,-4.554 z m 7.468,9.928 c 1.6,0.318 3.01,1.005 4.244,2.068 1.226,1.055 2.175,2.391 2.941,3.801 l 0.004,0.009 c 0.684,1.436 1.145,3 1.508,4.545 0.308,1.309 0.552,2.636 0.775,3.962 0.089,0.524 0.15,0.997 0.328,1.504 0.123,0.352 0.264,0.697 0.424,1.05 0.204,0.401 0.434,0.789 0.679,1.167 2.419,3.728 5.738,7.314 8.857,10.471 0.211,0.215 0.424,0.428 0.638,0.641 -3.858,-3.619 -7.309,-7.382 -10.501,-11.682 -0.592,-0.798 -1.197,-1.527 -1.88,-2.23 -0.44,-0.453 -0.595,-0.509 -1.122,-0.927 -0.388,-0.307 -0.761,-0.634 -1.117,-0.977 -1.288,-1.237 -2.381,-2.695 -3.262,-4.248 -0.825,-1.454 -1.484,-3.026 -1.927,-4.638 -0.399,-1.454 -0.641,-3.006 -0.589,-4.516 z m 8.777,8.792 c 1.628,0.092 3.121,0.576 4.49,1.457 1.361,0.874 2.487,2.066 3.441,3.354 l 0.006,0.009 c 0.877,1.327 1.551,2.812 2.126,4.291 0.487,1.254 0.913,2.534 1.318,3.816 0.161,0.507 0.287,0.967 0.534,1.444 0.172,0.331 0.359,0.653 0.567,0.98 0.258,0.369 0.54,0.722 0.835,1.061 2.914,3.355 6.699,6.445 10.228,9.137 0.239,0.183 0.479,0.365 0.72,0.546 -4.324,-3.046 -8.265,-6.294 -12.024,-10.107 -0.698,-0.708 -1.398,-1.345 -2.172,-1.947 -0.499,-0.387 -0.66,-0.421 -1.241,-0.762 -0.426,-0.25 -0.841,-0.521 -1.241,-0.811 -1.448,-1.046 -2.733,-2.338 -3.822,-3.753 -1.019,-1.325 -1.891,-2.79 -2.554,-4.325 -0.597,-1.384 -1.053,-2.888 -1.211,-4.39 z m 9.915,7.485 c 1.625,-0.135 3.17,0.136 4.649,0.817 1.469,0.677 2.75,1.7 3.874,2.844 l 0.007,0.007 c 1.054,1.192 1.927,2.569 2.703,3.954 0.657,1.174 1.257,2.381 1.836,3.595 0.23,0.479 0.419,0.917 0.73,1.356 0.216,0.304 0.446,0.597 0.697,0.891 0.307,0.33 0.636,0.64 0.975,0.935 3.353,2.917 7.531,5.45 11.4,7.625 0.262,0.148 0.526,0.294 0.789,0.44 -4.705,-2.415 -9.061,-5.082 -13.313,-8.335 -0.79,-0.604 -1.572,-1.138 -2.422,-1.626 -0.548,-0.313 -0.712,-0.326 -1.335,-0.582 -0.457,-0.188 -0.905,-0.399 -1.342,-0.63 -1.58,-0.835 -3.032,-1.935 -4.307,-3.185 -1.194,-1.17 -2.26,-2.5 -3.131,-3.928 -0.784,-1.287 -1.445,-2.712 -1.81,-4.178 z m 10.859,6.032 c 1.591,-0.36 3.159,-0.307 4.718,0.163 1.55,0.465 2.961,1.3 4.233,2.276 l 0.007,0.007 c 1.21,1.033 2.267,2.275 3.227,3.538 0.814,1.072 1.576,2.184 2.319,3.305 0.294,0.443 0.543,0.85 0.911,1.241 0.256,0.271 0.526,0.529 0.815,0.786 0.35,0.284 0.718,0.545 1.095,0.79 3.727,2.421 8.217,4.349 12.351,5.964 0.28,0.11 0.561,0.218 0.843,0.326 -4.997,-1.737 -9.681,-3.772 -14.345,-6.401 -0.865,-0.488 -1.714,-0.908 -2.624,-1.273 -0.586,-0.234 -0.751,-0.223 -1.403,-0.391 -0.478,-0.122 -0.952,-0.269 -1.417,-0.437 -1.68,-0.607 -3.271,-1.494 -4.708,-2.554 -1.345,-0.993 -2.586,-2.161 -3.647,-3.454 -0.956,-1.165 -1.809,-2.485 -2.375,-3.886 z m 11.594,4.462 c 1.525,-0.578 3.086,-0.743 4.695,-0.495 1.599,0.245 3.112,0.875 4.508,1.665 l 0.009,0.005 c 1.341,0.855 2.56,1.938 3.687,3.056 0.955,0.947 1.865,1.943 2.757,2.949 0.353,0.398 0.655,0.767 1.075,1.102 0.291,0.233 0.594,0.451 0.916,0.665 0.386,0.232 0.787,0.44 1.194,0.63 4.027,1.879 8.742,3.163 13.061,4.187 0.292,0.07 0.586,0.138 0.88,0.206 -5.189,-1.025 -10.111,-2.388 -15.096,-4.343 -0.925,-0.363 -1.824,-0.66 -2.776,-0.895 -0.613,-0.15 -0.774,-0.116 -1.443,-0.192 -0.491,-0.054 -0.981,-0.134 -1.464,-0.236 -1.749,-0.367 -3.448,-1.024 -5.018,-1.874 -1.47,-0.796 -2.862,-1.779 -4.092,-2.912 -1.109,-1.021 -2.137,-2.21 -2.893,-3.518 z m 12.102,2.805 c 1.43,-0.784 2.952,-1.165 4.581,-1.144 1.617,0.021 3.203,0.434 4.695,1.022 l 0.009,0.004 c 1.448,0.66 2.806,1.562 4.077,2.513 1.078,0.805 2.118,1.664 3.141,2.537 0.404,0.344 0.756,0.667 1.218,0.941 0.32,0.19 0.65,0.364 0.999,0.531 0.415,0.176 0.841,0.326 1.271,0.458 4.249,1.3 9.096,1.915 13.516,2.328 0.299,0.029 0.6,0.056 0.9,0.082 -5.281,-0.293 -10.345,-0.958 -15.553,-2.2 -0.967,-0.23 -1.898,-0.4 -2.874,-0.499 -0.628,-0.064 -0.783,-0.009 -1.456,0.01 -0.494,0.014 -0.989,0.004 -1.483,-0.03 -1.782,-0.12 -3.556,-0.534 -5.229,-1.157 -1.567,-0.584 -3.082,-1.364 -4.458,-2.315 -1.24,-0.857 -2.423,-1.89 -3.354,-3.081 z m 12.375,1.094 c 1.307,-0.976 2.761,-1.565 4.376,-1.771 1.605,-0.204 3.233,-0.015 4.793,0.359 l 0.009,0.002 c 1.525,0.453 2.996,1.157 4.387,1.921 1.179,0.648 2.328,1.354 3.463,2.075 0.449,0.285 0.842,0.557 1.337,0.764 0.345,0.143 0.695,0.269 1.064,0.386 0.435,0.117 0.878,0.206 1.322,0.276 4.389,0.697 9.275,0.631 13.708,0.425 0.301,-0.013 0.602,-0.029 0.903,-0.044 -5.271,0.445 -10.377,0.491 -15.708,-0.014 -0.989,-0.094 -1.935,-0.132 -2.915,-0.095 -0.631,0.024 -0.777,0.101 -1.44,0.213 -0.487,0.083 -0.979,0.142 -1.473,0.177 -1.782,0.129 -3.596,-0.034 -5.34,-0.418 -1.632,-0.36 -3.241,-0.922 -4.736,-1.672 -1.347,-0.676 -2.663,-1.535 -3.75,-2.584 z m 12.406,-0.64 c 1.159,-1.148 2.516,-1.933 4.088,-2.362 1.56,-0.426 3.199,-0.465 4.795,-0.312 l 0.01,0.001 c 1.573,0.236 3.128,0.729 4.612,1.292 1.257,0.477 2.494,1.017 3.718,1.573 0.484,0.22 0.91,0.434 1.43,0.57 0.361,0.094 0.726,0.17 1.107,0.235 0.447,0.055 0.898,0.081 1.348,0.089 4.443,0.079 9.272,-0.666 13.634,-1.487 0.296,-0.056 0.592,-0.112 0.888,-0.17 -5.158,1.175 -10.208,1.931 -15.557,2.173 -0.993,0.045 -1.935,0.139 -2.9,0.311 -0.622,0.112 -0.755,0.209 -1.397,0.412 -0.471,0.15 -0.95,0.276 -1.433,0.38 -1.747,0.376 -3.567,0.467 -5.347,0.329 -1.666,-0.129 -3.338,-0.462 -4.922,-0.997 -1.429,-0.481 -2.851,-1.148 -4.074,-2.037 z m 12.197,-2.359 c 0.987,-1.298 2.223,-2.265 3.719,-2.908 1.486,-0.639 3.103,-0.907 4.705,-0.977 h 0.01 c 1.591,0.014 3.199,0.287 4.747,0.637 1.312,0.298 2.611,0.66 3.901,1.041 0.509,0.15 0.961,0.302 1.495,0.365 0.37,0.042 0.743,0.067 1.129,0.078 0.451,-0.007 0.901,-0.044 1.348,-0.099 4.41,-0.54 9.089,-1.95 13.294,-3.37 0.285,-0.096 0.57,-0.193 0.855,-0.292 -4.944,1.881 -9.84,3.333 -15.103,4.317 -0.977,0.183 -1.897,0.407 -2.828,0.712 -0.6,0.197 -0.719,0.311 -1.326,0.602 -0.446,0.214 -0.903,0.406 -1.367,0.576 -1.677,0.615 -3.467,0.958 -5.248,1.07 -1.669,0.104 -3.371,0.007 -5.014,-0.302 -1.481,-0.278 -2.983,-0.741 -4.317,-1.45 z m 11.75,-4.034 c 0.796,-1.423 1.886,-2.553 3.278,-3.398 1.382,-0.839 2.947,-1.329 4.523,-1.622 l 0.01,-0.001 c 1.577,-0.207 3.207,-0.162 4.789,-0.03 1.34,0.112 2.678,0.29 4.008,0.488 0.525,0.078 0.995,0.166 1.532,0.153 0.372,-0.009 0.744,-0.036 1.129,-0.08 0.444,-0.07 0.885,-0.168 1.32,-0.285 4.293,-1.148 8.729,-3.196 12.696,-5.187 0.269,-0.135 0.538,-0.271 0.806,-0.408 -4.634,2.55 -9.28,4.669 -14.355,6.376 -0.942,0.317 -1.822,0.667 -2.702,1.099 -0.566,0.279 -0.669,0.408 -1.229,0.781 -0.411,0.274 -0.837,0.527 -1.273,0.76 -1.575,0.843 -3.3,1.432 -5.048,1.79 -1.639,0.335 -3.337,0.476 -5.008,0.399 -1.505,-0.069 -3.056,-0.319 -4.476,-0.835 z m 11.073,-5.63 c 0.592,-1.52 1.513,-2.79 2.774,-3.821 1.252,-1.024 2.733,-1.727 4.254,-2.236 l 0.009,-0.003 c 1.533,-0.424 3.153,-0.606 4.739,-0.696 1.342,-0.075 2.691,-0.085 4.036,-0.074 0.531,0.003 1.008,0.025 1.538,-0.062 0.368,-0.06 0.732,-0.139 1.107,-0.236 0.431,-0.131 0.854,-0.29 1.268,-0.466 4.091,-1.735 8.199,-4.38 11.85,-6.904 0.248,-0.171 0.495,-0.343 0.742,-0.516 -4.234,3.17 -8.54,5.916 -13.328,8.312 -0.889,0.445 -1.712,0.914 -2.523,1.464 -0.522,0.355 -0.605,0.498 -1.108,0.945 -0.369,0.328 -0.756,0.638 -1.155,0.93 -1.443,1.053 -3.069,1.877 -4.75,2.474 -1.576,0.56 -3.238,0.937 -4.903,1.093 -1.501,0.14 -3.072,0.11 -4.55,-0.204 z m 10.183,-7.117 c 0.373,-1.587 1.109,-2.973 2.214,-4.169 1.098,-1.188 2.467,-2.091 3.902,-2.806 l 0.009,-0.004 c 1.459,-0.634 3.038,-1.04 4.595,-1.349 1.32,-0.262 2.654,-0.46 3.987,-0.636 0.527,-0.07 1.002,-0.115 1.515,-0.275 0.355,-0.111 0.705,-0.24 1.063,-0.388 0.408,-0.189 0.805,-0.406 1.19,-0.638 3.81,-2.287 7.511,-5.478 10.775,-8.486 0.221,-0.203 0.442,-0.409 0.662,-0.614 -3.751,3.729 -7.633,7.047 -12.041,10.086 -0.818,0.564 -1.568,1.143 -2.294,1.801 -0.468,0.424 -0.53,0.577 -0.967,1.089 -0.32,0.377 -0.659,0.738 -1.014,1.082 -1.282,1.244 -2.777,2.286 -4.359,3.112 -1.483,0.774 -3.076,1.378 -4.703,1.764 -1.467,0.348 -3.027,0.536 -4.534,0.431 z m 9.093,-8.464 c 0.149,-1.624 0.684,-3.099 1.612,-4.437 0.922,-1.33 2.152,-2.413 3.473,-3.322 l 0.009,-0.005 c 1.356,-0.831 2.864,-1.452 4.362,-1.975 1.271,-0.443 2.564,-0.825 3.86,-1.185 0.512,-0.143 0.976,-0.253 1.462,-0.483 0.337,-0.16 0.665,-0.336 0.999,-0.532 0.378,-0.245 0.74,-0.514 1.09,-0.798 3.454,-2.795 6.675,-6.47 9.488,-9.903 0.191,-0.232 0.381,-0.466 0.571,-0.7 -3.196,4.215 -6.579,8.041 -10.521,11.664 -0.731,0.672 -1.393,1.35 -2.021,2.103 -0.404,0.484 -0.444,0.645 -0.805,1.213 -0.264,0.417 -0.55,0.822 -0.854,1.213 -1.096,1.41 -2.432,2.649 -3.884,3.688 -1.36,0.972 -2.854,1.792 -4.412,2.401 -1.404,0.549 -2.922,0.952 -4.429,1.058 z m 7.826,-9.648 c -0.078,-1.629 0.247,-3.164 0.98,-4.618 0.728,-1.445 1.795,-2.689 2.977,-3.773 l 0.007,-0.006 c 1.228,-1.012 2.634,-1.837 4.046,-2.563 1.196,-0.616 2.424,-1.173 3.657,-1.71 0.486,-0.213 0.931,-0.387 1.38,-0.682 0.311,-0.205 0.612,-0.426 0.915,-0.666 0.34,-0.295 0.662,-0.613 0.969,-0.942 3.031,-3.249 5.709,-7.335 8.017,-11.127 0.157,-0.256 0.313,-0.515 0.468,-0.773 -2.578,4.619 -5.395,8.878 -8.795,13.015 -0.631,0.768 -1.192,1.531 -1.709,2.363 -0.332,0.537 -0.35,0.701 -0.628,1.314 -0.204,0.45 -0.431,0.891 -0.677,1.319 -0.89,1.55 -2.04,2.963 -3.333,4.193 -1.212,1.153 -2.577,2.173 -4.035,2.992 -1.313,0.739 -2.761,1.35 -4.239,1.664 z m 6.408,-10.643 c -0.304,-1.602 -0.196,-3.167 0.327,-4.709 0.519,-1.532 1.403,-2.913 2.423,-4.151 l 0.006,-0.007 c 1.076,-1.172 2.353,-2.185 3.65,-3.101 1.099,-0.776 2.237,-1.499 3.383,-2.203 0.453,-0.278 0.869,-0.512 1.272,-0.867 0.28,-0.246 0.547,-0.506 0.814,-0.787 0.296,-0.339 0.57,-0.698 0.828,-1.067 2.55,-3.639 4.633,-8.059 6.391,-12.134 0.119,-0.276 0.238,-0.554 0.356,-0.831 -1.91,4.932 -4.108,9.542 -6.899,14.112 -0.517,0.848 -0.966,1.682 -1.363,2.579 -0.255,0.577 -0.249,0.742 -0.439,1.387 -0.14,0.475 -0.303,0.942 -0.487,1.402 -0.665,1.657 -1.608,3.217 -2.717,4.615 -1.039,1.31 -2.25,2.51 -3.579,3.524 -1.198,0.915 -2.546,1.721 -3.966,2.238 z m 4.864,-11.431 c -0.525,-1.544 -0.635,-3.109 -0.332,-4.709 0.302,-1.589 0.984,-3.08 1.822,-4.447 l 0.005,-0.008 c 0.902,-1.311 2.026,-2.492 3.183,-3.579 0.98,-0.922 2.007,-1.796 3.044,-2.652 0.409,-0.339 0.789,-0.629 1.138,-1.036 0.243,-0.283 0.472,-0.578 0.697,-0.892 0.246,-0.378 0.467,-0.771 0.671,-1.173 2.019,-3.958 3.466,-8.625 4.64,-12.905 0.08,-0.29 0.159,-0.582 0.237,-0.873 -1.205,5.151 -2.739,10.022 -4.867,14.935 -0.395,0.912 -0.724,1.8 -0.991,2.743 -0.172,0.608 -0.144,0.77 -0.242,1.436 -0.072,0.489 -0.168,0.975 -0.287,1.455 -0.428,1.735 -1.144,3.41 -2.048,4.949 -0.847,1.442 -1.879,2.798 -3.054,3.988 -1.059,1.073 -2.282,2.059 -3.616,2.768 z m 3.225,-11.997 c -0.734,-1.456 -1.061,-2.99 -0.983,-4.617 0.077,-1.615 0.546,-3.186 1.185,-4.657 l 0.004,-0.009 c 0.711,-1.423 1.66,-2.749 2.653,-3.987 0.843,-1.049 1.738,-2.058 2.646,-3.05 0.358,-0.392 0.693,-0.732 0.983,-1.184 0.201,-0.314 0.387,-0.638 0.566,-0.981 0.191,-0.408 0.355,-0.828 0.502,-1.254 1.448,-4.201 2.231,-9.024 2.799,-13.426 0.038,-0.298 0.076,-0.598 0.112,-0.897 -0.476,5.268 -1.318,10.306 -2.741,15.467 -0.264,0.958 -0.466,1.884 -0.6,2.855 -0.085,0.625 -0.035,0.782 -0.04,1.455 -0.003,0.494 -0.03,0.989 -0.081,1.481 -0.182,1.777 -0.659,3.536 -1.34,5.186 -0.638,1.545 -1.47,3.032 -2.469,4.374 -0.899,1.209 -1.973,2.356 -3.196,3.244 z m 1.525,-12.328 c -0.929,-1.34 -1.467,-2.814 -1.616,-4.436 C 175.524,9.621 175.77,8 176.198,6.455 l 0.003,-0.009 c 0.505,-1.509 1.261,-2.954 2.072,-4.318 0.689,-1.155 1.435,-2.279 2.196,-3.388 0.3,-0.439 0.585,-0.821 0.809,-1.31 0.155,-0.339 0.294,-0.685 0.424,-1.05 0.131,-0.43 0.236,-0.869 0.322,-1.311 0.849,-4.362 0.954,-9.247 0.903,-13.685 -0.003,-0.301 -0.008,-0.602 -0.014,-0.904 0.262,5.283 0.13,10.388 -0.561,15.698 -0.129,0.986 -0.2,1.93 -0.197,2.91 0.002,0.631 0.074,0.78 0.163,1.447 0.066,0.49 0.107,0.984 0.125,1.478 0.067,1.785 -0.159,3.593 -0.604,5.322 -0.417,1.619 -1.035,3.207 -1.836,4.675 -0.723,1.323 -1.627,2.608 -2.714,3.658 z M 177.083,3.247 c -1.106,-1.198 -1.844,-2.583 -2.218,-4.168 -0.371,-1.574 -0.353,-3.214 -0.145,-4.803 l 0.002,-0.01 c 0.291,-1.564 0.838,-3.1 1.452,-4.564 0.52,-1.24 1.103,-2.457 1.702,-3.661 0.236,-0.476 0.465,-0.895 0.619,-1.41 0.107,-0.357 0.196,-0.719 0.273,-1.098 0.071,-0.444 0.113,-0.894 0.137,-1.344 0.234,-4.437 -0.342,-9.289 -1.01,-13.677 -0.045,-0.297 -0.092,-0.595 -0.139,-0.893 0.994,5.195 1.573,10.269 1.628,15.623 0.01,0.994 0.071,1.939 0.21,2.909 0.091,0.625 0.182,0.762 0.363,1.41 0.133,0.476 0.243,0.96 0.33,1.446 0.315,1.759 0.342,3.581 0.142,5.355 -0.187,1.661 -0.578,3.32 -1.168,4.885 -0.531,1.41 -1.248,2.809 -2.178,4 z m -1.932,-12.272 c -1.263,-1.032 -2.186,-2.301 -2.777,-3.818 -0.587,-1.508 -0.797,-3.133 -0.811,-4.737 v -0.01 c 0.07,-1.589 0.397,-3.187 0.802,-4.721 0.343,-1.301 0.75,-2.587 1.176,-3.862 0.168,-0.505 0.336,-0.951 0.417,-1.482 0.056,-0.369 0.094,-0.74 0.118,-1.126 0.008,-0.45 -0.013,-0.901 -0.052,-1.35 -0.386,-4.427 -1.632,-9.151 -2.904,-13.403 -0.086,-0.289 -0.174,-0.577 -0.262,-0.866 1.708,5.007 2.988,9.951 3.787,15.245 0.149,0.983 0.34,1.91 0.613,2.851 0.176,0.607 0.286,0.73 0.556,1.346 0.198,0.453 0.374,0.917 0.527,1.386 0.557,1.698 0.837,3.498 0.886,5.283 0.046,1.671 -0.11,3.369 -0.476,5 -0.33,1.471 -0.845,2.955 -1.6,4.264 z m -3.622,-11.883 c -1.394,-0.847 -2.485,-1.974 -3.281,-3.395 -0.791,-1.411 -1.226,-2.992 -1.463,-4.578 l -0.001,-0.009 c -0.152,-1.584 -0.05,-3.211 0.137,-4.787 0.159,-1.336 0.383,-2.666 0.628,-3.988 0.096,-0.523 0.2,-0.989 0.206,-1.526 0.004,-0.373 -0.01,-0.746 -0.04,-1.132 -0.054,-0.446 -0.138,-0.89 -0.239,-1.329 -0.998,-4.33 -2.889,-8.835 -4.741,-12.869 -0.126,-0.274 -0.252,-0.547 -0.38,-0.82 2.387,4.72 4.343,9.438 5.872,14.569 0.284,0.952 0.602,1.844 1.004,2.738 0.258,0.576 0.385,0.683 0.737,1.256 0.259,0.421 0.498,0.855 0.716,1.299 0.787,1.604 1.315,3.348 1.612,5.108 0.278,1.648 0.36,3.351 0.224,5.018 -0.122,1.502 -0.425,3.044 -0.991,4.445 z m -5.24,-11.264 c -1.499,-0.644 -2.736,-1.608 -3.722,-2.904 -0.979,-1.288 -1.63,-2.793 -2.086,-4.33 l -0.002,-0.01 c -0.371,-1.547 -0.496,-3.173 -0.53,-4.759 -0.029,-1.345 0.008,-2.694 0.066,-4.037 0.022,-0.531 0.061,-1.007 -0.008,-1.539 -0.048,-0.37 -0.114,-0.737 -0.197,-1.115 -0.116,-0.435 -0.261,-0.863 -0.422,-1.283 -1.591,-4.149 -4.091,-8.347 -6.486,-12.084 -0.162,-0.254 -0.326,-0.507 -0.49,-0.76 3.021,4.342 5.614,8.741 7.842,13.611 0.414,0.903 0.854,1.742 1.376,2.571 0.336,0.535 0.475,0.623 0.904,1.141 0.316,0.381 0.612,0.778 0.89,1.187 1.002,1.478 1.768,3.132 2.307,4.834 0.505,1.593 0.823,3.268 0.921,4.937 0.088,1.505 0.002,3.074 -0.363,4.54 z m -6.757,-10.425 c -1.574,-0.428 -2.933,-1.212 -4.089,-2.358 -1.15,-1.139 -2.003,-2.538 -2.668,-3.997 l -0.004,-0.009 c -0.583,-1.481 -0.933,-3.073 -1.188,-4.64 -0.215,-1.328 -0.366,-2.668 -0.496,-4.006 -0.052,-0.529 -0.08,-1.006 -0.222,-1.524 -0.099,-0.359 -0.216,-0.713 -0.35,-1.076 -0.176,-0.415 -0.378,-0.818 -0.597,-1.212 -2.153,-3.887 -5.212,-7.697 -8.104,-11.064 -0.196,-0.228 -0.394,-0.456 -0.591,-0.684 3.595,3.879 6.776,7.875 9.66,12.387 0.535,0.837 1.087,1.606 1.719,2.355 0.408,0.483 0.558,0.55 1.055,1.004 0.365,0.333 0.714,0.685 1.046,1.051 1.199,1.325 2.188,2.856 2.958,4.466 0.721,1.508 1.269,3.122 1.598,4.762 0.297,1.477 0.431,3.043 0.273,4.545 z m -8.142,-9.382 c -1.618,-0.206 -3.073,-0.793 -4.378,-1.767 -1.296,-0.967 -2.337,-2.234 -3.198,-3.587 l -0.005,-0.008 c -0.783,-1.385 -1.352,-2.913 -1.822,-4.429 -0.398,-1.285 -0.734,-2.591 -1.049,-3.899 -0.125,-0.516 -0.219,-0.984 -0.432,-1.478 -0.148,-0.342 -0.312,-0.676 -0.497,-1.017 -0.231,-0.386 -0.488,-0.757 -0.759,-1.117 -2.673,-3.55 -6.233,-6.896 -9.565,-9.828 -0.226,-0.199 -0.453,-0.397 -0.681,-0.595 4.101,3.341 7.806,6.855 11.29,10.922 0.647,0.754 1.301,1.439 2.031,2.093 0.471,0.421 0.629,0.467 1.184,0.847 0.408,0.279 0.803,0.579 1.183,0.896 1.371,1.145 2.563,2.523 3.55,4.01 0.924,1.393 1.691,2.915 2.246,4.493 0.499,1.422 0.849,2.954 0.902,4.464 z m -9.368,-8.159 c -1.631,0.022 -3.154,-0.357 -4.582,-1.14 -1.418,-0.777 -2.624,-1.887 -3.666,-3.106 l -0.006,-0.008 c -0.968,-1.262 -1.744,-2.697 -2.42,-4.133 -0.574,-1.217 -1.088,-2.463 -1.582,-3.714 -0.196,-0.494 -0.354,-0.945 -0.633,-1.403 -0.194,-0.319 -0.404,-0.627 -0.634,-0.939 -0.283,-0.35 -0.589,-0.682 -0.907,-1 -3.141,-3.143 -7.132,-5.962 -10.84,-8.401 -0.252,-0.166 -0.504,-0.331 -0.757,-0.495 4.526,2.738 8.684,5.702 12.7,9.244 0.745,0.657 1.488,1.244 2.303,1.79 0.524,0.351 0.687,0.375 1.29,0.675 0.443,0.219 0.876,0.461 1.295,0.722 1.518,0.943 2.89,2.142 4.074,3.477 1.11,1.251 2.081,2.651 2.85,4.137 0.692,1.338 1.252,2.807 1.515,4.294 z m -10.413,-6.775 c -1.612,0.248 -3.172,0.086 -4.695,-0.491 -1.513,-0.573 -2.862,-1.504 -4.064,-2.566 l -0.007,-0.007 c -1.134,-1.115 -2.102,-2.428 -2.972,-3.756 -0.737,-1.125 -1.42,-2.288 -2.083,-3.458 -0.262,-0.462 -0.481,-0.886 -0.822,-1.301 -0.237,-0.288 -0.487,-0.565 -0.758,-0.841 -0.329,-0.308 -0.678,-0.594 -1.037,-0.865 -3.549,-2.675 -7.893,-4.911 -11.905,-6.811 -0.271,-0.129 -0.545,-0.257 -0.818,-0.384 4.863,2.082 9.394,4.438 13.863,7.387 0.83,0.547 1.647,1.025 2.529,1.452 0.569,0.275 0.734,0.276 1.372,0.488 0.469,0.155 0.931,0.335 1.384,0.535 1.633,0.722 3.159,1.719 4.518,2.876 1.272,1.085 2.429,2.336 3.397,3.7 0.872,1.23 1.631,2.605 2.098,4.042 z m -11.255,-5.26 c -1.561,0.47 -3.129,0.526 -4.717,0.167 -1.578,-0.356 -3.044,-1.091 -4.381,-1.976 l -0.008,-0.005 c -1.279,-0.947 -2.42,-2.112 -3.466,-3.306 -0.886,-1.012 -1.725,-2.068 -2.544,-3.134 -0.324,-0.422 -0.6,-0.811 -0.995,-1.175 -0.275,-0.252 -0.561,-0.491 -0.868,-0.727 -0.369,-0.258 -0.754,-0.494 -1.148,-0.712 -3.886,-2.155 -8.499,-3.765 -12.736,-5.087 -0.287,-0.09 -0.575,-0.179 -0.864,-0.267 5.106,1.384 9.92,3.087 14.756,5.385 0.898,0.427 1.774,0.786 2.707,1.086 0.601,0.194 0.764,0.171 1.427,0.292 0.486,0.089 0.968,0.203 1.444,0.338 1.718,0.488 3.368,1.262 4.874,2.22 1.411,0.896 2.732,1.974 3.88,3.191 1.034,1.095 1.977,2.352 2.639,3.71 z m -11.876,-3.642 c -1.482,0.683 -3.026,0.956 -4.649,0.822 -1.612,-0.134 -3.166,-0.657 -4.613,-1.347 l -0.009,-0.005 c -1.398,-0.759 -2.69,-1.754 -3.892,-2.791 -1.019,-0.878 -1.996,-1.808 -2.955,-2.75 -0.38,-0.372 -0.708,-0.718 -1.15,-1.024 -0.307,-0.212 -0.624,-0.408 -0.96,-0.6 -0.401,-0.204 -0.816,-0.383 -1.236,-0.545 -4.148,-1.593 -8.94,-2.545 -13.32,-3.265 -0.297,-0.049 -0.595,-0.097 -0.892,-0.144 5.248,0.66 10.252,1.677 15.362,3.279 0.947,0.297 1.865,0.531 2.831,0.699 0.622,0.107 0.781,0.063 1.453,0.091 0.494,0.02 0.988,0.065 1.478,0.133 1.769,0.244 3.51,0.781 5.135,1.52 1.523,0.691 2.98,1.575 4.286,2.62 1.177,0.941 2.286,2.054 3.131,3.307 z M 96.21,-77.769 c -1.372,0.882 -2.864,1.368 -4.49,1.461 -1.615,0.092 -3.226,-0.21 -4.755,-0.692 l -0.01,-0.003 c -1.49,-0.558 -2.907,-1.364 -4.242,-2.223 -1.131,-0.728 -2.228,-1.513 -3.309,-2.311 -0.428,-0.316 -0.801,-0.614 -1.281,-0.855 -0.334,-0.167 -0.675,-0.318 -1.035,-0.46 -0.425,-0.147 -0.861,-0.267 -1.299,-0.368 -4.33,-1.001 -9.208,-1.276 -13.645,-1.38 -0.301,-0.007 -0.603,-0.013 -0.904,-0.018 5.289,-0.077 10.386,0.233 15.669,1.109 0.98,0.162 1.921,0.267 2.901,0.298 0.631,0.02 0.782,-0.046 1.452,-0.112 0.491,-0.049 0.986,-0.073 1.481,-0.074 1.786,-0.004 3.586,0.285 5.297,0.79 1.604,0.473 3.17,1.146 4.609,1.998 1.297,0.769 2.549,1.717 3.561,2.84 z m -12.421,-0.228 c -1.236,1.065 -2.645,1.754 -4.242,2.071 -1.587,0.316 -3.224,0.242 -4.806,-0.023 l -0.01,-0.002 c -1.553,-0.345 -3.069,-0.945 -4.51,-1.61 -1.221,-0.564 -2.417,-1.188 -3.599,-1.829 -0.468,-0.252 -0.878,-0.496 -1.387,-0.667 -0.354,-0.12 -0.713,-0.221 -1.089,-0.312 -0.442,-0.086 -0.889,-0.144 -1.338,-0.183 -4.426,-0.389 -9.296,0.017 -13.704,0.532 -0.299,0.035 -0.598,0.071 -0.898,0.108 5.227,-0.812 10.318,-1.215 15.671,-1.083 0.993,0.025 1.94,-0.003 2.915,-0.108 0.627,-0.068 0.767,-0.155 1.421,-0.313 0.481,-0.117 0.968,-0.21 1.457,-0.28 1.768,-0.253 3.59,-0.216 5.356,0.045 1.654,0.246 3.298,0.694 4.842,1.338 1.39,0.58 2.763,1.345 3.921,2.316 z m -12.332,1.503 c -1.075,1.226 -2.375,2.105 -3.912,2.642 -1.528,0.533 -3.159,0.688 -4.762,0.646 l -0.01,-10e-4 c -1.586,-0.125 -3.171,-0.509 -4.691,-0.967 -1.288,-0.388 -2.559,-0.84 -3.818,-1.31 -0.499,-0.185 -0.939,-0.369 -1.467,-0.468 -0.367,-0.069 -0.736,-0.119 -1.121,-0.157 -0.45,-0.024 -0.901,-0.019 -1.351,0.004 -4.438,0.232 -9.203,1.312 -13.497,2.435 -0.291,0.076 -0.583,0.153 -0.873,0.232 5.063,-1.532 10.048,-2.639 15.367,-3.253 0.987,-0.114 1.921,-0.274 2.871,-0.513 0.612,-0.155 0.739,-0.26 1.365,-0.508 0.459,-0.183 0.928,-0.342 1.403,-0.479 1.716,-0.497 3.525,-0.715 5.31,-0.701 1.672,0.012 3.363,0.227 4.981,0.65 1.458,0.381 2.924,0.948 4.205,1.748 z m -12.002,3.205 c -0.894,1.364 -2.059,2.414 -3.507,3.16 -1.438,0.741 -3.033,1.121 -4.626,1.303 l -0.01,10e-4 c -1.588,0.096 -3.211,-0.063 -4.779,-0.305 -1.33,-0.205 -2.651,-0.476 -3.964,-0.766 -0.519,-0.114 -0.981,-0.235 -1.518,-0.259 -0.372,-0.017 -0.745,-0.016 -1.132,0 -0.448,0.039 -0.894,0.107 -1.336,0.193 -4.363,0.846 -8.931,2.579 -13.027,4.289 -0.278,0.115 -0.556,0.233 -0.833,0.351 4.8,-2.222 9.583,-4.011 14.765,-5.36 0.962,-0.25 1.864,-0.538 2.772,-0.908 0.584,-0.238 0.695,-0.36 1.28,-0.693 0.43,-0.244 0.872,-0.468 1.324,-0.67 1.63,-0.73 3.391,-1.198 5.161,-1.433 1.657,-0.22 3.361,-0.242 5.022,-0.049 1.497,0.175 3.028,0.532 4.408,1.146 z m -11.439,4.844 c -0.696,1.475 -1.704,2.678 -3.034,3.618 -1.321,0.934 -2.847,1.531 -4.399,1.933 l -0.01,0.002 c -1.559,0.317 -3.188,0.385 -4.775,0.364 -1.345,-0.018 -2.691,-0.102 -4.032,-0.207 -0.53,-0.041 -1.004,-0.096 -1.539,-0.046 -0.371,0.035 -0.74,0.088 -1.121,0.158 -0.438,0.101 -0.871,0.23 -1.297,0.377 -4.202,1.445 -8.485,3.797 -12.303,6.06 -0.259,0.154 -0.518,0.308 -0.776,0.464 4.445,-2.868 8.932,-5.306 13.876,-7.363 0.917,-0.381 1.771,-0.792 2.618,-1.284 0.546,-0.318 0.639,-0.454 1.172,-0.865 0.391,-0.302 0.798,-0.584 1.217,-0.848 1.513,-0.95 3.192,-1.658 4.911,-2.137 1.611,-0.448 3.295,-0.708 4.967,-0.747 1.507,-0.036 3.072,0.105 4.525,0.521 z m -10.655,6.389 c -0.483,1.557 -1.314,2.888 -2.5,4.004 -1.178,1.109 -2.606,1.914 -4.087,2.528 l -0.01,0.003 c -1.499,0.53 -3.103,0.825 -4.678,1.025 -1.334,0.169 -2.679,0.273 -4.021,0.356 -0.531,0.033 -1.008,0.045 -1.531,0.169 -0.362,0.086 -0.72,0.19 -1.088,0.312 -0.42,0.161 -0.831,0.35 -1.231,0.554 -3.96,2.016 -7.874,4.941 -11.34,7.714 -0.235,0.187 -0.47,0.377 -0.705,0.566 4.003,-3.458 8.107,-6.497 12.716,-9.222 0.856,-0.505 1.644,-1.031 2.415,-1.636 0.496,-0.391 0.569,-0.538 1.04,-1.019 0.345,-0.354 0.709,-0.691 1.087,-1.009 1.366,-1.152 2.93,-2.086 4.566,-2.8 1.533,-0.669 3.165,-1.16 4.814,-1.431 1.488,-0.246 3.057,-0.324 4.553,-0.114 z m -9.661,7.809 c -0.262,1.61 -0.899,3.044 -1.918,4.314 -1.013,1.262 -2.315,2.257 -3.696,3.071 l -0.009,0.005 c -1.412,0.734 -2.959,1.249 -4.49,1.666 -1.298,0.353 -2.615,0.643 -3.933,0.912 -0.521,0.107 -0.991,0.185 -1.492,0.38 -0.347,0.136 -0.687,0.289 -1.034,0.461 -0.394,0.218 -0.774,0.461 -1.142,0.72 -3.641,2.547 -7.11,5.989 -10.157,9.216 -0.206,0.219 -0.412,0.44 -0.618,0.66 3.482,-3.982 7.124,-7.562 11.309,-10.902 0.777,-0.62 1.484,-1.25 2.163,-1.957 0.437,-0.455 0.488,-0.612 0.888,-1.153 0.293,-0.398 0.606,-0.783 0.936,-1.151 1.192,-1.33 2.611,-2.473 4.132,-3.408 1.425,-0.875 2.972,-1.589 4.569,-2.088 1.438,-0.449 2.981,-0.746 4.492,-0.746 z m -8.48,9.078 c -0.036,1.631 -0.467,3.139 -1.3,4.539 -0.826,1.39 -1.978,2.557 -3.232,3.556 l -0.008,0.006 c -1.296,0.923 -2.756,1.648 -4.215,2.274 -1.236,0.531 -2.5,1.001 -3.767,1.451 -0.501,0.178 -0.956,0.321 -1.425,0.584 -0.325,0.183 -0.64,0.381 -0.96,0.6 -0.359,0.271 -0.702,0.565 -1.031,0.872 -3.251,3.03 -6.207,6.92 -8.774,10.541 -0.175,0.245 -0.348,0.492 -0.521,0.738 2.894,-4.427 6.002,-8.48 9.681,-12.369 0.683,-0.722 1.296,-1.444 1.87,-2.239 0.369,-0.512 0.399,-0.674 0.719,-1.266 0.234,-0.435 0.491,-0.859 0.767,-1.269 0.995,-1.484 2.241,-2.813 3.617,-3.95 1.289,-1.065 2.723,-1.987 4.234,-2.703 1.362,-0.646 2.849,-1.154 4.345,-1.365 z m -7.135,10.17 c 0.192,1.62 -0.025,3.174 -0.655,4.675 -0.625,1.492 -1.602,2.808 -2.706,3.971 l -0.007,0.008 c -1.154,1.094 -2.5,2.016 -3.857,2.838 -1.15,0.698 -2.337,1.34 -3.529,1.962 -0.471,0.246 -0.902,0.45 -1.329,0.776 -0.297,0.226 -0.581,0.467 -0.867,0.728 -0.318,0.318 -0.617,0.657 -0.9,1.007 -2.798,3.453 -5.184,7.716 -7.222,11.659 -0.139,0.267 -0.276,0.536 -0.413,0.804 2.25,-4.787 4.763,-9.232 7.866,-13.596 0.576,-0.81 1.082,-1.611 1.54,-2.477 0.294,-0.559 0.3,-0.723 0.535,-1.354 0.172,-0.464 0.367,-0.919 0.583,-1.364 0.779,-1.607 1.828,-3.098 3.032,-4.415 1.129,-1.234 2.42,-2.347 3.816,-3.266 1.259,-0.829 2.661,-1.539 4.113,-1.956 z m -5.649,11.064 c 0.415,1.577 0.416,3.146 0.002,4.721 -0.412,1.565 -1.196,3.004 -2.128,4.309 l -0.006,0.008 c -0.99,1.245 -2.194,2.344 -3.424,3.348 -1.042,0.851 -2.127,1.652 -3.221,2.433 -0.433,0.31 -0.831,0.572 -1.209,0.954 -0.262,0.266 -0.51,0.544 -0.757,0.842 -0.271,0.359 -0.519,0.736 -0.751,1.122 -2.29,3.808 -4.059,8.363 -5.529,12.551 -0.1,0.284 -0.199,0.569 -0.297,0.854 1.561,-5.054 3.432,-9.806 5.897,-14.56 0.457,-0.881 0.847,-1.745 1.18,-2.667 0.214,-0.593 0.197,-0.758 0.342,-1.415 0.105,-0.483 0.235,-0.961 0.387,-1.431 0.548,-1.701 1.379,-3.322 2.389,-4.795 0.945,-1.378 2.069,-2.66 3.324,-3.765 1.131,-0.996 2.421,-1.894 3.801,-2.509 z m -4.055,11.743 c 0.631,1.504 0.85,3.057 0.659,4.674 -0.19,1.607 -0.767,3.141 -1.507,4.563 l -0.005,0.009 c -0.808,1.37 -1.847,2.627 -2.925,3.792 -0.913,0.988 -1.876,1.932 -2.851,2.858 -0.385,0.367 -0.743,0.682 -1.064,1.113 -0.222,0.299 -0.43,0.609 -0.633,0.939 -0.218,0.393 -0.412,0.801 -0.588,1.216 -1.737,4.09 -2.856,8.846 -3.728,13.198 -0.06,0.295 -0.118,0.591 -0.175,0.887 0.843,-5.222 2.033,-10.188 3.813,-15.238 0.33,-0.938 0.596,-1.847 0.797,-2.806 0.129,-0.618 0.09,-0.778 0.142,-1.449 0.037,-0.493 0.1,-0.984 0.184,-1.472 0.306,-1.76 0.904,-3.481 1.698,-5.08 0.745,-1.497 1.679,-2.922 2.769,-4.191 0.981,-1.143 2.133,-2.213 3.414,-3.013"
           style="fill:#f5dc00;fill-opacity:1;fill-rule:nonzero;stroke:none"
           id="path862" />
      </g>
    </g>
  </g>
</svg>
