<?xml version="1.0" encoding="UTF-8" standalone="no"?>
<!-- Created with Inkscape (http://www.inkscape.org/) -->

<svg
   xmlns:dc="http://purl.org/dc/elements/1.1/"
   xmlns:cc="http://creativecommons.org/ns#"
   xmlns:rdf="http://www.w3.org/1999/02/22-rdf-syntax-ns#"
   xmlns:svg="http://www.w3.org/2000/svg"
   xmlns="http://www.w3.org/2000/svg"
   xmlns:sodipodi="http://sodipodi.sourceforge.net/DTD/sodipodi-0.dtd"
   xmlns:inkscape="http://www.inkscape.org/namespaces/inkscape"
   width="846.71698"
   height="538.8205"
   id="svg2"
   version="1.1"
   inkscape:version="0.48.5 r10040"
   sodipodi:docname="New document 1">
  <defs
     id="defs4" />
  <sodipodi:namedview
     id="base"
     pagecolor="#f6f3f1"
     bordercolor="#666666"
     borderopacity="1.0"
     inkscape:pageopacity="0"
     inkscape:pageshadow="2"
     inkscape:zoom="1"
     inkscape:cx="386.31696"
     inkscape:cy="332.67873"
     inkscape:document-units="px"
     inkscape:current-layer="layer1"
     showgrid="false"
     showborder="true"
     inkscape:window-width="1920"
     inkscape:window-height="1017"
     inkscape:window-x="-8"
     inkscape:window-y="-8"
     inkscape:window-maximized="1"
     fit-margin-top="0"
     fit-margin-left="0"
     fit-margin-right="0"
     fit-margin-bottom="0" />
  <metadata
     id="metadata7">
    <rdf:RDF>
      <cc:Work
         rdf:about="">
        <dc:format>image/svg+xml</dc:format>
        <dc:type
           rdf:resource="http://purl.org/dc/dcmitype/StillImage" />
        <dc:title></dc:title>
      </cc:Work>
    </rdf:RDF>
  </metadata>
  <g
     inkscape:label="Layer 1"
     inkscape:groupmode="layer"
     id="layer1"
     transform="translate(189.07278,-120.09477)">
    <g
       transform="matrix(5,0,0,-5,-261.77578,743.83577)"
       inkscape:label="Kehtna_valla_lipp_VEKTOR"
       id="g2990">
      <g
         id="g2992">
        <path
           id="path2994"
           style="fill:#ffffff;fill-opacity:1;fill-rule:evenodd;stroke:none"
           d="m 183.884,16.9843 -169.3434,107.7639 0,-107.7641 169.3434,2e-4 z"
           inkscape:connector-curvature="0" />
        <path
           id="path2996"
           style="fill:#396abd;fill-opacity:1;fill-rule:evenodd;stroke:none"
           d="m 183.884,16.9843 -169.3434,107.7639 169.3434,0 0,-107.7639 z"
           inkscape:connector-curvature="0" />
        <path
           id="path3000"
           style="fill:#040307;fill-opacity:1;fill-rule:evenodd;stroke:none"
           d="m 51.7235,83.4676 c 0.6024,0.0374 1.1149,-0.3269 1.1452,-0.8136 0.0295,-0.4864 -0.434,-0.9116 -1.0364,-0.9482 -0.602,-0.0371 -1.1148,0.3269 -1.1446,0.8136 -0.0306,0.4864 0.4334,0.911 1.0358,0.9482 z m 0.0108,-0.1715 c 0.081,0.0051 0.1613,0.0017 0.2375,-0.0091 -0.4595,-0.2228 -0.7892,-0.3889 -0.7704,-0.762 0.5604,0.3983 1.0459,0.3093 1.4856,-0.0238 -0.0644,-0.3296 -0.4204,-0.5961 -0.8651,-0.6236 -0.5077,-0.0312 -0.9383,0.2608 -0.9627,0.6523 -0.0244,0.392 0.3677,0.7344 0.8751,0.7662 z M 72.8524,43.7584 c 2.5407,-0.4507 4.3517,-1.2234 5.8045,-2.1532 2.1988,-1.4077 3.4387,-3.0396 6.4769,-2.764 -1.9639,1.3495 -3.1609,3.7666 -5.3484,4.7766 -0.4834,0.1239 -0.9732,0.2262 -1.4695,0.3042 -1.8423,0.2891 -3.6451,0.2131 -5.4635,-0.1636 z m -18.98,-5.3648 c -0.8478,-0.8085 -2.4559,-1.5072 -3.6958,-1.5653 -0.6896,-0.0329 -1.0621,0.0136 -1.5352,0.5136 -0.1466,0.1551 -0.2744,0.2659 -0.4402,0.1449 -0.1778,-0.129 -0.3348,-0.4887 -0.6143,-0.8422 l -0.0091,0.4212 c -0.0161,0.7214 0.2345,1.209 0.6696,1.3989 0.4104,0.1789 1.8589,-0.1508 2.4684,-0.2078 -2.221,0.8445 -1.6974,-0.0666 -3.5538,0.9562 -0.6832,0.3758 -1.1945,0.7948 -1.5457,0.5261 -0.2302,-0.1766 -0.3425,-0.4955 -0.5559,-0.9675 0.1236,1.5931 0.7897,2.6433 2.215,2.0038 l 0.0045,-0.0017 2.6654,-1.1041 c -0.7891,0.5638 -1.7104,0.8592 -2.5197,1.1413 1.5766,1.6477 2.4758,0.2219 4.3875,-0.8184 0.1947,-0.0096 0.551,-0.0091 0.7305,0.0442 1.7563,1.5809 3.3389,3.3415 5.0482,4.972 0.1947,-0.2129 0.3571,-0.4811 0.5102,-0.7257 0.1797,-0.286 0.3631,-0.5825 0.5922,-0.8314 l 0.0227,-0.0246 0.0221,-0.0165 c -1.3904,-1.0267 -2.8508,-2.211 -3.6868,-3.5297 1.1098,-1.2098 2.4752,-1.6052 2.9027,-2.5361 0.5029,-1.0965 -0.2673,-1.9679 -1.2189,-2.1051 0.6219,0.775 0.6126,1.1407 0.2293,1.2249 -1.1302,0.2477 -2.0559,1.2149 -3.0929,1.929 z M 67.123,31.6185 c -0.3918,-1.1035 -1.5123,-2.4531 -2.5914,-3.0643 -0.6007,-0.3407 -0.9545,-0.4674 -1.6027,-0.2344 -0.201,0.0723 -0.364,0.1134 -0.4578,-0.0689 -0.101,-0.1958 -0.0783,-0.5882 -0.1681,-1.0289 l -0.1982,0.3713 c -0.3404,0.6375 -0.3365,1.1854 -0.034,1.5511 0.2857,0.3444 1.7269,0.7036 2.2969,0.9281 -2.3635,-0.2489 -1.4845,-0.8258 -3.6031,-0.7506 -0.7795,0.0275 -1.4247,0.1709 -1.6166,-0.2277 -0.1259,-0.2613 -0.0822,-0.5967 -0.0598,-1.1143 -0.6086,1.4772 -0.4884,2.7153 1.0732,2.7882 l 0.0045,0 2.8763,0.2177 c -0.9584,0.1474 -1.9133,-0.0051 -2.7635,-0.1191 0.6636,2.1822 2.1093,1.3159 4.2849,1.2498 0.1786,0.0794 0.4963,0.241 0.6321,0.3685 0.853,2.2023 1.4706,4.4856 2.2598,6.7094 l 0.0023,-0.0012 0.0683,-0.0099 c 0.6502,-0.095 1.2909,-0.2622 1.9423,-0.3569 l 0.0051,-5e-4 5e-4,0 c -0.8614,-1.6742 -1.8,-3.6122 -1.9695,-5.3479 1.7436,-0.6565 1.0511,-0.3855 2.8477,-0.3793 0.476,0.0017 0.9598,-0.0983 1.4446,-0.4838 0.9433,-0.7512 0.6497,-1.8769 -0.1381,-2.4282 0.2061,0.9717 0.032,1.2943 -0.3478,1.1965 -1.12,-0.2891 -2.9404,0.0661 -4.1879,0.2353 z M 41.3731,80.7029 c 0.4552,-0.7452 0.9918,-1.3362 1.7558,-1.4717 0.606,-0.1072 1.0255,0.066 1.5718,0.2545 0.3968,0.1367 0.8515,0.2875 1.2529,0.3756 0.5422,0.1191 1.0831,0.1846 1.582,0.123 -0.5136,0.2849 -1.0551,0.4848 -1.6183,0.6101 -0.7506,0.1678 -1.3626,-0.1304 -2.0925,-0.3099 -1.2164,-0.2999 -1.4103,-0.5541 -2.4517,0.4184 z m 4.9598,-4.276 c -1.1946,0.6485 -4.0442,-0.3286 -5.9029,-0.2262 0.0507,0.9345 4.2673,2.5682 8.0782,3.8412 -2.8089,1.2475 -5.226,2.1591 -8.5559,1.3246 0.9088,2.5433 4.3342,3.2814 9.1645,3.0127 4.0844,2.6062 8.2927,0.5641 11.5565,-2.5608 2.0962,-2.0075 4.0247,-5.082 6.0055,-8.0221 5.4301,-8.0606 9.2415,-10.5899 17.248,-16.0651 4.2879,-2.9318 8.9331,-6.2795 10.8686,-11.3054 -3.6488,2.5515 -4.521,2.2074 -7.0407,3.1856 -2.4911,0.7929 -4.0813,2.092 -6.1963,3.4027 -2.0406,1.2648 -4.1388,1.9074 -6.2662,2.329 -4.1862,0.8297 -7.5459,0.9337 -11.6723,2.6367 -4.8614,2.0061 -7.9676,5.0746 -9.8852,8.8611 2.5673,-6.1177 7.3094,-8.7304 12.8627,-10.3305 4.2832,-1.2351 10.4616,-1.4908 13.8725,-3.5686 3.0889,-1.8819 4.517,-3.3012 7.7905,-4.517 0.1947,-0.0723 0.6636,-0.2457 1.093,-0.4002 7.2989,-7.1187 13.2608,-11.1575 17.5873,-13.233 -5.7147,-3.8166 -11.1285,0.5666 -15.912,3.5844 -7.0398,4.4419 -11.8539,7.1597 -18.4612,5.7078 -0.481,-1.3552 -1.2013,-3.2502 -1.9837,-4.2431 -0.3484,-0.4408 -0.7078,-0.7039 -1.0641,-0.6625 -0.5763,0.0839 -1.366,0.2724 -1.9423,0.3566 -0.3195,0.1879 -0.504,0.7914 -0.6097,1.4814 -0.1364,0.8889 -0.1423,1.9224 -0.1389,2.3921 0.0892,1.6855 -0.6106,2.2663 -1.2028,2.329 -0.4297,0.0451 -0.9587,-0.3257 -1.3513,-0.525 l -2.156,-1.0672 c -0.9972,-0.3946 -2.3445,-1.0619 -3.1626,-0.4527 -0.4031,0.4385 -0.7027,1.1219 -1.1064,1.5605 -0.3291,1.2826 3.8787,3.6549 3.0935,4.1011 -10.605,6.0205 -11.1699,25.2046 -14.6103,27.0729"
           inkscape:connector-curvature="0" />
        <path
           id="path3002"
           style="fill:#ffffff;fill-opacity:1;fill-rule:evenodd;stroke:none"
           d="m 125.1768,91.0154 11.8256,0 11.8253,0 c -0.0604,-1.1963 -0.5284,-2.2621 -1.8527,-3.0552 l -19.9449,0 c -1.3243,0.7931 -1.7926,1.8589 -1.8533,3.0552 z m 21.6536,-3.7384 c -0.9136,-3.8616 -3.2689,-6.5304 -6.5852,-8.4041 l -6.4856,0 c -3.3163,1.8737 -5.6716,4.5425 -6.5849,8.4041 l 19.6557,0 z m -6.5687,-9.087 c 0.8796,-0.5556 1.4352,-1.3708 1.4352,-2.2793 0,-1.1166 -0.8388,-2.0923 -2.088,-2.6184 l -5.213,0 c -1.2489,0.5261 -2.088,1.5018 -2.088,2.6184 0,0.9085 0.5556,1.7237 1.4352,2.2793 l 6.5186,0 z m -0.6528,-5.5806 0,-1.7319 -5.213,0 0,1.7319 5.213,0 z M 127.188,64.6583 c 0,1.997 1.8575,1.7396 3.7962,2.9197 1.1885,0.7236 2.2728,1.5925 3.2459,2.6163 l 5.5446,0 c 0.9731,-1.0238 2.0574,-1.8927 3.2459,-2.6163 1.9389,-1.1801 3.7962,-0.9227 3.7962,-2.9197 l -19.6288,0 z m 18.2259,40.9016 c 0.2503,-3.9109 -1.4045,-4.9413 -0.9635,-8.2944 -0.7299,5.3677 -4.0354,7.3899 -2.5463,12.4514 -2.5266,-4.1266 -2.0781,-6.4244 -1.6413,-11.2906 -1.5103,9.0581 -5.7467,8.4543 -2.7181,17.4126 -7.5464,-6.3592 -0.1449,-8.2145 -4.6262,-16.2898 -0.066,4.3166 -2.1452,6.84 -0.5689,11.3309 -2.6339,-3.2219 -3.2547,-9.1157 -3.4421,-12.9416 -0.1432,3.7361 -1.643,5.0256 -1.7433,8.3396 -0.5502,-1.2796 -0.8161,-3.3823 -1.0911,-5.6554 -0.261,-2.1592 -0.1023,-6.8579 0.8215,-8.9241 l 20.113,0 c 1.4343,6.1144 -0.6248,10.6574 -1.5937,13.8614"
           inkscape:connector-curvature="0" />
      </g>
    </g>
  </g>
</svg>
