<?xml version="1.0" encoding="UTF-8" standalone="no"?>
<!-- Created with Inkscape (http://www.inkscape.org/) -->
<svg xmlns="http://www.w3.org/2000/svg" height="500" width="500" version="1.1">
<rect height="500" width="500" y="0" x="0" fill="#00b0f0"/>
<path d="M97.68,139.8c-31.04,0-41.72,34.4-64.02,34.4-14.18,0-21.91-13.9-33.66-24v349.8h500v-345.1c-7.8-7.9-16.9-15.1-31.2-15.1-31,0-41.7,34.4-64,34.4s-28.7-34.4-59.7-34.4c-31.1,0-41.6,34.4-63.9,34.4s-28.7-34.4-59.8-34.4c-31,0-41.7,34.4-64,34.4s-28.7-34.4-59.72-34.4z" fill="#fff215"/>
<path fill="#00b0f0" d="M250,191.4,275.7,279.4,356.1,235.4,312,315.7,400,341.4,312,367.1,356.1,447.5,275.7,403.5,250,491.4,224.3,403.5,143.9,447.5,188,367.1,100,341.4,188,315.7,143.9,235.4,224.3,279.4z"/>
<path fill="#FFF" d="M305.7,341.4a55.71,55.71,0,0,1,-111.4,0,55.71,55.71,0,1,1,111.4,0z"/>
<path fill="#00b0f0" d="M261.4,341.4a11.43,11.43,0,0,1,-22.8,0,11.43,11.43,0,1,1,22.8,0z"/>
</svg>
