<?xml version="1.0" encoding="UTF-8" standalone="no"?>
<!-- Created with Inkscape (http://www.inkscape.org/) -->

<svg
   xmlns:dc="http://purl.org/dc/elements/1.1/"
   xmlns:cc="http://creativecommons.org/ns#"
   xmlns:rdf="http://www.w3.org/1999/02/22-rdf-syntax-ns#"
   xmlns:svg="http://www.w3.org/2000/svg"
   xmlns="http://www.w3.org/2000/svg"
   xmlns:sodipodi="http://sodipodi.sourceforge.net/DTD/sodipodi-0.dtd"
   xmlns:inkscape="http://www.inkscape.org/namespaces/inkscape"
   id="svg2985"
   version="1.1"
   inkscape:version="0.48.2 r9819"
   width="570"
   height="362"
   sodipodi:docname="hiiu_valla_lipp.png">
  <metadata
     id="metadata2991">
    <rdf:RDF>
      <cc:Work
         rdf:about="">
        <dc:format>image/svg+xml</dc:format>
        <dc:type
           rdf:resource="http://purl.org/dc/dcmitype/StillImage" />
        <dc:title></dc:title>
      </cc:Work>
    </rdf:RDF>
  </metadata>
  <defs
     id="defs2989" />
  <sodipodi:namedview
     pagecolor="#ffffff"
     bordercolor="#666666"
     borderopacity="1"
     objecttolerance="10"
     gridtolerance="10"
     guidetolerance="10"
     inkscape:pageopacity="0"
     inkscape:pageshadow="2"
     inkscape:window-width="640"
     inkscape:window-height="480"
     id="namedview2987"
     showgrid="false"
     fit-margin-top="0"
     fit-margin-left="0"
     fit-margin-right="0"
     fit-margin-bottom="0"
     inkscape:zoom="0.54210526"
     inkscape:cx="248.1068"
     inkscape:cy="490.49552"
     inkscape:window-x="1169"
     inkscape:window-y="583"
     inkscape:window-maximized="0"
     inkscape:current-layer="svg2985" />
  <g
     id="g2995">
    <path
       style="fill:#fbfcfd"
       d="m 212.5,305.03225 c -9.13584,-1.43575 -13.86655,-3.1776 -30,-11.04607 -17.97259,-8.76542 -22.3997,-10.21771 -31,-10.16936 -7.82272,0.044 -13.02444,1.88859 -30.19289,10.70692 C 105.59965,302.59165 97.428462,305 85.762693,305 75.132875,305 68.309044,302.90512 52,294.63501 44.025,290.59099 35.090279,286.49189 32.145064,285.5259 24.852211,283.13395 14.017794,283.21745 6.7275266,285.7218 L 0.95505326,287.70476 1.2275266,270.16686 1.5,252.62895 l 5,-1.29519 c 6.730118,-1.74335 19.739424,-1.66864 27.039901,0.15529 3.278055,0.81898 12.710099,4.83986 20.960099,8.93531 17.740796,8.80683 19.396915,9.47609 26.240304,10.60396 9.451314,1.5577 16.04556,-0.25663 36.259696,-9.97645 C 136.44391,251.70242 141.93615,250 152.65488,250 c 9.91004,0 17.16156,2.30253 36.34512,11.54044 20.14784,9.70226 27.90492,11.71659 37.17095,9.6524 2.93098,-0.65294 13.42905,-5.26088 23.32905,-10.23989 20.28258,-10.2007 28.32899,-12.55451 39.52004,-11.56072 9.82145,0.87216 16.06011,3.03037 32.00035,11.07021 27.45505,13.84761 34.16284,13.99979 58.86964,1.33556 19.46783,-9.97884 26.34455,-12.1664 38.10997,-12.1232 11.47582,0.0421 16.71501,1.66258 35,10.8252 16.69709,8.36693 23.18438,10.5 31.93351,10.5 8.92824,0 13.83766,-1.68128 28.24698,-9.67345 15.62451,-8.66618 23.95572,-11.49721 35.31951,-12.00194 5.39056,-0.23942 11.20577,0.12567 14.5,0.91036 l 5.5,1.31009 0.27247,17.57985 0.27248,17.57985 -5.77248,-1.95613 c -4.53448,-1.53661 -7.66112,-1.86725 -14.57885,-1.54171 l -8.80639,0.41442 -19.19361,9.62735 C 500.74842,303.25301 495.38423,305 484.61074,305 c -9.77126,0 -19.72657,-3.1329 -37.11074,-11.67863 -20.37362,-10.01529 -27.99754,-11.87466 -38,-9.26768 -2.2,0.57339 -11.875,4.85248 -21.5,9.50909 -20.14695,9.74716 -28.1268,11.95695 -40,11.07686 -9.61022,-0.71235 -15.00501,-2.62521 -34,-12.05553 -26.89163,-13.35073 -33.20831,-13.00562 -63,3.44197 -13.77086,7.6027 -27.29688,10.7668 -38.5,9.00617 z M 78.992424,244.04574 C 70.946179,242.97835 67.092253,241.52172 51,233.46574 43.025,229.47335 34.346774,225.48531 31.715053,224.60343 23.653007,221.90185 11.952959,222.66261 2.75,226.48679 1.1221457,227.16322 1,225.98774 1,209.64553 l 0,-17.56844 4.25,-1.27302 c 6.443361,-1.93 24.115905,-1.6274 30.75,0.52651 3.025,0.98214 12.7,5.38161 21.5,9.7766 26.354877,13.16244 31.773667,13.10582 58.98894,-0.61635 30.37447,-15.31507 41.4246,-15.30632 72.01106,0.057 27.17207,13.6483 35.24719,13.84771 57.5,1.41996 19.14847,-10.69404 25.90917,-12.93767 39.0399,-12.95592 11.90801,-0.0165 18.21992,1.84205 35.4601,10.44155 18.98342,9.46904 22.14333,10.54784 30.87573,10.541 9.63099,-0.008 12.78042,-1.01523 29.62427,-9.47861 C 399.16021,191.39102 406.67867,189 417.21099,189 c 11.39796,0 17.97339,2.00245 37.78901,11.50806 28.47319,13.65867 31.39542,13.63262 59.5,-0.5304 20.4875,-10.32446 28.23228,-12.56767 40,-11.58564 3.85,0.32129 8.6875,1.06067 10.75,1.64308 l 3.75,1.05891 0,17.40864 0,17.40863 -4.25,-1.52703 c -2.3375,-0.83986 -7.42236,-1.77804 -11.29969,-2.08483 -9.58589,-0.75847 -16.00674,1.22026 -31.69271,9.76685 C 504.76467,241.32496 496.64378,244 485.5292,244 473.38883,244 466.12934,241.8478 447.82316,232.82139 419.88916,219.0477 415.35064,219.02232 388.60707,232.4903 370.64741,241.53473 362.6486,244 351.26269,244 341.05167,244 334.16362,241.83988 316.5,233.09825 296.87788,223.38738 294.431,222.57668 285,222.66172 c -9.12543,0.0823 -15.79398,2.46209 -31.5,11.24147 -26.49735,14.81153 -39.37446,14.6549 -71.5,-0.86968 -18.9662,-9.16538 -23.42892,-10.4862 -33.09359,-9.7947 -6.253,0.4474 -8.87885,1.41383 -24.70159,9.09129 -23.04356,11.18113 -31.914203,13.47973 -45.212396,11.71564 z"
       id="path2999"
       inkscape:connector-curvature="0" />
    <path
       style="fill:#1690fd"
       d="M 0,181 0,0 l 285,0 285,0 0,181 0,181 -285,0 -285,0 0,-181 z m 236.5,121.48858 c 3.85,-1.27702 10.375,-4.18514 14.5,-6.4625 29.79169,-16.44759 36.10837,-16.7927 63,-3.44197 18.99499,9.43032 24.38978,11.34318 34,12.05553 11.8732,0.88009 19.85305,-1.3297 40,-11.07686 9.625,-4.65661 19.3,-8.9357 21.5,-9.50909 10.00246,-2.60698 17.62638,-0.74761 38,9.26768 C 464.88417,301.8671 474.83948,305 484.61074,305 c 10.77349,0 16.13768,-1.74699 36.08288,-11.75131 l 19.19361,-9.62735 8.80639,-0.41442 c 6.91773,-0.32554 10.04437,0.005 14.57885,1.54171 l 5.77248,1.95613 -0.27248,-17.57985 L 568.5,251.54506 563,250.23497 c -3.29423,-0.78469 -9.10944,-1.14978 -14.5,-0.91036 -11.36379,0.50473 -19.695,3.33576 -35.31951,12.00194 C 498.77117,269.31872 493.86175,271 484.93351,271 476.18438,271 469.69709,268.86693 453,260.5 c -18.28499,-9.16262 -23.52418,-10.78306 -35,-10.8252 -11.76542,-0.0432 -18.64214,2.14436 -38.10997,12.1232 -24.7068,12.66423 -31.41459,12.51205 -58.86964,-1.33556 -15.94024,-8.03984 -22.1789,-10.19805 -32.00035,-11.07021 -11.19105,-0.99379 -19.23746,1.36002 -39.52004,11.56072 -9.9,4.97901 -20.39807,9.58695 -23.32905,10.23989 -9.26603,2.06419 -17.02311,0.0499 -37.17095,-9.6524 C 169.81644,252.30253 162.56492,250 152.65488,250 141.93615,250 136.44391,251.70242 117,261.05187 96.785864,270.77169 90.191618,272.58602 80.740304,271.02832 73.896915,269.90045 72.240796,269.23119 54.5,260.42436 46.25,256.32891 36.817956,252.30803 33.539901,251.48905 26.239424,249.66512 13.230118,249.59041 6.5,251.33376 l -5,1.29519 -0.2724734,17.53791 -0.27247334,17.5379 5.77247334,-1.98296 C 14.017794,283.21745 24.852211,283.13395 32.145064,285.5259 35.090279,286.49189 44.025,290.59099 52,294.63501 68.309044,302.90512 75.132875,305 85.762693,305 c 11.665769,0 19.836957,-2.40835 35.544417,-10.47626 17.16845,-8.81833 22.37017,-10.66294 30.19289,-10.70692 8.6003,-0.0484 13.02741,1.40394 31,10.16936 8.8,4.29186 18.025,8.35619 20.5,9.03184 12.44282,3.39676 22.12446,3.24376 33.5,-0.52944 z M 101,242.38393 c 3.025,-0.80473 13.46717,-5.32895 23.20482,-10.05383 15.82274,-7.67746 18.44859,-8.64389 24.70159,-9.09129 9.66467,-0.6915 14.12739,0.62932 33.09359,9.7947 32.12554,15.52458 45.00265,15.68121 71.5,0.86968 15.70602,-8.77938 22.37457,-11.1592 31.5,-11.24147 9.431,-0.085 11.87788,0.72566 31.5,10.43653 C 334.16362,241.83988 341.05167,244 351.26269,244 c 11.38591,0 19.38472,-2.46527 37.34438,-11.5097 26.74357,-13.46798 31.28209,-13.4426 59.21609,0.33109 C 466.12934,241.8478 473.38883,244 485.5292,244 c 11.11458,0 19.23547,-2.67504 36.2284,-11.93373 15.68597,-8.54659 22.10682,-10.52532 31.69271,-9.76685 3.87733,0.30679 8.96219,1.24497 11.29969,2.08483 l 4.25,1.52703 0,-17.40863 0,-17.40864 -3.75,-1.05891 c -2.0625,-0.58241 -6.9,-1.32179 -10.75,-1.64308 -11.76772,-0.98203 -19.5125,1.26118 -40,11.58564 -28.10458,14.16302 -31.02681,14.18907 -59.5,0.5304 C 435.18438,191.00245 428.60895,189 417.21099,189 406.67867,189 399.16021,191.39102 381,200.51581 c -16.84385,8.46338 -19.99328,9.47107 -29.62427,9.47861 -8.7324,0.007 -11.89231,-1.07196 -30.87573,-10.541 -17.24018,-8.5995 -23.55209,-10.4581 -35.4601,-10.44155 -13.13073,0.0183 -19.89143,2.26188 -39.0399,12.95592 -22.25281,12.42775 -30.32793,12.22834 -57.5,-1.41996 -30.58646,-15.36332 -41.63659,-15.37207 -72.01106,-0.057 C 89.273667,214.213 83.854877,214.26962 57.5,201.10718 48.7,196.71219 39.025,192.31272 36,191.33058 29.365905,189.17667 11.693361,188.87407 5.25,190.80407 L 1,192.07709 1,209.64553 c 0,16.34221 0.1221457,17.51769 1.75,16.84126 9.202959,-3.82418 20.903007,-4.58494 28.965053,-1.88336 2.631721,0.88188 11.309947,4.86992 19.284947,8.86231 7.975,3.99238 16.296591,7.84174 18.492424,8.55413 9.428936,3.059 20.879862,3.19131 31.507576,0.36406 z"
       id="path2997"
       inkscape:connector-curvature="0" />
  </g>
</svg>
