<?xml version="1.0" encoding="utf-8"?>
<!DOCTYPE svg PUBLIC "-//W3C//DTD SVG 1.1//EN" "http://www.w3.org/Graphics/SVG/1.1/DTD/svg11.dtd">
<svg version="1.1" xmlns="http://www.w3.org/2000/svg" width="600px" height="381.818px"
	 viewBox="0 0 600 381.818" enable-background="new 0 0 600 381.818">
<rect fill="#0077BE" width="100%" height="100%"/>
<path fill="#FFED00" d="M164.32,243.614c-5.499-10.768-1.994-11.599-0.166-14.889c1.493-2.687,7.5-7.438,13.351-10.559
	c8.414-4.486,13.127-9.01,22.545-21.635c10.246-13.73,13.577-16.773,23.848-21.793c11.845-5.785,15.272-8.835,15.328-13.627
	c0.021-1.701-1.544-1.253-4.931,1.412c-2.728,2.146-7.317,3.901-10.197,3.901c-8.551,0-21.439,6.612-32.617,16.735
	c-12.296,11.136-21.715,16.244-32.495,17.621c-4.588,0.588-9.572,2.777-12.118,5.323c-2.848,2.847-4.587,3.54-5.09,2.029
	c-1.484-4.452,5.095-11.104,17.167-17.363c7.576-3.929,13.475-8.496,15.549-12.043c8.948-15.292,17.156-24.149,27.111-29.249
	c9.783-5.012,19.85-12.775,18.42-14.205c-0.924-0.923-30.35,7.774-35.66,10.541c-2.425,1.263-9.099,6.727-14.831,12.144
	c-7.743,7.316-13.141,10.638-20.998,12.922c-5.816,1.691-11.439,3.074-12.494,3.074c-1.056,0-4.526,2.194-7.71,4.874
	c-5.104,4.293-5.789,4.461-5.764,1.412c0.044-5.336,1.827-7.012,15.551-14.637c13.276-7.375,19.962-14.379,24.813-25.992
	c3.187-7.627,11.339-14.543,22.645-19.211c7.657-3.163,16.026-9.808,16.026-12.726c0-0.893-1.84-0.636-4.089,0.568
	c-2.248,1.203-10.338,3.713-17.979,5.576c-12.649,3.086-15.053,4.484-26.889,15.65c-12.515,11.806-21.029,16.212-31.374,16.239
	c-2.25,0.005-6.733,2.234-9.962,4.952c-3.229,2.716-6.365,4.447-6.965,3.846c-2.52-2.52,1.847-7.358,12.961-14.364
	c19.284-12.155,20.531-13.321,25.021-23.379c5.382-12.06,12.611-18.969,27.621-26.4c6.469-3.203,12.118-7.017,12.553-8.476
	c0.582-1.954-0.145-2.261-2.76-1.161c-1.954,0.821-9.86,3.05-17.573,4.953c-11.789,2.91-15.085,4.635-20.707,10.844
	c-9.64,10.646-18.779,16.697-27.394,18.137c-13.453,2.248-19.562,4.859-23.404,10.006c-3.582,4.798-3.775,4.846-3.832,0.972
	c-0.113-7.681,2.273-10.132,16.065-16.504c13.487-6.231,13.936-6.662,19.364-18.636c4.061-8.957,7.71-13.817,13.554-18.05
	c4.398-3.185,9.251-5.791,10.786-5.791c3.146,0,15.679-7.224,17.795-10.255c0.76-1.089,1.396-3.203,1.411-4.695
	c0.022-2.116-0.488-2.017-2.324,0.451c-1.293,1.739-6.87,4.01-12.392,5.046c-15.294,2.871-25.823,8.334-35.799,18.575
	c-7.719,7.925-10.713,9.643-20.203,11.597c-12.49,2.57-16.843,4.444-22.707,9.777c-3.064,2.786-4.388,3.103-5.494,1.313
	c-1.913-3.094,8.173-11.623,22.238-18.806c5.954-3.04,10.825-6.266,10.824-7.168c0-0.902,3.481-6.855,7.738-13.228
	c6.328-9.477,9.842-12.639,19.295-17.361c11.864-5.927,20.029-12.179,20.029-15.336c0-1.08-0.931-1.045-2.353,0.085
	c-2.106,1.674-10.1,3.812-26.697,7.14c-3.398,0.682-10.022,5.7-17.243,13.064C89.634,58.16,88.398,58.881,78.003,60.095
	c-6.643,0.776-13.813,3.102-18.118,5.875c-3.919,2.523-11.028,4.257-11.866,3.739l-3.238-3.32L0,0v381.818h257.54L164.32,243.614z"
	/>
</svg>
