<?xml version="1.0" encoding="UTF-8" standalone="no"?>
<svg
   xmlns:dc="http://purl.org/dc/elements/1.1/"
   xmlns:cc="http://creativecommons.org/ns#"
   xmlns:rdf="http://www.w3.org/1999/02/22-rdf-syntax-ns#"
   xmlns:svg="http://www.w3.org/2000/svg"
   xmlns="http://www.w3.org/2000/svg"
   xmlns:sodipodi="http://sodipodi.sourceforge.net/DTD/sodipodi-0.dtd"
   xmlns:inkscape="http://www.inkscape.org/namespaces/inkscape"
   version="1.0"
   width="471"
   height="300"
   id="Flag of Elva"
   sodipodi:version="0.32"
   inkscape:version="0.92.4 (5da689c313, 2019-01-14)"
   sodipodi:docname="Flag_of_et-Harju_maakond.svg">
  <defs
     id="defs6" />
  <metadata
     id="metadata5">
    <rdf:RDF>
      <cc:Work
         rdf:about="">
        <dc:format>image/svg+xml</dc:format>
        <dc:type
           rdf:resource="http://purl.org/dc/dcmitype/StillImage" />
      </cc:Work>
    </rdf:RDF>
  </metadata>
  <sodipodi:namedview
     id="base"
     pagecolor="#ffffff"
     bordercolor="#666666"
     borderopacity="1.0"
     inkscape:pageopacity="0.0"
     inkscape:pageshadow="2"
     inkscape:zoom="1.2279853"
     inkscape:cx="287.52529"
     inkscape:cy="268.20856"
     inkscape:window-width="1920"
     inkscape:window-height="1017"
     showgrid="false"
     inkscape:window-x="-8"
     inkscape:window-y="-8"
     inkscape:window-maximized="1"
     inkscape:current-layer="Flag of Elva" />
  <rect
     style="fill:#FFFFFF"
     x="0"
     y="0"
     width="471"
     height="150"
     id="white Stripe" />
  <rect
     style="fill:#009739;fill-opacity:1"
     x="0"
     y="150"
     width="471"
     height="150"
     id="green Stripe" />
  <path
     style="fill:#ffffff;fill-opacity:1.0000000;fill-rule:evenodd;stroke:#000000;stroke-width:0.15940765pt;stroke-linecap:butt;stroke-linejoin:miter;stroke-opacity:1.0000000"
     d="M 184.46731,9.7466644 L 294.71023,9.8293257 C 294.33899,22.744752 295.97445,102.21663 293.91375,106.54203 C 291.73856,118.69991 273.36393,132.78667 249.55130,137.05361 C 242.91125,139.04095 241.99538,140.91140 239.82019,142.54804 C 237.70224,141.08675 237.41603,138.57335 227.05525,136.70290 C 212.68754,135.00782 187.21492,121.62247 185.03973,103.26877 C 183.78040,99.527877 185.15421,21.904531 184.46731,9.7466644 z "
     id="path5477"
     sodipodi:nodetypes="cccccccc" />
  <g
     id="g5474"
     transform="matrix(0.630999,0.000000,0.000000,0.644331,184.4674,8.572427)">
    <path
       d="M 0.092838057,2.0907162 L 0.45570284,78.000000 L 74.000000,78.000000 L 74.000000,2.0000000 M 101.00000,2.0000000 L 101.00000,78.000000 L 175.27003,78.000000 L 174.56631,2.0375759 L 101.00000,2.0000000 z "
       id="path9"
       sodipodi:nodetypes="ccccccccc"
       style="fill:#ef3340;stroke:none;fill-opacity:1" />
    <path
       d="M 0.27427045,106.18143 C 0.27427045,121.85943 -2.1851362,141.73901 3.3842600,156.00000 C 12.358500,180.40000 49.595400,197.56800 74.000000,200.00000 L 74.000000,106.00000 M 101.00000,106.00000 L 101.00000,200.00000 C 126.73600,194.69100 163.65900,181.63500 172.89500,154.00000 C 176.58784,143.14092 174.90716,120.37228 174.90716,105.90928 L 101.00000,106.00000 z "
       id="path18"
       style="fill:#ef3340;stroke:none;fill-opacity:1"
       sodipodi:nodetypes="ccccccccc" />
  </g>
</svg>
