<?xml version="1.0" encoding="UTF-8" standalone="no"?>
<svg
   xmlns:dc="http://purl.org/dc/elements/1.1/"
   xmlns:cc="http://creativecommons.org/ns#"
   xmlns:rdf="http://www.w3.org/1999/02/22-rdf-syntax-ns#"
   xmlns:svg="http://www.w3.org/2000/svg"
   xmlns="http://www.w3.org/2000/svg"
   xmlns:xlink="http://www.w3.org/1999/xlink"
   xmlns:sodipodi="http://sodipodi.sourceforge.net/DTD/sodipodi-0.dtd"
   xmlns:inkscape="http://www.inkscape.org/namespaces/inkscape"
   version="1.1"
   x="0px"
   y="0px"
   width="471.43px"
   height="300px"
   viewBox="0 0 471.43 300"
   enable-background="new 0 0 471.43 300"
   id="svg36"
   sodipodi:docname="Hiiumaa_lipp.svg"
   inkscape:version="0.92.4 (5da689c313, 2019-01-14)">
  <metadata
     id="metadata42">
    <rdf:RDF>
      <cc:Work
         rdf:about="">
        <dc:format>image/svg+xml</dc:format>
        <dc:type
           rdf:resource="http://purl.org/dc/dcmitype/StillImage" />
      </cc:Work>
    </rdf:RDF>
  </metadata>
  <defs
     id="defs40" />
  <sodipodi:namedview
     pagecolor="#ffffff"
     bordercolor="#666666"
     borderopacity="1"
     objecttolerance="10"
     gridtolerance="10"
     guidetolerance="10"
     inkscape:pageopacity="0"
     inkscape:pageshadow="2"
     inkscape:window-width="1920"
     inkscape:window-height="1017"
     id="namedview38"
     showgrid="false"
     inkscape:zoom="0.5"
     inkscape:cx="-567.30002"
     inkscape:cy="230.22334"
     inkscape:window-x="-8"
     inkscape:window-y="-8"
     inkscape:window-maximized="1"
     inkscape:current-layer="svg36" />
  <g
     id="g4">
    <rect
       id="green_Stripe"
       y="50%"
       fill="#009645"
       width="100%"
       height="50%"
       style="fill:#009739;fill-opacity:1" />
    <rect
       id="white_Stripe"
       y="0"
       fill="#FFFFFF"
       width="100%"
       height="50%" />
  </g>
  <g
     id="vapp"
     transform="translate(189.118, 15.213) scale(0.425534)">
    <path
       fill="#D9D9D9"
       stroke="#000000"
       stroke-width="1.5"
       d="M0.498,0.498v194.561C3.569,249.279,65.217,258.93,110,281.502   c44.782-22.572,106.432-32.223,109.502-86.443V0.498H0.498z"
       id="path6"
       style="fill:#ffffff;fill-opacity:1" />
    <g
       id="liilia">
      <path
         fill="#FF0000"
         stroke="#000000"
         stroke-width="1.0239"
         d="M53.6,100.856c-12.301-12.248-2.289-11.505-2.69-28.009    c1.347-16.503-12.372-20.917-6.606-34.767c1.952-4.688,8.127-8.599,9.296-11.396c1.169,2.797,7.345,6.708,9.296,11.396    c5.765,13.85-7.953,18.264-6.606,34.767C55.889,89.351,65.901,88.608,53.6,100.856z M29.747,72.362    c1.909,0.001,4.75-0.35,4.319-2.305c-0.431-1.956-1.129-1.623-6.767-2.881c-3.652-0.816-7.691-4.889-7.409-9.824    c0.282-4.934,1.873-9.384,10.002-9.764c8.371-0.392,18.552,11.975,18.216,24.191c-0.336,12.217-3.366,19.018-9.764,19.237    c-6.312,0.219-6.504-8.602-1.226-11.725c0,0-0.253,3.563,2.471,3.425c2.638-0.133,5.957-2.992,6.142-6.912    c0.288-6.108-2.273-13.679-5.834-17.96c-2.801-3.368-7.077-3.753-6.945-2.28c0.307,3.432,8.234,6.546,8.307,13.327    c0.042,3.93-2.599,7.356-5.247,7.116C33.375,75.766,31.713,74.491,29.747,72.362z M77.453,72.361    c-1.909,0.001-4.75-0.349-4.319-2.305c0.431-1.956,1.129-1.623,6.767-2.881c3.652-0.816,7.691-4.889,7.409-9.824    c-0.282-4.934-1.873-9.384-10.002-9.764c-8.372-0.392-18.553,11.975-18.216,24.191c0.336,12.216,3.366,19.017,9.764,19.236    c6.312,0.219,6.505-8.602,1.226-11.725c0,0,0.253,3.563-2.471,3.425c-2.638-0.133-5.957-2.992-6.142-6.912    c-0.287-6.108,2.273-13.679,5.834-17.96c2.801-3.367,7.076-3.753,6.944-2.28c-0.307,3.432-8.233,6.546-8.307,13.327    c-0.042,3.93,2.599,7.356,5.247,7.116C73.825,75.765,75.487,74.49,77.453,72.361z"
         id="path8"
         style="fill:#ef3340;fill-opacity:1" />
      <path
         d="M53.1,36.644v55.25h1v-55.25H53.1z"
         id="path10" />
      <g
         id="g18">
        <rect
           x="44.184"
           y="74.347"
           fill="#FF0000"
           stroke="#000000"
           stroke-width="1.1677"
           width="18.832"
           height="3.433"
           id="rect12"
           style="fill:#ef3340;fill-opacity:1" />
        <rect
           x="44.184"
           y="67.391"
           fill="#FF0000"
           stroke="#000000"
           stroke-width="1.1677"
           width="18.832"
           height="3.432"
           id="rect14"
           style="fill:#ef3340;fill-opacity:1" />
        <rect
           x="44.184"
           y="70.861"
           fill="#FF0000"
           stroke="#000000"
           stroke-width="1.1677"
           width="18.832"
           height="3.432"
           id="rect16"
           style="fill:#ef3340;fill-opacity:1" />
      </g>
    </g>
    <use
       xlink:href="#liilia"
       transform="translate(0, 115.075)"
       id="use21" />
    <use
       xlink:href="#liilia"
       transform="translate(112.8, 0)"
       id="use23" />
    <use
       xlink:href="#liilia"
       transform="translate(112.8, 115.075)"
       id="use25" />
    <g
       id="g33">
      <path
         fill="#FF0000"
         d="M113.788,196.537c0.866-0.34,1.435-1.508,2.548-1.709c6.262-1.143,9.145-21.18-2.611-23.725l0.231-46.397    c0.86-0.338,1.425-1.498,2.53-1.699c6.221-1.133,9.084-21.04-2.594-23.567l0.063-44.229c0.861-0.338,1.426-1.498,2.531-1.699    c6.221-1.133,9.084-21.04-2.594-23.567l0.146-29.352h-12.125l0.054,26.118c-8.805,1.823-9.067,11.901-5.094,17.282    c-0.7,7.98,2.945,9.271,4.971,11.92l0.123,40.292c-8.805,1.823-9.067,11.901-5.094,17.282c-0.7,7.98,2.945,9.271,4.971,11.92    l-0.124,42.441c-8.863,1.834-9.127,11.979-5.127,17.396c-0.705,8.032,2.964,9.332,5.003,11.997l0.214,48.574    c-0.883,5.023-1.204,7.924-3.133,11.726c2.247,1.983,5.918,4.327,10.208,6.063c2.206-1.399,5.895-3.843,9.702-5.763    c-1.675-3.476-3.676-6-3.737-9.603l-0.709-51.743"
         id="path27"
         style="fill:#ef3340;fill-opacity:1" />
      <path
         fill="none"
         stroke="#000000"
         d="M103.126,189.014c4.312,7.676,8.413,7.195,12.252,6.391 M111.919,186.083    c2.821,2.552,5.979,3.05,9.739-1.39 M104.339,172.338c-6.6,3.826-5.475,6.684-5.559,13.947 M109.796,176.583    c0.719,5.289-4.57,8.333-10.813,10.409 M101.348,168.055c2.284,3.971,4.87,7.283,8.347,8.629c1.314,0.098,2.628-0.033,3.942-0.201    c2.618,0.043,3.942-1.063,4.735-2.641 M96.6,185.311c2.457,1.688,4.874,3.271,6.83,3.703c3.05-0.045,6.125,0,8.389-2.931    c2.188-1.308,2.623-4.897,2.123-9.702c0.043-1.643-0.105-3.188,0.271-4.998 M103.126,47.39c4.531,8.066,8.829,7.125,12.834,6.266     M111.919,44.459c2.86,2.587,6.067,3.063,9.897-1.578 M104.339,30.714c-6.6,3.825-5.475,6.682-5.559,13.947 M109.796,34.959    c0.719,5.289-4.57,8.333-10.813,10.41 M101.644,26.937c2.212,3.745,4.723,6.834,8.052,8.123c1.314,0.098,2.628-0.034,3.941-0.202    c2.527,0.042,3.85-0.986,4.65-2.477 M96.733,43.777c2.411,1.652,4.776,3.189,6.697,3.613c3.05-0.046,6.125,0,8.389-2.931    c2.188-1.308,2.623-4.898,2.123-9.702c0.041-1.524-0.086-2.965,0.197-4.61 M115.9,123.342c0.021-0.004,0.041-0.008,0.061-0.013     M103.126,117.063c4.508,8.026,8.786,7.135,12.774,6.279 M111.918,114.132c2.861,2.587,6.066,3.063,9.898-1.578 M104.339,100.388    c-6.6,3.826-5.475,6.683-5.559,13.947 M109.796,104.632c0.718,5.289-4.571,8.334-10.814,10.41 M101.561,96.471    c2.232,3.808,4.764,6.958,8.134,8.263c1.313,0.098,2.627-0.034,3.942-0.202c2.592,0.044,3.915-1.04,4.711-2.593 M96.887,113.556    c2.357,1.611,4.664,3.092,6.542,3.507c3.05-0.045,6.125,0,8.388-2.931c2.188-1.308,2.623-4.898,2.123-9.702    c0.043-1.583-0.097-3.077,0.232-4.803 M101.838,56.108c4.195,0.793,8.259,0.931,12.131-0.666 M101.458,125.001    c4.347,1.048,8.458,1.598,12.503,0.17 M101.589,197.318c4.355,0.904,8.585,1.186,12.588-0.416 M101.18,249.113    c1.598,5.609,3.233,11.066,7.449,14.508 M101.726,233.07c3.741,4.773,7.463,9.371,13.023,10.771 M101.802,245.5    c7.106,9.828,10.249,11.049,16.142,12.559 M101.672,220.367c3.715,4.744,7.403,9.326,12.883,10.791 M114.447,218.873    c0.1,0.021,0.199,0.043,0.301,0.063 M101.64,208.797c3.628,4.598,7.334,8.873,12.807,10.076 M101.602,197.455    c3.694,4.718,7.3,9.376,12.601,11.074 M101.408,197.207c0.065,0.082,0.13,0.166,0.194,0.248 M101.726,159.578    c3.462,4.406,6.951,8.594,11.937,10.164 M101.745,148.439c3.449,4.377,6.956,8.484,11.972,9.959 M101.788,138.367    c3.428,4.323,6.96,8.303,12.015,9.63 M101.831,127.887c3.405,4.258,6.959,8.104,12.044,9.288 M101.928,89.324    c3.393,4.267,6.907,8.167,11.915,9.465 M101.893,76.615c3.451,4.384,6.952,8.51,11.958,10.009 M101.865,66.777    c3.461,4.397,6.968,8.542,11.988,10.044 M101.84,56.376c3.479,4.428,6.987,8.629,12.018,10.174 M101.96,19.546    c3.4,4.291,6.899,8.25,11.881,9.622 M101.916,7.543c3.442,4.365,6.952,8.445,11.973,9.892"
         id="path29" />
      <path
         fill="none"
         stroke="#000000"
         stroke-linecap="round"
         stroke-linejoin="round"
         d="M113.788,196.537    c0.866-0.34,1.435-1.508,2.548-1.709c6.262-1.143,9.145-21.18-2.611-23.725l0.231-46.397c0.86-0.338,1.425-1.498,2.53-1.699    c6.221-1.133,9.084-21.04-2.594-23.567l0.063-44.229c0.861-0.338,1.426-1.498,2.531-1.699c6.221-1.133,9.084-21.04-2.594-23.567    l0.146-29.352h-12.125l0.054,26.118c-8.805,1.823-9.067,11.901-5.094,17.282c-0.7,7.98,2.945,9.271,4.971,11.92l0.123,40.292    c-8.805,1.823-9.067,11.901-5.094,17.282c-0.7,7.98,2.945,9.271,4.971,11.92l-0.124,42.441c-8.863,1.834-9.127,11.979-5.127,17.396    c-0.705,8.032,2.964,9.332,5.003,11.997l0.214,48.574c-0.883,5.023-1.204,7.924-3.133,11.726c2.247,1.983,5.918,4.327,10.208,6.063    c2.206-1.399,5.895-3.843,9.702-5.763c-1.675-3.476-3.676-6-3.737-9.603l-0.709-51.743"
         id="path31" />
    </g>
  </g>
</svg>
