<?xml version="1.0" encoding="UTF-8" standalone="no"?>
<!-- Created with Inkscape (http://www.inkscape.org/) -->

<svg
   xmlns:dc="http://purl.org/dc/elements/1.1/"
   xmlns:cc="http://creativecommons.org/ns#"
   xmlns:rdf="http://www.w3.org/1999/02/22-rdf-syntax-ns#"
   xmlns:svg="http://www.w3.org/2000/svg"
   xmlns="http://www.w3.org/2000/svg"
   xmlns:sodipodi="http://sodipodi.sourceforge.net/DTD/sodipodi-0.dtd"
   xmlns:inkscape="http://www.inkscape.org/namespaces/inkscape"
   width="850"
   height="540"
   id="svg2"
   version="1.1"
   inkscape:version="0.48.5 r10040"
   sodipodi:docname="svg.svg">
  <defs
     id="defs4"><clipPath
   id="clipPath5459"
   clipPathUnits="userSpaceOnUse">
  <path
     class="fil0"
     d="m 7507.1113,0 c 0,0 0,1693.3334 0,4092.2223 0,2398.889 -1778.0001,3951.1113 -3556.0001,3951.1113 -1778,0 -3556.00016,-1552.2223 -3556.00016,-3951.1113 0,-2398.8889 0,-4092.2223 0,-4092.2223 z"
     id="path5461"
     inkscape:connector-curvature="0"
     style="fill:#ffcc2a;fill-opacity:1;stroke:none"
     sodipodi:nodetypes="czzzcc" />
</clipPath>
<clipPath
   id="clipPath4932"
   clipPathUnits="userSpaceOnUse">
  <path
     sodipodi:nodetypes="czczcc"
     style="fill:#f0c607;fill-opacity:1;stroke:none"
     inkscape:connector-curvature="0"
     id="path4934"
     d="m 987.77776,367.33289 c 0,0 -242.71578,1841.15241 58.54354,3758.10431 C 1347.5806,6042.3891 2355.0483,8759.922 5081.0878,10770.75 7807.1274,8759.922 8814.5951,6042.3891 9115.8544,4125.4372 9417.1137,2208.4853 9174.3979,367.33289 9174.3979,367.33289 z"
     class="fil0" />
</clipPath>
<clipPath
   id="clipPath4178"
   clipPathUnits="userSpaceOnUse">
  <path
     sodipodi:nodetypes="czczccc"
     style="fill:#15a94a;fill-opacity:1;stroke:none"
     inkscape:connector-curvature="0"
     id="path4180"
     d="m 9424.579,254.44439 c 0,0 365.8349,1916.25601 -39.0444,3702.57631 C 8980.6554,5743.341 8131.1247,8539.2979 5150.716,10809.556 2170.3073,8539.2979 1320.7766,5743.341 915.89735,3957.0207 511.01808,2170.7004 876.85302,254.44439 876.85302,254.44439 c 0,0 2565.76358,-169.333331 4273.86298,-169.333331 1708.0994,0 4273.863,169.333331 4273.863,169.333331 z"
     class="fil0" />
</clipPath>

 <style
   id="style6"
   type="text/css">
   
    .fil1 {fill:#FEFEFE}
    .fil0 {fill:#1A75CF}
   
  </style>

  </defs>
  <sodipodi:namedview
     id="base"
     pagecolor="#f6f3f1"
     bordercolor="#666666"
     borderopacity="1.0"
     inkscape:pageopacity="0"
     inkscape:pageshadow="2"
     inkscape:zoom="0.70710678"
     inkscape:cx="420.8253"
     inkscape:cy="387.64737"
     inkscape:document-units="px"
     inkscape:current-layer="layer1"
     showgrid="true"
     showborder="true"
     inkscape:window-width="1920"
     inkscape:window-height="1017"
     inkscape:window-x="-8"
     inkscape:window-y="-8"
     inkscape:window-maximized="1"
     fit-margin-top="0"
     fit-margin-left="0"
     fit-margin-right="0"
     fit-margin-bottom="0">
    <inkscape:grid
       type="xygrid"
       id="grid3074"
       empspacing="5"
       visible="true"
       enabled="true"
       snapvisiblegridlinesonly="true"
       originx="4.4238281e-006px"
       originy="1.7597656e-005px" />
  </sodipodi:namedview>
  <metadata
     id="metadata7">
    <rdf:RDF>
      <cc:Work
         rdf:about="">
        <dc:format>image/svg+xml</dc:format>
        <dc:type
           rdf:resource="http://purl.org/dc/dcmitype/StillImage" />
        <dc:title></dc:title>
      </cc:Work>
    </rdf:RDF>
  </metadata>
  <g
     inkscape:label="Layer 1"
     inkscape:groupmode="layer"
     id="layer1"
     transform="translate(189.07278,-118.91527)">
    <rect
       style="fill:#ffffff;fill-opacity:1;fill-rule:evenodd;stroke:none"
       id="rect3120"
       width="850"
       height="540"
       x="-189.07278"
       y="118.91527" />
    <g
       transform="matrix(5,0,0,-5,-261.77578,743.83577)"
       inkscape:label="Kehtna_valla_lipp_VEKTOR"
       id="g2990">
      <g
         id="g2992" />
    </g>
    <g
       style="fill-rule:evenodd"
       id="g3051"
       transform="matrix(0.03701073,0,0,0.03701073,104.31706,236.22325)">
      <g
         transform="matrix(-1,0,0,1,7112.0001,0)"
         id="g5474">
        <g
           id="g5453"
           clip-path="url(#clipPath5459)"
           transform="translate(-395.11112,0)" />
        <g
           transform="translate(-395.11112,-141.11114)"
           id="g3929"
           style="stroke:#ffcc2a;stroke-width:135.09596252;stroke-miterlimit:4;stroke-opacity:1;stroke-dasharray:none">
          <g
             id="g3931"
             style="stroke:#ffcc2a;stroke-width:135.09596252;stroke-miterlimit:4;stroke-opacity:1;stroke-dasharray:none">
            <path
               id="path3933"
               d="m 3824.1111,705.55555 c -468.4562,61.79442 -898.1007,472.82375 -898.1007,1082.19275 l 0,1363.3924 c 0,609.369 429.6445,1020.3983 898.1007,1082.1927 z m 254.0001,0 0,3527.77785 c 468.4562,-61.7944 898.1006,-472.8237 898.1006,-1082.1927 l 0,-1363.3924 c 0,-609.369 -429.6444,-1020.39833 -898.1006,-1082.19275 z"
               style="fill:#00a85a;fill-opacity:1;stroke:#ffcc2a;stroke-width:135.09596252;stroke-miterlimit:4;stroke-opacity:1;stroke-dasharray:none"
               inkscape:connector-curvature="0"
               sodipodi:nodetypes="cssccccssc" />
            <path
               inkscape:connector-curvature="0"
               id="path3935"
               d="M 99.5,59.90625 C 85.839281,60.002403 77,72.500003 77,85 c 0,9.119443 4.713222,18.23439 12.5625,22.5 C 81.713222,111.76561 77,120.88056 77,130 c 0,12.5 8.839283,25 27,25 18.16072,0 27,12.5 27,25 l 18,0 c 0,-12.5 8.83928,-25 27,-25 18.16072,0 27,-12.5 27,-25 0,-9.11944 -4.71322,-18.23439 -12.5625,-22.5 C 198.28678,103.23439 203,94.119443 203,85 203,72.500003 194.16072,60.002403 180.5,59.90625 l 0,52.78125 c 0,23.77875 -17.35765,39.78401 -36,42.03125 l 0,15.28125 -9,0 0,-15.28125 c -18.64236,-2.24724 -36,-18.2525 -36,-42.03125 l 0,-52.78125 z"
               style="fill:#00a85a;fill-opacity:1;stroke:#ffcc2a;stroke-width:4.78686428;stroke-miterlimit:4;stroke-opacity:1;stroke-dasharray:none"
               transform="matrix(28.222223,0,0,28.222223,-8.4482758e-5,0)" />
            <path
               class="fil0"
               d="m 7507.1112,5494.6479 0,-423.3334 -2159,0 c -445.851,195.7971 -921.425,290.9077 -1397,290.9077 -475.574,0 -951.148,-95.1106 -1397,-290.9077 l -2158.99888,0 0,423.3334 2158.99888,0 c 445.852,195.7971 921.426,290.9077 1397,290.9077 475.575,0 951.149,-95.1106 1397,-290.9077 z"
               id="path5318-1"
               inkscape:connector-curvature="0"
               style="fill:#00a85a;fill-opacity:1;fill-rule:evenodd;stroke:#ffcc2a;stroke-width:135.09596252;stroke-miterlimit:4;stroke-opacity:1;stroke-dasharray:none"
               sodipodi:nodetypes="ccccccccccc"
               clip-path="none" />
          </g>
        </g>
        <g
           id="g5395"
           transform="translate(-395.11112,-141.11114)">
          <g
             id="g5399">
            <path
               sodipodi:nodetypes="cssccccssc"
               inkscape:connector-curvature="0"
               style="fill:#00a85a;fill-opacity:1;stroke:none"
               d="m 3824.1111,705.55555 c -468.4562,61.79442 -898.1007,472.82375 -898.1007,1082.19275 l 0,1363.3924 c 0,609.369 429.6445,1020.3983 898.1007,1082.1927 z m 254.0001,0 0,3527.77785 c 468.4562,-61.7944 898.1006,-472.8237 898.1006,-1082.1927 l 0,-1363.3924 c 0,-609.369 -429.6444,-1020.39833 -898.1006,-1082.19275 z"
               id="path5348" />
            <path
               transform="matrix(28.222223,0,0,28.222223,-8.4482758e-5,0)"
               style="fill:#00a85a;fill-opacity:1;stroke:none"
               d="M 99.5,59.90625 C 85.839281,60.002403 77,72.500003 77,85 c 0,9.119443 4.713222,18.23439 12.5625,22.5 C 81.713222,111.76561 77,120.88056 77,130 c 0,12.5 8.839283,25 27,25 18.16072,0 27,12.5 27,25 l 18,0 c 0,-12.5 8.83928,-25 27,-25 18.16072,0 27,-12.5 27,-25 0,-9.11944 -4.71322,-18.23439 -12.5625,-22.5 C 198.28678,103.23439 203,94.119443 203,85 203,72.500003 194.16072,60.002403 180.5,59.90625 l 0,52.78125 c 0,23.77875 -17.35765,39.78401 -36,42.03125 l 0,15.28125 -9,0 0,-15.28125 c -18.64236,-2.24724 -36,-18.2525 -36,-42.03125 l 0,-52.78125 z"
               id="path5354"
               inkscape:connector-curvature="0" />
            <path
               class="fil0"
               d="m 7507.1112,5494.6479 0,-423.3334 -2159,0 c -445.851,195.7971 -921.425,290.9077 -1397,290.9077 -475.574,0 -951.148,-95.1106 -1397,-290.9077 l -2158.99948,0 0,423.3334 2158.99948,0 c 445.852,195.7971 921.426,290.9077 1397,290.9077 475.575,0 951.149,-95.1106 1397,-290.9077 z"
               id="path5318"
               inkscape:connector-curvature="0"
               style="fill:#00a85a;fill-opacity:1;fill-rule:evenodd;stroke:none"
               sodipodi:nodetypes="ccccccccccc"
               clip-path="none" />
          </g>
        </g>
        <g
           id="g3995"
           transform="matrix(0.91158506,0,0,0.91158506,314.40353,679.02942)">
          <path
             id="path3993"
             d="m 3556,6152.0542 c -179.0645,0 -324.2248,145.1603 -324.2248,324.2248 0,15.1757 2.036,29.9601 4.0528,44.581 -13.4521,-6.5513 -27.918,-12.4688 -42.5545,-17.2245 -170.3005,-55.3339 -352.9869,38.4193 -408.3207,208.7198 -55.3339,170.3003 38.4193,352.9867 208.7197,408.3206 14.6417,4.7573 28.8288,8.5385 43.5678,11.1453 -10.2209,10.6385 -20.4671,21.1637 -29.3829,33.4356 -105.2515,144.8663 -72.9289,347.6501 71.9373,452.9016 144.8663,105.2515 347.6502,72.9289 452.9017,-71.9373 8.862,-12.1973 16.3746,-24.563 23.3036,-37.4886 6.929,12.9256 14.4417,25.2913 23.3036,37.4886 105.2515,144.8662 308.0355,177.1888 452.9017,71.9373 144.8663,-105.2515 177.1889,-308.0353 71.9374,-452.9016 -8.9159,-12.2719 -19.162,-22.7971 -29.3829,-33.4356 14.7389,-2.6068 28.926,-6.388 43.5677,-11.1453 170.3005,-55.3339 264.0536,-238.0203 208.7198,-408.3206 -55.3339,-170.3005 -238.0203,-264.0537 -408.3208,-208.7198 -14.6364,4.7557 -29.1023,10.6732 -42.5544,17.2245 2.0167,-14.6209 4.0527,-29.4053 4.0527,-44.581 0,-179.0645 -145.1603,-324.2248 -324.2248,-324.2248 z"
             style="fill:#ffcc2a;fill-opacity:1;fill-rule:evenodd;stroke:none"
             inkscape:connector-curvature="0" />
          <path
             id="path5403"
             d="m 3556,6534.0315 91.1882,292.8156 293.8288,-12.1583 -237.0894,185.416 90.1751,267.4855 -238.1027,-160.086 -238.1026,160.086 90.175,-267.4855 -237.0894,-185.416 293.8288,12.1583 L 3556,6534.0315 z"
             style="fill:#000000;fill-opacity:1;fill-rule:evenodd;stroke:none"
             inkscape:connector-curvature="0" />
        </g>
      </g>
    </g>
    <rect
       y="118.91527"
       x="-189.07278"
       height="120"
       width="850"
       id="rect3890"
       style="fill:#00a85a;fill-opacity:1;stroke:none" />
    <rect
       style="fill:#000000;stroke:none"
       id="rect3905"
       width="850"
       height="120"
       x="-189.07278"
       y="538.91528" />
  </g>
</svg>
