<?xml version="1.0" encoding="UTF-8" standalone="no"?>
<!-- Created with Inkscape (http://www.inkscape.org/) -->

<svg
   xmlns:dc="http://purl.org/dc/elements/1.1/"
   xmlns:cc="http://creativecommons.org/ns#"
   xmlns:rdf="http://www.w3.org/1999/02/22-rdf-syntax-ns#"
   xmlns:svg="http://www.w3.org/2000/svg"
   xmlns="http://www.w3.org/2000/svg"
   xmlns:sodipodi="http://sodipodi.sourceforge.net/DTD/sodipodi-0.dtd"
   xmlns:inkscape="http://www.inkscape.org/namespaces/inkscape"
   id="svg2010"
   sodipodi:version="0.32"
   inkscape:version="0.92.4 (5da689c313, 2019-01-14)"
   width="471.42999"
   height="300"
   version="1.0"
   sodipodi:docname="Ida-Virumaa_lipp.svg">
  <metadata
     id="metadata2015">
    <rdf:RDF>
      <cc:Work
         rdf:about="">
        <dc:format>image/svg+xml</dc:format>
        <dc:type
           rdf:resource="http://purl.org/dc/dcmitype/StillImage" />
      </cc:Work>
    </rdf:RDF>
  </metadata>
  <defs
     id="defs2013" />
  <sodipodi:namedview
     inkscape:window-height="1017"
     inkscape:window-width="1920"
     inkscape:pageshadow="2"
     inkscape:pageopacity="0.0"
     guidetolerance="10.0"
     gridtolerance="10.0"
     objecttolerance="10.0"
     borderopacity="1.0"
     bordercolor="#666666"
     pagecolor="#ffffff"
     id="base"
     width="471.43px"
     height="300px"
     inkscape:zoom="2.4135912"
     inkscape:cx="202.73039"
     inkscape:cy="151.82455"
     inkscape:window-x="-8"
     inkscape:window-y="-8"
     inkscape:current-layer="svg2010"
     showgrid="false"
     inkscape:window-maximized="1" />
  <g
     id="g2313"
     transform="matrix(1.714291,0,0,1.714292,-1.386987e-6,-1.086921e-3)">
    <rect
       id="green Stripe"
       style="fill:#009739;fill-opacity:1"
       y="87.500328"
       x="1.9417648e-006"
       height="87.499664"
       width="275" />
    <rect
       id="white Stripe"
       style="fill:white"
       y="0.00066018361"
       x="1.9417648e-006"
       height="87.499664"
       width="275" />
  </g>
  <g
     id="g12850"
     transform="matrix(0.425532,0,0,0.425532,188.9055,14.99998)">
    <path
       sodipodi:nodetypes="cccccc"
       id="path11078"
       d="M 0.49999249,0.50000751 L 0.49999249,195.05764 C 3.5709455,249.27737 65.218211,258.9282 110,281.50001 C 154.78178,258.9282 216.42905,249.27737 219.50001,195.05764 L 219.50001,0.50000751 L 0.49999249,0.50000751 z "
       style="fill:black;fill-opacity:1;stroke:none;stroke-width:1;stroke-miterlimit:4;stroke-dasharray:none;stroke-opacity:1" />
    <path
       id="path31674"
       d="M 0.5,0.5 L 0.5,142.21875 C 0.65213676,142.22074 0.86067916,142.21633 1,142.21875 C 2.586077,142.67239 6.0135875,143.02528 5.46875,140.21875 C 4.9655939,138.85222 6.4472953,137.27512 7.84375,137.6875 C 12.53188,137.40112 17.217933,137.625 21.90625,137.34375 C 22.939305,136.93474 24.254468,137.7117 24.40625,138.8125 C 23.995339,139.80362 24.295956,141.03609 25.125,141.71875 C 27.092376,142.29567 29.162642,142.17639 31.1875,142.25 C 32.605104,142.53899 34.038126,141.14545 33.84375,139.71875 C 33.276833,138.21086 35.247134,136.60293 36.625,137.40625 C 39.456893,137.62969 42.285551,137.69257 45.125,137.71875 C 47.220836,137.84099 49.42448,137.04752 51.4375,137.9375 C 52.516058,138.95308 51.977969,140.66661 52.9375,141.75 C 54.117677,142.43418 55.514058,142.31128 56.8125,142.15625 C 58.204196,142.54037 59.771909,141.37223 59.8125,139.9375 C 59.446993,138.35316 61.313846,136.80852 62.78125,137.53125 C 65.409339,137.43737 68.059001,137.49016 70.6875,137.53125 C 72.898053,137.77072 75.227896,136.96661 77.34375,137.90625 C 78.335688,138.82491 77.91563,140.41351 78.78125,141.40625 C 80.118342,142.30087 81.787578,142.11335 83.3125,142.21875 C 84.622066,142.66666 86.172752,141.63355 86.25,140.25 C 85.961483,139.19184 86.610283,137.94489 87.65625,137.59375 C 92.238403,136.98483 96.876706,137.68177 101.46875,137.25 C 102.76353,136.71084 104.44061,137.41056 104.90625,138.75 C 104.69782,139.79295 105.06384,140.984 105.90625,141.65625 C 107.87673,142.3835 110.14298,142.40307 112.0625,141.5 C 112.94611,140.54392 112.51299,139.04676 113.34375,138.0625 C 114.65881,137.40847 116.16444,137.4075 117.59375,137.5625 C 118.99236,138.0814 120.76453,137.18277 121.125,135.71875 C 121.49536,118.24422 121.10612,100.78853 121.28125,83.3125 C 121.34758,81.944276 121.28484,80.355405 120.8125,79.21875 C 119.47252,78.558952 115.22791,79.165243 115.875,77.59375 C 116.78753,76.655817 137.60993,54.905025 147.875,44.96875 C 149.70661,43.429669 151.46318,40.895184 153.71875,39.90625 C 155.22434,40.454137 163.41099,48.866182 167.0625,52.5625 C 174.64298,60.142087 183.99045,69.818164 191.6875,77.28125 C 191.60549,78.401033 190.80421,78.176302 187.1875,79.21875 C 186.59191,81.943377 186.65149,85.298823 186.78125,88.03125 C 186.79347,92.169084 186.60954,96.299273 186.59375,100.4375 C 186.68616,112.09328 186.76333,123.75083 186.90625,135.40625 C 187.08426,161.20272 186.99855,186.98439 187.09375,212.78125 C 187.50761,213.96752 186.64568,215.40994 185.40625,215.625 C 146.1142,215.87385 106.82379,215.76554 67.53125,215.8125 C 53.342747,215.702 19.444314,215.48814 5.09375,215.5 C 20.640737,252.24716 71.537996,262.11365 110,281.5 C 154.78181,258.92822 216.42903,249.28225 219.5,195.0625 L 219.5,0.5 L 0.5,0.5 z "
       style="fill:#0072ce;fill-opacity:1;stroke:none;stroke-width:0.99596989;stroke-opacity:1" />
    <g
       id="g10166">
      <path
         id="path1179"
         style="fill:white;fill-opacity:1;stroke:none"
         d="M 50.593542,139.12466 C 51.081973,140.46919 50.822055,141.95113 51.280616,143.30253 C 54.256859,143.72378 57.265879,143.44425 60.253204,143.33418 C 61.166811,142.7712 61.539535,141.48754 61.069693,140.52269 C 60.983662,139.43661 62.153829,138.47305 63.203077,138.76605 C 67.282506,138.89189 71.365492,138.7041 75.444124,138.87296 C 76.453706,139.23987 76.983286,140.54131 76.516849,141.50902 C 76.414901,142.74184 77.734028,143.843 78.928633,143.52231 C 81.510953,143.54735 84.094626,143.57904 86.675927,143.48175 C 87.683157,143.08078 88.219185,141.79737 87.796243,140.79904 C 87.687456,139.56856 89.017676,138.47006 90.205219,138.80971 C 94.307506,138.96491 98.425148,138.58923 102.51675,139.02993 C 103.44601,139.61097 103.86959,140.87653 103.4779,141.90009 C 103.51615,143.04254 104.80203,143.93662 105.88615,143.57451 C 107.87754,143.37438 109.88212,143.65284 111.87372,143.45714 C 113.10023,144.00643 114.6052,142.5777 114.12057,141.32414 C 113.82761,139.82768 115.56406,138.4051 116.97341,138.98684 C 117.99142,138.91217 119.08352,138.74121 120.03814,139.20918 C 119.83479,140.29085 119.03322,141.15187 118.13845,141.73686 C 117.53213,143.00206 117.71799,144.49919 118.24167,145.75845 C 118.34853,147.06596 116.89374,148.20523 115.64989,147.79122 C 111.02687,147.67333 106.40005,148.00365 101.77956,147.73921 C 100.36805,147.38934 99.611627,145.5445 100.35637,144.29947 C 100.63759,143.19148 100.53952,141.98312 100.04494,140.94908 C 98.077895,139.86715 95.771386,140.67943 93.680101,140.17606 C 91.917392,139.96271 90.45472,142.03202 91.099894,143.64607 C 91.27059,144.84922 91.479372,146.24062 90.674931,147.27365 C 89.457313,148.33393 87.743115,147.99258 86.274732,147.90835 C 82.438599,147.7581 78.59712,148.07501 74.763178,147.82907 C 73.528698,147.47811 72.859576,145.91406 73.410371,144.76631 C 73.647586,143.50518 73.748199,142.10045 73.070041,140.95094 C 71.515772,139.79678 69.496312,140.27044 67.706383,140.2138 C 66.334505,140.03402 64.604726,140.59556 64.206352,142.06394 C 63.814298,143.27664 64.030027,144.58371 64.39019,145.77583 C 64.431397,147.18312 62.808803,148.2661 61.509089,147.80078 C 57.359644,147.68417 53.205733,147.95396 49.058765,147.71303 C 47.623869,147.29283 47.057441,145.44602 47.649586,144.1607 C 47.839249,143.12968 47.826158,142.01305 47.345252,141.05929 C 45.719123,139.93871 43.661809,140.25793 41.803719,140.16901 C 40.879381,140.02126 39.849303,140.14422 39.157301,140.83596 C 38.310959,141.64923 38.456634,142.9444 38.481645,144.01271 C 38.540823,145.16871 38.651299,146.61378 37.647899,147.42015 C 36.640977,148.20056 35.290622,148.06642 34.113926,147.88762 C 29.667364,147.73676 25.212819,148.02806 20.770518,147.71774 C 19.286315,147.41725 18.653139,145.51238 19.336079,144.25119 C 19.583122,143.20207 19.454704,142.08378 19.051836,141.08999 C 17.65523,140.18075 15.90098,140.27795 14.30849,140.31932 C 13.139786,140.44935 11.798529,139.82888 10.772218,140.64456 C 9.9351412,141.23459 9.5339572,142.34527 9.8071742,143.33159 C 9.8755602,144.53902 10.127647,145.78804 9.7406502,146.96858 C 8.7749471,148.01552 7.2042069,148.04136 5.8990562,147.80254 C 4.5784644,147.83318 3.0858774,148.06325 1.95862,147.20194 C 0.66167439,145.88827 1.9064565,143.21059 3.7682156,143.45442 C 4.7800881,143.55362 6.0627054,143.52351 6.663216,142.55475 C 7.0766942,141.57483 6.7527071,140.32903 7.5523872,139.51062 C 9.5152732,138.47278 11.782213,139.0202 13.892804,138.95135 C 16.489136,138.82384 19.098472,138.76748 21.688658,139.02992 C 22.635999,139.54992 23.0745,140.82329 22.648595,141.8165 C 22.659838,143.04433 24.001672,144.04604 25.181871,143.70768 C 28.361611,143.60148 31.551046,143.74998 34.723177,143.45287 C 35.515132,142.16782 35.061963,140.53251 35.769961,139.21739 C 38.565561,138.209 41.551969,139.01205 44.432838,138.77831 C 46.49046,138.79402 48.54637,138.92007 50.593542,139.12466 z M 25.583968,163.58722 C 26.01037,167.16044 25.779079,170.76386 25.665142,174.34813 C 24.817391,175.31852 23.394207,175.7305 22.156997,175.37756 C 16.223367,175.42116 10.28589,175.51168 4.3556361,175.25107 C 3.3566206,175.62396 2.1327422,175.24202 1.5256768,174.36459 C 1.0185439,171.18308 1.53192,167.96273 1.3693682,164.76473 C 1.6654379,163.54706 3.0747771,162.74476 4.2729022,163.11105 C 11.376419,163.272 18.491794,163.06382 25.583968,163.58722 z M 108.61027,163.6147 C 109.1907,167.09325 108.99363,170.63134 108.98747,174.14059 C 108.5261,175.10691 107.28195,175.6039 106.2819,175.2213 C 99.062876,175.42725 91.839,175.53099 84.617749,175.38546 C 83.383751,174.85763 82.703644,173.31761 83.143827,172.04975 C 83.251518,169.47987 83.05814,166.90156 83.299412,164.33665 C 84.097141,163.39364 85.445573,162.96413 86.642798,163.26274 C 93.965048,163.1911 101.30956,162.86925 108.61027,163.6147 z M 11.56761,177.5776 C 11.886759,181.1478 11.776319,184.7368 11.665883,188.314 C 10.811074,189.28408 9.3952252,189.71029 8.1456737,189.38337 C 6.0793408,189.3907 4.0149436,189.5043 1.9485415,189.50654 C 0.83724119,185.9835 1.167211,182.245 1.2656177,178.61228 C 1.7702233,177.25063 3.444517,176.47153 4.8115525,176.95912 C 6.8683144,176.99773 8.9307167,176.98303 10.978888,177.20188 C 11.199013,177.28218 11.407158,177.40487 11.56761,177.5776 z M 39.490391,177.33023 C 40.190395,180.8564 39.95266,184.47153 39.767872,188.03538 C 39.344433,189.0624 38.081892,189.64589 37.025387,189.30287 C 29.871315,189.46134 22.714859,189.48361 15.559394,189.4364 C 14.249163,189.70288 12.948289,188.28838 13.322727,187.0048 C 13.427171,183.9231 13.298824,180.8382 13.426972,177.75699 C 15.478734,176.55609 17.942657,176.82953 20.2143,176.91283 C 26.64031,176.96853 33.081981,176.72412 39.490391,177.33023 z M 52.544839,190.90832 C 53.628445,191.5353 54.166106,192.95869 53.768522,194.14575 C 53.664006,197.03251 53.848373,199.92946 53.558646,202.80881 C 49.54318,204.0602 45.297527,203.28142 41.181378,203.66387 C 37.044127,203.65054 32.909814,203.47931 28.774846,203.35986 C 27.747994,202.9618 27.153663,201.71038 27.491731,200.66258 C 27.464258,198.17149 27.302774,195.67952 27.425117,193.18859 C 27.022228,192.02433 28.206257,190.6773 29.412413,190.92756 C 37.121012,190.76689 44.841158,190.39631 52.544839,190.90832 z M 11.56761,204.81625 C 12.077973,207.82828 11.835686,210.89466 12.04033,213.92977 C 11.322996,214.77332 10.112398,215.15568 9.0400701,214.88263 C 7.9941381,215.12932 6.8196828,214.88968 6.0068279,214.17069 C 4.6687552,211.50363 3.7639748,208.62549 3.28079,205.68275 C 3.8135697,204.62553 5.1528946,204.06198 6.2811928,204.42003 C 8.0448824,204.51169 9.8387862,204.37998 11.56761,204.81625 z M 85.139736,149.40443 C 88.238773,149.46967 91.346436,149.3788 94.436077,149.67875 C 95.644631,152.2418 95.241046,155.14026 95.232224,157.87691 C 95.071919,158.91542 95.408149,160.02852 94.929203,161.01179 C 90.815161,161.96826 86.567477,161.32183 82.400358,161.71253 C 78.722116,161.73443 75.043612,161.69992 71.366257,161.61764 C 70.225213,160.9787 69.913617,159.47883 70.21524,158.28761 C 70.263776,155.76319 69.949272,153.23131 70.241586,150.71331 C 71.336613,149.26551 73.320153,149.1462 74.987168,149.18247 C 78.374378,149.12232 81.752921,149.6551 85.139736,149.40443 z M 14.013601,149.81672 C 14.539348,153.38029 14.286279,156.99073 14.174878,160.57361 C 12.772289,161.94953 10.627159,162.1564 8.7798866,161.79856 C 6.7180702,161.85278 4.6548979,161.93209 2.5923906,161.86424 C 1.4988471,161.09415 0.99410268,159.59062 1.3985787,158.31611 C 1.420899,155.69521 1.3487007,153.07122 1.5123136,150.45341 C 3.5591649,149.14212 6.1018981,149.24702 8.4277902,149.42167 C 10.293594,149.47112 12.170477,149.48864 14.013601,149.81672 z M 41.166856,149.76175 C 41.84009,153.21323 41.614737,156.74635 41.536333,160.23783 C 41.10396,161.35679 39.747975,162.01155 38.602906,161.65448 C 31.536032,161.80961 24.463861,162.01104 17.396877,161.75097 C 16.225613,161.38724 15.515912,159.97683 15.921637,158.81936 C 15.97697,156.41465 15.761499,154.00403 15.989949,151.60402 C 15.660816,150.45374 16.858094,149.20271 18.021552,149.4812 C 25.736421,149.52652 33.46768,149.07306 41.166856,149.76175 z M 68.23766,149.95415 C 68.853152,153.39045 68.617047,156.89612 68.467881,160.36171 C 67.988725,161.35706 66.732527,161.89147 65.68322,161.54651 C 58.554789,161.79948 51.416667,161.85646 44.287851,161.58596 C 43.160117,160.24074 42.875787,158.364 43.162385,156.67138 C 43.104122,154.59563 43.077957,152.51447 43.248097,150.44294 C 44.221207,149.46952 45.723641,149.07731 47.051871,149.4269 C 53.887476,149.41076 60.729296,149.2739 67.558636,149.6458 C 67.802153,149.70171 68.040373,149.79807 68.23766,149.95415 z M 120.75777,149.6518 C 121.30622,153.22472 121.05186,156.84804 121.00722,160.44463 C 120.56144,161.44831 119.27619,161.97185 118.25603,161.56557 C 111.91325,161.68142 105.5662,161.76022 99.224917,161.53143 C 97.774257,161.84459 96.329782,160.24557 96.788116,158.83389 C 97.006464,156.01621 96.705721,153.18941 96.878846,150.37031 C 97.699397,149.39846 99.107924,148.97696 100.32832,149.33212 C 107.13759,149.47683 113.95404,149.27238 120.75777,149.6518 z M 81.429524,163.72465 C 82.107613,167.05104 81.529504,170.44557 81.601859,173.80285 C 81.256422,174.83331 80.050748,175.47221 79.003164,175.19151 C 71.550189,175.41542 64.090236,175.45267 56.636854,175.22551 C 55.433679,174.92334 54.67398,173.49338 55.088219,172.32581 C 55.240107,169.72159 55.022852,167.10589 55.281735,164.50639 C 55.837119,163.36907 57.251573,162.76717 58.463463,163.09727 C 65.908946,163.33248 73.368169,162.86712 80.805514,163.40155 C 81.038971,163.44249 81.270002,163.54426 81.429524,163.72465 z M 53.479261,163.83459 C 53.922461,167.30158 53.664148,170.80231 53.490218,174.27825 C 52.877614,175.21064 51.643743,175.67784 50.567078,175.38692 C 43.635471,175.48884 36.698698,175.56633 29.770555,175.2689 C 28.46524,175.62516 27.062592,174.26747 27.3759,172.95108 C 27.389944,170.10508 27.224443,167.24973 27.52074,164.41231 C 28.031109,163.44668 29.264156,162.93996 30.306119,163.26649 C 37.823363,163.43673 45.351231,163.01458 52.860958,163.51298 C 53.093442,163.55033 53.323752,163.65268 53.479261,163.83459 z M 67.358204,177.33023 C 67.84225,180.92321 67.763685,184.55993 67.630139,188.17359 C 67.010341,189.15877 65.728179,189.66738 64.601559,189.37605 C 57.65565,189.39026 50.707234,189.49524 43.763629,189.26016 C 42.699049,189.69322 41.383423,188.66634 41.544795,187.52833 C 41.372685,184.07886 41.144897,180.60958 41.524137,177.16531 C 50.131019,176.7786 58.756036,176.87349 67.358204,177.33023 z M 95.033635,177.24777 C 95.562305,180.75429 95.276826,184.30752 95.339813,187.83667 C 94.93384,188.91657 93.62615,189.55091 92.526839,189.20125 C 85.56465,189.37725 78.5932,189.4667 71.635119,189.10615 C 70.300027,189.44757 68.892466,188.04584 69.228222,186.70916 C 69.275591,183.87965 69.033583,181.04454 69.282851,178.21965 C 69.916797,177.21328 71.230013,176.6998 72.379218,177.00166 C 79.930356,177.04443 87.498066,176.55526 95.033635,177.24777 z M 25.446551,191.21067 C 26.249645,194.52549 25.742015,197.95433 25.982829,201.31959 C 25.758084,202.48278 24.461469,203.30304 23.314267,203.00788 C 17.1488,203.23229 10.975895,203.27328 4.8087448,203.09163 C 3.4467003,203.38597 2.0490817,201.99407 2.337653,200.63065 C 2.2004392,197.74488 1.5634211,194.90433 1.5055658,192.0127 C 1.976038,190.98785 3.2421768,190.41566 4.3226392,190.73587 C 11.36214,190.9847 18.445342,190.14831 25.446551,191.21067 z M 81.31959,191.3481 C 82.174178,194.78702 81.542549,198.34211 81.732115,201.83349 C 81.374202,202.92639 80.106032,203.6184 78.993282,203.32979 C 71.850071,203.39065 64.70505,203.62986 57.562272,203.41045 C 56.15753,203.60642 54.852275,202.06904 55.273206,200.7145 C 55.397818,197.82616 55.175555,194.93091 55.399421,192.04564 C 55.94046,190.97534 57.285664,190.3997 58.434563,190.73777 C 65.880006,190.88944 73.351998,190.25881 80.775304,191.07876 C 80.973794,191.12684 81.159451,191.22209 81.31959,191.3481 z M 108.74768,191.21067 C 109.46535,194.77164 109.08551,198.41691 109.13504,202.01878 C 108.8079,203.0689 107.56998,203.72452 106.51763,203.40492 C 101.71006,203.52404 96.667301,203.30889 91.866093,203.60987 C 92.692024,204.35238 94.232116,204.45086 94.975451,205.31637 C 95.826017,207.70547 95.258807,210.26083 95.393958,212.72741 C 95.279575,214.03162 93.875984,215.04546 92.602096,214.74314 C 85.617559,214.7712 78.627969,215.08735 71.646859,214.72907 C 70.146919,214.96015 68.753788,213.2748 69.262313,211.84487 C 69.312872,209.7406 68.921552,207.60552 69.403373,205.52697 C 71.794091,204.21609 74.604914,204.56489 77.220112,204.58152 C 81.464037,204.56851 89.511886,204.89733 93.753972,204.75984 C 93.360901,203.74193 88.22183,202.88827 87.251829,203.3877 C 86.202785,203.47851 85.165776,203.22707 84.119087,203.21348 C 82.911871,200.76923 83.383392,197.97944 83.209742,195.35865 C 83.37177,194.07377 82.760967,192.62417 83.596858,191.47861 C 84.551939,190.52303 85.997846,190.84153 87.206743,190.84793 C 94.160651,190.81814 101.12304,190.57618 108.06991,191.00781 C 108.30366,191.04273 108.5366,191.10168 108.74768,191.21067 z M 67.358204,204.84374 C 67.860781,207.77063 67.585591,210.74785 67.490328,213.69526 C 65.88327,215.01541 63.682008,214.95283 61.719759,214.89289 C 55.902662,214.77102 50.082131,215.02776 44.266586,214.79335 C 42.960712,215.23848 41.303831,214.08348 41.56448,212.64694 C 41.532729,210.41729 41.585814,208.18772 41.598107,205.95815 C 41.929862,204.86793 43.258051,204.89373 44.18153,204.74413 C 46.599367,204.46517 49.036239,204.80386 51.458359,204.59664 C 56.510532,204.48575 61.567176,204.41825 66.618001,204.62122 C 66.871031,204.67142 67.120677,204.74235 67.358204,204.84374 z M 39.407938,205.39346 C 40.258999,207.50792 39.950565,209.82691 39.884421,212.04262 C 40.349892,213.31576 39.117449,214.83169 37.776206,214.63531 C 30.432114,214.94155 23.079908,214.84218 15.731998,214.78878 C 14.383991,215.01701 13.109919,213.51035 13.557971,212.21874 C 13.643764,210.14514 13.893748,208.06466 13.677574,205.99073 C 14.656419,204.87116 16.281064,204.92161 17.637383,205.01666 C 24.895487,204.90429 32.159928,204.96801 39.407938,205.39346 z M 127.40867,79.177641 C 128.0592,81.198971 127.97655,83.351393 127.90922,85.445807 C 127.43185,86.399638 126.26981,86.947541 125.23028,86.709392 C 123.92027,87.145819 122.4325,85.779718 122.75555,84.437142 C 122.75928,83.037274 122.90636,81.638494 122.82754,80.238514 C 123.35945,79.130491 124.7768,78.552397 125.93182,78.972265 C 126.42878,78.983307 126.93813,78.999236 127.40867,79.177641 z M 152.88546,79.232611 C 153.26876,81.384649 153.12778,83.581667 152.97876,85.748899 C 151.03905,87.055339 148.58991,86.893722 146.3655,86.765499 C 141.15623,86.620329 135.94213,86.786492 130.73454,86.561579 C 129.55295,85.554252 129.30489,83.872314 129.44726,82.405293 C 128.94053,80.787879 130.42456,78.942076 132.12148,79.132139 C 134.98268,78.823435 137.86419,79.259702 140.72697,78.975767 C 144.78012,78.901269 148.84627,78.815946 152.88546,79.232611 z M 177.95001,79.892274 C 178.21155,81.925923 178.0841,83.986679 177.83169,86.014339 C 174.95504,87.13809 171.82386,86.465905 168.83089,86.759766 C 164.8212,86.818036 160.81286,86.667109 156.8046,86.586096 C 155.74233,86.920481 154.54739,85.84229 154.7711,84.75121 C 154.70938,83.0796 154.47923,81.390364 154.77838,79.728237 C 157.72376,78.438791 160.99151,79.110469 164.09318,78.897385 C 168.35808,78.849063 172.62305,78.95786 176.88795,78.908236 C 177.48545,78.611677 177.99535,79.362187 177.95001,79.892274 z M 185.17805,79.205126 C 185.79981,81.318501 185.72631,83.558715 185.4795,85.72502 C 184.99125,86.712318 183.70762,87.208406 182.68235,86.806337 C 181.63618,86.974929 180.51491,86.543991 179.85506,85.713828 C 179.37584,83.895799 179.65154,82.006218 179.64723,80.154539 C 180.04816,79.163613 181.25601,78.591533 182.27661,78.909 C 183.25008,78.932574 184.2128,79.091653 185.17805,79.205126 z M 133.81222,88.605344 C 134.69663,91.584991 134.08792,94.712803 134.32299,97.758604 C 133.96605,99.251618 132.23263,100.18232 130.77799,99.763325 C 128.57996,99.819554 126.39401,99.365226 124.19573,99.545731 C 122.74999,98.890538 122.02817,97.040775 122.58216,95.565989 C 122.68641,93.508953 122.52513,91.44827 122.64133,89.391535 C 123.98948,88.122287 125.96601,88.364785 127.6659,88.309623 C 129.7176,88.24646 131.78064,88.288503 133.81222,88.605344 z M 165.44521,88.852719 C 166.20936,91.905669 165.70059,95.066009 165.84894,98.168593 C 165.53179,99.205367 164.28517,99.835919 163.26219,99.477163 C 157.13798,99.568344 151.01285,99.850587 144.88761,99.663284 C 143.37139,100.09539 141.76051,98.415079 142.2553,96.918172 C 142.37633,94.484462 142.22769,92.045983 142.35821,89.612533 C 143.07466,88.513671 144.52708,87.977139 145.79006,88.312465 C 152.20449,88.338459 158.61854,88.222407 165.03297,88.248027 C 165.17039,88.449593 165.3078,88.651156 165.44521,88.852719 z M 185.12308,88.522885 C 185.89922,91.555401 185.42087,94.703817 185.6324,97.788717 C 185.40943,99.077005 183.92522,99.966272 182.68423,99.555195 C 180.09504,99.43993 177.49685,99.649615 174.91276,99.400096 C 173.93824,98.620804 173.51256,97.251053 173.81155,96.047976 C 173.81877,93.999657 173.83991,91.95077 173.7795,89.902997 C 174.29185,88.654645 175.78578,87.918096 177.08894,88.260024 C 179.76818,88.204412 182.46092,88.162623 185.12308,88.522885 z M 127.68351,101.60624 C 128.12407,105.58595 127.93597,109.59514 127.96222,113.58971 C 126.87394,115.075 124.45305,115.28076 123.12982,114.00032 C 122.23608,110.72742 123.10866,107.32895 122.76351,104.00476 C 122.71649,103.03811 122.78183,101.79553 123.7623,101.29556 C 125.03504,100.68161 126.40893,101.3967 127.68351,101.60624 z M 152.96791,101.71618 C 153.41138,105.62705 153.21796,109.56873 153.14202,113.49324 C 152.39642,114.55163 150.97869,115.07771 149.7227,114.76714 C 143.78555,114.99058 137.83145,115.04021 131.90395,114.57726 C 130.71387,115.00694 129.34581,113.7468 129.64955,112.52584 C 129.65428,109.15981 129.53632,105.79222 129.6755,102.42744 C 130.0727,101.41577 131.33171,100.85142 132.35113,101.22793 C 139.03072,101.31376 145.71646,100.98979 152.39111,101.36815 C 152.61286,101.4163 152.83974,101.5193 152.96791,101.71618 z M 177.59272,101.55126 C 178.59081,105.27799 177.7946,109.15064 178.0975,112.93995 C 177.87398,114.1378 176.52421,114.71647 175.4115,114.59138 C 170.7225,114.82726 166.02512,114.75581 161.3323,114.74874 C 159.70892,114.70956 158.07623,114.64712 156.45948,114.76236 C 155.41313,114.6491 154.65706,113.53414 154.90662,112.51894 C 154.863,109.59044 154.70703,106.66039 154.84006,103.73199 C 154.38439,102.70483 155.298,101.38557 156.41698,101.43782 C 159.92649,100.77926 163.49977,101.42504 167.03507,101.17647 C 170.55599,101.17434 174.09518,101.05958 177.59272,101.55126 z M 185.26049,101.74367 C 185.70424,105.67662 185.49915,109.64023 185.3974,113.58569 C 184.24365,115.07726 181.89616,115.44071 180.34614,114.36634 C 179.23439,112.10915 179.80349,109.54509 179.76512,107.13891 C 179.74971,105.62502 179.72568,104.11058 179.77084,102.59696 C 180.56524,101.29504 182.38775,100.77543 183.75802,101.43221 C 184.26004,101.53023 184.75743,101.65083 185.26049,101.74367 z M 166.7644,116.88846 C 167.13726,120.19711 166.88807,123.53074 167.01783,126.84994 C 166.53161,127.88255 165.24742,128.45354 164.15513,128.12284 C 162.54138,128.06489 160.91002,128.19399 159.31379,127.88964 C 158.08516,125.65344 158.41126,123.01694 158.54608,120.576 C 158.57129,119.29195 158.56451,118.00738 158.60194,116.72355 C 161.28548,116.08629 164.08746,116.37171 166.7644,116.88846 z M 185.17805,116.77852 C 185.78038,120.08207 185.56674,123.45645 185.38417,126.7881 C 184.65668,127.72686 183.35946,128.17185 182.2074,127.89143 C 178.07857,127.92236 173.94202,128.11739 169.81908,127.80131 C 168.73815,127.43581 168.09917,126.12251 168.47825,125.04625 C 168.54635,122.56778 168.44815,120.08727 168.55113,117.60945 C 169.48317,116.34288 171.28381,115.86784 172.74668,116.39455 C 176.89046,116.45027 181.06057,116.17716 185.17805,116.77852 z M 139.74856,116.55863 C 140.50336,119.78233 139.8605,123.10096 140.10675,126.36452 C 139.75166,127.67342 138.18248,128.4856 136.90886,128.02028 C 132.7056,127.96603 128.49524,128.25944 124.29784,127.92758 C 122.97506,127.28697 122.30626,125.57473 122.83799,124.2057 C 122.96943,121.93147 122.83718,119.6539 122.85728,117.37815 C 124.02442,116.27326 125.76494,116.09894 127.28634,116.3514 C 131.44115,116.30359 135.5985,116.34167 139.74856,116.55863 z M 150.27457,116.91595 C 150.60894,120.31734 150.39875,123.73787 150.25893,127.14363 C 148.39621,128.25993 146.14906,128.11744 144.06195,128.18444 C 142.40447,127.95514 141.24534,126.09845 141.67245,124.50053 C 141.5941,122.24736 141.86108,119.99648 141.7509,117.74356 C 142.05188,116.54819 143.51368,115.82612 144.64804,116.30183 C 146.51443,116.59383 148.44706,116.3654 150.27457,116.91595 z M 152.85798,130.05427 C 153.50916,133.97526 153.1917,137.96033 153.1498,141.91141 C 152.64431,142.93218 151.36308,143.4864 150.27308,143.1563 C 144.39832,143.22539 138.52232,143.29565 132.64759,143.18605 C 131.27169,143.77876 129.54444,142.40708 129.80988,140.93252 C 129.68234,137.62444 129.88178,134.31218 129.71562,131.00495 C 130.38656,129.94913 131.76545,129.44823 132.96932,129.73482 C 139.59936,129.64894 146.24006,129.5641 152.85798,130.05427 z M 177.86755,130.13673 C 178.51982,134.0331 178.27392,137.9984 178.11599,141.92402 C 177.64556,142.97217 176.34723,143.55672 175.25072,143.21426 C 169.23264,143.25543 163.21346,143.3044 157.19606,143.17549 C 155.88334,143.54492 154.45879,142.18772 154.76424,140.85848 C 154.88683,137.54165 154.58028,134.22169 154.78882,130.90652 C 155.31462,129.80817 156.6904,129.21013 157.85233,129.57317 C 164.36781,129.81569 170.89962,129.31684 177.40546,129.86683 C 177.58091,129.9113 177.73991,130.00964 177.86755,130.13673 z M 127.60105,129.97181 C 128.25954,134.00124 128.21054,138.10042 128.10648,142.16879 C 127.60309,143.13239 126.34759,143.61506 125.32842,143.23692 C 123.79586,143.71768 122.09612,142.09008 122.50979,140.53792 C 122.66085,137.43785 122.77619,134.33518 122.78567,131.2311 C 123.26579,129.97039 124.8236,129.26755 126.09032,129.71812 C 126.59878,129.77026 127.10077,129.86952 127.60105,129.97181 z M 185.42539,130.5765 C 185.72627,134.55811 185.69957,138.56184 185.40059,142.54269 C 183.92006,143.33619 182.07212,143.561 180.50604,142.88128 C 179.35254,141.63897 179.6475,139.82961 179.66146,138.28346 C 179.61393,135.57179 179.64124,132.85824 179.77279,130.14914 C 181.34433,129.6239 183.01981,129.85615 184.63978,129.91339 C 184.97715,130.00777 185.31396,130.22762 185.42539,130.5765 z M 170.14482,184.20173 C 172.64644,184.266 175.16802,183.89369 177.65309,184.32185 C 178.73652,187.16398 178.11001,190.23791 178.21503,193.19102 C 178.46311,194.28058 177.44761,195.42571 176.34075,195.34075 C 172.85666,195.87257 169.32785,195.30898 165.82941,195.59719 C 162.56337,195.59732 159.29724,195.54028 156.0335,195.41677 C 154.80531,194.25602 154.38875,192.35399 154.94248,190.76832 C 154.9858,188.7171 154.96698,186.66491 155.02914,184.61402 C 159.35019,183.45663 163.83547,184.32894 168.23186,184.15761 C 168.86979,184.15967 169.50687,184.20157 170.14482,184.20173 z M 185.78267,185.02632 C 186.08408,188.10459 185.9147,191.20019 185.83628,194.28478 C 185.2309,195.2375 184.00241,195.74128 182.90239,195.48945 C 181.46307,196.1508 179.61088,194.70647 179.90122,193.14919 C 179.80163,190.556 179.97159,187.96135 179.88763,185.36795 C 180.34052,184.32653 181.67499,183.78401 182.72624,184.21265 C 183.76077,184.21575 185.25127,183.81164 185.78267,185.02632 z M 144.69723,144.49989 C 143.636,144.49579 142.57119,144.90343 141.8201,145.65946 C 141.56268,148.63984 141.85215,151.6261 141.86304,154.60959 C 141.57627,155.81577 142.9589,157.02016 144.11321,156.56798 C 150.0662,156.91092 156.02792,156.66861 161.98578,156.68822 C 163.2453,157.05495 164.70842,156.58993 165.51564,155.55443 C 165.58907,152.05024 165.76331,148.52428 165.36105,145.03243 C 158.82569,144.72237 152.2857,144.729 145.74502,144.64591 C 145.40404,144.55053 145.05097,144.50126 144.69723,144.49989 z M 126.20629,144.62014 C 124.92828,144.60428 123.63815,144.98993 122.65067,145.81407 C 122.34064,148.68679 122.42501,151.5806 122.48749,154.46357 C 122.20225,155.60167 123.35551,156.84144 124.51437,156.57656 C 128.6657,156.76748 132.82217,156.68937 136.97621,156.71399 C 138.17063,157.16222 139.64973,156.58714 140.23123,155.45135 C 140.27402,152.0136 140.42384,148.55454 139.88769,145.1441 C 135.76392,144.70627 131.60953,144.75505 127.46879,144.77475 C 127.05633,144.68206 126.6323,144.62543 126.20629,144.62014 z M 156.9873,157.97663 C 156.14151,158.01646 155.31188,158.48716 154.89173,159.23068 C 154.83818,161.30025 154.92075,163.37114 154.91749,165.4408 C 154.49012,166.81251 154.93203,168.41155 156.00822,169.36615 C 161.40697,169.58133 166.8118,169.66779 172.21463,169.65819 C 174.21939,169.99618 176.50799,169.90119 178.12349,168.5158 C 178.21146,165.2349 178.40166,161.93478 178.02902,158.66378 C 171.31756,157.87386 164.55049,158.50644 157.82039,158.08829 C 157.54962,158.00081 157.26924,157.96335 156.9873,157.97663 z M 124.45425,158.08829 C 123.60563,158.16346 122.79011,158.7513 122.54761,159.58285 C 122.66413,162.09027 122.33103,164.60068 122.50467,167.10714 C 122.24076,168.67149 124.0719,170.10759 125.5278,169.47781 C 126.55403,169.79861 127.77164,169.21085 128.15587,168.20658 C 128.18969,165.02564 128.29539,161.82063 127.82092,158.66378 C 126.99715,158.42476 126.15181,158.26461 125.29591,158.19996 C 125.02472,158.101 124.73712,158.06324 124.45425,158.08829 z M 141.38209,158.19137 C 137.50038,158.14923 133.62008,158.21785 129.74473,158.47482 C 129.65876,161.07319 129.73066,163.67684 129.59873,166.27398 C 129.17025,167.44115 129.79001,168.87846 130.92994,169.37474 C 136.39012,169.70239 141.85931,169.55561 147.32529,169.55512 C 149.32635,169.82702 151.62213,169.92992 153.2771,168.56734 C 153.30338,165.23186 153.46807,161.87775 153.01944,158.56071 C 149.14348,158.3898 145.26379,158.2335 141.38209,158.19137 z M 113.57267,162.97565 C 112.48938,162.94006 111.38942,163.38604 110.67837,164.21252 C 110.36945,166.95753 110.61139,169.7222 110.5839,172.47551 C 110.23227,173.51361 110.71513,174.76317 111.67463,175.29282 C 113.74465,175.58456 115.83106,175.31998 117.90985,175.34436 C 119.02449,175.66933 120.3114,175.27484 121.04463,174.37376 C 121.09128,170.73359 121.30923,167.06876 120.81274,163.44807 C 118.78492,162.98733 116.69669,163.17471 114.63764,163.17321 C 114.29617,163.05137 113.93377,162.98752 113.57267,162.97565 z M 143.95003,170.9466 C 143.08032,171.00597 142.23775,171.5156 141.84586,172.30372 C 141.6218,174.96298 141.83657,177.6353 141.99187,180.29185 C 141.74782,181.43978 142.98573,182.59281 144.11321,182.26741 C 150.75487,182.58616 157.40152,182.36119 164.04702,182.45637 C 165.18973,182.78406 166.51818,182.20883 167.06156,181.15079 C 167.00797,177.9358 167.37201,174.69203 166.79532,171.50491 C 159.49143,170.71138 152.13952,171.39053 144.81747,171.04108 C 144.53765,170.95312 144.23994,170.92681 143.95003,170.9466 z M 131.42807,171.00673 C 128.49261,171.25053 125.39473,170.54376 122.59914,171.754 C 122.46538,173.80317 122.58651,175.85457 122.65067,177.904 C 122.27987,179.45094 122.68725,181.18229 123.77576,182.3533 C 125.83469,182.47059 127.89708,182.58704 129.95945,182.61957 C 133.37304,182.39146 136.94391,183.04031 140.20547,181.71768 C 140.49068,179.18794 140.22925,176.6352 140.36006,174.09891 C 140.78097,172.97348 140.13397,171.57566 139.00309,171.16992 C 136.47759,171.0815 133.95564,170.98676 131.42807,171.00673 z M 98.817707,176.74443 C 98.005135,176.85734 97.246544,177.43212 96.988367,178.22181 C 97.061035,181.12971 96.9212,184.03221 96.919658,186.94003 C 96.620475,188.17984 97.915776,189.46667 99.152658,189.15609 C 105.5348,189.44721 111.93052,189.30244 118.3135,189.12173 C 119.42738,189.47843 120.7527,188.83889 121.17345,187.74743 C 121.30486,184.28544 121.53548,180.77868 120.86427,177.35428 C 113.80098,176.76178 106.71128,176.99799 99.633617,176.79597 C 99.366457,176.7233 99.088567,176.70679 98.817707,176.74443 z M 185.20553,145.19907 C 186.19887,148.44458 185.46648,151.85551 185.68822,155.17574 C 185.17969,156.44023 183.62817,156.89962 182.37969,156.66085 C 179.97543,156.71693 177.57074,156.65167 175.16628,156.65213 C 173.71437,156.02781 173.27367,154.23071 173.50818,152.79409 C 173.48361,150.71332 173.72533,148.63328 173.57631,146.55345 C 174.05028,145.19958 175.6658,144.75532 176.96248,144.9076 C 179.71176,144.84944 182.47501,144.82271 185.20553,145.19907 z M 185.45288,158.72219 C 185.90301,161.88343 185.60213,165.0797 185.59927,168.25681 C 185.25436,169.30098 184.00245,169.93274 182.95771,169.58992 C 181.95155,169.87771 180.80707,169.62294 180.02218,168.92942 C 179.40555,165.9603 180.03732,162.9168 179.66211,159.92717 C 179.93276,158.73028 181.27285,157.90727 182.46291,158.20166 C 183.48177,158.1913 184.48273,158.43279 185.45288,158.72219 z M 185.01315,171.42073 C 186.18776,173.92431 185.89217,176.75926 185.79896,179.43656 C 186.38992,181.00976 184.80371,182.86273 183.15995,182.54398 C 180.7199,182.65568 178.27679,182.36736 175.8385,182.55482 C 173.80343,182.54237 171.76802,182.4939 169.73635,182.37214 C 168.65229,181.72936 168.16231,180.25509 168.64513,179.091 C 168.77991,176.81613 168.49543,174.54051 168.61356,172.26536 C 169.58799,171.1791 171.22232,170.78169 172.60144,171.22817 C 176.73832,171.31314 180.88498,171.04137 185.01315,171.42073 z M 128.0133,184.55905 C 128.35405,187.80387 128.22213,191.07094 128.1679,194.32599 C 127.04158,195.80672 124.65755,196.07766 123.22783,194.88727 C 122.21197,191.9648 123.07498,188.8431 122.61979,185.84705 C 122.63652,184.65847 123.88365,183.7309 125.02811,183.9166 C 126.05853,183.88184 127.06455,184.18567 128.0133,184.55905 z M 153.16029,184.25671 C 153.53532,187.6182 153.4969,191.00659 153.45303,194.38322 C 152.60582,195.43039 151.10572,195.88721 149.81767,195.49663 C 144.0867,195.43847 138.35267,195.5528 132.62448,195.31862 C 131.30588,195.92162 129.61929,194.56885 129.92148,193.15064 C 129.85188,190.52506 129.92621,187.89876 129.98663,185.27378 C 130.50874,184.25924 131.77698,183.70347 132.87684,184.00605 C 139.63753,184.13193 146.40461,183.88975 153.16029,184.25671 z M 120.84022,191.07324 C 121.44711,194.73736 121.17431,198.46174 121.15066,202.15505 C 120.60798,203.21416 119.25928,203.77202 118.12682,203.40763 C 116.07432,203.44897 114.01927,203.46762 111.96861,203.35377 C 110.84602,202.79423 110.25468,201.3645 110.65294,200.17519 C 110.74476,197.39885 110.52009,194.61542 110.76751,191.84384 C 111.70988,190.76518 113.31571,190.35035 114.67136,190.79335 C 116.72869,190.81501 118.80831,190.66587 120.84022,191.07324 z M 140.16081,197.36754 C 140.69301,200.72607 140.41672,204.13414 140.35501,207.51477 C 139.70585,208.45411 138.44977,208.92011 137.34478,208.63445 C 133.27847,208.58282 129.20516,208.84569 125.14467,208.52775 C 123.86767,208.91666 122.45088,207.59998 122.74509,206.2978 C 122.72418,203.54716 122.50685,200.78816 122.78594,198.04351 C 124.06015,196.77789 126.06969,196.45153 127.74564,197.00047 C 131.88415,197.09278 136.04412,196.80772 140.16081,197.36754 z M 162.86181,197.09268 C 164.14693,197.11427 165.44631,197.09367 166.70943,197.36754 C 167.48306,200.53045 166.99055,203.80138 167.15343,207.01429 C 166.66154,208.1266 165.32266,208.74392 164.14993,208.47429 C 157.3189,208.52666 150.48444,208.70999 143.65541,208.44713 C 142.15994,208.04398 141.32238,206.20431 141.89292,204.78833 C 142.03989,202.70487 141.7776,200.61523 141.9476,198.53253 C 142.62129,197.09028 144.4449,196.50431 145.91867,196.90694 C 151.56262,197.18855 157.21558,196.92161 162.86181,197.09268 z M 185.59029,197.45 C 185.96156,200.78871 185.74718,204.15112 185.75265,207.50098 C 184.88211,208.61645 183.2975,209.10355 181.94932,208.67826 C 177.80478,208.68589 173.65518,208.68449 169.51922,208.38386 C 168.19907,205.93301 168.52867,203.05569 168.72351,200.39012 C 168.69074,199.37277 168.48294,197.85746 169.75046,197.4974 C 172.0843,196.51558 174.65764,197.04409 177.10504,197.0493 C 179.93503,197.13918 182.7704,197.1714 185.59029,197.45 z M 121.00512,205.33849 C 121.53667,208.07883 121.40895,210.89005 121.19496,213.65667 C 120.38654,214.66584 118.95709,215.12146 117.71312,214.77149 C 111.23164,214.72927 104.74823,214.91623 98.268345,214.70301 C 97.172309,214.24499 96.55221,212.89482 96.918924,211.76485 C 96.932071,209.69274 96.824487,207.60988 97.09726,205.54895 C 98.842068,204.2643 101.12358,204.4184 103.17109,204.52467 C 108.90222,204.77651 114.63982,204.55457 120.37335,204.66559 C 120.69097,204.73181 120.99684,204.99586 121.00512,205.33849 z M 127.68351,210.28597 C 129.19613,211.86415 127.9846,214.93928 125.80208,215.06126 C 123.65912,215.47387 121.83631,212.53794 123.23613,210.83074 C 123.94933,210.00019 125.19366,209.70036 126.21625,210.07452 C 126.70767,210.12779 127.19506,210.21132 127.68351,210.28597 z M 153.21525,210.45089 C 153.53157,211.54878 153.42754,212.70178 153.46907,213.82866 C 151.08942,215.0858 148.32508,214.66517 145.74374,214.7345 C 140.84714,214.82047 135.94838,214.73885 131.05575,214.52998 C 129.38462,213.79791 129.42204,210.99238 131.11214,210.3052 C 138.47852,210.06207 145.85066,210.23 153.21525,210.45089 z M 177.78511,210.45089 C 178.28819,211.43214 178.32518,212.56588 178.28512,213.64519 C 177.60447,214.71139 176.18108,215.22852 174.97452,214.85011 C 169.18075,214.74665 163.38313,214.96765 157.5918,214.71295 C 156.4294,215.18653 154.98982,214.07589 155.1527,212.83124 C 154.6767,211.49483 156.02753,209.93187 157.41861,210.20937 C 164.20774,210.13515 171.00233,210.09724 177.78511,210.45089 z M 185.83764,211.24798 C 186.06708,212.35757 185.92,213.55633 185.36022,214.54825 C 183.97809,215.0522 182.48031,214.99871 181.03472,214.92262 C 179.51105,214.08243 179.23736,211.68613 180.5324,210.52399 C 181.91776,210.05977 183.38748,210.41635 184.80985,210.28898 C 185.30378,210.33023 185.86874,210.69496 185.83764,211.24798 z " />
      <g
         id="g10157">
        <path
           sodipodi:nodetypes="cccccccc"
           id="path1199"
           d="M 158.53515,45.149942 C 168.61118,55.222911 179.56214,66.138233 189.30442,76.537427 C 189.85591,77.498873 188.3361,77.691456 186.96548,77.565703 C 165.08154,78.061896 143.10858,77.8665 121.22249,77.644398 C 119.87741,77.508067 118.4795,78.052318 117.961,77.010877 C 125.84595,68.673783 136.55076,58.259786 144.59394,50.076452 C 147.18823,47.440619 151.44282,43.609997 154.01645,40.956997 C 155.29249,41.795161 157.65164,44.624485 158.53515,45.149942 z "
           style="fill:#ef3340;fill-opacity:1;stroke:none" />
        <g
           id="g10150">
          <path
             style="fill:black;stroke:none"
             d="M 109.38254,19.395539 C 105.50621,21.283573 101.24361,22.905438 98.525111,26.438736 C 95.097206,29.99301 92.095491,33.92056 88.777357,37.572903 C 84.811528,42.209895 80.830971,46.835195 76.805735,51.420009 C 73.217898,55.498021 67.548313,61.490233 63.784545,65.455661 C 62.959794,64.522239 61.890836,63.342062 60.423317,61.60865 C 53.506593,53.260159 45.999942,45.411764 38.949097,37.17418 C 33.589636,31.340195 29.040587,24.216265 21.596434,20.814934 C 19.504358,19.860682 17.272984,19.138638 14.966245,18.989905 C 12.3083,20.364025 14.875557,23.791604 15.579957,25.748105 C 18.123822,30.007845 21.552786,33.638566 24.555328,37.567728 C 31.917099,46.530426 39.590431,55.231644 47.064918,64.098915 C 49.953911,67.32569 53.948578,71.901715 56.413325,74.829 C 55.308222,76.010023 53.158048,78.729217 51.437446,80.656091 C 47.730926,85.272437 43.699526,89.61355 39.761909,94.028335 C 39.081078,94.881058 36.947982,97.13952 36.00299,97.675924 C 35.465465,97.723324 35.301131,97.026673 34.157287,96.044192 C 32.340224,94.669602 30.643932,90.129207 27.843709,92.467039 C 26.646495,94.862535 23.877027,96.097781 22.946426,98.676157 C 23.343081,101.65397 27.337986,101.10143 29.154692,102.84239 C 31.417208,104.34776 31.848424,105.52311 28.983089,109.30895 C 27.164333,111.89553 24.938416,114.1763 22.808621,116.50532 C 21.14973,118.78265 17.98321,118.18991 16.092092,120.03768 C 14.228109,122.13653 14.516561,125.41973 15.598915,127.8304 C 17.490797,131.77707 23.241325,132.93827 26.732407,130.48393 C 29.022212,128.96473 28.603452,125.99458 28.953876,123.64034 C 29.410459,121.04965 31.766488,119.42363 33.490652,117.65278 C 35.376159,115.95588 37.392301,114.4137 39.339793,112.79029 C 41.597455,111.40357 42.91515,115.01559 44.960826,117.20335 C 47.539339,118.38647 49.149949,115.09322 50.775492,113.68568 C 53.177165,112.1908 52.727242,108.9482 49.861504,108.37778 C 48.512644,107.55114 46.994046,106.29159 45.85192,105.10805 C 46.461862,104.12827 47.000065,103.26524 47.727516,102.62039 C 51.607699,98.400697 55.20233,93.641584 58.992812,89.334831 C 60.425035,87.796642 62.393315,85.004209 63.982798,83.666192 C 65.736963,85.543025 67.582016,87.575192 69.204086,89.255555 C 73.669224,94.363118 78.454949,99.560819 82.523746,104.99806 C 81.466387,107.55646 77.951796,107.84093 76.152423,109.84039 C 74.507857,112.50464 78.393898,114.0094 79.437494,116.00831 C 80.509793,118.348 83.709218,118.60869 84.522525,115.93708 C 87.021994,112.65128 88.157984,112.0831 90.088661,114.0714 C 92.362542,115.75612 94.473697,118.24426 96.733156,119.94895 C 98.829524,121.9155 99.459719,124.86845 99.520772,127.62955 C 99.814816,130.56197 102.83188,132.12382 105.53911,131.79478 C 109.83312,131.60125 113.90498,127.76723 113.431,123.30278 C 113.4338,120.10479 110.49997,118.51527 107.72788,118.23186 C 105.33853,117.02674 103.84657,114.68968 101.94221,112.88905 C 100.37108,111.25322 99.314497,109.22345 98.289091,107.24488 C 96.099233,104.12738 97.872813,103.01671 101.29575,101.59488 C 103.50489,101.29816 106.75653,98.79835 103.99252,96.827505 C 101.97461,95.292497 100.99019,90.989253 97.951854,91.778675 C 95.94157,93.089721 95.159584,95.844331 92.848461,96.737359 C 90.271943,96.886584 89.300941,94.031956 87.637633,92.591227 C 83.207133,87.696155 76.318448,79.452219 72.135905,74.342006 C 74.037289,72.300981 77.720729,67.608743 79.315693,65.906746 C 87.83223,55.859588 96.674485,46.081551 104.74643,35.665421 C 107.34851,32.255032 110.14191,28.966265 112.44799,25.345373 C 113.41913,23.554088 114.26162,21.303899 113.52486,19.308664 C 112.47655,17.976106 110.64605,19.073883 109.38254,19.395539 z "
             id="path4"
             sodipodi:nodetypes="ccccccccccccccccccccccccccccccccccccccccccccccccccccccccccc" />
          <path
             style="fill:white;fill-opacity:1;stroke:none"
             d="M 18.331195,20.659896 C 23.90819,22.656684 28.547227,26.654196 32.087403,31.328396 C 51.541032,53.397425 71.264384,76.35627 90.667292,98.469764 C 89.849972,99.86977 89.274985,100.57092 87.938688,100.90502 C 73.928803,84.417903 57.461579,66.920925 43.103391,50.739198 C 36.518487,43.130024 29.686423,35.738013 23.152651,28.084184 C 21.23523,26.98633 22.029504,29.375394 23.537037,30.429196 C 35.502748,43.888038 47.222004,57.564267 59.266161,70.953764 C 68.188192,81.068736 77.54077,91.713425 86.198744,102.05205 C 86.64922,103.03865 84.861685,103.83113 83.758504,104.35229 C 63.813172,80.808418 40.855869,56.028369 21.565782,31.930761 C 19.378302,29.099229 17.145292,26.264692 15.369728,23.154629 C 14.498136,20.933854 15.777804,19.847582 18.331195,20.659896 z "
             id="path19897"
             sodipodi:nodetypes="ccccccccccccc" />
          <path
             id="path19896"
             style="fill:white;fill-opacity:1;stroke:none"
             d="M 112.26826,21.374533 C 111.66819,26.350556 107.3346,29.508159 104.76346,33.469888 C 94.443623,47.085471 82.047633,60.08337 71.007873,73.102328 C 70.001382,72.271464 69.736242,71.579041 68.929291,70.681363 C 80.215433,57.295547 94.522619,42.016073 105.59464,28.447361 C 104.47771,26.414559 102.73765,30.304322 101.76581,31.076113 C 90.766419,43.782042 78.979896,56.932132 67.706452,69.396211 C 66.820712,68.737568 65.722994,67.455548 64.889622,66.297238 C 76.001348,54.327319 89.517024,38.187243 100.58526,25.728706 C 103.64359,23.029625 107.45441,21.183845 111.37338,20.173871 C 111.94388,20.19893 112.65873,20.755401 112.26826,21.374533 z M 59.629461,78.900578 C 58.360145,80.529406 57.859737,81.120072 56.302061,82.98836 C 51.185172,89.074959 45.420276,95.422304 40.152649,101.37889 C 38.946236,101.22712 37.538376,100.10704 37.186248,99.055755 C 37.638117,98.337248 38.61291,96.958798 39.665614,95.982027 C 45.351818,89.499302 51.322869,82.348118 57.058114,75.924632 C 58.248004,77.024648 59.052593,78.171838 59.629461,78.900578 z M 63.072498,82.499473 C 61.580422,84.252578 60.262439,85.721712 58.67659,87.654124 C 54.032436,93.138946 49.074924,98.955696 44.306925,104.33419 C 43.241307,104.39873 42.226195,103.55395 41.643407,102.37372 C 42.393176,101.38296 55.587305,86.149878 60.851773,80.020069 C 61.254578,80.359831 62.58096,81.960584 63.072498,82.499473 z "
             sodipodi:nodetypes="cccccccccccccccccccccccc" />
          <path
             id="path19893"
             style="fill:#fedd00;fill-opacity:1;stroke:none"
             d="M 30.945916,94.899645 C 36.436953,100.9655 43.035776,105.91595 49.934886,110.26476 C 50.614879,112.75898 48.18792,115.26135 45.812241,115.54099 C 43.602665,114.26244 42.742986,111.63673 40.917857,109.93365 C 37.69374,106.01954 33.535354,102.91263 28.833675,101.01062 C 26.604852,100.63983 24.098939,98.109242 26.540781,96.244741 C 27.506702,94.986718 29.739684,92.372433 30.945916,94.899645 z M 34.985924,106.05897 C 36.428126,107.70052 40.434005,109.79197 38.108384,112.23416 C 36.203957,113.8521 34.015096,115.1043 32.283702,116.93433 C 30.659405,118.41727 29.13766,120.01841 27.799158,121.76558 C 25.071067,122.3175 22.022251,118.52653 24.870637,116.62076 C 27.856157,113.42808 30.881069,110.03442 32.279818,105.80858 C 32.932677,104.88527 34.445371,105.16821 34.985924,106.05897 z M 21.574195,120.24176 C 23.904917,121.71917 26.790504,123.30345 27.353876,126.25555 C 27.494254,129.341 23.817898,130.86089 21.226394,130.00753 C 17.668752,129.31949 15.073109,125.10079 16.738513,121.71461 C 17.628723,119.99976 19.884697,119.15923 21.574195,120.24176 z " />
          <path
             id="path19892"
             style="fill:#fedd00;fill-opacity:1;stroke:none"
             d="M 100.14824,94.624784 C 101.61004,95.837779 104.56599,98.940847 101.42671,99.98362 C 95.964418,102.06188 90.779861,105.31389 87.371895,110.15929 C 85.909985,111.98834 84.402645,113.78728 82.738066,115.43686 C 80.363698,115.42943 77.992876,113.08988 78.289642,110.6664 C 79.563051,108.74112 82.216243,108.22738 83.930309,106.69494 C 89.28146,103.2139 93.74672,98.588546 98.156164,94.041525 C 98.879979,93.358846 99.789685,93.815216 100.14824,94.624784 z M 96.850273,107.43327 C 98.602539,111.4391 101.61543,114.6914 104.58364,117.82934 C 104.99538,120.77447 100.39086,123.00946 99.003729,119.89461 C 96.367404,116.62984 93.077851,113.9336 89.50586,111.75149 C 88.194928,108.87722 92.022719,107.38198 93.618941,105.69423 C 95.018799,104.80851 96.89544,105.69753 96.850273,107.43327 z M 109.87724,120.24176 C 112.94858,121.68469 112.50125,126.24756 110.28169,128.2762 C 108.03762,130.50409 103.78859,130.97983 101.63974,128.37288 C 99.968401,125.62602 102.24126,122.48634 104.7263,121.2205 C 106.20638,120.24028 108.13668,119.47029 109.87724,120.24176 z " />
        </g>
      </g>
    </g>
    <path
       sodipodi:nodetypes="cccccc"
       id="path14126"
       d="M 0.4999915,0.49999708 L 0.4999915,195.05763 C 3.5709442,249.27736 65.21821,258.92819 110,281.5 C 154.78178,258.92819 216.42905,249.27736 219.50001,195.05763 L 219.50001,0.49999708 L 0.4999915,0.49999708 z "
       style="fill:none;fill-opacity:1;stroke:black;stroke-width:0.99998498;stroke-miterlimit:4;stroke-dasharray:none;stroke-opacity:1" />
  </g>
</svg>
