<?xml version="1.0" encoding="UTF-8" standalone="no"?>
<!-- Created with Inkscape (http://www.inkscape.org/) -->

<svg
   xmlns:dc="http://purl.org/dc/elements/1.1/"
   xmlns:cc="http://creativecommons.org/ns#"
   xmlns:rdf="http://www.w3.org/1999/02/22-rdf-syntax-ns#"
   xmlns:svg="http://www.w3.org/2000/svg"
   xmlns="http://www.w3.org/2000/svg"
   xmlns:sodipodi="http://sodipodi.sourceforge.net/DTD/sodipodi-0.dtd"
   xmlns:inkscape="http://www.inkscape.org/namespaces/inkscape"
   width="769.5"
   height="540"
   id="svg2"
   version="1.1"
   inkscape:version="0.48.5 r10040"
   sodipodi:docname="svg.svg">
  <defs
     id="defs4"><inkscape:perspective
   sodipodi:type="inkscape:persp3d"
   inkscape:vp_x="0 : 270 : 1"
   inkscape:vp_y="0 : 1000 : 0"
   inkscape:vp_z="850 : 270 : 1"
   inkscape:persp3d-origin="425 : 180 : 1"
   id="perspective4421" />
<clipPath
   id="clipPath5459"
   clipPathUnits="userSpaceOnUse">
  <path
     class="fil0"
     d="m 7507.1113,0 c 0,0 0,1693.3334 0,4092.2223 0,2398.889 -1778.0001,3951.1113 -3556.0001,3951.1113 -1778,0 -3556.00016,-1552.2223 -3556.00016,-3951.1113 0,-2398.8889 0,-4092.2223 0,-4092.2223 z"
     id="path5461"
     inkscape:connector-curvature="0"
     style="fill:#ffcc2a;fill-opacity:1;stroke:none"
     sodipodi:nodetypes="czzzcc" />
</clipPath>
<clipPath
   id="clipPath4932"
   clipPathUnits="userSpaceOnUse">
  <path
     sodipodi:nodetypes="czczcc"
     style="fill:#f0c607;fill-opacity:1;stroke:none"
     inkscape:connector-curvature="0"
     id="path4934"
     d="m 987.77776,367.33289 c 0,0 -242.71578,1841.15241 58.54354,3758.10431 C 1347.5806,6042.3891 2355.0483,8759.922 5081.0878,10770.75 7807.1274,8759.922 8814.5951,6042.3891 9115.8544,4125.4372 9417.1137,2208.4853 9174.3979,367.33289 9174.3979,367.33289 z"
     class="fil0" />
</clipPath>
<clipPath
   id="clipPath4178"
   clipPathUnits="userSpaceOnUse">
  <path
     sodipodi:nodetypes="czczccc"
     style="fill:#15a94a;fill-opacity:1;stroke:none"
     inkscape:connector-curvature="0"
     id="path4180"
     d="m 9424.579,254.44439 c 0,0 365.8349,1916.25601 -39.0444,3702.57631 C 8980.6554,5743.341 8131.1247,8539.2979 5150.716,10809.556 2170.3073,8539.2979 1320.7766,5743.341 915.89735,3957.0207 511.01808,2170.7004 876.85302,254.44439 876.85302,254.44439 c 0,0 2565.76358,-169.333331 4273.86298,-169.333331 1708.0994,0 4273.863,169.333331 4273.863,169.333331 z"
     class="fil0" />
</clipPath>

 <style
   id="style6"
   type="text/css">
   
    .fil1 {fill:#FEFEFE}
    .fil0 {fill:#1A75CF}
   
  </style>

  <clipPath
   id="clipPath3997"
   clipPathUnits="userSpaceOnUse">
  <path
     sodipodi:nodetypes="czzccc"
     inkscape:connector-curvature="0"
     id="path3999"
     d="m 510,0 c 0,0 0,300.00002 0,380.00002 0,80 -69.00088,239.99999 -254.99925,239.99508 C 69.002381,619.9901 -0.0015091,460.00002 0.0014909,380.00002 c 0.002,-120 0,-379.997565 0,-379.997565 z"
     style="fill:none;stroke:#000000;stroke-width:3;stroke-miterlimit:4;stroke-dasharray:none" />
</clipPath>
<clipPath
   id="clipPath4178-6"
   clipPathUnits="userSpaceOnUse">
  <path
     sodipodi:nodetypes="czczccc"
     style="fill:#15a94a;fill-opacity:1;stroke:none"
     inkscape:connector-curvature="0"
     id="path4180-4"
     d="m 9424.579,254.44439 c 0,0 365.8349,1916.25601 -39.0444,3702.57631 C 8980.6554,5743.341 8131.1247,8539.2979 5150.716,10809.556 2170.3073,8539.2979 1320.7766,5743.341 915.89735,3957.0207 511.01808,2170.7004 876.85302,254.44439 876.85302,254.44439 c 0,0 2565.76358,-169.333331 4273.86298,-169.333331 1708.0994,0 4273.863,169.333331 4273.863,169.333331 z"
     class="fil0" />
</clipPath>

 <style
   id="style6-2"
   type="text/css">
   
    .fil1 {fill:#FEFEFE}
    .fil0 {fill:#1A75CF}
   
  </style>

  </defs>
  <sodipodi:namedview
     id="base"
     pagecolor="#f6f3f1"
     bordercolor="#666666"
     borderopacity="1.0"
     inkscape:pageopacity="0"
     inkscape:pageshadow="2"
     inkscape:zoom="0.70710678"
     inkscape:cx="486.67943"
     inkscape:cy="259.67242"
     inkscape:document-units="px"
     inkscape:current-layer="layer1"
     showgrid="true"
     showborder="true"
     inkscape:window-width="1920"
     inkscape:window-height="1017"
     inkscape:window-x="-8"
     inkscape:window-y="-8"
     inkscape:window-maximized="1"
     fit-margin-top="0"
     fit-margin-left="0"
     fit-margin-right="-0.5"
     fit-margin-bottom="0">
    <inkscape:grid
       type="xygrid"
       id="grid3074"
       empspacing="5"
       visible="true"
       enabled="true"
       snapvisiblegridlinesonly="true"
       originx="-7.2460938e-006px"
       originy="4.2724553e-007px" />
  </sodipodi:namedview>
  <metadata
     id="metadata7">
    <rdf:RDF>
      <cc:Work
         rdf:about="">
        <dc:format>image/svg+xml</dc:format>
        <dc:type
           rdf:resource="http://purl.org/dc/dcmitype/StillImage" />
        <dc:title></dc:title>
      </cc:Work>
    </rdf:RDF>
  </metadata>
  <g
     inkscape:label="Layer 1"
     inkscape:groupmode="layer"
     id="layer1"
     transform="translate(189.07277,-118.91525)">
    <rect
       style="fill:#0073cf;fill-opacity:1;stroke:none"
       id="rect4097"
       width="770"
       height="540"
       x="-189.07277"
       y="118.91525" />
    <g
       transform="matrix(5,0,0,-5,-261.77578,743.83577)"
       inkscape:label="Kehtna_valla_lipp_VEKTOR"
       id="g2990">
      <g
         id="g2992" />
    </g>
    <rect
       y="478.91525"
       x="-189.07277"
       height="180"
       width="770"
       id="rect6300"
       style="fill:#000000;fill-opacity:1;stroke:none" />
    <path
       style="fill:#ffffff;stroke:none"
       d="m -189.07278,471.19672 44.71085,-106.05507 -27.43349,0 39.19088,-74.71693 -27.43349,0 46.04891,-81.50946 46.04929,81.50946 -27.43349,0 39.19062,74.71693 -27.43349,0 47.02894,83.77361 47.02893,-83.77361 -27.43349,0 39.19075,-74.71693 -27.43361,0 46.04903,-81.50946 46.04941,81.50946 -27.43361,0 39.19075,74.71693 -27.43362,0 47.02903,83.77361 47.0289,-83.77361 -27.43349,0 39.19073,-74.71693 -27.43354,0 46.04916,-81.50946 46.04916,81.50946 -27.43356,0 39.1908,74.71693 -27.43356,0 47.02892,83.77361 47.02891,-83.77361 -27.43354,0 39.19075,-74.71693 -27.4335,0 46.04914,-81.50946 46.04914,81.50946 -27.43354,0 39.19078,74.71693 -27.43355,0 47.02893,83.77361 47.02889,-83.77361 -27.43349,0 39.19074,-74.71693 -27.43353,0 46.04915,-81.50946 46.04916,81.50946 -27.43357,0 39.19081,74.71693 -27.43359,0 45.32929,106.05496 0,77.71863 c 0,0 -16.28255,-19.99998 -31.63283,-19.99998 -38.37581,0 -49.88864,39.99999 -88.26446,39.99999 -38.37594,0 -49.88865,-39.99999 -88.26459,-39.99999 -38.37581,0 -49.88851,39.99999 -88.26445,39.99999 -38.37583,0 -49.88859,-39.99999 -88.26445,-39.99999 -38.37587,0 -49.88854,39.99999 -88.26451,39.99999 -38.37594,0 -49.88877,-39.99999 -88.2642,-39.99999 -38.37594,0 -49.88877,39.99999 -88.26446,39.99999 -38.37607,0 -49.8889,-39.99999 -88.26458,-39.99999 -15.35015,0 -32.25147,19.99998 -32.25147,19.99998 z"
       id="path4938-2-2"
       inkscape:connector-curvature="0"
       sodipodi:nodetypes="ccccccccccccccccccccccccccccccccccccccccccccccccccccssssssssscc" />
  </g>
</svg>
