<?xml version="1.0" encoding="UTF-8" standalone="no"?>
<!-- Created with Inkscape (http://www.inkscape.org/) -->

<svg
   xmlns:dc="http://purl.org/dc/elements/1.1/"
   xmlns:cc="http://creativecommons.org/ns#"
   xmlns:rdf="http://www.w3.org/1999/02/22-rdf-syntax-ns#"
   xmlns:svg="http://www.w3.org/2000/svg"
   xmlns="http://www.w3.org/2000/svg"
   xmlns:sodipodi="http://sodipodi.sourceforge.net/DTD/sodipodi-0.dtd"
   xmlns:inkscape="http://www.inkscape.org/namespaces/inkscape"
   width="720"
   height="540"
   id="svg2"
   version="1.1"
   inkscape:version="0.48.5 r10040"
   sodipodi:docname="svg.svg">
  <defs
     id="defs4"><inkscape:perspective
   sodipodi:type="inkscape:persp3d"
   inkscape:vp_x="0 : 270 : 1"
   inkscape:vp_y="0 : 1000 : 0"
   inkscape:vp_z="850 : 270 : 1"
   inkscape:persp3d-origin="425 : 180 : 1"
   id="perspective4421" />
<clipPath
   id="clipPath5459"
   clipPathUnits="userSpaceOnUse">
  <path
     class="fil0"
     d="m 7507.1113,0 c 0,0 0,1693.3334 0,4092.2223 0,2398.889 -1778.0001,3951.1113 -3556.0001,3951.1113 -1778,0 -3556.00016,-1552.2223 -3556.00016,-3951.1113 0,-2398.8889 0,-4092.2223 0,-4092.2223 z"
     id="path5461"
     inkscape:connector-curvature="0"
     style="fill:#ffcc2a;fill-opacity:1;stroke:none"
     sodipodi:nodetypes="czzzcc" />
</clipPath>
<clipPath
   id="clipPath4932"
   clipPathUnits="userSpaceOnUse">
  <path
     sodipodi:nodetypes="czczcc"
     style="fill:#f0c607;fill-opacity:1;stroke:none"
     inkscape:connector-curvature="0"
     id="path4934"
     d="m 987.77776,367.33289 c 0,0 -242.71578,1841.15241 58.54354,3758.10431 C 1347.5806,6042.3891 2355.0483,8759.922 5081.0878,10770.75 7807.1274,8759.922 8814.5951,6042.3891 9115.8544,4125.4372 9417.1137,2208.4853 9174.3979,367.33289 9174.3979,367.33289 z"
     class="fil0" />
</clipPath>
<clipPath
   id="clipPath4178"
   clipPathUnits="userSpaceOnUse">
  <path
     sodipodi:nodetypes="czczccc"
     style="fill:#15a94a;fill-opacity:1;stroke:none"
     inkscape:connector-curvature="0"
     id="path4180"
     d="m 9424.579,254.44439 c 0,0 365.8349,1916.25601 -39.0444,3702.57631 C 8980.6554,5743.341 8131.1247,8539.2979 5150.716,10809.556 2170.3073,8539.2979 1320.7766,5743.341 915.89735,3957.0207 511.01808,2170.7004 876.85302,254.44439 876.85302,254.44439 c 0,0 2565.76358,-169.333331 4273.86298,-169.333331 1708.0994,0 4273.863,169.333331 4273.863,169.333331 z"
     class="fil0" />
</clipPath>

 <style
   id="style6"
   type="text/css">
   
    .fil1 {fill:#FEFEFE}
    .fil0 {fill:#1A75CF}
   
  </style>

  <clipPath
   id="clipPath3997"
   clipPathUnits="userSpaceOnUse">
  <path
     sodipodi:nodetypes="czzccc"
     inkscape:connector-curvature="0"
     id="path3999"
     d="m 510,0 c 0,0 0,300.00002 0,380.00002 0,80 -69.00088,239.99999 -254.99925,239.99508 C 69.002381,619.9901 -0.0015091,460.00002 0.0014909,380.00002 c 0.002,-120 0,-379.997565 0,-379.997565 z"
     style="fill:none;stroke:#000000;stroke-width:3;stroke-miterlimit:4;stroke-dasharray:none" />
</clipPath>
<clipPath
   id="clipPath4178-6"
   clipPathUnits="userSpaceOnUse">
  <path
     sodipodi:nodetypes="czczccc"
     style="fill:#15a94a;fill-opacity:1;stroke:none"
     inkscape:connector-curvature="0"
     id="path4180-4"
     d="m 9424.579,254.44439 c 0,0 365.8349,1916.25601 -39.0444,3702.57631 C 8980.6554,5743.341 8131.1247,8539.2979 5150.716,10809.556 2170.3073,8539.2979 1320.7766,5743.341 915.89735,3957.0207 511.01808,2170.7004 876.85302,254.44439 876.85302,254.44439 c 0,0 2565.76358,-169.333331 4273.86298,-169.333331 1708.0994,0 4273.863,169.333331 4273.863,169.333331 z"
     class="fil0" />
</clipPath>

 <style
   id="style6-2"
   type="text/css">
   
    .fil1 {fill:#FEFEFE}
    .fil0 {fill:#1A75CF}
   
  </style>

  </defs>
  <sodipodi:namedview
     id="base"
     pagecolor="#f6f3f1"
     bordercolor="#666666"
     borderopacity="1.0"
     inkscape:pageopacity="0"
     inkscape:pageshadow="2"
     inkscape:zoom="1"
     inkscape:cx="351.50202"
     inkscape:cy="315.89193"
     inkscape:document-units="px"
     inkscape:current-layer="layer1"
     showgrid="false"
     showborder="true"
     inkscape:window-width="1920"
     inkscape:window-height="1017"
     inkscape:window-x="-8"
     inkscape:window-y="-8"
     inkscape:window-maximized="1"
     fit-margin-top="0"
     fit-margin-left="0"
     fit-margin-right="0"
     fit-margin-bottom="0">
    <inkscape:grid
       type="xygrid"
       id="grid3074"
       empspacing="5"
       visible="true"
       enabled="true"
       snapvisiblegridlinesonly="true"
       originx="-6.4111328e-006px"
       originy="5.3710932e-006px" />
  </sodipodi:namedview>
  <metadata
     id="metadata7">
    <rdf:RDF>
      <cc:Work
         rdf:about="">
        <dc:format>image/svg+xml</dc:format>
        <dc:type
           rdf:resource="http://purl.org/dc/dcmitype/StillImage" />
        <dc:title></dc:title>
      </cc:Work>
    </rdf:RDF>
  </metadata>
  <g
     inkscape:label="Layer 1"
     inkscape:groupmode="layer"
     id="layer1"
     transform="translate(189.07277,-118.91525)">
    <rect
       style="fill:#0b91d0;fill-opacity:1;stroke:none"
       id="rect4097"
       width="720"
       height="540"
       x="-189.07277"
       y="118.91525" />
    <g
       transform="matrix(5,0,0,-5,-261.77578,743.83577)"
       inkscape:label="Kehtna_valla_lipp_VEKTOR"
       id="g2990">
      <g
         id="g2992" />
    </g>
    <path
       style="fill:#ffffff;stroke:none"
       d="m 0,355 0,60 0,125 720,0 0,-125 0,-60 -80,0 0,60 -80,0 0,-60 -80,0 0,60 -80,0 0,-60 -80,0 0,60 -80,0 0,-60 -80,0 0,60 -80,0 0,-60 -80,0 z"
       transform="translate(-189.07277,118.91525)"
       id="rect4436"
       inkscape:connector-curvature="0" />
    <path
       style="color:#000000;fill:#ffffff;stroke:none;stroke-width:1;marker:none;visibility:visible;display:inline;overflow:visible;enable-background:accumulate"
       d="m 416,75.25 c -13.75,2.25 -66,16.5 -113.25,53.75 -47.25,37.25 -63.03125,85.71875 -63.03125,85.71875 41.7193,-0.35355 71.95006,18.05269 73.1875,18.40625 -6.89429,0.35355 -21.34375,3.21875 -21.34375,3.21875 L 324.5,258.25 300.75,270 353,268.75 l 11,10 0.5,-11.5 14.25,5.75 -1.25,-10 26.25,5.75 -0.25,-7.25 33.25,6.25 5,-12.75 -35,-8.5 55.75,1.75 4.75,-12.25 -80.5,-2.5 102.75,-15.25 6,-15.75 -144,22.5 4,9.25 c -18.5,-24 -47,-26.5 -47,-26.5 22.75,9 49.75,42.75 49.75,42.75 l -18.25,0 C 308,206.25 261,200 261,200 303,133.25 393.5,114 393.5,114 L 416,75.25 z m -14.34375,66.90625 c -16.42776,0.18093 -37.25,2.50781 -57.40625,10.59375 -42.02811,16.86011 -58.5,38.75 -58.5,38.75 0,0 72,-40 132.5,-25.5 l 15,-21.5 c 0,0 -12.97562,-2.54881 -31.59375,-2.34375 z m -36.875,34.3125 C 324.90958,176.64735 297.75,199.5 297.75,199.5 335,183.75 387,193 387,193 l 10.5,-11.5 c -11.57812,-3.65625 -22.55538,-5.07677 -32.71875,-5.03125 z m -75.9375,61.0625 c -32.17336,4.24264 -47.1875,21.5625 -47.1875,21.5625 -3.0052,15.2028 2.125,23.875 2.125,23.875 0.17677,-5.65686 5.65625,-12.71875 5.65625,-12.71875 l 1.75,4.40625 C 260.02634,265.64064 290.28125,269 290.28125,269 l -2.125,-3.53125 18.1875,-8.125 C 294.32294,247.79781 284.625,243.375 284.625,243.375 l 4.21875,-5.84375 z M 253.5,258.75 l 0.125,4.5 c -2.2998,1.15755 -4.91675,0.33367 -5.875,-0.625 l 5.75,-3.875 z m 96.375,12.375 -2.25,5.75 -9.25,7.875 7.125,-0.5 c 0,0 1.25,5 1.75,4.75 0.5,-0.25 4.375,-4.625 4.375,-4.625 0,0 4.75,2.125 4.75,1.625 0,-0.5 -0.375,-5 -0.375,-5 l 3.625,-0.25 -9.75,-9.625 z m 18.125,2.75 c 0,0.5 0.375,10.25 0.375,10.25 l -6.75,14.125 7.75,-7.625 3,9.375 3,-12 7,0.25 -2.875,-5.25 4.375,-2.125 -15.875,-7 z"
       transform="translate(-189.07277,118.91525)"
       id="path4514"
       inkscape:connector-curvature="0" />
  </g>
</svg>
