<?xml version="1.0" encoding="UTF-8" standalone="no"?>
<!-- Created with Inkscape (http://www.inkscape.org/) -->

<svg
   xmlns:dc="http://purl.org/dc/elements/1.1/"
   xmlns:cc="http://creativecommons.org/ns#"
   xmlns:rdf="http://www.w3.org/1999/02/22-rdf-syntax-ns#"
   xmlns:svg="http://www.w3.org/2000/svg"
   xmlns="http://www.w3.org/2000/svg"
   xmlns:sodipodi="http://sodipodi.sourceforge.net/DTD/sodipodi-0.dtd"
   xmlns:inkscape="http://www.inkscape.org/namespaces/inkscape"
   width="850"
   height="540"
   id="svg2"
   version="1.1"
   inkscape:version="0.48.5 r10040"
   sodipodi:docname="svg.svg">
  <defs
     id="defs4"><clipPath
   id="clipPath5459"
   clipPathUnits="userSpaceOnUse">
  <path
     class="fil0"
     d="m 7507.1113,0 c 0,0 0,1693.3334 0,4092.2223 0,2398.889 -1778.0001,3951.1113 -3556.0001,3951.1113 -1778,0 -3556.00016,-1552.2223 -3556.00016,-3951.1113 0,-2398.8889 0,-4092.2223 0,-4092.2223 z"
     id="path5461"
     inkscape:connector-curvature="0"
     style="fill:#ffcc2a;fill-opacity:1;stroke:none"
     sodipodi:nodetypes="czzzcc" />
</clipPath>
<clipPath
   id="clipPath4932"
   clipPathUnits="userSpaceOnUse">
  <path
     sodipodi:nodetypes="czczcc"
     style="fill:#f0c607;fill-opacity:1;stroke:none"
     inkscape:connector-curvature="0"
     id="path4934"
     d="m 987.77776,367.33289 c 0,0 -242.71578,1841.15241 58.54354,3758.10431 C 1347.5806,6042.3891 2355.0483,8759.922 5081.0878,10770.75 7807.1274,8759.922 8814.5951,6042.3891 9115.8544,4125.4372 9417.1137,2208.4853 9174.3979,367.33289 9174.3979,367.33289 z"
     class="fil0" />
</clipPath>
<clipPath
   id="clipPath4178"
   clipPathUnits="userSpaceOnUse">
  <path
     sodipodi:nodetypes="czczccc"
     style="fill:#15a94a;fill-opacity:1;stroke:none"
     inkscape:connector-curvature="0"
     id="path4180"
     d="m 9424.579,254.44439 c 0,0 365.8349,1916.25601 -39.0444,3702.57631 C 8980.6554,5743.341 8131.1247,8539.2979 5150.716,10809.556 2170.3073,8539.2979 1320.7766,5743.341 915.89735,3957.0207 511.01808,2170.7004 876.85302,254.44439 876.85302,254.44439 c 0,0 2565.76358,-169.333331 4273.86298,-169.333331 1708.0994,0 4273.863,169.333331 4273.863,169.333331 z"
     class="fil0" />
</clipPath>

 <style
   id="style6"
   type="text/css">
   
    .fil1 {fill:#FEFEFE}
    .fil0 {fill:#1A75CF}
   
  </style>

  <clipPath
   id="clipPath3997"
   clipPathUnits="userSpaceOnUse">
  <path
     sodipodi:nodetypes="czzccc"
     inkscape:connector-curvature="0"
     id="path3999"
     d="m 510,0 c 0,0 0,300.00002 0,380.00002 0,80 -69.00088,239.99999 -254.99925,239.99508 C 69.002381,619.9901 -0.0015091,460.00002 0.0014909,380.00002 c 0.002,-120 0,-379.997565 0,-379.997565 z"
     style="fill:none;stroke:#000000;stroke-width:3;stroke-miterlimit:4;stroke-dasharray:none" />
</clipPath>
<clipPath
   id="clipPath4178-6"
   clipPathUnits="userSpaceOnUse">
  <path
     sodipodi:nodetypes="czczccc"
     style="fill:#15a94a;fill-opacity:1;stroke:none"
     inkscape:connector-curvature="0"
     id="path4180-4"
     d="m 9424.579,254.44439 c 0,0 365.8349,1916.25601 -39.0444,3702.57631 C 8980.6554,5743.341 8131.1247,8539.2979 5150.716,10809.556 2170.3073,8539.2979 1320.7766,5743.341 915.89735,3957.0207 511.01808,2170.7004 876.85302,254.44439 876.85302,254.44439 c 0,0 2565.76358,-169.333331 4273.86298,-169.333331 1708.0994,0 4273.863,169.333331 4273.863,169.333331 z"
     class="fil0" />
</clipPath>

 <style
   id="style6-2"
   type="text/css">
   
    .fil1 {fill:#FEFEFE}
    .fil0 {fill:#1A75CF}
   
  </style>

  </defs>
  <sodipodi:namedview
     id="base"
     pagecolor="#f6f3f1"
     bordercolor="#666666"
     borderopacity="1.0"
     inkscape:pageopacity="0"
     inkscape:pageshadow="2"
     inkscape:zoom="1"
     inkscape:cx="448.54612"
     inkscape:cy="281.65937"
     inkscape:document-units="px"
     inkscape:current-layer="layer1"
     showgrid="false"
     showborder="true"
     inkscape:window-width="1920"
     inkscape:window-height="1017"
     inkscape:window-x="-8"
     inkscape:window-y="-8"
     inkscape:window-maximized="1"
     fit-margin-top="0"
     fit-margin-left="0"
     fit-margin-right="0"
     fit-margin-bottom="0">
    <inkscape:grid
       type="xygrid"
       id="grid3074"
       empspacing="5"
       visible="true"
       enabled="true"
       snapvisiblegridlinesonly="true"
       originx="-6.4111328e-006px"
       originy="2.6855463e-006px" />
  </sodipodi:namedview>
  <metadata
     id="metadata7">
    <rdf:RDF>
      <cc:Work
         rdf:about="">
        <dc:format>image/svg+xml</dc:format>
        <dc:type
           rdf:resource="http://purl.org/dc/dcmitype/StillImage" />
        <dc:title></dc:title>
      </cc:Work>
    </rdf:RDF>
  </metadata>
  <g
     inkscape:label="Layer 1"
     inkscape:groupmode="layer"
     id="layer1"
     transform="translate(189.07277,-118.91525)">
    <rect
       style="fill:#ffffff;fill-opacity:1;fill-rule:evenodd;stroke:none"
       id="rect4097"
       width="850"
       height="540"
       x="-189.07277"
       y="118.91525" />
    <rect
       y="238.91525"
       x="-189.07277"
       height="300"
       width="850"
       id="rect4332"
       style="fill:#15a94a;fill-opacity:1;fill-rule:evenodd;stroke:none" />
    <g
       transform="matrix(5,0,0,-5,-261.77578,743.83577)"
       inkscape:label="Kehtna_valla_lipp_VEKTOR"
       id="g2990">
      <g
         id="g2992" />
    </g>
    <g
       style="fill-rule:evenodd"
       id="g4210"
       transform="matrix(0.04932942,0,0,0.04932942,-213.69723,193.1501)">
      <path
         style="fill:#ffffff;fill-opacity:1;fill-rule:evenodd;stroke:none"
         d="m 5356.5,4437.0552 c -180.4293,129.3315 -657.56,745.8447 -1231.7115,837.6578 -574.1515,91.8131 -800.8301,-314.4447 -868.0201,-602.6276 -67.1899,-288.1829 16.8613,-541.5652 124.176,-703.558 -107.3147,-161.9928 -191.3659,-415.3751 -124.176,-703.558 67.19,-288.1829 293.8686,-694.4407 868.0201,-602.6276 574.1515,91.8131 1051.2822,708.3263 1231.7115,837.6578 l 28.2222,-28.2222 c -129.3315,-180.4293 -745.8447,-657.56 -837.6578,-1231.7115 -91.8131,-574.1515 314.4447,-800.8301 602.6276,-868.0201 288.1829,-67.1899 541.5652,16.8613 703.558,124.176 161.9928,-107.3147 415.3751,-191.3659 703.558,-124.176 288.1829,67.19 694.4407,293.8686 602.6276,868.0201 -91.8131,574.1515 -708.3263,1051.2822 -837.6578,1231.7115 L 6350,3499.9996 c 180.4293,-129.3315 657.56,-745.8447 1231.7115,-837.6578 574.1515,-91.8131 800.8301,314.4447 868.0201,602.6276 67.1899,288.1829 -16.8613,541.5652 -124.176,703.558 107.3147,161.9928 191.3659,415.3751 124.176,703.558 -67.19,288.1829 -293.8686,694.4407 -868.0201,602.6276 C 7007.56,5182.8999 6530.4293,4566.3867 6350,4437.0552 l -28.2222,28.2222 c 129.3315,180.4293 745.8447,657.56 837.6578,1231.7115 91.8131,574.1515 -314.4447,800.8301 -602.6276,868.0201 -288.1829,67.1899 -541.5652,-16.8613 -703.558,-124.176 -161.9928,107.3147 -415.3751,191.3659 -703.558,124.176 -288.1829,-67.19 -694.4407,-293.8686 -602.6276,-868.0201 91.8131,-574.1515 708.3263,-1051.2822 837.6578,-1231.7115 z"
         id="path4152"
         inkscape:connector-curvature="0"
         sodipodi:nodetypes="czzczzcczzczzcczzczzcczzczzcc" />
      <path
         sodipodi:nodetypes="ccccccccc"
         inkscape:connector-curvature="0"
         id="path4174"
         d="m 4594.4999,3968.5274 c 0,0 1008.4894,167.8082 1049.7156,209.0344 41.2262,41.2262 209.0345,1049.7157 209.0345,1049.7157 0,0 167.8082,-1008.4895 209.0344,-1049.7157 41.2262,-41.2262 1049.7157,-209.0344 1049.7157,-209.0344 0,0 -1008.4895,-167.8083 -1049.7157,-209.0345 -41.2262,-41.2262 -209.0344,-1049.7156 -209.0344,-1049.7156 0,0 -167.8083,1008.4894 -209.0345,1049.7156 -41.2262,41.2262 -1049.7156,209.0345 -1049.7156,209.0345 z"
         style="fill:#f52c0d;fill-opacity:1;fill-rule:evenodd;stroke:none" />
    </g>
  </g>
</svg>
