<?xml version="1.0" encoding="UTF-8" standalone="no"?>
<!-- Created with Inkscape (http://www.inkscape.org/) -->

<svg
   xmlns:dc="http://purl.org/dc/elements/1.1/"
   xmlns:cc="http://creativecommons.org/ns#"
   xmlns:rdf="http://www.w3.org/1999/02/22-rdf-syntax-ns#"
   xmlns:svg="http://www.w3.org/2000/svg"
   xmlns="http://www.w3.org/2000/svg"
   xmlns:sodipodi="http://sodipodi.sourceforge.net/DTD/sodipodi-0.dtd"
   xmlns:inkscape="http://www.inkscape.org/namespaces/inkscape"
   width="940.32971"
   height="598.65442"
   id="svg2"
   version="1.1"
   inkscape:version="0.48.5 r10040"
   sodipodi:docname="New document 1">
  <defs
     id="defs4">
    <clipPath
       id="clipPath3058"
       clipPathUnits="userSpaceOnUse">
      <path
         id="path3060"
         clip-rule="evenodd"
         d="m 58.6593,778.5085 238.3183,0 0,-6.5001 -238.3183,0 0,6.5001 z"
         inkscape:connector-curvature="0" />
    </clipPath>
  </defs>
  <sodipodi:namedview
     id="base"
     pagecolor="#f6f3f1"
     bordercolor="#666666"
     borderopacity="1.0"
     inkscape:pageopacity="0"
     inkscape:pageshadow="2"
     inkscape:zoom="1"
     inkscape:cx="386.95888"
     inkscape:cy="311.49495"
     inkscape:document-units="px"
     inkscape:current-layer="g2990"
     showgrid="false"
     showborder="true"
     inkscape:window-width="1920"
     inkscape:window-height="1017"
     inkscape:window-x="-8"
     inkscape:window-y="-8"
     inkscape:window-maximized="1"
     fit-margin-top="0"
     fit-margin-left="0"
     fit-margin-right="0"
     fit-margin-bottom="0" />
  <metadata
     id="metadata7">
    <rdf:RDF>
      <cc:Work
         rdf:about="">
        <dc:format>image/svg+xml</dc:format>
        <dc:type
           rdf:resource="http://purl.org/dc/dcmitype/StillImage" />
        <dc:title></dc:title>
      </cc:Work>
    </rdf:RDF>
  </metadata>
  <g
     inkscape:label="Layer 1"
     inkscape:groupmode="layer"
     id="layer1"
     transform="translate(99.525195,22.731717)">
    <g
       transform="matrix(1.25,0,0,-1.25,-55.458393,956.43767)"
       inkscape:label="pp 3.2 Vapp ja lipp(1)"
       id="g2990">
      <g
         transform="matrix(2,0,0,2,-255.73687,-619.68829)"
         id="g4383">
        <path
           inkscape:connector-curvature="0"
           d="m 486.3736,701.5119 -376.1226,0 0,-239.4522 376.1226,0 0,239.4522 z"
           style="fill:#2ea821;fill-opacity:1;fill-rule:evenodd;stroke:none"
           id="path2992" />
        <path
           inkscape:connector-curvature="0"
           id="path2994"
           transform="matrix(0.8,0,0,-0.8,44.366714,765.15014)"
           d="m 414.28125,79.5625 -331.9375,211.46875 0,87.84375 139.09375,0 331.0625,-210.90625 0,-88.40625 -138.21875,0 z"
           style="font-size:medium;font-style:normal;font-variant:normal;font-weight:normal;font-stretch:normal;text-indent:0;text-align:start;text-decoration:none;line-height:normal;letter-spacing:normal;word-spacing:normal;text-transform:none;direction:ltr;block-progression:tb;writing-mode:lr-tb;text-anchor:start;baseline-shift:baseline;color:#000000;fill:#fcffff;fill-opacity:1;stroke:none;stroke-width:119.05509949;marker:none;visibility:visible;display:inline;overflow:visible;enable-background:accumulate;font-family:Sans;-inkscape-font-specification:Sans" />
        <g
           id="g3872">
          <path
             inkscape:connector-curvature="0"
             d="m 294.6407,572.548 c 0.3719,2.1345 -0.5451,3.6476 -1.2413,4.3356 -0.6964,0.6882 -2.2198,1.5862 -4.3494,1.1885 -1.3607,-0.2534 -2.9172,-0.9847 -4.7115,-2.7071 l -0.4555,-0.4365 0.5621,-0.3044 c 0.005,-0.002 1.6835,-0.9814 3.7411,-3.0152 l 0.002,-0.002 c 2.003,-1.9786 2.9534,-3.6681 3.0033,-3.7571 l 0.0128,-0.0232 0.002,-0.004 0.3231,-0.5068 0.4056,0.4322 c 1.7017,1.8145 2.4684,3.4359 2.7054,4.7997"
             style="fill:#2b2b2a;fill-opacity:1;fill-rule:nonzero;stroke:none"
             id="path3874" />
          <path
             inkscape:connector-curvature="0"
             d="m 307.4822,585.4652 c -2.1322,-0.3844 -3.6507,0.5235 -4.3429,1.216 -0.6922,0.6922 -1.599,2.2102 -1.2141,4.3421 0.2455,1.3624 1.0225,2.9787 2.7346,4.7832 l 0.4334,0.4575 0.3078,-0.5598 c 0.002,-0.005 0.9366,-1.7334 2.9824,-3.7792 l 0.002,-0.002 c 1.9904,-1.9914 3.6853,-2.9319 3.7746,-2.981 l 0.0232,-0.0127 0.004,-0.002 0.5088,-0.32 -0.43,-0.4085 c -1.8046,-1.7121 -3.4214,-2.4882 -4.7838,-2.7334"
             style="fill:#2b2b2a;fill-opacity:1;fill-rule:nonzero;stroke:none"
             id="path3876" />
          <path
             inkscape:connector-curvature="0"
             d="m 291.7908,574.1614 -0.8694,0.8643 13.5425,13.6225 0.8694,-0.8643 -13.5425,-13.6225 z"
             style="fill:#2b2b2a;fill-opacity:1;fill-rule:evenodd;stroke:none"
             id="path3878" />
          <path
             inkscape:connector-curvature="0"
             d="m 307.5041,577.9199 c -2.1345,0.3716 -3.6474,-0.5451 -4.3356,-1.2416 -0.688,-0.6964 -1.586,-2.2198 -1.1886,-4.3492 0.2537,-1.3609 1.04,-2.9727 2.7629,-4.767 l 0.436,-0.455 0.3044,0.5616 c 0.002,0.005 0.9264,1.7388 2.9603,3.7967 l 0.002,0.002 c 1.9788,2.003 3.6683,2.9534 3.7573,3.003 l 0.0229,0.0128 0.004,0.002 0.5069,0.3229 -0.4323,0.4059 c -1.8148,1.7014 -3.4362,2.4681 -4.7999,2.7054"
             style="fill:#2b2b2a;fill-opacity:1;fill-rule:nonzero;stroke:none"
             id="path3880" />
          <path
             inkscape:connector-curvature="0"
             d="m 294.5869,590.7611 c 0.3843,-2.1322 -0.5233,-3.6504 -1.2158,-4.3426 -0.6925,-0.6923 -2.2105,-1.5994 -4.3424,-1.2141 -1.3621,0.2455 -2.9787,1.0222 -4.7829,2.7346 l -0.4575,0.4334 0.5598,0.3078 c 0.005,0.002 1.7331,0.9363 3.7792,2.9824 l 0.002,0.002 c 1.9913,1.9904 2.9319,3.6856 2.9812,3.7748 l 0.0124,0.0233 0.003,0.004 0.32,0.5088 0.4082,-0.43 c 1.7121,-1.8046 2.4886,-3.4214 2.7335,-4.7838"
             style="fill:#2b2b2a;fill-opacity:1;fill-rule:nonzero;stroke:none"
             id="path3882" />
          <path
             inkscape:connector-curvature="0"
             d="m 305.8906,575.07 -0.8643,-0.8697 -13.6225,13.5425 0.8646,0.8697 13.6222,-13.5425 z"
             style="fill:#2b2b2a;fill-opacity:1;fill-rule:evenodd;stroke:none"
             id="path3884" />
          <path
             inkscape:connector-curvature="0"
             d="m 296.7514,581.6608 c -0.002,0.8561 0.6894,1.552 1.5455,1.5545 0.856,0.003 1.5519,-0.6894 1.5545,-1.5454 0.002,-0.8561 -0.6894,-1.552 -1.5455,-1.5546 -0.856,-0.003 -1.5519,0.6894 -1.5545,1.5455"
             style="fill:#ffffff;fill-opacity:1;fill-rule:evenodd;stroke:none"
             id="path3886" />
          <g
             id="g3888">
            <path
               inkscape:connector-curvature="0"
               d="m 312.4137,602.0872 c 6.5797,13.6429 14.6146,15.3071 25.7791,20.0883 0.3832,0.1236 0.667,-0.1105 0.5091,-0.5091 -4.7812,-11.1645 -6.4454,-19.1993 -20.0883,-25.7791 14.9837,4.777 28.8164,0.6381 36.8904,-11.7326 l -1.5154,0.699 c -3.4044,1.5693 -10.6101,2.6802 -16.4597,1.8272 -11.1543,-1.6265 -20.7156,-1.2557 -28.1472,6.1628 l -3e-4,-2e-4 -0.0116,0.0116 3e-4,3e-4 c -7.4185,7.4316 -7.7893,16.9928 -6.1628,28.1472 0.853,5.8495 -0.2579,13.0552 -1.8272,16.4596 l -0.699,1.5154 c 12.3706,-8.0739 16.5095,-21.9067 11.7326,-36.8904"
               style="fill:#2b2b2a;fill-opacity:1;fill-rule:nonzero;stroke:none"
               id="path3890" />
            <path
               inkscape:connector-curvature="0"
               d="m 278.0107,567.6843 c -13.6429,-6.5798 -15.3071,-14.6146 -20.0883,-25.7791 -0.1236,-0.3833 0.1106,-0.667 0.5091,-0.5091 11.1646,4.7812 19.1994,6.4454 25.7791,20.0882 -4.7769,-14.9836 -0.638,-28.8164 11.7326,-36.8903 l -0.699,1.5154 c -1.5692,3.4044 -2.6801,10.6101 -1.8272,16.4596 1.6265,11.1544 1.2558,20.7156 -6.1628,28.1472 l 3e-4,3e-4 -0.0116,0.0116 -3e-4,-3e-4 c -7.4316,7.4186 -16.9929,7.7894 -28.1472,6.1628 -5.8496,-0.8529 -13.0552,0.258 -16.4597,1.8273 l -1.5154,0.699 c 8.074,-12.3707 21.9068,-16.5096 36.8904,-11.7326"
               style="fill:#2b2b2a;fill-opacity:1;fill-rule:nonzero;stroke:none"
               id="path3892" />
          </g>
          <g
             id="g3894">
            <path
               inkscape:connector-curvature="0"
               d="m 278.0107,595.8873 c -13.6429,6.5798 -15.3071,14.6146 -20.0883,25.7791 -0.1236,0.3833 0.1106,0.667 0.5091,0.5091 11.1646,-4.7812 19.1994,-6.4454 25.7791,-20.0883 -4.7769,14.9837 -0.638,28.8165 11.7326,36.8904 l -0.699,-1.5154 c -1.5692,-3.4044 -2.6801,-10.6101 -1.8272,-16.4596 1.6265,-11.1544 1.2558,-20.7156 -6.1628,-28.1472 l 3e-4,-3e-4 -0.0116,-0.0116 -3e-4,2e-4 c -7.4316,-7.4185 -16.9929,-7.7893 -28.1472,-6.1628 -5.8496,0.853 -13.0552,-0.2579 -16.4597,-1.8272 l -1.5154,-0.699 c 8.074,12.3707 21.9068,16.5096 36.8904,11.7326"
               style="fill:#2b2b2a;fill-opacity:1;fill-rule:nonzero;stroke:none"
               id="path3896" />
            <path
               inkscape:connector-curvature="0"
               d="m 312.4137,561.4843 c 6.5797,-13.6428 14.6146,-15.307 25.7791,-20.0882 0.3832,-0.1236 0.667,0.1105 0.5091,0.5091 -4.7812,11.1645 -6.4454,19.1993 -20.0883,25.7791 14.9837,-4.777 28.8164,-0.6381 36.8904,11.7326 l -1.5154,-0.699 c -3.4044,-1.5693 -10.6101,-2.6802 -16.4597,-1.8273 -11.1543,1.6266 -20.7156,1.2558 -28.1472,-6.1628 l -3e-4,3e-4 -0.0116,-0.0116 3e-4,-3e-4 c -7.4185,-7.4316 -7.7893,-16.9928 -6.1628,-28.1472 0.853,-5.8495 -0.2579,-13.0552 -1.8272,-16.4596 l -0.699,-1.5154 c 12.3706,8.0739 16.5095,21.9067 11.7326,36.8903"
               style="fill:#2b2b2a;fill-opacity:1;fill-rule:nonzero;stroke:none"
               id="path3898" />
          </g>
        </g>
      </g>
    </g>
  </g>
</svg>
