<?xml version="1.0" encoding="UTF-8" standalone="no"?>
<!-- Created with Inkscape (http://www.inkscape.org/) -->

<svg
   xmlns:dc="http://purl.org/dc/elements/1.1/"
   xmlns:cc="http://creativecommons.org/ns#"
   xmlns:rdf="http://www.w3.org/1999/02/22-rdf-syntax-ns#"
   xmlns:svg="http://www.w3.org/2000/svg"
   xmlns="http://www.w3.org/2000/svg"
   xmlns:sodipodi="http://sodipodi.sourceforge.net/DTD/sodipodi-0.dtd"
   xmlns:inkscape="http://www.inkscape.org/namespaces/inkscape"
   width="720"
   height="540"
   id="svg2"
   version="1.1"
   inkscape:version="0.48.5 r10040"
   sodipodi:docname="svg.svg">
  <defs
     id="defs4"><clipPath
   id="clipPath5459"
   clipPathUnits="userSpaceOnUse">
  <path
     class="fil0"
     d="m 7507.1113,0 c 0,0 0,1693.3334 0,4092.2223 0,2398.889 -1778.0001,3951.1113 -3556.0001,3951.1113 -1778,0 -3556.00016,-1552.2223 -3556.00016,-3951.1113 0,-2398.8889 0,-4092.2223 0,-4092.2223 z"
     id="path5461"
     inkscape:connector-curvature="0"
     style="fill:#ffcc2a;fill-opacity:1;stroke:none"
     sodipodi:nodetypes="czzzcc" />
</clipPath>
<clipPath
   id="clipPath4932"
   clipPathUnits="userSpaceOnUse">
  <path
     sodipodi:nodetypes="czczcc"
     style="fill:#f0c607;fill-opacity:1;stroke:none"
     inkscape:connector-curvature="0"
     id="path4934"
     d="m 987.77776,367.33289 c 0,0 -242.71578,1841.15241 58.54354,3758.10431 C 1347.5806,6042.3891 2355.0483,8759.922 5081.0878,10770.75 7807.1274,8759.922 8814.5951,6042.3891 9115.8544,4125.4372 9417.1137,2208.4853 9174.3979,367.33289 9174.3979,367.33289 z"
     class="fil0" />
</clipPath>
<clipPath
   id="clipPath4178"
   clipPathUnits="userSpaceOnUse">
  <path
     sodipodi:nodetypes="czczccc"
     style="fill:#15a94a;fill-opacity:1;stroke:none"
     inkscape:connector-curvature="0"
     id="path4180"
     d="m 9424.579,254.44439 c 0,0 365.8349,1916.25601 -39.0444,3702.57631 C 8980.6554,5743.341 8131.1247,8539.2979 5150.716,10809.556 2170.3073,8539.2979 1320.7766,5743.341 915.89735,3957.0207 511.01808,2170.7004 876.85302,254.44439 876.85302,254.44439 c 0,0 2565.76358,-169.333331 4273.86298,-169.333331 1708.0994,0 4273.863,169.333331 4273.863,169.333331 z"
     class="fil0" />
</clipPath>

 <style
   id="style6"
   type="text/css">
   
    .fil1 {fill:#FEFEFE}
    .fil0 {fill:#1A75CF}
   
  </style>

  <clipPath
   id="clipPath3997"
   clipPathUnits="userSpaceOnUse">
  <path
     sodipodi:nodetypes="czzccc"
     inkscape:connector-curvature="0"
     id="path3999"
     d="m 510,0 c 0,0 0,300.00002 0,380.00002 0,80 -69.00088,239.99999 -254.99925,239.99508 C 69.002381,619.9901 -0.0015091,460.00002 0.0014909,380.00002 c 0.002,-120 0,-379.997565 0,-379.997565 z"
     style="fill:none;stroke:#000000;stroke-width:3;stroke-miterlimit:4;stroke-dasharray:none" />
</clipPath>
</defs>
  <sodipodi:namedview
     id="base"
     pagecolor="#f6f3f1"
     bordercolor="#666666"
     borderopacity="1.0"
     inkscape:pageopacity="0"
     inkscape:pageshadow="2"
     inkscape:zoom="1"
     inkscape:cx="405.54613"
     inkscape:cy="351.65936"
     inkscape:document-units="px"
     inkscape:current-layer="layer1"
     showgrid="true"
     showborder="true"
     inkscape:window-width="1920"
     inkscape:window-height="1017"
     inkscape:window-x="-8"
     inkscape:window-y="-8"
     inkscape:window-maximized="1"
     fit-margin-top="0"
     fit-margin-left="0"
     fit-margin-right="0"
     fit-margin-bottom="0">
    <inkscape:grid
       type="xygrid"
       id="grid3074"
       empspacing="5"
       visible="true"
       enabled="true"
       snapvisiblegridlinesonly="true"
       originx="4.4238281e-006px"
       originy="-5.5151568e-013px" />
  </sodipodi:namedview>
  <metadata
     id="metadata7">
    <rdf:RDF>
      <cc:Work
         rdf:about="">
        <dc:format>image/svg+xml</dc:format>
        <dc:type
           rdf:resource="http://purl.org/dc/dcmitype/StillImage" />
        <dc:title></dc:title>
      </cc:Work>
    </rdf:RDF>
  </metadata>
  <g
     inkscape:label="Layer 1"
     inkscape:groupmode="layer"
     id="layer1"
     transform="translate(189.07278,-118.91525)">
    <rect
       style="fill:#009241;fill-opacity:1;fill-rule:evenodd;stroke:none"
       id="rect4097"
       width="720"
       height="540"
       x="4.4238282e-006"
       y="-1.7597657e-005"
       transform="translate(-189.07278,118.91527)" />
    <g
       transform="matrix(5,0,0,-5,-261.77578,743.83577)"
       inkscape:label="Kehtna_valla_lipp_VEKTOR"
       id="g2990">
      <g
         id="g2992" />
    </g>
    <path
       style="fill:#0092dd;fill-opacity:1;fill-rule:evenodd;stroke:none"
       d="m -189.07277,538.91522 90,8 90,-28 90,28 90,-28 90,28 90,-28 90,28 90,-8 0,120 -720,0 z"
       id="rect4152"
       inkscape:connector-curvature="0"
       sodipodi:nodetypes="cccccccccccc" />
    <path
       style="color:#000000;fill:#c1a165;fill-opacity:1;stroke:none;stroke-width:3;marker:none;visibility:visible;display:inline;overflow:visible;enable-background:accumulate"
       clip-path="none"
       d="m 164.1875,369.09375 c -35.75749,0 -62.58626,50.0016 -98.34375,50.75 C 41.650742,420.35011 21.539982,396.94559 0,381.75 l 0,38.96875 c 21.578723,15.07255 41.727226,38.375 65.90625,38.375 35.71988,0 62.51269,-50.90625 98.28125,-50.90625 35.76856,0 62.65512,50.90625 98.375,50.90625 35.43556,0 62.10468,-49.20819 97.4375,-50.875 35.34958,1.63907 62.11642,50.875 97.5625,50.875 35.71988,0 62.51269,-50.90625 98.28125,-50.90625 35.76856,0 62.65513,50.90625 98.375,50.90625 24.1606,0 44.23968,-23.27014 65.78125,-38.34375 l 0,-39.28125 c -21.53738,14.85905 -41.63123,37.86889 -65.8125,38.375 -35.75749,0.7484 -62.58626,-50.75 -98.34375,-50.75 -35.75749,0 -62.55501,50.0016 -98.3125,50.75 -35.19877,0.73671 -61.75941,-49.15955 -96.6875,-50.71875 l 0,-0.0312 c -0.28472,0 -0.56015,0.0253 -0.84375,0.0312 -0.27314,-0.006 -0.53831,-0.0312 -0.8125,-0.0312 l 0,0.0312 c -34.92808,1.51423 -61.45748,49.98204 -96.65625,50.71875 -35.75749,0.7484 -62.58626,-50.75 -98.34375,-50.75 z"
       transform="translate(-189.07278,118.91527)"
       id="path3975"
       inkscape:connector-curvature="0" />
    <g
       transform="translate(-84.072766,113.91525)"
       id="g4155">
      <path
         style="fill:#c1a165;fill-opacity:1;stroke:none"
         d="M 220,115 236.78125,155.78125 160,306.59375 c 0,0 36.11148,14.87342 95,14.875 58.89564,0.002 95,-14.875 95,-14.875 L 273.21875,155.78125 290,115 l -8.75,4 -8.75,-4 -8.75,4 -8.75,-4 -8.75,4 -8.75,-4 -8.75,4 z"
         transform="translate(-9.0967742e-6,0)"
         id="path4001"
         inkscape:connector-curvature="0"
         sodipodi:nodetypes="cccsccccccccccc" />
      <path
         id="path4007"
         style="fill:none;stroke:#5c4925;stroke-width:3.99999976;stroke-miterlimit:4;stroke-opacity:1;stroke-dasharray:none"
         d="m 236.21874,156.00001 c 5.97176,0.86624 10.22688,1.40561 18.78125,1.40624 8.55541,7.6e-4 12.80902,-0.53992 18.78125,-1.40624 M 196.56249,234.75 c 15.37918,2.83245 35.00651,5.21812 58.4375,5.21875 23.43383,7e-4 43.05865,-2.38386 58.4375,-5.21875"
         inkscape:connector-curvature="0" />
      <path
         id="path4011"
         style="fill:none;stroke:#5c4925;stroke-width:1.99999988;stroke-miterlimit:4;stroke-opacity:1;stroke-dasharray:none"
         d="m 270,238.38814 -9.83335,-78.66573 m -10.33334,0.002 -9.83335,78.66925 m 53.00001,-0.006 -24.5,-82.25004 m -26.99998,0.002 -24.5,82.25313"
         inkscape:connector-curvature="0"
         sodipodi:nodetypes="cccccccc" />
      <g
         id="g4089"
         transform="translate(-0.0263091,0)">
        <path
           sodipodi:nodetypes="cccc"
           inkscape:connector-curvature="0"
           id="path4041-1"
           d="m 246.43581,181.17367 -12.47602,-6.26334 15.63302,-15.58236 z"
           style="font-size:medium;font-style:normal;font-variant:normal;font-weight:normal;font-stretch:normal;text-indent:0;text-align:start;text-decoration:none;line-height:normal;letter-spacing:normal;word-spacing:normal;text-transform:none;direction:ltr;block-progression:tb;writing-mode:lr-tb;text-anchor:start;baseline-shift:baseline;color:#000000;fill:#c1a165;fill-opacity:1;stroke:#5c4925;stroke-width:4;stroke-miterlimit:4;stroke-opacity:1;stroke-dasharray:none;marker:none;visibility:visible;display:inline;overflow:visible;enable-background:accumulate;font-family:Sans;-inkscape-font-specification:Sans" />
        <path
           style="font-size:medium;font-style:normal;font-variant:normal;font-weight:normal;font-stretch:normal;text-indent:0;text-align:start;text-decoration:none;line-height:normal;letter-spacing:normal;word-spacing:normal;text-transform:none;direction:ltr;block-progression:tb;writing-mode:lr-tb;text-anchor:start;baseline-shift:baseline;color:#000000;fill:#c1a165;fill-opacity:1;stroke:#5c4925;stroke-width:4;stroke-miterlimit:4;stroke-opacity:1;stroke-dasharray:none;marker:none;visibility:visible;display:inline;overflow:visible;enable-background:accumulate;font-family:Sans;-inkscape-font-specification:Sans"
           d="m 263.61679,181.17367 12.47602,-6.26334 -15.63302,-15.58236 z"
           id="path4087"
           inkscape:connector-curvature="0"
           sodipodi:nodetypes="cccc" />
        <path
           transform="matrix(1.0666672,0,0,1.3333334,-24.973839,-52.500014)"
           d="m 270,157.50002 c 0,4.14213 -3.35786,7.5 -7.5,7.5 -4.14214,0 -7.5,-3.35787 -7.5,-7.5 0,-4.14214 3.35786,-7.5 7.5,-7.5 4.14214,0 7.5,3.35786 7.5,7.5 z"
           sodipodi:ry="7.5"
           sodipodi:rx="7.5"
           sodipodi:cy="157.50002"
           sodipodi:cx="262.5"
           id="path4014"
           style="fill:#c1a165;fill-opacity:1;stroke:#5c4925;stroke-width:3.35410094;stroke-linecap:square;stroke-linejoin:miter;stroke-miterlimit:4;stroke-opacity:1;stroke-dasharray:none;stroke-dashoffset:0"
           sodipodi:type="arc" />
      </g>
      <path
         style="font-size:medium;font-style:normal;font-variant:normal;font-weight:normal;font-stretch:normal;text-indent:0;text-align:start;text-decoration:none;line-height:normal;letter-spacing:normal;word-spacing:normal;text-transform:none;direction:ltr;block-progression:tb;writing-mode:lr-tb;text-anchor:start;baseline-shift:baseline;color:#000000;fill:#5c4925;fill-opacity:1;stroke:none;stroke-width:5;marker:none;visibility:visible;display:inline;overflow:visible;enable-background:accumulate;font-family:Sans;-inkscape-font-specification:Sans"
         d="M 291.125,237.78125 286.21875,238.6875 303,316.01562 z M 223.78125,238.7187 218.875,237.81245 207,316.01557 z M 257.5,240 l -5,0 2.5,81 z"
         id="path4037"
         inkscape:connector-curvature="0"
         sodipodi:nodetypes="cccccccccccc" />
      <g
         id="g4051"
         transform="translate(-0.58491,0)"
         style="fill:#5c4925;fill-opacity:1">
        <path
           style="font-size:medium;font-style:normal;font-variant:normal;font-weight:normal;font-stretch:normal;text-indent:0;text-align:start;text-decoration:none;line-height:normal;letter-spacing:normal;word-spacing:normal;text-transform:none;direction:ltr;block-progression:tb;writing-mode:lr-tb;text-anchor:start;baseline-shift:baseline;color:#000000;fill:#5c4925;fill-opacity:1;stroke:none;stroke-width:5;marker:none;visibility:visible;display:inline;overflow:visible;enable-background:accumulate;font-family:Sans;-inkscape-font-specification:Sans"
           d="m 260.5849,240.00001 -10,0 5,-15 z"
           id="path4041"
           inkscape:connector-curvature="0"
           sodipodi:nodetypes="cccc" />
        <path
           sodipodi:nodetypes="cccc"
           inkscape:connector-curvature="0"
           id="path4043"
           d="m 236.50181,240.00001 -9.97032,-0.76997 6.14011,-14.57049 z"
           style="font-size:medium;font-style:normal;font-variant:normal;font-weight:normal;font-stretch:normal;text-indent:0;text-align:start;text-decoration:none;line-height:normal;letter-spacing:normal;word-spacing:normal;text-transform:none;direction:ltr;block-progression:tb;writing-mode:lr-tb;text-anchor:start;baseline-shift:baseline;color:#000000;fill:#5c4925;fill-opacity:1;stroke:none;stroke-width:5;marker:none;visibility:visible;display:inline;overflow:visible;enable-background:accumulate;font-family:Sans;-inkscape-font-specification:Sans" />
        <path
           style="font-size:medium;font-style:normal;font-variant:normal;font-weight:normal;font-stretch:normal;text-indent:0;text-align:start;text-decoration:none;line-height:normal;letter-spacing:normal;word-spacing:normal;text-transform:none;direction:ltr;block-progression:tb;writing-mode:lr-tb;text-anchor:start;baseline-shift:baseline;color:#000000;fill:#5c4925;fill-opacity:1;stroke:none;stroke-width:5;marker:none;visibility:visible;display:inline;overflow:visible;enable-background:accumulate;font-family:Sans;-inkscape-font-specification:Sans"
           d="m 212.02868,238.32426 -9.4313,-3.32425 9.70201,-12.48483 z"
           id="path4045"
           inkscape:connector-curvature="0"
           sodipodi:nodetypes="cccc" />
        <path
           style="font-size:medium;font-style:normal;font-variant:normal;font-weight:normal;font-stretch:normal;text-indent:0;text-align:start;text-decoration:none;line-height:normal;letter-spacing:normal;word-spacing:normal;text-transform:none;direction:ltr;block-progression:tb;writing-mode:lr-tb;text-anchor:start;baseline-shift:baseline;color:#000000;fill:#5c4925;fill-opacity:1;stroke:none;stroke-width:5;marker:none;visibility:visible;display:inline;overflow:visible;enable-background:accumulate;font-family:Sans;-inkscape-font-specification:Sans"
           d="m 274.66797,240.00001 9.97032,-0.76997 -6.14011,-14.57049 z"
           id="path4047"
           inkscape:connector-curvature="0"
           sodipodi:nodetypes="cccc" />
        <path
           sodipodi:nodetypes="cccc"
           inkscape:connector-curvature="0"
           id="path4049"
           d="m 299.1411,238.32426 9.4313,-3.32425 -9.70201,-12.48483 z"
           style="font-size:medium;font-style:normal;font-variant:normal;font-weight:normal;font-stretch:normal;text-indent:0;text-align:start;text-decoration:none;line-height:normal;letter-spacing:normal;word-spacing:normal;text-transform:none;direction:ltr;block-progression:tb;writing-mode:lr-tb;text-anchor:start;baseline-shift:baseline;color:#000000;fill:#5c4925;fill-opacity:1;stroke:none;stroke-width:5;marker:none;visibility:visible;display:inline;overflow:visible;enable-background:accumulate;font-family:Sans;-inkscape-font-specification:Sans" />
      </g>
    </g>
  </g>
</svg>
