<?xml version="1.0" encoding="UTF-8" standalone="no"?>
<!-- Created with Inkscape (http://www.inkscape.org/) -->

<svg
   xmlns:dc="http://purl.org/dc/elements/1.1/"
   xmlns:cc="http://creativecommons.org/ns#"
   xmlns:rdf="http://www.w3.org/1999/02/22-rdf-syntax-ns#"
   xmlns:svg="http://www.w3.org/2000/svg"
   xmlns="http://www.w3.org/2000/svg"
   xmlns:sodipodi="http://sodipodi.sourceforge.net/DTD/sodipodi-0.dtd"
   xmlns:inkscape="http://www.inkscape.org/namespaces/inkscape"
   width="600"
   height="420.00003"
   id="svg2"
   version="1.1"
   inkscape:version="0.48.5 r10040"
   sodipodi:docname="svg.svg">
  <defs
     id="defs4" />
  <sodipodi:namedview
     id="base"
     pagecolor="#f6f3f1"
     bordercolor="#666666"
     borderopacity="1.0"
     inkscape:pageopacity="0"
     inkscape:pageshadow="2"
     inkscape:zoom="1"
     inkscape:cx="305.12382"
     inkscape:cy="298.41265"
     inkscape:document-units="px"
     inkscape:current-layer="g3922"
     showgrid="false"
     showborder="true"
     inkscape:window-width="1920"
     inkscape:window-height="1017"
     inkscape:window-x="-8"
     inkscape:window-y="-8"
     inkscape:window-maximized="1"
     inkscape:snap-grids="true"
     inkscape:snap-nodes="true"
     showguides="false"
     fit-margin-top="0"
     fit-margin-left="0"
     fit-margin-right="0"
     fit-margin-bottom="0">
    <inkscape:grid
       type="xygrid"
       id="grid2993"
       empspacing="5"
       visible="true"
       enabled="true"
       snapvisiblegridlinesonly="true"
       originx="-666.75003px"
       originy="-492.73274px" />
  </sodipodi:namedview>
  <metadata
     id="metadata7">
    <rdf:RDF>
      <cc:Work
         rdf:about="">
        <dc:format>image/svg+xml</dc:format>
        <dc:type
           rdf:resource="http://purl.org/dc/dcmitype/StillImage" />
        <dc:title />
      </cc:Work>
    </rdf:RDF>
  </metadata>
  <g
     inkscape:label="Layer 1"
     inkscape:groupmode="layer"
     id="layer1"
     transform="translate(-666.75003,-139.62941)">
    <g
       id="layer1-4"
       transform="matrix(0.6666667,0,0,0.6666667,3460.0835,1617.1023)">
      <g
         id="g3637">
        <rect
           style="fill:#ed1c24;fill-opacity:1;stroke:none"
           id="rect2455"
           y="-2216.2092"
           x="-4190"
           height="630"
           width="900" />
        <rect
           style="fill:#ffffff;fill-opacity:1;stroke:none"
           id="rect2459"
           y="-2216.2092"
           x="-3740"
           height="70"
           width="450" />
        <rect
           style="fill:#ffffff;fill-opacity:1;stroke:none"
           id="rect2461"
           y="-2076.2092"
           x="-3740"
           height="70"
           width="450" />
        <rect
           style="fill:#ffffff;fill-opacity:1;stroke:none"
           id="rect2463"
           y="-1936.2092"
           x="-3740"
           height="70"
           width="450" />
        <rect
           style="fill:#ffffff;fill-opacity:1;stroke:none"
           id="rect2465"
           y="-1796.2092"
           x="-3740"
           height="70"
           width="450" />
        <rect
           style="fill:#ffffff;fill-opacity:1;stroke:none"
           id="rect2467"
           y="-1656.2092"
           x="-3740"
           height="70"
           width="450" />
        <g
           id="g3922"
           transform="matrix(1.2801464,0,0,1.2801464,-4359.0188,-2482.3581)"
           style="stroke:#ed1c24;stroke-opacity:1">
          <g
             transform="translate(0.9198966,0)"
             id="g3918"
             style="stroke:#ed1c24;stroke-opacity:1">
            <path
               inkscape:connector-curvature="0"
               style="color:#000000;fill:#ffcb05;fill-opacity:1;stroke:none;stroke-width:2;marker:none;visibility:visible;display:inline;overflow:visible;enable-background:accumulate"
               d="m 263.8125,252.6875 c -8.73206,-0.004 -7.64518,8.18739 -12.0625,10.125 -5.3797,-2.31342 -8.77343,-10.70427 -18.40625,-6.125 -9.50444,4.51825 -5.34383,12.26573 -6.90625,18.21875 -7.0406,0.64755 -11.52463,-9.07565 -22.09375,-0.90625 -10.84021,8.37894 -0.0352,15.20312 0.53125,21.9375 -4.02666,3.8383 -16.24053,1.62894 -17.0625,11.9375 -0.82197,10.30856 7.78125,9.37311 11.40625,16.15625 -3.06109,4.76416 -11.2452,6.63743 -11.3125,14.34375 -0.0673,7.70632 9.09971,13.37968 17.03125,6.875 7.93155,-6.50468 28.4375,-6.625 48.3125,-3.5 19.875,3.125 35.625,17.125 40.375,32.5 4.75,15.375 4.375,47.125 4.375,47.125 0,0 -8.41283,-1.0337 -19.40625,-12.46875 C 267.77204,397.6498 248.375,398.125 248.375,398.125 c 0,0 1.94365,-7.95987 17.5,-8.84375 15.55635,-0.88389 20.84864,-12.20497 11.65625,-22.28125 -9.19239,-10.07627 -15.62455,-1.21557 -21.5625,-0.875 -2.75597,-5.66984 0.82688,-12.52605 -9.90625,-15.21875 -11.63341,-2.91857 -11.28144,5.77564 -16.4375,9.375 -3.91861,-2.58783 -6.94886,-11.4798 -17.5,-8.65625 -10.55115,2.82355 -8.63239,9.22871 -12.53125,13.59375 -4.78275,-1.82215 -10.14953,-10.39686 -16.28125,-7.0625 -8.12219,4.41676 -6.14658,11.54383 -5.46875,16.09375 -3.91836,1.19117 -15.09485,-5.36824 -18.75,3.53125 -3.65516,8.8995 4.44026,11.31098 6.03125,16.4375 -3.71231,3.71231 -20.0316,-1.65653 -20,9.1875 0.0293,10.06451 10.90081,7.51205 15.5625,11.15625 -0.64161,4.17453 -10.08055,12.41699 0.53125,21.375 10.61181,8.95802 44.71326,3.90254 59.5625,-16.25 14.84924,-20.15254 63.485,-4.2429 66.84375,29.875 3.25183,33.03171 -2.56098,104.21144 -2.9375,108.75 -12.02877,5.77824 -34.22659,3.22287 -47.75,-3.40625 -18.03122,-8.83884 -54.25552,-3.01222 -57.4375,19.96875 -3.18198,22.98098 22.26811,40.31403 44.71875,35.1875 0,0 -35.70941,-13.49661 -33.75,-28.28125 1.95942,-14.78463 16.78832,-19.45403 32.875,-10.96875 0,0 -13.34446,6.29099 -10.34375,18.09375 3.00193,11.80753 19.20533,9.1958 23.0625,8.09375 -5.25446,-1.72138 -12.50774,-5.20989 -13,-8.8125 -0.49226,-3.60261 0.36655,-11.10829 11.90625,-12.25 11.5397,-1.14171 14.81469,3.83823 32.21875,0.53125 0,0 2.63661,8.83794 -14.6875,17.5 -17.32412,8.66206 -18.20527,18.23439 -16.4375,27.25 1.76776,9.01561 11.83794,13.94638 20.5,13.0625 0,0 -12.90599,-8.90412 -8.65625,-20.6875 3.88029,-10.75897 32.92585,-13.81554 41.71875,-32.96875 3.36854,5.68668 4.1875,16.375 4.1875,16.375 -12.9047,1.41422 -28.50764,20.89307 -18.9375,34.46875 9.64664,13.6842 27.19651,6.86929 28.65625,3 -25.98618,-1.76776 -19.28521,-22.79657 -9.5625,-25.625 9.72272,-2.82842 31.94177,4.07263 28.65625,24.21875 -3.29193,20.18536 -39.33112,16.10051 -48.8125,10.40625 11.31371,20.50609 57.8217,12.20248 63.125,-9.1875 5.3033,-21.38998 -22.28125,-35.875 -22.28125,-35.875 -2.65165,-16.44023 1.9375,-23.6875 1.9375,-23.6875 4.94975,24.57196 39.43775,27.09163 43.6875,38.875 4.24974,11.78338 -8.6875,20.6875 -8.6875,20.6875 8.66206,0.88388 18.76349,-4.04689 20.53125,-13.0625 1.76777,-9.01561 0.88662,-18.58794 -16.4375,-27.25 -17.32411,-8.66206 -14.6875,-17.5 -14.6875,-17.5 17.40406,3.30698 20.67905,-1.67296 32.21875,-0.53125 11.5397,1.14171 12.39851,8.64739 11.90625,12.25 -0.49226,3.60261 -7.74554,7.09112 -13,8.8125 3.85717,1.10205 20.02932,3.71378 23.03125,-8.09375 3.00071,-11.80276 -10.3125,-18.09375 -10.3125,-18.09375 16.08668,-8.48528 30.91558,-3.81588 32.875,10.96875 1.95941,14.78464 -33.75,28.28125 -33.75,28.28125 22.45064,5.12653 47.90073,-12.20652 44.71875,-35.1875 -3.18198,-22.98097 -39.43753,-28.80759 -57.46875,-19.96875 -18.03122,8.83883 -51.46684,10.43921 -55.6875,-5.3125 -4.22066,-15.75171 1.25,-89.25 1.25,-89.25 17.32411,-0.70711 20.14616,-10.97982 32.34375,-35.375 12.1976,-24.39518 40.49727,-16.7791 56.9375,-9.53125 16.44023,7.24784 19.91617,23.45114 32,21.90625 12.3863,-1.58356 7.96911,-9.56037 9.53125,-13.59375 4.07078,-1.36556 13.59246,1.12958 15.03125,-10.25 1.4388,-11.37957 -6.41066,-9.08254 -13.25,-16.28125 3.94404,-6.31482 13.17851,-6.7407 8.125,-17.3125 -4.96939,-10.39582 -13.36592,-1.31203 -19.25,-2.65625 -0.1875,-3.6875 -3.125,-11.375 -3.125,-11.375 9.2204,0.66908 32.17042,-2.19371 27.21875,-24.1875 C 457.43287,319.8749 444.277,332.34296 436.625,330.25 435.41754,324.97658 442,316.75 430,311 c -12,-5.75 -15.51409,7.57506 -20,8.5 -2.69104,-3.86149 0.25814,-9.24564 -4.875,-11.9375 -5.13315,-2.69185 -9.625,0.9375 -9.625,0.9375 -8.75,-15.25 -16.56594,-8.0422 -21.75,-8 -2.68406,-4.58282 1.25,-11.7973 -6,-16.5 -7.25,-4.7027 -10.92826,3.59137 -18.25,4.625 -4.57174,-3.59137 -1.5,-12.07407 -13,-12.5 -11.5,-0.42593 -7.75,11 -12.625,14.25 -3,-2.75 -5.73821,-6.83578 -11.5,-5.125 -7.08896,2.10484 -2.29788,12.88411 -6.03125,15.46875 C 293.0855,286.39984 317.31891,268.71199 303,258.8125 c -14.31892,-9.8995 -20.34085,4.54836 -27.21875,4.78125 -4.22625,-3.30264 0.68963,-9.54381 -10.09375,-10.78125 -0.67396,-0.0773 -1.29286,-0.12475 -1.875,-0.125 z m -2.28125,45.03125 C 273.39099,297.89178 281.77344,311 282.125,316.625 c 0.375,6 -5.78597,1.61803 -13.5,2.25 -7.71403,0.63197 -10.63982,0.51312 -14.125,-3.46875 -1.16141,2.25284 -0.375,4.71875 -0.375,4.71875 -8.67463,1.57721 -14.35211,-0.49899 -17.0625,-2.75 0,0 8.9375,-17.75 22.0625,-19.5 0.82031,-0.10938 1.6156,-0.16779 2.40625,-0.15625 z m 29.0625,5.34375 c 4.88095,-0.2439 12.04687,2.15625 16.40625,8.0625 7.75,10.5 -2.875,22.625 -9.125,22.625 0,0 -2.125,-8.375 -10.125,-12 0,0 1.125,-7 -2,-13.75 -1.36719,-2.95312 1.04745,-4.7478 4.84375,-4.9375 z m 56.65625,6.59375 c 8.96021,-0.22729 15,6.59375 15,6.59375 -6,1 -11,4.875 -11,4.875 -10.125,-4.375 -19.375,-2.75 -19.375,-2.75 0,0 0.25,-5.25 11.375,-8.125 1.39062,-0.35938 2.71997,-0.56128 4,-0.59375 z m 18.21875,11.15625 c 0.7257,-0.0223 1.50781,0 2.34375,0.0625 -2.4593,5.05907 -2.6875,12.125 -2.6875,12.125 -4.125,-1 -4.50018,-4.95097 -8.875,-7.75 1.64078,-2.17571 4.13883,-4.2813 9.21875,-4.4375 z M 230.5,323.375 c 0,0 16.875,4.5 30.375,2 13.5,-2.5 23.2504,3.37581 27.125,11.125 3.5,7 -0.375,13.375 -0.375,13.375 -23.5,-22.25 -62.75,-15 -62.75,-15 -0.875,-8.625 5.625,-11.5 5.625,-11.5 z m 107.1875,0.90625 c 3.58749,0.0489 6.85884,0.82957 9.3125,1.84375 7.8517,3.24537 11.25,11 13.25,14.625 -23.875,5.75 -44.625,30.875 -44.625,30.875 0,0 -9.625,-15.625 -1.125,-32.5 5.84375,-11.60156 15.29503,-14.95137 23.1875,-14.84375 z m 64.375,16.0625 c 0.35063,-10e-4 0.69922,0.0117 1.0625,0.0312 11.625,0.625 14.875,11.375 15.25,14 L 412,354 c 0,0 -9.72151,-9.57858 -20.6875,-0.84375 0,0 -3.0625,-0.65625 -4.9375,-3.15625 0,0 4.81804,-9.62326 15.6875,-9.65625 z M 373.625,345.75 c 6.25,2.25 8.25,8.625 8.25,8.625 -14.75,6.5 -23.875,-2.75 -23.875,-2.75 0,0 4.875,-4.875 15.625,-5.875 z m -24.84375,14.1875 c 0,0 7.60327,6.89645 19.09375,7.25 -7.02909,3.38438 -6.53029,7.89473 -6.375,11.65625 -4.30806,2.53554 -12.03401,-2.97364 -16.125,5.96875 -3.88103,8.48345 4.65625,12.0625 4.65625,12.0625 0,0 -7.75969,10.28864 -12.21875,23.15625 -4.45906,12.86761 -17.84375,14.3125 -17.84375,14.3125 0,0 2.48467,-32.17312 -0.34375,-47.90625 0,0 15.54444,-22.08059 29.15625,-26.5 z m -111.8125,21.46875 c 9.18357,0.074 15.90625,4.71875 15.90625,4.71875 -8.875,1.5 -15,10 -15,10 -4.625,-7.375 -16.75,-9.75 -16.75,-9.75 5.54297,-3.78125 11.03331,-5.00752 15.84375,-4.96875 z M 399.625,387.5 c 17.375,-0.125 24.5,13.125 24.5,13.125 -12.25,-2.25 -21.75,3.375 -21.75,3.375 -9.875,-4.375 -26.125,-3.75 -26.125,-3.75 0,0 6,-12.625 23.375,-12.75 z m -189.96875,4.59375 C 225.15723,392.26623 229.5,401.5 229.5,401.5 c -8.625,0.75 -17.125,10.375 -17.125,10.375 -12.625,-6.25 -32,-0.375 -32,-0.375 0,0 10.99829,-18.93125 27.75,-19.375 0.52349,-0.0139 1.03122,-0.0368 1.53125,-0.0312 z m 212.3125,14.3125 c 2.86346,-0.0168 5.82813,0.53125 8.40625,2.09375 8.25,5 8.75087,14.47465 3.25,16.125 -5.50087,1.65035 -6.25,-9.75 -23.75,-15.5 0,0 5.79413,-2.68182 12.09375,-2.71875 z m -229.5,10.4375 C 198.66498,416.68497 203.5,419.25 203.5,419.25 c -5.75,13.75 -29.75,11.875 -29.75,11.875 0,0 0,-6.5 9.75,-11.875 3.04688,-1.67969 6.15228,-2.33408 8.96875,-2.40625 z"
               id="path3781" />
            <path
               style="color:#000000;fill:none;stroke:#ed1c24;stroke-width:2;stroke-linecap:butt;stroke-linejoin:miter;stroke-miterlimit:4;stroke-opacity:1;stroke-dasharray:none;stroke-dashoffset:0;marker:none;visibility:visible;display:inline;overflow:visible;enable-background:accumulate"
               d="m 436.77659,367.64884 c 0,0 -3.10403,-7.6334 -9.45555,-8.06064 -6.35152,-0.42724 -7.93884,4.24404 -10.99154,4.60978 -2.48146,-2.98084 -0.59309,-10.34218 -9.46184,-14.67425 m -14.11481,1.22636 c -6.72763,5.46722 -5.04766,13.13763 -8.37785,16.3621 -3.39537,0.54213 -10.4632,-5.19199 -21.39907,1.48232 m 2.70647,-45.15085 c 1.66291,-3.99376 4.99532,-8.83681 12.8801,-9.14397 8.0625,-0.31408 7.33995,3.65401 10.9375,4.4375 2.40431,-2.26591 2.23413,-9.36985 8.11671,-12.71214 m -34.05992,23.87559 c 0,0 4.13954,9.52088 -5.9697,10.38324"
               id="path3788"
               inkscape:connector-curvature="0"
               sodipodi:nodetypes="czccccccscccc" />
          </g>
          <g
             transform="translate(-19.848734,0)"
             id="g3902"
             style="stroke:#ed1c24;stroke-opacity:1">
            <g
               id="g3762"
               transform="translate(23.434818,0)"
               style="stroke:#ed1c24;stroke-opacity:1">
              <path
                 style="fill:#ffcb05;fill-opacity:1;stroke:none"
                 d="m 265,467.36218 0,12.49999 c 0,29.08501 -20,47.50001 -52.5,47.50001 -32.5,0 -52.5,-18.415 -52.5,-47.50001 l 0,-12.49999 15,4 0,11 c 0,0 10,5 37.5,5 27.5,0 37.5,-5 37.5,-5 l 0,-11 z"
                 id="path3766"
                 inkscape:connector-curvature="0"
                 sodipodi:nodetypes="cszsccczccc" />
              <path
                 inkscape:connector-curvature="0"
                 style="fill:none;stroke:#ed1c24;stroke-width:1.5;stroke-miterlimit:4;stroke-opacity:1;stroke-dasharray:none"
                 d="m 213.53125,487.40625 -2.0625,0 c 0.36825,0.002 0.65793,0.0312 1.03125,0.0312 0.37332,0 0.663,-0.0293 1.03125,-0.0312 z"
                 id="path3811" />
              <path
                 style="fill:none;stroke:#ed1c24;stroke-width:1.5;stroke-miterlimit:4;stroke-opacity:1;stroke-dasharray:none"
                 d="m 166.125,490.5 c 6.92924,3.41698 21.26971,8.4375 46.375,8.4375 25.10528,0 39.44576,-5.02052 46.375,-8.4375"
                 id="path3756"
                 inkscape:connector-curvature="0"
                 sodipodi:nodetypes="csc" />
              <path
                 sodipodi:nodetypes="zczcz"
                 inkscape:connector-curvature="0"
                 id="path3802"
                 d="m 212.5,522.58921 c -29.44136,0 -47.55914,-16.95009 -48.09207,-44.26381 0,0 12.43374,9.11593 48.09208,9.11593 35.65833,0 48.09207,-9.11593 48.09207,-9.11593 -0.53294,27.31372 -18.65072,44.26381 -48.09208,44.26381 z"
                 style="fill:none;stroke:#ed1c24;stroke-width:1.5;stroke-miterlimit:4;stroke-opacity:1;stroke-dasharray:none" />
              <path
                 sodipodi:nodetypes="csc"
                 inkscape:connector-curvature="0"
                 id="path3868"
                 d="m 169.98325,501.25628 c 6.35275,2.61826 19.50013,6.46523 42.51674,6.46523 23.01661,0 36.164,-3.84697 42.51675,-6.46523"
                 style="fill:none;stroke:#ed1c24;stroke-width:1.5;stroke-miterlimit:4;stroke-opacity:1;stroke-dasharray:none" />
              <path
                 style="fill:none;stroke:#ed1c24;stroke-width:1.5;stroke-miterlimit:4;stroke-opacity:1;stroke-dasharray:none"
                 d="m 178.38014,511.45283 c 5.0981,2.34189 15.64892,5.78277 34.11984,5.78277 18.47092,0 29.02175,-3.44088 34.11985,-5.78277"
                 id="path3870"
                 inkscape:connector-curvature="0"
                 sodipodi:nodetypes="csc" />
            </g>
            <g
               id="g3872"
               transform="translate(201.26265,0)"
               style="stroke:#ed1c24;stroke-opacity:1">
              <path
                 sodipodi:nodetypes="cszsccczccc"
                 inkscape:connector-curvature="0"
                 id="path3874"
                 d="m 265,467.36218 0,12.49999 c 0,29.08501 -20,47.50001 -52.5,47.50001 -32.5,0 -52.5,-18.415 -52.5,-47.50001 l 0,-12.49999 15,4 0,11 c 0,0 10,5 37.5,5 27.5,0 37.5,-5 37.5,-5 l 0,-11 z"
                 style="fill:#ffcb05;fill-opacity:1;stroke:none" />
              <path
                 id="path3876"
                 d="m 213.53125,487.40625 -2.0625,0 c 0.36825,0.002 0.65793,0.0312 1.03125,0.0312 0.37332,0 0.663,-0.0293 1.03125,-0.0312 z"
                 style="fill:none;stroke:#ed1c24;stroke-width:1.5;stroke-miterlimit:4;stroke-opacity:1;stroke-dasharray:none"
                 inkscape:connector-curvature="0" />
              <path
                 sodipodi:nodetypes="csc"
                 inkscape:connector-curvature="0"
                 id="path3878"
                 d="m 166.125,490.5 c 6.92924,3.41698 21.26971,8.4375 46.375,8.4375 25.10528,0 39.44576,-5.02052 46.375,-8.4375"
                 style="fill:none;stroke:#ed1c24;stroke-width:1.5;stroke-miterlimit:4;stroke-opacity:1;stroke-dasharray:none" />
              <path
                 style="fill:none;stroke:#ed1c24;stroke-width:1.5;stroke-miterlimit:4;stroke-opacity:1;stroke-dasharray:none"
                 d="m 212.5,522.58921 c -29.44136,0 -47.55914,-16.95009 -48.09207,-44.26381 0,0 12.43374,9.11593 48.09208,9.11593 35.65833,0 48.09207,-9.11593 48.09207,-9.11593 -0.53294,27.31372 -18.65072,44.26381 -48.09208,44.26381 z"
                 id="path3880"
                 inkscape:connector-curvature="0"
                 sodipodi:nodetypes="zczcz" />
              <path
                 style="fill:none;stroke:#ed1c24;stroke-width:1.5;stroke-miterlimit:4;stroke-opacity:1;stroke-dasharray:none"
                 d="m 169.98325,501.25628 c 6.35275,2.61826 19.50013,6.46523 42.51674,6.46523 23.01661,0 36.164,-3.84697 42.51675,-6.46523"
                 id="path3882"
                 inkscape:connector-curvature="0"
                 sodipodi:nodetypes="csc" />
              <path
                 sodipodi:nodetypes="csc"
                 inkscape:connector-curvature="0"
                 id="path3884"
                 d="m 178.38014,511.45283 c 5.0981,2.34189 15.64892,5.78277 34.11984,5.78277 18.47092,0 29.02175,-3.44088 34.11985,-5.78277"
                 style="fill:none;stroke:#ed1c24;stroke-width:1.5;stroke-miterlimit:4;stroke-opacity:1;stroke-dasharray:none" />
            </g>
          </g>
        </g>
      </g>
    </g>
  </g>
</svg>
