<?xml version="1.0" standalone="no"?>
<!DOCTYPE svg PUBLIC "-//W3C//DTD SVG 20010904//EN"
 "http://www.w3.org/TR/2001/REC-SVG-20010904/DTD/svg10.dtd">
<svg version="1.0" xmlns="http://www.w3.org/2000/svg"
 width="902.000000pt" height="573.000000pt" viewBox="0 0 902.000000 573.000000"
 preserveAspectRatio="xMidYMid meet">
<metadata>
Created by potrace 1.14, written by Peter Selinger 2001-2017
</metadata>
<g fill="#FFF" stroke="none">
<rect width="902" height="573"  />
</g>
<g transform="translate(0.000000,573.000000) scale(0.100000,-0.100000)"
fill="#127AC3" stroke="none">
<path d="M0 3018 l0 -2703 37 64 c56 94 182 208 285 259 45 22 112 49 148 58
94 25 257 24 393 -4 135 -27 201 -28 271 -1 64 23 149 95 176 149 10 20 35 92
56 161 55 184 100 267 203 369 142 140 285 207 471 217 78 5 120 1 238 -22
219 -42 308 -26 409 75 52 52 66 82 115 244 56 186 93 253 202 361 138 137
279 201 466 212 77 4 123 0 244 -22 103 -19 167 -26 204 -22 101 11 209 83
254 170 11 22 36 94 55 161 76 262 190 409 397 513 155 78 310 92 532 47 194
-40 280 -24 379 67 59 55 76 88 126 252 58 189 95 254 203 362 198 197 408
252 722 189 194 -39 280 -24 378 66 65 60 79 87 126 244 59 199 94 262 204
372 77 78 105 98 186 137 175 85 301 96 549 50 126 -23 152 -25 198 -15 80 17
139 50 194 110 43 47 53 67 84 170 66 216 94 277 167 365 l39 47 -4355 0
-4356 0 0 -2702z m1857 1670 l173 -173 175 175 175 175 0 -353 0 -352 352 0
353 0 -174 -174 -174 -174 172 -179 172 -178 -351 -3 -350 -2 0 -345 c0 -190
-3 -345 -7 -345 -4 0 -84 77 -178 170 l-170 170 -170 -170 c-93 -93 -173 -170
-177 -170 -5 0 -8 155 -8 345 l0 345 -345 0 c-190 0 -345 3 -345 8 0 4 77 84
170 177 l170 170 -177 177 -178 178 353 0 352 0 0 350 c0 193 3 350 7 350 4 0
85 -78 180 -172z"/>
</g>
<g transform="translate(0.000000,573.000000) scale(0.100000,-0.100000)"
fill="#10AE4F" stroke="none">
<path d="M8960 5413 c-17 -26 -44 -93 -61 -148 -17 -55 -37 -120 -46 -145 -91
-257 -316 -440 -590 -480 -84 -12 -134 -8 -345 29 -130 23 -185 19 -265 -20
-54 -26 -123 -93 -145 -140 -10 -19 -33 -89 -53 -155 -56 -188 -103 -273 -204
-374 -70 -70 -103 -94 -181 -133 -159 -79 -299 -102 -450 -73 -271 50 -307 51
-394 5 -107 -56 -146 -112 -197 -286 -61 -205 -108 -292 -216 -394 -107 -103
-233 -168 -370 -195 -105 -20 -162 -18 -320 12 -170 32 -254 29 -328 -9 -107
-55 -147 -113 -198 -287 -57 -193 -104 -278 -206 -381 -74 -74 -101 -93 -191
-137 -178 -87 -298 -100 -522 -56 -157 31 -239 29 -308 -6 -116 -59 -148 -105
-207 -299 -56 -182 -97 -262 -185 -356 -108 -115 -245 -192 -395 -221 -106
-20 -190 -17 -333 11 -194 39 -260 33 -359 -33 -74 -49 -107 -99 -142 -216
-54 -182 -81 -248 -131 -322 -127 -190 -337 -311 -558 -322 -75 -3 -125 1
-240 23 -162 30 -230 29 -303 -3 -100 -44 -152 -105 -192 -222 -14 -40 -25
-75 -25 -77 0 -2 1960 -3 4355 -3 l4355 0 0 2730 c0 1624 -4 2730 -9 2730 -5
0 -23 -21 -41 -47z m-1929 -2845 l49 -43 0 -160 0 -160 78 78 78 78 65 -3 64
-3 6 -65 6 -65 -149 -150 -148 -150 0 -235 0 -235 150 150 150 150 0 211 0
211 50 42 c54 46 55 46 114 -6 l36 -32 0 -113 0 -113 113 113 c110 109 113
112 157 112 82 0 87 -5 95 -72 l7 -60 -113 -114 -114 -114 106 0 105 0 35 -37
c65 -70 64 -65 13 -122 l-46 -51 -212 0 -211 0 -217 -217 -218 -218 -2 -160
-3 -160 -97 -3 -98 -3 0 158 0 158 -223 223 -222 222 -211 0 -211 0 -41 49
c-23 27 -42 52 -42 56 0 4 19 29 42 56 l41 49 106 0 106 0 -108 108 -107 107
0 66 c0 66 0 67 31 73 89 17 95 14 216 -106 l113 -113 0 111 0 111 50 42 c54
46 55 46 114 -6 l36 -32 0 -213 0 -213 155 -155 155 -155 0 240 0 240 -152
152 -151 151 9 64 9 63 64 3 65 3 78 -78 78 -78 0 162 0 161 48 41 c26 23 48
41 50 41 2 0 25 -19 53 -42z"/>
</g>
</svg>
