<?xml version="1.0" encoding="UTF-8" standalone="no"?>
<!-- Created with Inkscape (http://www.inkscape.org/) -->
<svg xmlns="http://www.w3.org/2000/svg" height="500" width="500" version="1.1">
<rect height="500" width="500" y="0" x="0" fill="#FFF"/>
<path d="M368.2,500c-8.3-10.5-18.9-18.2-18.9-34.3,0-26.4,28.6-28.8,28.6-61.4,0-32.7-28.6-35.1-28.6-61.5,0-26.3,28.6-28.8,28.6-61.4s-28.6-35-28.6-61.4,28.6-28.8,28.6-61.4c0-32.7-28.6-35.1-28.6-61.45,0-26.38,28.6-28.79,28.6-61.43,0-19.05-9.1-26.48-17.2-35.72h-221.4c-8.1,9.239-17.2,16.68-17.2,35.72,0,32.64,28.6,35.05,28.6,61.43,0,26.35-28.6,28.75-28.6,61.45,0,32.6,28.6,35,28.6,61.4s-28.6,28.8-28.6,61.4,28.6,35.1,28.6,61.4c0,26.4-28.6,28.8-28.6,61.5,0,32.6,28.6,35,28.6,61.4,0,16.1-10.6,23.8-18.9,34.3z" fill="#00b0f0"/>
<rect transform="matrix(0.707107,0.707107,-0.707107,0.707107,0,0)" height="58.57" width="58.57" y="-30" x="324.3" fill="#ed262b"/>
<path fill="#FFF" d="M215.7,242.9,215.7,257.1,229.3,257.1,229.3,270.7,242.9,270.7,242.9,284.3,257.1,284.3,257.1,270.7,270.7,270.7,270.7,257.1,284.3,257.1,284.3,242.9,270.7,242.9,270.7,229.3,257.1,229.3,257.1,215.7,242.9,215.7,242.9,229.3,229.3,229.3,229.3,242.9,215.7,242.9zm25.7-1.5,1.5,0,7.1,0,7.1,0,1.5,0,0,1.5,0,7.1,0,7.1,0,1.5-1.5,0-7.1,0-7.1,0-1.5,0,0-1.5,0-7.1,0-7.1,0-1.5zm0,8.6,8.6,8.6,8.6-8.6-8.6-8.6-8.6,8.6z"/>
<path fill="#FFF" d="M250,208.6,291.4,250,332.8,208.6,285.9,214.1,291.4,167.2z"/>
<path fill="#FFF" d="M167.2,208.6,208.6,250,250,208.6,208.6,167.2,215.1,215.1z"/>
<path fill="#FFF" d="M167.2,291.4,215.1,284.8,208.6,332.8,250,291.4,208.6,250z"/>
<path fill="#FFF" d="M250,291.4,291.4,332.8,284.8,284.8,332.8,291.4,291.4,250z"/>
</svg>
