<?xml version="1.0" encoding="UTF-8" standalone="no"?>
<!-- Created with Inkscape (http://www.inkscape.org/) -->

<svg
   xmlns:dc="http://purl.org/dc/elements/1.1/"
   xmlns:cc="http://creativecommons.org/ns#"
   xmlns:rdf="http://www.w3.org/1999/02/22-rdf-syntax-ns#"
   xmlns:svg="http://www.w3.org/2000/svg"
   xmlns="http://www.w3.org/2000/svg"
   xmlns:sodipodi="http://sodipodi.sourceforge.net/DTD/sodipodi-0.dtd"
   xmlns:inkscape="http://www.inkscape.org/namespaces/inkscape"
   id="svg2010"
   sodipodi:version="0.32"
   inkscape:version="0.92.4 (5da689c313, 2019-01-14)"
   width="471.42999"
   height="300"
   version="1.0"
   sodipodi:docname="Läänemaa_lipp.svg">
  <metadata
     id="metadata2015">
    <rdf:RDF>
      <cc:Work
         rdf:about="">
        <dc:format>image/svg+xml</dc:format>
        <dc:type
           rdf:resource="http://purl.org/dc/dcmitype/StillImage" />
      </cc:Work>
    </rdf:RDF>
  </metadata>
  <defs
     id="defs2013" />
  <sodipodi:namedview
     inkscape:window-height="1017"
     inkscape:window-width="1920"
     inkscape:pageshadow="2"
     inkscape:pageopacity="0.0"
     guidetolerance="10.0"
     gridtolerance="10.0"
     objecttolerance="10.0"
     borderopacity="1.0"
     bordercolor="#666666"
     pagecolor="#ffffff"
     id="base"
     width="471.43px"
     height="300px"
     inkscape:zoom="0.85333345"
     inkscape:cx="142.03176"
     inkscape:cy="250.57524"
     inkscape:window-x="-8"
     inkscape:window-y="-8"
     inkscape:current-layer="svg2010"
     showgrid="false"
     inkscape:window-maximized="1" />
  <g
     id="g2313"
     transform="matrix(1.714291,0,0,1.714292,-1.386987e-6,-1.086921e-3)">
    <rect
       id="green Stripe"
       style="fill:#009739;fill-opacity:1"
       y="87.500328"
       x="1.9417648e-006"
       height="87.499664"
       width="275" />
    <rect
       id="white Stripe"
       style="fill:white"
       y="0.00066018361"
       x="1.9417648e-006"
       height="87.499664"
       width="275" />
  </g>
  <g
     id="g4323"
     transform="matrix(0.425532,0,0,0.425532,188.9055,14.99998)">
    <path
       sodipodi:nodetypes="cccccc"
       id="path31674"
       d="M 0.49997382,0.49966223 L 0.49997382,195.05746 C 3.5709228,249.27721 65.218245,258.92807 110.00006,281.49985 C 154.78187,258.92807 216.42919,249.27721 219.50016,195.05746 L 219.50016,0.49966223 L 0.49997382,0.49966223 z "
       style="fill:#ef3340;fill-opacity:1;stroke:none;stroke-width:0.99596989;stroke-opacity:1" />
    <path
       sodipodi:nodetypes="cccccc"
       id="path14126"
       d="M 0.4999915,0.49999708 L 0.4999915,195.05763 C 3.5709442,249.27736 65.21821,258.92819 110,281.5 C 154.78178,258.92819 216.42905,249.27736 219.50001,195.05763 L 219.50001,0.49999708 L 0.4999915,0.49999708 z "
       style="fill:none;fill-opacity:1;stroke:black;stroke-width:0.99998498;stroke-miterlimit:4;stroke-dasharray:none;stroke-opacity:1" />
    <g
       transform="matrix(0.765532,0,0,0.765532,-0.558764,8.98656e-2)"
       id="g7198">
      <path
         style="fill:#fedd00;fill-opacity:1;fill-rule:nonzero;stroke:black;stroke-width:1.37345946;stroke-miterlimit:4;stroke-opacity:1"
         d="M 136.71972,57.75028 C 115.92707,57.75028 99.055155,74.46137 99.055155,95.067679 C 99.055155,115.67398 115.92707,132.38509 136.71972,132.38508 C 157.51237,132.38508 174.38429,115.67398 174.38429,95.067679 C 174.38429,74.461372 157.51237,57.750277 136.71972,57.75028 z M 136.7898,65.565811 C 153.07434,65.565814 166.29079,78.904408 166.29079,95.314118 C 166.29079,111.7238 153.07433,125.0272 136.7898,125.0272 C 120.50526,125.0272 107.2888,111.7238 107.2888,95.314118 C 107.2888,78.904405 120.50526,65.565811 136.7898,65.565811 z "
         id="path13518" />
      <path
         style="fill:black;stroke:none"
         d="M 269.3435,10.750721 C 261.01269,18.994724 251.6806,25.133012 221.78297,43.945619 C 194.54065,61.326092 186.57467,68.847872 181.69376,84.410781 C 176.81285,100.08728 178.73451,104.49727 183.73693,112.01505 C 186.34765,114.855 187.25173,116.05594 186.11664,120.14546 C 184.30048,126.27975 179.65059,130.9859 173.9751,135.30261 C 168.86718,139.16495 161.14851,142.06984 160.35395,139.91148 C 159.33636,139.07167 158.58241,137.04723 156.76626,134.77526 L 153.31635,129.62273 L 150.68903,123.5774 C 150.01937,120.22242 148.04449,110.91571 148.79045,107.96279 C 151.27566,102.45743 155.53869,98.269287 155.97325,95.087071 C 155.06386,94.51574 152.88445,94.458079 151.20384,95.405077 C 146.13399,97.10492 141.77715,102.27353 141.55766,101.31003 C 141.4963,100.03005 145.4932,93.40915 148.03937,91.705099 C 149.65318,90.591423 153.6858,88.416162 156.14649,88.281554 C 160.13901,89.721066 162.46018,88.91988 162.26362,88.049578 C 162.30423,86.941925 159.6701,80.531801 155.93043,78.39561 C 151.84684,75.29984 144.84615,75.605549 140.43158,79.588874 C 133.91877,79.687704 128.17194,81.056127 124.94047,83.538663 C 119.02721,87.640198 118.82017,99.779457 118.27049,107.904 L 117.9358,126.66702 L 115.85818,132.68987 C 114.72307,135.07542 113.24746,138.48335 112.5664,140.41452 C 111.31779,143.82246 111.20428,143.93606 105.98284,143.14087 C 99.058753,142.23209 93.610291,137.91536 90.205001,130.6451 C 86.686203,123.14764 86.799712,119.62611 90.432021,116.21817 C 94.972405,112.01505 96.561542,107.92554 96.561542,100.76887 C 96.561542,92.817021 92.702214,81.23004 87.480771,73.846178 C 80.670193,63.849566 62.96269,46.696289 50.59014,37.949253 C 31.520522,24.544705 19.261482,15.22968 15.175135,11.140156 C 13.018452,8.9817961 10.861769,7.2778282 10.294221,7.2778282 C 8.5915765,7.2778282 9.9536921,20.341584 12.110376,24.431107 C 16.991289,34.200524 34.358263,51.694594 46.163264,59.192053 C 52.179275,62.940783 67.592282,76.682122 66.457187,77.136513 C 65.776128,77.363709 61.146536,73.505385 56.606151,69.643057 C 52.065765,65.894327 47.071341,61.804805 45.482207,60.896021 C 35.947397,54.648139 18.126385,41.470787 14.040039,37.608459 C 11.315808,34.995709 8.9321054,33.29174 8.4780669,33.632534 C 8.137538,34.086925 7.7970091,37.267666 7.9105187,40.7892 C 8.0240284,53.171367 18.033178,64.94491 36.875777,77.895067 C 43.544545,82.909688 63.558842,95.377132 63.084502,97.823631 C 63.084502,98.95961 60.554685,96.744303 52.041463,91.405205 C 48.976703,89.360444 41.98371,85.384519 36.308229,82.317377 C 23.70866,75.615102 14.721096,69.643057 12.677923,67.143904 C 11.883356,66.007926 10.407731,65.212741 9.4996535,65.212741 C 6.888932,65.212741 8.137538,75.89094 11.429317,82.479616 C 15.061626,89.863477 24.142396,98.72411 33.563695,103.94961 C 37.990571,106.44876 42.303937,108.94791 43.212014,109.5159 C 44.120091,110.19749 57.462229,117.05429 60.299969,118.30387 C 63.356428,120.91661 52.495501,115.98697 43.779562,113.03344 C 30.122105,108.46118 21.645184,103.83601 12.791433,97.474533 C 10.294221,95.656968 10.294221,95.656968 10.294221,100.88247 C 10.294221,112.46944 19.374992,123.82923 34.358263,130.8723 C 39.466195,133.37145 46.617303,135.98421 50.022592,136.77939 C 53.42788,137.57458 60.992724,139.2299 62.581859,139.79789 C 65.079071,140.47947 61.531668,140.70666 57.627737,140.07372 C 55.244035,140.18732 42.076918,137.68817 33.223166,137.23378 C 17.558837,136.43859 17.104798,136.5522 17.104798,138.71054 C 17.104798,141.77769 26.866626,151.54711 33.109656,154.61425 C 41.168841,158.59018 52.292784,160.06696 61.600575,158.36299 C 65.91394,157.6814 72.769478,157.06877 72.996497,157.40956 C 73.677555,158.09114 67.503075,158.93097 56.492641,160.63494 C 44.34711,162.5661 29.590858,168.246 29.590858,171.08594 C 29.590858,174.26668 42.984995,181.08255 49.341534,181.08255 L 57.528681,180.68697 L 47.752399,187.44403 C 41.168841,194.8279 40.714802,198.00864 46.049754,199.48541 C 47.979419,200.0534 52.179275,200.16699 55.584564,199.82621 C 61.033026,199.25822 67.767,194.07089 64.521674,197.3917 C 60.285214,203.21967 57.173699,211.18599 57.627737,212.43557 C 58.195286,214.13954 63.870767,213.57154 71.475913,211.07239 C 74.313654,210.16361 78.27849,206.95024 79.612304,205.68435 C 82.413744,202.28228 76.924375,213.34435 76.470336,218.00186 C 75.902788,225.04493 76.129807,226.5217 77.491923,226.5217 C 80.556683,226.5217 90.88606,220.61461 93.723801,217.20668 L 98.775127,209.00702 L 98.250031,216.61837 C 98.44445,219.25514 101.44246,226.5217 102.46403,226.5217 C 104.28019,226.5217 113.7015,215.8435 114.38255,212.88995 C 115.45217,205.62387 115.52447,206.99995 118.35539,211.41319 C 119.7175,213.11716 122.21472,216.1843 124.03087,218.11546 L 127.20914,221.5234 L 121.87418,224.02255 C 118.80942,225.38573 111.54481,228.33927 105.64231,230.61122 C 99.73981,232.88318 93.383271,235.38233 91.453607,236.17751 C 89.637453,236.9727 86.686203,238.10869 84.983558,238.79028 C 80.556683,240.60784 81.010721,243.22059 86.118655,245.49254 C 88.54696,247.41971 93.075347,247.17619 93.302367,247.28979 C 94.478066,246.77044 90.65904,248.78689 89.977982,249.58208 C 89.183414,250.49085 88.956396,251.51324 89.410434,251.85402 C 90.88606,253.4444 86.232164,256.85233 82.713366,256.73874 C 78.399999,256.62514 74.540673,252.08122 74.881201,247.31011 C 75.448749,237.19991 75.221729,235.38233 73.519086,233.67837 C 71.81644,231.9744 66.594999,230.83843 60.465478,230.83843 C 57.173699,230.83843 53.42788,234.13276 53.42788,236.9727 C 53.42788,238.90387 53.6549,238.90387 56.152112,237.3135 C 59.330381,235.15514 60.919517,236.63192 60.351969,241.06223 C 60.238458,242.6526 61.373556,245.15176 63.530238,247.6509 C 65.459901,249.80927 67.049036,252.19482 67.049036,252.87641 C 67.049036,253.558 67.843604,255.14837 68.9787,256.28435 C 70.000287,257.42032 70.567836,258.6699 70.227306,259.01069 C 68.86519,260.26027 61.827594,256.17075 57.400718,251.62683 C 52.973842,246.96932 49.682062,245.94694 45.709225,247.99171 C 44.687639,248.55969 42.417446,249.58208 40.601293,250.49085 C 38.671629,251.39964 37.082493,253.2172 36.514945,255.37556 C 35.26634,260.14667 36.174416,261.16905 39.125668,258.4427 C 42.076918,255.60275 43.893071,255.37556 44.801149,257.76112 C 46.860625,260.71066 48.858891,262.39831 55.248035,262.08183 C 56.83717,262.08183 61.025026,264.30115 62.926388,265.05171 C 64.515523,266.98287 61.260045,266.62175 52.179275,266.28096 C 48.092928,266.16736 46.503793,266.62175 45.368698,268.32572 C 44.46062,269.4617 42.303937,271.16566 40.374273,272.07444 C 36.628455,273.89202 35.606869,277.52714 37.423023,282.52546 C 38.898648,286.50138 40.714802,286.50138 41.168841,282.41186 C 41.39586,280.0263 42.190428,279.23112 44.801149,279.00392 C 47.071341,278.66312 48.887496,280.70788 49.341534,281.61667 C 50.363121,284.45661 55.698073,283.66143 58.989853,280.0263 C 62.84918,275.93677 78.399999,270.25688 80.216154,272.30165 C 81.805288,274.11921 84.870048,283.88863 85.664616,289.90931 L 86.345674,294.79402 L 82.259327,293.99884 C 78.28649,293.31725 78.172981,293.31725 79.535096,295.70281 C 82.372837,301.2691 89.069905,301.04191 95.199425,295.36201 C 99.853319,290.9317 100.19385,285.7062 95.993992,282.41186 C 90.466151,279.7991 89.097209,274.69915 90.438847,270.0331 C 91.109665,266.5167 91.678921,265.71809 94.291348,264.57699 C 100.59128,260.5198 99.512792,262.98662 100.53438,267.30333 C 101.66947,272.64244 104.05317,273.89202 106.89092,270.71128 C 108.9341,268.32572 115.24849,261.99625 110.97541,267.25039 C 108.04231,271.87343 106.6639,279.57191 108.13951,283.20704 C 109.61515,286.84216 109.61515,286.84216 111.99885,284.79741 C 114.04202,282.97984 123.12279,271.27926 127.20914,265.14498 C 128.11722,263.66821 130.04688,261.16905 131.29549,259.57868 C 132.6576,257.98831 136.1764,252.87641 139.12765,248.3325 C 142.07891,243.78858 144.80313,240.26705 145.14366,240.72143 C 145.5977,241.17583 146.16525,249.01408 146.50578,258.10192 C 146.95982,272.75603 147.30035,274.8008 149.00299,275.14158 C 150.13808,275.36879 152.40828,274.11921 154.11091,272.30165 C 157.3501,270.59768 154.71878,251.1509 158.58639,269.4617 C 160.19583,270.32183 161.94991,268.11219 163.31203,267.20341 C 164.89775,265.73346 166.37339,264.49071 166.82742,264.49071 C 167.16795,264.49071 168.64015,269.91609 169.66174,274.3464 C 171.36438,280.82149 171.36438,282.63905 170.22929,284.11583 C 168.29962,286.38778 160.24044,285.3654 158.19727,282.52546 C 154.22443,277.18636 153.20284,276.39117 149.57054,276.73195 C 142.07891,277.41355 136.40342,292.29487 142.87347,294.45322 C 143.66804,294.68042 144.23559,293.77164 144.23559,292.52207 C 144.23559,289.90931 146.05174,289.22772 146.73279,291.49968 C 147.07333,292.40847 150.13808,292.97645 155.92707,293.09005 C 160.80799,293.09005 166.27275,293.70269 166.61328,294.04348 C 166.55237,296.03959 160.9338,303.97112 155.58655,304.33624 C 151.38669,305.24503 149.45703,307.63058 150.13808,311.15211 C 150.47861,312.74248 150.25159,314.33285 149.79755,314.67365 C 149.23,315.01445 148.77596,316.71841 148.77596,318.42238 C 148.77596,322.62549 153.08934,326.48783 157.62972,326.48783 C 160.60145,326.37593 159.71043,325.35867 156.30515,322.74593 C 153.01336,320.01957 156.72164,317.4 161.03502,317.4 C 165.12135,317.4 167.39154,314.90084 169.32121,308.53936 C 170.11578,305.92661 172.38597,301.8371 174.42914,299.45154 L 178.06145,295.24841 L 180.33165,300.36032 C 181.58025,303.20026 182.94236,307.17618 183.28289,309.10735 C 184.19097,313.08328 187.82328,317.4 190.20699,317.4 C 191.34208,317.4 191.90963,318.53598 191.90963,320.80793 C 191.90963,322.62549 191.4556,324.21586 190.77453,324.21586 C 190.20699,324.21586 189.63944,324.67026 189.63944,325.35185 C 189.63944,327.3966 193.72579,326.48783 196.223,323.87507 C 197.58511,322.3983 198.7202,320.12635 198.7202,318.76317 C 198.7202,317.51359 199.28775,316.03682 199.8553,315.69602 C 203.03357,313.76487 199.96882,307.17618 194.06631,303.54106 C 192.47718,302.51867 190.434,299.67873 189.41242,297.06598 L 187.59627,292.40847 L 193.04473,292.40847 C 196.10948,292.40847 198.94722,292.86285 199.28775,293.54445 C 200.42286,295.36201 204.6227,294.90762 207.00642,292.74926 C 209.04959,290.81809 209.16309,290.81809 210.75223,292.86285 C 211.5468,293.99884 212.00083,295.47561 211.6603,295.93 C 211.31978,296.49799 211.77382,296.95238 212.68189,296.95238 C 214.49804,296.95238 215.74665,294.56682 215.74665,291.04529 C 215.74665,288.09175 205.98482,278.77673 202.80655,278.77673 C 201.55795,278.77673 198.94722,280.0263 197.13107,281.61667 C 190.66102,287.18297 183.16939,283.88863 180.55867,274.3464 C 179.87761,271.73365 178.96953,268.7801 178.62901,267.87133 C 178.17497,266.73535 178.85602,266.28096 181.12621,266.28096 C 184.07747,266.28096 183.29655,266.05377 182.6155,261.50985 L 179.36296,251.03064 L 184.5315,260.37386 C 186.57467,264.80418 192.36367,268.55291 197.01756,268.55291 C 201.75425,269.11235 204.24464,270.36535 208.24308,276.49964 C 214.37259,283.20192 214.95208,283.77503 218.58438,283.77503 C 221.53564,283.77503 223.46531,282.86624 226.07603,280.25349 L 229.59483,276.84556 L 225.50849,272.52884 C 223.23829,270.25688 214.95208,262.24844 214.39306,260.56667 C 210.32512,256.59663 226.67529,271.61776 228.57324,272.52884 C 229.14079,273.66481 230.84344,274.23281 234.47575,274.23281 C 241.1728,274.23281 244.12406,272.64244 244.12406,269.12091 C 244.12406,266.73535 240.10631,262.1668 247.30233,266.28096 C 251.38868,266.28096 255.47503,262.07784 255.47503,257.98831 C 255.47503,255.37556 248.33961,251.43996 258.76681,254.92117 C 262.85315,254.92117 266.82598,250.37726 266.82598,245.83334 C 266.82598,242.7662 266.25844,242.4254 255.24801,238.67668 C 205.6443,221.75059 197.74323,218.02619 196.79454,214.05026 C 194.89718,204.66166 198.26616,211.27262 200.76338,214.72119 C 202.57953,216.31156 205.87131,218.91065 208.14151,219.36504 L 212.34137,220.04662 L 212.34137,213.00356 C 212.34137,209.25483 210.16223,202.98847 210.38924,202.98847 C 210.50276,202.98847 215.63314,207.09646 219.03842,208.45964 C 226.18954,211.07239 228.23272,210.73161 228.23272,206.64207 C 228.23272,202.55255 226.08618,193.43024 222.47602,188.96729 C 221.45444,187.60412 225.08091,189.94319 226.89706,190.62477 C 228.14566,191.07918 230.84344,191.76075 234.70276,192.10155 C 240.49175,192.66955 241.96739,192.44234 242.53492,190.96557 C 243.443,188.58001 239.19639,178.27278 234.1106,174.68229 C 228.22411,171.00252 235.82771,174.5142 243.55652,172.10832 C 246.73478,171.42674 250.02656,169.94996 250.93464,169.15477 C 252.29675,167.678 252.06974,166.99643 248.66444,163.36129 C 246.50775,161.08933 241.62684,157.79499 237.99454,156.09103 L 229.71634,153.02388 L 236.17839,152.3423 C 243.21598,151.43351 250.82113,146.20801 255.70204,139.05135 C 260.92348,131.32669 261.37752,128.37314 256.95065,129.16833 C 252.63728,129.96351 240.37425,134.11799 236.74593,134.50743 C 233.32034,135.01046 213.78838,135.75702 213.10733,134.62103 C 210.86943,132.2678 229.31489,132.99833 235.38382,130.7587 C 245.48618,129.39553 256.04257,122.46606 262.62613,112.69664 C 266.71248,106.56236 268.86916,100.42808 266.9395,100.42808 C 266.37194,100.42808 262.51261,101.90485 258.53978,103.7224 C 254.45343,105.53998 247.86987,107.92554 243.89704,108.94791 C 239.9242,109.97029 233.11363,112.26258 228.57324,113.51215 C 224.14637,114.64813 214.84227,116.46168 214.38824,116.46168 C 211.5991,115.51227 221.30862,112.99278 225.96252,111.74322 C 231.75151,110.03924 232.88661,109.7431 242.30791,105.65357 C 257.17766,99.064904 266.9395,88.386705 269.20969,75.89094 C 269.89074,72.369406 270.11777,69.302264 269.77724,68.961471 C 269.43671,68.620677 266.71248,69.870252 263.76122,71.801416 C 260.80998,73.732581 255.01699,77.456989 250.02256,79.728946 C 245.02814,82.000904 217.27888,95.369122 215.85185,94.034267 C 217.70062,89.692929 223.23829,88.841097 230.27588,85.319562 C 259.22084,70.779036 269.89074,60.441629 275.33921,41.925178 C 278.06344,32.382957 276.58781,31.246979 269.77724,37.381265 C 264.44229,42.152375 250.09147,53.053765 241.35122,57.824876 C 237.94594,59.756039 231.27317,63.460131 226.84629,66.300078 C 219.8087,70.957591 214.98439,74.536074 214.82627,71.975968 C 214.98439,69.939213 225.96252,63.963164 243.55652,52.376182 C 249.79954,48.400257 257.29118,42.833961 260.24243,40.334808 C 267.73406,33.746132 275.45272,20.909573 277.04185,12.276135 C 277.6174,4.1946742 277.52419,2.3404753 269.3435,10.750721 z "
         id="path4"
         sodipodi:nodetypes="cccccccccccccccccccccccccccccccccccccccccccccccccccccccccccccccccccccccccccccccccccccccccccccccccccccccccccccccccccccccccccccccccccccccccccccccccccccccccccccccccccccccccccccccccccccccccccccccccccccccccccccccccccccccccccccccccccccccccccccccccccccccccc" />
      <path
         style="fill:white;fill-opacity:1;stroke:none"
         d="M 274.90947,14.532081 C 267.19852,35.398061 259.44786,40.675602 235.04328,55.670519 C 229.14079,59.192053 222.67074,63.395174 220.74108,64.871947 C 217.78982,67.143904 216.45202,67.890448 212.70619,66.868067 C 206.00913,65.683446 200.8972,66.527274 195.2014,70.779036 C 192.81771,73.164591 190.77453,75.777342 190.77453,76.572526 C 190.77453,77.48131 192.36367,76.686125 194.52035,74.641364 C 199.62828,69.756656 202.35251,68.620677 208.36853,68.620677 C 212.79541,68.620677 213.90619,69.594415 213.45215,71.184785 C 213.58598,75.64373 209.61713,79.63967 207.23343,81.116442 C 205.07674,82.479616 203.26059,83.729192 203.26059,83.956389 C 203.26059,84.183584 206.55238,83.278804 210.63872,83.051609 C 214.72506,82.824413 218.01685,83.729192 218.01685,83.956389 C 218.01685,84.297182 217.89933,86.840974 216.87775,89.453724 C 214.83458,94.452035 210.63872,98.042523 208.02799,98.156121 C 204.84973,98.156121 208.14151,100.42808 211.5468,100.42808 C 213.58997,100.54168 216.65473,101.22326 218.58438,101.90485 L 221.87617,103.38162 L 218.41828,108.56248 C 216.02658,113.03743 211.31978,114.05981 208.25502,114.05981 C 206.09834,114.05981 204.39569,114.51421 204.39569,115.19579 C 204.39569,115.76378 209.93366,117.12296 210.95526,117.12296 C 213.11193,117.12296 219.62629,122.64461 219.62629,123.78058 C 219.62629,126.27975 213.9305,128.25955 208.82257,128.37314 C 205.7578,128.48674 202.92007,128.60034 202.46603,128.71394 C 201.89847,128.82754 204.27819,129.80528 206.66188,131.28205 C 211.88333,134.46279 215.06559,140.41452 213.13593,142.34569 C 211.43329,144.04965 206.21184,143.93606 201.44443,141.89128 L 197.4716,140.30091 L 202.57953,146.32161 C 205.53078,149.61594 208.95237,153.27109 207.57395,157.227 C 202.95266,159.78711 198.83372,158.24938 194.86088,156.20462 C 192.36367,154.84144 190.20699,154.04626 189.97996,154.27346 C 189.75295,154.50066 190.54752,156.54541 191.79612,158.81737 C 193.15823,161.08933 195.1528,165.06526 195.49333,167.678 L 195.65544,172.33551 C 195.65544,172.33551 187.72207,174.08443 182.60184,166.08763 L 178.40198,161.31652 L 178.96953,166.42843 C 179.31006,169.15477 179.65059,172.56272 179.87761,173.92589 C 180.44515,177.90182 178.85602,180.12594 176.14544,172.66949 C 175.35087,170.39753 172.5029,162.67628 169.21112,155.86041 C 165.91935,149.04454 163.19851,146.27378 162.6412,143.02727 C 164.65707,142.46611 166.48346,141.89128 169.43472,140.75532 C 176.58583,138.14257 184.5315,129.96351 187.36924,122.23886 C 189.86645,115.53659 190.09348,116.10458 184.07747,108.37992 C 182.82886,106.78955 181.58025,103.94961 181.23972,101.90485 C 179.56537,96.480473 184.30448,82.593214 187.48275,76.231733 C 192.70419,66.121523 204.57809,56.035634 233.86358,38.087172 C 252.36565,26.840983 263.89904,18.90945 270.4826,12.093577 C 272.86629,9.5944236 275.33921,7.2778282 275.45272,7.2778282 C 275.56624,7.2778282 275.13649,12.260123 274.90947,14.532081 z "
         id="path1717"
         sodipodi:nodetypes="cccccccccccccccccccccccccccccccccccccccccccccccccccc" />
      <path
         style="fill:white;fill-opacity:1;stroke:none"
         d="M 30.90437,26.431229 C 33.288072,28.0216 40.167556,33.336379 46.410586,37.880295 C 77.966263,61.622247 90.091492,77.026918 93.156253,96.224957 C 94.404857,104.404 93.83731,106.56236 88.275337,114.51421 C 83.621443,121.10289 84.529521,128.48674 90.88606,136.5522 C 95.426444,142.23209 97.810146,143.59526 106.43688,145.86722 L 111.20428,147.1168 L 108.82058,152.45589 C 106.6639,157.11341 106.32336,159.95335 106.32336,174.49387 C 106.20986,187.10324 107.60858,188.29987 106.27077,190.04047 C 105.63431,191.93931 103.34782,193.16057 102.89378,193.27416 C 102.55324,193.50135 100.77505,190.50776 100.54804,188.69019 C 100.32101,186.75903 100.65131,185.48896 100.31078,184.12578 L 99.743215,181.96061 L 95.653464,183.11366 C 93.383271,184.24962 89.53077,185.6094 87.601106,185.83659 C 83.855289,186.17738 83.51476,183.81232 85.103895,174.6109 L 85.784953,170.73832 L 80.102645,171.07912 C 75.221729,171.4199 73.18709,170.63155 72.619541,169.26838 C 71.597954,166.54203 73.519086,162.33891 76.810865,158.47659 L 79.762116,154.95504 L 75.10822,154.95504 C 72.497499,154.95504 68.638171,154.15986 66.481488,153.36467 L 62.508651,151.6607 L 64.892354,147.57119 C 66.254469,145.29923 68.638171,142.57288 70.227306,141.5505 L 72.951538,139.73294 L 68.86519,138.36976 C 64.551825,136.77939 56.833169,131.2131 56.833169,129.50913 C 56.833169,128.14595 60.124949,125.6468 64.778845,123.48844 L 68.751681,121.78447 L 64.214709,118.7122 C 60.468891,115.75866 56.49776,109.74652 56.49776,107.58815 C 56.49776,106.45218 62.62216,104.97199 67.162547,104.74479 L 71.475913,104.63119 L 67.503075,100.08728 C 63.416728,95.656968 59.557401,88.273107 60.692497,87.137129 C 61.033026,86.796334 64.324806,86.455541 68.070624,86.341944 C 72.15697,86.228346 74.540673,85.773954 74.086634,85.092368 C 73.746105,84.410781 72.497499,82.706812 71.362403,81.116442 C 69.109275,79.302292 68.307881,75.66716 67.967352,72.713616 L 67.843604,67.711894 L 71.702931,68.507079 C 73.859615,68.961471 76.810865,70.097449 78.28649,70.779036 C 80.443173,72.028613 80.897212,72.028613 80.443173,70.665438 C 79.762116,68.507079 73.86132,67.798166 68.760214,66.341887 C 65.127905,66.22829 65.905408,67.798167 66.132427,70.751711 C 67.94058,77.981641 66.935527,73.278189 53.42788,62.372793 C 48.773987,58.624064 43.098504,54.080149 40.828312,52.489778 C 33.790715,47.264278 21.645184,35.965444 17.445328,29.490366 C 13.549395,26.127069 11.550827,18.710579 12.000866,15.10377 L 11.907657,10.559855 L 19.983143,18.024989 C 23.728961,21.205728 28.407158,24.954458 30.90437,26.431229 z "
         id="path1716"
         sodipodi:nodetypes="ccccccccccccccccccccccccccccccccccccccccccccccccccccccc" />
      <path
         style="fill:white;fill-opacity:1;stroke:none"
         d="M 273.20682,44.383999 C 271.00554,52.875514 265.8287,58.348227 260.60726,63.800925 C 254.93178,69.821612 250.4806,72.730518 233.11363,81.931945 C 220.51406,88.407024 217.91533,90.577694 220.28704,85.319562 C 220.28704,82.479616 215.46673,81.749388 211.49389,81.749388 C 208.02799,79.850551 215.86016,74.982157 242.64844,58.964857 C 255.00068,50.879092 264.71791,44.493291 268.00969,41.085354 C 270.96094,38.018213 274.83657,35.746256 275.06358,35.859853 C 275.96766,38.144123 273.88789,41.884846 273.20682,44.383999 z "
         id="path1715"
         sodipodi:nodetypes="ccccccccc" />
      <path
         style="fill:white;fill-opacity:1;stroke:none"
         d="M 37.467626,57.581365 C 43.483636,61.898083 49.568553,66.575915 51.157689,67.598295 C 54.789997,69.983851 70.984863,82.960979 71.438902,84.210555 C 70.100678,85.449886 66.881272,84.75823 65.065118,84.75823 C 57.22424,85.30019 57.585427,86.270688 59.651551,91.039914 C 59.311022,92.743887 54.676487,88.386705 42.644465,79.980463 C 34.585282,74.186972 26.18557,67.939089 24.028886,66.007926 C 16.310231,58.624064 8.9118031,48.071775 9.9496923,37.162075 C 11.847054,38.196767 31.451616,53.378244 37.467626,57.581365 z "
         id="path1714"
         sodipodi:nodetypes="ccccccccc" />
      <path
         style="fill:white;fill-opacity:1;stroke:none"
         d="M 36.466342,84.775895 C 50.995575,92.500548 65.743827,101.69397 66.424885,102.82994 C 66.651904,103.28433 62.395142,103.04082 59.557401,103.83601 C 54.449467,105.31277 54.335958,105.42638 54.903506,109.0615 L 59.379288,115.93032 L 48.842891,110.62357 C 28.18414,100.28616 12.146676,85.806281 12.207583,78.937764 C 11.34811,76.26406 9.6617669,68.649 10.683354,68.649 C 11.250902,68.649 25.72353,78.528012 36.466342,84.775895 z "
         id="path1712"
         sodipodi:nodetypes="ccccccccc" />
      <path
         style="fill:white;fill-opacity:1;stroke:none"
         d="M 267.50704,74.300569 C 267.16652,75.550146 266.48546,77.708505 266.14493,79.07168 C 265.12334,82.82041 262.63042,89.916121 255.02099,94.975381 C 251.04814,98.496915 241.28632,103.49522 230.16237,107.69833 C 220.40054,111.44706 215.2477,113.82061 221.02069,107.96616 C 223.29088,104.44463 224.71392,103.49522 222.2167,101.56405 C 220.85458,100.42808 216.57353,99.969688 215.0979,99.515297 C 208.48573,99.125861 213.93449,96.748303 223.12477,93.612206 C 226.8706,92.249032 233.00011,89.636281 236.74593,87.932314 C 240.49175,86.114748 260.12891,77.254115 262.2856,75.436548 C 266.9395,71.460623 268.30161,71.233428 267.50704,74.300569 z "
         id="path1711"
         sodipodi:nodetypes="ccccccccccc" />
      <path
         style="fill:white;fill-opacity:1;stroke:none"
         d="M 136.59896,80.977467 C 134.60033,81.204661 130.44998,81.023009 127.44197,83.351766 C 124.51103,85.015099 123.12466,86.781836 122.07478,89.516186 C 119.12353,95.536872 119.83811,103.26802 119.7246,115.76378 C 119.7246,123.26125 119.02225,130.41791 118.3412,131.66748 C 117.66015,132.91706 114.9572,140.30091 112.34647,148.13917 C 108.14661,160.74854 107.58617,163.46777 107.69967,172.10122 C 108.0402,193.34402 117.46151,210.3908 138.91482,228.22566 L 145.37068,233.55057 L 145.4771,229.82314 C 145.81762,222.32567 147.40675,236.64611 148.31484,254.70818 C 148.76888,264.2504 149.45703,272.30165 149.91107,272.52884 C 150.36511,272.75603 151.61371,272.40813 152.7488,271.49935 C 154.45146,270.24978 154.67136,268.32572 154.55787,257.19312 C 154.55787,250.15006 154.79198,244.56956 155.01899,244.91035 C 155.35953,245.25116 156.38822,250.27077 157.18278,255.95065 C 158.09086,261.74415 159.11245,266.74954 159.45297,267.20395 C 159.90701,267.54473 161.58837,266.49396 163.17751,264.78999 C 166.24226,261.83644 166.49425,262.42259 165.24563,253.10756 C 164.6781,247.88206 163.98625,242.8656 164.09977,242.6384 C 164.32679,242.5248 165.24197,244.91745 166.26354,248.21179 C 167.39864,251.39253 168.51928,256.25647 169.54086,257.73325 C 171.24351,260.34601 180.21104,264.6764 181.23263,263.654 C 181.45965,263.42681 179.87761,257.98831 177.72093,251.51324 C 175.56424,245.03816 173.74809,239.12396 173.74809,238.55598 C 173.8616,237.0792 178.51549,244.47016 182.26131,252.08122 C 187.36924,262.07784 190.77453,265.24437 197.01756,265.92596 L 202.48021,266.63595 L 198.93304,261.63055 C 196.88987,258.90419 193.15112,253.45151 190.3134,249.70276 C 187.58917,245.84044 183.95685,240.50136 182.36773,237.77499 C 180.66509,235.04864 178.52968,231.52 177.5081,229.92964 C 176.48651,228.33927 176.1176,227.54408 176.79866,228.22566 C 178.95534,230.27044 187.93679,241.74382 191.90963,247.53731 C 193.9528,250.60445 197.91145,256.18494 200.63568,259.82008 C 203.35992,263.34161 205.30377,266.84895 204.96324,267.41694 C 204.6227,268.09852 207.22633,271.61295 210.74514,275.47528 C 216.42062,281.26878 217.78982,282.18466 220.28704,281.61667 C 223.46531,280.82149 226.63333,278.22779 226.63333,276.75101 C 226.63333,275.72863 217.89622,266.73535 209.61003,257.76112 C 203.36701,250.83164 202.93425,249.0212 208.72324,253.6787 C 210.99344,255.60986 215.97367,259.59288 219.71949,262.66003 C 230.16237,271.06627 231.85082,271.96084 236.39121,271.96084 C 239.45598,271.96084 240.94579,271.27215 241.85387,269.79539 C 243.55652,266.50105 240.03771,263.10022 225.39497,254.35319 C 214.27102,247.53731 208.48203,243.55427 211.77382,244.80386 C 215.29261,246.16704 235.39801,256.95882 240.50594,260.13956 C 246.29493,263.8883 246.62127,264.00899 249.79954,262.30503 C 251.95622,261.16905 253.20483,259.69939 253.20483,258.22261 C 253.20483,255.15547 247.40873,249.80927 242.52783,248.1053 C 238.10096,246.62853 217.00944,237.19279 216.10136,236.28402 C 214.17171,234.35286 219.59179,236.28401 235.25612,243.0999 C 244.79093,247.18941 253.99229,251.18664 255.58143,251.86823 C 258.07864,252.77701 259.22794,252.63501 261.61164,251.15824 C 269.86954,244.44366 264.10175,243.6821 231.07045,232.66309 C 209.61713,225.50641 192.12246,216.97237 188.71717,211.86049 C 187.35506,209.70212 184.08456,201.29586 181.58734,193.11682 C 176.70643,177.44033 168.74656,157.90859 163.63863,149.27516 L 160.69447,144.16325 L 160.33977,147.57119 C 158.75463,156.16399 159.06994,157.97043 153.39448,152.63134 L 148.66955,149.38164 L 146.39936,154.49356 C 145.03725,157.2199 142.60584,159.6572 142.1518,159.6572 C 140.10863,159.6572 137.37551,156.21482 136.12688,153.82927 L 132.5299,150.51763 L 130.1533,153.60608 C 125.49939,159.74036 125.01396,159.21392 120.92763,154.78359 L 117.67742,150.01648 L 114.72307,154.03207 C 113.58798,155.50884 112.33938,156.32534 111.88534,155.98453 C 111.54481,155.53014 112.78632,153.36467 114.8295,150.97912 L 118.48308,146.8967 L 119.83101,150.05614 C 120.62558,151.76011 122.73366,154.99569 123.86876,155.90446 C 125.6849,157.38124 125.5136,156.21882 128.80537,152.47009 L 132.31708,148.35217 L 136.75104,152.3281 L 141.99181,158.51932 L 144.56502,154.50376 C 146.04065,153.14058 146.73279,150.30464 147.07333,149.16865 C 147.75438,147.35108 148.08072,147.81159 151.82653,150.42436 C 154.09673,151.90113 156.74906,153.79075 157.08957,153.79075 C 157.54361,153.79075 158.4304,151.30171 159.11146,148.57537 C 160.36008,144.03145 159.7793,142.68647 156.26051,137.34739 C 150.01748,127.69156 147.88916,121.98327 147.88917,113.91782 L 147.3571,109.12541 L 137.9167,112.17117 L 137.4069,105.78129 C 137.71447,100.34321 139.97201,84.919934 140.31256,83.443159 C 141.93014,80.574736 137.64892,80.75027 136.59896,80.977467 z "
         id="path1709"
         sodipodi:nodetypes="ccccccccccccccccccccccccccccccccccccccccccccccccccccccccccccccccccccccccccccccccccccccccccc" />
      <path
         style="fill:black;fill-opacity:1;stroke:none"
         d="M 131.98651,83.803816 C 132.21493,85.265094 132.45797,89.411563 131.09972,91.294175 C 130.91208,92.590791 129.48585,92.553531 127.87178,94.09862 C 127.66937,95.250617 122.93727,96.400795 124.98045,92.99286 C 125.54801,92.197669 125.45879,91.102326 125.23178,89.398359 C 125.00475,87.126403 127.95221,83.902912 131.98651,83.803816 z "
         id="path1728"
         sodipodi:nodetypes="cccccc" />
      <path
         style="fill:white;fill-opacity:1;stroke:none"
         d="M 131.4899,86.601159 C 131.4899,88.305127 129.44673,90.122692 128.53865,89.213909 C 127.74409,88.418725 129.33322,85.010789 130.46832,85.010789 C 131.03586,85.010789 131.4899,85.692376 131.4899,86.601159 z "
         id="path1708" />
      <path
         id="path1710"
         style="fill:#fedd00;fill-opacity:1;stroke:none"
         d="M 158.12436,82.207782 C 161.68777,86.772015 161.55395,88.045911 158.82971,87.705118 C 158.40829,85.351889 146.59099,88.224162 144.23559,93.385011 C 143.11972,95.095136 141.83614,97.309623 140.74685,99.621682 C 140.1013,101.36418 140.24045,105.85382 140.09048,107.73126 L 138.72438,110.68266 L 138.64532,101.45046 C 139.37913,98.180442 141.15483,84.477056 141.68385,82.456767 C 141.18513,79.645294 143.47162,79.180973 145.62232,78.099791 C 152.83463,76.292385 156.49677,79.457112 158.12436,82.207782 z M 151.84072,100.17656 C 149.91107,102.33492 148.14968,107.47545 147.35511,107.47545 C 146.56055,108.26662 140.60326,110.73316 138.92277,110.31539 C 140.68633,101.23928 151.72722,95.884163 154.11091,95.884163 C 154.79198,95.884163 153.77039,98.018202 151.84072,100.17656 z "
         sodipodi:nodetypes="ccccccccccccccc" />
      <path
         style="fill:white;fill-opacity:1;stroke:none"
         d="M 16.460345,102.33492 C 19.979144,105.51565 30.498935,110.53828 46.390284,115.87738 C 60.420874,121.28144 65.094308,121.12891 63.278154,122.37849 C 60.098178,124.31648 54.434108,128.2698 54.434108,129.29218 C 54.434108,129.74657 57.1617,133.07129 58.750834,134.66166 L 66.269779,138.83476 L 53.135955,135.55013 C 37.585136,131.23341 23.092205,123.56141 18.3128,116.31144 C 13.622301,112.65601 10.634749,100.42808 12.223885,100.42808 C 12.564414,100.42808 15.552269,101.42613 16.460345,102.33492 z "
         id="path1706"
         sodipodi:nodetypes="cccccccccc" />
      <path
         style="fill:white;fill-opacity:1;stroke:none"
         d="M 264.55578,105.42638 C 264.55578,108.26632 257.29118,117.92215 252.29675,121.67087 C 246.39426,126.10119 234.58924,129.84992 222.10319,131.0995 C 217.10877,131.55388 212.52377,132.52763 210.67101,131.82573 C 206.33305,129.85792 214.74906,130.1747 218.57209,127.20885 C 220.61526,125.61848 222.67074,124.39722 220.40054,122.12526 C 219.03842,120.76208 216.59382,118.65236 216.59382,118.08439 C 216.59382,117.62999 220.74108,117.24055 224.03285,116.55897 C 236.29189,113.94622 253.88589,108.72072 258.31277,106.33517 C 263.76122,103.49522 267.0856,101.48279 264.55578,105.42638 z "
         id="path1705"
         sodipodi:nodetypes="cccccccccc" />
      <path
         style="fill:white;fill-opacity:1;stroke:none"
         d="M 255.36151,135.87061 C 248.53062,147.98924 239.69719,150.07034 225.7355,151.43351 C 220.51406,152.0015 217.33579,152.45589 218.58438,152.56949 C 219.833,152.79668 221.64916,153.02388 222.55723,153.25107 C 223.46531,153.47828 226.07603,154.15986 228.23272,154.72785 C 235.61084,156.54541 248.66444,164.72446 248.66444,167.33721 C 248.66444,168.5868 240.49175,170.85875 235.83785,170.85875 C 229.93536,170.85875 220.40054,168.70039 215.51963,166.20124 C 213.13593,164.95166 211.20626,164.27007 211.20626,164.49726 C 211.20626,165.40606 221.0816,170.51795 224.14637,171.31313 C 229.59483,172.67631 234.92978,176.99303 237.88103,182.33213 C 239.47017,185.28568 240.71877,187.89843 240.71877,188.35282 C 240.71877,188.69361 237.88103,189.0344 234.36223,189.0344 C 226.9841,189.0344 219.60598,185.85366 210.07117,178.697 C 206.66587,176.08424 204.84973,175.06187 206.09834,176.42505 C 207.34694,177.90182 210.75223,180.74176 213.70348,182.90013 C 216.65473,185.05848 220.06002,188.58001 221.42214,190.73837 C 223.91934,194.8279 226.30305,206.07409 224.94093,207.43727 C 223.80584,208.68683 213.24944,203.46133 210.52521,200.28059 C 209.16309,198.80382 205.98482,194.37351 203.37411,190.39758 C 200.64987,186.42166 198.26616,183.35452 198.03915,183.69531 C 197.69862,183.9225 200.08232,188.58001 203.37411,193.91911 C 208.36853,202.43896 209.27661,204.82451 209.84415,211.29958 L 210.4117,218.79705 L 206.8929,216.97949 C 200.42286,213.57154 193.04473,202.43896 190.20699,191.87436 C 189.75295,189.94319 189.1854,189.0344 188.95838,189.6024 C 188.73136,190.28399 189.97996,195.39588 191.90963,200.96218 C 195.88247,212.66276 196.33651,216.2979 193.49877,213.91235 C 190.88804,211.75398 187.70977,205.0517 184.98553,195.73667 C 179.7478,182.16989 179.99511,179.54084 181.44644,175.51626 C 181.15851,170.72483 177.99623,162.22469 184.42599,170.46099 C 185.8124,172.00273 190.66102,174.26668 192.70419,174.26668 C 195.88247,174.26668 196.45001,173.81229 197.01756,170.51795 C 197.4716,168.4732 195.66344,164.61486 194.98238,162.91089 C 193.12563,159.44001 191.67386,156.52047 192.71363,157.06558 C 197.9957,159.83476 203.99425,160.33879 205.81041,159.6572 C 208.53463,158.63482 210.18468,157.90859 209.50363,154.61425 C 208.89146,149.04365 201.1279,143.49367 204.90233,144.8042 C 210.88974,145.52243 215.84386,144.569 215.0493,140.70666 L 213.78038,136.46292 L 227.89218,136.77939 C 236.74593,136.77939 243.18768,134.67367 248.0686,133.1969 C 251.81442,131.94732 255.62914,131.39966 256.76423,131.39966 C 258.6939,131.28605 257.6317,132.57627 255.36151,135.87061 z "
         id="path1704"
         sodipodi:nodetypes="cccccccccccccccccccccccccccccccccccsccccccccc" />
      <path
         style="fill:white;fill-opacity:1;stroke:none"
         d="M 45.482207,140.86891 C 48.319948,141.0961 53.76841,141.5505 57.627737,142.00489 L 67.767108,141.7642 L 62.982992,147.47791 C 60.031742,153.2714 59.119841,152.57349 69.196781,155.71224 C 72.034521,156.50743 67.608584,156.04239 60.806008,156.31822 C 53.6549,157.4542 44.34711,156.43181 36.855474,153.70548 C 30.839464,151.43351 22.553261,145.07202 20.396578,141.0961 C 19.034463,138.59695 18.466914,138.59695 45.482207,140.86891 z "
         id="path1703"
         sodipodi:nodetypes="ccccccccc" />
      <path
         style="fill:white;fill-opacity:1;stroke:none"
         d="M 71.67463,163.7304 C 69.690831,168.55404 70.654513,172.01333 75.794045,172.36097 C 74.328659,174.41085 54.676487,179.03779 48.887496,178.4698 C 42.988995,179.12308 32.205579,172.95215 32.205579,171.36178 C 32.205579,169.99861 45.482207,164.84207 52.860332,163.2517 C 56.606151,162.45651 62.281632,161.99811 65.346392,161.31652 C 68.524662,160.52134 71.45161,159.43401 72.943537,159.07289 C 76.174712,157.76236 72.355688,161.23125 71.67463,163.7304 z "
         id="path1702"
         sodipodi:nodetypes="cccccccc" />
      <path
         style="fill:white;fill-opacity:1;stroke:none"
         d="M 83.621443,174.94828 C 81.918798,179.37859 82.586204,184.50074 83.167405,187.10324 C 84.643029,189.0344 84.983558,189.0344 91.340098,186.76245 C 95.085916,185.51287 98.264185,184.4905 98.491205,184.4905 C 98.604714,184.4905 98.831733,185.74007 98.831733,187.33044 C 98.831733,188.92081 99.626301,191.53356 100.64789,193.01033 L 102.46403,195.85029 L 105.30178,193.57832 L 108.25303,191.30637 L 110.86375,197.09985 C 112.33938,200.28059 113.58798,204.14292 113.58798,205.6197 C 113.58798,209.59562 110.97727,215.04831 106.89092,219.70583 C 104.05317,223.00016 103.2586,223.45456 102.23702,221.97779 C 100.19385,218.91065 99.626301,212.43557 100.64789,204.59732 C 101.89649,195.62308 100.8749,193.46473 98.945244,201.18938 C 98.150676,204.02933 96.90207,207.77806 95.993992,209.36843 C 93.431875,216.55371 86.572694,220.61461 82.713366,222.65937 C 80.102645,224.02255 79.648606,224.02255 79.081057,222.43218 C 77.945962,219.59223 81.57827,206.18769 85.210577,199.37181 C 87.140242,195.96388 88.388847,193.01033 88.161828,192.78314 C 87.934809,192.55594 85.664616,195.28229 82.940385,198.80382 C 78.05947,205.2789 71.362403,209.36843 62.84918,210.9588 L 59.216871,211.64038 L 61.487065,206.30128 C 62.84918,203.12054 67.049036,197.66785 71.929951,192.66955 C 76.356827,188.23922 79.648606,184.4905 79.194567,184.4905 C 78.740529,184.4905 75.221729,186.76245 71.248893,189.6024 C 63.076199,195.62308 55.017016,198.34943 48.773987,197.44066 C 46.276773,196.98625 44.34711,196.30467 44.34711,195.85029 C 44.34711,193.46473 56.94668,183.24091 65.573411,178.5834 C 76.129807,173.01711 85.097068,171.19954 83.621443,174.94828 z "
         id="path1701"
         sodipodi:nodetypes="ccccccccccccccccccccccccccccccc" />
      <path
         style="fill:white;fill-opacity:1;stroke:none"
         d="M 136.97096,229.02085 C 140.94381,232.31519 144.12208,235.49593 143.78155,236.17751 C 144.67255,238.76296 136.39659,248.77322 127.42934,261.38258 C 111.53799,283.87495 110.75024,284.21576 109.72866,280.92141 C 108.36654,276.2639 112.5664,266.96254 121.64717,256.17075 C 125.39298,251.62683 128.34424,247.7645 128.11722,247.53731 C 127.8902,247.31011 122.55524,252.19482 116.08519,258.4427 C 109.72866,264.57699 104.28019,269.68889 103.93967,269.68889 C 103.71264,269.68889 103.03159,267.98492 102.46403,265.94017 C 100.8749,260.37386 100.90904,257.42032 115.85818,247.53731 C 122.21472,242.7662 127.09562,238.44948 126.7551,238.10869 C 126.41457,237.76788 125.16597,238.33588 124.14437,239.24466 C 123.00928,240.15344 117.78784,243.90217 112.45289,247.6509 C 104.05317,253.4444 101.22909,255.69586 97.469619,254.35319 C 87.026732,254.35319 88.842886,251.74043 105.18827,242.9934 C 111.65832,239.47186 117.22029,236.17751 117.67433,235.49593 C 118.12837,234.58714 117.78784,234.58714 116.31222,235.26874 C 98.264185,244.35657 90.318512,246.51493 85.778126,243.22059 C 83.961973,241.74382 86.118655,240.72143 106.32336,232.54239 C 118.69591,227.54408 129.0253,223.34096 129.25232,223.22736 C 129.36582,223.22736 132.88461,225.72652 136.97096,229.02085 z "
         id="path1700"
         sodipodi:nodetypes="ccccccccccccccccccccc" />
      <path
         style="fill:#fedd00;fill-opacity:1;stroke:none"
         d="M 66.254469,234.24636 C 68.070624,234.24636 70.884061,234.16108 72.246178,235.52426 C 74.40286,237.56902 74.200143,239.47186 73.065047,242.4254 C 70.113797,250.37726 79.421586,263.7818 84.756539,259.35149 C 85.664616,258.6699 90.233606,256.81971 91.028174,256.02452 C 93.610594,256.28835 99.119662,256.94161 99.119662,258.30478 C 99.119662,259.66796 96.825168,260.53211 96.257619,261.3273 C 95.80358,261.89528 92.702214,262.87303 91.453607,263.5546 C 90.205001,264.2362 89.183414,265.25858 89.183414,265.82657 C 89.069905,266.39455 88.729376,268.09852 88.388847,269.68889 C 87.253751,273.77842 90.091492,281.38947 93.269762,282.97984 C 97.356109,285.1382 98.150676,289.79571 94.858896,292.86285 C 89.523944,297.74756 86.572694,298.88355 82.940385,297.29318 C 81.489063,296.52231 82.056611,295.11851 84.643029,295.93 C 87.140242,295.36201 87.934809,294.56682 87.70779,292.97645 C 87.59428,291.72688 87.367262,288.88694 87.367262,286.72857 C 87.367262,284.57021 86.572694,281.04868 85.664616,279.00392 C 84.756539,276.95916 84.302501,274.8008 84.643029,274.23281 C 84.983558,273.66481 83.507934,272.30165 81.35125,271.16566 C 78.05947,269.68889 76.583846,269.57529 73.065047,270.59768 C 70.681345,271.27926 66.367979,272.41525 63.416728,273.21043 C 60.465478,273.89202 58.081776,274.8008 58.195286,275.25519 C 58.422305,277.41355 57.627737,278.54953 55.244035,279.6855 C 52.973842,280.70788 51.952256,280.48069 49.568553,278.66312 C 47.979419,277.41355 46.617303,276.73195 46.617303,277.07275 C 46.617303,277.52714 45.936245,277.29995 45.028168,276.61836 C 43.666052,275.48238 42.871484,275.70958 41.055331,277.52714 C 39.640612,280.05063 38.10008,282.01842 39.008157,279.63287 C 38.355402,276.35054 41.28235,274.91439 44.120091,272.98324 C 47.687494,267.29503 50.569837,268.08221 59.557401,268.43932 C 66.481488,267.64414 70.794855,266.50815 72.951538,265.03138 C 76.924375,262.19143 77.037884,261.50985 73.178557,262.87303 C 68.86519,264.57699 66.367979,264.2362 60.465478,261.62344 C 57.627737,260.26027 52.750823,259.64365 50.594141,259.53004 C 48.210438,259.41643 46.957832,257.76112 45.822735,256.17075 C 44.46062,254.12598 43.439033,253.78519 41.055331,254.35319 C 37.423023,255.26196 39.125668,253.3308 43.098504,252.08122 C 45.141678,251.39964 45.907942,252.45034 47.111945,250.83964 C 49.637458,246.98132 52.605012,249.69567 56.379131,254.46678 C 61.260045,259.23789 70.681345,263.10022 72.724518,261.05546 C 74.086634,259.69229 69.319229,249.92287 65.232882,245.49254 C 63.416728,243.56139 62.508651,241.63022 62.96269,240.49424 C 64.211296,237.19991 62.62216,234.47355 59.330381,234.47355 C 57.060189,234.47355 56.71966,234.13276 57.854756,233.45118 C 58.762833,232.88318 60.351969,232.76958 61.260045,233.33758 C 62.281632,233.79196 64.551825,234.24636 66.254469,234.24636 z "
         id="path1699"
         sodipodi:nodetypes="cccccccccccccccccccccccccccccccccccccccccccccc" />
      <path
         style="fill:#fedd00;fill-opacity:1;stroke:none"
         d="M 173.06702,263.44101 C 174.76968,264.57699 176.2453,267.18973 177.15337,270.59768 C 177.83444,273.55121 178.96953,276.84556 179.53709,277.86794 C 180.10463,279.00392 180.55867,280.48069 180.55867,281.27587 C 180.67217,282.07106 182.26131,283.77503 184.30448,285.0246 C 187.48275,287.06937 188.61784,287.18297 192.81771,286.16059 C 195.54195,285.5926 198.03915,284.45661 198.49318,283.77503 C 198.94722,283.09344 200.42286,282.18466 201.67146,281.73027 C 203.60112,281.16228 204.73622,281.73027 206.55238,284.00223 C 207.91449,285.7062 208.93607,286.61497 208.93607,286.16059 C 208.93607,285.7062 209.73064,285.93339 210.63872,286.72857 C 211.5468,287.52376 212.34137,289.00053 212.34137,290.0229 C 212.22786,291.61327 212.11434,291.61327 211.09276,289.90931 C 210.18468,288.31894 208.53094,288.39991 206.9741,290.27842 C 204.20098,293.72299 201.51735,293.47148 200.15523,291.76752 C 199.24715,290.74513 197.92564,289.45492 193.49877,289.79571 C 189.86645,290.13651 186.57467,289.79571 185.6666,289.00053 C 184.5315,288.09175 184.19097,288.43253 184.418,290.7045 C 184.418,292.29487 184.87204,293.54445 185.21256,293.54445 C 185.6666,293.54445 186.34765,294.90762 186.68819,296.49799 C 187.82328,300.9283 190.88804,305.01784 193.83929,306.1538 C 195.31492,306.7218 196.33651,307.63058 195.99597,308.19858 C 195.54195,308.76655 195.88247,309.44814 196.67703,309.67535 C 198.26616,310.24333 198.94722,313.99206 197.4716,313.99206 C 196.90405,313.99206 196.45001,316.03682 196.45001,318.53598 C 196.45001,321.03513 195.88247,323.07989 195.2014,323.07989 C 194.63387,323.07989 194.29333,322.62549 194.63387,322.05751 C 195.54195,320.69433 192.59069,313.76487 191.5691,314.67365 C 190.434,315.92322 187.36924,312.85608 187.36924,310.47053 C 187.36924,309.22095 186.91521,308.31217 186.23415,308.31217 C 185.6666,308.31217 185.09905,307.28979 185.09905,306.1538 C 185.09905,304.90424 184.64501,303.54106 183.96396,303.20026 C 183.3964,302.85947 182.82886,301.72349 182.82886,300.8147 C 182.82886,299.90593 181.58025,297.17958 179.99111,294.90762 C 178.40198,292.63566 177.15337,291.15889 177.15337,291.61327 C 177.15337,292.06767 177.26689,292.52207 177.49391,292.74926 C 177.60741,292.97645 175.90477,294.79402 173.63458,296.72519 C 171.13737,298.99714 168.41314,302.97306 166.9375,306.94899 C 163.75925,314.78725 163.30521,315.46883 159.78641,315.58243 C 154.67847,315.92322 150.81915,321.83031 154.79198,323.42068 C 155.81356,323.87507 155.81356,324.10227 154.67847,324.10227 C 152.52178,324.21586 150.81915,318.64957 151.95424,315.24164 C 152.52178,313.65127 152.86232,311.15211 152.7488,309.78895 C 152.6353,307.74417 153.42986,307.17618 157.51621,306.1538 C 160.24044,305.47222 162.39713,304.44984 162.39713,303.88185 C 162.39713,303.31387 163.87275,301.38269 165.57539,299.45154 C 168.75366,296.15719 171.47789,291.15889 171.47789,288.77334 C 171.47789,288.20534 170.56981,288.65974 169.54823,290.0229 C 167.61857,292.29487 167.16453,292.29487 161.03502,290.81809 C 157.28919,290.0229 156.1907,289.47925 154.45146,290.36371 C 152.23786,292.03935 147.77868,291.92175 147.86789,288.09175 C 147.41385,285.1382 146.27876,284.91101 144.23559,287.29657 C 141.51135,290.5909 141.85188,288.09175 144.68962,283.54783 C 148.88947,276.84556 151.10707,277.04844 155.76096,282.27394 C 160.75539,287.95383 166.14294,289.45492 170.91035,286.27418 C 174.20213,284.11583 174.42914,281.38947 171.93193,273.55121 C 171.02385,270.48407 169.77525,266.62175 169.2077,264.80418 C 168.0726,261.28266 169.09419,260.94186 173.06702,263.44101 z "
         id="path1698"
         sodipodi:nodetypes="cccccccccccccccccccccccccccccccccccccccccccccccccccccccccc" />
      <path
         id="path5"
         style="fill:black;stroke:none"
         d="M 148.86518,136.54819 L 146.61929,140.30091 L 143.66804,138.36976 C 142.07891,137.34739 139.26946,134.36121 138.81542,134.8156 C 137.68032,135.83799 143.69234,140.71868 146.50578,142.45928 C 148.77596,142.45928 150.12179,137.16482 150.81915,133.48505 C 150.59212,131.66748 150.3408,132.91306 148.86518,136.54819 z M 123.50793,137.70447 C 121.14852,141.81031 121.07962,139.27854 119.60399,137.34739 C 117.78784,134.73462 117.56082,137.12017 119.37697,140.41452 L 120.62558,142.68647 L 126.18073,137.02026 L 127.52536,140.43884 C 129.68205,144.52837 129.74665,145.18163 136.74395,139.84653 C 139.80871,135.75702 140.26275,134.50743 138.78712,134.50743 C 138.21957,134.50743 137.08448,135.75702 136.28991,137.23378 C 135.49534,138.82415 134.01971,140.41452 133.11164,140.75532 C 131.18197,141.4369 129.26462,143.27508 127.20914,136.0978 C 127.20914,133.37145 125.66462,134.86454 123.50793,137.70447 z "
         sodipodi:nodetypes="ccccccccccccccccccc" />
      <path
         d="M 155.01899,163.47489 C 154.56495,164.72446 153.54338,167.45081 152.6353,169.49557 C 150.81915,173.81229 149.1165,173.4715 143.89505,167.45081 L 140.60327,163.81569 L 138.51548,167.62937 C 134.42915,174.21804 134.78598,175.28106 129.1105,169.71476 L 122.89578,163.0205 L 119.83101,167.5644 C 116.76625,171.76754 116.69735,173.26061 114.76769,171.44305 C 113.51907,170.30706 112.45289,167.45081 112.33938,166.42843 C 112.33938,165.40606 111.99885,165.17885 111.77183,165.86044 C 111.09077,167.45081 114.49606,175.40266 115.74466,175.40266 C 116.31222,175.40266 118.35539,173.01711 120.28505,170.17717 C 123.69034,164.83806 123.69034,164.83806 124.82544,167.79161 C 127.29034,170.64787 128.56726,171.52001 130.83746,173.22398 L 134.13323,176.87943 C 134.13323,176.87943 139.28976,170.1122 139.63029,168.97622 C 140.31135,167.04506 141.51135,167.9052 145.03016,171.42674 C 151.04616,177.33383 151.71892,175.20379 154.45946,168.83431 C 154.79998,167.35754 155.50134,165.94972 156.60813,164.88671 C 156.72164,163.77905 158.94323,166.40811 160.98641,168.22567 C 166.20386,172.58704 167.73608,172.94815 168.19012,168.51784 C 168.41713,166.81387 168.86718,164.38366 168.18612,163.2477 C 167.16453,161.54372 167.05102,161.99811 166.9375,165.40606 C 166.9375,167.79161 166.59698,169.72277 166.02942,169.72277 C 164.66731,169.72277 159.78641,166.08763 157.62972,163.47489 C 155.81356,161.20292 155.70006,161.20292 155.01899,163.47489 z "
         id="path7"
         style="fill:black;stroke:none"
         sodipodi:nodetypes="ccccccccccccccccccccccccccc" />
      <path
         d="M 167.73208,177.67461 C 167.39154,178.5834 166.59698,180.85535 166.02942,182.78653 C 164.07946,189.25359 162.30392,188.62065 157.53651,183.50874 C 153.56368,179.30563 153.08934,178.35621 154.9055,181.76415 C 157.4027,186.87605 162.31191,191.28604 164.12807,189.69567 C 165.94422,188.2189 169.66174,179.49219 168.86718,177.44742 C 168.41314,176.31145 168.18612,176.31145 167.73208,177.67461 z "
         id="path8"
         style="fill:black;stroke:none"
         sodipodi:nodetypes="ccccccc" />
      <path
         d="M 147.64087,182.44572 C 147.64087,183.9225 146.61929,186.30806 145.37068,187.89843 L 143.214,190.73837 L 138.10606,185.62647 C 131.86304,179.60579 131.54281,181.3787 137.67233,187.74018 C 143.46133,193.76087 142.84487,195.98018 146.48948,190.19471 C 148.53265,184.9692 150.36511,179.94658 148.88947,179.94658 C 148.20842,179.94658 147.64087,181.08255 147.64087,182.44572 z "
         id="path9"
         style="fill:black;stroke:none"
         sodipodi:nodetypes="cccccccc" />
      <path
         d="M 115.51764,183.35452 C 115.85818,184.71769 118.35539,188.12563 120.9661,191.07918 L 125.84702,196.41827 L 127.66318,191.98795 C 129.93337,186.42166 132.10236,180.25475 129.71866,184.45786 C 128.81058,186.27543 125.86734,192.22747 125.07276,192.22747 C 123.25661,192.22747 116.99327,184.26329 116.99327,182.44572 C 116.99327,181.65054 116.53923,181.08255 115.97168,181.08255 C 115.40414,181.08255 115.17711,182.10494 115.51764,183.35452 z "
         id="path10"
         style="fill:black;stroke:none"
         sodipodi:nodetypes="ccccccccc" />
    </g>
  </g>
</svg>
