<?xml version="1.0" encoding="UTF-8" standalone="no"?>
<!-- Created with Inkscape (http://www.inkscape.org/) -->
<svg xmlns="http://www.w3.org/2000/svg" height="400" width="600" version="1.1">
<rect height="400" width="600" y="0" x="0" fill="#2e3192"/>
<rect height="133.3" width="300" y="266.7" x="300" fill="#fff200"/>
<rect height="133.3" width="300" y="0" x="300" fill="#fff200"/>
<path fill="#fff200" d="M150,72.5,138,139.7c-16.3-17.8-4-73.77-42.44-57.08,28.24,7.57,3.91,37.98,20.24,65.98v0.2l-55.96-39,39,56c-24.09-1-54.96-49.3-70.34-10.3,25.31-14.6,29.63,24.1,60.94,32.3l0.25,0.2-67.19,12,67.22,12c-17.77,16.3-73.79,4-57.1,42.4,7.57-28.2,37.98-3.9,65.97-20.2h0.25l-39,56,55.96-39c-1,24.1-49.28,54.9-10.3,70.3-14.61-25.3,24.1-29.6,32.3-60.9l0.2-0.3,12,67.2,12-67.2c16.3,17.7,4,73.8,42.4,57.1-28.2-7.6-3.9-38-20.2-66v-0.2l56,39-39-56c24.1,1,54.9,49.3,70.3,10.3-25.3,14.6-29.6-24.1-60.9-32.3l-0.3-0.2,67.2-12-67.2-12c17.7-16.3,73.8-4,57.1-42.4-7.6,28.2-38,3.9-66,20.2h-0.2l39-56-56,39c1-24.1,49.3-54.92,10.3-70.3,14.6,25.3-24.1,29.6-32.3,60.9l-0.2,0.3-12-67.2z"/>
<path d="M210.5,200a60.5,60.5,0,0,1,-121,0,60.5,60.5,0,1,1,121,0z" stroke="#dbb306" stroke-width="2" fill="#fff200"/>
</svg>
