<?xml version="1.0" standalone="no"?>
<!DOCTYPE svg PUBLIC "-//W3C//DTD SVG 20010904//EN"
 "http://www.w3.org/TR/2001/REC-SVG-20010904/DTD/svg10.dtd">
<svg version="1.0" xmlns="http://www.w3.org/2000/svg"
 width="1250.000000pt" height="793.000000pt" viewBox="0 0 1250.000000 793.000000"
 preserveAspectRatio="xMidYMid meet">
<metadata>
Created by potrace 1.14, written by Peter Selinger 2001-2017
</metadata>
<g fill="yellow" stroke="none">
<rect width="1250" height="793"  />
</g>
<g transform="translate(0.000000,793.000000) scale(0.100000,-0.100000)"
fill="#027DC3" stroke="none">
<path d="M0 3965 l0 -3965 1611 0 1611 0 -38 48 c-21 26 -42 49 -46 52 -15 11
-62 87 -92 150 -34 69 -50 120 -66 213 -17 103 28 266 95 342 114 129 141 170
179 265 43 108 49 305 13 411 -24 71 -51 129 -59 129 -5 0 -8 5 -8 11 0 14
-48 76 -115 150 -57 63 -118 175 -139 259 -17 65 -19 241 -4 290 43 140 70
186 174 309 116 135 173 272 176 418 3 196 -53 332 -203 493 -60 64 -106 148
-138 247 -24 75 -27 240 -5 322 24 94 80 193 160 282 42 46 81 95 87 109 6 14
14 27 17 30 9 7 45 90 60 133 15 49 27 225 18 269 -4 18 -9 48 -13 66 -8 48
-55 162 -67 162 -5 0 -8 6 -8 13 0 15 -28 51 -111 143 -61 68 -121 180 -144
265 -17 67 -17 246 0 303 37 122 67 173 173 296 80 94 134 193 159 292 14 57
17 197 6 258 -26 144 -70 224 -197 364 -77 85 -123 236 -105 350 5 34 15 77
21 96 12 39 58 139 70 155 5 6 31 40 58 77 28 37 75 86 105 109 30 23 55 43
55 45 0 2 -740 4 -1645 4 l-1645 0 0 -3965z"/>
<path d="M6203 6593 c-1 -21 -28 -142 -42 -193 -16 -56 -42 -160 -46 -180 -6
-30 -73 -227 -93 -272 -11 -24 -42 -97 -70 -163 -29 -67 -60 -139 -71 -160
l-19 -40 340 -3 c188 -1 343 -1 344 1 2 2 -14 40 -36 85 -22 45 -40 85 -40 88
0 3 -11 30 -25 60 -47 104 -154 436 -171 534 -3 14 -11 50 -18 80 -7 30 -19
83 -27 118 -13 61 -24 79 -26 45z"/>
<path d="M8930 6588 c0 -13 -9 -60 -20 -106 -11 -45 -22 -95 -25 -112 -3 -16
-10 -42 -16 -57 -6 -15 -10 -29 -9 -31 9 -16 -103 -361 -156 -480 -13 -29 -24
-54 -24 -57 0 -2 -16 -38 -35 -79 -19 -42 -35 -78 -35 -81 0 -3 153 -5 341 -5
270 0 339 3 332 13 -4 6 -8 14 -9 17 0 3 -11 27 -23 55 -12 27 -28 63 -36 80
-11 24 -80 193 -115 280 -27 65 -63 189 -95 320 -19 83 -40 166 -45 186 -6 20
-10 46 -10 58 0 11 -4 21 -10 21 -5 0 -10 -10 -10 -22z"/>
<path d="M7540 6381 c-12 -18 -32 -43 -44 -55 -11 -12 -46 -53 -76 -91 -30
-37 -73 -89 -95 -115 -22 -25 -60 -70 -85 -100 -25 -30 -59 -70 -75 -90 -17
-19 -46 -55 -65 -79 -19 -25 -44 -54 -55 -66 -11 -12 -45 -52 -75 -89 -30 -38
-64 -78 -75 -90 -11 -12 -35 -41 -54 -66 -19 -25 -39 -49 -45 -55 -6 -5 -29
-32 -51 -60 -42 -52 -48 -59 -139 -165 l-56 -65 0 -422 0 -423 1030 0 1030 0
0 401 c0 307 -3 403 -12 413 -7 8 -38 44 -68 81 -30 38 -72 89 -94 114 -54 65
-66 79 -111 136 -22 27 -47 57 -56 65 -8 8 -33 38 -55 65 -42 54 -52 66 -110
136 -22 25 -64 77 -94 114 -30 38 -64 78 -75 90 -11 12 -33 39 -49 61 -17 21
-37 46 -46 54 -8 8 -33 38 -55 65 -22 28 -44 55 -50 61 -5 6 -35 42 -65 79
-30 38 -67 82 -81 98 l-26 30 -23 -32z m125 -1171 l0 -315 -82 -3 -82 -3 -3
306 c-2 169 1 313 5 321 7 11 26 14 85 12 l77 -3 0 -315z"/>
<path d="M5940 4935 l0 -585 275 0 275 0 0 585 0 585 -275 0 -275 0 0 -585z"/>
<path d="M8670 4935 l0 -585 275 0 275 0 0 585 0 585 -275 0 -275 0 0 -585z"/>
<path d="M6040 4185 l0 -105 1545 0 1545 0 0 105 0 105 -1545 0 -1545 0 0
-105z"/>
<path d="M6040 2675 l0 -1335 255 0 255 0 0 895 0 895 -119 0 c-89 0 -121 3
-130 14 -8 9 -11 63 -9 167 l3 154 1289 3 c1025 2 1291 0 1298 -10 4 -7 8 -77
8 -155 0 -115 -3 -144 -16 -157 -12 -13 -39 -16 -125 -16 l-109 0 0 -895 0
-895 245 0 245 0 0 1335 0 1335 -1545 0 -1545 0 0 -1335z"/>
<path d="M6350 3305 l0 -105 1240 0 1240 0 0 105 0 105 -1240 0 -1240 0 0
-105z"/>
<path d="M6610 2190 l0 -940 300 0 300 0 0 626 c0 597 1 630 20 694 23 77 60
133 121 182 73 58 114 72 216 76 94 4 149 -8 213 -47 50 -31 118 -108 146
-166 l29 -60 3 -652 3 -653 305 0 304 0 2 940 3 940 -982 0 -983 0 0 -940z"/>
</g>
</svg>
