<?xml version="1.0" encoding="UTF-8" standalone="no"?>
<svg
   xmlns:dc="http://purl.org/dc/elements/1.1/"
   xmlns:cc="http://creativecommons.org/ns#"
   xmlns:rdf="http://www.w3.org/1999/02/22-rdf-syntax-ns#"
   xmlns:svg="http://www.w3.org/2000/svg"
   xmlns="http://www.w3.org/2000/svg"
   xmlns:sodipodi="http://sodipodi.sourceforge.net/DTD/sodipodi-0.dtd"
   xmlns:inkscape="http://www.inkscape.org/namespaces/inkscape"
   version="1.0"
   width="471"
   height="300"
   id="Flag of Elva"
   sodipodi:version="0.32"
   inkscape:version="0.92.4 (5da689c313, 2019-01-14)"
   sodipodi:docname="Flag_of_et-Järva_maakond.svg">
  <defs
     id="defs6" />
  <metadata
     id="metadata5">
    <rdf:RDF>
      <cc:Work
         rdf:about="">
        <dc:format>image/svg+xml</dc:format>
        <dc:type
           rdf:resource="http://purl.org/dc/dcmitype/StillImage" />
      </cc:Work>
    </rdf:RDF>
  </metadata>
  <sodipodi:namedview
     id="base"
     pagecolor="#ffffff"
     bordercolor="#666666"
     borderopacity="1.0"
     inkscape:pageopacity="0.0"
     inkscape:pageshadow="2"
     inkscape:zoom="1.2279853"
     inkscape:cx="452.64383"
     inkscape:cy="123.0705"
     inkscape:window-width="1920"
     inkscape:window-height="1017"
     inkscape:window-x="-8"
     inkscape:window-y="-8"
     inkscape:current-layer="Flag of Elva"
     showgrid="false"
     inkscape:window-maximized="1" />
  <rect
     style="fill:#FFFFFF"
     x="0"
     y="0"
     width="471"
     height="150"
     id="white Stripe" />
  <rect
     style="fill:#009739;fill-opacity:1"
     x="0"
     y="150"
     width="471"
     height="150"
     id="green Stripe" />
  <g
     id="g1205"
     transform="matrix(0.141828,0.000000,0.000000,0.141631,58.53680,-157.7429)">
    <g
       id="g1161">
      <path
         d="M 919.00000,1184.0000 L 919.00000,1684.0000 C 919.00000,1744.0000 916.00000,1828.0000 937.00000,1894.0000 C 991.00000,1991.0000 1109.0000,2044.0000 1200.0000,2081.0000 C 1250.0000,2106.0000 1241.0000,2100.0000 1275.0000,2116.0000 C 1334.0000,2091.0000 1397.0000,2059.0000 1450.0000,2034.0000 C 1506.0000,2003.0000 1584.0000,1962.0000 1609.0000,1897.0000 C 1634.0000,1825.0000 1625.0000,1737.0000 1625.0000,1662.0000 L 1625.0000,1184.0000 L 919.00000,1184.0000 z "
         id="path1163"
         style="fill:#2d2f31" />
      <path
         d="M 928.00000,1194.0000 C 928.00000,1347.0000 928.00000,1491.0000 928.00000,1641.0000 C 928.00000,1725.0000 919.00000,1819.0000 941.00000,1891.0000 C 953.00000,1919.0000 994.00000,1959.0000 1012.0000,1966.0000 C 1044.0000,2006.0000 1237.0000,2091.0000 1278.0000,2106.0000 C 1334.0000,2078.0000 1422.0000,2041.0000 1472.0000,2016.0000 C 1531.0000,1978.0000 1556.0000,1959.0000 1581.0000,1928.0000 C 1609.0000,1894.0000 1613.0000,1888.0000 1619.0000,1847.0000 L 1619.0000,1191.0000 L 928.00000,1194.0000 L 928.00000,1194.0000 z "
         id="path1165"
         style="fill:#0072ce;fill-opacity:1" />
      <path
         d="M 1172.0000,1353.0000 L 1188.0000,1353.0000 L 1188.0000,1688.0000 L 1031.0000,1688.0000 L 1025.0000,1659.0000 L 984.00000,1659.0000 L 969.00000,1850.0000 L 1578.0000,1850.0000 L 1556.0000,1659.0000 L 1512.0000,1659.0000 L 1509.0000,1688.0000 L 1350.0000,1688.0000 L 1350.0000,1353.0000 L 1366.0000,1353.0000 L 1366.0000,1259.0000 L 1300.0000,1259.0000 L 1300.0000,1288.0000 L 1297.0000,1288.0000 L 1297.0000,1259.0000 L 1272.0000,1259.0000 L 1272.0000,1288.0000 L 1269.0000,1288.0000 L 1269.0000,1259.0000 L 1241.0000,1259.0000 L 1241.0000,1288.0000 L 1237.0000,1288.0000 L 1237.0000,1259.0000 L 1172.0000,1259.0000 L 1172.0000,1353.0000 L 1172.0000,1353.0000 z "
         id="path1167"
         style="fill:#2d2f31" />
      <path
         d="M 1181.0000,1266.0000 L 1181.0000,1344.0000 L 1209.0000,1344.0000 L 1209.0000,1266.0000 L 1200.0000,1266.0000 L 1200.0000,1291.0000 L 1191.0000,1291.0000 L 1191.0000,1266.0000 L 1181.0000,1266.0000 L 1181.0000,1266.0000 z "
         id="path1169"
         style="fill:#ffffff" />
      <path
         d="M 1219.0000,1266.0000 L 1219.0000,1344.0000 L 1319.0000,1344.0000 L 1319.0000,1266.0000 L 1309.0000,1266.0000 L 1309.0000,1294.0000 L 1291.0000,1294.0000 L 1291.0000,1266.0000 L 1278.0000,1266.0000 L 1278.0000,1294.0000 L 1263.0000,1294.0000 L 1263.0000,1266.0000 L 1247.0000,1266.0000 L 1247.0000,1294.0000 L 1228.0000,1294.0000 L 1228.0000,1266.0000 L 1219.0000,1266.0000 z "
         id="path1171"
         style="fill:#ffffff" />
      <path
         d="M 1328.0000,1266.0000 L 1328.0000,1344.0000 L 1359.0000,1344.0000 L 1359.0000,1266.0000 L 1347.0000,1266.0000 L 1347.0000,1291.0000 L 1337.0000,1291.0000 L 1337.0000,1266.0000 L 1328.0000,1266.0000 L 1328.0000,1266.0000 z "
         id="path1173"
         style="fill:#ffffff" />
      <path
         d="M 1194.0000,1688.0000 L 1222.0000,1688.0000 L 1222.0000,1353.0000 L 1194.0000,1353.0000 M 1228.0000,1688.0000 L 1306.0000,1688.0000 L 1303.0000,1353.0000 L 1228.0000,1353.0000 M 1313.0000,1353.0000 L 1313.0000,1688.0000 L 1344.0000,1688.0000 L 1344.0000,1353.0000 L 1313.0000,1353.0000 z "
         id="path1175"
         style="fill:#ffffff" />
      <path
         d="M 1256.0000,1387.0000 L 1256.0000,1422.0000 L 1278.0000,1422.0000 L 1278.0000,1387.0000 L 1256.0000,1387.0000 z "
         id="path1177"
         style="fill:#2d2f31" />
      <path
         d="M 1259.0000,1488.0000 L 1259.0000,1519.0000 L 1281.0000,1519.0000 L 1281.0000,1488.0000 L 1259.0000,1488.0000 z "
         id="path1179"
         style="fill:#2d2f31" />
      <path
         d="M 1259.0000,1594.0000 L 1259.0000,1625.0000 L 1281.0000,1625.0000 L 1281.0000,1594.0000 L 1259.0000,1594.0000 z "
         id="path1181"
         style="fill:#2d2f31" />
      <path
         d="M 991.00000,1666.0000 L 978.00000,1844.0000 L 1216.0000,1844.0000 C 1216.0000,1812.0000 1212.0000,1775.0000 1225.0000,1747.0000 C 1247.0000,1716.0000 1297.0000,1719.0000 1313.0000,1750.0000 C 1322.0000,1766.0000 1319.0000,1816.0000 1319.0000,1844.0000 L 1569.0000,1844.0000 L 1550.0000,1666.0000 L 1519.0000,1666.0000 L 1516.0000,1694.0000 L 1022.0000,1694.0000 L 1019.0000,1666.0000 L 991.00000,1666.0000 z "
         id="path1183"
         style="fill:#ffffff" />
      <path
         d="M 1222.0000,1844.0000 L 1234.0000,1844.0000 C 1234.0000,1819.0000 1231.0000,1775.0000 1241.0000,1759.0000 C 1253.0000,1741.0000 1284.0000,1737.0000 1297.0000,1763.0000 C 1303.0000,1778.0000 1300.0000,1816.0000 1300.0000,1844.0000 L 1313.0000,1844.0000 C 1313.0000,1822.0000 1316.0000,1775.0000 1306.0000,1756.0000 C 1294.0000,1728.0000 1250.0000,1725.0000 1234.0000,1747.0000 C 1219.0000,1769.0000 1222.0000,1816.0000 1222.0000,1844.0000 z "
         id="path1185"
         style="fill:#ffffff" />
      <path
         d="M 1241.0000,1844.0000 L 1294.0000,1844.0000 C 1294.0000,1825.0000 1297.0000,1778.0000 1287.0000,1763.0000 C 1278.0000,1744.0000 1253.0000,1750.0000 1244.0000,1766.0000 C 1237.0000,1784.0000 1241.0000,1822.0000 1241.0000,1844.0000 L 1241.0000,1844.0000 z "
         id="path1187"
         style="fill:#ffffff" />
      <path
         d="M 981.00000,1944.0000 C 1034.0000,2000.0000 1059.0000,1950.0000 1109.0000,1962.0000 C 1134.0000,1969.0000 1166.0000,1988.0000 1194.0000,1978.0000 C 1216.0000,1975.0000 1238.0000,1962.0000 1259.0000,1959.0000 C 1284.0000,1953.0000 1319.0000,1975.0000 1344.0000,1978.0000 C 1375.0000,1988.0000 1406.0000,1966.0000 1431.0000,1959.0000 C 1466.0000,1950.0000 1494.0000,1988.0000 1528.0000,1975.0000 C 1538.0000,1972.0000 1566.0000,1953.0000 1566.0000,1941.0000 C 1550.0000,1941.0000 1528.0000,1947.0000 1513.0000,1944.0000 C 1484.0000,1937.0000 1459.0000,1919.0000 1428.0000,1925.0000 C 1406.0000,1931.0000 1375.0000,1953.0000 1347.0000,1947.0000 C 1319.0000,1941.0000 1281.0000,1919.0000 1247.0000,1925.0000 C 1228.0000,1931.0000 1213.0000,1944.0000 1194.0000,1947.0000 C 1150.0000,1959.0000 1119.0000,1916.0000 1072.0000,1925.0000 C 1044.0000,1934.0000 1019.0000,1947.0000 981.00000,1944.0000 z "
         id="path1189"
         style="fill:#ffffff" />
      <path
         d="M 1041.0000,1988.0000 C 1075.0000,2022.0000 1084.0000,2003.0000 1113.0000,2013.0000 C 1141.0000,2022.0000 1181.0000,2034.0000 1216.0000,2025.0000 C 1231.0000,2022.0000 1247.0000,2013.0000 1263.0000,2009.0000 C 1281.0000,2003.0000 1300.0000,2016.0000 1316.0000,2022.0000 C 1350.0000,2034.0000 1384.0000,2022.0000 1416.0000,2009.0000 C 1444.0000,1994.0000 1459.0000,2034.0000 1506.0000,1994.0000 C 1478.0000,1997.0000 1450.0000,1963.0000 1422.0000,1975.0000 C 1397.0000,1988.0000 1366.0000,2003.0000 1334.0000,1994.0000 C 1306.0000,1988.0000 1281.0000,1969.0000 1250.0000,1975.0000 C 1231.0000,1981.0000 1216.0000,1991.0000 1194.0000,1994.0000 C 1144.0000,1997.0000 1088.0000,1963.0000 1041.0000,1988.0000 z "
         id="path1191"
         style="fill:#ffffff" />
      <path
         d="M 941.00000,1887.0000 C 969.00000,1972.0000 1056.0000,1897.0000 1100.0000,1909.0000 C 1119.0000,1913.0000 1137.0000,1925.0000 1156.0000,1928.0000 C 1191.0000,1938.0000 1216.0000,1919.0000 1244.0000,1913.0000 C 1275.0000,1903.0000 1303.0000,1919.0000 1328.0000,1925.0000 C 1369.0000,1934.0000 1403.0000,1919.0000 1431.0000,1909.0000 C 1456.0000,1900.0000 1494.0000,1925.0000 1516.0000,1928.0000 C 1550.0000,1938.0000 1609.0000,1916.0000 1609.0000,1875.0000 C 1581.0000,1875.0000 1566.0000,1884.0000 1544.0000,1894.0000 C 1516.0000,1903.0000 1481.0000,1881.0000 1456.0000,1875.0000 C 1428.0000,1869.0000 1391.0000,1891.0000 1366.0000,1897.0000 C 1334.0000,1906.0000 1306.0000,1881.0000 1278.0000,1878.0000 C 1247.0000,1878.0000 1222.0000,1888.0000 1194.0000,1897.0000 C 1166.0000,1909.0000 1128.0000,1884.0000 1106.0000,1878.0000 C 1072.0000,1872.0000 1044.0000,1891.0000 1016.0000,1897.0000 C 991.00000,1903.0000 966.00000,1894.0000 941.00000,1887.0000 L 941.00000,1887.0000 z "
         id="path1193"
         style="fill:#ffffff" />
    </g>
  </g>
</svg>
