<?xml version="1.0" encoding="utf-8"?>
<!-- Generator: Adobe Illustrator 15.0.0, SVG Export Plug-In . SVG Version: 6.00 Build 0)  -->
<!DOCTYPE svg PUBLIC "-//W3C//DTD SVG 1.1//EN" "http://www.w3.org/Graphics/SVG/1.1/DTD/svg11.dtd">
<svg version="1.1" xmlns="http://www.w3.org/2000/svg" xmlns:xlink="http://www.w3.org/1999/xlink" x="0px" y="0px" width="770px"
	 height="490px" viewBox="0 0 770 490" enable-background="new 0 0 770 490" xml:space="preserve">
<g>
	<rect fill="#FFFFFF" width="770" height="245"/>
	<rect y="245" fill="#FFFF00" width="770" height="245"/>
	<rect y="210" width="770" height="70"/>
</g>
<g>
	<path d="M275,121.25v137.5c0,60.752,49.249,110,110,110s110-49.248,110-110v-137.5H275z"/>
	<path fill="#FFFF00" d="M362.293,193.737c-0.119,0.035-0.237,0.118-0.349,0.174c0.646,0.521-0.041,0.956-0.322,1.517
		c-0.281,0.563-0.425,0.905-0.267,1.543c0.073,0.297,0.474,1.408-0.022,1.481c-0.289,0.042-1.193-0.708-1.433-0.867
		c-0.272-0.182-1.515-0.791-1.427-1.145c0.123-0.493,0.199-1.293,0.534-1.695C359.882,193.698,361.002,193.607,362.293,193.737z
		 M481.153,242.381c-0.076,0.434-0.956,0.442-1.278,0.517c-0.874,0.202-1.742,0.434-2.613,0.652
		c-1.03,0.258-2.063,0.503-3.096,0.752c-0.632,0.152-2.354,0.448-2.619,1.136c1.646,1.659,1.751,4.488,2.191,6.68
		c0.104,0.521,0.168,1.06,0.168,1.591c0,0.301,0.167,1.468-0.089,1.685c-0.322,0.272-0.836-0.462-1.145-0.617
		c-0.502-0.251-1.053-0.17-1.609-0.17c-1.016,0-1.736-0.617-2.657-0.85c-0.706-0.179-1.486,1.607-1.75,2.074
		c-0.979,1.733-1.873,3.493-3.032,5.118c-1.141,1.6-3.31,2.026-4.953,2.847c-0.894,0.447-1.548,1.227-2.291,1.876
		c-0.58,0.508-1.238,1.807-2.037,1.948c-0.199-0.337,0.086-0.903,0.086-1.286c0-0.953-0.159-1.926-0.738-2.698
		c-0.873-1.165-1.24,0.387-1.292,1.202c-0.059,0.932-0.038,2.063-0.7,2.809c-0.622,0.7-1.268,1.396-2.004,1.979
		c-1.648,1.305-3.262,2.571-4.532,4.267c-0.586,0.783-1.104,1.554-1.581,2.408c-0.466,0.837-0.792,1.826-1.465,2.499
		c-0.429-0.174-1.84-5.306-2.532-2.62c-0.238,0.923,0.102,1.927-0.099,2.837c-0.227,1.034-0.536,1.934-0.927,2.913
		c-0.688,1.723-1.838,3.401-2.983,4.853c-1.245,1.577-2.528,3.181-3.949,4.603c-0.731,0.732-1.435,1.641-2.261,2.262
		c-0.474,0.356-1.99,1.365-2.62,0.961c-0.065-0.49,0.226-1.125,0.321-1.611c0.086-0.433,0.141-0.947,0.112-1.386
		c-0.053-0.867,0.039-2.403-0.696-3.029c-0.753,0.088-0.89,1.677-1.019,2.24c-0.186,0.81-0.439,1.472-0.879,2.175
		c-0.797,1.278-1.687,2.64-2.79,3.676c-1.287,1.207-2.595,2.363-3.973,3.465c-0.82,0.656-3.011,2.384-4.09,1.806
		c-0.015-1.049,0.229-1.815-0.261-2.795c-0.997-0.057-1.419,1.901-1.922,2.534c-0.74,0.928-1.83,1.634-2.771,2.34
		c-0.908,0.681-2.002,1.151-3.027,1.624c-0.911,0.421-2.351,1.118-3.372,1.012c-0.039-0.597,1.324-1.588,1.694-2.053
		c0.593-0.742,0.974-1.452,1.1-2.399c0.129-0.96,0.172-1.758-0.064-2.704c-0.253-1.01-1.606-0.07-1.958,0.364
		c-1.217,1.496-2.13,3.184-3.328,4.684c-1.202,1.504-3.019,1.869-4.77,2.456c-1.791,0.6-3.361,2.045-4.672,3.355
		c-0.279,0.279-1.586,1.713-1.976,1.364c-0.247-0.222-0.087-1.181-0.087-1.454c0-0.441-0.03-0.903-0.087-1.341
		c-0.044-0.333-0.077-1.176-0.438-1.354c-0.401-0.199-0.723,0.589-0.87,0.847c-0.455,0.795-0.487,1.864-1.094,2.582
		c-1.379,1.63-2.923,2.856-4.76,3.936c-1.713,1.007-3.542,1.724-5.473,2.173c-0.863,0.2-1.739-0.061-1.566-1.047
		c0.165-0.942,0.432-1.932,0.495-2.884c0.047-0.697,0.296-2.713-0.901-1.757c-0.765,0.613-1.231,1.425-1.686,2.275
		c-0.968,1.812-1.539,3.839-2.216,5.773c-0.631,1.806-1.179,3.664-1.98,5.404c-0.188,0.405-1.076,2.354-1.65,1.499
		c-0.557-0.83-1.187-1.585-1.842-2.335c-0.616-0.705-1.305-1.383-2.067-1.928c-0.453-0.325-0.85-0.435-1.399-0.435
		c-0.465,0-0.666,0.252-0.983,0.571c-0.533,0.534-0.694,1.886-0.521,2.579c0.126,0.501,0.278,0.958,0.567,1.39
		c0.164,0.247,0.61,0.795,0.437,1.049c-0.969,0.058-1.998-0.285-2.916-0.555c-0.911-0.269-1.774-0.549-2.552-1.104
		c-1.562-1.117-2.574-2.548-3.429-4.256c-0.813-1.626-1.23-3.554-2.239-5.068c-0.641-0.961-1.551,0.095-1.79,0.854
		c-0.128,0.405-0.125,0.94-0.043,1.353c0.058,0.292,0.303,0.842,0.131,1.091c-1.059-0.141-2.424-1.735-2.821-2.644
		c-0.607-1.387-0.811-2.868-1.094-4.351c-0.258-1.346-0.276-2.832-0.276-4.2c0-1.423-0.087-2.839-0.087-4.263h-0.088
		c-0.285,0.7-0.169,1.934-0.786,2.444c-0.533-0.23-0.55-1.772-0.64-2.283c-0.118-0.671-0.241-1.348-0.325-2.022
		c-0.094-0.749-0.321-1.58-0.345-2.331c-0.023-0.736,0.19-1.571,0.321-2.296c0.345-1.907,0.041-3.908,0.362-5.826
		c0.164-0.976,0.501-1.969,1.063-2.795c0.494-0.726,1.58-1.389,0.578-2.142c-0.769-0.578-1.785,0.292-2.326,0.833
		c-0.523,0.524-1.405,1.793-2.184,1.922c-0.923,0.152-0.738-1.727-0.61-2.272c0.109-0.468,0.284-0.962,0.569-1.342
		c0.174-0.231,0.438-0.648,0.479-0.929c-0.412-0.264-5.001,0.688-4.716-0.436c0.66-0.257,1.362-0.368,2.009-0.698
		c1.772-0.908,3.447-2.313,4.846-3.712c1.429-1.429,2.56-3.031,3.354-4.886c0.265-0.617,0.044-2.292,0.707-2.625
		c0.66-0.331,1.599,1.117,1.907,1.541c0.663,0.914,1.229,1.868,1.812,2.837c0.44,0.734,0.723,1.719,1.434,2.216
		c0-0.494,0.003-0.959,0.262-1.396c0.854-0.231,1.835,2.969,2.041,3.588c0.248,0.746,0.45,1.483,0.641,2.246
		c0.123,0.491,0.189,1.215,0.551,1.59c0.222-0.252,0.11-1.389,0.698-1.094c0.405,0.204,0.638,1.021,0.806,1.398
		c0.253,0.569,0.324,1.28,0.875,1.61c0.289,0.173,0.922,0.348,1.201,0.18c-0.117-0.314-0.508-0.565-0.622-0.909
		c-0.149-0.446-0.31-0.888-0.418-1.347c-0.204-0.868-0.478-1.782-0.541-2.675c-0.037-0.525-0.078-1.045-0.078-1.572
		c0-0.465,0.067-0.732-0.436-0.832c-0.586-0.117-1.695,0.147-1.845-0.754c-0.165-0.989-0.27-1.961-0.773-2.844
		c-0.553-0.97-1.446-1.032-2.473-1.032c-0.623,0-1.111-1.556-1.429-2c-0.568-0.795-1.06-1.618-1.911-2.132
		c-0.443-0.267-0.83-0.341-1.351-0.323c-0.232,0.008-0.993,0.238-1.137,0c-0.099-0.165,0.157-0.437,0.188-0.592
		c0.063-0.315,0.067-0.384-0.058-0.675c-0.176-0.41-0.474-0.697-0.769-1.033c-1.328-1.518-3.116-2.576-4.764-3.716
		c-1.576-1.091-3.639-1.871-5.455-2.445c-0.912-0.288-1.833-0.456-2.734-0.784c-0.929-0.338-1.682-0.986-2.46-1.571
		c-0.731-0.548-1.343-1.299-2.018-1.917c-0.802-0.735-1.596-1.25-2.525-1.806c-1.729-1.036-3.691-0.763-5.605-0.524
		c-1.944,0.243-3.938,0.284-5.894,0.169c-1.863-0.109-4.075-0.289-5.748-1.189c-1.915-1.03-3.266-2.278-4.084-4.322
		c-0.674-1.682-1.043-3.725-1.043-5.531c0.667,0,1.018,0.208,1.54-0.317c0.549-0.55,1.296-0.409,1.998-0.207
		c1.308,0.375,2.558,1.311,3.935,1.311c1.526,0,3.095,0.341,4.623,0.48c1.561,0.141,3.002,0.133,4.55-0.125
		c0.905-0.151,1.788-0.576,2.678-0.798c1.062-0.265,2.085-0.485,3.166-0.646c2.039-0.305,3.912-0.178,5.941,0.109
		c0.744,0.105,2.008,0.171,2.698-0.175c0.893-0.447,1.514-1.24,2.443-1.588c0.953-0.357,1.771,0.083,2.296,0.87
		c0.257,0.383,0.649,1.741,1.248,1.611c0.368-0.643,0.211-1.801,0.156-2.517c-0.068-0.896-0.228-1.74-0.683-2.533
		c-0.409-0.712-1.209-1.354-2.097-1.129c-0.96,0.243-1.156,1.042-1.918,1.549c-0.429,0.285-0.826,0.337-1.313,0.459
		c-0.415,0.104-0.744,0.553-1.175,0.592c-1.063,0.098-2.086-0.006-3.149-0.082c-1.939-0.137-3.804-0.145-5.716,0.253
		c-1.996,0.416-3.875,1.205-5.852,1.659c-1.839,0.423-4.049,0.429-5.873-0.051c-1.023-0.27-2.096-0.487-2.986-1.081
		c-0.793-0.529-1.632-0.823-2.538-1.124c-0.943-0.313-1.919-0.03-2.809,0.267c-0.583,0.194-2.005,1.147-2.607,0.545
		c-1.275-1.275-1.354-3.708-1.636-5.413c-0.332-2.004-1.418-3.762-2.413-5.506c-0.913-1.599-1.551-3.383-0.868-5.203
		c0.191-0.511,0.388-1.02,0.584-1.528c0.122-0.317,0.662-0.6,0.316-0.95c-0.569-0.576-0.672-1.876-0.837-2.645
		c-0.411-1.923-0.48-3.986-0.119-5.913c0.382-2.037,1.576-3.226,3.534-3.711c-0.022-0.359,1.311-0.413,1.708-0.523
		c0.702-0.195,1.296-0.369,1.937-0.705c1.193-0.625,2.407-1.239,3.556-1.941c2.49-1.52,4.935-3.091,7.376-4.686
		c6.776-4.428,14.327-7.58,22.168-9.541c1.809-0.453,3.675-0.921,5.527-1.152c1.864-0.232,4.386-0.244,5.149-2.325
		c0.532-1.452-0.825-4.6-2.775-3.816c-1.864,0.75-2.074,3.399-2.289,5.125h-0.612c0-0.613,0-1.226,0-1.838
		c0-8.165,5.463-15.155,12.009-19.427c3.278-2.141,6.705-4.069,10.079-6.055c1.773-1.044,3.56-2.095,5.446-2.923
		c1.659-0.729,3.618-1.903,5.515-1.716c0.98,0.097,1.875,0.258,2.848,0.258c0.512,0,0.805-0.283,0.632-0.806
		c-0.129-0.393-0.418-0.576-0.761-0.791c-1.832-1.147-3.738-1.508-5.865-1.203c-0.791,0.113-1.767,0.945-2.407,1.396
		c-0.364,0.255-0.779,0.655-1.189,0.82c-0.646,0.259-0.676-0.135-0.631-0.725c0.155-1.995,0.952-3.864,1.946-5.568
		c2.018-3.458,5.288-6.104,8.146-8.826c1.421-1.354,2.716-2.678,4.58-3.423c1.822-0.729,3.729-0.869,5.673-0.964
		c3.8-0.188,7.938-0.247,11.569,1.074c2.006,0.73,3.977,1.492,5.9,2.423c1.845,0.893,3.272,2.059,4.656,3.559
		c1.35,1.463,2.389,3.37,3.277,5.146c0.419,0.838,0.913,1.723,1.586,2.387c0.792,0.784,1.585,0.923,1.076,2.202
		c-0.324,0.815-1.446,1.522-2.101,2.058c-0.876,0.716-1.415,1.072-1.813,2.167c-0.121,0.334-0.155,1.029,0.218,1.213
		c0.403,0.2,0.93-0.361,1.175-0.606c0.668-0.668,1.148-1.601,1.716-2.359c0.565-0.754,1.181-1.287,2.034-1.674
		c0.854-0.387,1.74-0.724,2.564-1.17c1.769-0.958,3.46-2.048,5.288-2.891c1.869-0.862,3.755-1.417,5.824-1.56
		c1.921-0.133,3.896,0.341,5.751,0.777c0.944,0.222,1.89,0.444,2.834,0.667c0.904,0.213,2.026,0.31,2.881,0.662
		c1.876,0.773,3.542,1.558,5.041,2.958c2.917,2.726,4.543,6.705,5.669,10.458c1.144,3.807,0.768,8.063-1.214,11.527
		c-0.952,1.663-2.053,3.213-3.32,4.652c-0.641,0.726-1.325,1.429-2.033,2.089c-0.748,0.698-1.413,1.505-2.158,2.19
		c0.655,0.42,2.054-0.175,2.772-0.335c0.916-0.204,1.85-0.428,2.781-0.544c0.457-0.058,1.186-0.176,1.607,0.094
		c0.373,0.239,0.447,0.793,0.533,1.179c0.241,1.081,0.797,1.814,1.512,2.639c0.641,0.739,1.231,1.519,1.868,2.261
		c0.482,0.561,1.181,1.552,0.017,1.519c-0.929-0.026-1.966-0.19-1.756,1.081c0.106,0.641,1.899,1.086,2.42,1.367
		c0.91,0.489,1.758,1.048,2.577,1.677c0.6,0.461,1.764,1.191,1.649,2.076c-0.259,0.145-0.579,0.087-0.87,0.087
		c-0.258,0-1.093-0.133-1.271,0.045c-0.273,0.274,0.036,0.768,0.24,1.03c0.586,0.751,1.207,1.463,1.882,2.136
		c1.537,1.537,2.545,3.353,3.558,5.266c0.835,1.578,1.555,3.776,1.716,5.56c0.048,0.54,0.104,1.059-0.014,1.596
		c-0.129,0.588-0.323,0.611-0.873,0.611c-0.817,0-1.979,0.123-2.707,0.524c0.301,0.499,1.947,0.375,2.533,0.611
		c0.758,0.305,1.731,0.903,2.286,1.504c1.318,1.429,2.564,2.856,3.567,4.527c0.585,0.975,2.35,4.248,0.349,4.548
		c-1.066,0.161-2.004,0.358-3.029,0.682c-0.648,0.205-1.724,0.714-1.864,1.402c0.79,0.951,2.426,0.717,3.533,0.838
		c1.25,0.138,2.476,0.593,3.592,1.152c1.737,0.87,3.338,2.056,4.752,3.381c1.41,1.321,2.949,2.693,3.993,4.335
		C480.486,241.22,481.207,242.078,481.153,242.381z M312.077,219.85c-0.232-0.233-0.466-0.466-0.699-0.699
		c-1.084,0-1.972,0.165-3.024,0.409c-0.903,0.209-1.765,0.225-2.671,0.042c-2.032-0.412-1.797-3.157-2.848-4.472
		c-1.172-1.466-2.761-3.212-4.837-2.805c-1.801,0.353-1.869,3.448-1.812,4.81c0.045,1.078,0.092,2.156,0.151,3.233
		c0.04,0.723,0.208,1.859,0.571,2.497c0.547,0.96,1.104,1.424,2.262,1.19c0.487-0.099,0.882-0.091,1.379-0.05
		c0.459,0.039,0.803,0.386,1.229,0.386C305.668,224.391,308.172,219.85,312.077,219.85z M373.187,202.727
		c-0.305-0.797-0.647-1.629-0.854-2.457c-0.481-1.923-0.91-3.869-1.493-5.764c-0.51-1.657-1.309-3.778-2.799-4.799
		c-1.613-1.104-3.237-2.24-5.133-2.809c-1.049-0.314-2.079-0.59-3.147-0.828c-0.766-0.169-1.984-0.237-2.707,0.154
		c-1.79,0.97-1.495,3.837,0.349,4.455c1.082-0.057,1.969-0.167,3.015-0.438c1.05-0.272,1.712-0.269,2.77,0.033
		c0.999,0.285,1.971,0.607,2.936,0.994c0.479,0.191,0.778,0.198,1.105,0.635c0.132,0.175,0.672,0.677,0.394,0.873
		c-0.233,0.165-0.894-0.357-1.119-0.444c-0.474-0.182-0.924-0.351-1.416-0.474c-1.768-0.443-4.169-0.89-5.891-0.148
		c-0.8,0.345-1.63,1.178-2.018,1.954c-0.22,0.437-0.474,0.928-0.474,1.424c0,0.399,0.116,0.785,0.087,1.182
		c-0.172,0.113-0.399,0.007-0.542,0.1c-0.217,0.14-0.434,0.28-0.649,0.42c-0.305,0.196-0.622,0.38-0.91,0.599
		c-0.81,0.614-1.619,1.227-2.428,1.841c-0.709,0.537-1.396,1.105-2.094,1.657c-0.397,0.314-1.887,0.995-1.498,1.67
		c1.488-0.188,2.782-1.067,4.206-1.511c0.993-0.31,1.985-0.548,3.005-0.752c0.996-0.2,1.693,0.155,2.417,0.788
		c0.775,0.678,1.574,1.291,2.422,1.876c0.769,0.531,1.872,0.786,2.743,1.144c1.663,0.683,3.814,1.217,5.543,0.568
		c1.947-0.731,3.458,0.125,5.165,0.945C374.296,204.833,373.457,203.436,373.187,202.727z M435.478,161.493
		c0-0.99-1.342-1.25-2.051-1.453c-1.825-0.521-3.941,0.255-5.648,0.769c-0.505,0.152-1.07,0.169-1.558,0.353
		c-0.401,0.152-0.704,0.476-1.068,0.695c-0.456,0.273-0.898,0.335-1.377,0.528c-0.457,0.184-0.822,0.529-1.188,0.844
		c-0.58,0.498-1.225,1.737-1.407,2.47c-0.227,0.91-0.393,1.909-0.846,2.725c-0.496,0.893-0.266,1.826-0.156,2.8
		c0.045,0.398-0.009,1.09,0.279,1.378c0.343,0.343,0.682,0.453,0.786,0.96c0.089,0.43-0.057,1.032,0.192,1.425
		c0.248,0.389,0.483,0.786,0.76,1.154c0.288,0.384,0.517,0.733,0.989,0.892c0.447,0.151,0.546,0.584,0.68,0.984
		c0.41-0.01,0.693,0.591,1.002,0.837c0.237,0.19,0.613,0.333,0.92,0.297c0-1.288,0.035-2.112-0.777-3.156
		c-0.379-0.487-0.621-0.97-0.947-1.485c-0.268-0.42-0.758-0.963-0.915-1.439c-0.2-0.604-0.14-1.191-0.289-1.787
		c-0.143-0.57-0.334-1.127-0.46-1.7c-0.171-0.769,0.099-0.928,0.506-1.525c0.313-0.458,0.383-0.962,0.491-1.498
		c0.116-0.579,0.25-0.99,0.676-1.415c0.283-0.283,0.751-0.4,1.062-0.713c0.672-0.677,1.805-0.792,2.539-1.421
		c0.754-0.645,1.643-0.365,2.574-0.365c0.556,0,0.841-0.216,1.35-0.362c0.47-0.135,0.838-0.109,1.315-0.168
		C433.416,162.053,435.478,162.195,435.478,161.493z"/>
</g>
</svg>
