<?xml version="1.0" encoding="UTF-8" standalone="no"?>
<!-- Created with Inkscape (http://www.inkscape.org/) -->

<svg
   xmlns:dc="http://purl.org/dc/elements/1.1/"
   xmlns:cc="http://creativecommons.org/ns#"
   xmlns:rdf="http://www.w3.org/1999/02/22-rdf-syntax-ns#"
   xmlns:svg="http://www.w3.org/2000/svg"
   xmlns="http://www.w3.org/2000/svg"
   xmlns:sodipodi="http://sodipodi.sourceforge.net/DTD/sodipodi-0.dtd"
   xmlns:inkscape="http://www.inkscape.org/namespaces/inkscape"
   id="svg2010"
   sodipodi:version="0.32"
   inkscape:version="0.92.4 (5da689c313, 2019-01-14)"
   width="471.42999"
   height="300"
   version="1.0"
   sodipodi:docname="Jõgevamaa_lipp.svg">
  <metadata
     id="metadata2015">
    <rdf:RDF>
      <cc:Work
         rdf:about="">
        <dc:format>image/svg+xml</dc:format>
        <dc:type
           rdf:resource="http://purl.org/dc/dcmitype/StillImage" />
      </cc:Work>
    </rdf:RDF>
  </metadata>
  <defs
     id="defs2013" />
  <sodipodi:namedview
     inkscape:window-height="1017"
     inkscape:window-width="1920"
     inkscape:pageshadow="2"
     inkscape:pageopacity="0.0"
     guidetolerance="10.0"
     gridtolerance="10.0"
     objecttolerance="10.0"
     borderopacity="1.0"
     bordercolor="#666666"
     pagecolor="#ffffff"
     id="base"
     width="471.43px"
     height="300px"
     inkscape:zoom="1.7066667"
     inkscape:cx="233.20649"
     inkscape:cy="149.36835"
     inkscape:window-x="-8"
     inkscape:window-y="-8"
     inkscape:current-layer="svg2010"
     showgrid="false"
     inkscape:window-maximized="1" />
  <g
     id="g2313"
     transform="matrix(1.714291,0,0,1.714292,-1.386987e-6,-1.086921e-3)">
    <rect
       id="green Stripe"
       style="fill:#009739;fill-opacity:1"
       y="87.500328"
       x="1.9417648e-006"
       height="87.499664"
       width="275" />
    <rect
       id="white Stripe"
       style="fill:white"
       y="0.00066018361"
       x="1.9417648e-006"
       height="87.499664"
       width="275" />
  </g>
  <g
     id="g8070"
     transform="matrix(0.425532,0,0,0.425532,188.9055,14.99986)">
    <g
       style="fill:black;fill-opacity:1;stroke:none"
       transform="matrix(1.032262,0,0,1.031077,-1.000094,-0.772913)"
       id="g6215">
      <path
         style="fill:#009739;fill-opacity:1;fill-rule:evenodd;stroke:none;stroke-width:0.99982524;stroke-linecap:butt;stroke-linejoin:miter;stroke-miterlimit:4;stroke-dasharray:none;stroke-opacity:1"
         d="M 213.59375,37.65625 C 212.75903,38.605372 211.918,39.401385 211.09375,40.4375 C 209.18672,42.834723 207.30007,45.412466 205.4375,48 C 203.57493,50.587534 201.7093,53.169186 199.875,55.5625 C 198.0407,57.955814 196.22847,60.185434 194.40625,62 C 192.67926,63.719723 190.73192,65.293398 188.65625,66.8125 C 186.58058,68.331602 184.38274,69.788615 182.125,71.28125 C 179.86726,72.773885 177.55444,74.297178 175.28125,75.9375 C 173.00806,77.577822 170.77827,79.319088 168.65625,81.28125 C 166.58244,83.198838 164.72872,85.296671 163.03125,87.4375 C 161.33378,89.578329 159.79775,91.771554 158.3125,93.9375 C 156.82725,96.103446 155.40591,98.225808 153.96875,100.21875 C 152.53159,102.21169 151.05319,104.06569 149.5,105.6875 C 147.99266,107.26144 146.19512,108.83016 144.21875,110.375 C 142.24238,111.91984 140.08801,113.4634 137.875,115.03125 C 135.66199,116.5991 133.40476,118.16953 131.1875,119.8125 C 128.97024,121.45547 126.80162,123.16732 124.8125,124.9375 C 122.72312,126.79691 120.75284,128.87098 118.84375,131.0625 C 116.93466,133.25402 115.08537,135.54571 113.25,137.84375 C 111.41463,140.14179 109.58695,142.44605 107.71875,144.625 C 105.85055,146.80395 103.94509,148.85324 101.9375,150.6875 C 99.931917,152.51994 97.69098,154.31195 95.3125,156.09375 C 92.93402,157.87555 90.434231,159.66461 87.90625,161.5 C 85.378269,163.33539 82.829086,165.22555 80.375,167.21875 C 77.920914,169.21195 75.531795,171.30727 73.375,173.5625 C 71.2182,175.81772 69.230284,178.09381 67.34375,180.34375 C 65.457216,182.59369 63.686875,184.8143 61.9375,187 C 60.188125,189.1857 58.464073,191.31252 56.71875,193.375 C 54.973427,195.43748 53.218126,197.4322 51.34375,199.3125 C 49.46938,201.19281 47.423973,202.749 45.28125,204.125 C 43.138527,205.501 40.881227,206.69523 38.625,207.90625 C 36.368773,209.11727 34.089881,210.33339 31.875,211.71875 C 29.660119,213.10411 27.518687,214.66348 25.5,216.5625 C 23.061449,218.8565 21.236032,220.92556 19.8125,222.8125 C 18.838469,224.10361 18.252593,225.20635 17.59375,226.34375 C 38.734241,248.84277 76.458949,257.58993 106.96875,273.75 C 150.39317,251.67808 210.60599,242.47213 213.59375,189.71875 L 213.59375,37.65625 z "
         id="path6213" />
      <path
         style="fill:white;fill-opacity:1;fill-rule:evenodd;stroke:none;stroke-width:0.99982524;stroke-linecap:butt;stroke-linejoin:miter;stroke-miterlimit:4;stroke-dasharray:none;stroke-opacity:1"
         d="M 213.59375,24.15625 C 211.98674,25.379481 210.37352,26.612135 208.875,28 C 206.90731,29.822383 205.00078,32.040277 203.09375,34.4375 C 201.18672,36.834723 199.30007,39.412466 197.4375,42 C 195.57493,44.587534 193.7093,47.169186 191.875,49.5625 C 190.0407,51.955814 188.22847,54.185435 186.40625,56 C 184.67926,57.719722 182.73192,59.293398 180.65625,60.8125 C 178.58058,62.331602 176.38274,63.788615 174.125,65.28125 C 171.86726,66.773885 169.55444,68.297178 167.28125,69.9375 C 165.00806,71.577822 162.77827,73.319087 160.65625,75.28125 C 158.58244,77.198839 156.72872,79.296672 155.03125,81.4375 C 153.33378,83.578328 151.79775,85.771554 150.3125,87.9375 C 148.82725,90.103446 147.40591,92.225808 145.96875,94.21875 C 144.53159,96.211692 143.05319,98.065684 141.5,99.6875 C 139.99266,101.26144 138.19512,102.83016 136.21875,104.375 C 134.24238,105.91984 132.08801,107.4634 129.875,109.03125 C 127.66199,110.5991 125.40476,112.16953 123.1875,113.8125 C 120.97024,115.45547 118.80162,117.16732 116.8125,118.9375 C 114.72312,120.7969 112.75284,122.87098 110.84375,125.0625 C 108.93466,127.25402 107.08537,129.54571 105.25,131.84375 C 103.41463,134.14179 101.58695,136.44605 99.71875,138.625 C 97.850552,140.80395 95.945088,142.85324 93.9375,144.6875 C 91.931917,146.51994 89.69098,148.31195 87.3125,150.09375 C 84.93402,151.87555 82.43423,153.66461 79.90625,155.5 C 77.37827,157.33539 74.829085,159.22555 72.375,161.21875 C 69.920915,163.21195 67.531795,165.30727 65.375,167.5625 C 63.2182,169.81772 61.230285,172.09381 59.34375,174.34375 C 57.457215,176.59369 55.686875,178.8143 53.9375,181 C 52.188125,183.1857 50.464072,185.31252 48.71875,187.375 C 46.973428,189.43748 45.218126,191.4322 43.34375,193.3125 C 41.46938,195.19281 39.420824,196.74565 37.28125,198.125 C 35.141676,199.50435 32.909958,200.7238 30.65625,201.9375 C 28.402542,203.1512 26.12302,204.36665 23.90625,205.75 C 21.68948,207.13335 19.528762,208.6742 17.5,210.5625 C 15.178917,212.60424 13.307209,214.57771 11.8125,216.40625 C 11.405431,216.90423 11.228519,217.27718 10.875,217.75 C 12.865173,220.8225 15.100874,223.69068 17.59375,226.34375 C 18.252593,225.20635 18.838469,224.10361 19.8125,222.8125 C 21.236032,220.92556 23.061449,218.8565 25.5,216.5625 C 27.518687,214.66348 29.660119,213.10411 31.875,211.71875 C 34.089881,210.33339 36.368773,209.11727 38.625,207.90625 C 40.881227,206.69523 43.138527,205.501 45.28125,204.125 C 47.423973,202.749 49.46938,201.19281 51.34375,199.3125 C 53.218126,197.4322 54.973427,195.43748 56.71875,193.375 C 58.464073,191.31252 60.188125,189.1857 61.9375,187 C 63.686875,184.8143 65.457216,182.59369 67.34375,180.34375 C 69.230284,178.09381 71.2182,175.81772 73.375,173.5625 C 75.531795,171.30727 77.920914,169.21195 80.375,167.21875 C 82.829086,165.22555 85.378269,163.33539 87.90625,161.5 C 90.434231,159.66461 92.93402,157.87555 95.3125,156.09375 C 97.69098,154.31195 99.931917,152.51994 101.9375,150.6875 C 103.94509,148.85324 105.85055,146.80395 107.71875,144.625 C 109.58695,142.44605 111.41463,140.14179 113.25,137.84375 C 115.08537,135.54571 116.93466,133.25402 118.84375,131.0625 C 120.75284,128.87098 122.72312,126.79691 124.8125,124.9375 C 126.80162,123.16732 128.97024,121.45547 131.1875,119.8125 C 133.40476,118.16953 135.66199,116.5991 137.875,115.03125 C 140.08801,113.4634 142.24238,111.91984 144.21875,110.375 C 146.19512,108.83016 147.99266,107.26144 149.5,105.6875 C 151.05319,104.06569 152.53159,102.21169 153.96875,100.21875 C 155.40591,98.225808 156.82725,96.103446 158.3125,93.9375 C 159.79775,91.771554 161.33378,89.578329 163.03125,87.4375 C 164.72872,85.296671 166.58244,83.198838 168.65625,81.28125 C 170.77827,79.319088 173.00806,77.577822 175.28125,75.9375 C 177.55444,74.297178 179.86726,72.773885 182.125,71.28125 C 184.38274,69.788615 186.58058,68.331602 188.65625,66.8125 C 190.73192,65.293398 192.67926,63.719723 194.40625,62 C 196.22847,60.185434 198.0407,57.955814 199.875,55.5625 C 201.7093,53.169186 203.57493,50.587534 205.4375,48 C 207.30007,45.412466 209.18672,42.834723 211.09375,40.4375 C 211.918,39.401385 212.75903,38.605372 213.59375,37.65625 L 213.59375,24.15625 z "
         id="path6211" />
      <path
         style="fill:#0072ce;fill-opacity:1;fill-rule:evenodd;stroke:none;stroke-width:0.99982524;stroke-linecap:butt;stroke-linejoin:miter;stroke-miterlimit:4;stroke-dasharray:none;stroke-opacity:1"
         d="M 213.59375,12.4375 C 213.42036,12.556009 213.26835,12.662166 213.09375,12.78125 C 211.07499,14.158148 208.97532,15.576869 206.90625,17.09375 C 204.83718,18.610631 202.7893,20.22706 200.875,22 C 198.90731,23.822383 197.00078,26.040277 195.09375,28.4375 C 193.18672,30.834723 191.30007,33.412466 189.4375,36 C 187.57493,38.587534 185.7093,41.169185 183.875,43.5625 C 182.0407,45.955815 180.22847,48.185434 178.40625,50 C 176.67926,51.719723 174.73192,53.293398 172.65625,54.8125 C 170.58058,56.331602 168.38274,57.788615 166.125,59.28125 C 163.86726,60.773885 161.55444,62.297178 159.28125,63.9375 C 157.00806,65.577822 154.77827,67.319087 152.65625,69.28125 C 150.58244,71.198838 148.72872,73.296672 147.03125,75.4375 C 145.33378,77.578328 143.79775,79.771553 142.3125,81.9375 C 140.82725,84.103447 139.40591,86.225808 137.96875,88.21875 C 136.53159,90.211692 135.05319,92.065685 133.5,93.6875 C 131.99266,95.261439 130.19512,96.830157 128.21875,98.375 C 126.24238,99.919843 124.08801,101.4634 121.875,103.03125 C 119.66199,104.5991 117.40476,106.16953 115.1875,107.8125 C 112.97024,109.45547 110.80162,111.16732 108.8125,112.9375 C 106.72312,114.79691 104.75284,116.87098 102.84375,119.0625 C 100.93466,121.25402 99.085367,123.54571 97.25,125.84375 C 95.414633,128.14179 93.586948,130.44605 91.71875,132.625 C 89.850552,134.80395 87.945088,136.85324 85.9375,138.6875 C 83.931917,140.51994 81.69098,142.31195 79.3125,144.09375 C 76.93402,145.87555 74.43423,147.66461 71.90625,149.5 C 69.37827,151.33539 66.829085,153.22555 64.375,155.21875 C 61.920915,157.21195 59.531794,159.30727 57.375,161.5625 C 55.2182,163.81772 53.230284,166.09381 51.34375,168.34375 C 49.457216,170.59369 47.686875,172.8143 45.9375,175 C 44.188125,177.1857 42.464073,179.31252 40.71875,181.375 C 38.973427,183.43748 37.218126,185.4322 35.34375,187.3125 C 33.46938,189.19281 31.422602,190.77186 29.28125,192.1875 C 27.139898,193.60314 24.88013,194.85102 22.625,196.09375 C 20.36987,197.33648 18.121954,198.57592 15.90625,199.9375 C 13.690546,201.29908 11.523074,202.79032 9.5,204.5625 C 7.9534628,205.91724 6.9206471,207.1432 5.90625,208.375 C 7.276414,211.7449 8.9789084,214.82274 10.875,217.75 C 11.228519,217.27718 11.405431,216.90423 11.8125,216.40625 C 13.307209,214.57771 15.178917,212.60424 17.5,210.5625 C 19.528762,208.6742 21.68948,207.13335 23.90625,205.75 C 26.12302,204.36665 28.402542,203.1512 30.65625,201.9375 C 32.909958,200.7238 35.141676,199.50435 37.28125,198.125 C 39.420824,196.74565 41.46938,195.19281 43.34375,193.3125 C 45.218126,191.4322 46.973428,189.43748 48.71875,187.375 C 50.464072,185.31252 52.188125,183.1857 53.9375,181 C 55.686875,178.8143 57.457215,176.59369 59.34375,174.34375 C 61.230285,172.09381 63.2182,169.81772 65.375,167.5625 C 67.531795,165.30727 69.920915,163.21195 72.375,161.21875 C 74.829085,159.22555 77.37827,157.33539 79.90625,155.5 C 82.43423,153.66461 84.93402,151.87555 87.3125,150.09375 C 89.69098,148.31195 91.931917,146.51994 93.9375,144.6875 C 95.945088,142.85324 97.850552,140.80395 99.71875,138.625 C 101.58695,136.44605 103.41463,134.14179 105.25,131.84375 C 107.08537,129.54571 108.93466,127.25402 110.84375,125.0625 C 112.75284,122.87098 114.72312,120.7969 116.8125,118.9375 C 118.80162,117.16732 120.97024,115.45547 123.1875,113.8125 C 125.40476,112.16953 127.66199,110.5991 129.875,109.03125 C 132.08801,107.4634 134.24238,105.91984 136.21875,104.375 C 138.19512,102.83016 139.99266,101.26144 141.5,99.6875 C 143.05319,98.065684 144.53159,96.211692 145.96875,94.21875 C 147.40591,92.225808 148.82725,90.103446 150.3125,87.9375 C 151.79775,85.771554 153.33378,83.578328 155.03125,81.4375 C 156.72872,79.296672 158.58244,77.198839 160.65625,75.28125 C 162.77827,73.319087 165.00806,71.577822 167.28125,69.9375 C 169.55444,68.297178 171.86726,66.773885 174.125,65.28125 C 176.38274,63.788615 178.58058,62.331602 180.65625,60.8125 C 182.73192,59.293398 184.67926,57.719722 186.40625,56 C 188.22847,54.185435 190.0407,51.955814 191.875,49.5625 C 193.7093,47.169186 195.57493,44.587534 197.4375,42 C 199.30007,39.412466 201.18672,36.834723 203.09375,34.4375 C 205.00078,32.040277 206.90731,29.822383 208.875,28 C 210.37352,26.612135 211.98674,25.379481 213.59375,24.15625 L 213.59375,12.4375 z "
         id="path6209" />
      <path
         style="fill:white;fill-opacity:1;fill-rule:evenodd;stroke:none;stroke-width:0.99982524;stroke-linecap:butt;stroke-linejoin:miter;stroke-miterlimit:4;stroke-dasharray:none;stroke-opacity:1"
         d="M 212.46875,1.25 C 211.89294,1.7367561 211.43791,2.238877 210.8125,2.71875 C 209.04916,4.0717421 207.11251,5.4043522 205.09375,6.78125 C 203.07499,8.1581478 200.97532,9.5768695 198.90625,11.09375 C 196.83718,12.61063 194.78929,14.22706 192.875,16 C 190.90731,17.822383 189.00078,20.040277 187.09375,22.4375 C 185.18672,24.834723 183.30007,27.412466 181.4375,30 C 179.57493,32.587534 177.7093,35.169185 175.875,37.5625 C 174.0407,39.955815 172.22847,42.185434 170.40625,44 C 168.67926,45.719722 166.73192,47.293398 164.65625,48.8125 C 162.58058,50.331602 160.38274,51.788615 158.125,53.28125 C 155.86726,54.773885 153.55444,56.297178 151.28125,57.9375 C 149.00806,59.577822 146.77827,61.319087 144.65625,63.28125 C 142.58244,65.198839 140.72872,67.296671 139.03125,69.4375 C 137.33378,71.578329 135.79775,73.771554 134.3125,75.9375 C 132.82725,78.103446 131.40591,80.225809 129.96875,82.21875 C 128.53159,84.211691 127.05319,86.065687 125.5,87.6875 C 123.99266,89.261441 122.19512,90.830156 120.21875,92.375 C 118.24238,93.919844 116.08801,95.463397 113.875,97.03125 C 111.66199,98.599103 109.40476,100.16953 107.1875,101.8125 C 104.97024,103.45547 102.80162,105.16732 100.8125,106.9375 C 98.723122,108.79691 96.752843,110.87098 94.84375,113.0625 C 92.934657,115.25402 91.085367,117.54571 89.25,119.84375 C 87.414633,122.14179 85.586948,124.44605 83.71875,126.625 C 81.850552,128.80395 79.945086,130.85324 77.9375,132.6875 C 75.931917,134.51993 73.69098,136.31195 71.3125,138.09375 C 68.93402,139.87555 66.43423,141.66461 63.90625,143.5 C 61.37827,145.33539 58.829085,147.22555 56.375,149.21875 C 53.920915,151.21195 51.531795,153.30727 49.375,155.5625 C 47.2182,157.81772 45.230285,160.09381 43.34375,162.34375 C 41.457215,164.59369 39.686875,166.8143 37.9375,169 C 36.188125,171.1857 34.464072,173.31252 32.71875,175.375 C 30.973428,177.43748 29.218126,179.4322 27.34375,181.3125 C 25.46938,183.19281 23.420824,184.74565 21.28125,186.125 C 19.141676,187.50435 16.909958,188.7238 14.65625,189.9375 C 12.402542,191.1512 10.12302,192.36665 7.90625,193.75 C 6.1027491,194.87545 4.3758793,196.21725 2.6875,197.65625 C 3.4618097,201.4736 4.5534142,205.04772 5.90625,208.375 C 6.9206471,207.1432 7.9534628,205.91724 9.5,204.5625 C 11.523074,202.79032 13.690546,201.29908 15.90625,199.9375 C 18.121954,198.57592 20.36987,197.33648 22.625,196.09375 C 24.88013,194.85102 27.139898,193.60314 29.28125,192.1875 C 31.422602,190.77186 33.46938,189.19281 35.34375,187.3125 C 37.218126,185.4322 38.973427,183.43748 40.71875,181.375 C 42.464073,179.31252 44.188125,177.1857 45.9375,175 C 47.686875,172.8143 49.457216,170.59369 51.34375,168.34375 C 53.230284,166.09381 55.2182,163.81772 57.375,161.5625 C 59.531794,159.30727 61.920915,157.21195 64.375,155.21875 C 66.829085,153.22555 69.37827,151.33539 71.90625,149.5 C 74.43423,147.66461 76.93402,145.87555 79.3125,144.09375 C 81.69098,142.31195 83.931917,140.51994 85.9375,138.6875 C 87.945088,136.85324 89.850552,134.80395 91.71875,132.625 C 93.586948,130.44605 95.414633,128.14179 97.25,125.84375 C 99.085367,123.54571 100.93466,121.25402 102.84375,119.0625 C 104.75284,116.87098 106.72312,114.79691 108.8125,112.9375 C 110.80162,111.16732 112.97024,109.45547 115.1875,107.8125 C 117.40476,106.16953 119.66199,104.5991 121.875,103.03125 C 124.08801,101.4634 126.24238,99.919843 128.21875,98.375 C 130.19512,96.830157 131.99266,95.261439 133.5,93.6875 C 135.05319,92.065685 136.53159,90.211692 137.96875,88.21875 C 139.40591,86.225808 140.82725,84.103447 142.3125,81.9375 C 143.79775,79.771553 145.33378,77.578328 147.03125,75.4375 C 148.72872,73.296672 150.58244,71.198838 152.65625,69.28125 C 154.77827,67.319087 157.00806,65.577822 159.28125,63.9375 C 161.55444,62.297178 163.86726,60.773885 166.125,59.28125 C 168.38274,57.788615 170.58058,56.331602 172.65625,54.8125 C 174.73192,53.293398 176.67926,51.719723 178.40625,50 C 180.22847,48.185434 182.0407,45.955815 183.875,43.5625 C 185.7093,41.169185 187.57493,38.587534 189.4375,36 C 191.30007,33.412466 193.18672,30.834723 195.09375,28.4375 C 197.00078,26.040277 198.90731,23.822383 200.875,22 C 202.7893,20.22706 204.83718,18.610631 206.90625,17.09375 C 208.97532,15.576869 211.07499,14.158148 213.09375,12.78125 C 213.26835,12.662166 213.42036,12.556009 213.59375,12.4375 L 213.59375,1.25 L 212.46875,1.25 z "
         id="path6207" />
      <path
         style="fill:#0072ce;fill-opacity:1;fill-rule:evenodd;stroke:none;stroke-width:0.99982524;stroke-linecap:butt;stroke-linejoin:miter;stroke-miterlimit:4;stroke-dasharray:none;stroke-opacity:1"
         d="M 1.46875,186.875 L 1.46875,189.15625 C 1.6985162,192.14418 2.1368159,194.94137 2.6875,197.65625 C 4.3758793,196.21725 6.1027491,194.87545 7.90625,193.75 C 10.12302,192.36665 12.402542,191.1512 14.65625,189.9375 C 16.909958,188.7238 19.141676,187.50435 21.28125,186.125 C 23.420824,184.74565 25.46938,183.19281 27.34375,181.3125 C 29.218126,179.4322 30.973428,177.43748 32.71875,175.375 C 34.464072,173.31252 36.188125,171.1857 37.9375,169 C 39.686875,166.8143 41.457215,164.59369 43.34375,162.34375 C 45.230285,160.09381 47.2182,157.81772 49.375,155.5625 C 51.531795,153.30727 53.920915,151.21195 56.375,149.21875 C 58.829085,147.22555 61.37827,145.33539 63.90625,143.5 C 66.43423,141.66461 68.93402,139.87555 71.3125,138.09375 C 73.69098,136.31195 75.931917,134.51993 77.9375,132.6875 C 79.945086,130.85324 81.850552,128.80395 83.71875,126.625 C 85.586948,124.44605 87.414633,122.14179 89.25,119.84375 C 91.085367,117.54571 92.934657,115.25402 94.84375,113.0625 C 96.752843,110.87098 98.723122,108.79691 100.8125,106.9375 C 102.80162,105.16732 104.97024,103.45547 107.1875,101.8125 C 109.40476,100.16953 111.66199,98.599103 113.875,97.03125 C 116.08801,95.463397 118.24238,93.919844 120.21875,92.375 C 122.19512,90.830156 123.99266,89.261441 125.5,87.6875 C 127.05319,86.065687 128.53159,84.211691 129.96875,82.21875 C 131.40591,80.225809 132.82725,78.103446 134.3125,75.9375 C 135.79775,73.771554 137.33378,71.578329 139.03125,69.4375 C 140.72872,67.296671 142.58244,65.198839 144.65625,63.28125 C 146.77827,61.319087 149.00806,59.577822 151.28125,57.9375 C 153.55444,56.297178 155.86726,54.773885 158.125,53.28125 C 160.38274,51.788615 162.58058,50.331602 164.65625,48.8125 C 166.73192,47.293398 168.67926,45.719722 170.40625,44 C 172.22847,42.185434 174.0407,39.955815 175.875,37.5625 C 177.7093,35.169185 179.57493,32.587534 181.4375,30 C 183.30007,27.412466 185.18672,24.834723 187.09375,22.4375 C 189.00078,20.040277 190.90731,17.822383 192.875,16 C 194.78929,14.22706 196.83718,12.61063 198.90625,11.09375 C 200.97532,9.5768695 203.07499,8.1581478 205.09375,6.78125 C 207.11251,5.4043522 209.04916,4.0717421 210.8125,2.71875 C 211.43791,2.238877 211.89294,1.7367561 212.46875,1.25 L 196.40625,1.25 C 194.59631,2.4836679 192.74706,3.7442138 190.90625,5.09375 C 188.83718,6.6106305 186.7893,8.2270598 184.875,10 C 182.90731,11.822383 181.00078,14.040277 179.09375,16.4375 C 177.18672,18.834723 175.30007,21.412466 173.4375,24 C 171.57493,26.587534 169.7093,29.169185 167.875,31.5625 C 166.0407,33.955815 164.22847,36.185434 162.40625,38 C 160.67926,39.719723 158.73192,41.293398 156.65625,42.8125 C 154.58058,44.331602 152.38274,45.788615 150.125,47.28125 C 147.86726,48.773885 145.55444,50.297178 143.28125,51.9375 C 141.00806,53.577822 138.77827,55.319088 136.65625,57.28125 C 134.58244,59.198839 132.72872,61.296671 131.03125,63.4375 C 129.33378,65.578329 127.79775,67.771554 126.3125,69.9375 C 124.82725,72.103446 123.40591,74.225808 121.96875,76.21875 C 120.53159,78.211692 119.05319,80.065685 117.5,81.6875 C 115.99266,83.261441 114.19512,84.830156 112.21875,86.375 C 110.24238,87.919844 108.08801,89.463398 105.875,91.03125 C 103.66199,92.599102 101.40476,94.169534 99.1875,95.8125 C 96.970242,97.455466 94.80162,99.167316 92.8125,100.9375 C 90.72312,102.79691 88.752844,104.87098 86.84375,107.0625 C 84.934656,109.25402 83.085367,111.54571 81.25,113.84375 C 79.414633,116.14179 77.586948,118.44605 75.71875,120.625 C 73.850552,122.80395 71.945087,124.85324 69.9375,126.6875 C 67.931917,128.51993 65.69098,130.31195 63.3125,132.09375 C 60.93402,133.87555 58.43423,135.66461 55.90625,137.5 C 53.37827,139.33539 50.829085,141.22555 48.375,143.21875 C 45.920915,145.21195 43.531795,147.30727 41.375,149.5625 C 39.2182,151.81772 37.230284,154.09381 35.34375,156.34375 C 33.457216,158.59369 31.686875,160.8143 29.9375,163 C 28.188125,165.1857 26.464073,167.31252 24.71875,169.375 C 22.973427,171.43748 21.218126,173.4322 19.34375,175.3125 C 17.46938,177.19281 15.420824,178.74565 13.28125,180.125 C 11.141676,181.50435 8.9099576,182.7238 6.65625,183.9375 C 4.9231584,184.87083 3.1903171,185.86425 1.46875,186.875 z "
         id="path6205" />
      <path
         style="fill:#0072ce;fill-opacity:1;fill-rule:evenodd;stroke:none;stroke-width:0.99982524;stroke-linecap:butt;stroke-linejoin:miter;stroke-miterlimit:4;stroke-dasharray:none;stroke-opacity:1"
         d="M 180.25,1.25 L 2.03125,1.25 L 1.5,176.28125 C 2.7659729,175.57288 4.0628357,174.91049 5.28125,174.125 C 7.4208242,172.74565 9.46938,171.19281 11.34375,169.3125 C 13.218126,167.4322 14.973428,165.43748 16.71875,163.375 C 18.464072,161.31252 20.188125,159.1857 21.9375,157 C 23.686875,154.8143 25.457215,152.59369 27.34375,150.34375 C 29.230285,148.09381 31.2182,145.81772 33.375,143.5625 C 35.531795,141.30727 37.920915,139.21195 40.375,137.21875 C 42.829085,135.22555 45.37827,133.33539 47.90625,131.5 C 50.43423,129.66461 52.93402,127.87555 55.3125,126.09375 C 57.69098,124.31195 59.931917,122.51994 61.9375,120.6875 C 63.945086,118.85324 65.850552,116.80395 67.71875,114.625 C 69.586948,112.44605 71.414633,110.14179 73.25,107.84375 C 75.085367,105.54571 76.934655,103.25402 78.84375,101.0625 C 80.752845,98.87098 82.72312,96.796904 84.8125,94.9375 C 86.80162,93.167316 88.970242,91.455466 91.1875,89.8125 C 93.404758,88.169534 95.661992,86.599103 97.875,85.03125 C 100.08801,83.463397 102.24238,81.919844 104.21875,80.375 C 106.19512,78.830156 107.99266,77.261441 109.5,75.6875 C 111.05319,74.065686 112.53159,72.211692 113.96875,70.21875 C 115.40591,68.225808 116.82725,66.103446 118.3125,63.9375 C 119.79775,61.771554 121.33378,59.578329 123.03125,57.4375 C 124.72872,55.296671 126.58244,53.198839 128.65625,51.28125 C 130.77827,49.319088 133.00806,47.577822 135.28125,45.9375 C 137.55444,44.297178 139.86726,42.773885 142.125,41.28125 C 144.38274,39.788615 146.58058,38.331602 148.65625,36.8125 C 150.73192,35.293398 152.67926,33.719723 154.40625,32 C 156.22847,30.185434 158.0407,27.955815 159.875,25.5625 C 161.7093,23.169185 163.57493,20.587534 165.4375,18 C 167.30007,15.412466 169.18672,12.834723 171.09375,10.4375 C 173.00078,8.0402769 174.90731,5.822383 176.875,4 C 177.94692,3.007236 179.1154,2.1544691 180.25,1.25 z "
         id="path6203" />
      <path
         style="fill:white;fill-opacity:1;fill-rule:evenodd;stroke:none;stroke-width:0.99982524;stroke-linecap:butt;stroke-linejoin:miter;stroke-miterlimit:4;stroke-dasharray:none;stroke-opacity:1"
         d="M 180.25,1.25 C 179.1154,2.1544691 177.94692,3.007236 176.875,4 C 174.90731,5.822383 173.00078,8.0402769 171.09375,10.4375 C 169.18672,12.834723 167.30007,15.412466 165.4375,18 C 163.57493,20.587534 161.7093,23.169185 159.875,25.5625 C 158.0407,27.955815 156.22847,30.185434 154.40625,32 C 152.67926,33.719723 150.73192,35.293398 148.65625,36.8125 C 146.58058,38.331602 144.38274,39.788615 142.125,41.28125 C 139.86726,42.773885 137.55444,44.297178 135.28125,45.9375 C 133.00806,47.577822 130.77827,49.319088 128.65625,51.28125 C 126.58244,53.198839 124.72872,55.296671 123.03125,57.4375 C 121.33378,59.578329 119.79775,61.771554 118.3125,63.9375 C 116.82725,66.103446 115.40591,68.225808 113.96875,70.21875 C 112.53159,72.211692 111.05319,74.065686 109.5,75.6875 C 107.99266,77.261441 106.19512,78.830156 104.21875,80.375 C 102.24238,81.919844 100.08801,83.463397 97.875,85.03125 C 95.661992,86.599103 93.404758,88.169534 91.1875,89.8125 C 88.970242,91.455466 86.80162,93.167316 84.8125,94.9375 C 82.72312,96.796904 80.752845,98.87098 78.84375,101.0625 C 76.934655,103.25402 75.085367,105.54571 73.25,107.84375 C 71.414633,110.14179 69.586948,112.44605 67.71875,114.625 C 65.850552,116.80395 63.945086,118.85324 61.9375,120.6875 C 59.931917,122.51994 57.69098,124.31195 55.3125,126.09375 C 52.93402,127.87555 50.43423,129.66461 47.90625,131.5 C 45.37827,133.33539 42.829085,135.22555 40.375,137.21875 C 37.920915,139.21195 35.531795,141.30727 33.375,143.5625 C 31.2182,145.81772 29.230285,148.09381 27.34375,150.34375 C 25.457215,152.59369 23.686875,154.8143 21.9375,157 C 20.188125,159.1857 18.464072,161.31252 16.71875,163.375 C 14.973428,165.43748 13.218126,167.4322 11.34375,169.3125 C 9.46938,171.19281 7.4208242,172.74565 5.28125,174.125 C 4.0628357,174.91049 2.7659729,175.57288 1.5,176.28125 L 1.46875,186.875 C 3.1903171,185.86425 4.9231584,184.87083 6.65625,183.9375 C 8.9099576,182.7238 11.141676,181.50435 13.28125,180.125 C 15.420824,178.74565 17.46938,177.19281 19.34375,175.3125 C 21.218126,173.4322 22.973427,171.43748 24.71875,169.375 C 26.464073,167.31252 28.188125,165.1857 29.9375,163 C 31.686875,160.8143 33.457216,158.59369 35.34375,156.34375 C 37.230284,154.09381 39.2182,151.81772 41.375,149.5625 C 43.531795,147.30727 45.920915,145.21195 48.375,143.21875 C 50.829085,141.22555 53.37827,139.33539 55.90625,137.5 C 58.43423,135.66461 60.93402,133.87555 63.3125,132.09375 C 65.69098,130.31195 67.931917,128.51993 69.9375,126.6875 C 71.945087,124.85324 73.850552,122.80395 75.71875,120.625 C 77.586948,118.44605 79.414633,116.14179 81.25,113.84375 C 83.085367,111.54571 84.934656,109.25402 86.84375,107.0625 C 88.752844,104.87098 90.72312,102.79691 92.8125,100.9375 C 94.80162,99.167316 96.970242,97.455466 99.1875,95.8125 C 101.40476,94.169534 103.66199,92.599102 105.875,91.03125 C 108.08801,89.463398 110.24238,87.919844 112.21875,86.375 C 114.19512,84.830156 115.99266,83.261441 117.5,81.6875 C 119.05319,80.065685 120.53159,78.211692 121.96875,76.21875 C 123.40591,74.225808 124.82725,72.103446 126.3125,69.9375 C 127.79775,67.771554 129.33378,65.578329 131.03125,63.4375 C 132.72872,61.296671 134.58244,59.198839 136.65625,57.28125 C 138.77827,55.319088 141.00806,53.577822 143.28125,51.9375 C 145.55444,50.297178 147.86726,48.773885 150.125,47.28125 C 152.38274,45.788615 154.58058,44.331602 156.65625,42.8125 C 158.73192,41.293398 160.67926,39.719723 162.40625,38 C 164.22847,36.185434 166.0407,33.955815 167.875,31.5625 C 169.7093,29.169185 171.57493,26.587534 173.4375,24 C 175.30007,21.412466 177.18672,18.834723 179.09375,16.4375 C 181.00078,14.040277 182.90731,11.822383 184.875,10 C 186.7893,8.2270598 188.83718,6.6106305 190.90625,5.09375 C 192.74706,3.7442138 194.59631,2.4836679 196.40625,1.25 L 180.25,1.25 z "
         id="rect1932" />
    </g>
    <path
       sodipodi:nodetypes="ccccsccscsccscsccsc"
       d="M 58.660874,53.447411 L 58.962217,84.654679 L 56.217758,84.654679 L 55.603995,53.310828 C 46.05116,53.547369 37.749466,71.43216 27.683819,71.574001 C 16.584049,71.730414 13.52733,59.333295 21.229252,51.924461 L 21.229252,50.616765 C 13.52733,43.207931 16.584049,30.810812 27.683819,30.967226 C 37.749466,31.109066 46.461384,48.720689 55.395169,49.455239 C 54.539307,40.411378 36.907445,31.70946 36.76544,21.655369 C 36.608847,10.568341 49.020214,7.51513 56.437562,15.208211 L 57.746762,15.208211 C 65.16411,7.51513 77.575473,10.568341 77.418879,21.655369 C 77.276881,31.70946 59.645017,40.411378 58.829426,49.455239 C 67.803484,48.720689 76.515402,31.109067 86.58105,30.967226 C 97.680819,30.810813 100.73754,43.207932 93.035619,50.616766 L 93.035619,51.924462 C 100.73754,59.333296 97.680819,71.730415 86.58105,71.574001 C 76.515402,71.432161 68.213708,53.683953 58.660874,53.447411 z "
       style="fill:#fedd00;fill-opacity:1;fill-rule:evenodd;stroke:#3f3f3f;stroke-width:1.03166938px;stroke-linecap:butt;stroke-linejoin:miter;stroke-opacity:1"
       id="path26125" />
    <g
       transform="matrix(1.032262,0,0,1.008349,-7.243763e-3,10.05192)"
       id="g4925">
      <g
         id="g3977"
         style="fill:yellow;fill-opacity:1;stroke:#3f3f3f;stroke-width:1.03482139;stroke-linecap:round;stroke-linejoin:round;stroke-miterlimit:4;stroke-dasharray:none;stroke-opacity:1"
         transform="matrix(1.001451,0,0,0.93248,19.52322,-36.10583)">
        <path
           style="fill:#fedd00;fill-opacity:1;fill-rule:evenodd;stroke:#3f3f3f;stroke-width:1.00000012;stroke-linecap:round;stroke-linejoin:round;stroke-miterlimit:4;stroke-dasharray:none;stroke-opacity:1"
           d="M 150.4375,105.78125 L 150.4375,121.43189 C 150.4375,122.87835 149.88898,123.86279 149.41609,124.54744 C 145.91821,130.49844 147.90113,137.14997 148.0625,140.5625 L 151.4375,144.6875 L 155.53935,139.12961 C 156.16859,133.37144 156.19365,127.89946 152.8206,124.00461 C 152.49275,123.76563 152.34446,122.98797 152.25,122.0488 L 152.25,105.78125 L 150.4375,105.78125 z "
           transform="matrix(0.998551,0,0,1.072409,10.49881,10.83787)"
           id="path3979"
           sodipodi:nodetypes="cccccccccc" />
        <path
           style="fill:#fedd00;fill-opacity:1;fill-rule:evenodd;stroke:#3f3f3f;stroke-width:1.00000012;stroke-linecap:round;stroke-linejoin:round;stroke-miterlimit:4;stroke-dasharray:none;stroke-opacity:1"
           d="M 157.28125,112.125 L 157.28125,132.03125 C 157.13051,134.76516 152.56308,136.92256 151.21875,140.36309 C 149.63334,137.4872 146.16777,136.36474 145.9375,134.14434 L 145.9375,112.21875 L 144.125,112.21875 L 144.125,139.78125 L 144.07835,143.81613 C 143.98453,145.38439 144.55432,147.047 145.18817,148.35634 C 145.9924,153.53253 148.39497,151.78729 149.46875,156.28125 L 152.9375,156.28125 C 153.73081,150.67227 158.73926,142.83972 158.75174,142.75113 C 158.76422,142.66254 159.06662,142.11369 159.125,140.65625 C 159.18338,139.19881 159.15625,131.6875 159.15625,131.6875 L 159.0625,112.125 L 157.28125,112.125 z "
           transform="matrix(0.998551,0,0,1.072409,10.49881,10.83787)"
           id="path3981"
           sodipodi:nodetypes="ccccccccccczzccc" />
        <path
           style="fill:#fedd00;fill-opacity:1;fill-rule:evenodd;stroke:#3f3f3f;stroke-width:1.00000012;stroke-linecap:round;stroke-linejoin:round;stroke-miterlimit:4;stroke-dasharray:none;stroke-opacity:1"
           d="M 140.21875,115.65625 L 140.21875,144.3125 L 140.25,144.3125 L 140.25,151.5625 C 141.51007,158.83457 148.34522,162.06618 149.375,167.5625 L 153.125,167.5625 C 153.94306,161.77855 163.4345,152.99607 163.65451,145.80902 L 163.625,144.3125 L 163.625,115.65625 L 161.84375,115.65625 L 161.84375,134.375 C 161.83193,136.65826 161.86709,137.8009 161.64823,139.21885 C 161.4283,140.64362 160.86463,141.72435 160.09375,142.375 C 155.61888,146.15202 152.59026,148.55156 151.25,153.4375 C 149.49181,150.30466 145.66306,148.66159 143.84375,146.75 C 142.45337,145.28908 142.10665,143.87555 142,142.5 L 142,115.65625 L 140.21875,115.65625 z "
           transform="matrix(0.998551,0,0,1.072409,10.49881,10.83787)"
           id="path3983"
           sodipodi:nodetypes="cccccccccccsscsccc" />
        <path
           sodipodi:nodetypes="ccccccscsc"
           id="path3985"
           d="M 150.552,180.11299 L 150.552,187.34661 C 151.81024,195.14524 158.63645,198.6057 159.66474,204.5 L 163.41705,204.5 C 164.23393,198.29724 173.38219,188.21951 173.60188,180.51205 L 173.62287,175.49443 L 170.91062,175.97795 C 167.61285,176.56585 161.32499,183.0703 161.54089,189.35677 C 160.74205,186.19227 155.23491,180.73093 153.33564,180.48031 L 150.552,180.11299 z "
           style="fill:#fedd00;fill-opacity:1;fill-rule:evenodd;stroke:#3f3f3f;stroke-width:1.03482139;stroke-linecap:round;stroke-linejoin:round;stroke-miterlimit:4;stroke-dasharray:none;stroke-opacity:1" />
        <path
           sodipodi:nodetypes="ccccccscsc"
           id="path3987"
           d="M 150.552,193.61299 L 150.552,200.84661 C 151.81024,208.64524 158.63645,212.1057 159.66474,218 L 163.41705,218 C 164.23393,211.79724 173.38219,201.71951 173.60188,194.01205 L 173.62287,188.99443 L 170.91062,189.47795 C 167.61285,190.06585 161.32499,196.5703 161.54089,202.85677 C 160.74205,199.69227 155.23491,194.23093 153.33564,193.98031 L 150.552,193.61299 z "
           style="fill:#fedd00;fill-opacity:1;fill-rule:evenodd;stroke:#3f3f3f;stroke-width:1.03482139;stroke-linecap:round;stroke-linejoin:round;stroke-miterlimit:4;stroke-dasharray:none;stroke-opacity:1" />
        <path
           sodipodi:nodetypes="ccccccscsc"
           id="path3989"
           d="M 150.552,207.11299 L 150.552,214.34661 C 151.81024,222.14524 158.63645,225.6057 159.66474,231.5 L 163.41705,231.5 C 164.23393,225.29724 173.38219,215.21951 173.60188,207.51205 L 173.62287,202.49443 L 170.91062,202.97795 C 167.61285,203.56585 161.32499,210.0703 161.54089,216.35677 C 160.74205,213.19227 155.23491,207.73093 153.33564,207.48031 L 150.552,207.11299 z "
           style="fill:#fedd00;fill-opacity:1;fill-rule:evenodd;stroke:#3f3f3f;stroke-width:1.03482139;stroke-linecap:round;stroke-linejoin:round;stroke-miterlimit:4;stroke-dasharray:none;stroke-opacity:1" />
        <path
           sodipodi:nodetypes="cccccsccscsc"
           id="path3991"
           d="M 150.552,220.61299 L 150.552,227.84661 C 151.81024,235.64524 158.63645,239.1057 159.66474,245 L 159.39668,253.57514 L 164.49795,253.50308 C 164.64925,252.35419 164.00549,242.56928 164.61877,241.19419 C 167.31654,235.14531 173.42288,227.29191 173.60188,221.01205 L 173.62287,215.99443 L 170.91062,216.47795 C 167.61285,217.06585 161.32499,223.5703 161.54089,229.85677 C 160.74205,226.69227 155.23491,221.23093 153.33564,220.98031 L 150.552,220.61299 z "
           style="fill:#fedd00;fill-opacity:1;fill-rule:evenodd;stroke:#3f3f3f;stroke-width:1.03482139;stroke-linecap:round;stroke-linejoin:round;stroke-miterlimit:4;stroke-dasharray:none;stroke-opacity:1" />
        <path
           sodipodi:nodetypes="cc"
           id="path3993"
           d="M 161.45056,161.27271 L 161.63099,230.83999"
           style="fill:yellow;fill-opacity:1;fill-rule:evenodd;stroke:#3f3f3f;stroke-width:1.03482139;stroke-linecap:round;stroke-linejoin:round;stroke-miterlimit:4;stroke-dasharray:none;stroke-opacity:1" />
      </g>
      <g
         id="g3911"
         style="fill:yellow;fill-opacity:1;stroke:#3f3f3f;stroke-width:1.03482139;stroke-linecap:round;stroke-linejoin:round;stroke-miterlimit:4;stroke-dasharray:none;stroke-opacity:1"
         transform="matrix(1.001451,0,0,0.93248,-40.56278,15.87725)">
        <path
           style="fill:#fedd00;fill-opacity:1;fill-rule:evenodd;stroke:#3f3f3f;stroke-width:1.00000012;stroke-linecap:round;stroke-linejoin:round;stroke-miterlimit:4;stroke-dasharray:none;stroke-opacity:1"
           d="M 150.4375,105.78125 L 150.4375,121.43189 C 150.4375,122.87835 149.88898,123.86279 149.41609,124.54744 C 145.91821,130.49844 147.90113,137.14997 148.0625,140.5625 L 151.4375,144.6875 L 155.53935,139.12961 C 156.16859,133.37144 156.19365,127.89946 152.8206,124.00461 C 152.49275,123.76563 152.34446,122.98797 152.25,122.0488 L 152.25,105.78125 L 150.4375,105.78125 z "
           transform="matrix(0.998551,0,0,1.072409,10.49881,10.83787)"
           id="path3913"
           sodipodi:nodetypes="cccccccccc" />
        <path
           style="fill:#fedd00;fill-opacity:1;fill-rule:evenodd;stroke:#3f3f3f;stroke-width:1.00000012;stroke-linecap:round;stroke-linejoin:round;stroke-miterlimit:4;stroke-dasharray:none;stroke-opacity:1"
           d="M 157.28125,112.125 L 157.28125,132.03125 C 157.13051,134.76516 152.56308,136.92256 151.21875,140.36309 C 149.63334,137.4872 146.16777,136.36474 145.9375,134.14434 L 145.9375,112.21875 L 144.125,112.21875 L 144.125,139.78125 L 144.07835,143.81613 C 143.98453,145.38439 144.55432,147.047 145.18817,148.35634 C 145.9924,153.53253 148.39497,151.78729 149.46875,156.28125 L 152.9375,156.28125 C 153.73081,150.67227 158.73926,142.83972 158.75174,142.75113 C 158.76422,142.66254 159.06662,142.11369 159.125,140.65625 C 159.18338,139.19881 159.15625,131.6875 159.15625,131.6875 L 159.0625,112.125 L 157.28125,112.125 z "
           transform="matrix(0.998551,0,0,1.072409,10.49881,10.83787)"
           id="path3915"
           sodipodi:nodetypes="ccccccccccczzccc" />
        <path
           style="fill:#fedd00;fill-opacity:1;fill-rule:evenodd;stroke:#3f3f3f;stroke-width:1.00000012;stroke-linecap:round;stroke-linejoin:round;stroke-miterlimit:4;stroke-dasharray:none;stroke-opacity:1"
           d="M 140.21875,115.65625 L 140.21875,144.3125 L 140.25,144.3125 L 140.25,151.5625 C 141.51007,158.83457 148.34522,162.06618 149.375,167.5625 L 153.125,167.5625 C 153.94306,161.77855 163.4345,152.99607 163.65451,145.80902 L 163.625,144.3125 L 163.625,115.65625 L 161.84375,115.65625 L 161.84375,134.375 C 161.83193,136.65826 161.86709,137.8009 161.64823,139.21885 C 161.4283,140.64362 160.86463,141.72435 160.09375,142.375 C 155.61888,146.15202 152.59026,148.55156 151.25,153.4375 C 149.49181,150.30466 145.66306,148.66159 143.84375,146.75 C 142.45337,145.28908 142.10665,143.87555 142,142.5 L 142,115.65625 L 140.21875,115.65625 z "
           transform="matrix(0.998551,0,0,1.072409,10.49881,10.83787)"
           id="path3917"
           sodipodi:nodetypes="cccccccccccsscsccc" />
        <path
           sodipodi:nodetypes="ccccccscsc"
           id="path3919"
           d="M 150.552,180.11299 L 150.552,187.34661 C 151.81024,195.14524 158.63645,198.6057 159.66474,204.5 L 163.41705,204.5 C 164.23393,198.29724 173.38219,188.21951 173.60188,180.51205 L 173.62287,175.49443 L 170.91062,175.97795 C 167.61285,176.56585 161.32499,183.0703 161.54089,189.35677 C 160.74205,186.19227 155.23491,180.73093 153.33564,180.48031 L 150.552,180.11299 z "
           style="fill:#fedd00;fill-opacity:1;fill-rule:evenodd;stroke:#3f3f3f;stroke-width:1.03482139;stroke-linecap:round;stroke-linejoin:round;stroke-miterlimit:4;stroke-dasharray:none;stroke-opacity:1" />
        <path
           sodipodi:nodetypes="ccccccscsc"
           id="path3921"
           d="M 150.552,193.61299 L 150.552,200.84661 C 151.81024,208.64524 158.63645,212.1057 159.66474,218 L 163.41705,218 C 164.23393,211.79724 173.38219,201.71951 173.60188,194.01205 L 173.62287,188.99443 L 170.91062,189.47795 C 167.61285,190.06585 161.32499,196.5703 161.54089,202.85677 C 160.74205,199.69227 155.23491,194.23093 153.33564,193.98031 L 150.552,193.61299 z "
           style="fill:#fedd00;fill-opacity:1;fill-rule:evenodd;stroke:#3f3f3f;stroke-width:1.03482139;stroke-linecap:round;stroke-linejoin:round;stroke-miterlimit:4;stroke-dasharray:none;stroke-opacity:1" />
        <path
           sodipodi:nodetypes="ccccccscsc"
           id="path3923"
           d="M 150.552,207.11299 L 150.552,214.34661 C 151.81024,222.14524 158.63645,225.6057 159.66474,231.5 L 163.41705,231.5 C 164.23393,225.29724 173.38219,215.21951 173.60188,207.51205 L 173.62287,202.49443 L 170.91062,202.97795 C 167.61285,203.56585 161.32499,210.0703 161.54089,216.35677 C 160.74205,213.19227 155.23491,207.73093 153.33564,207.48031 L 150.552,207.11299 z "
           style="fill:#fedd00;fill-opacity:1;fill-rule:evenodd;stroke:#3f3f3f;stroke-width:1.03482139;stroke-linecap:round;stroke-linejoin:round;stroke-miterlimit:4;stroke-dasharray:none;stroke-opacity:1" />
        <path
           sodipodi:nodetypes="cccccsccscsc"
           id="path3925"
           d="M 150.552,220.61299 L 150.552,227.84661 C 151.81024,235.64524 158.63645,239.1057 159.66474,245 L 159.39668,253.57514 L 164.49795,253.50308 C 164.64925,252.35419 164.00549,242.56928 164.61877,241.19419 C 167.31654,235.14531 173.42288,227.29191 173.60188,221.01205 L 173.62287,215.99443 L 170.91062,216.47795 C 167.61285,217.06585 161.32499,223.5703 161.54089,229.85677 C 160.74205,226.69227 155.23491,221.23093 153.33564,220.98031 L 150.552,220.61299 z "
           style="fill:#fedd00;fill-opacity:1;fill-rule:evenodd;stroke:#3f3f3f;stroke-width:1.03482139;stroke-linecap:round;stroke-linejoin:round;stroke-miterlimit:4;stroke-dasharray:none;stroke-opacity:1" />
        <path
           sodipodi:nodetypes="cc"
           id="path3927"
           d="M 161.45056,161.27271 L 161.63099,230.83999"
           style="fill:yellow;fill-opacity:1;fill-rule:evenodd;stroke:#3f3f3f;stroke-width:1.03482139;stroke-linecap:round;stroke-linejoin:round;stroke-miterlimit:4;stroke-dasharray:none;stroke-opacity:1" />
      </g>
      <g
         id="g3929"
         style="fill:yellow;fill-opacity:1;stroke:#3f3f3f;stroke-width:1.03482139;stroke-linecap:round;stroke-linejoin:round;stroke-miterlimit:4;stroke-dasharray:none;stroke-opacity:1"
         transform="matrix(1.001451,0,0,0.93248,-10.49676,-10.12275)">
        <path
           style="fill:#fedd00;fill-opacity:1;fill-rule:evenodd;stroke:#3f3f3f;stroke-width:1.00000012;stroke-linecap:round;stroke-linejoin:round;stroke-miterlimit:4;stroke-dasharray:none;stroke-opacity:1"
           d="M 150.4375,105.78125 L 150.4375,121.43189 C 150.4375,122.87835 149.88898,123.86279 149.41609,124.54744 C 145.91821,130.49844 147.90113,137.14997 148.0625,140.5625 L 151.4375,144.6875 L 155.53935,139.12961 C 156.16859,133.37144 156.19365,127.89946 152.8206,124.00461 C 152.49275,123.76563 152.34446,122.98797 152.25,122.0488 L 152.25,105.78125 L 150.4375,105.78125 z "
           transform="matrix(0.998551,0,0,1.072409,10.49881,10.83787)"
           id="path3931"
           sodipodi:nodetypes="cccccccccc" />
        <path
           style="fill:#fedd00;fill-opacity:1;fill-rule:evenodd;stroke:#3f3f3f;stroke-width:1.00000012;stroke-linecap:round;stroke-linejoin:round;stroke-miterlimit:4;stroke-dasharray:none;stroke-opacity:1"
           d="M 157.28125,112.125 L 157.28125,132.03125 C 157.13051,134.76516 152.56308,136.92256 151.21875,140.36309 C 149.63334,137.4872 146.16777,136.36474 145.9375,134.14434 L 145.9375,112.21875 L 144.125,112.21875 L 144.125,139.78125 L 144.07835,143.81613 C 143.98453,145.38439 144.55432,147.047 145.18817,148.35634 C 145.9924,153.53253 148.39497,151.78729 149.46875,156.28125 L 152.9375,156.28125 C 153.73081,150.67227 158.73926,142.83972 158.75174,142.75113 C 158.76422,142.66254 159.06662,142.11369 159.125,140.65625 C 159.18338,139.19881 159.15625,131.6875 159.15625,131.6875 L 159.0625,112.125 L 157.28125,112.125 z "
           transform="matrix(0.998551,0,0,1.072409,10.49881,10.83787)"
           id="path3933"
           sodipodi:nodetypes="ccccccccccczzccc" />
        <path
           style="fill:#fedd00;fill-opacity:1;fill-rule:evenodd;stroke:#3f3f3f;stroke-width:1.00000012;stroke-linecap:round;stroke-linejoin:round;stroke-miterlimit:4;stroke-dasharray:none;stroke-opacity:1"
           d="M 140.21875,115.65625 L 140.21875,144.3125 L 140.25,144.3125 L 140.25,151.5625 C 141.51007,158.83457 148.34522,162.06618 149.375,167.5625 L 153.125,167.5625 C 153.94306,161.77855 163.4345,152.99607 163.65451,145.80902 L 163.625,144.3125 L 163.625,115.65625 L 161.84375,115.65625 L 161.84375,134.375 C 161.83193,136.65826 161.86709,137.8009 161.64823,139.21885 C 161.4283,140.64362 160.86463,141.72435 160.09375,142.375 C 155.61888,146.15202 152.59026,148.55156 151.25,153.4375 C 149.49181,150.30466 145.66306,148.66159 143.84375,146.75 C 142.45337,145.28908 142.10665,143.87555 142,142.5 L 142,115.65625 L 140.21875,115.65625 z "
           transform="matrix(0.998551,0,0,1.072409,10.49881,10.83787)"
           id="path3935"
           sodipodi:nodetypes="cccccccccccsscsccc" />
        <path
           sodipodi:nodetypes="ccccccscsc"
           id="path3937"
           d="M 150.552,180.11299 L 150.552,187.34661 C 151.81024,195.14524 158.63645,198.6057 159.66474,204.5 L 163.41705,204.5 C 164.23393,198.29724 173.38219,188.21951 173.60188,180.51205 L 173.62287,175.49443 L 170.91062,175.97795 C 167.61285,176.56585 161.32499,183.0703 161.54089,189.35677 C 160.74205,186.19227 155.23491,180.73093 153.33564,180.48031 L 150.552,180.11299 z "
           style="fill:#fedd00;fill-opacity:1;fill-rule:evenodd;stroke:#3f3f3f;stroke-width:1.03482139;stroke-linecap:round;stroke-linejoin:round;stroke-miterlimit:4;stroke-dasharray:none;stroke-opacity:1" />
        <path
           sodipodi:nodetypes="ccccccscsc"
           id="path3939"
           d="M 150.552,193.61299 L 150.552,200.84661 C 151.81024,208.64524 158.63645,212.1057 159.66474,218 L 163.41705,218 C 164.23393,211.79724 173.38219,201.71951 173.60188,194.01205 L 173.62287,188.99443 L 170.91062,189.47795 C 167.61285,190.06585 161.32499,196.5703 161.54089,202.85677 C 160.74205,199.69227 155.23491,194.23093 153.33564,193.98031 L 150.552,193.61299 z "
           style="fill:#fedd00;fill-opacity:1;fill-rule:evenodd;stroke:#3f3f3f;stroke-width:1.03482139;stroke-linecap:round;stroke-linejoin:round;stroke-miterlimit:4;stroke-dasharray:none;stroke-opacity:1" />
        <path
           sodipodi:nodetypes="ccccccscsc"
           id="path3941"
           d="M 150.552,207.11299 L 150.552,214.34661 C 151.81024,222.14524 158.63645,225.6057 159.66474,231.5 L 163.41705,231.5 C 164.23393,225.29724 173.38219,215.21951 173.60188,207.51205 L 173.62287,202.49443 L 170.91062,202.97795 C 167.61285,203.56585 161.32499,210.0703 161.54089,216.35677 C 160.74205,213.19227 155.23491,207.73093 153.33564,207.48031 L 150.552,207.11299 z "
           style="fill:#fedd00;fill-opacity:1;fill-rule:evenodd;stroke:#3f3f3f;stroke-width:1.03482139;stroke-linecap:round;stroke-linejoin:round;stroke-miterlimit:4;stroke-dasharray:none;stroke-opacity:1" />
        <path
           sodipodi:nodetypes="cccccsccscsc"
           id="path3943"
           d="M 150.552,220.61299 L 150.552,227.84661 C 151.81024,235.64524 158.63645,239.1057 159.66474,245 L 159.39668,253.57514 L 164.49795,253.50308 C 164.64925,252.35419 164.00549,242.56928 164.61877,241.19419 C 167.31654,235.14531 173.42288,227.29191 173.60188,221.01205 L 173.62287,215.99443 L 170.91062,216.47795 C 167.61285,217.06585 161.32499,223.5703 161.54089,229.85677 C 160.74205,226.69227 155.23491,221.23093 153.33564,220.98031 L 150.552,220.61299 z "
           style="fill:#fedd00;fill-opacity:1;fill-rule:evenodd;stroke:#3f3f3f;stroke-width:1.03482139;stroke-linecap:round;stroke-linejoin:round;stroke-miterlimit:4;stroke-dasharray:none;stroke-opacity:1" />
        <path
           sodipodi:nodetypes="cc"
           id="path3945"
           d="M 161.45056,161.27271 L 161.63099,230.83999"
           style="fill:yellow;fill-opacity:1;fill-rule:evenodd;stroke:#3f3f3f;stroke-width:1.03482139;stroke-linecap:round;stroke-linejoin:round;stroke-miterlimit:4;stroke-dasharray:none;stroke-opacity:1" />
      </g>
    </g>
    <path
       sodipodi:nodetypes="cccccc"
       id="path8162"
       d="M 0.49798456,0.49835844 L 0.49798456,195.05852 C 3.5689846,249.27896 65.217305,258.92991 109.99985,281.50202 C 154.78239,258.92991 216.43071,249.27896 219.50172,195.05852 L 219.50172,0.49835844 L 0.49798456,0.49835844 z "
       style="fill:none;fill-opacity:1;stroke:black;stroke-width:0.99596912;stroke-opacity:1" />
  </g>
</svg>
