<?xml version="1.0" encoding="UTF-8" standalone="no"?>
<!-- Created with Inkscape (http://www.inkscape.org/) -->
<svg
   xmlns:svg="http://www.w3.org/2000/svg"
   xmlns="http://www.w3.org/2000/svg"
   xmlns:sodipodi="http://sodipodi.sourceforge.net/DTD/sodipodi-0.dtd"
   xmlns:inkscape="http://www.inkscape.org/namespaces/inkscape"
   version="1.1"
   width="500"
   height="500"
   id="svg2"
   inkscape:version="0.48.1 "
   sodipodi:docname="Flag of Märjamaa Parish.svg">
  <sodipodi:namedview
     pagecolor="#ffffff"
     bordercolor="#666666"
     borderopacity="1"
     objecttolerance="10"
     gridtolerance="10"
     guidetolerance="10"
     inkscape:pageopacity="0"
     inkscape:pageshadow="2"
     inkscape:window-width="1280"
     inkscape:window-height="750"
     id="namedview17"
     showgrid="false"
     fit-margin-top="0"
     fit-margin-left="0"
     fit-margin-right="0"
     fit-margin-bottom="0"
     inkscape:zoom="1.305"
     inkscape:cx="100"
     inkscape:cy="191.954"
     inkscape:window-x="-8"
     inkscape:window-y="-8"
     inkscape:window-maximized="1"
     inkscape:current-layer="svg2" />
<defs />
<rect
     style="fill:#00a85a;stroke:none"
     id="rect3002"
     y="0"
     x="0"
     height="500"
     width="500" />
<path
     d="M 247.5,37.188 247.5,139.141 175.39,67.031 168.281,74.141 240.39,146.25 138.437,146.25 138.437,156.25 240.39,156.25 168.281,228.359 175.39,235.469 247.5,163.36 247.5,265.312 257.5,265.312 257.5,163.36 329.61,235.469 336.72,228.359 264.61,156.25 366.562,156.25 366.562,146.25 264.61,146.25 336.72,74.141 329.61,67.031 257.5,139.141 257.5,37.188 247.5,37.188 z"
     id="rect3792"
     style="fill:#ffcc2a;stroke:#e4ba2c;stroke-width:1.25"
     inkscape:connector-curvature="0" />
<path
     d="M 252.5,26.25 C 183.465,26.25 127.5,82.215 127.5,151.25 127.5,220.286 183.465,276.25 252.5,276.25 321.535,276.25 377.5,220.286 377.5,151.25 377.5,82.215 321.535,26.25 252.5,26.25 z M 252.5,43.75 C 311.87,43.75 360,91.88 360,151.25 360,210.62 311.87,258.75 252.5,258.75 193.129,258.75 145,210.62 145,151.25 145,91.88 193.129,43.75 252.5,43.75 z"
     id="path3017"
     style="fill:#ffcc2a;stroke:#e4ba2c;stroke-width:1.25"
     inkscape:connector-curvature="0" />
<path
     d="M 375,151.25 A 122.5,122.5 0 0 1 130,151.25 122.5,122.5 0 1 1 375,151.25 z"
     id="path3019"
     style="fill:none;stroke:#000000;stroke-width:6.25"
     inkscape:connector-curvature="0" />
<path
     d="M 283.75,151.25 A 31.25,31.25 0 0 1 221.25,151.25 31.25,31.25 0 1 1 283.75,151.25 z"
     id="path3013"
     style="fill:#ffcc2a;stroke:#e4ba2c;stroke-width:1.25"
     inkscape:connector-curvature="0" />
<rect
     style="fill:#ffffff;stroke:none"
     id="rect3010"
     y="312.5"
     x="0"
     height="142.5"
     width="500" />
<path
     inkscape:connector-curvature="0"
     style="fill:#00a85a;stroke:none"
     id="path2987"
     d="M 166.667,353.75 C 135.601,353.75 110.417,378.935 110.417,410 L 110.417,500 222.917,500 222.917,410 C 222.917,378.935 197.733,353.75 166.667,353.75 z" />
<path
     inkscape:connector-curvature="0"
     style="fill:#00a85a;stroke:none"
     id="path2996"
     d="M 0,353.75 0,500 56.25,500 56.25,410 C 56.25,378.935 31.066,353.75 0,353.75 z" />
<path
     inkscape:connector-curvature="0"
     style="fill:#00a85a;stroke:none"
     id="path2998"
     d="M 500,353.75 C 468.935,353.75 443.75,378.935 443.75,410 L 443.75,500 500,500 z" />
<path
     inkscape:connector-curvature="0"
     style="fill:#00a85a;stroke:none"
     id="path3000"
     d="M 333.332,353.75 C 302.267,353.75 277.082,378.935 277.082,410 L 277.082,500 389.582,500 389.582,410 C 389.582,378.935 364.397,353.75 333.332,353.75 z" />
</svg>
