<!DOCTYPE svg PUBLIC "-//W3C//DTD SVG 20010904//EN" "http://www.w3.org/TR/2001/REC-SVG-20010904/DTD/svg10.dtd">
<svg version="1.0" xmlns="http://www.w3.org/2000/svg" width="1117px" height="1119px" viewBox="0 0 11170 11190" preserveAspectRatio="xMidYMid meet">
<g id="layer101" fill="#1e1916" stroke="none">
 <path d="M0 5595 l0 -5595 5585 0 5585 0 0 5595 0 5595 -5585 0 -5585 0 0 -5595z"/>
 </g>
<g id="layer102" fill="#199c4b" stroke="none">
 <path d="M50 5595 l0 -5535 5535 0 5535 0 0 5535 0 5535 -5535 0 -5535 0 0 -5535z"/>
 </g>
<g id="layer103" fill="#0e7bbb" stroke="none">
 <path d="M50 9555 c0 -1519 1 -1575 18 -1575 32 0 260 66 427 124 88 30 315 118 505 196 581 238 797 312 1060 365 187 38 307 48 509 42 359 -10 663 -88 1206 -309 556 -226 643 -260 797 -312 190 -64 399 -117 559 -142 152 -24 453 -24 597 -1 276 44 578 136 962 292 568 231 666 270 815 320 173 58 352 104 510 132 146 25 528 25 680 0 246 -42 538 -130 863 -261 788 -319 897 -359 1137 -421 121 -31 247 -55 373 -70 l52 -7 0 1601 0 1601 -5535 0 -5535 0 0 -1575z"/>
 <path d="M11030 6488 c-119 -72 -458 -244 -630 -321 -1172 -523 -2592 -831 -4185 -907 -271 -13 -1039 -13 -1310 0 -1592 76 -3021 386 -4180 905 -215 96 -509 246 -642 327 l-33 20 0 -3226 0 -3226 5535 0 5535 0 0 3240 c0 1782 -1 3240 -2 3240 -2 -1 -41 -24 -88 -52z m-10182 -794 c729 -310 1782 -626 2536 -760 86 -16 156 -31 156 -34 0 -3 -139 -287 -309 -630 -170 -344 -308 -626 -307 -627 1 -1 78 -14 171 -28 93 -13 172 -28 175 -32 4 -5 -118 -303 -270 -663 l-277 -655 126 -10 c102 -8 126 -13 125 -25 -2 -26 -885 -1874 -902 -1888 -13 -10 -19 -10 -29 1 -13 13 -788 1849 -799 1894 -6 22 -5 22 124 25 l129 3 -428 955 -427 955 30 3 c16 2 149 -8 295 -23 146 -14 267 -24 269 -22 3 2 -142 373 -320 824 -179 451 -328 827 -332 836 -5 15 0 15 42 -4 27 -12 127 -55 222 -95z m9361 -723 c-181 -458 -328 -835 -326 -838 3 -2 124 8 270 22 146 15 279 25 295 23 l30 -3 -428 -955 -428 -955 129 -3 c79 -1 129 -7 129 -13 0 -20 -791 -1894 -805 -1908 -13 -13 -17 -13 -29 -1 -21 22 -908 1891 -901 1899 4 3 61 11 129 16 l122 10 -277 655 c-152 360 -273 658 -270 663 4 4 83 19 176 32 93 14 170 27 171 28 1 1 -137 283 -307 626 -170 343 -309 627 -309 631 0 3 57 16 128 29 539 94 1283 294 1907 513 214 75 656 248 820 321 55 25 101 44 102 43 1 -1 -146 -377 -328 -835z m-3083 -88 c-4 -10 -171 -334 -372 -720 -200 -387 -364 -707 -364 -713 0 -14 23 -13 308 16 140 14 258 22 263 17 4 -4 -174 -351 -397 -771 -222 -419 -404 -769 -404 -777 0 -11 12 -15 48 -15 27 0 84 -3 126 -7 64 -5 77 -9 74 -23 -6 -30 -799 -1548 -812 -1553 -7 -3 -18 -2 -23 1 -12 8 -813 1545 -813 1560 0 9 122 22 206 22 25 0 44 5 46 12 2 7 -177 355 -399 772 -222 418 -403 765 -403 773 0 17 -7 17 284 -12 137 -14 257 -24 265 -22 9 1 -4 10 -28 18 l-43 15 -335 703 c-184 386 -333 705 -330 707 3 3 94 -4 204 -15 476 -49 629 -56 1263 -56 642 0 800 7 1320 60 297 29 324 30 316 8z"/>
 </g>
<g id="layer104" fill="#ffffff" stroke="none">
 <path d="M2210 10413 c-110 -12 -301 -50 -421 -84 -271 -76 -504 -171 -1004 -409 -335 -159 -559 -262 -670 -306 l-65 -26 0 -804 c0 -772 1 -804 18 -804 32 0 260 66 427 124 88 30 315 118 505 196 581 238 797 312 1060 365 187 38 307 48 509 42 359 -10 663 -88 1206 -309 556 -226 643 -260 797 -312 190 -64 399 -117 559 -142 152 -24 453 -24 597 -1 276 44 578 136 962 292 568 231 666 270 815 320 173 58 352 104 510 132 146 25 528 25 680 0 246 -42 538 -130 863 -261 788 -319 897 -359 1137 -421 121 -31 247 -55 373 -70 l52 -7 0 896 c0 550 -4 896 -9 896 -6 0 -157 70 -338 156 -552 263 -702 327 -963 412 -312 101 -532 137 -805 129 -257 -8 -453 -45 -743 -143 -230 -78 -404 -154 -1002 -439 -702 -334 -1105 -455 -1521 -455 -455 0 -826 114 -1639 505 -742 356 -1093 481 -1475 525 -85 9 -338 11 -415 3z"/>
 <path d="M11030 6488 c-119 -72 -458 -244 -630 -321 -1172 -523 -2592 -831 -4185 -907 -271 -13 -1039 -13 -1310 0 -1592 76 -3021 386 -4180 905 -215 96 -509 246 -642 327 l-33 20 0 -3226 0 -3226 5535 0 5535 0 0 3240 c0 1782 -1 3240 -2 3240 -2 -1 -41 -24 -88 -52z m-10182 -794 c729 -310 1782 -626 2536 -760 86 -16 156 -31 156 -34 0 -3 -139 -287 -309 -630 -170 -344 -308 -626 -307 -627 1 -1 78 -14 171 -28 93 -13 172 -28 175 -32 4 -5 -118 -303 -270 -663 l-277 -655 126 -10 c102 -8 126 -13 125 -25 -2 -26 -885 -1874 -902 -1888 -13 -10 -19 -10 -29 1 -13 13 -788 1849 -799 1894 -6 22 -5 22 124 25 l129 3 -428 955 -427 955 30 3 c16 2 149 -8 295 -23 146 -14 267 -24 269 -22 3 2 -142 373 -320 824 -179 451 -328 827 -332 836 -5 15 0 15 42 -4 27 -12 127 -55 222 -95z m9361 -723 c-181 -458 -328 -835 -326 -838 3 -2 124 8 270 22 146 15 279 25 295 23 l30 -3 -428 -955 -428 -955 129 -3 c79 -1 129 -7 129 -13 0 -20 -791 -1894 -805 -1908 -13 -13 -17 -13 -29 -1 -21 22 -908 1891 -901 1899 4 3 61 11 129 16 l122 10 -277 655 c-152 360 -273 658 -270 663 4 4 83 19 176 32 93 14 170 27 171 28 1 1 -137 283 -307 626 -170 343 -309 627 -309 631 0 3 57 16 128 29 539 94 1283 294 1907 513 214 75 656 248 820 321 55 25 101 44 102 43 1 -1 -146 -377 -328 -835z m-3083 -88 c-4 -10 -171 -334 -372 -720 -200 -387 -364 -707 -364 -713 0 -14 23 -13 308 16 140 14 258 22 263 17 4 -4 -174 -351 -397 -771 -222 -419 -404 -769 -404 -777 0 -11 12 -15 48 -15 27 0 84 -3 126 -7 64 -5 77 -9 74 -23 -6 -30 -799 -1548 -812 -1553 -7 -3 -18 -2 -23 1 -12 8 -813 1545 -813 1560 0 9 122 22 206 22 25 0 44 5 46 12 2 7 -177 355 -399 772 -222 418 -403 765 -403 773 0 17 -7 17 284 -12 137 -14 257 -24 265 -22 9 1 -4 10 -28 18 l-43 15 -335 703 c-184 386 -333 705 -330 707 3 3 94 -4 204 -15 476 -49 629 -56 1263 -56 642 0 800 7 1320 60 297 29 324 30 316 8z"/>
 </g>

</svg>
