<?xml version="1.0" encoding="UTF-8" standalone="no"?>
<!-- Created with Inkscape (http://www.inkscape.org/) -->

<svg
   xmlns:dc="http://purl.org/dc/elements/1.1/"
   xmlns:cc="http://creativecommons.org/ns#"
   xmlns:rdf="http://www.w3.org/1999/02/22-rdf-syntax-ns#"
   xmlns:svg="http://www.w3.org/2000/svg"
   xmlns="http://www.w3.org/2000/svg"
   xmlns:sodipodi="http://sodipodi.sourceforge.net/DTD/sodipodi-0.dtd"
   xmlns:inkscape="http://www.inkscape.org/namespaces/inkscape"
   id="svg2010"
   sodipodi:version="0.32"
   inkscape:version="0.92.4 (5da689c313, 2019-01-14)"
   width="471.42999"
   height="300"
   version="1.0"
   sodipodi:docname="Põlvamaa_lipp.svg">
  <metadata
     id="metadata2015">
    <rdf:RDF>
      <cc:Work
         rdf:about="">
        <dc:format>image/svg+xml</dc:format>
        <dc:type
           rdf:resource="http://purl.org/dc/dcmitype/StillImage" />
      </cc:Work>
    </rdf:RDF>
  </metadata>
  <defs
     id="defs2013" />
  <sodipodi:namedview
     inkscape:window-height="1017"
     inkscape:window-width="1920"
     inkscape:pageshadow="2"
     inkscape:pageopacity="0.0"
     guidetolerance="10.0"
     gridtolerance="10.0"
     objecttolerance="10.0"
     borderopacity="1.0"
     bordercolor="#666666"
     pagecolor="#ffffff"
     id="base"
     width="471.43px"
     height="300px"
     inkscape:zoom="1.2067957"
     inkscape:cx="222.8882"
     inkscape:cy="210.98149"
     inkscape:window-x="-8"
     inkscape:window-y="-8"
     inkscape:current-layer="svg2010"
     showgrid="false"
     inkscape:window-maximized="1" />
  <g
     id="g2313"
     transform="matrix(1.714291,0,0,1.714292,-1.386987e-6,-1.086921e-3)">
    <rect
       id="green Stripe"
       style="fill:#009739;fill-opacity:1"
       y="87.500328"
       x="1.9417648e-006"
       height="87.499664"
       width="275" />
    <rect
       id="white Stripe"
       style="fill:white"
       y="0.00066018361"
       x="1.9417648e-006"
       height="87.499664"
       width="275" />
  </g>
  <g
     id="g1957"
     transform="matrix(0.425532,0,0,0.429881,188.9065,14.99888)">
    <path
       sodipodi:nodetypes="cccccc"
       id="rect6573"
       d="M 0.47018842,0.46994702 L 219.51606,0.46994702 L 219.51606,179.93264 C 220.74668,256.22228 140.51051,257.472 109.53744,278.68208 C 76.637994,257.12211 0.30779937,250.75742 0.47018842,179.93264 L 0.47018842,0.46994702 z "
       style="fill:#fedd00;fill-opacity:1;fill-rule:evenodd;stroke:black;stroke-width:0.93986607px;stroke-linecap:butt;stroke-linejoin:miter;stroke-opacity:1" />
    <g
       id="g1946">
      <g
         id="g6586"
         transform="matrix(1.036107,0,0,1.036107,-11.416,-9.5393)">
        <path
           sodipodi:nodetypes="ccccsscsscscscsccsccccc"
           id="path6580"
           d="M 47.899236,191.49485 L 85.573688,191.45804 C 85.573688,191.45804 88.686367,193.03268 89.55644,196.13376 C 92.300262,205.91317 98.231868,215.14939 104.29459,218.39724 C 113.18483,223.15983 118.80607,221.62023 117.20023,210.64913 C 115.96926,202.2392 106.73618,192.92043 100.26758,185.98705 C 96.519821,181.97001 94.169435,178.11106 94.744186,177.0814 C 94.744186,177.0814 99.173855,159.75371 92.970367,148.75662 C 86.766878,137.75952 82.396239,135.4162 73.795949,134.14731 C 65.195658,132.87841 54.703488,136.47674 54.703488,136.47674 C 54.703488,136.47674 47.858256,131.57688 41.936745,131.01292 C 36.015233,130.44897 31.368871,133.51435 31.368871,133.51435 C 29.836088,133.38335 28.441061,135.17602 28.712858,136.96384 C 28.81923,137.66353 29.357268,140.30249 30.0659,140.88509 C 30.0659,140.88509 30.048929,144.14029 33.097542,149.03096 C 36.146155,153.92162 41.908273,158.68346 41.908273,158.68346 C 37.670369,160.57729 38.295331,162.13396 38.41412,162.98256 C 40.811617,163.30473 42.221805,162.92086 44.552326,164.24937 C 48.209187,166.33396 49.210048,167.11903 54.527774,173.27263 C 57.324933,169.13144 60.409392,166.34808 65.982558,162.09564 L 68.070997,164.24936 C 63.132527,168.79566 55.609045,173.19861 55.304252,183.04388 C 50.046081,186.20155 47.982387,189.26047 47.899236,191.49485 z "
           style="fill:black;fill-opacity:1;fill-rule:evenodd;stroke:black;stroke-width:1px;stroke-linecap:butt;stroke-linejoin:round;stroke-opacity:1" />
        <path
           id="path6582"
           d="M 42.527979,136.81578 C 42.527979,137.73722 41.819498,138.48506 40.94655,138.48506 C 40.073601,138.48506 39.36512,137.73722 39.36512,136.81578 C 39.36512,135.89433 40.073601,135.14649 40.94655,135.14649 C 41.819498,135.14649 42.527979,135.89433 42.527979,136.81578 z "
           style="fill:#fedd00;fill-opacity:1;stroke:#fedd00;stroke-linejoin:round;stroke-opacity:1"
           sodipodi:nodetypes="csssc" />
      </g>
      <g
         id="g1934"
         transform="matrix(1.036107,0,0,1.036107,78.23081,-113.5117)">
        <path
           sodipodi:nodetypes="ccccsscsscscscsccsccccc"
           id="path1936"
           d="M 47.899236,191.49485 L 85.573688,191.45804 C 85.573688,191.45804 88.686367,193.03268 89.55644,196.13376 C 92.300262,205.91317 98.231868,215.14939 104.29459,218.39724 C 113.18483,223.15983 118.80607,221.62023 117.20023,210.64913 C 115.96926,202.2392 106.73618,192.92043 100.26758,185.98705 C 96.519821,181.97001 94.169435,178.11106 94.744186,177.0814 C 94.744186,177.0814 99.173855,159.75371 92.970367,148.75662 C 86.766878,137.75952 82.396239,135.4162 73.795949,134.14731 C 65.195658,132.87841 54.703488,136.47674 54.703488,136.47674 C 54.703488,136.47674 47.858256,131.57688 41.936745,131.01292 C 36.015233,130.44897 31.368871,133.51435 31.368871,133.51435 C 29.836088,133.38335 28.441061,135.17602 28.712858,136.96384 C 28.81923,137.66353 29.357268,140.30249 30.0659,140.88509 C 30.0659,140.88509 30.048929,144.14029 33.097542,149.03096 C 36.146155,153.92162 41.908273,158.68346 41.908273,158.68346 C 37.670369,160.57729 38.295331,162.13396 38.41412,162.98256 C 40.811617,163.30473 42.221805,162.92086 44.552326,164.24937 C 48.209187,166.33396 49.210048,167.11903 54.527774,173.27263 C 57.324933,169.13144 60.409392,166.34808 65.982558,162.09564 L 68.070997,164.24936 C 63.132527,168.79566 55.609045,173.19861 55.304252,183.04388 C 50.046081,186.20155 47.982387,189.26047 47.899236,191.49485 z "
           style="fill:black;fill-opacity:1;fill-rule:evenodd;stroke:black;stroke-width:1px;stroke-linecap:butt;stroke-linejoin:round;stroke-opacity:1" />
        <path
           id="path1938"
           d="M 42.527979,136.81578 C 42.527979,137.73722 41.819498,138.48506 40.94655,138.48506 C 40.073601,138.48506 39.36512,137.73722 39.36512,136.81578 C 39.36512,135.89433 40.073601,135.14649 40.94655,135.14649 C 41.819498,135.14649 42.527979,135.89433 42.527979,136.81578 z "
           style="fill:#fedd00;fill-opacity:1;stroke:#fedd00;stroke-linejoin:round;stroke-opacity:1"
           sodipodi:nodetypes="csssc" />
      </g>
      <g
         id="g1940"
         transform="matrix(1.036107,0,0,1.036107,33.00781,-62.54465)">
        <path
           sodipodi:nodetypes="ccccsscsscscscsccsccccc"
           id="path1942"
           d="M 47.899236,191.49485 L 85.573688,191.45804 C 85.573688,191.45804 88.686367,193.03268 89.55644,196.13376 C 92.300262,205.91317 98.231868,215.14939 104.29459,218.39724 C 113.18483,223.15983 118.80607,221.62023 117.20023,210.64913 C 115.96926,202.2392 106.73618,192.92043 100.26758,185.98705 C 96.519821,181.97001 94.169435,178.11106 94.744186,177.0814 C 94.744186,177.0814 99.173855,159.75371 92.970367,148.75662 C 86.766878,137.75952 82.396239,135.4162 73.795949,134.14731 C 65.195658,132.87841 54.703488,136.47674 54.703488,136.47674 C 54.703488,136.47674 47.858256,131.57688 41.936745,131.01292 C 36.015233,130.44897 31.368871,133.51435 31.368871,133.51435 C 29.836088,133.38335 28.441061,135.17602 28.712858,136.96384 C 28.81923,137.66353 29.357268,140.30249 30.0659,140.88509 C 30.0659,140.88509 30.048929,144.14029 33.097542,149.03096 C 36.146155,153.92162 41.908273,158.68346 41.908273,158.68346 C 37.670369,160.57729 38.295331,162.13396 38.41412,162.98256 C 40.811617,163.30473 42.221805,162.92086 44.552326,164.24937 C 48.209187,166.33396 49.210048,167.11903 54.527774,173.27263 C 57.324933,169.13144 60.409392,166.34808 65.982558,162.09564 L 68.070997,164.24936 C 63.132527,168.79566 55.609045,173.19861 55.304252,183.04388 C 50.046081,186.20155 47.982387,189.26047 47.899236,191.49485 z "
           style="fill:black;fill-opacity:1;fill-rule:evenodd;stroke:black;stroke-width:1px;stroke-linecap:butt;stroke-linejoin:round;stroke-opacity:1" />
        <path
           id="path1944"
           d="M 42.527979,136.81578 C 42.527979,137.73722 41.819498,138.48506 40.94655,138.48506 C 40.073601,138.48506 39.36512,137.73722 39.36512,136.81578 C 39.36512,135.89433 40.073601,135.14649 40.94655,135.14649 C 41.819498,135.14649 42.527979,135.89433 42.527979,136.81578 z "
           style="fill:#fedd00;fill-opacity:1;stroke:#fedd00;stroke-linejoin:round;stroke-opacity:1"
           sodipodi:nodetypes="csssc" />
      </g>
    </g>
  </g>
</svg>
