<?xml version="1.0" encoding="UTF-8" standalone="no"?>
<!-- Created with Inkscape (http://www.inkscape.org/) -->
<svg xmlns="http://www.w3.org/2000/svg" height="500" width="500" version="1.1">
<g transform="scale(2.53807,2.53807)">
  <rect height="197" width="197" y="0" x="0" fill="#FFF"/>
<path fill="#00923f" d="M0,197,197,197,197,0z"/>
<path fill="#00923f" d="M75,12c-4.29,0-7.5,4-7.5,4s-3.4-3.5-6.5-3.5c-6.89,0-8.36,3.64-8,5,0.42,1.57,1.26,3.27,0,4,0,0-2.76-1.5-7-1.5-6.63,0-5,10-5,10s-7,1.09-7,6c0,3.09,2.9,5,9,5,7.67,0,9.94-3.81,9.94-3.81l0.15-0.13c3.97,3.78,13.41,7.41,13.41,10.94-0.04,7.62-0.05,15.09-0.28,25.53-3.04-1.76-5.62-3.03-14.72-3.03-2.5,0-8.5,0.56-8.5-2,0-1.26,0.25-2.5,4-2.5,2.94,0,3.31,1,6,1,2.38,0.64,9.5-0.43,9.5-5-0.11-3.08-2.22-6.47-6.5-4,0-1.44,1-2.31,1-3.5,0-2.56-3.69-5.09-6.5-5-2.38,0-5,2.5-5,2.5s-1.12-6.62-5.5-6.5c-3.44,0-5,4.5-5,4.5s-1.5-3-5-3c-2.69,0-5,1.88-5,3.5,0,2.44,1,5.5,1,5.5s-8-4.13-8,4.5c0,4.56,3.38,5,6,5,2.81,0,3.49-0.5,6-0.5,8.07,5.18,6.19,9.5,17,9.5,12.99,0,16.68,3.12,19.03,5.53-0.03,1.15-0.06,2.4-0.09,3.63-8.43,5.38-18,17.34-22.94,17.34-3.54,0-3.5-0.9-3.5-2,0-2.18,6.15-5,8.5-5,0,0,6-2.25,6-7.5,0-1.75-1.06-3.5-3-3.5-1.56,0-3,2-3,2-0.75,0-2.56-6.5-7-6.5-2.94,0-5.5,2.5-5.5,2.5s-2.56-3.5-6-3.5c-2.7,0-3.5,5.5-3.5,5.5s-8-3.59-8,3.5c0,4.94,4,5.5,4,5.5,11.87,3.18,10.51,13.5,20.5,13.5,4.83,0,7.07-4.5,8-4.5,1.44,5.4,0.38,26.5-11,26.5-4.44,0-5.5-1.4-5.5-2.5,0-2.4,6-2.5,6-2.5l-0.12-0.1s5.62,1,5.62-5.4c0-1.3-0.88-2.6-2.44-2.6-2.31,0-4,1.6-4,1.6s0.94-1.9,0.94-3.6-1.62-2.4-3-2.4c-2.82,0-4,2.9-4,2.9s-2.3-5.5-5.5-5.4c-3.12,0-3.56,5.5-3.56,5.5s-6.44-2.5-6.44,1.5c0,5.2,4.38,4.5,4.38,4.5h0.12c7.04,1.9,2.5,13,17,13,24.02,0,10.19-40,25.5-40l1.12,1.09c-0.35,10.71-0.85,23.71-1.62,40.91l12-12.5c0-3.2-1.87-4.9-2-8,0-3.1-0.03-6.4-0.06-9.8,2.85-3.6,6.42-2.7,7-3.7,1.14-1.98,0.85-4.22,0-5.69-2.17,0-3.85,3.4-7.06,3.66-0.07-4.74-0.19-9.65-0.29-14.56,1.19-1.11,4.17-3.41,8.41-3.41,5.06,0,5.88,1.5,11.5,1.5,8.9,0,8.1-7.25,16.5-9.5,0,0,9.5,0.32,9.5-6.5,0-3.69-5.3-5.9-9.5-3.5l-4.5-4.5c-3.4,0-6.5,2.5-6.5,2.5s-1.93-4.5-5.5-4.5c-4,0-5.5,6.5-5.5,6.5-3.26,0-3.81-1-6-1-2.5,0-4.5,2.69-4.5,6s2.87,4,4.5,4c5.25,0,5.5-1,8-1,1.53,1.53,5,3.69,5,5.5,0,1.38-1.72,2-3.5,2-5.94,0-6.56-2-11.5-2-3.87,0-5.2,2.52-6.47,3.56-0.12-5.78-0.25-11.4-0.34-16.75,1.33-2.88,9.76-10.31,20.81-10.31,4.88,0,8.9,1,17.5,1,15.6,0,15.9-9,22.5-9,7.3,0,17.9-8.46,6.5-11.5,0-5.3-2.8-9-5.5-9-2.1,0-5,2.5-5,2.5l-6-6c-5.7,0-8,5-8,5s-2.4-2-5-2c-6.5,0-6,9-6,9s-9-0.49-9,6c0,4.6,6.3,6.5,9.5,6.5,1.9,0,5-1.03,6.5-1.03s3,0.53,3,0.53c0,4.08-1.6,5-4.8,5-8,0-11.2-1.5-18.2-1.5-14.61,0-15.23,7.42-18.94,7.5-0.05-3.6-0.06-7.04-0.06-10,0-3.03,6.38-10.49,12-12,0,0,11.5,0.29,11.5-9,0-2.65-2.11-5.5-4.5-5.5-4.69,0-7,1.5-7,1.5s-3.94-8-10-8zm1.38,19.78c1.88,0.03,3.25,0.12,3.62,0.22,0,2.47-5.33,5.25-7.5,6.5-0.95,0.55-2.5,0.06-2.5-1v-5.59c2.35-0.11,4.6-0.15,6.38-0.13zm-9.38,0.28,0,4.94c0,1.06-0.56,1.5-3,1.5-4.69,0-7-4.5-7-4.5,1.82-1.04,5.82-1.63,10-1.94zm53,9.94c1.6,0,3.9,0.28,6.2,0.62-1.3,1.41-4,4.88-6.2,4.88-1.1,0-2.7-2.31-2.9-4.81,0.1-0.1,1.1-0.69,2.9-0.69zm-85.88,20.5c2.88,0.01,5.58,0.32,8,0.81-1.03,0.87-1.28,3.19-4.12,3.19-1.17,0-3.39-2.52-3.88-4zm60.88,6.5c1.57,1.68,4.75,2.47,7.8,2.81-1,1.98-4.8,3.69-4.8,3.69,0-1.11-3.57-5.52-4.38-5.97,0.92-0.26,1.38-0.53,1.38-0.53zm-59.62,21.94c0.9,0,1.78,0.02,2.68,0.09,5.84,2.56,0.92,5.47-1.06,5.47-2.6,0-6.48-3.06-6.03-5.38,1.48-0.11,2.95-0.18,4.41-0.18zm-7.91,28.06c1.29,0.1,2.57,0.2,3.53,0.5,0.98,0.3,2.01,0.6,3,0.9-1.2,1-1.58,3.6-3,3.6-1.7,0-2.48-4-3.53-5z"/>
</g>
</svg>
