<?xml version="1.0" encoding="UTF-8" standalone="no"?>
<!-- Created with Inkscape (http://www.inkscape.org/) -->

<svg
   xmlns:dc="http://purl.org/dc/elements/1.1/"
   xmlns:cc="http://creativecommons.org/ns#"
   xmlns:rdf="http://www.w3.org/1999/02/22-rdf-syntax-ns#"
   xmlns:svg="http://www.w3.org/2000/svg"
   xmlns="http://www.w3.org/2000/svg"
   xmlns:sodipodi="http://sodipodi.sourceforge.net/DTD/sodipodi-0.dtd"
   xmlns:inkscape="http://www.inkscape.org/namespaces/inkscape"
   width="846.02411"
   height="536.0285"
   id="svg2"
   version="1.1"
   inkscape:version="0.48.5 r10040"
   sodipodi:docname="svg.svg">
  <defs
     id="defs4">
    <clipPath
       clipPathUnits="userSpaceOnUse"
       id="clipPath3896">
      <path
         sodipodi:nodetypes="cscscc"
         inkscape:connector-curvature="0"
         id="path3898"
         d="m 405,277.36218 0,170 c 0,90 -117.5,130 -117.5,130 0,0 -117.5,-40 -117.5,-130 l 0,-170 z"
         style="fill:#006dc5;fill-opacity:1;stroke:none" />
    </clipPath>
    <clipPath
       id="clipPath5280"
       clipPathUnits="userSpaceOnUse">
      <path
         id="path5282"
         d="m 161.212,383.809 386.599,0 0,259.311 -386.599,0 0,-259.311 z"
         inkscape:connector-curvature="0" />
    </clipPath>
    <clipPath
       id="clipPath5268"
       clipPathUnits="userSpaceOnUse">
      <path
         id="path5270"
         d="m 424.756,675.497 257.103,0 0,259.673 -257.103,0 0,-259.673 z"
         inkscape:connector-curvature="0" />
    </clipPath>
    <clipPath
       id="clipPath5256"
       clipPathUnits="userSpaceOnUse">
      <path
         id="path5258"
         d="m 160.249,674.783 251.806,0 0,260.387 -251.806,0 0,-260.387 z"
         inkscape:connector-curvature="0" />
    </clipPath>
    <clipPath
       id="clipPath5092"
       clipPathUnits="userSpaceOnUse">
      <path
         id="path5094"
         d="m 708.662,1081.354 73.7,0 0,87.938 -73.7,0 0,-87.938 z"
         inkscape:connector-curvature="0" />
    </clipPath>
    <clipPath
       id="clipPath5070"
       clipPathUnits="userSpaceOnUse">
      <path
         id="path5072"
         d="m 50.004,1059.728 593.367,0 0,92.683 -593.367,0 0,-92.683 z"
         inkscape:connector-curvature="0" />
    </clipPath>
    <clipPath
       id="clipPath5046"
       clipPathUnits="userSpaceOnUse">
      <path
         id="path5048"
         d="m 50.003,1059.728 593.368,0 0,92.683 -593.368,0 0,-92.683 z"
         inkscape:connector-curvature="0" />
    </clipPath>
    <clipPath
       id="clipPath5034"
       clipPathUnits="userSpaceOnUse">
      <path
         id="path5036"
         d="m 50.003,1059.728 593.368,0 0,92.683 -593.368,0 0,-92.683 z"
         inkscape:connector-curvature="0" />
    </clipPath>
    <clipPath
       id="clipPath5092-6"
       clipPathUnits="userSpaceOnUse">
      <path
         inkscape:connector-curvature="0"
         id="path5094-3"
         d="m 708.662,1081.354 73.7,0 0,87.938 -73.7,0 0,-87.938 z" />
    </clipPath>
  </defs>
  <sodipodi:namedview
     id="base"
     pagecolor="#f6f3f1"
     bordercolor="#666666"
     borderopacity="1.0"
     inkscape:pageopacity="0"
     inkscape:pageshadow="2"
     inkscape:zoom="1"
     inkscape:cx="550.65773"
     inkscape:cy="276.84229"
     inkscape:document-units="px"
     inkscape:current-layer="g5088"
     showgrid="false"
     showborder="true"
     inkscape:window-width="1920"
     inkscape:window-height="1017"
     inkscape:window-x="-8"
     inkscape:window-y="-8"
     inkscape:window-maximized="1"
     fit-margin-top="0"
     fit-margin-left="0"
     fit-margin-right="0"
     fit-margin-bottom="0"
     showguides="false"
     inkscape:guide-bbox="true">
    <inkscape:grid
       type="xygrid"
       id="grid3810"
       empspacing="5"
       visible="true"
       enabled="true"
       snapvisiblegridlinesonly="true"
       originx="-109.4822px"
       originy="-443.97879px" />
  </sodipodi:namedview>
  <metadata
     id="metadata7">
    <rdf:RDF>
      <cc:Work
         rdf:about="">
        <dc:format>image/svg+xml</dc:format>
        <dc:type
           rdf:resource="http://purl.org/dc/dcmitype/StillImage" />
        <dc:title />
      </cc:Work>
    </rdf:RDF>
  </metadata>
  <g
     inkscape:label="Layer 1"
     inkscape:groupmode="layer"
     id="layer1"
     transform="translate(-109.4822,-72.3549)">
    <g
       transform="matrix(1.25,0,0,-1.25,943.81875,1007.493)"
       inkscape:label="PoltsamaaVald Jaanuar_2019_veebi"
       id="g4472" />
    <g
       transform="matrix(5,0,0,-5,-3462.8006,6026.3354)"
       id="g5088">
      <g
         id="g3399"
         transform="matrix(2,0,0,2,-1057.4589,-1114.7933)">
        <path
           sodipodi:nodetypes="cccc"
           inkscape:connector-curvature="0"
           id="path3359"
           d="m 885.96014,1150.7946 0.59998,2.0001 84.00002,0 0,-53.6001"
           style="fill:#1862ae;fill-opacity:1;fill-rule:evenodd;stroke:none" />
        <path
           sodipodi:nodetypes="ccccc"
           inkscape:connector-curvature="0"
           id="rect3340"
           transform="matrix(0.2,0,0,-0.2,700.12023,1183.3356)"
           d="m 929.1875,162.71875 0,258 423,0 -44.988,-38.01396 z"
           style="fill:#00a650;fill-opacity:1;fill-rule:evenodd;stroke:none" />
        <g
           id="g3225"
           transform="matrix(-0.88286929,0,0,0.88286929,1617.2839,122.40022)">
          <path
             id="path5156"
             style="fill:#fab30b;fill-opacity:1;fill-rule:evenodd;stroke:none"
             d="m 770.713,1148.113 -23.65,0 0,-0.893 23.65,0 0,0.893 z"
             inkscape:connector-curvature="0" />
          <g
             transform="translate(770.7133,1148.1133)"
             id="g5158">
            <path
               id="path5160"
               style="fill:none;stroke:#1862ae;stroke-width:0.34;stroke-linecap:butt;stroke-linejoin:miter;stroke-miterlimit:10;stroke-opacity:1;stroke-dasharray:none"
               d="m 0,0 -23.65,0 0,-0.893 23.65,0 L 0,0 z"
               inkscape:connector-curvature="0" />
          </g>
          <g
             transform="translate(770.7133,1147.2813)"
             id="g5162">
            <path
               id="path5164"
               style="fill:#fab30b;fill-opacity:1;fill-rule:evenodd;stroke:#1862ae;stroke-width:0.34;stroke-linecap:butt;stroke-linejoin:miter;stroke-miterlimit:10;stroke-opacity:1;stroke-dasharray:none"
               d="m 0,0 -23.65,0 0,-1.025 c -0.336,-0.168 -0.567,-0.515 -0.567,-0.916 0,-0.4 0.231,-0.747 0.567,-0.915 l 0,-0.983 23.65,0 0,0.948 c 0.378,0.151 0.644,0.519 0.644,0.95 0,0.432 -0.266,0.801 -0.644,0.951 L 0,0 z"
               inkscape:connector-curvature="0" />
          </g>
          <path
             id="path5166"
             style="fill:#fab30b;fill-opacity:1;fill-rule:evenodd;stroke:none"
             d="m 770.713,1142.162 -23.65,0 0,1.28 23.65,0 0,-1.28 z"
             inkscape:connector-curvature="0" />
          <g
             transform="translate(770.7133,1142.162)"
             id="g5168">
            <path
               id="path5170"
               style="fill:none;stroke:#1862ae;stroke-width:0.34;stroke-linecap:butt;stroke-linejoin:miter;stroke-miterlimit:10;stroke-opacity:1;stroke-dasharray:none"
               d="m 0,0 -23.65,0 0,1.28 L 0,1.28 0,0 z"
               inkscape:connector-curvature="0" />
          </g>
          <g
             transform="translate(770.3347,1146.3638)"
             id="g5172">
            <path
               id="path5174"
               style="fill:#fab30b;fill-opacity:1;fill-rule:evenodd;stroke:none"
               d="m 0,0 c -0.565,0 -1.023,-0.458 -1.023,-1.023 0,-0.565 0.458,-1.023 1.023,-1.023 0.565,0 1.023,0.458 1.023,1.023 C 1.023,-0.458 0.565,0 0,0"
               inkscape:connector-curvature="0" />
          </g>
          <g
             transform="translate(770.3347,1146.3638)"
             id="g5176">
            <path
               id="path5178"
               style="fill:none;stroke:#1862ae;stroke-width:0.34;stroke-linecap:butt;stroke-linejoin:miter;stroke-miterlimit:10;stroke-opacity:1;stroke-dasharray:none"
               d="m 0,0 c -0.565,0 -1.023,-0.458 -1.023,-1.023 0,-0.565 0.458,-1.023 1.023,-1.023 0.565,0 1.023,0.458 1.023,1.023 C 1.023,-0.458 0.565,0 0,0 z"
               inkscape:connector-curvature="0" />
          </g>
          <g
             transform="translate(758.9271,1146.3638)"
             id="g5180">
            <path
               id="path5182"
               style="fill:#fab30b;fill-opacity:1;fill-rule:evenodd;stroke:none"
               d="m 0,0 c -0.565,0 -1.023,-0.458 -1.023,-1.023 0,-0.565 0.458,-1.023 1.023,-1.023 0.565,0 1.023,0.458 1.023,1.023 C 1.023,-0.458 0.565,0 0,0"
               inkscape:connector-curvature="0" />
          </g>
          <g
             transform="translate(758.9271,1146.3638)"
             id="g5184">
            <path
               id="path5186"
               style="fill:none;stroke:#1862ae;stroke-width:0.34;stroke-linecap:butt;stroke-linejoin:miter;stroke-miterlimit:10;stroke-opacity:1;stroke-dasharray:none"
               d="m 0,0 c -0.565,0 -1.023,-0.458 -1.023,-1.023 0,-0.565 0.458,-1.023 1.023,-1.023 0.565,0 1.023,0.458 1.023,1.023 C 1.023,-0.458 0.565,0 0,0 z"
               inkscape:connector-curvature="0" />
          </g>
          <g
             transform="translate(747.5195,1146.3638)"
             id="g5188">
            <path
               id="path5190"
               style="fill:#fab30b;fill-opacity:1;fill-rule:evenodd;stroke:none"
               d="m 0,0 c -0.565,0 -1.023,-0.458 -1.023,-1.023 0,-0.565 0.458,-1.023 1.023,-1.023 0.565,0 1.023,0.458 1.023,1.023 C 1.023,-0.458 0.565,0 0,0"
               inkscape:connector-curvature="0" />
          </g>
          <g
             transform="translate(747.5195,1146.3638)"
             id="g5192">
            <path
               id="path5194"
               style="fill:none;stroke:#1862ae;stroke-width:0.34;stroke-linecap:butt;stroke-linejoin:miter;stroke-miterlimit:10;stroke-opacity:1;stroke-dasharray:none"
               d="m 0,0 c -0.565,0 -1.023,-0.458 -1.023,-1.023 0,-0.565 0.458,-1.023 1.023,-1.023 0.565,0 1.023,0.458 1.023,1.023 C 1.023,-0.458 0.565,0 0,0 z"
               inkscape:connector-curvature="0" />
          </g>
          <g
             transform="translate(764.4514,1146.5564)"
             id="g5196">
            <path
               id="path5198"
               style="fill:#fab30b;fill-opacity:1;fill-rule:evenodd;stroke:#1862ae;stroke-width:0.34;stroke-linecap:butt;stroke-linejoin:miter;stroke-miterlimit:10;stroke-opacity:1;stroke-dasharray:none"
               d="M 0,0 -1.216,-1.216 0,-2.431 1.216,-1.216 0,0 z"
               inkscape:connector-curvature="0" />
          </g>
          <g
             transform="translate(753.0439,1146.5564)"
             id="g5200">
            <path
               id="path5202"
               style="fill:#fab30b;fill-opacity:1;fill-rule:evenodd;stroke:#1862ae;stroke-width:0.34;stroke-linecap:butt;stroke-linejoin:miter;stroke-miterlimit:10;stroke-opacity:1;stroke-dasharray:none"
               d="M 0,0 -1.216,-1.216 0,-2.431 1.216,-1.216 0,0 z"
               inkscape:connector-curvature="0" />
          </g>
          <g
             transform="translate(759.793,1154.5345)"
             id="g5204">
            <path
               id="path5206"
               style="fill:#fab30b;fill-opacity:1;fill-rule:evenodd;stroke:none"
               d="m 0,0 c 0.567,-3.981 3.356,-5.219 5.596,-5.128 2.856,0.115 4.27,1.302 4.984,2.997 0.33,0.783 0.571,1.664 0.611,2.622 l -2.328,-1.877 0.051,0.59 C 8.077,-0.426 7.497,0.401 7.472,1.322 L 6.87,1.663 7.518,1.843 C 7.702,2.737 8.412,3.4 9.295,3.55 L 9.347,4.139 11,2.331 C 10.775,3.193 10.382,4.049 10.08,4.99 10.347,4.835 10.633,4.721 11.048,4.896 11.899,5.711 12.555,5.993 13.156,5.84 13.516,5.748 13.769,5.473 14.278,5.135 12.455,4.958 12.752,3.623 12.717,2.299 12.67,0.568 12.363,-1.131 11.814,-2.799 12.007,-3.951 11.638,-5.165 10.885,-6.422 l -11.526,0 -0.347,0 -11.526,0 c -0.753,1.257 -1.122,2.471 -0.929,3.623 -0.557,1.694 -0.865,3.419 -0.904,5.178 -0.029,1.306 0.228,2.582 -1.559,2.756 0.508,0.338 0.761,0.613 1.122,0.705 0.6,0.153 1.257,-0.129 2.108,-0.944 0.414,-0.175 0.7,-0.061 0.968,0.094 -0.302,-0.941 -0.696,-1.797 -0.92,-2.659 l 1.653,1.808 0.051,-0.589 C -10.041,3.4 -9.33,2.737 -9.146,1.843 l 0.647,-0.18 -0.602,-0.341 c -0.025,-0.921 -0.605,-1.748 -1.442,-2.118 l 0.051,-0.59 -2.327,1.877 c 0.039,-0.958 0.28,-1.839 0.61,-2.622 0.715,-1.695 2.128,-2.882 4.984,-2.997 2.24,-0.091 5.027,1.145 5.596,5.123 -0.198,0.156 -0.349,0.367 -0.431,0.61 l -2.211,-2.034 0.051,0.596 c -0.837,0.263 -1.417,1.016 -1.442,1.934 l -0.602,0.263 0.648,0.263 c 0.184,0.918 0.894,1.672 1.777,1.934 l 0.052,0.596 2.029,-2.222 c 0.079,0.081 0.167,0.151 0.264,0.21 l -2.183,2.284 0.596,0 c 0.263,0.899 1.016,1.574 1.934,1.684 L -0.883,6.766 -0.62,6.113 C 0.298,6.003 1.051,5.328 1.314,4.429 l 0.596,0 -2.137,-2.236 C -0.135,2.146 -0.048,2.088 0.03,2.021 L 2.018,4.132 2.072,3.536 C 2.983,3.273 3.717,2.519 3.908,1.602 L 4.577,1.338 3.956,1.075 C 3.931,0.157 3.333,-0.596 2.47,-0.859 L 2.524,-1.455 0.368,0.466 C 0.282,0.284 0.155,0.124 0,0"
               inkscape:connector-curvature="0" />
          </g>
          <g
             transform="translate(759.0313,1153.5983)"
             id="g5208">
            <path
               id="path5210"
               style="fill:none;stroke:#1862ae;stroke-width:0.34;stroke-linecap:butt;stroke-linejoin:miter;stroke-miterlimit:10;stroke-opacity:1;stroke-dasharray:none"
               d="m 0,0 c 0.433,-3.037 3.026,-5.5 6.524,-5.5 2.468,0 4.546,1.27 5.668,3.11"
               inkscape:connector-curvature="0" />
          </g>
          <g
             transform="translate(759.0312,1153.5983)"
             id="g5212">
            <path
               id="path5214"
               style="fill:none;stroke:#1862ae;stroke-width:0.34;stroke-linecap:butt;stroke-linejoin:miter;stroke-miterlimit:10;stroke-opacity:1;stroke-dasharray:none"
               d="M 0,0 C 0.433,-3.037 3.026,-5.5 6.524,-5.5"
               inkscape:connector-curvature="0" />
          </g>
          <g
             transform="translate(759.0206,1153.6028)"
             id="g5216">
            <path
               id="path5218"
               style="fill:none;stroke:#1862ae;stroke-width:0.34;stroke-linecap:butt;stroke-linejoin:miter;stroke-miterlimit:10;stroke-opacity:1;stroke-dasharray:none"
               d="m 0,0 c -0.433,-3.037 -3.027,-5.5 -6.524,-5.5 -2.511,0 -4.618,1.314 -5.726,3.205"
               inkscape:connector-curvature="0" />
          </g>
          <g
             transform="translate(758.9687,1156.8569)"
             id="g5220">
            <path
               id="path5222"
               style="fill:#fab30b;fill-opacity:1;fill-rule:evenodd;stroke:none"
               d="m 0,0 c -0.729,0 -1.32,-0.591 -1.32,-1.32 0,-0.728 0.591,-1.319 1.32,-1.319 0.729,0 1.32,0.591 1.32,1.319 C 1.32,-0.591 0.729,0 0,0"
               inkscape:connector-curvature="0" />
          </g>
          <g
             transform="translate(758.9687,1156.8569)"
             id="g5224">
            <path
               id="path5226"
               style="fill:none;stroke:#1862ae;stroke-width:0.34;stroke-linecap:butt;stroke-linejoin:miter;stroke-miterlimit:10;stroke-opacity:1;stroke-dasharray:none"
               d="m 0,0 c -0.729,0 -1.32,-0.591 -1.32,-1.32 0,-0.728 0.591,-1.319 1.32,-1.319 0.729,0 1.32,0.591 1.32,1.319 C 1.32,-0.591 0.729,0 0,0 z"
               inkscape:connector-curvature="0" />
          </g>
        </g>
        <g
           id="g3263"
           transform="matrix(0.77482245,0,0,0.77482245,340.30166,251.71573)">
          <g
             transform="translate(747.706,1104.7183)"
             id="g5228">
            <path
               id="path5230"
               style="fill:#fab30b;fill-opacity:1;fill-rule:evenodd;stroke:none"
               d="m 0,0 c -1.006,-0.237 -1.935,-0.884 -2.522,-1.868 -0.611,-1.023 -0.726,-2.2 -0.412,-3.227 1.054,0.211 2.035,0.87 2.646,1.894 0.563,0.944 0.705,2.017 0.478,2.984 L 0.774,0.736 0.54,0.879 0,0 z m -6.682,0.011 c 1.007,-0.236 1.935,-0.884 2.523,-1.867 0.611,-1.024 0.725,-2.2 0.411,-3.228 -1.053,0.211 -2.034,0.87 -2.645,1.894 -0.564,0.944 -0.705,2.017 -0.478,2.985 l -0.585,0.952 0.235,0.144 0.539,-0.88 z M 0,4.477 C -1.006,4.24 -1.935,3.593 -2.522,2.609 -3.133,1.585 -3.248,0.409 -2.934,-0.619 -1.88,-0.407 -0.899,0.252 -0.288,1.276 0.275,2.22 0.417,3.293 0.19,4.26 L 0.774,5.213 0.54,5.356 0,4.477 z m -6.682,0.011 c 1.007,-0.237 1.935,-0.884 2.523,-1.867 0.611,-1.024 0.725,-2.2 0.411,-3.228 -1.053,0.211 -2.034,0.87 -2.645,1.894 -0.564,0.944 -0.705,2.017 -0.478,2.984 l -0.585,0.953 0.235,0.143 0.539,-0.879 z M 0,8.954 C -1.006,8.717 -1.935,8.069 -2.522,7.086 -3.133,6.062 -3.248,4.886 -2.934,3.858 -1.88,4.07 -0.899,4.729 -0.288,5.753 0.275,6.696 0.417,7.77 0.19,8.737 L 0.774,9.689 0.54,9.833 0,8.954 z m -6.682,0.011 c 1.007,-0.237 1.935,-0.884 2.523,-1.868 0.611,-1.024 0.725,-2.2 0.411,-3.228 -1.053,0.212 -2.034,0.871 -2.645,1.895 -0.564,0.944 -0.705,2.017 -0.478,2.984 l -0.585,0.953 0.235,0.143 0.539,-0.879 z M 0,13.43 c -1.006,-0.237 -1.935,-0.884 -2.522,-1.867 -0.611,-1.024 -0.726,-2.2 -0.412,-3.228 1.054,0.211 2.035,0.87 2.646,1.894 0.563,0.944 0.705,2.017 0.478,2.985 L 0.774,14.166 0.54,14.31 0,13.43 z m -6.682,0.012 c 1.007,-0.237 1.935,-0.884 2.523,-1.868 0.611,-1.024 0.725,-2.2 0.411,-3.228 -1.053,0.212 -2.034,0.871 -2.645,1.895 -0.564,0.943 -0.705,2.017 -0.478,2.984 l -0.585,0.953 0.235,0.143 0.539,-0.879 z M 0,17.907 c -1.006,-0.237 -1.935,-0.884 -2.522,-1.867 -0.611,-1.024 -0.726,-2.201 -0.412,-3.228 1.054,0.211 2.035,0.87 2.646,1.894 0.563,0.944 0.705,2.017 0.478,2.984 L 0.774,18.643 0.54,18.786 0,17.907 z m -6.682,0.011 c 1.007,-0.236 1.935,-0.884 2.523,-1.867 0.611,-1.024 0.725,-2.2 0.411,-3.228 -1.053,0.211 -2.034,0.87 -2.645,1.895 -0.564,0.943 -0.705,2.016 -0.478,2.984 l -0.585,0.952 0.235,0.144 0.539,-0.88 z m 3.129,3.898 c -0.707,-0.728 -1.139,-1.748 -1.123,-2.871 0.018,-1.192 0.538,-2.253 1.345,-2.963 0.786,0.733 1.274,1.809 1.257,3.002 -0.016,1.077 -0.442,2.047 -1.12,2.748 l 0,1.357 -0.359,0 0,-1.273 z"
               inkscape:connector-curvature="0" />
          </g>
          <g
             transform="translate(737.3812,1109.8871)"
             id="g5232">
            <path
               id="path5234"
               style="fill:#fab30b;fill-opacity:1;fill-rule:evenodd;stroke:none"
               d="m 0,0 c -1.006,-0.237 -1.935,-0.884 -2.522,-1.868 -0.611,-1.024 -0.726,-2.2 -0.412,-3.228 1.054,0.212 2.034,0.871 2.646,1.895 0.563,0.944 0.705,2.017 0.478,2.984 L 0.774,0.736 0.54,0.879 0,0 z m -6.682,0.011 c 1.007,-0.236 1.935,-0.884 2.523,-1.867 0.611,-1.024 0.725,-2.2 0.412,-3.228 -1.054,0.211 -2.035,0.87 -2.646,1.894 -0.564,0.944 -0.705,2.017 -0.478,2.985 l -0.585,0.952 0.235,0.144 0.539,-0.88 z M 0,4.477 C -1.006,4.24 -1.935,3.593 -2.522,2.609 -3.133,1.585 -3.248,0.409 -2.934,-0.619 -1.88,-0.407 -0.9,0.252 -0.288,1.276 0.275,2.219 0.417,3.293 0.19,4.26 L 0.774,5.213 0.54,5.356 0,4.477 z m -6.682,0.011 c 1.007,-0.237 1.935,-0.884 2.523,-1.867 0.611,-1.025 0.725,-2.2 0.412,-3.228 -1.054,0.211 -2.035,0.87 -2.646,1.894 -0.564,0.944 -0.705,2.017 -0.478,2.984 l -0.585,0.953 0.235,0.143 0.539,-0.879 z M 0,8.954 C -1.006,8.717 -1.935,8.069 -2.522,7.086 -3.133,6.062 -3.248,4.886 -2.934,3.858 -1.88,4.07 -0.9,4.729 -0.288,5.752 0.275,6.696 0.417,7.77 0.19,8.737 L 0.774,9.689 0.54,9.833 0,8.954 z m -6.682,0.011 c 1.007,-0.237 1.935,-0.884 2.523,-1.868 0.611,-1.024 0.725,-2.2 0.412,-3.228 -1.054,0.212 -2.035,0.871 -2.646,1.895 -0.564,0.944 -0.705,2.017 -0.478,2.984 l -0.585,0.953 0.235,0.143 0.539,-0.879 z M 0,13.43 c -1.006,-0.237 -1.935,-0.884 -2.522,-1.867 -0.611,-1.024 -0.726,-2.2 -0.412,-3.228 1.054,0.211 2.034,0.87 2.646,1.894 0.563,0.944 0.705,2.017 0.478,2.985 L 0.774,14.166 0.54,14.31 0,13.43 z m -6.682,0.012 c 1.007,-0.237 1.935,-0.884 2.523,-1.868 0.611,-1.024 0.725,-2.2 0.412,-3.228 -1.054,0.211 -2.035,0.871 -2.646,1.895 -0.564,0.943 -0.705,2.017 -0.478,2.984 l -0.585,0.952 0.235,0.144 0.539,-0.879 z M 0,17.907 c -1.006,-0.237 -1.935,-0.884 -2.522,-1.867 -0.611,-1.024 -0.726,-2.201 -0.412,-3.228 1.054,0.211 2.034,0.87 2.646,1.894 0.563,0.944 0.705,2.017 0.478,2.984 L 0.774,18.643 0.54,18.787 0,17.907 z m -6.682,0.011 c 1.007,-0.237 1.935,-0.884 2.523,-1.867 0.611,-1.024 0.725,-2.2 0.412,-3.228 -1.054,0.211 -2.035,0.87 -2.646,1.895 -0.564,0.943 -0.705,2.016 -0.478,2.984 l -0.585,0.952 0.235,0.144 0.539,-0.88 z m 3.129,3.898 c -0.707,-0.728 -1.139,-1.748 -1.123,-2.871 0.018,-1.192 0.538,-2.253 1.345,-2.963 0.786,0.733 1.274,1.809 1.256,3.002 -0.015,1.077 -0.441,2.047 -1.119,2.748 l 0,1.357 -0.359,0 0,-1.273 z"
               inkscape:connector-curvature="0" />
          </g>
          <g
             transform="translate(726.9456,1115.0554)"
             id="g5236">
            <path
               id="path5238"
               style="fill:#fab30b;fill-opacity:1;fill-rule:evenodd;stroke:none"
               d="m 0,0 c -1.006,-0.237 -1.935,-0.884 -2.522,-1.868 -0.611,-1.023 -0.726,-2.2 -0.412,-3.228 1.054,0.212 2.034,0.871 2.646,1.895 0.563,0.944 0.705,2.017 0.478,2.984 L 0.774,0.736 0.54,0.879 0,0 z m -6.682,0.011 c 1.007,-0.237 1.935,-0.884 2.522,-1.867 0.612,-1.024 0.726,-2.2 0.412,-3.228 -1.053,0.211 -2.034,0.87 -2.645,1.894 -0.563,0.944 -0.705,2.017 -0.478,2.985 l -0.585,0.952 0.235,0.144 0.539,-0.88 z M 0,4.477 C -1.006,4.24 -1.935,3.593 -2.522,2.609 -3.133,1.585 -3.248,0.409 -2.934,-0.619 -1.88,-0.407 -0.9,0.252 -0.288,1.276 0.275,2.219 0.417,3.293 0.19,4.26 L 0.774,5.213 0.54,5.356 0,4.477 z m -6.682,0.011 c 1.007,-0.237 1.935,-0.884 2.522,-1.867 0.612,-1.025 0.726,-2.201 0.412,-3.229 -1.053,0.212 -2.034,0.871 -2.645,1.895 -0.563,0.944 -0.705,2.017 -0.478,2.984 l -0.585,0.953 0.235,0.143 0.539,-0.879 z M 0,8.954 C -1.006,8.717 -1.935,8.069 -2.522,7.086 -3.133,6.062 -3.248,4.886 -2.934,3.858 -1.88,4.07 -0.9,4.729 -0.288,5.752 0.275,6.696 0.417,7.77 0.19,8.737 L 0.774,9.689 0.54,9.833 0,8.954 z m -6.682,0.011 c 1.007,-0.237 1.935,-0.884 2.522,-1.868 0.612,-1.024 0.726,-2.2 0.412,-3.228 -1.053,0.212 -2.034,0.871 -2.645,1.895 -0.563,0.944 -0.705,2.017 -0.478,2.984 l -0.585,0.953 0.235,0.143 0.539,-0.879 z M 0,13.43 c -1.006,-0.237 -1.935,-0.884 -2.522,-1.867 -0.611,-1.024 -0.726,-2.2 -0.412,-3.228 1.054,0.211 2.034,0.87 2.646,1.894 0.563,0.944 0.705,2.017 0.478,2.985 L 0.774,14.166 0.54,14.31 0,13.43 z m -6.682,0.012 c 1.007,-0.237 1.935,-0.884 2.522,-1.868 0.612,-1.024 0.726,-2.2 0.412,-3.228 -1.053,0.212 -2.034,0.871 -2.645,1.895 -0.563,0.943 -0.705,2.017 -0.478,2.984 l -0.585,0.953 0.235,0.143 0.539,-0.879 z M 0,17.907 c -1.006,-0.237 -1.935,-0.884 -2.522,-1.867 -0.611,-1.025 -0.726,-2.201 -0.412,-3.228 1.054,0.211 2.034,0.87 2.646,1.894 0.563,0.944 0.705,2.017 0.478,2.984 L 0.774,18.643 0.54,18.786 0,17.907 z m -6.682,0.011 c 1.007,-0.237 1.935,-0.884 2.522,-1.867 0.612,-1.024 0.726,-2.2 0.412,-3.228 -1.053,0.211 -2.034,0.87 -2.645,1.895 -0.563,0.943 -0.705,2.016 -0.478,2.984 l -0.585,0.952 0.235,0.144 0.539,-0.88 z m 3.129,3.898 c -0.706,-0.728 -1.139,-1.748 -1.123,-2.871 0.018,-1.192 0.538,-2.253 1.345,-2.963 0.786,0.733 1.274,1.809 1.257,3.002 -0.016,1.077 -0.442,2.047 -1.12,2.748 l 0,1.357 -0.359,0 0,-1.273 z"
               inkscape:connector-curvature="0" />
          </g>
        </g>
        <path
           id="path3338"
           transform="matrix(0.2,0,0,-0.2,700.12023,1183.3356)"
           d="m 929.1875,152.71875 0,22.125 c 0.14979,0.0836 0.28649,0.16375 0.4375,0.25 17.7066,10.113 12.7318,21.10475 30.4375,31.21875 17.7066,10.113 26.98145,1.5715 44.6875,11.6875 17.7067,10.113 12.7316,21.10475 30.4375,31.21875 17.7067,10.1125 26.9816,1.5705 44.6875,11.6875 17.7055,10.112 12.7326,21.136 30.4375,31.25 17.7065,10.1125 26.9817,1.5705 44.6875,11.6875 17.7067,10.1125 12.7314,21.10425 30.4375,31.21875 17.7067,10.113 26.9504,1.5755 44.6563,11.6875 17.7068,10.1125 12.7627,21.10475 30.4687,31.21875 17.7068,10.113 26.9502,1.5705 44.6563,11.6875 17.6102,10.05753 12.7899,20.99256 30.1562,31.0625 l 16.8125,0 0,-17 c -1.224,-0.55896 -2.4717,-1.18958 -3.7813,-1.9375 -17.7064,-10.1155 -12.7622,-21.10625 -30.4687,-31.21875 -17.7061,-10.117 -26.9494,-1.5745 -44.6563,-11.6875 -17.7059,-10.114 -12.7306,-21.10625 -30.4374,-31.21875 -17.7059,-10.112 -26.9809,-1.5745 -44.6876,-11.6875 -17.706,-10.1145 -12.7308,-21.10625 -30.4374,-31.21875 -17.7059,-10.117 -26.981,-1.575 -44.6876,-11.6875 -17.7049,-10.114 -12.7319,-21.10675 -30.4374,-31.21875 -17.7059,-10.117 -26.9808,-1.60625 -44.6876,-11.71875 -17.7059,-10.114 -12.7307,-21.10575 -30.4374,-31.21875 -17.7061,-10.116 -26.9497,-1.5745 -44.6563,-11.6875 C 955.1068,177.10475 960.0816,166.113 942.375,156 c -2.54224,-1.45198 -4.91213,-2.48777 -7.15625,-3.28125 l -6.03125,0 z"
           style="color:#000000;fill:#fab30b;fill-opacity:1;stroke:none;stroke-width:0.45582443;marker:none;visibility:visible;display:inline;overflow:visible;enable-background:accumulate"
           inkscape:connector-curvature="0" />
      </g>
    </g>
  </g>
</svg>
