<?xml version="1.0" standalone="no"?>
<!DOCTYPE svg PUBLIC "-//W3C//DTD SVG 20010904//EN"
 "http://www.w3.org/TR/2001/REC-SVG-20010904/DTD/svg10.dtd">
<svg version="1.0" xmlns="http://www.w3.org/2000/svg"
 width="822.000000pt" height="532.000000pt" viewBox="0 0 822.000000 532.000000"
 preserveAspectRatio="xMidYMid meet">
<metadata>
Created by potrace 1.14, written by Peter Selinger 2001-2017
</metadata>
<g fill="#FFF" stroke="none">
<rect x="5" y="5" width="815" height="526"  />
</g>
<g transform="translate(0.000000,532.000000) scale(0.100000,-0.100000)"
fill="#019348" stroke="none">
<path d="M40 3958 l0 -1318 1402 0 1403 0 -120 120 c-66 66 -229 229 -362 363
-134 133 -243 245 -243 249 0 5 281 8 625 8 l625 0 0 625 c0 453 3 625 11 625
6 0 172 -162 369 -359 197 -198 361 -357 364 -353 3 3 6 308 6 679 l0 673
-2040 2 -2040 3 0 -1317z"/>
<path d="M4482 4257 l-362 -363 2 -625 3 -624 629 -3 629 -2 363 362 364 363
-623 5 -622 5 -3 623 c-1 342 -5 622 -10 622 -4 0 -170 -164 -370 -363z"/>
<path d="M2498 2272 c-197 -197 -358 -361 -358 -365 0 -4 278 -8 618 -9 l617
-3 3 -622 c1 -343 5 -623 10 -623 4 0 168 161 365 358 l357 358 0 632 0 632
-627 0 -628 0 -357 -358z"/>
<path d="M5750 2270 c198 -198 360 -365 360 -370 0 -6 -224 -11 -622 -12
l-623 -3 -3 -622 c-1 -343 -6 -623 -10 -623 -4 0 -167 160 -362 355 -195 195
-358 355 -363 355 -4 0 -6 -303 -5 -672 l3 -673 2035 0 2035 0 3 1313 2 1312
-1405 0 -1405 0 360 -360z"/>
</g>
</svg>
