<?xml version="1.0" encoding="UTF-8" standalone="no"?>
<!-- Created with Inkscape (http://www.inkscape.org/) -->
<svg xmlns="http://www.w3.org/2000/svg" height="400" width="600" version="1.1">
<rect height="400" width="600" y="0" x="0" fill="#FFF"/>
<path fill="#0093dd" d="M300,40.94,289.5,60.44,272.5,49.94,288.8,112.9c-1.8,0.8-3.4,1.7-5,2.9l-46.3-45.64,0.6,19.97-22.2-0.66,11.7,18.83-17.6,9.5,62.7,17.4c-0.1,0.9-0.2,1.8-0.2,2.8,0,0.9,0.1,1.9,0.2,2.8l-62.7,17.4,17.6,9.5-11.7,18.8,22.2-0.6-0.6,19.9,46.3-45.6c1.6,1.2,3.2,2.1,5,2.9l-16.3,63,17-10.5,10.5,19.5,10.5-19.5,17,10.5-16.3-63c1.8-0.8,3.4-1.7,5-2.9l46.3,45.6-0.6-19.9,22.2,0.6-11.7-18.8,17.6-9.5-62.7-17.4c0.1-0.9,0.2-1.9,0.2-2.8,0-1-0.1-1.9-0.2-2.8l62.7-17.4-17.6-9.5,11.7-18.83-22.2,0.66,0.6-19.97-46.3,45.64c-1.6-1.2-3.2-2.1-5-2.9l16.3-62.96-17,10.5-10.5-19.5z"/>
<path fill="#f8c300" d="M327.5,138a27.5,27.5,0,0,1,-55,0,27.5,27.5,0,1,1,55,0z"/>
<path d="M0,282c13.57,5.3,21.97,13.5,46.51,13.5,36.5,0,36.98-18,72.49-18,35.5,0,36,18,72.5,18s37-18,72.5-18,36,18,72.5,18,37-18,72.5-18,36,18,72.5,18,37-18,72.5-18c24.2,0,31.8,8.2,46,13.5v109h-600z" fill="#0093dd"/>
<path d="M0,317c13.57,5.3,21.97,13.5,46.51,13.5,36.5,0,36.98-18,72.49-18,35.5,0,36,18,72.5,18s37-18,72.5-18,36,18,72.5,18,37-18,72.5-18,36,18,72.5,18,37-18,72.5-18c24.2,0,31.8,8.2,46,13.5v74h-600z" fill="#FFF"/>
</svg>
