<?xml version="1.0" encoding="UTF-8" standalone="no"?>
<!-- Created with Inkscape (http://www.inkscape.org/) -->

<svg
   xmlns:dc="http://purl.org/dc/elements/1.1/"
   xmlns:cc="http://creativecommons.org/ns#"
   xmlns:rdf="http://www.w3.org/1999/02/22-rdf-syntax-ns#"
   xmlns:svg="http://www.w3.org/2000/svg"
   xmlns="http://www.w3.org/2000/svg"
   xmlns:sodipodi="http://sodipodi.sourceforge.net/DTD/sodipodi-0.dtd"
   xmlns:inkscape="http://www.inkscape.org/namespaces/inkscape"
   id="svg2010"
   sodipodi:version="0.32"
   inkscape:version="0.92.4 (5da689c313, 2019-01-14)"
   width="471.42999"
   height="300"
   version="1.0"
   sodipodi:docname="Tartumaa_lipp.svg">
  <metadata
     id="metadata2015">
    <rdf:RDF>
      <cc:Work
         rdf:about="">
        <dc:format>image/svg+xml</dc:format>
        <dc:type
           rdf:resource="http://purl.org/dc/dcmitype/StillImage" />
      </cc:Work>
    </rdf:RDF>
  </metadata>
  <defs
     id="defs2013" />
  <sodipodi:namedview
     inkscape:window-height="1017"
     inkscape:window-width="1920"
     inkscape:pageshadow="2"
     inkscape:pageopacity="0.0"
     guidetolerance="10.0"
     gridtolerance="10.0"
     objecttolerance="10.0"
     borderopacity="1.0"
     bordercolor="#666666"
     pagecolor="#ffffff"
     id="base"
     width="471.43px"
     height="300px"
     inkscape:zoom="1.7066667"
     inkscape:cx="136.4909"
     inkscape:cy="109.84081"
     inkscape:window-x="-8"
     inkscape:window-y="-8"
     inkscape:current-layer="svg2010"
     showgrid="false"
     inkscape:window-maximized="1" />
  <g
     id="g2313"
     transform="matrix(1.714291,0,0,1.714292,-1.386987e-6,-1.086921e-3)">
    <rect
       id="green Stripe"
       style="fill:#009739;fill-opacity:1"
       y="87.500328"
       x="1.9417648e-006"
       height="87.499664"
       width="275" />
    <rect
       id="white Stripe"
       style="fill:white"
       y="0.00066018361"
       x="1.9417648e-006"
       height="87.499664"
       width="275" />
  </g>
  <g
     id="g64550"
     transform="matrix(0.439259,0,0,0.438757,184.9248,11.03753)">
    <path
       id="path14444"
       d="M 221.6875,45.34375 C 219.10164,47.823934 216.8459,49.705754 214.84375,51.125 C 212.70299,52.642506 210.742,53.776456 208.71875,54.96875 C 206.6955,56.161044 204.59895,57.403 202.125,59.1875 C 199.65105,60.972 196.80536,63.299625 193.3125,66.59375 C 189.85462,69.85488 187.42372,72.57801 185.5,75.0625 C 183.57628,77.54699 182.17123,79.787159 180.71875,82.09375 C 179.26627,84.400341 177.79417,86.772568 175.75,89.5 C 173.70583,92.227432 171.07378,95.315487 167.375,99.0625 C 163.67621,102.80951 160.75146,105.37995 158.1875,107.375 C 155.62354,109.37005 153.44478,110.78355 151.28125,112.15625 C 149.11772,113.52895 146.96625,114.87003 144.46875,116.75 C 141.97125,118.62997 139.12836,121.04566 135.5625,124.5625 C 131.99664,128.07934 129.49446,130.92879 127.53125,133.4375 C 125.56804,135.94621 124.12074,138.13197 122.6875,140.3125 C 121.25426,142.49303 119.81968,144.65519 117.84375,147.1875 C 115.86782,149.71981 113.37253,152.62347 109.78125,156.1875 C 106.18997,159.75153 103.20487,162.29002 100.53125,164.34375 C 97.85763,166.39748 95.475789,167.94426 93.0625,169.53125 C 90.649211,171.11824 88.216539,172.74245 85.40625,174.90625 C 82.595961,177.07005 79.427122,179.77833 75.5625,183.5625 C 73.630188,185.45458 71.974957,187.21393 70.53125,188.84375 C 69.087543,190.47357 67.837709,191.97657 66.75,193.40625 C 64.574581,196.2656 62.984581,198.78722 61.4375,201.21875 C 59.890419,203.65028 58.38586,205.99929 56.40625,208.5 C 55.416445,209.75035 54.3281,211.04542 53.03125,212.40625 C 51.7344,213.76708 50.236504,215.18531 48.5,216.71875 C 45.060502,219.75603 41.812592,222.20996 38.875,224.1875 C 35.937408,226.16504 33.322041,227.66318 31.125,228.78125 C 28.927959,229.89932 27.155343,230.63485 25.9375,231.09375 C 24.719657,231.55265 24.03125,231.75 24.03125,231.75 C 24.03125,231.75 22.360907,230.42103 21.25,229.53125 C 41.19574,255.95095 82.291842,264.69328 115.03125,282.03125 C 158.46707,259.95742 218.69896,250.75797 221.6875,198 L 221.6875,45.34375 z "
       style="fill:#009739;fill-opacity:1;fill-rule:evenodd;stroke:#009731;stroke-width:1;stroke-linecap:butt;stroke-linejoin:miter;stroke-miterlimit:4;stroke-dasharray:none;stroke-opacity:1" />
    <g
       id="g17996">
      <path
         style="fill:white;fill-opacity:1;fill-rule:evenodd;stroke:none;stroke-width:0.86564833px;stroke-linecap:butt;stroke-linejoin:miter;stroke-opacity:1"
         d="M 221.6875,25.1875 C 220.91885,26.325562 220.34872,27.326177 219.4375,28.53125 C 217.37011,31.265328 214.92024,34.146113 212.09375,36.90625 C 209.26726,39.666387 206.92201,41.576244 204.78125,43.09375 C 202.64049,44.611256 200.71075,45.713956 198.6875,46.90625 C 196.66425,48.098544 194.5677,49.37175 192.09375,51.15625 C 189.6198,52.94075 186.77411,55.237124 183.28125,58.53125 C 179.82337,61.79238 177.39247,64.515509 175.46875,67 C 173.54503,69.484491 172.10873,71.755909 170.65625,74.0625 C 169.20377,76.369091 167.73167,78.710069 165.6875,81.4375 C 163.64333,84.164931 161.04254,87.252989 157.34375,91 C 153.64496,94.747012 150.68896,97.348697 148.125,99.34375 C 145.56104,101.3388 143.38228,102.7523 141.21875,104.125 C 139.05522,105.4977 136.90375,106.83878 134.40625,108.71875 C 131.90875,110.59872 129.06586,113.01441 125.5,116.53125 C 121.93414,120.04809 119.43196,122.89754 117.46875,125.40625 C 115.50554,127.91496 114.08949,130.06947 112.65625,132.25 C 111.22301,134.43053 109.78843,136.62394 107.8125,139.15625 C 105.83657,141.68856 103.31003,144.56097 99.71875,148.125 C 96.127467,151.68903 93.173619,154.22752 90.5,156.28125 C 87.826381,158.33498 85.444538,159.91301 83.03125,161.5 C 80.617962,163.08699 78.15404,164.7112 75.34375,166.875 C 72.53346,169.0388 69.364625,171.74708 65.5,175.53125 C 63.567687,177.42333 61.912457,179.15143 60.46875,180.78125 C 59.025043,182.41107 57.80646,183.94532 56.71875,185.375 C 54.543331,188.23435 52.953331,190.75597 51.40625,193.1875 C 49.859169,195.61903 48.35461,197.93679 46.375,200.4375 C 45.385195,201.68785 44.2656,202.98292 42.96875,204.34375 C 41.6719,205.70458 40.205254,207.15406 38.46875,208.6875 C 35.029252,211.72478 31.781342,214.17872 28.84375,216.15625 C 25.906158,218.13378 23.259541,219.63193 21.0625,220.75 C 19.260676,221.66695 17.970165,222.19477 16.8125,222.65625 C 18.145966,225.07309 19.615726,227.36653 21.25,229.53125 C 22.360907,230.42103 24.03125,231.75 24.03125,231.75 C 24.03125,231.75 24.719657,231.55265 25.9375,231.09375 C 27.155343,230.63485 28.927959,229.89932 31.125,228.78125 C 33.322041,227.66318 35.937408,226.16504 38.875,224.1875 C 41.812592,222.20996 45.060502,219.75603 48.5,216.71875 C 50.236504,215.18531 51.7344,213.76708 53.03125,212.40625 C 54.3281,211.04542 55.416445,209.75035 56.40625,208.5 C 58.38586,205.99929 59.890419,203.65028 61.4375,201.21875 C 62.984581,198.78722 64.574581,196.2656 66.75,193.40625 C 67.837709,191.97657 69.087543,190.47357 70.53125,188.84375 C 71.974957,187.21393 73.630188,185.45458 75.5625,183.5625 C 79.427122,179.77833 82.595961,177.07005 85.40625,174.90625 C 88.216539,172.74245 90.649211,171.11824 93.0625,169.53125 C 95.475789,167.94426 97.85763,166.39748 100.53125,164.34375 C 103.20487,162.29002 106.18997,159.75153 109.78125,156.1875 C 113.37253,152.62347 115.86782,149.71981 117.84375,147.1875 C 119.81968,144.65519 121.25426,142.49303 122.6875,140.3125 C 124.12074,138.13197 125.56804,135.94621 127.53125,133.4375 C 129.49446,130.92879 131.99664,128.07934 135.5625,124.5625 C 139.12836,121.04566 141.97125,118.62997 144.46875,116.75 C 146.96625,114.87003 149.11772,113.52895 151.28125,112.15625 C 153.44478,110.78355 155.62354,109.37005 158.1875,107.375 C 160.75146,105.37995 163.67621,102.80951 167.375,99.0625 C 171.07378,95.315487 173.70583,92.227432 175.75,89.5 C 177.79417,86.772568 179.26627,84.400341 180.71875,82.09375 C 182.17123,79.787159 183.57628,77.54699 185.5,75.0625 C 187.42372,72.57801 189.85462,69.85488 193.3125,66.59375 C 196.80536,63.299625 199.65105,60.972 202.125,59.1875 C 204.59895,57.403 206.6955,56.161044 208.71875,54.96875 C 210.742,53.776456 212.70299,52.642506 214.84375,51.125 C 216.8459,49.705754 219.10164,47.823934 221.6875,45.34375 L 221.6875,25.1875 z "
         id="path14442" />
      <path
         style="fill:white;fill-opacity:1;fill-rule:evenodd;stroke:none;stroke-width:0.86564833px;stroke-linecap:butt;stroke-linejoin:miter;stroke-opacity:1"
         d="M 208.46875,9.53125 C 207.28924,11.428666 206.07182,13.369898 204.4375,15.53125 C 202.37011,18.265329 199.92024,21.146112 197.09375,23.90625 C 194.26726,26.666387 191.92201,28.576243 189.78125,30.09375 C 187.64049,31.611257 185.71075,32.713956 183.6875,33.90625 C 181.66425,35.098544 179.5677,36.37175 177.09375,38.15625 C 174.6198,39.94075 171.77411,42.237125 168.28125,45.53125 C 164.82337,48.79238 162.39247,51.51551 160.46875,54 C 158.54503,56.48449 157.10873,58.75591 155.65625,61.0625 C 154.20377,63.36909 152.73167,65.710069 150.6875,68.4375 C 148.64333,71.164931 146.04254,74.252987 142.34375,78 C 138.64496,81.747013 135.68896,84.348697 133.125,86.34375 C 130.56104,88.338803 128.38228,89.752296 126.21875,91.125 C 124.05522,92.497704 121.90375,93.838784 119.40625,95.71875 C 116.90875,97.598716 114.06586,100.01441 110.5,103.53125 C 106.93414,107.04809 104.43197,109.89754 102.46875,112.40625 C 100.50553,114.91496 99.089487,117.06947 97.65625,119.25 C 96.223013,121.43053 94.788426,123.62394 92.8125,126.15625 C 90.836574,128.68856 88.310032,131.56097 84.71875,135.125 C 81.127468,138.68903 78.173619,141.22752 75.5,143.28125 C 72.826381,145.33498 70.444538,146.91301 68.03125,148.5 C 65.617962,150.08699 63.15404,151.7112 60.34375,153.875 C 57.53346,156.0388 54.364625,158.74708 50.5,162.53125 C 48.567688,164.42333 46.912456,166.15143 45.46875,167.78125 C 44.025044,169.41107 42.806459,170.94532 41.71875,172.375 C 39.543331,175.23435 37.953331,177.75597 36.40625,180.1875 C 34.859169,182.61903 33.354611,184.93679 31.375,187.4375 C 30.385195,188.68785 29.2656,189.98292 27.96875,191.34375 C 26.6719,192.70458 25.205254,194.15406 23.46875,195.6875 C 20.029254,198.72478 16.781342,201.17872 13.84375,203.15625 C 12.627606,203.97494 11.726205,204.40117 10.625,205.0625 C 11.412804,209.22606 12.53493,213.12891 14,216.71875 C 14.746495,216.38166 15.226549,216.23847 16.125,215.78125 C 18.322041,214.66318 20.937408,213.16504 23.875,211.1875 C 26.812592,209.20996 30.060503,206.75603 33.5,203.71875 C 35.236504,202.18531 36.7344,200.76708 38.03125,199.40625 C 39.3281,198.04542 40.416445,196.75035 41.40625,195.5 C 43.385861,192.99929 44.890419,190.65028 46.4375,188.21875 C 47.984581,185.78722 49.574581,183.2656 51.75,180.40625 C 52.837709,178.97657 54.087544,177.47357 55.53125,175.84375 C 56.974956,174.21393 58.630188,172.45458 60.5625,170.5625 C 64.427124,166.77833 67.59596,164.07005 70.40625,161.90625 C 73.21654,159.74245 75.649211,158.11824 78.0625,156.53125 C 80.475789,154.94426 82.857631,153.39748 85.53125,151.34375 C 88.204869,149.29002 91.189969,146.75153 94.78125,143.1875 C 98.372533,139.62347 100.86782,136.71981 102.84375,134.1875 C 104.81968,131.65519 106.25426,129.49303 107.6875,127.3125 C 109.12074,125.13197 110.56804,122.94621 112.53125,120.4375 C 114.49446,117.92879 116.99664,115.07934 120.5625,111.5625 C 124.12836,108.04566 126.97125,105.62997 129.46875,103.75 C 131.96625,101.87003 134.11772,100.52895 136.28125,99.15625 C 138.44478,97.783545 140.62354,96.370053 143.1875,94.375 C 145.75146,92.379947 148.67621,89.809512 152.375,86.0625 C 156.07378,82.315488 158.70583,79.227431 160.75,76.5 C 162.79417,73.772569 164.26627,71.400341 165.71875,69.09375 C 167.17123,66.787159 168.57628,64.54699 170.5,62.0625 C 172.42372,59.57801 174.85462,56.85488 178.3125,53.59375 C 181.80536,50.299625 184.65105,47.972 187.125,46.1875 C 189.59895,44.403 191.6955,43.161044 193.71875,41.96875 C 195.742,40.776456 197.70299,39.642506 199.84375,38.125 C 201.98451,36.607494 204.32976,34.697638 207.15625,31.9375 C 209.98274,29.177363 212.40136,26.327829 214.46875,23.59375 C 216.53614,20.859671 218.25048,18.234119 219.59375,15.96875 C 221.0199,13.56361 221.03692,13.268709 221.6875,11.90625 L 221.6875,9.53125 L 208.46875,9.53125 z "
         id="path14438" />
      <path
         style="fill:white;fill-opacity:1;fill-rule:evenodd;stroke:none;stroke-width:0.86564833px;stroke-linecap:butt;stroke-linejoin:miter;stroke-opacity:1"
         d="M 184.3125,9.53125 C 183.86732,9.9908602 183.55999,10.450959 183.09375,10.90625 C 180.26726,13.666388 177.92201,15.576244 175.78125,17.09375 C 173.64049,18.611256 171.71075,19.713956 169.6875,20.90625 C 167.66425,22.098544 165.5677,23.37175 163.09375,25.15625 C 160.6198,26.94075 157.77411,29.237125 154.28125,32.53125 C 150.82337,35.79238 148.39247,38.51551 146.46875,41 C 144.54503,43.48449 143.10873,45.755909 141.65625,48.0625 C 140.20377,50.369091 138.73167,52.710069 136.6875,55.4375 C 134.64333,58.164931 132.04253,61.252988 128.34375,65 C 124.64497,68.747013 121.68896,71.348697 119.125,73.34375 C 116.56104,75.338803 114.38228,76.752296 112.21875,78.125 C 110.05522,79.497704 107.90375,80.838784 105.40625,82.71875 C 102.90875,84.598716 100.06586,87.014411 96.5,90.53125 C 92.93414,94.048091 90.431965,96.897537 88.46875,99.40625 C 86.505535,101.91496 85.089487,104.06947 83.65625,106.25 C 82.223013,108.43053 80.788426,110.62394 78.8125,113.15625 C 76.836574,115.68856 74.310032,118.56097 70.71875,122.125 C 67.127467,125.68903 64.173619,128.22752 61.5,130.28125 C 58.826381,132.33498 56.444538,133.91301 54.03125,135.5 C 51.617962,137.08699 49.15404,138.7112 46.34375,140.875 C 43.53346,143.0388 40.364625,145.74708 36.5,149.53125 C 34.567687,151.42333 32.912457,153.15143 31.46875,154.78125 C 30.025043,156.41107 28.80646,157.94532 27.71875,159.375 C 25.543331,162.23435 23.953331,164.75597 22.40625,167.1875 C 20.859169,169.61903 19.354612,171.93679 17.375,174.4375 C 16.385194,175.68785 15.265601,176.98292 13.96875,178.34375 C 12.699385,179.67574 11.251733,181.09703 9.5625,182.59375 L 9.53125,197.4375 C 9.5549068,197.74508 9.6290802,198.00791 9.65625,198.3125 C 9.7379024,198.25795 9.7928593,198.2428 9.875,198.1875 C 12.812592,196.20996 16.060505,193.75603 19.5,190.71875 C 21.236505,189.18531 22.734399,187.76708 24.03125,186.40625 C 25.328101,185.04542 26.416444,183.75035 27.40625,182.5 C 29.385862,179.99929 30.890419,177.65028 32.4375,175.21875 C 33.984581,172.78722 35.574581,170.2656 37.75,167.40625 C 38.837709,165.97657 40.087543,164.47357 41.53125,162.84375 C 42.974957,161.21393 44.630188,159.45458 46.5625,157.5625 C 50.427123,153.77833 53.59596,151.07005 56.40625,148.90625 C 59.21654,146.74245 61.649211,145.11824 64.0625,143.53125 C 66.475789,141.94426 68.85763,140.39748 71.53125,138.34375 C 74.20487,136.29002 77.189968,133.75153 80.78125,130.1875 C 84.372533,126.62347 86.867824,123.71981 88.84375,121.1875 C 90.819676,118.65519 92.254263,116.49303 93.6875,114.3125 C 95.120737,112.13197 96.568034,109.94621 98.53125,107.4375 C 100.49447,104.92879 102.99664,102.07934 106.5625,98.5625 C 110.12836,95.04566 112.97125,92.629966 115.46875,90.75 C 117.96625,88.870034 120.11772,87.528954 122.28125,86.15625 C 124.44478,84.783546 126.62354,83.370053 129.1875,81.375 C 131.75146,79.379947 134.67621,76.809513 138.375,73.0625 C 142.07379,69.315488 144.70583,66.227431 146.75,63.5 C 148.79417,60.772569 150.26627,58.400341 151.71875,56.09375 C 153.17123,53.787159 154.57628,51.54699 156.5,49.0625 C 158.42372,46.57801 160.85462,43.85488 164.3125,40.59375 C 167.80536,37.299625 170.65105,34.972 173.125,33.1875 C 175.59895,31.403 177.6955,30.161044 179.71875,28.96875 C 181.742,27.776456 183.70299,26.642506 185.84375,25.125 C 187.98451,23.607494 190.32976,21.697638 193.15625,18.9375 C 195.98274,16.177362 198.40136,13.327829 200.46875,10.59375 C 200.75741,10.212006 200.91325,9.9075684 201.1875,9.53125 L 184.3125,9.53125 z "
         id="path14431" />
    </g>
    <g
       id="g19771">
      <path
         style="fill:#0072ce;fill-opacity:1;fill-rule:evenodd;stroke:#0072ce;stroke-width:1;stroke-linecap:butt;stroke-linejoin:miter;stroke-miterlimit:4;stroke-dasharray:none;stroke-opacity:1"
         d="M 221.6875,11.90625 C 221.03692,13.268709 221.0199,13.56361 219.59375,15.96875 C 218.25048,18.234119 216.53614,20.859671 214.46875,23.59375 C 212.40136,26.327829 209.98274,29.177363 207.15625,31.9375 C 204.32976,34.697638 201.98451,36.607494 199.84375,38.125 C 197.70299,39.642506 195.742,40.776456 193.71875,41.96875 C 191.6955,43.161044 189.59895,44.403 187.125,46.1875 C 184.65105,47.972 181.80536,50.299625 178.3125,53.59375 C 174.85462,56.85488 172.42372,59.57801 170.5,62.0625 C 168.57628,64.54699 167.17123,66.787159 165.71875,69.09375 C 164.26627,71.400341 162.79417,73.772569 160.75,76.5 C 158.70583,79.227431 156.07378,82.315488 152.375,86.0625 C 148.67621,89.809512 145.75146,92.379947 143.1875,94.375 C 140.62354,96.370053 138.44478,97.783545 136.28125,99.15625 C 134.11772,100.52895 131.96625,101.87003 129.46875,103.75 C 126.97125,105.62997 124.12836,108.04566 120.5625,111.5625 C 116.99664,115.07934 114.49446,117.92879 112.53125,120.4375 C 110.56804,122.94621 109.12074,125.13197 107.6875,127.3125 C 106.25426,129.49303 104.81968,131.65519 102.84375,134.1875 C 100.86782,136.71981 98.372533,139.62347 94.78125,143.1875 C 91.189969,146.75153 88.204869,149.29002 85.53125,151.34375 C 82.857631,153.39748 80.475789,154.94426 78.0625,156.53125 C 75.649211,158.11824 73.21654,159.74245 70.40625,161.90625 C 67.59596,164.07005 64.427124,166.77833 60.5625,170.5625 C 58.630188,172.45458 56.974956,174.21393 55.53125,175.84375 C 54.087544,177.47357 52.837709,178.97657 51.75,180.40625 C 49.574581,183.2656 47.984581,185.78722 46.4375,188.21875 C 44.890419,190.65028 43.385861,192.99929 41.40625,195.5 C 40.416445,196.75035 39.3281,198.04542 38.03125,199.40625 C 36.7344,200.76708 35.236504,202.18531 33.5,203.71875 C 30.060503,206.75603 26.812592,209.20996 23.875,211.1875 C 20.937408,213.16504 18.322041,214.66318 16.125,215.78125 C 15.226549,216.23847 14.746495,216.38166 14,216.71875 C 14.841981,218.78185 15.768247,220.7636 16.8125,222.65625 C 17.970165,222.19477 19.260676,221.66695 21.0625,220.75 C 23.259541,219.63193 25.906158,218.13378 28.84375,216.15625 C 31.781342,214.17872 35.029252,211.72478 38.46875,208.6875 C 40.205254,207.15406 41.6719,205.70458 42.96875,204.34375 C 44.2656,202.98292 45.385195,201.68785 46.375,200.4375 C 48.35461,197.93679 49.859169,195.61903 51.40625,193.1875 C 52.953331,190.75597 54.543331,188.23435 56.71875,185.375 C 57.80646,183.94532 59.025043,182.41107 60.46875,180.78125 C 61.912457,179.15143 63.567687,177.42333 65.5,175.53125 C 69.364625,171.74708 72.53346,169.0388 75.34375,166.875 C 78.15404,164.7112 80.617962,163.08699 83.03125,161.5 C 85.444538,159.91301 87.826381,158.33498 90.5,156.28125 C 93.173619,154.22752 96.127467,151.68903 99.71875,148.125 C 103.31003,144.56097 105.83657,141.68856 107.8125,139.15625 C 109.78843,136.62394 111.22301,134.43053 112.65625,132.25 C 114.08949,130.06947 115.50554,127.91496 117.46875,125.40625 C 119.43196,122.89754 121.93414,120.04809 125.5,116.53125 C 129.06586,113.01441 131.90875,110.59872 134.40625,108.71875 C 136.90375,106.83878 139.05522,105.4977 141.21875,104.125 C 143.38228,102.7523 145.56104,101.3388 148.125,99.34375 C 150.68896,97.348697 153.64496,94.747012 157.34375,91 C 161.04254,87.252989 163.64333,84.164931 165.6875,81.4375 C 167.73167,78.710069 169.20377,76.369091 170.65625,74.0625 C 172.10873,71.755909 173.54503,69.484491 175.46875,67 C 177.39247,64.515509 179.82337,61.79238 183.28125,58.53125 C 186.77411,55.237124 189.6198,52.94075 192.09375,51.15625 C 194.5677,49.37175 196.66425,48.098544 198.6875,46.90625 C 200.71075,45.713956 202.64049,44.611256 204.78125,43.09375 C 206.92201,41.576244 209.26726,39.666387 212.09375,36.90625 C 214.92024,34.146113 217.37011,31.265328 219.4375,28.53125 C 220.34872,27.326177 220.91885,26.325562 221.6875,25.1875 L 221.6875,11.90625 z "
         id="path14440" />
      <path
         style="fill:#0072ce;fill-opacity:1;fill-rule:evenodd;stroke:#0072ce;stroke-width:1;stroke-linecap:butt;stroke-linejoin:miter;stroke-miterlimit:4;stroke-dasharray:none;stroke-opacity:1"
         d="M 9.65625,198.3125 C 9.865865,200.66243 10.212946,202.88479 10.625,205.0625 C 11.726205,204.40117 12.627606,203.97494 13.84375,203.15625 C 16.781342,201.17872 20.029254,198.72478 23.46875,195.6875 C 25.205254,194.15406 26.6719,192.70458 27.96875,191.34375 C 29.2656,189.98292 30.385195,188.68785 31.375,187.4375 C 33.354611,184.93679 34.859169,182.61903 36.40625,180.1875 C 37.953331,177.75597 39.543331,175.23435 41.71875,172.375 C 42.806459,170.94532 44.025044,169.41107 45.46875,167.78125 C 46.912456,166.15143 48.567688,164.42333 50.5,162.53125 C 54.364625,158.74708 57.53346,156.0388 60.34375,153.875 C 63.15404,151.7112 65.617962,150.08699 68.03125,148.5 C 70.444538,146.91301 72.826381,145.33498 75.5,143.28125 C 78.173619,141.22752 81.127468,138.68903 84.71875,135.125 C 88.310032,131.56097 90.836574,128.68856 92.8125,126.15625 C 94.788426,123.62394 96.223013,121.43053 97.65625,119.25 C 99.089487,117.06947 100.50553,114.91496 102.46875,112.40625 C 104.43197,109.89754 106.93414,107.04809 110.5,103.53125 C 114.06586,100.01441 116.90875,97.598716 119.40625,95.71875 C 121.90375,93.838784 124.05522,92.497704 126.21875,91.125 C 128.38228,89.752296 130.56104,88.338803 133.125,86.34375 C 135.68896,84.348697 138.64496,81.747013 142.34375,78 C 146.04254,74.252987 148.64333,71.164931 150.6875,68.4375 C 152.73167,65.710069 154.20377,63.36909 155.65625,61.0625 C 157.10873,58.75591 158.54503,56.48449 160.46875,54 C 162.39247,51.51551 164.82337,48.79238 168.28125,45.53125 C 171.77411,42.237125 174.6198,39.94075 177.09375,38.15625 C 179.5677,36.37175 181.66425,35.098544 183.6875,33.90625 C 185.71075,32.713956 187.64049,31.611257 189.78125,30.09375 C 191.92201,28.576243 194.26726,26.666387 197.09375,23.90625 C 199.92024,21.146112 202.37011,18.265329 204.4375,15.53125 C 206.07182,13.369898 207.28924,11.428666 208.46875,9.53125 L 201.1875,9.53125 C 200.91325,9.9075684 200.75741,10.212006 200.46875,10.59375 C 198.40136,13.327829 195.98274,16.177362 193.15625,18.9375 C 190.32976,21.697638 187.98451,23.607494 185.84375,25.125 C 183.70299,26.642506 181.742,27.776456 179.71875,28.96875 C 177.6955,30.161044 175.59895,31.403 173.125,33.1875 C 170.65105,34.972 167.80536,37.299625 164.3125,40.59375 C 160.85462,43.85488 158.42372,46.57801 156.5,49.0625 C 154.57628,51.54699 153.17123,53.787159 151.71875,56.09375 C 150.26627,58.400341 148.79417,60.772569 146.75,63.5 C 144.70583,66.227431 142.07379,69.315488 138.375,73.0625 C 134.67621,76.809513 131.75146,79.379947 129.1875,81.375 C 126.62354,83.370053 124.44478,84.783546 122.28125,86.15625 C 120.11772,87.528954 117.96625,88.870034 115.46875,90.75 C 112.97125,92.629966 110.12836,95.04566 106.5625,98.5625 C 102.99664,102.07934 100.49447,104.92879 98.53125,107.4375 C 96.568034,109.94621 95.120737,112.13197 93.6875,114.3125 C 92.254263,116.49303 90.819676,118.65519 88.84375,121.1875 C 86.867824,123.71981 84.372533,126.62347 80.78125,130.1875 C 77.189968,133.75153 74.20487,136.29002 71.53125,138.34375 C 68.85763,140.39748 66.475789,141.94426 64.0625,143.53125 C 61.649211,145.11824 59.21654,146.74245 56.40625,148.90625 C 53.59596,151.07005 50.427123,153.77833 46.5625,157.5625 C 44.630188,159.45458 42.974957,161.21393 41.53125,162.84375 C 40.087543,164.47357 38.837709,165.97657 37.75,167.40625 C 35.574581,170.2656 33.984581,172.78722 32.4375,175.21875 C 30.890419,177.65028 29.385862,179.99929 27.40625,182.5 C 26.416444,183.75035 25.328101,185.04542 24.03125,186.40625 C 22.734399,187.76708 21.236505,189.18531 19.5,190.71875 C 16.060505,193.75603 12.812592,196.20996 9.875,198.1875 C 9.7928593,198.2428 9.7379024,198.25795 9.65625,198.3125 z "
         id="path14436" />
      <path
         style="fill:#0072ce;fill-opacity:1;fill-rule:evenodd;stroke:#0072ce;stroke-width:1;stroke-linecap:butt;stroke-linejoin:miter;stroke-miterlimit:4;stroke-dasharray:none;stroke-opacity:1"
         d="M 184.3125,9.53125 L 10.09375,9.53125 L 9.5625,182.59375 C 11.251733,181.09703 12.699385,179.67574 13.96875,178.34375 C 15.265601,176.98292 16.385194,175.68785 17.375,174.4375 C 19.354612,171.93679 20.859169,169.61903 22.40625,167.1875 C 23.953331,164.75597 25.543331,162.23435 27.71875,159.375 C 28.80646,157.94532 30.025043,156.41107 31.46875,154.78125 C 32.912457,153.15143 34.567687,151.42333 36.5,149.53125 C 40.364625,145.74708 43.53346,143.0388 46.34375,140.875 C 49.15404,138.7112 51.617962,137.08699 54.03125,135.5 C 56.444538,133.91301 58.826381,132.33498 61.5,130.28125 C 64.173619,128.22752 67.127467,125.68903 70.71875,122.125 C 74.310032,118.56097 76.836574,115.68856 78.8125,113.15625 C 80.788426,110.62394 82.223013,108.43053 83.65625,106.25 C 85.089487,104.06947 86.505535,101.91496 88.46875,99.40625 C 90.431965,96.897537 92.93414,94.048091 96.5,90.53125 C 100.06586,87.014411 102.90875,84.598716 105.40625,82.71875 C 107.90375,80.838784 110.05522,79.497704 112.21875,78.125 C 114.38228,76.752296 116.56104,75.338803 119.125,73.34375 C 121.68896,71.348697 124.64497,68.747013 128.34375,65 C 132.04253,61.252988 134.64333,58.164931 136.6875,55.4375 C 138.73167,52.710069 140.20377,50.369091 141.65625,48.0625 C 143.10873,45.755909 144.54503,43.48449 146.46875,41 C 148.39247,38.51551 150.82337,35.79238 154.28125,32.53125 C 157.77411,29.237125 160.6198,26.94075 163.09375,25.15625 C 165.5677,23.37175 167.66425,22.098544 169.6875,20.90625 C 171.71075,19.713956 173.64049,18.611256 175.78125,17.09375 C 177.92201,15.576244 180.26726,13.666388 183.09375,10.90625 C 183.55999,10.450959 183.86732,9.9908602 184.3125,9.53125 z "
         id="path14434" />
    </g>
    <path
       sodipodi:nodetypes="ccccccccccccccccccccccccc"
       d="M 39.31062,56.954921 L 76.662704,56.954921 M 25.600867,38.348827 L 90.372457,75.700911 M 48.683615,40.727049 L 67.289709,73.182792 M 67.289709,40.587154 L 48.683614,73.182792 M 90.372458,38.348827 L 25.600866,75.70091 M 58.01169,94.311404 L 48.673663,73.133235 L 25.663819,75.635353 L 39.335637,56.9593 L 25.663818,38.283249 L 48.673663,40.785364 L 58.011688,19.607195 L 67.349715,40.785364 L 90.359559,38.283247 L 76.687741,56.9593 L 90.35956,75.635351 L 67.349715,73.133235 L 58.01169,94.311404 z M 58.056609,19.602837 L 58.056609,94.307005"
       style="fill:#fedd00;fill-opacity:1;fill-rule:evenodd;stroke:#3f3f3f;stroke-width:1px;stroke-linecap:butt;stroke-linejoin:miter;stroke-opacity:1"
       id="path3710" />
    <path
       sodipodi:nodetypes="cccccc"
       id="rect1932"
       d="M 10.083986,9.5200329 L 221.7009,9.5200329 L 221.7009,198.01484 C 218.71236,250.77281 158.48233,259.97008 115.04651,282.04391 C 71.708832,259.09336 13.657142,251.24134 9.5200325,197.45089 L 10.083986,9.5200329 z "
       style="fill:none;fill-opacity:1;fill-rule:evenodd;stroke:black;stroke-width:0.86564833px;stroke-linecap:butt;stroke-linejoin:miter;stroke-opacity:1" />
    <g
       id="g62770">
      <path
         style="fill:#fedd00;fill-opacity:1;fill-rule:evenodd;stroke:#262626;stroke-width:1px;stroke-linecap:butt;stroke-linejoin:miter;stroke-opacity:1"
         d="M 108.3039,183.03985 C 107.0981,183.05557 106.19365,182.93377 104.96875,183.375 C 102.77716,184.16446 100.53074,183.04536 99.8125,183.59375 C 98.789373,184.24764 99.547721,186.43769 98.65625,187.34375 C 95.530738,190.52041 93.411717,195.18547 93.46875,200.8125 C 91.953258,201.21552 88.854545,199.11893 88.90625,201.9375 C 91.489515,205.2311 93.365394,210.44847 95.508603,212.45471 C 105.68299,217.81519 104.38397,219.62102 102.15625,219.5 C 100.0863,219.38755 99.095267,219.9787 98.75,220.97305 C 99.315506,222.87837 99.945131,226.98469 100.4461,228.67114 C 104.53521,231.94299 107.17556,231.91572 104.25,233.75 C 103.44606,234.25405 101.96862,231.84074 101.03125,234.21875 C 101.14951,236.33263 100.23763,238.67365 101.125,240.3125 C 103.02847,242.80578 105.95274,245.54474 103.95471,246.52695 C 103.41427,246.79262 102.35364,244.16085 100.78125,245.90625 C 100.64306,247.51281 99.872455,249.0184 100.34375,250.4375 C 101.65013,253.17817 102.40108,257.01998 99.778595,258.23601 L 100.1875,263.0625 L 115.15195,260.06705 L 109.30191,256.82476 L 115.73805,253.42688 C 117.33044,252.16924 117.86971,251.12601 118.5,249.59375 C 118.33779,247.49252 116.69456,249.62466 115.96875,249.15625 C 113.50823,247.56834 117.2712,247.46164 120.875,243.53125 C 121.8396,242.28825 122.70813,238.13253 123.4375,235.1875 C 123.02102,232.1654 120.17303,235.62159 119.34375,235.40625 C 115.73582,234.4694 121.07648,232.71136 124.875,227.6875 C 125.39088,226.37574 125.64858,219.67939 125.53125,214.96875 C 123.69971,212.72707 122.77268,215.43828 121.875,215.53125 C 117.66343,215.96748 121.5775,211.40509 124.78125,204.75 C 125.71271,200.94942 123.06276,193.40436 121.5,186.6875 C 118.32394,185.08885 119.54295,190.67993 117.8125,187.9375 C 115.63495,184.48649 111.92129,182.99268 108.3039,183.03985 z "
         id="path44981"
         sodipodi:nodetypes="cscscccsccsccsccccccccsccsccsccsc" />
      <path
         style="fill:#fedd00;fill-opacity:1;fill-rule:evenodd;stroke:#262626;stroke-width:0.96026206px;stroke-linecap:butt;stroke-linejoin:bevel;stroke-opacity:1"
         d="M 128.83345,233.68866 C 129.26925,225.05784 128.7836,217.11616 134.06621,216.79121 L 134.82932,215.374 L 134.93833,216.7912 C 140.1006,218.4839 138.60632,224.83212 138.75389,232.81653 L 128.83345,233.68866 z "
         id="path52114"
         sodipodi:nodetypes="cccccc" />
      <path
         style="fill:#fedd00;fill-opacity:1;fill-rule:evenodd;stroke:#262626;stroke-width:1.05420864px;stroke-linecap:butt;stroke-linejoin:bevel;stroke-opacity:1"
         d="M 156.77983,249.34395 C 166.1551,250.79755 174.58433,253.08824 176.1101,247.48175 L 177.80355,246.97701 L 176.30433,246.54422 C 175.6343,240.61777 168.47712,240.81039 159.92668,238.87361 L 156.77983,249.34395 z "
         id="path53886"
         sodipodi:nodetypes="cccccc" />
      <path
         sodipodi:nodetypes="cccccccccccccccssssccsccssccsscccsscsssscsccccccccccccccsccccccccccccccccsccccccccccccccc"
         style="fill:#fedd00;fill-opacity:1;fill-rule:evenodd;stroke:#262626;stroke-width:1px;stroke-linecap:butt;stroke-linejoin:miter;stroke-opacity:1"
         d="M 157.5,129.59375 C 157.14475,129.64094 156.7679,130.01948 156.34375,131.03125 C 150.39907,139.07164 146.67851,135.61646 145.375,143.21875 C 143.56715,143.82455 141.56355,141.44228 140.375,143.625 C 140.31048,145.25154 142.21007,154.83354 142.96875,155.75 C 149.83665,162.24784 154.22462,161.77336 151.9375,166.5625 C 149.39249,166.87149 147.00311,163.72623 144.9375,166.1875 C 144.41729,167.1104 145.2443,175.51713 146.78125,177.6875 C 149.4781,181.5349 154.31344,182.5372 152.1875,187.53125 C 149.99242,187.91241 149.85146,184.766 147.78125,186.75 C 147.08729,188.18139 147.45167,195.44166 148.03125,197.78125 C 149.52268,201.09007 152.95199,202.40009 151.40625,206.71875 C 149.38741,207.13571 148.63426,204.23557 147.03125,206.125 C 146.50312,208.88613 145.30502,210.21325 145.40625,212.71875 C 145.83213,214.9111 146.99126,215.86142 148.0625,218.21875 C 147.1026,224.52322 146.03499,219.48771 145.59375,221.71875 C 145.0977,224.22698 145.99428,228.62938 146.375,231.125 C 146.75279,233.6014 146.18612,235.10352 145.53125,235.6875 C 143.04912,237.90094 140.2764,240.2006 138.15625,241.5 C 136.98916,242.21527 135.67761,243.51834 135.5,242.28125 L 135.34375,241.15625 C 135.22475,240.32738 138.99763,241.31483 139.53125,232.25 C 139.55351,231.87193 139.78897,231.94881 139.15625,231.15625 C 134.96186,231.2146 132.06528,231.18887 128.09375,230.9375 C 127.30731,231.54212 127.38286,232.23795 127.375,232.8125 C 127.33631,235.64048 127.61385,238.10339 129.0625,240.28125 C 129.40651,240.79842 131.32377,241.28034 131.34375,241.96875 L 131.40625,243.96875 C 131.43158,244.84144 130.08351,245.53053 129.4375,246.09375 C 128.4565,246.94903 126.48482,248.02478 125.03125,248.96875 C 112.04082,257.40492 107.53418,258.32112 92.8125,257.59375 L 92.080534,265.5432 C 109.79774,266.29243 119.87227,260.28368 128.125,254.46875 C 132.39841,251.13708 136.08668,248.61728 140.90625,245.15625 C 141.50873,244.7236 143.75613,242.95249 144.46875,242.75 C 148.47917,241.61042 150.30629,242.83908 152.03125,242.84375 C 153.00819,249.9247 156.24015,249.89318 159.15625,250.46875 C 159.45116,250.52695 160.11022,250.24584 160.15625,250.03125 C 160.89829,246.57146 161.8096,243.34197 163.21875,239.25 C 163.32956,238.9282 162.95449,238.12976 162.65625,238.0625 C 159.96925,237.45652 158.0424,237.02972 155.78125,238.75 C 153.8922,239.22387 149.69857,238.7047 150.1875,238.34375 C 151.86337,237.10655 153.50246,235.8977 155.09375,234.71875 C 158.77086,233.52216 163.18982,232.53731 165.40625,231.71875 C 167.31324,231.12606 169.30715,229.76688 169.78125,227.6875 C 169.7657,226.58488 168.97995,226.29917 167.46875,226.28125 C 166.39995,223.00816 169.86414,225.37893 174.625,223.71875 C 177.67595,222.04167 181.05032,218.37241 182.65625,216.15625 C 182.88098,213.50439 181.10891,214.53467 179.625,213.4375 C 178.57827,209.61497 184.10395,212.52535 188.4375,210.375 C 190.9894,208.87654 193.99644,204.16188 197.125,200.625 C 197.32035,197.9282 196.31741,198.49401 193.78125,198.25 C 189.62328,195.06558 198.64795,195.81266 204.21875,192.78125 C 207.44084,190.54298 210.76062,185.07351 213.71875,180.59375 C 215.31922,176.09422 211.41028,178.70523 210.375,176.78125 C 211.66926,166.49449 206.83761,168.31049 206.625,161.6875 C 206.584,160.73042 206.48706,160.1218 205.84375,160.21875 C 205.62931,160.25107 203.98588,160.249 204.125,160.34375 C 197.7678,161.36457 192.76046,158.08751 185.84375,163.625 C 184.13148,163.36932 184.02662,160.64708 182.09375,163.25 C 180.27236,169.42978 178.73912,173.77207 177.625,178.46875 C 178.30856,183.16806 181.59786,186.9718 177.78125,186.5625 C 177.27277,185.87669 175.88813,184.89799 175,185.9375 C 173.67707,188.24973 172.09215,192.62233 171.625,194.90625 C 171.0137,198.53697 174.70738,207.5073 170.96875,206.75 C 170.47719,205.05782 169.78384,202.43417 167.65625,204.28125 C 167.01971,206.24797 164.50994,209.47377 163.875,211.9375 C 163.72825,214.46503 164.46715,216.658 162.8125,218.6875 C 161.46268,217.79276 160.35545,218.51597 160.40625,219.8125 C 159.93973,227.14033 157.67413,222.35903 156.1875,223.8125 C 155.99579,224.05368 155.81229,224.30214 155.625,224.53125 C 155.44464,225.05261 155.33541,226.47227 155.40625,227.81562 C 155.73689,229.21218 154.9255,229.65478 154.46875,229.8125 C 153.26951,230.58668 152.07068,231.35562 150.8125,232.1875 C 150.26615,232.54874 150.19688,225.76974 153.21875,219.46875 C 154.91656,217.94332 157.04382,217.45878 158.8125,216.15625 C 160.03136,214.72909 160.72539,213.49239 161.4375,211.09375 C 161.13799,210.25833 159.60327,210.04658 159.1875,210.09375 C 157.27517,206.33749 161.73648,205.61513 165.53125,202.90625 C 167.41915,200.4886 169.47986,194.4246 169.78125,193.0625 C 169.21257,190.66627 167.5022,192.2017 166.03125,191.34375 C 163.68431,187.07098 170.053,183.83717 174.03125,179.28125 C 175.35848,177.56949 175.98439,168.13642 175.96875,165.71875 C 174.98782,163.89048 173.10042,165.79129 171.0625,166.71875 C 166.18158,165.12449 173.59011,160.91618 176.375,153.40625 C 176.47615,150.8574 176.39301,138.87862 175.78125,137.28125 C 173.99839,135.07539 172.60447,138.64518 170.6875,138.375 C 165.65677,130.86495 162.43114,133.17509 159.1875,130.5 C 158.61376,130.32181 158.09209,129.5151 157.5,129.59375 z "
         id="path44975" />
      <path
         style="fill:#fedd00;fill-opacity:1;fill-rule:evenodd;stroke:#262626;stroke-width:1px;stroke-linecap:butt;stroke-linejoin:miter;stroke-opacity:1"
         d="M 106.28519,191.93964 C 114.46643,222.99453 112.65208,238.19434 108.53291,249.73823"
         id="path52112"
         sodipodi:nodetypes="cc" />
      <path
         style="fill:#fedd00;fill-opacity:1;fill-rule:evenodd;stroke:#262626;stroke-width:1px;stroke-linecap:butt;stroke-linejoin:miter;stroke-opacity:1"
         d="M 200.24487,169.71479 C 189.94064,188.60066 178.66099,207.6366 160.08002,227.79582"
         id="path56557"
         sodipodi:nodetypes="cc" />
      <path
         style="fill:#fedd00;fill-opacity:1;fill-rule:evenodd;stroke:#262626;stroke-width:1px;stroke-linecap:butt;stroke-linejoin:miter;stroke-opacity:1"
         d="M 152.42423,214.48522 C 157.56375,200.14965 161.71615,182.28867 160.53576,145.38198"
         id="path56559"
         sodipodi:nodetypes="cc" />
      <path
         style="fill:#fedd00;fill-opacity:1;stroke:#262626;stroke-width:1;stroke-miterlimit:4;stroke-opacity:1"
         d="M 95.969389,261.63052 C 95.969389,264.22202 92.826861,265.56101 91.802314,265.56101 C 90.777767,265.56101 89.454821,264.6462 89.200218,262.06724 C 88.944378,259.47574 91.549868,257.48168 92.912344,257.48168 C 93.936891,257.48168 95.969389,259.03902 95.969389,261.63052 z "
         id="path48539"
         sodipodi:nodetypes="csssc" />
    </g>
    <path
       sodipodi:nodetypes="ccccc"
       id="rect60112"
       d="M 103.53929,254.87059 L 112.38149,254.30013 L 105.38282,258.59835 L 99.260807,259.62446 L 103.53929,254.87059 z "
       style="fill:#fedd00;fill-opacity:1;stroke:none;stroke-width:1;stroke-linejoin:bevel;stroke-miterlimit:4;stroke-opacity:0.84868421" />
  </g>
</svg>
