<?xml version="1.0" encoding="UTF-8" standalone="no"?>
<!-- Creator: CorelDRAW X7 -->

<svg
   xmlns:dc="http://purl.org/dc/elements/1.1/"
   xmlns:cc="http://creativecommons.org/ns#"
   xmlns:rdf="http://www.w3.org/1999/02/22-rdf-syntax-ns#"
   xmlns:svg="http://www.w3.org/2000/svg"
   xmlns="http://www.w3.org/2000/svg"
   xmlns:sodipodi="http://sodipodi.sourceforge.net/DTD/sodipodi-0.dtd"
   xmlns:inkscape="http://www.inkscape.org/namespaces/inkscape"
   xml:space="preserve"
   width="584.64563"
   height="372.04724"
   version="1.1"
   style="fill-rule:evenodd"
   viewBox="0 0 16499.999 10500"
   id="svg2"
   inkscape:version="0.48.5 r10040"
   sodipodi:docname="lipp.svg"><metadata
   id="metadata21"><rdf:RDF><cc:Work
       rdf:about=""><dc:format>image/svg+xml</dc:format><dc:type
         rdf:resource="http://purl.org/dc/dcmitype/StillImage" /><dc:title></dc:title></cc:Work></rdf:RDF></metadata><sodipodi:namedview
   pagecolor="#ffffff"
   bordercolor="#666666"
   borderopacity="1"
   objecttolerance="10"
   gridtolerance="10"
   guidetolerance="10"
   inkscape:pageopacity="0"
   inkscape:pageshadow="2"
   inkscape:window-width="1920"
   inkscape:window-height="1017"
   id="namedview19"
   showgrid="false"
   fit-margin-top="0"
   fit-margin-left="0"
   fit-margin-right="0"
   fit-margin-bottom="0"
   inkscape:zoom="0.89702957"
   inkscape:cx="347.30585"
   inkscape:cy="152.16526"
   inkscape:window-x="-8"
   inkscape:window-y="-8"
   inkscape:window-maximized="1"
   inkscape:current-layer="svg2" />
 <defs
   id="defs4">
  <style
   type="text/css"
   id="style6">
   
    .fil2 {fill:#FEFEFE}
    .fil1 {fill:#F7DB17}
    .fil0 {fill:#1A75CF}
   
  </style>
 </defs>
 <g
   id="Layer_x0020_1"
   transform="translate(-2705.0001,-3406)">
  <metadata
   id="CorelCorpID_0Corel-Layer" />
  <g
   id="_983160536">
   <polygon
   class="fil0"
   points="2705,13906 2705,3406 19205,3406 19205,13906 "
   id="polygon11"
   style="fill:#1a75cf" />
   <polygon
   class="fil1"
   points="5705,13906 5705,3406 16205,3406 16205,13906 "
   id="polygon13"
   style="fill:#f7db17" />
   <path
   class="fil0"
   d="M 10955,13014 C 8517,11509 7115,9276 7115,6856 l 0,-2579 7681,0 0,2579 c 0,2420 -1403,4653 -3841,6158 z"
   id="path15"
   inkscape:connector-curvature="0"
   style="fill:#1a75cf" />
   <path
   class="fil2"
   d="m 11115,11830 c 146,-177 368,-311 605,-454 l -9,-2 -28,-8 -27,-8 -28,-9 -27,-9 -27,-10 -26,-10 -27,-10 -26,-11 -27,-11 -26,-12 -26,-13 -26,-12 -25,-14 -26,-13 -25,-15 -25,-14 -25,-15 -25,-16 -25,-16 -24,-16 -25,-17 -24,-18 -24,-17 -2,-2 0,752 z m 667,-491 c -240,-56 -463,-164 -667,-325 l 0,-468 18,13 36,23 37,23 37,23 38,22 38,22 38,21 39,20 39,20 39,20 40,19 40,18 41,19 41,17 41,17 41,17 42,16 43,16 42,15 43,15 43,15 44,14 43,14 45,13 44,13 45,12 45,12 42,11 c -145,120 -303,220 -457,313 z m -667,-854 c 338,234 734,394 1172,501 116,-102 223,-219 310,-359 l -51,-10 -63,-12 -62,-13 -61,-14 -61,-14 -60,-15 -59,-16 -58,-16 -58,-16 -57,-17 -56,-18 -55,-19 -54,-19 -54,-20 -53,-20 -52,-21 -51,-22 -50,-23 -50,-23 -48,-24 -48,-25 -47,-26 -46,-26 -45,-27 -45,-28 -43,-29 -42,-29 -42,-30 -11,-9 0,439 z m 1667,-302 c -643,-10 -1335,-273 -1667,-780 l 0,579 c 380,300 893,485 1510,599 67,-116 121,-247 157,-398 z m -1986,1647 c -146,-177 -369,-311 -606,-454 l 10,-2 28,-8 27,-8 27,-9 27,-9 27,-10 27,-10 27,-10 26,-11 26,-11 26,-12 26,-13 26,-12 26,-14 25,-13 26,-15 25,-14 25,-15 25,-16 25,-16 24,-16 24,-17 25,-18 24,-17 2,-2 0,752 z m -667,-491 c 240,-56 462,-164 667,-325 l 0,-468 -18,13 -37,23 -37,23 -37,23 -37,22 -38,22 -39,21 -38,20 -39,20 -40,20 -40,19 -40,18 -40,19 -41,17 -41,17 -42,17 -42,16 -42,16 -42,15 -43,15 -43,15 -44,14 -44,14 -44,13 -44,13 -45,12 -45,12 -43,11 c 146,120 304,220 458,313 z m 667,-854 c -339,234 -735,394 -1172,501 -117,-102 -223,-219 -311,-359 l 51,-10 63,-12 62,-13 62,-14 60,-14 60,-15 59,-16 59,-16 57,-16 57,-17 56,-18 55,-19 55,-19 54,-20 52,-20 52,-21 52,-22 50,-23 49,-23 49,-24 48,-25 47,-26 46,-26 45,-27 44,-28 44,-29 42,-29 42,-30 11,-9 0,439 z m -1668,-302 c 644,-10 1335,-273 1668,-780 l 0,579 c -380,300 -893,485 -1511,599 -66,-116 -120,-247 -157,-398 z m 3312,-545 c 997,-1157 1520,-2508 1790,-3968 l -78,0 c -48,124 -168,212 -308,212 -140,0 -260,-88 -307,-212 l -107,0 c -48,124 -168,212 -308,212 -140,0 -260,-88 -308,-212 l -107,0 c -47,124 -167,212 -307,212 -140,0 -260,-88 -308,-212 l -107,0 c -47,124 -167,212 -307,212 -140,0 -260,-88 -308,-212 l -107,0 c -48,124 -168,212 -308,212 -140,0 -260,-88 -307,-212 l -107,0 c -48,124 -168,212 -308,212 -140,0 -260,-88 -308,-212 l -107,0 c -47,124 -167,212 -307,212 -140,0 -260,-88 -308,-212 l -107,0 c -47,124 -168,212 -307,212 -140,0 -260,-88 -308,-212 l -107,0 c -48,124 -168,212 -308,212 -140,0 -260,-88 -307,-212 l -78,0 c 269,1460 792,2811 1790,3968 256,-426 748,-730 1325,-777 l 0,-355 319,0 0,355 c 576,47 1069,351 1325,777 z m -1376,2382 -217,0 0,-3463 217,0 0,3463 z m -217,-7364 217,0 0,695 -217,0 0,-695 z m 217,1014 0,139 -4,1 -10,4 -10,4 -10,3 -10,2 -11,3 -10,1 -11,2 -11,1 -11,1 -11,0 -11,0 -11,-1 -10,-1 -11,-2 -11,-1 -10,-3 -10,-2 -11,-3 -9,-4 -10,-4 -4,-1 0,-139 217,0 z M 8387,5108 c 924,-570 1204,154 2409,55 l 0,-424 c -707,288 -844,4 -1346,-73 -376,-58 -906,93 -1063,442 z m -842,294 6821,0 0,217 -6821,0 0,-217 z m 2334,1212 254,600 c 1187,-838 2299,-1334 3598,-1047 -576,-20 -1039,52 -1398,208 553,-24 991,44 1288,223 -454,-58 -893,-95 -1204,-16 429,58 760,165 945,345 -1159,-336 -2323,-47 -3006,474 l 566,256 -544,223 239,514 -542,-227 -196,533 -223,-544 -514,238 226,-542 -532,-195 544,-223 -238,-515 542,227 195,-532 z"
   id="path17"
   inkscape:connector-curvature="0"
   style="fill:#fefefe" />
  </g>
 </g>
</svg>
