<?xml version="1.0" encoding="UTF-8" standalone="no"?>
<!-- Created with Inkscape (http://www.inkscape.org/) -->

<svg
   xmlns:dc="http://purl.org/dc/elements/1.1/"
   xmlns:cc="http://creativecommons.org/ns#"
   xmlns:rdf="http://www.w3.org/1999/02/22-rdf-syntax-ns#"
   xmlns:svg="http://www.w3.org/2000/svg"
   xmlns="http://www.w3.org/2000/svg"
   xmlns:sodipodi="http://sodipodi.sourceforge.net/DTD/sodipodi-0.dtd"
   xmlns:inkscape="http://www.inkscape.org/namespaces/inkscape"
   id="svg2010"
   sodipodi:version="0.32"
   inkscape:version="0.92.4 (5da689c313, 2019-01-14)"
   width="471.42999"
   height="300"
   version="1.0"
   sodipodi:docname="Saaremaa_lipp.svg">
  <metadata
     id="metadata2015">
    <rdf:RDF>
      <cc:Work
         rdf:about="">
        <dc:format>image/svg+xml</dc:format>
        <dc:type
           rdf:resource="http://purl.org/dc/dcmitype/StillImage" />
      </cc:Work>
    </rdf:RDF>
  </metadata>
  <defs
     id="defs2013" />
  <sodipodi:namedview
     inkscape:window-height="1017"
     inkscape:window-width="1920"
     inkscape:pageshadow="2"
     inkscape:pageopacity="0.0"
     guidetolerance="10.0"
     gridtolerance="10.0"
     objecttolerance="10.0"
     borderopacity="1.0"
     bordercolor="#666666"
     pagecolor="#ffffff"
     id="base"
     width="471.43px"
     height="300px"
     inkscape:zoom="1.2067957"
     inkscape:cx="253.71887"
     inkscape:cy="83.45698"
     inkscape:window-x="-8"
     inkscape:window-y="-8"
     inkscape:current-layer="svg2010"
     showgrid="false"
     inkscape:window-maximized="1" />
  <g
     id="g2313"
     transform="matrix(1.714291,0,0,1.714292,-1.386987e-6,-1.086921e-3)">
    <rect
       id="green Stripe"
       style="fill:#009739;fill-opacity:1"
       y="87.500328"
       x="1.9417648e-006"
       height="87.499664"
       width="275" />
    <rect
       id="white Stripe"
       style="fill:white"
       y="0.00066018361"
       x="1.9417648e-006"
       height="87.499664"
       width="275" />
  </g>
  <g
     id="g3231"
     transform="matrix(0.480039,0,0,0.479963,184.0806,14.98174)">
    <path
       id="rect2856"
       style="fill:#0072ce;fill-opacity:1;stroke:#323232;stroke-width:0.50109047;stroke-miterlimit:4;stroke-opacity:1"
       d="M 0.59375,0.53125 L 0.59375,168.6875 C 0.59329575,168.93921 0.65330187,169.15693 0.65625,169.40625 C 2.1530669,169.45753 2.7805533,169.56782 5.75,169.53125 C 8.3915068,169.49872 10.857491,169.18981 13.28125,168.75 C 15.705009,168.31019 18.0811,167.73145 20.5625,167.15625 C 23.0439,166.58105 25.623069,166.00119 28.4375,165.5625 C 31.251931,165.12381 34.295899,164.81153 37.71875,164.78125 C 41.184676,164.75097 44.008788,165.05505 46.5625,165.5 C 49.116212,165.94495 51.413569,166.5502 53.8125,167.15625 C 56.211431,167.7623 58.717168,168.35947 61.71875,168.8125 C 64.720332,169.26553 68.200834,169.57661 72.5625,169.5625 C 76.924167,169.54839 80.427245,169.21968 83.40625,168.75 C 86.385255,168.28032 88.864461,167.65062 91.25,167.03125 C 93.635539,166.41188 95.918731,165.80694 98.5,165.34375 C 101.08127,164.88056 103.96506,164.56363 107.53125,164.5625 C 111.09717,164.56137 114.19907,164.87101 117.0625,165.34375 C 119.92593,165.81649 122.53316,166.45398 125.03125,167.09375 C 127.52934,167.73352 129.93632,168.37504 132.40625,168.875 C 134.87618,169.37496 137.40858,169.72793 140.1875,169.78125 C 142.96642,169.83457 145.67195,169.52069 148.34375,169.03125 C 151.01555,168.54181 153.6554,167.89852 156.3125,167.21875 C 158.9696,166.53898 161.64018,165.83019 164.375,165.3125 C 167.10982,164.79481 169.90753,164.44068 172.8125,164.4375 C 175.71747,164.43433 178.50893,164.77163 181.25,165.28125 C 183.99107,165.79087 186.68034,166.48201 189.375,167.15625 C 192.06966,167.83049 194.76554,168.50932 197.53125,169 C 200.29696,169.49068 203.13951,169.79106 206.09375,169.75 C 209.00585,169.70953 211.2839,169.59827 213.15625,169.4375 C 213.66589,169.39374 213.95339,169.33053 214.40625,169.28125 L 214.40625,0.53125 L 0.59375,0.53125 z " />
    <path
       id="path16281"
       style="fill:white;fill-opacity:1;fill-rule:evenodd;stroke:#323232;stroke-width:0.5;stroke-linecap:butt;stroke-linejoin:miter;stroke-miterlimit:4;stroke-dasharray:none;stroke-opacity:1"
       d="M 42.37636,136.88883 L 42.28125,136.71875 C 41.403444,135.12959 40.694783,133.33378 40.4375,131 C 39.573236,110.13537 43.599769,98.660063 34.875,91.09375 C 32.111696,89.082322 28.658275,88.518312 25.5625,88.96875 C 22.466725,89.419188 19.752083,90.871173 18.5,92.90625 C 13.319831,101.32586 20.019526,105.85682 25.03125,108.5625 L 27.65625,102.90625 C 25.827121,101.76149 23.156447,100.94902 24.84375,98.15625 C 25.678496,96.774601 29.782005,95.996253 30.40625,100.25 C 31.221791,105.8073 29.713525,110.18863 28.34375,115.4375 C 26.669415,121.85342 23.626689,128.53403 22.28125,135.65625 C 20.534137,144.90479 20.647851,153.96543 23.5625,160.96875 L 23.71875,161.46875 C 25.261767,161.01026 27.320973,160.49481 29.28125,160 C 31.241527,159.50519 28.883095,160.09423 29.875,159.84375 C 30.866905,159.59327 31.733685,159.3763 32.6875,159.125 L 46.25,142.15625 C 44.883295,140.4935 43.479582,138.86163 42.37636,136.88883 z " />
    <path
       id="path2848"
       style="fill:white;fill-opacity:1;fill-rule:evenodd;stroke:#323232;stroke-width:0.5;stroke-linecap:butt;stroke-linejoin:miter;stroke-miterlimit:4;stroke-dasharray:none;stroke-opacity:1"
       d="M 104.5406,14.830385 C 104.22734,11.65405 112.38805,11.375935 112.47748,14.794208 L 112.51366,153.69786 L 104.49835,153.77224 L 104.5406,14.830385 z " />
    <path
       id="path16301"
       style="fill:white;fill-opacity:1;fill-rule:evenodd;stroke:#323232;stroke-width:0.5;stroke-linecap:butt;stroke-linejoin:miter;stroke-miterlimit:4;stroke-dasharray:none;stroke-opacity:1"
       d="M 28.384232,159.95901 C 28.51925,160.19202 29.179547,160.03107 29.875,159.84375 C 32.317844,159.51145 34.826161,159.21309 37.71875,159.1875 C 41.184676,159.15722 44.008788,159.4613 46.5625,159.90625 C 49.116212,160.3512 51.413569,160.9252 53.8125,161.53125 C 54.420002,161.68473 55.184487,161.81757 55.8125,161.96875 C 60.786885,162.66355 63.04944,163.02982 65.90625,163.5 C 68.015953,163.69019 69.885264,163.94616 72.5625,163.9375 C 76.924167,163.92339 80.427245,163.62593 83.40625,163.15625 C 86.385255,162.68657 88.864461,162.05687 91.25,161.4375 C 93.635539,160.81813 95.918731,160.21319 98.5,159.75 C 101.08127,159.28681 103.96506,158.96988 107.53125,158.96875 C 111.09717,158.96762 114.19907,159.27726 117.0625,159.75 C 119.92593,160.22274 122.53316,160.86023 125.03125,161.5 C 127.50692,162.13403 129.89723,162.75193 132.34375,163.25 C 132.44947,163.26532 132.55118,163.29682 132.65625,163.3125 C 135.05128,163.7871 137.49795,164.13589 140.1875,164.1875 C 142.96642,164.24083 145.67195,163.92693 148.34375,163.4375 C 151.01555,162.94807 153.6554,162.27352 156.3125,161.59375 C 158.9696,160.91398 161.64018,160.23644 164.375,159.71875 C 167.10982,159.20106 169.90753,158.84693 172.8125,158.84375 C 175.71747,158.84057 178.50893,159.17788 181.25,159.6875 C 183.99107,160.19712 186.68034,160.88826 189.375,161.5625 C 191.55411,162.10775 193.75052,162.61551 195.96875,163.0625 C 202.66762,150.25348 205.60253,144.72931 209.53125,137.375 C 207.73488,135.29957 203.92237,133.25336 201.21875,132.125 C 196.98476,137.33049 193.21205,142.66951 188.09375,147.875 C 183.71695,148.66161 180.48392,149.02546 176.09375,149.0625 C 133.86975,147.05696 104.33576,151.74184 49.9375,139.4375 C 47.142779,138.6482 44.698803,137.7291 42.350028,136.74752 L 42.28125,136.71875 C 37.98564,134.91994 34.142787,132.78435 29.96875,130.03125 C 26.264183,138.52936 25.199733,148.13003 28.375,159.96875" />
    <path
       id="path15359"
       style="fill:#0072ce;fill-opacity:1;stroke:#323232;stroke-width:0.50109047;stroke-miterlimit:4;stroke-opacity:1"
       d="M 201.125,204.40625 C 199.93707,204.27618 198.69198,204.29968 197.53125,204.09375 C 194.76554,203.60307 192.06966,202.92424 189.375,202.25 C 186.68034,201.57576 183.99107,200.91587 181.25,200.40625 C 178.50893,199.89663 175.71747,199.55933 172.8125,199.5625 C 169.90753,199.56568 167.10982,199.88856 164.375,200.40625 C 161.64018,200.92394 158.9696,201.63273 156.3125,202.3125 C 153.6554,202.99227 151.01555,203.66682 148.34375,204.15625 C 145.67195,204.64568 142.96642,204.92832 140.1875,204.875 C 137.40858,204.82168 134.87618,204.46871 132.40625,203.96875 C 129.93632,203.46879 127.52934,202.82727 125.03125,202.1875 C 122.53316,201.54773 119.92593,200.91024 117.0625,200.4375 C 114.19907,199.96476 111.09717,199.65512 107.53125,199.65625 C 103.96506,199.65738 101.08127,199.97431 98.5,200.4375 C 95.918731,200.90069 93.635539,201.50563 91.25,202.125 C 88.864461,202.74437 86.385255,203.37407 83.40625,203.84375 C 80.427245,204.31343 76.924166,204.64214 72.5625,204.65625 C 68.200834,204.67036 64.720332,204.35928 61.71875,203.90625 C 58.717168,203.45322 56.211431,202.85605 53.8125,202.25 C 51.413569,201.64395 49.116212,201.0387 46.5625,200.59375 C 44.008788,200.1488 41.184676,199.87597 37.71875,199.90625 C 34.295899,199.93653 31.251931,200.21756 28.4375,200.65625 C 25.623069,201.09494 23.0439,201.6748 20.5625,202.25 C 18.432046,202.74385 16.386108,203.21678 14.3125,203.625 C 14.615985,203.94472 14.844132,204.3106 15.15625,204.625 C 34.982824,224.59667 88.9941,240.50099 107.59375,249.5625 C 124.71099,240.88511 177.9964,229.75257 200.65625,205.03125 C 200.8327,204.83875 200.95127,204.60084 201.125,204.40625 z " />
    <path
       id="path15357"
       style="fill:white;fill-opacity:1;stroke:#323232;stroke-width:0.5;stroke-miterlimit:4;stroke-dasharray:none;stroke-opacity:1"
       d="M 206.875,196.71875 C 206.56798,196.72509 206.41582,196.74552 206.09375,196.75 C 203.13951,196.79106 200.29696,196.49068 197.53125,196 C 194.76554,195.50932 192.06966,194.83049 189.375,194.15625 C 186.68034,193.48201 183.99107,192.79087 181.25,192.28125 C 178.50893,191.77163 175.71747,191.43433 172.8125,191.4375 C 169.90753,191.44068 167.10982,191.79481 164.375,192.3125 C 161.64018,192.83019 158.9696,193.53898 156.3125,194.21875 C 153.6554,194.89852 151.01555,195.54181 148.34375,196.03125 C 145.67195,196.52069 142.96642,196.83457 140.1875,196.78125 C 137.40858,196.72793 134.87618,196.37496 132.40625,195.875 C 129.93632,195.37504 127.52934,194.73352 125.03125,194.09375 C 122.53316,193.45398 119.92593,192.81649 117.0625,192.34375 C 114.19907,191.87101 111.09717,191.56137 107.53125,191.5625 C 103.96506,191.56363 101.08127,191.88056 98.5,192.34375 C 95.918731,192.80694 93.635539,193.41188 91.25,194.03125 C 88.864461,194.65062 86.385255,195.28032 83.40625,195.75 C 80.427245,196.21968 76.924167,196.54839 72.5625,196.5625 C 68.200834,196.57661 64.720332,196.26553 61.71875,195.8125 C 58.717168,195.35947 56.211431,194.7623 53.8125,194.15625 C 51.413569,193.5502 49.116212,192.94495 46.5625,192.5 C 44.008788,192.05505 41.184676,191.75097 37.71875,191.78125 C 34.295899,191.81153 31.251931,192.12381 28.4375,192.5625 C 25.623069,193.00119 23.0439,193.58105 20.5625,194.15625 C 18.0811,194.73145 15.705009,195.31019 13.28125,195.75 C 11.732432,196.03105 10.086186,196.11522 8.46875,196.25 C 10.176769,198.85967 12.1243,201.31975 14.3125,203.625 C 16.386108,203.21678 18.432046,202.74385 20.5625,202.25 C 23.0439,201.6748 25.623069,201.09494 28.4375,200.65625 C 31.251931,200.21756 34.295899,199.93653 37.71875,199.90625 C 41.184676,199.87597 44.008788,200.1488 46.5625,200.59375 C 49.116212,201.0387 51.413569,201.64395 53.8125,202.25 C 56.211431,202.85605 58.717168,203.45322 61.71875,203.90625 C 64.720332,204.35928 68.200834,204.67036 72.5625,204.65625 C 76.924166,204.64214 80.427245,204.31343 83.40625,203.84375 C 86.385255,203.37407 88.864461,202.74437 91.25,202.125 C 93.635539,201.50563 95.918731,200.90069 98.5,200.4375 C 101.08127,199.97431 103.96506,199.65738 107.53125,199.65625 C 111.09717,199.65512 114.19907,199.96476 117.0625,200.4375 C 119.92593,200.91024 122.53316,201.54773 125.03125,202.1875 C 127.52934,202.82727 129.93632,203.46879 132.40625,203.96875 C 134.87618,204.46871 137.40858,204.82168 140.1875,204.875 C 142.96642,204.92832 145.67195,204.64568 148.34375,204.15625 C 151.01555,203.66682 153.6554,202.99227 156.3125,202.3125 C 158.9696,201.63273 161.64018,200.92394 164.375,200.40625 C 167.10982,199.88856 169.90753,199.56568 172.8125,199.5625 C 175.71747,199.55933 178.50893,199.89663 181.25,200.40625 C 183.99107,200.91587 186.68034,201.57576 189.375,202.25 C 192.06966,202.92424 194.76554,203.60307 197.53125,204.09375 C 198.69198,204.29968 199.93707,204.27618 201.125,204.40625 C 203.26227,202.01237 205.1916,199.44558 206.875,196.71875 z " />
    <path
       id="path16249"
       style="fill:#0072ce;fill-opacity:1;stroke:#323232;stroke-width:0.50109047;stroke-miterlimit:4;stroke-opacity:1"
       d="M 209.625,191.59375 C 208.45575,191.64857 207.5498,191.72977 206.09375,191.75 C 203.1395,191.79106 200.29696,191.49068 197.53125,191 C 194.76554,190.50932 192.06966,189.83049 189.375,189.15625 C 186.68034,188.48201 183.99107,187.79087 181.25,187.28125 C 178.50893,186.77163 175.71747,186.43433 172.8125,186.4375 C 169.90753,186.44068 167.10982,186.79481 164.375,187.3125 C 161.64018,187.83019 158.9696,188.53898 156.3125,189.21875 C 153.6554,189.89852 151.01555,190.54182 148.34375,191.03125 C 145.67195,191.52068 142.96642,191.83458 140.1875,191.78125 C 137.40858,191.72793 134.87618,191.37496 132.40625,190.875 C 129.93632,190.37504 127.52934,189.73352 125.03125,189.09375 C 122.53316,188.45398 119.92593,187.81649 117.0625,187.34375 C 114.19907,186.87101 111.09717,186.56137 107.53125,186.5625 C 103.96506,186.56363 101.08127,186.88056 98.5,187.34375 C 95.918731,187.80694 93.635539,188.41188 91.25,189.03125 C 88.864461,189.65062 86.385255,190.28032 83.40625,190.75 C 80.427245,191.21968 76.924166,191.54839 72.5625,191.5625 C 68.200834,191.57661 64.720332,191.26553 61.71875,190.8125 C 58.717168,190.35947 56.211431,189.7623 53.8125,189.15625 C 51.413569,188.5502 49.116212,187.94495 46.5625,187.5 C 44.008788,187.05505 41.184676,186.75097 37.71875,186.78125 C 34.295899,186.81153 31.251931,187.12381 28.4375,187.5625 C 25.623069,188.00119 23.0439,188.58105 20.5625,189.15625 C 18.0811,189.73145 15.705009,190.31019 13.28125,190.75 C 10.877391,191.1862 8.4294337,191.49458 5.8125,191.53125 C 6.6294914,193.1467 7.4832279,194.74423 8.46875,196.25 C 10.086186,196.11522 11.732432,196.03105 13.28125,195.75 C 15.705009,195.31019 18.0811,194.73145 20.5625,194.15625 C 23.0439,193.58105 25.623069,193.00119 28.4375,192.5625 C 31.251931,192.12381 34.295899,191.81153 37.71875,191.78125 C 41.184676,191.75097 44.008788,192.05505 46.5625,192.5 C 49.116212,192.94495 51.413569,193.5502 53.8125,194.15625 C 56.211431,194.7623 58.717168,195.35947 61.71875,195.8125 C 64.720332,196.26553 68.200834,196.57661 72.5625,196.5625 C 76.924167,196.54839 80.427245,196.21968 83.40625,195.75 C 86.385255,195.28032 88.864461,194.65062 91.25,194.03125 C 93.635539,193.41188 95.918731,192.80694 98.5,192.34375 C 101.08127,191.88056 103.96506,191.56363 107.53125,191.5625 C 111.09717,191.56137 114.19907,191.87101 117.0625,192.34375 C 119.92593,192.81649 122.53316,193.45398 125.03125,194.09375 C 127.52934,194.73352 129.93632,195.37504 132.40625,195.875 C 134.87618,196.37496 137.40858,196.72793 140.1875,196.78125 C 142.96642,196.83457 145.67195,196.52069 148.34375,196.03125 C 151.01555,195.54181 153.6554,194.89852 156.3125,194.21875 C 158.9696,193.53898 161.64018,192.83019 164.375,192.3125 C 167.10982,191.79481 169.90753,191.44068 172.8125,191.4375 C 175.71747,191.43433 178.50893,191.77163 181.25,192.28125 C 183.99107,192.79087 186.68034,193.48201 189.375,194.15625 C 192.06966,194.83049 194.76554,195.50932 197.53125,196 C 200.29696,196.49068 203.13951,196.79106 206.09375,196.75 C 206.41582,196.74552 206.56798,196.72509 206.875,196.71875 C 207.88924,195.07585 208.79481,193.36189 209.625,191.59375 z " />
    <path
       id="path16247"
       style="fill:white;fill-opacity:1;stroke:#323232;stroke-width:0.5;stroke-miterlimit:4;stroke-dasharray:none;stroke-opacity:1"
       d="M 212.78125,182.46875 C 210.96638,182.61663 208.85096,182.71168 206.09375,182.75 C 203.13951,182.79106 200.29696,182.49068 197.53125,182 C 194.76554,181.50932 192.06966,180.83049 189.375,180.15625 C 186.68034,179.48201 183.99107,178.79087 181.25,178.28125 C 178.50893,177.77163 175.71747,177.43433 172.8125,177.4375 C 169.90753,177.44068 167.10982,177.79481 164.375,178.3125 C 161.64018,178.83019 158.9696,179.53898 156.3125,180.21875 C 153.6554,180.89852 151.01555,181.54181 148.34375,182.03125 C 145.67195,182.52069 142.96642,182.83457 140.1875,182.78125 C 137.40858,182.72793 134.87618,182.37496 132.40625,181.875 C 129.93632,181.37504 127.52934,180.73352 125.03125,180.09375 C 122.53316,179.45398 119.92593,178.81649 117.0625,178.34375 C 114.19907,177.87101 111.09717,177.56137 107.53125,177.5625 C 103.96506,177.56363 101.08127,177.88056 98.5,178.34375 C 95.918731,178.80694 93.635539,179.41188 91.25,180.03125 C 88.864461,180.65062 86.385255,181.28032 83.40625,181.75 C 80.427245,182.21968 76.924167,182.54839 72.5625,182.5625 C 68.200834,182.57661 64.720332,182.26553 61.71875,181.8125 C 58.717168,181.35947 56.211431,180.7623 53.8125,180.15625 C 51.413569,179.5502 49.116212,178.94495 46.5625,178.5 C 44.008788,178.05505 41.184676,177.75097 37.71875,177.78125 C 34.295899,177.81153 31.251931,178.12381 28.4375,178.5625 C 25.623069,179.00119 23.0439,179.58105 20.5625,180.15625 C 18.0811,180.73145 15.705009,181.31019 13.28125,181.75 C 10.857491,182.18981 8.3915068,182.49872 5.75,182.53125 C 3.7823601,182.55548 3.6590942,182.45633 2.375,182.4375 C 3.233061,185.66561 4.3765056,188.69183 5.8125,191.53125 C 8.4294337,191.49458 10.877391,191.1862 13.28125,190.75 C 15.705009,190.31019 18.0811,189.73145 20.5625,189.15625 C 23.0439,188.58105 25.623069,188.00119 28.4375,187.5625 C 31.251931,187.12381 34.295899,186.81153 37.71875,186.78125 C 41.184676,186.75097 44.008788,187.05505 46.5625,187.5 C 49.116212,187.94495 51.413569,188.5502 53.8125,189.15625 C 56.211431,189.7623 58.717168,190.35947 61.71875,190.8125 C 64.720332,191.26553 68.200834,191.57661 72.5625,191.5625 C 76.924166,191.54839 80.427245,191.21968 83.40625,190.75 C 86.385255,190.28032 88.864461,189.65062 91.25,189.03125 C 93.635539,188.41188 95.918731,187.80694 98.5,187.34375 C 101.08127,186.88056 103.96506,186.56363 107.53125,186.5625 C 111.09717,186.56137 114.19907,186.87101 117.0625,187.34375 C 119.92593,187.81649 122.53316,188.45398 125.03125,189.09375 C 127.52934,189.73352 129.93632,190.37504 132.40625,190.875 C 134.87618,191.37496 137.40858,191.72793 140.1875,191.78125 C 142.96642,191.83458 145.67195,191.52068 148.34375,191.03125 C 151.01555,190.54182 153.6554,189.89852 156.3125,189.21875 C 158.9696,188.53898 161.64018,187.83019 164.375,187.3125 C 167.10982,186.79481 169.90753,186.44068 172.8125,186.4375 C 175.71747,186.43433 178.50893,186.77163 181.25,187.28125 C 183.99107,187.79087 186.68034,188.48201 189.375,189.15625 C 192.06966,189.83049 194.76554,190.50932 197.53125,191 C 200.29696,191.49068 203.1395,191.79106 206.09375,191.75 C 207.5498,191.72977 208.45575,191.64857 209.625,191.59375 C 210.96271,188.74468 211.98587,185.67551 212.78125,182.46875 z " />
    <path
       id="path16254"
       style="fill:#0072ce;fill-opacity:1;stroke:#323232;stroke-width:0.50109047;stroke-miterlimit:4;stroke-opacity:1"
       d="M 213.75,177.5 C 213.52197,177.52204 213.39752,177.54178 213.15625,177.5625 C 211.2839,177.72327 209.00586,177.83453 206.09375,177.875 C 203.1395,177.91605 200.29696,177.58443 197.53125,177.09375 C 194.76554,176.60307 192.06966,175.95549 189.375,175.28125 C 186.68034,174.60701 183.99107,173.91587 181.25,173.40625 C 178.50893,172.89663 175.71747,172.55933 172.8125,172.5625 C 169.90753,172.56568 167.10982,172.91981 164.375,173.4375 C 161.64018,173.95519 158.9696,174.63273 156.3125,175.3125 C 153.6554,175.99227 151.01555,176.66682 148.34375,177.15625 C 145.67195,177.64568 142.96642,177.95958 140.1875,177.90625 C 137.40858,177.85293 134.87618,177.49996 132.40625,177 C 129.93632,176.50004 127.52934,175.85852 125.03125,175.21875 C 122.53316,174.57898 119.92593,173.94149 117.0625,173.46875 C 114.19907,172.99601 111.09717,172.68637 107.53125,172.6875 C 103.96506,172.68863 101.08127,173.00556 98.5,173.46875 C 95.918731,173.93194 93.635539,174.53688 91.25,175.15625 C 88.864461,175.77562 86.385255,176.40532 83.40625,176.875 C 80.427245,177.34468 76.924166,177.64214 72.5625,177.65625 C 68.200833,177.67036 64.720332,177.39053 61.71875,176.9375 C 58.717168,176.48447 56.211431,175.85605 53.8125,175.25 C 51.413569,174.64395 49.116212,174.0387 46.5625,173.59375 C 44.008788,173.1488 41.184676,172.87597 37.71875,172.90625 C 34.295899,172.93653 31.251931,173.24881 28.4375,173.6875 C 25.623069,174.12619 23.0439,174.70605 20.5625,175.28125 C 18.0811,175.85645 15.705009,176.40394 13.28125,176.84375 C 10.857491,177.28356 8.3915069,177.59247 5.75,177.625 C 3.2177503,177.65618 2.840877,177.5672 1.40625,177.53125 C 1.6865512,179.19419 1.9581015,180.86909 2.375,182.4375 C 3.6590942,182.45633 3.7823601,182.55548 5.75,182.53125 C 8.3915068,182.49872 10.857491,182.18981 13.28125,181.75 C 15.705009,181.31019 18.0811,180.73145 20.5625,180.15625 C 23.0439,179.58105 25.623069,179.00119 28.4375,178.5625 C 31.251931,178.12381 34.295899,177.81153 37.71875,177.78125 C 41.184676,177.75097 44.008788,178.05505 46.5625,178.5 C 49.116212,178.94495 51.413569,179.5502 53.8125,180.15625 C 56.211431,180.7623 58.717168,181.35947 61.71875,181.8125 C 64.720332,182.26553 68.200834,182.57661 72.5625,182.5625 C 76.924167,182.54839 80.427245,182.21968 83.40625,181.75 C 86.385255,181.28032 88.864461,180.65062 91.25,180.03125 C 93.635539,179.41188 95.918731,178.80694 98.5,178.34375 C 101.08127,177.88056 103.96506,177.56363 107.53125,177.5625 C 111.09717,177.56137 114.19907,177.87101 117.0625,178.34375 C 119.92593,178.81649 122.53316,179.45398 125.03125,180.09375 C 127.52934,180.73352 129.93632,181.37504 132.40625,181.875 C 134.87618,182.37496 137.40858,182.72793 140.1875,182.78125 C 142.96642,182.83457 145.67195,182.52069 148.34375,182.03125 C 151.01555,181.54181 153.6554,180.89852 156.3125,180.21875 C 158.9696,179.53898 161.64018,178.83019 164.375,178.3125 C 167.10982,177.79481 169.90753,177.44068 172.8125,177.4375 C 175.71747,177.43433 178.50893,177.77163 181.25,178.28125 C 183.99107,178.79087 186.68034,179.48201 189.375,180.15625 C 192.06966,180.83049 194.76554,181.50932 197.53125,182 C 200.29696,182.49068 203.13951,182.79106 206.09375,182.75 C 208.85096,182.71168 210.96638,182.61663 212.78125,182.46875 C 213.17865,180.86653 213.48642,179.18694 213.75,177.5 z " />
    <path
       id="path16252"
       style="fill:white;fill-opacity:1;stroke:#323232;stroke-width:0.5;stroke-miterlimit:4;stroke-dasharray:none;stroke-opacity:1"
       d="M 214.40625,169.28125 C 213.95339,169.33053 213.66589,169.39374 213.15625,169.4375 C 211.2839,169.59827 209.00585,169.70953 206.09375,169.75 C 203.13951,169.79106 200.29696,169.49068 197.53125,169 C 194.76554,168.50932 192.06966,167.83049 189.375,167.15625 C 186.68034,166.48201 183.99107,165.79087 181.25,165.28125 C 178.50893,164.77163 175.71747,164.43433 172.8125,164.4375 C 169.90753,164.44068 167.10982,164.79481 164.375,165.3125 C 161.64018,165.83019 158.9696,166.53898 156.3125,167.21875 C 153.6554,167.89852 151.01555,168.54181 148.34375,169.03125 C 145.67195,169.52069 142.96642,169.83457 140.1875,169.78125 C 137.40858,169.72793 134.87618,169.37496 132.40625,168.875 C 129.93632,168.37504 127.52934,167.73352 125.03125,167.09375 C 122.53316,166.45398 119.92593,165.81649 117.0625,165.34375 C 114.19907,164.87101 111.09717,164.56137 107.53125,164.5625 C 103.96506,164.56363 101.08127,164.88056 98.5,165.34375 C 95.918731,165.80694 93.635539,166.41188 91.25,167.03125 C 88.864461,167.65062 86.385255,168.28032 83.40625,168.75 C 80.427245,169.21968 76.924167,169.54839 72.5625,169.5625 C 68.200834,169.57661 64.720332,169.26553 61.71875,168.8125 C 58.717168,168.35947 56.211431,167.7623 53.8125,167.15625 C 51.413569,166.5502 49.116212,165.94495 46.5625,165.5 C 44.008788,165.05505 41.184676,164.75097 37.71875,164.78125 C 34.295899,164.81153 31.251931,165.12381 28.4375,165.5625 C 25.623069,166.00119 23.0439,166.58105 20.5625,167.15625 C 18.0811,167.73145 15.705009,168.31019 13.28125,168.75 C 10.857491,169.18981 8.3915068,169.49872 5.75,169.53125 C 2.7805533,169.56782 2.1530669,169.45753 0.65625,169.40625 C 0.69012233,172.27077 0.97079939,174.94786 1.40625,177.53125 C 2.840877,177.5672 3.2177503,177.65618 5.75,177.625 C 8.3915069,177.59247 10.857491,177.28356 13.28125,176.84375 C 15.705009,176.40394 18.0811,175.85645 20.5625,175.28125 C 23.0439,174.70605 25.623069,174.12619 28.4375,173.6875 C 31.251931,173.24881 34.295899,172.93653 37.71875,172.90625 C 41.184676,172.87597 44.008788,173.1488 46.5625,173.59375 C 49.116212,174.0387 51.413569,174.64395 53.8125,175.25 C 56.211431,175.85605 58.717168,176.48447 61.71875,176.9375 C 64.720332,177.39053 68.200833,177.67036 72.5625,177.65625 C 76.924166,177.64214 80.427245,177.34468 83.40625,176.875 C 86.385255,176.40532 88.864461,175.77562 91.25,175.15625 C 93.635539,174.53688 95.918731,173.93194 98.5,173.46875 C 101.08127,173.00556 103.96506,172.68863 107.53125,172.6875 C 111.09717,172.68637 114.19907,172.99601 117.0625,173.46875 C 119.92593,173.94149 122.53316,174.57898 125.03125,175.21875 C 127.52934,175.85852 129.93632,176.50004 132.40625,177 C 134.87618,177.49996 137.40858,177.85293 140.1875,177.90625 C 142.96642,177.95958 145.67195,177.64568 148.34375,177.15625 C 151.01555,176.66682 153.6554,175.99227 156.3125,175.3125 C 158.9696,174.63273 161.64018,173.95519 164.375,173.4375 C 167.10982,172.91981 169.90753,172.56568 172.8125,172.5625 C 175.71747,172.55933 178.50893,172.89663 181.25,173.40625 C 183.99107,173.91587 186.68034,174.60701 189.375,175.28125 C 192.06966,175.95549 194.76554,176.60307 197.53125,177.09375 C 200.29696,177.58443 203.1395,177.91605 206.09375,177.875 C 209.00586,177.83453 211.2839,177.72327 213.15625,177.5625 C 213.39752,177.54178 213.52197,177.52204 213.75,177.5 C 214.13932,175.00833 214.39589,172.45295 214.40625,169.71875 L 214.40625,169.28125 z " />
    <path
       id="path1942"
       style="fill:#fedd00;fill-opacity:1;fill-rule:evenodd;stroke:#323232;stroke-width:0.5;stroke-linecap:butt;stroke-linejoin:miter;stroke-miterlimit:4;stroke-dasharray:none;stroke-opacity:1"
       d="M 72.655318,142.87713 C 72.655318,147.2697 69.090332,150.83469 64.697759,150.83469 C 60.305186,150.83469 56.740199,147.2697 56.740199,142.87713 C 56.740199,138.48456 60.305186,134.91957 64.697759,134.91957 C 69.090332,134.91957 72.655318,138.48456 72.655318,142.87713 z " />
    <path
       id="path2832"
       style="fill:#fedd00;fill-opacity:1;fill-rule:evenodd;stroke:#323232;stroke-width:0.5;stroke-linecap:butt;stroke-linejoin:miter;stroke-miterlimit:4;stroke-dasharray:none;stroke-opacity:1"
       d="M 89.660173,145.21025 C 89.660173,149.60282 86.095187,153.16781 81.702614,153.16781 C 77.310041,153.16781 73.745054,149.60282 73.745054,145.21025 C 73.745054,140.81768 77.310041,137.25269 81.702614,137.25269 C 86.095187,137.25269 89.660173,140.81768 89.660173,145.21025 z " />
    <path
       id="path2834"
       style="fill:#fedd00;fill-opacity:1;fill-rule:evenodd;stroke:#323232;stroke-width:0.5;stroke-linecap:butt;stroke-linejoin:miter;stroke-miterlimit:4;stroke-dasharray:none;stroke-opacity:1"
       d="M 106.72785,147.31903 C 106.72785,151.7116 103.16286,155.27659 98.770284,155.27659 C 94.377711,155.27659 90.812724,151.7116 90.812724,147.31903 C 90.812724,142.92646 94.377711,139.36147 98.770284,139.36147 C 103.16286,139.36147 106.72785,142.92646 106.72785,147.31903 z " />
    <path
       id="path2836"
       style="fill:#fedd00;fill-opacity:1;fill-rule:evenodd;stroke:#323232;stroke-width:0.5;stroke-linecap:butt;stroke-linejoin:miter;stroke-miterlimit:4;stroke-dasharray:none;stroke-opacity:1"
       d="M 123.71026,148.13563 C 123.71026,152.5282 120.14528,156.09319 115.7527,156.09319 C 111.36013,156.09319 107.79514,152.5282 107.79514,148.13563 C 107.79514,143.74306 111.36013,140.17807 115.7527,140.17807 C 120.14528,140.17807 123.71026,143.74306 123.71026,148.13563 z " />
    <path
       id="path2838"
       style="fill:#fedd00;fill-opacity:1;fill-rule:evenodd;stroke:#323232;stroke-width:0.5;stroke-linecap:butt;stroke-linejoin:miter;stroke-miterlimit:4;stroke-dasharray:none;stroke-opacity:1"
       d="M 140.77793,148.49457 C 140.77793,152.88714 137.21295,156.45213 132.82037,156.45213 C 128.4278,156.45213 124.86281,152.88714 124.86281,148.49457 C 124.86281,144.102 128.4278,140.53701 132.82037,140.53701 C 137.21295,140.53701 140.77793,144.102 140.77793,148.49457 z " />
    <path
       id="path2840"
       style="fill:#fedd00;fill-opacity:1;fill-rule:evenodd;stroke:#323232;stroke-width:0.5;stroke-linecap:butt;stroke-linejoin:miter;stroke-miterlimit:4;stroke-dasharray:none;stroke-opacity:1"
       d="M 157.73792,148.67404 C 157.73792,153.06661 154.17294,156.6316 149.78036,156.6316 C 145.38779,156.6316 141.8228,153.06661 141.8228,148.67404 C 141.8228,144.28147 145.38779,140.71648 149.78036,140.71648 C 154.17294,140.71648 157.73792,144.28147 157.73792,148.67404 z " />
    <path
       id="path2842"
       style="fill:#fedd00;fill-opacity:1;fill-rule:evenodd;stroke:#323232;stroke-width:0.5;stroke-linecap:butt;stroke-linejoin:miter;stroke-miterlimit:4;stroke-dasharray:none;stroke-opacity:1"
       d="M 174.92674,148.49457 C 174.92674,152.88714 171.36175,156.45213 166.96918,156.45213 C 162.57661,156.45213 159.01162,152.88714 159.01162,148.49457 C 159.01162,144.102 162.57661,140.53701 166.96918,140.53701 C 171.36175,140.53701 174.92674,144.102 174.92674,148.49457 z " />
    <path
       id="path2852"
       style="fill:white;fill-opacity:1;fill-rule:evenodd;stroke:#323232;stroke-width:0.5;stroke-linecap:butt;stroke-linejoin:miter;stroke-miterlimit:4;stroke-dasharray:none;stroke-opacity:1"
       d="M 63.981892,133.20748 C 75.389997,96.267918 161.30582,135.36892 177.78167,142.98262 C 169.16791,128.52308 145.70757,51.763894 173.29365,33.574944 L 65.021092,41.827379 C 34.805778,81.726681 54.144123,125.90308 63.981892,133.20748 z " />
    <path
       id="path2850"
       style="fill:white;fill-opacity:1;fill-rule:evenodd;stroke:#323232;stroke-width:0.5;stroke-linecap:butt;stroke-linejoin:miter;stroke-miterlimit:4;stroke-dasharray:none;stroke-opacity:1"
       d="M 60.729433,37.119233 L 177.95145,28.175157 C 182.59501,28.910971 180.91027,34.704759 178.14045,34.622371 L 61.081378,43.492065 C 57.931986,42.61548 57.787711,38.046883 60.729433,37.119233 z " />
    <path
       id="path14465"
       style="fill:none;fill-opacity:1;stroke:#323232;stroke-width:1;stroke-miterlimit:4;stroke-dasharray:none;stroke-opacity:1"
       d="M 0.59264959,0.53806577 L 214.41639,0.53806577 L 214.41639,169.70721 C 214.36064,184.4234 209.02656,195.89423 200.65603,205.02626 C 177.99618,229.74757 124.72103,240.88006 107.60379,249.55745 C 89.004139,240.49595 34.983439,224.59164 15.156869,204.61997 C 6.0319786,195.4283 0.56500359,183.99232 0.59264959,168.6734 L 0.59264959,0.53806577 z " />
  </g>
</svg>
