<?xml version="1.0" encoding="UTF-8" standalone="no"?>
<!-- Created with Inkscape (http://www.inkscape.org/) -->

<svg
   xmlns:dc="http://purl.org/dc/elements/1.1/"
   xmlns:cc="http://creativecommons.org/ns#"
   xmlns:rdf="http://www.w3.org/1999/02/22-rdf-syntax-ns#"
   xmlns:svg="http://www.w3.org/2000/svg"
   xmlns="http://www.w3.org/2000/svg"
   xmlns:sodipodi="http://sodipodi.sourceforge.net/DTD/sodipodi-0.dtd"
   xmlns:inkscape="http://www.inkscape.org/namespaces/inkscape"
   id="svg2010"
   sodipodi:version="0.32"
   inkscape:version="0.92.4 (5da689c313, 2019-01-14)"
   width="471.42999"
   height="300"
   version="1.0"
   sodipodi:docname="Viljandimaa_lipp.svg">
  <metadata
     id="metadata2015">
    <rdf:RDF>
      <cc:Work
         rdf:about="">
        <dc:format>image/svg+xml</dc:format>
        <dc:type
           rdf:resource="http://purl.org/dc/dcmitype/StillImage" />
      </cc:Work>
    </rdf:RDF>
  </metadata>
  <defs
     id="defs2013" />
  <sodipodi:namedview
     inkscape:window-height="1017"
     inkscape:window-width="1920"
     inkscape:pageshadow="2"
     inkscape:pageopacity="0.0"
     guidetolerance="10.0"
     gridtolerance="10.0"
     objecttolerance="10.0"
     borderopacity="1.0"
     bordercolor="#666666"
     pagecolor="#ffffff"
     id="base"
     width="471.43px"
     height="300px"
     inkscape:zoom="1.7066667"
     inkscape:cx="180.24649"
     inkscape:cy="156.64187"
     inkscape:window-x="-8"
     inkscape:window-y="-8"
     inkscape:current-layer="svg2010"
     showgrid="false"
     inkscape:window-maximized="1" />
  <g
     id="g2313"
     transform="matrix(1.714291,0,0,1.714292,-1.386987e-6,-1.086921e-3)">
    <rect
       id="green Stripe"
       style="fill:#009739;fill-opacity:1"
       y="87.500328"
       x="1.9417648e-006"
       height="87.499664"
       width="275" />
    <rect
       id="white Stripe"
       style="fill:white"
       y="0.00066018361"
       x="1.9417648e-006"
       height="87.499664"
       width="275" />
  </g>
  <g
     id="g14942"
     transform="matrix(0.425532,0,0,0.425532,188.9055,14.99985)">
    <path
       sodipodi:nodetypes="cccccc"
       id="path2971"
       d="M 0.49796714,0.49836885 L 0.49796714,195.05855 C 3.568972,249.27897 65.217286,258.92994 109.99984,281.50201 C 154.78238,258.92994 216.43071,249.27897 219.50172,195.05855 L 219.50172,0.49836885 L 0.49796714,0.49836885 z "
       style="fill:#0072ce;fill-opacity:1;stroke:none;stroke-width:0.99596912;stroke-opacity:1" />
    <g
       transform="matrix(0.40055,0,0,0.40055,-125.2508,-15.41559)"
       id="g19965">
      <path
         style="fill:white;fill-opacity:0.98026315;fill-rule:evenodd;stroke:black;stroke-width:2.5;stroke-linecap:butt;stroke-linejoin:miter;stroke-miterlimit:4;stroke-dasharray:none;stroke-opacity:1"
         d="M 744.25005,115.49629 C 711.25921,132.31269 679.35371,151.40747 672.53099,169.74693 C 668.67852,180.10235 667.15382,189.76521 673.09403,205.59395 C 678.19782,219.19391 684.36237,227.83647 683.17994,234.95211 C 684.31914,247.04859 673.32164,256.00533 659.63482,259.62634 C 633.88432,266.43895 598.61443,254.36471 616.74103,208.77921 L 589.22592,205.42371 L 603.31902,143.01139 C 586.88113,142.82197 575.98758,145.88794 569.01774,151.76115 C 546.2118,170.97881 544.42649,187.94094 544.93331,198.0416 C 546.38663,255.15977 530.82933,262.25409 516.89214,263.04733 C 502.64368,262.82892 494.23451,241.46278 498.6274,228.91221 C 507.82275,207.29272 517.16315,198.52123 509.365,173.882 C 490.48316,140.21904 454.44293,129.98738 434.87289,117.50959 L 424.13529,154.4201 L 412.05548,191.3306 L 410.04218,228.24111 L 413.39768,263.13832 L 420.77979,293.33782 L 434.87289,324.87953 L 452.32149,348.36803 L 471.7834,364.47444 L 500.6407,379.23864 L 683.17994,385.94964 L 710.69504,369.84324 L 731.49915,348.36803 L 743.57895,320.18183 L 757.00095,291.99562 L 768.40966,259.11172 L 770.42296,227.57001 L 765.72526,189.9884 L 758.34315,154.4201 L 744.25005,115.49629 z "
         id="path14637"
         sodipodi:nodetypes="csscscccscccccccccccccccccccccccc" />
      <g
         id="g19068">
        <path
           sodipodi:nodetypes="ccc"
           id="path15524"
           d="M 587.89601,152.91593 C 580.98248,161.28384 564.40297,155.26356 566.26442,184.79582 C 571.89588,171.53921 587.23712,184.01681 587.89601,152.91593 z "
           style="fill:black;fill-opacity:1;fill-rule:evenodd;stroke:none;stroke-width:1px;stroke-linecap:butt;stroke-linejoin:miter;stroke-opacity:1" />
        <path
           transform="matrix(1.240972,0,0,1.240972,-141.0951,-39.53347)"
           d="M 582.05618 167.16893 A 5.2065096 5.2696185 0 1 1  571.64316,167.16893 A 5.2065096 5.2696185 0 1 1  582.05618 167.16893 z"
           sodipodi:ry="5.2696185"
           sodipodi:rx="5.2065096"
           sodipodi:cy="167.16893"
           sodipodi:cx="576.84967"
           id="path16411"
           style="fill:white;fill-opacity:1;stroke:none;stroke-width:3;stroke-linecap:round;stroke-linejoin:round;stroke-miterlimit:4;stroke-dasharray:none;stroke-opacity:1"
           sodipodi:type="arc" />
      </g>
      <g
         id="g19961">
        <path
           sodipodi:nodetypes="csccsc"
           id="path19072"
           d="M 649.0543,161.4401 C 645.19459,165.30189 639.73441,167.75806 636.01265,169.46765 C 625.41717,174.33466 597.33889,182.60218 588.9351,210.55651 L 594.48871,213.33331 C 602.5681,192.12627 649.26769,188.31824 654.50198,162.13689 C 654.65684,161.36232 658.11182,151.72284 649.0543,161.4401 z "
           style="fill:#fedd00;fill-opacity:1;fill-rule:evenodd;stroke:black;stroke-width:2.5;stroke-linecap:butt;stroke-linejoin:miter;stroke-miterlimit:4;stroke-dasharray:none;stroke-opacity:1" />
        <path
           sodipodi:nodetypes="cscccccsccsc"
           id="path19074"
           d="M 644.72364,164.86544 C 649.29328,153.75443 638.0568,134.64041 623.51895,134.82546 C 608.20625,135.0139 593.23262,151.06063 588.59562,168.82174 C 583.41097,189.27294 583.83229,206.5041 586.90692,220.56259 L 588.99779,221.0368 C 599.07437,214.74994 609.15094,206.75248 619.22752,209.54676 C 624.86181,201.76412 630.97451,197.1723 640.67596,193.90872 C 641.81077,192.4969 642.43224,191.44712 640.84352,190.92811 C 622.23749,184.84981 599.6899,203.79799 593.47462,208.78076 L 591.96435,206.26508 C 596.90199,193.74086 597.691,179.57394 611.40198,166.38006 C 626.81729,151.55252 638.53025,164.8216 644.72364,164.86544 z "
           style="fill:#fedd00;fill-opacity:1;fill-rule:evenodd;stroke:black;stroke-width:2.5;stroke-linecap:butt;stroke-linejoin:miter;stroke-miterlimit:4;stroke-dasharray:none;stroke-opacity:1" />
      </g>
    </g>
    <g
       transform="matrix(0.40055,0,0,0.40055,-125.2508,-15.41559)"
       id="g31670">
      <path
         style="fill:white;fill-opacity:1;fill-rule:evenodd;stroke:black;stroke-width:2.5;stroke-linecap:butt;stroke-linejoin:miter;stroke-miterlimit:4;stroke-dasharray:none;stroke-opacity:1"
         d="M 345.03638,331.43735 C 331.8453,351.39181 335.24835,385.35368 339.75988,408.44588 L 370.41486,549.49265 L 406.20665,541.35479 L 374.67769,393.59142 C 366.18364,356.89515 355.92727,341.85632 345.03638,331.43735 z "
         id="path31666"
         sodipodi:nodetypes="cccccc" />
      <path
         style="fill:black;fill-opacity:1;fill-rule:evenodd;stroke:black;stroke-width:1px;stroke-linecap:square;stroke-linejoin:miter;stroke-opacity:1"
         d="M 352.11784,378.20172 L 390.86267,546.09602 L 386.5577,547.2836 L 352.11784,378.20172 z "
         id="path31668"
         sodipodi:nodetypes="cccc" />
    </g>
    <g
       transform="matrix(0.40055,0,0,0.40055,-125.2508,-15.41559)"
       id="g31655">
      <path
         style="fill:#fedd00;fill-opacity:1;fill-rule:evenodd;stroke:black;stroke-width:2.5;stroke-linecap:butt;stroke-linejoin:miter;stroke-miterlimit:4;stroke-dasharray:none;stroke-opacity:1"
         d="M 456.04169,508.22312 L 406.34189,557.46274 L 389.5452,588.52511 L 394.60721,611.30419 L 413.70482,607.39263 L 408.18263,582.54273 L 455.8116,528.47119 L 456.04169,508.22312 z "
         id="path31637"
         sodipodi:nodetypes="cccccccc" />
      <path
         style="fill:#fedd00;fill-opacity:1;fill-rule:evenodd;stroke:black;stroke-width:2.5;stroke-linecap:butt;stroke-linejoin:miter;stroke-miterlimit:4;stroke-dasharray:none;stroke-opacity:1"
         d="M 356.87218,550.0998 L 415.08537,536.52439 C 433.12472,533.163 432.14136,551.7333 418.99693,552.17062 L 358.943,566.89649 C 345.92335,568.02443 343.66882,553.68916 356.87218,550.0998 z "
         id="path31639"
         sodipodi:nodetypes="ccccc" />
      <path
         style="fill:#fedd00;fill-opacity:1;fill-rule:evenodd;stroke:black;stroke-width:2.5;stroke-linecap:butt;stroke-linejoin:miter;stroke-miterlimit:4;stroke-dasharray:none;stroke-opacity:1"
         d="M 401.97015,557.46274 C 395.0674,555.67522 380.80171,558.04492 372.28832,561.83448 C 355.92513,570.52512 371.85732,580.40027 376.19988,576.79044 L 404.96134,571.95851 L 401.97015,557.46274 z "
         id="path31641"
         sodipodi:nodetypes="ccccc" />
      <path
         style="fill:#fedd00;fill-opacity:1;fill-rule:evenodd;stroke:black;stroke-width:2.5;stroke-linecap:butt;stroke-linejoin:miter;stroke-miterlimit:4;stroke-dasharray:none;stroke-opacity:1"
         d="M 406.73411,569.96787 C 399.83136,568.18035 384.96055,570.14663 377.05228,574.33961 C 360.68909,583.03025 376.62128,592.9054 380.96384,589.29557 L 409.7253,584.46364 L 406.73411,569.96787 z "
         id="path31645"
         sodipodi:nodetypes="ccccc" />
      <path
         style="fill:#fedd00;fill-opacity:1;fill-rule:evenodd;stroke:black;stroke-width:2.5;stroke-linecap:butt;stroke-linejoin:miter;stroke-miterlimit:4;stroke-dasharray:none;stroke-opacity:1"
         d="M 412.25631,581.70255 C 405.35356,579.91503 390.88616,582.48644 382.57448,586.07429 C 366.21129,594.76493 381.22311,603.02944 386.48604,601.03025 C 390.36092,599.75128 392.13098,598.45396 393.43715,597.77159 C 402.99212,592.77987 413.01935,595.12577 414.32713,592.74695 L 412.25631,581.70255 z "
         id="path31643"
         sodipodi:nodetypes="cccscc" />
      <path
         style="fill:#fedd00;fill-opacity:1;fill-rule:evenodd;stroke:black;stroke-width:2.5;stroke-linecap:butt;stroke-linejoin:miter;stroke-miterlimit:4;stroke-dasharray:none;stroke-opacity:1"
         d="M 406.97205,553.85787 C 397.486,554.94473 393.68873,561.22402 400.55832,568.91202 L 408.66771,570.13892 C 422.61223,570.61217 422.77151,552.23597 406.97205,553.85787 z "
         id="path31651"
         sodipodi:nodetypes="cccc" />
      <path
         style="fill:#fedd00;fill-opacity:1;fill-rule:evenodd;stroke:black;stroke-width:2.5;stroke-linecap:butt;stroke-linejoin:miter;stroke-miterlimit:4;stroke-dasharray:none;stroke-opacity:1"
         d="M 409.8295,566.9304 C 401.01477,567.93901 397.48624,573.76625 403.86967,580.90079 L 411.40515,582.03936 C 424.36283,582.47854 424.51084,565.42526 409.8295,566.9304 z "
         id="path31649"
         sodipodi:nodetypes="cccc" />
      <path
         style="fill:#fedd00;fill-opacity:1;fill-rule:evenodd;stroke:black;stroke-width:2.5;stroke-linecap:butt;stroke-linejoin:miter;stroke-miterlimit:4;stroke-dasharray:none;stroke-opacity:1"
         d="M 412.20588,579.87161 C 404.03666,580.88271 400.76652,586.72431 406.68249,593.87642 L 413.66615,595.0178 C 425.67493,595.45806 425.8121,578.36276 412.20588,579.87161 z "
         id="path31647"
         sodipodi:nodetypes="cccc" />
      <path
         style="fill:#fedd00;fill-opacity:1;fill-rule:evenodd;stroke:black;stroke-width:2.5;stroke-linecap:butt;stroke-linejoin:miter;stroke-miterlimit:4;stroke-dasharray:none;stroke-opacity:1"
         d="M 392.7245,607.33125 L 414.71062,602.28856 C 427.16143,599.23463 426.36003,610.32677 421.69196,613.31227 C 420.92586,613.80224 419.48163,614.31876 419.14819,616.40809 C 420.16673,626.19544 403.05218,634.1622 394.53987,620.84565 C 394.02073,620.65116 393.72633,618.95965 391.86096,619.13079 C 387.6911,619.51335 380.64721,609.65969 392.7245,607.33125 z "
         id="path31653"
         sodipodi:nodetypes="ccsccsc" />
    </g>
    <g
       transform="matrix(0.40055,0,0,0.40055,-125.2508,-15.41559)"
       id="g31630">
      <path
         style="fill:#fedd00;fill-opacity:1;fill-rule:evenodd;stroke:black;stroke-width:2.5;stroke-linecap:butt;stroke-linejoin:miter;stroke-miterlimit:4;stroke-dasharray:none;stroke-opacity:1"
         d="M 742.04563,582.31264 C 742.8546,588.22335 745.46829,591.87816 748.71829,594.73759 C 743.64432,600.38053 729.19666,595.93932 727.08968,578.17099 L 742.04563,582.31264 z "
         id="path31622"
         sodipodi:nodetypes="cccc" />
      <path
         style="fill:#fedd00;fill-opacity:1;fill-rule:evenodd;stroke:black;stroke-width:2.5;stroke-linecap:butt;stroke-linejoin:miter;stroke-miterlimit:4;stroke-dasharray:none;stroke-opacity:1"
         d="M 804.86066,568.73723 C 823.36179,586.32335 809.16468,596.83486 802.09956,600.02969 C 801.92692,592.17003 803.30096,587.97218 795.65699,585.30383 L 804.86066,568.73723 z "
         id="path31624"
         sodipodi:nodetypes="cccc" />
      <path
         style="fill:#fedd00;fill-opacity:1;fill-rule:evenodd;stroke:black;stroke-width:2.5;stroke-linecap:butt;stroke-linejoin:miter;stroke-miterlimit:4;stroke-dasharray:none;stroke-opacity:1"
         d="M 832.01148,519.03743 C 842.2756,524.16662 845.36802,532.5708 839.83459,542.0466 C 835.46285,536.34236 831.09111,533.56673 826.71936,530.7721 L 832.01148,519.03743 z "
         id="path31626"
         sodipodi:nodetypes="cccc" />
      <path
         style="fill:#fedd00;fill-opacity:1;fill-rule:evenodd;stroke:black;stroke-width:2.5;stroke-linecap:butt;stroke-linejoin:miter;stroke-miterlimit:4;stroke-dasharray:none;stroke-opacity:1"
         d="M 799.56856,486.82459 C 814.19636,473.83527 825.27921,479.42564 828.09992,491.19633 C 821.53872,490.33391 814.97365,491.22906 809.92268,495.1079 L 799.56856,486.82459 z "
         id="path31628"
         sodipodi:nodetypes="cccc" />
      <path
         style="fill:#fedd00;fill-opacity:1;fill-rule:evenodd;stroke:black;stroke-width:2.5;stroke-linecap:butt;stroke-linejoin:miter;stroke-miterlimit:4;stroke-dasharray:none;stroke-opacity:1"
         d="M 681.53153,470.0279 L 698.32822,470.48808 L 756.08122,526.86054 C 761.62277,523.15375 767.57051,520.06523 774.94874,518.80734 L 787.83388,505.69211 C 785.92502,502.46527 781.75313,481.24595 801.63938,484.06349 C 803.90556,486.49465 805.28972,488.33779 809.2324,491.88661 C 810.84304,493.12037 812.45369,493.51512 814.06433,494.18753 C 814.36179,510.9158 806.26426,507.49611 800.94911,510.75413 L 789.67461,524.78972 C 796.19388,523.26027 803.40342,522.17988 809.92268,519.95779 C 824.6115,498.919 835.58336,516.54481 835.69294,520.87816 C 830.72697,525.77306 831.11158,529.9036 830.17074,534.22348 C 821.01256,539.71191 818.48696,536.08053 813.83424,535.37394 C 803.41825,538.55398 791.56267,540.77429 779.32049,542.73687 L 794.50654,554.70164 C 801.02717,558.25821 808.81281,559.69871 809.46249,572.64879 L 805.55094,574.48952 C 800.3247,578.86126 800.42038,583.233 797.95791,587.60474 C 783.85243,588.41275 781.97082,574.3775 775.63902,565.74604 L 762.06361,552.63081 C 760.3657,557.78885 759.28699,562.85163 749.86875,569.19741 C 752.12194,578.37027 749.60247,583.87184 743.88637,586.91447 C 737.37972,582.74998 731.39135,580.01076 727.31977,582.54273 C 719.66175,573.52587 723.53467,566.64437 732.38178,560.68402 C 735.74522,559.18194 752.36429,553.31832 745.03683,539.28549 L 683.83244,485.67413 L 681.53153,470.0279 z "
         id="path31620"
         sodipodi:nodetypes="cccccccccccccccccccccccccccc" />
    </g>
    <g
       transform="matrix(0.40055,0,0,0.40055,-125.2508,-15.41559)"
       id="g31676">
      <g
         id="g23535"
         style="fill:white;fill-opacity:1">
        <path
           sodipodi:nodetypes="cscccc"
           id="path20860"
           d="M 348.60548,59.610671 C 349.48442,55.970232 352.24702,57.841572 356.28986,62.261592 C 368.89665,76.044522 407.91555,104.43625 435.05515,118.27294 C 436.77019,125.63255 436.67112,129.36395 441.79148,143.53421 C 431.04507,146.81777 429.25885,148.79388 424.66996,151.39327 C 379.56527,131.02219 341.00113,102.77328 348.60548,59.610671 z "
           style="fill:white;fill-opacity:1;fill-rule:evenodd;stroke:black;stroke-width:2.5;stroke-linecap:round;stroke-linejoin:round;stroke-miterlimit:4;stroke-dasharray:none;stroke-opacity:1" />
        <path
           sodipodi:nodetypes="cscccc"
           id="path21747"
           d="M 339.58411,100.91518 C 340.47833,97.200257 343.19277,99.228993 347.12141,103.90102 C 359.66378,118.81673 394.69757,143.81619 422.76514,156.56756 C 424.51,164.07777 425.53192,165.64008 430.7413,177.57416 C 422.33419,182.04762 416.30671,185.46756 413.04145,190.36559 C 369.39804,172.94586 335.21573,142.43485 339.58411,100.91518 z "
           style="fill:white;fill-opacity:1;fill-rule:evenodd;stroke:black;stroke-width:2.54730558;stroke-linecap:round;stroke-linejoin:round;stroke-miterlimit:4;stroke-dasharray:none;stroke-opacity:1" />
        <path
           sodipodi:nodetypes="cscccc"
           id="path22634"
           d="M 337.91575,161.29953 C 338.79469,157.6591 340.76465,160.41503 345.60013,163.95046 C 371.24436,182.70003 390.54135,188.2214 412.01547,194.41985 C 414.57255,199.53401 419.24505,205.79155 425.48814,212.38342 C 416.42581,220.15788 414.07823,223.53739 410.61206,227.82086 C 382.00774,220.1148 339.85785,209.51614 337.91575,161.29953 z "
           style="fill:white;fill-opacity:1;fill-rule:evenodd;stroke:black;stroke-width:2.5;stroke-linecap:round;stroke-linejoin:round;stroke-miterlimit:4;stroke-dasharray:none;stroke-opacity:1" />
        <path
           sodipodi:nodetypes="cscccc"
           id="path23521"
           d="M 338.62874,258.60099 C 337.77527,254.9545 341.02623,255.54245 346.68397,257.50995 C 369.14622,265.3213 390.46288,265.86878 413.31938,264.22115 C 418.1631,270.02146 420.87666,272.55617 427.89693,278.13429 C 420.90081,286.18361 421.87913,290.15557 420.63517,293.98069 C 387.57197,299.37692 346.10281,296.91207 338.62874,258.60099 z "
           style="fill:white;fill-opacity:1;fill-rule:evenodd;stroke:black;stroke-width:2.5;stroke-linecap:round;stroke-linejoin:round;stroke-miterlimit:4;stroke-dasharray:none;stroke-opacity:1" />
        <path
           inkscape:transform-center-y="-0.057576975"
           inkscape:transform-center-x="-1.7545952"
           sodipodi:nodetypes="cscccc"
           id="path23523"
           d="M 336.72848,210.45283 C 336.47914,206.71612 339.71925,208.72369 344.85392,211.80852 C 361.80026,221.98963 381.75284,227.37062 410.37589,231.05144 C 412.80884,235.87794 417.47842,240.31042 423.51257,246.12753 C 418.16836,251.91162 416.77375,256.29605 413.17157,260.14819 C 377.79336,260.92599 334.23286,250.82775 336.72848,210.45283 z "
           style="fill:white;fill-opacity:1;fill-rule:evenodd;stroke:black;stroke-width:2.5;stroke-linecap:round;stroke-linejoin:round;stroke-miterlimit:4;stroke-dasharray:none;stroke-opacity:1" />
        <path
           sodipodi:nodetypes="cscccc"
           id="path23525"
           d="M 346.45627,304.87571 C 344.76498,301.53434 348.07889,301.18911 354.02527,301.91137 C 374.07785,304.347 399.71652,303.64004 421.95834,296.00827 C 428.03594,300.49915 427.01176,299.47459 437.85238,305.81974 C 434.04558,313.32268 434.80906,319.07277 433.5623,323.46573 C 396.68126,338.60615 357.70687,341.8242 346.45627,304.87571 z "
           style="fill:white;fill-opacity:1;fill-rule:evenodd;stroke:black;stroke-width:2.5;stroke-linecap:round;stroke-linejoin:round;stroke-miterlimit:4;stroke-dasharray:none;stroke-opacity:1" />
        <path
           sodipodi:nodetypes="cscccc"
           id="path23527"
           d="M 361.61811,345.77994 C 359.93073,342.43659 364.32329,342.51325 370.3133,342.54378 C 397.29416,342.6813 421.25469,333.87286 436.85275,326.9295 C 441.52169,329.18204 446.66909,330.40567 452.16804,330.87184 C 450.87628,337.24497 451.63664,342.99495 451.50682,345.98241 C 430.63163,363.30302 382.42909,385.91403 361.61811,345.77994 z "
           style="fill:white;fill-opacity:1;fill-rule:evenodd;stroke:black;stroke-width:2.5;stroke-linecap:round;stroke-linejoin:round;stroke-miterlimit:4;stroke-dasharray:none;stroke-opacity:1" />
        <path
           sodipodi:nodetypes="cscccc"
           id="path23529"
           d="M 393.91894,388.39924 C 388.75913,384.76146 391.198,382.5209 396.83537,380.49576 C 410.02944,375.75599 424.35805,371.65163 453.54513,348.82304 C 461.07594,349.44926 454.49238,349.56591 469.55024,349.04117 C 469.37751,360.27671 470.14876,358.93432 471.21449,364.09949 C 454.40129,385.55012 421.87172,410.1791 393.91894,388.39924 z "
           style="fill:white;fill-opacity:1;fill-rule:evenodd;stroke:black;stroke-width:2.5;stroke-linecap:round;stroke-linejoin:round;stroke-miterlimit:4;stroke-dasharray:none;stroke-opacity:1" />
        <path
           sodipodi:nodetypes="cscccc"
           id="path23531"
           d="M 425.39219,417.68932 C 421.98581,416.13309 424.34907,413.77749 429.45819,410.65051 C 445.38996,400.89966 456.27444,390.45712 475.02697,366.44973 C 482.57851,366.16783 482.2932,366.97579 497.17931,364.64809 C 498.35595,375.82318 495.74545,372.33946 497.42324,377.33944 C 473.18041,410.85743 454.06709,427.86252 425.39219,417.68932 z "
           style="fill:white;fill-opacity:1;fill-rule:evenodd;stroke:black;stroke-width:2.5;stroke-linecap:round;stroke-linejoin:round;stroke-miterlimit:4;stroke-dasharray:none;stroke-opacity:1" />
        <path
           sodipodi:nodetypes="csccc"
           id="path23533"
           d="M 461.86846,428.22174 C 458.46208,426.66551 461.23456,424.8967 465.93446,421.18293 C 479.3401,410.59004 482.92688,403.79635 501.67941,379.78896 C 509.23095,379.50706 517.62633,385.67869 519.30412,390.67867 C 500.98786,425.40776 495.26751,434.77024 461.86846,428.22174 z "
           style="fill:white;fill-opacity:1;fill-rule:evenodd;stroke:black;stroke-width:2.5;stroke-linecap:round;stroke-linejoin:round;stroke-miterlimit:4;stroke-dasharray:none;stroke-opacity:1" />
      </g>
      <g
         id="g25337">
        <path
           sodipodi:nodetypes="cscccc"
           id="path24432"
           d="M 756.83448,417.72222 C 760.24086,416.16599 758.10126,413.41153 752.76848,410.68341 C 738.33336,403.29876 730.36347,397.46355 707.5777,371.68661 C 702.4218,372.413 698.60733,372.53058 690.07948,372.42827 C 688.04222,377.71068 686.6673,380.96456 684.03577,384.69289 C 702.15751,417.05433 736.1569,430.28564 756.83448,417.72222 z "
           style="fill:white;fill-opacity:1;fill-rule:evenodd;stroke:black;stroke-width:2.5;stroke-linecap:round;stroke-linejoin:round;stroke-miterlimit:4;stroke-dasharray:none;stroke-opacity:1" />
        <path
           sodipodi:nodetypes="csccc"
           id="path24434"
           d="M 713.55465,435.57463 C 717.26889,435.09539 716.0931,431.77581 711.75213,427.64821 C 700.71559,417.13852 687.46713,394.64037 682.09204,385.87699 C 674.96165,383.37446 665.42879,387.37773 662.34739,391.65788 C 677.09501,434.01526 698.95455,435.10089 713.55465,435.57463 z "
           style="fill:white;fill-opacity:1;fill-rule:evenodd;stroke:black;stroke-width:2.5;stroke-linecap:round;stroke-linejoin:round;stroke-miterlimit:4;stroke-dasharray:none;stroke-opacity:1" />
        <path
           sodipodi:nodetypes="cscccc"
           id="path24436"
           d="M 800.09551,388.49703 C 802.96915,386.09548 793.85701,383.61557 788.14212,381.82077 C 766.60231,375.05606 754.0478,367.87954 729.6147,349.68515 C 722.25739,351.41006 726.35342,350.71591 711.38165,352.40723 C 711.6282,360.57332 711.8194,363.64104 711.52342,368.9067 C 737.70277,398.39879 779.69235,413.11969 800.09551,388.49703 z "
           style="fill:white;fill-opacity:1;fill-rule:evenodd;stroke:black;stroke-width:2.5;stroke-linecap:round;stroke-linejoin:round;stroke-miterlimit:4;stroke-dasharray:none;stroke-opacity:1" />
        <path
           sodipodi:nodetypes="cscccc"
           id="path24438"
           d="M 826.26758,343.85376 C 828.04401,340.55686 824.76638,340.59847 818.77709,340.69626 C 799.74435,341.007 772.07359,335.65254 742.0758,322.83171 C 736.78421,325.36685 732.11851,325.96276 728.06195,327.2478 C 731.0676,342.28272 730.55402,342.97327 731.06413,346.55362 C 748.42547,360.78515 810.6909,380.57721 826.26758,343.85376 z "
           style="fill:white;fill-opacity:1;fill-rule:evenodd;stroke:black;stroke-width:2.5;stroke-linecap:round;stroke-linejoin:round;stroke-miterlimit:4;stroke-dasharray:none;stroke-opacity:1" />
        <path
           sodipodi:nodetypes="cscccc"
           id="path24440"
           d="M 840.07618,296.11787 C 841.48359,292.64736 838.20505,292.86878 832.28677,293.79356 C 812.45346,296.89267 785.08954,298.3382 755.19494,294.30378 C 749.51207,299.28476 745.84432,300.35151 739.71934,303.48713 C 742.26719,310.62006 742.56702,315.51486 744.33148,320.30158 C 784.48262,333.19896 825.55787,334.55673 840.07618,296.11787 z "
           style="fill:white;fill-opacity:1;fill-rule:evenodd;stroke:black;stroke-width:2.5;stroke-linecap:round;stroke-linejoin:round;stroke-miterlimit:4;stroke-dasharray:none;stroke-opacity:1" />
        <path
           sodipodi:nodetypes="cscccc"
           id="path24442"
           d="M 844.42432,253.4508 C 845.06975,248.97025 842.17686,250.03617 836.4599,251.82435 C 821.93829,256.36649 800.11118,263.68597 766.45619,262.68033 C 761.236,268.1443 755.3769,272.30649 751.62844,274.93324 C 754.93931,283.67622 754.79761,287.63496 756.52705,290.85837 C 796.83022,298.56064 841.30492,288.03607 844.42432,253.4508 z "
           style="fill:white;fill-opacity:1;fill-rule:evenodd;stroke:black;stroke-width:2.5;stroke-linecap:round;stroke-linejoin:round;stroke-miterlimit:4;stroke-dasharray:none;stroke-opacity:1" />
        <path
           sodipodi:nodetypes="cscccc"
           id="path24444"
           d="M 849.65852,201.68993 C 850.30016,198.00027 847.04431,197.63938 842.67774,201.73989 C 835.58726,208.39835 814.22162,221.63541 769.93759,230.11653 C 765.72715,234.805 763.14854,238.41095 757.30569,244.31949 C 762.93688,249.67334 765.13847,252.63012 768.31474,258.1157 C 810.15748,255.56844 846.88494,240.26939 849.65852,201.68993 z "
           style="fill:white;fill-opacity:1;fill-rule:evenodd;stroke:black;stroke-width:2.5;stroke-linecap:round;stroke-linejoin:round;stroke-miterlimit:4;stroke-dasharray:none;stroke-opacity:1" />
        <path
           sodipodi:nodetypes="cscccc"
           id="path24446"
           d="M 848.02548,157.39718 C 847.40742,152.91276 844.94248,154.44639 840.14657,158.03532 C 826.5468,168.21246 798.60097,185.10107 765.97899,193.4363 C 762.4723,200.13022 756.8678,207.32322 753.99134,210.88367 C 762.51205,217.02222 767.74117,223.33871 770.29414,225.95857 C 811.60578,215.02811 844.02088,199.59015 848.02548,157.39718 z "
           style="fill:white;fill-opacity:1;fill-rule:evenodd;stroke:black;stroke-width:2.5;stroke-linecap:round;stroke-linejoin:round;stroke-miterlimit:4;stroke-dasharray:none;stroke-opacity:1" />
        <path
           sodipodi:nodetypes="cscccc"
           id="path24448"
           d="M 847.26073,99.360636 C 846.00166,95.012452 843.2452,97.141895 839.78132,102.02889 C 827.66206,119.12731 785.55642,145.9539 758.46398,156.31 C 755.96055,163.44009 753.02692,174.9637 750.69469,178.90216 C 759.78763,184.19572 762.05239,187.66783 764.95688,189.89162 C 811.36359,170.74218 854.71447,146.43409 847.26073,99.360636 z "
           style="fill:white;fill-opacity:1;fill-rule:evenodd;stroke:black;stroke-width:2.5;stroke-linecap:round;stroke-linejoin:round;stroke-miterlimit:4;stroke-dasharray:none;stroke-opacity:1" />
        <path
           sodipodi:nodetypes="cscccc"
           id="path24450"
           d="M 837.90978,55.687124 C 836.66446,51.334975 834.17397,54.073749 830.20002,58.555813 C 812.38851,78.644723 773.24131,102.68353 744.69211,115.99288 C 744.18934,126.26221 741.90508,137.09713 740.00999,140.57861 C 749.31238,145.452 754.03253,150.0673 756.92998,152.30026 C 781.23139,137.55823 839.47885,115.75398 837.90978,55.687124 z "
           style="fill:white;fill-opacity:1;fill-rule:evenodd;stroke:black;stroke-width:2.5;stroke-linecap:round;stroke-linejoin:round;stroke-miterlimit:4;stroke-dasharray:none;stroke-opacity:1" />
      </g>
      <g
         id="g26276">
        <path
           sodipodi:nodetypes="ccccccccccc"
           id="path25349"
           d="M 524.52785,482.09745 C 511.30383,500.44776 502.28823,521.13608 493.6415,542.02933 L 523.07083,552.0345 L 548.81155,561.74797 L 571.15255,569.61505 L 601.75,571.46145 L 625.25634,565.14629 L 650.99706,555.23883 L 676.54379,539.89265 C 672.11084,524.33395 661.46875,503.80795 649.34605,482.09745 L 524.52785,482.09745 z "
           style="fill:white;fill-opacity:1;fill-rule:evenodd;stroke:black;stroke-width:2.5;stroke-linecap:round;stroke-linejoin:round;stroke-miterlimit:4;stroke-dasharray:none;stroke-opacity:1" />
        <path
           sodipodi:nodetypes="ccccc"
           id="path25351"
           d="M 676.44228,540.14088 C 689.36417,567.73766 691.36893,618.36845 687.11171,621.42259 C 685.84489,621.61401 662.28926,604.284 650.44765,555.27208 C 653.29283,550.68208 656.13802,544.91464 658.9832,538.78295 C 666.03353,539.85091 671.4435,540.0987 676.44228,540.14088 z "
           style="fill:white;fill-opacity:1;fill-rule:evenodd;stroke:black;stroke-width:2.5;stroke-linecap:round;stroke-linejoin:round;stroke-miterlimit:4;stroke-dasharray:none;stroke-opacity:1" />
        <path
           sodipodi:nodetypes="ccccc"
           id="path25353"
           d="M 650.1965,555.48915 C 665.83425,605.97672 665.51113,639.53641 662.41785,641.81459 C 659.59911,642.58798 636.04348,616.72242 625.5598,564.60666 C 628.82857,560.56303 633.03145,555.1838 636.22924,550.25142 C 642.22036,552.37859 645.73915,554.32357 650.1965,555.48915 z "
           style="fill:white;fill-opacity:1;fill-rule:evenodd;stroke:black;stroke-width:2.5;stroke-linecap:round;stroke-linejoin:round;stroke-miterlimit:4;stroke-dasharray:none;stroke-opacity:1" />
        <path
           sodipodi:nodetypes="ccccc"
           id="path25355"
           d="M 493.81018,541.76984 C 481.66425,570.53056 476.94363,630.08488 481.20085,633.13902 C 482.46767,633.33044 502.53149,613.09058 523.49062,551.66332 C 520.64544,547.07332 518.77019,544.21572 515.92501,538.08403 C 508.87468,539.15199 498.80896,541.72766 493.81018,541.76984 z "
           style="fill:white;fill-opacity:1;fill-rule:evenodd;stroke:black;stroke-width:2.5;stroke-linecap:round;stroke-linejoin:round;stroke-miterlimit:4;stroke-dasharray:none;stroke-opacity:1" />
        <path
           sodipodi:nodetypes="cccscsc"
           id="path25365"
           d="M 545.95784,561.09177 C 550.92206,560.43007 556.12532,559.16479 562.3763,558.37591 C 565.65964,562.87336 568.30916,566.10318 571.10584,569.62732 C 570.48298,581.60219 568.63053,596.8756 567.70438,606.0617 C 564.57572,637.09355 546.31508,660.35334 545.3052,659.83256 C 538.58461,656.29029 535.2898,623.9773 537.05797,607.81941 C 538.68215,592.9774 542.80395,581.28877 545.95784,561.09177 z "
           style="fill:white;fill-opacity:1;fill-rule:evenodd;stroke:black;stroke-width:2.5;stroke-linecap:round;stroke-linejoin:round;stroke-miterlimit:4;stroke-dasharray:none;stroke-opacity:1" />
        <path
           sodipodi:nodetypes="ccccc"
           id="path25357"
           d="M 523.74177,551.6864 C 498.98651,606.63573 512.11294,640.33673 513.84829,642.66759 C 516.66703,643.44098 536.88597,617.24574 547.21453,560.80391 C 543.94576,556.76028 540.32485,553.51493 537.12706,548.58255 C 531.13594,550.70972 528.19912,550.52082 523.74177,551.6864 z "
           style="fill:white;fill-opacity:1;fill-rule:evenodd;stroke:black;stroke-width:2.5;stroke-linecap:round;stroke-linejoin:round;stroke-miterlimit:4;stroke-dasharray:none;stroke-opacity:1" />
        <path
           sodipodi:nodetypes="ccccccc"
           id="path25367"
           d="M 624.95322,565.03549 C 621.23486,563.63432 617.41381,562.02774 613.15648,559.54863 C 608.66781,564.44595 605.03349,568.35243 601.63407,571.61972 L 603.28013,599.87704 C 606.31285,627.82134 625.31246,654.41499 628.79402,655.56866 C 632.752,655.36279 638.48139,612.92233 629.34271,580.67304 L 624.95322,565.03549 z "
           style="fill:white;fill-opacity:1;fill-rule:evenodd;stroke:black;stroke-width:2.5;stroke-linecap:round;stroke-linejoin:round;stroke-miterlimit:4;stroke-dasharray:none;stroke-opacity:1" />
        <path
           sodipodi:nodetypes="ccccccc"
           id="path25369"
           d="M 570.90766,569.69932 C 576.87489,567.93904 581.35846,565.68421 585.72218,563.38943 C 590.84325,566.82588 595.96432,568.93293 601.08539,571.34538 L 603.00579,600.42573 C 604.28588,627.26631 593.3234,665.45631 585.72218,667.63975 C 578.01797,663.68976 565.668,634.31541 569.35168,589.72635 L 570.90766,569.69932 z "
           style="fill:white;fill-opacity:1;fill-rule:evenodd;stroke:black;stroke-width:2.5;stroke-linecap:round;stroke-linejoin:round;stroke-miterlimit:4;stroke-dasharray:none;stroke-opacity:1" />
      </g>
      <g
         id="g30717"
         transform="translate(-2,0)">
        <path
           sodipodi:nodetypes="ccccccccccc"
           id="path28060"
           d="M 524.79109,479.033 C 506.10135,507.86579 486.74616,547.26821 469.78903,596.026 C 468.26009,580.7323 461.355,537.78356 487.94533,501.35406 C 475.57403,512.79756 460.15544,535.50152 452.79142,554.39052 C 445.73653,528.45269 451.46949,510.95153 477.70246,477.74461 C 451.51349,512.05414 441.019,512.86828 418.6269,504.88122 C 438.48394,491.60855 455.17968,479.65308 464.66129,470.7035 C 452.37567,479.40422 437.49682,491.02356 429.00649,495.60359 C 419.4957,497.98822 410.78292,496.38276 402.124,494.50807 C 441.36805,475.41764 479.13581,453.28289 501.96271,428.14404 L 524.79109,479.033 z "
           style="fill:black;fill-opacity:1;fill-rule:evenodd;stroke:black;stroke-width:5;stroke-linecap:round;stroke-linejoin:round;stroke-miterlimit:4;stroke-dasharray:none;stroke-opacity:1" />
        <path
           sodipodi:nodetypes="ccccccccccc"
           id="path26288"
           d="M 524.791,479.0326 C 506.10126,507.86539 486.74607,547.26781 469.78894,596.0256 C 468.26,580.7319 461.35491,537.78316 487.94524,501.35366 C 475.57394,512.79716 460.15535,535.50112 452.79133,554.39012 C 445.73644,528.45229 451.4694,510.95113 477.70237,477.74421 C 451.5134,512.05374 441.01891,512.86788 418.62681,504.88082 C 438.48385,491.60815 455.17959,479.65268 464.6612,470.7031 C 452.37558,479.40382 437.49673,491.02316 429.0064,495.60319 C 419.49561,497.98782 410.78283,496.38236 402.12391,494.50767 C 441.36796,475.41724 479.13572,453.28249 501.96262,428.14364 L 524.791,479.0326 z "
           style="fill:white;fill-opacity:1;fill-rule:evenodd;stroke:none;stroke-width:0;stroke-linecap:square;stroke-linejoin:round;stroke-miterlimit:4;stroke-dasharray:none;stroke-opacity:1" />
      </g>
      <g
         id="g31616">
        <path
           sodipodi:nodetypes="cccccccccc"
           id="path31614"
           d="M 674.22621,423.69143 C 726.93016,472.98048 743.29754,475.19715 771.19504,492.35057 C 729.82317,494.39371 731.63795,486.25381 705.46449,468.59646 C 713.23408,478.38725 725.99051,490.45684 746.46473,504.39033 C 736.90778,504.4185 717.32441,503.75711 687.24216,475.10444 C 734.49553,529.55821 724.38782,540.83117 722.71063,552.22394 C 707.23279,522.45145 694.64092,510.79023 683.33738,498.20775 C 698.57239,522.17295 714.24511,545.73498 706.76609,590.621 C 693.88118,558.59468 684.13414,531.47086 651.869,481.82615 L 674.22621,423.69143 z "
           style="fill:black;fill-opacity:1;fill-rule:evenodd;stroke:black;stroke-width:5;stroke-linecap:round;stroke-linejoin:round;stroke-miterlimit:4;stroke-dasharray:none;stroke-opacity:1" />
        <path
           sodipodi:nodetypes="cccccccccc"
           id="path30727"
           d="M 674.22623,423.69109 C 726.93018,472.98014 743.29756,475.19681 771.19506,492.35023 C 729.82319,494.39337 731.63797,486.25347 705.46451,468.59612 C 713.2341,478.38691 725.99053,490.4565 746.46475,504.38999 C 736.9078,504.41816 717.32443,503.75677 687.24218,475.1041 C 734.49555,529.55787 724.38784,540.83083 722.71065,552.2236 C 707.23281,522.45111 694.64094,510.78989 683.3374,498.20741 C 698.57241,522.17261 714.24513,545.73464 706.76611,590.62066 C 693.8812,558.59434 684.13416,531.47052 651.86902,481.82581 L 674.22623,423.69109 z "
           style="fill:white;fill-opacity:1;fill-rule:evenodd;stroke:none;stroke-width:1px;stroke-linecap:butt;stroke-linejoin:miter;stroke-opacity:1" />
      </g>
    </g>
    <g
       transform="matrix(0.40055,0,0,0.40055,-125.2508,-15.41559)"
       id="g14624">
      <path
         style="fill:#009739;fill-opacity:1;stroke:black;stroke-width:2;stroke-miterlimit:4;stroke-dasharray:none;stroke-opacity:1"
         d="M 493.53565,274.28321 L 493.53565,438.34159 C 496.11944,484.06174 549.38153,503.85756 587.05945,522.89096 C 624.73734,503.85756 675.21113,484.06174 677.79494,438.34159 L 677.79494,274.28321 L 493.53565,274.28321 z "
         id="path2029"
         sodipodi:nodetypes="cccccc" />
      <g
         id="g14613">
        <g
           id="g12833">
          <path
             style="fill:black;fill-opacity:1;fill-rule:evenodd;stroke:black;stroke-width:8;stroke-linecap:round;stroke-linejoin:round;stroke-miterlimit:4;stroke-dasharray:none;stroke-opacity:1"
             d="M 512.50025,305.31275 C 509.13985,316.24274 507.2183,327.52663 526.62525,337.62525 C 533.84003,315.07393 523.68054,312.12516 512.50025,305.31275 z M 534.25025,315.68775 C 535.28163,326.25805 528.89157,333.75354 530.219,344.56275 C 523.1675,336.2583 513.29651,335.92172 506.219,328.00025 C 508.4701,333.28421 512.00314,343.12239 514.4065,345.2815 C 517.98485,349.28238 528.99436,353.71757 534.9065,356.2815 L 535.469,356.50025 L 535.62525,355.9065 C 537.59012,349.76103 541.98683,338.7738 541.469,333.43775 C 541.50918,330.20722 536.61166,320.92336 534.25025,315.68775 z M 542.969,335.06275 C 543.85806,345.57224 537.41397,352.96852 538.594,363.719 C 531.69801,355.38265 521.89577,354.89418 514.969,346.93775 C 517.13685,352.21351 520.51631,362.0443 522.87525,364.219 C 526.37745,368.23761 537.25599,372.75373 543.094,375.37525 L 543.62525,375.62525 L 543.81275,375.0315 C 545.84234,368.95419 550.32129,358.08682 549.87525,352.7815 C 549.95645,349.57411 545.247,340.2919 542.969,335.06275 z M 551.68775,354.93775 C 552.27863,365.4682 545.62536,372.65814 546.50025,383.43775 C 539.84324,374.90929 530.07374,374.1498 523.37525,366.00025 C 525.39269,371.33531 528.45388,381.25956 530.75025,383.50025 C 534.13718,387.61647 544.89513,392.43309 550.6565,395.219 L 551.219,395.469 L 551.37525,394.9065 C 553.57626,388.88914 558.3895,378.15983 558.094,372.844 C 558.26605,369.64017 553.81663,360.22935 551.68775,354.93775 z M 559.5315,374.50025 C 559.7533,385.0449 552.87947,391.97791 553.37525,402.7815 C 547.04627,394.0257 537.32125,392.94131 530.93775,384.56275 C 532.76016,389.96502 535.48014,399.99322 537.68775,402.31275 C 537.83036,402.49973 538.01766,402.68479 538.18775,402.87525 C 539.69505,408.47661 541.74083,417.9592 543.75025,420.31275 C 544.11401,420.84765 544.32486,421.6048 544.88175,422.173 C 546.1558,427.53125 548.19635,437.12165 550.094,439.5315 C 550.5543,440.2684 550.17943,440.86478 550.98023,441.67125 C 551.82293,447.45507 553.84009,456.87246 555.50025,459.37525 C 557.75799,463.73938 565.83283,469.72626 571.00025,473.719 C 573.04945,485.52059 574.29479,496.79241 575.219,507.844 L 577.31275,507.594 C 576.40194,496.5254 575.16393,485.10295 573.50025,473.2815 C 577.00658,467.71574 583.22797,459.29915 583.93775,454.469 C 584.74109,451.36644 582.30829,441.23836 581.31275,435.62525 C 579.78528,446.05712 571.96025,451.76686 570.6565,462.50025 C 566.36333,453.65699 555.95382,448.434 550.90421,440.88947 C 554.98576,444.53825 563.66537,450.60918 567.50025,453.12525 L 567.969,453.43775 L 568.219,452.9065 C 571.00935,447.41331 576.83864,437.71485 577.18775,432.594 C 577.72891,429.54958 574.60464,420.0361 573.219,414.719 C 572.5326,424.86384 565.41652,430.92677 564.969,441.344 C 559.72835,432.45599 550.25388,430.01747 544.8735,421.58399 C 548.94346,425.6679 557.72752,430.91703 562.50025,433.7815 L 563.0315,434.094 L 563.25025,433.5315 C 565.99759,427.73506 571.77317,417.47754 571.969,412.1565 C 572.43582,408.98087 568.01737,399.21117 566.38474,393.75025 C 566.00227,404.29154 559.56029,410.84167 559.43775,421.6565 C 554.05824,413.28996 545.45591,411.22609 539.50025,404.1565 C 543.83965,407.96706 552.25718,412.15749 557.094,414.719 L 557.62525,415.00025 L 557.81275,414.43775 C 560.2128,408.50097 565.39069,397.94816 565.2815,392.62525 C 565.56416,389.42939 561.46631,379.86298 559.5315,374.50025 z "
             id="path11946"
             sodipodi:nodetypes="ccccccccccccccccccccccccccccccccccccccccccccccccccccccccccccccccccc" />
          <path
             style="fill:#fedd00;fill-opacity:1;fill-rule:evenodd;stroke:none;stroke-width:1px;stroke-linecap:butt;stroke-linejoin:miter;stroke-opacity:1"
             d="M 512.5,305.3125 C 509.1396,316.24249 507.21805,327.52638 526.625,337.625 C 533.83978,315.07368 523.68029,312.12491 512.5,305.3125 z M 534.25,315.6875 C 535.28138,326.2578 528.89132,333.75329 530.21875,344.5625 C 523.16725,336.25805 513.29626,335.92147 506.21875,328 C 508.46985,333.28396 512.00289,343.12214 514.40625,345.28125 C 517.9846,349.28213 528.99411,353.71732 534.90625,356.28125 L 535.46875,356.5 L 535.625,355.90625 C 537.58987,349.76078 541.98658,338.77355 541.46875,333.4375 C 541.50893,330.20697 536.61141,320.92311 534.25,315.6875 z M 542.96875,335.0625 C 543.85781,345.57199 537.41372,352.96827 538.59375,363.71875 C 531.69776,355.3824 521.89552,354.89393 514.96875,346.9375 C 517.1366,352.21326 520.51606,362.04405 522.875,364.21875 C 526.3772,368.23736 537.25574,372.75348 543.09375,375.375 L 543.625,375.625 L 543.8125,375.03125 C 545.84209,368.95394 550.32104,358.08657 549.875,352.78125 C 549.9562,349.57386 545.24675,340.29165 542.96875,335.0625 z M 551.6875,354.9375 C 552.27838,365.46795 545.62511,372.65789 546.5,383.4375 C 539.84299,374.90904 530.07349,374.14955 523.375,366 C 525.39244,371.33506 528.45363,381.25931 530.75,383.5 C 534.13693,387.61622 544.89488,392.43284 550.65625,395.21875 L 551.21875,395.46875 L 551.375,394.90625 C 553.57601,388.88889 558.38925,378.15958 558.09375,372.84375 C 558.2658,369.63992 553.81638,360.2291 551.6875,354.9375 z M 559.53125,374.5 C 559.75305,385.04465 552.87922,391.97766 553.375,402.78125 C 547.04602,394.02545 537.321,392.94106 530.9375,384.5625 C 532.75991,389.96477 535.47989,399.99297 537.6875,402.3125 C 537.83011,402.49948 538.01741,402.68454 538.1875,402.875 C 539.6948,408.47636 541.74058,417.95895 543.75,420.3125 C 544.11376,420.8474 544.32461,421.60455 544.8815,422.17275 C 546.15555,427.531 548.1961,437.1214 550.09375,439.53125 C 550.55405,440.26815 550.17918,440.86453 550.97998,441.671 C 551.82268,447.45482 553.83984,456.87221 555.5,459.375 C 557.75774,463.73913 565.83258,469.72601 571,473.71875 C 573.0492,485.52034 574.29454,496.79216 575.21875,507.84375 L 577.3125,507.59375 C 576.40169,496.52515 575.16368,485.1027 573.5,473.28125 C 577.00633,467.71549 583.22772,459.2989 583.9375,454.46875 C 584.74084,451.36619 582.30804,441.23811 581.3125,435.625 C 579.78503,446.05687 571.96,451.76661 570.65625,462.5 C 566.36308,453.65674 555.95357,448.43375 550.90396,440.88922 C 554.98551,444.538 563.66512,450.60893 567.5,453.125 L 567.96875,453.4375 L 568.21875,452.90625 C 571.0091,447.41306 576.83839,437.7146 577.1875,432.59375 C 577.72866,429.54933 574.60439,420.03585 573.21875,414.71875 C 572.53235,424.86359 565.41627,430.92652 564.96875,441.34375 C 559.7281,432.45574 550.25363,430.01722 544.87325,421.58374 C 548.94321,425.66765 557.72727,430.91678 562.5,433.78125 L 563.03125,434.09375 L 563.25,433.53125 C 565.99734,427.73481 571.77292,417.47729 571.96875,412.15625 C 572.43557,408.98062 568.01712,399.21092 566.38449,393.75 C 566.00202,404.29129 559.56004,410.84142 559.4375,421.65625 C 554.05799,413.28971 545.45566,411.22584 539.5,404.15625 C 543.8394,407.96681 552.25693,412.15724 557.09375,414.71875 L 557.625,415 L 557.8125,414.4375 C 560.21255,408.50072 565.39044,397.94791 565.28125,392.625 C 565.56391,389.42914 561.46606,379.86273 559.53125,374.5 z "
             id="path9278"
             sodipodi:nodetypes="ccccccccccccccccccccccccccccccccccccccccccccccccccccccccccccccccccc" />
        </g>
        <g
           transform="matrix(-1,0,0,1,1176.316,-2.5e-4)"
           id="g12837">
          <path
             style="fill:black;fill-opacity:1;fill-rule:evenodd;stroke:black;stroke-width:8;stroke-linecap:round;stroke-linejoin:round;stroke-miterlimit:4;stroke-dasharray:none;stroke-opacity:1"
             d="M 512.50025,305.31275 C 509.13985,316.24274 507.2183,327.52663 526.62525,337.62525 C 533.84003,315.07393 523.68054,312.12516 512.50025,305.31275 z M 534.25025,315.68775 C 535.28163,326.25805 528.89157,333.75354 530.219,344.56275 C 523.1675,336.2583 513.29651,335.92172 506.219,328.00025 C 508.4701,333.28421 512.00314,343.12239 514.4065,345.2815 C 517.98485,349.28238 528.99436,353.71757 534.9065,356.2815 L 535.469,356.50025 L 535.62525,355.9065 C 537.59012,349.76103 541.98683,338.7738 541.469,333.43775 C 541.50918,330.20722 536.61166,320.92336 534.25025,315.68775 z M 542.969,335.06275 C 543.85806,345.57224 537.41397,352.96852 538.594,363.719 C 531.69801,355.38265 521.89577,354.89418 514.969,346.93775 C 517.13685,352.21351 520.51631,362.0443 522.87525,364.219 C 526.37745,368.23761 537.25599,372.75373 543.094,375.37525 L 543.62525,375.62525 L 543.81275,375.0315 C 545.84234,368.95419 550.32129,358.08682 549.87525,352.7815 C 549.95645,349.57411 545.247,340.2919 542.969,335.06275 z M 551.68775,354.93775 C 552.27863,365.4682 545.62536,372.65814 546.50025,383.43775 C 539.84324,374.90929 530.07374,374.1498 523.37525,366.00025 C 525.39269,371.33531 528.45388,381.25956 530.75025,383.50025 C 534.13718,387.61647 544.89513,392.43309 550.6565,395.219 L 551.219,395.469 L 551.37525,394.9065 C 553.57626,388.88914 558.3895,378.15983 558.094,372.844 C 558.26605,369.64017 553.81663,360.22935 551.68775,354.93775 z M 559.5315,374.50025 C 559.7533,385.0449 552.87947,391.97791 553.37525,402.7815 C 547.04627,394.0257 537.32125,392.94131 530.93775,384.56275 C 532.76016,389.96502 535.48014,399.99322 537.68775,402.31275 C 537.83036,402.49973 538.01766,402.68479 538.18775,402.87525 C 539.69505,408.47661 541.74083,417.9592 543.75025,420.31275 C 544.11401,420.84765 544.32486,421.6048 544.88175,422.173 C 546.1558,427.53125 548.19635,437.12165 550.094,439.5315 C 550.5543,440.2684 550.17943,440.86478 550.98023,441.67125 C 551.82293,447.45507 553.84009,456.87246 555.50025,459.37525 C 557.75799,463.73938 565.83283,469.72626 571.00025,473.719 C 573.04945,485.52059 574.29479,496.79241 575.219,507.844 L 577.31275,507.594 C 576.40194,496.5254 575.16393,485.10295 573.50025,473.2815 C 577.00658,467.71574 583.22797,459.29915 583.93775,454.469 C 584.74109,451.36644 582.30829,441.23836 581.31275,435.62525 C 579.78528,446.05712 571.96025,451.76686 570.6565,462.50025 C 566.36333,453.65699 555.95382,448.434 550.90421,440.88947 C 554.98576,444.53825 563.66537,450.60918 567.50025,453.12525 L 567.969,453.43775 L 568.219,452.9065 C 571.00935,447.41331 576.83864,437.71485 577.18775,432.594 C 577.72891,429.54958 574.60464,420.0361 573.219,414.719 C 572.5326,424.86384 565.41652,430.92677 564.969,441.344 C 559.72835,432.45599 550.25388,430.01747 544.8735,421.58399 C 548.94346,425.6679 557.72752,430.91703 562.50025,433.7815 L 563.0315,434.094 L 563.25025,433.5315 C 565.99759,427.73506 571.77317,417.47754 571.969,412.1565 C 572.43582,408.98087 568.01737,399.21117 566.38474,393.75025 C 566.00227,404.29154 559.56029,410.84167 559.43775,421.6565 C 554.05824,413.28996 545.45591,411.22609 539.50025,404.1565 C 543.83965,407.96706 552.25718,412.15749 557.094,414.719 L 557.62525,415.00025 L 557.81275,414.43775 C 560.2128,408.50097 565.39069,397.94816 565.2815,392.62525 C 565.56416,389.42939 561.46631,379.86298 559.5315,374.50025 z "
             id="path12839"
             sodipodi:nodetypes="ccccccccccccccccccccccccccccccccccccccccccccccccccccccccccccccccccc" />
          <path
             style="fill:#fedd00;fill-opacity:1;fill-rule:evenodd;stroke:none;stroke-width:1px;stroke-linecap:butt;stroke-linejoin:miter;stroke-opacity:1"
             d="M 512.5,305.3125 C 509.1396,316.24249 507.21805,327.52638 526.625,337.625 C 533.83978,315.07368 523.68029,312.12491 512.5,305.3125 z M 534.25,315.6875 C 535.28138,326.2578 528.89132,333.75329 530.21875,344.5625 C 523.16725,336.25805 513.29626,335.92147 506.21875,328 C 508.46985,333.28396 512.00289,343.12214 514.40625,345.28125 C 517.9846,349.28213 528.99411,353.71732 534.90625,356.28125 L 535.46875,356.5 L 535.625,355.90625 C 537.58987,349.76078 541.98658,338.77355 541.46875,333.4375 C 541.50893,330.20697 536.61141,320.92311 534.25,315.6875 z M 542.96875,335.0625 C 543.85781,345.57199 537.41372,352.96827 538.59375,363.71875 C 531.69776,355.3824 521.89552,354.89393 514.96875,346.9375 C 517.1366,352.21326 520.51606,362.04405 522.875,364.21875 C 526.3772,368.23736 537.25574,372.75348 543.09375,375.375 L 543.625,375.625 L 543.8125,375.03125 C 545.84209,368.95394 550.32104,358.08657 549.875,352.78125 C 549.9562,349.57386 545.24675,340.29165 542.96875,335.0625 z M 551.6875,354.9375 C 552.27838,365.46795 545.62511,372.65789 546.5,383.4375 C 539.84299,374.90904 530.07349,374.14955 523.375,366 C 525.39244,371.33506 528.45363,381.25931 530.75,383.5 C 534.13693,387.61622 544.89488,392.43284 550.65625,395.21875 L 551.21875,395.46875 L 551.375,394.90625 C 553.57601,388.88889 558.38925,378.15958 558.09375,372.84375 C 558.2658,369.63992 553.81638,360.2291 551.6875,354.9375 z M 559.53125,374.5 C 559.75305,385.04465 552.87922,391.97766 553.375,402.78125 C 547.04602,394.02545 537.321,392.94106 530.9375,384.5625 C 532.75991,389.96477 535.47989,399.99297 537.6875,402.3125 C 537.83011,402.49948 538.01741,402.68454 538.1875,402.875 C 539.6948,408.47636 541.74058,417.95895 543.75,420.3125 C 544.11376,420.8474 544.32461,421.60455 544.8815,422.17275 C 546.15555,427.531 548.1961,437.1214 550.09375,439.53125 C 550.55405,440.26815 550.17918,440.86453 550.97998,441.671 C 551.82268,447.45482 553.83984,456.87221 555.5,459.375 C 557.75774,463.73913 565.83258,469.72601 571,473.71875 C 573.0492,485.52034 574.29454,496.79216 575.21875,507.84375 L 577.3125,507.59375 C 576.40169,496.52515 575.16368,485.1027 573.5,473.28125 C 577.00633,467.71549 583.22772,459.2989 583.9375,454.46875 C 584.74084,451.36619 582.30804,441.23811 581.3125,435.625 C 579.78503,446.05687 571.96,451.76661 570.65625,462.5 C 566.36308,453.65674 555.95357,448.43375 550.90396,440.88922 C 554.98551,444.538 563.66512,450.60893 567.5,453.125 L 567.96875,453.4375 L 568.21875,452.90625 C 571.0091,447.41306 576.83839,437.7146 577.1875,432.59375 C 577.72866,429.54933 574.60439,420.03585 573.21875,414.71875 C 572.53235,424.86359 565.41627,430.92652 564.96875,441.34375 C 559.7281,432.45574 550.25363,430.01722 544.87325,421.58374 C 548.94321,425.66765 557.72727,430.91678 562.5,433.78125 L 563.03125,434.09375 L 563.25,433.53125 C 565.99734,427.73481 571.77292,417.47729 571.96875,412.15625 C 572.43557,408.98062 568.01712,399.21092 566.38449,393.75 C 566.00202,404.29129 559.56004,410.84142 559.4375,421.65625 C 554.05799,413.28971 545.45566,411.22584 539.5,404.15625 C 543.8394,407.96681 552.25693,412.15724 557.09375,414.71875 L 557.625,415 L 557.8125,414.4375 C 560.21255,408.50072 565.39044,397.94791 565.28125,392.625 C 565.56391,389.42914 561.46606,379.86273 559.53125,374.5 z "
             id="path12841"
             sodipodi:nodetypes="ccccccccccccccccccccccccccccccccccccccccccccccccccccccccccccccccccc" />
        </g>
        <g
           id="g9223">
          <path
             style="fill:black;fill-opacity:1;fill-rule:evenodd;stroke:black;stroke-width:8;stroke-linecap:butt;stroke-linejoin:round;stroke-miterlimit:4;stroke-dasharray:none;stroke-opacity:1"
             d="M 587.43701,287.03125 C 573.78104,304.12296 580.09506,313.64794 587.59326,322.28125 C 595.0577,311.52532 603.16501,304.72999 587.43701,287.03125 z M 572.84326,307 C 572.78346,312.70346 572.0497,323.07787 573.37451,326 C 575.03351,331.06578 583.30115,339.46668 587.65576,344.15625 L 588.06201,344.59375 L 588.43701,344.125 C 592.67476,339.31931 601.06128,331.05962 602.71826,326 C 604.0431,323.07786 603.30931,312.70347 603.24951,307 C 599.97223,317.02491 591.16529,321.29598 588.06201,331.65625 C 584.96043,321.29138 576.12124,317.02696 572.84326,307 z M 572.84326,328.3125 C 572.78346,334.01598 572.0497,344.39037 573.37451,347.3125 C 575.03351,352.3783 583.30115,360.77918 587.65576,365.46875 L 588.06201,365.90625 L 588.43701,365.4375 C 592.67476,360.63183 601.06128,352.37212 602.71826,347.3125 C 604.0431,344.39038 603.30931,334.01597 603.24951,328.3125 C 599.97223,338.33743 591.16529,342.60848 588.06201,352.96875 C 584.96043,342.6039 576.12124,338.33946 572.84326,328.3125 z M 572.84326,349.59375 C 572.78346,355.29721 572.0497,365.67162 573.37451,368.59375 C 575.03351,373.65953 583.30115,382.06043 587.65576,386.75 L 588.06201,387.1875 L 588.43701,386.71875 C 592.67476,381.91306 601.06128,373.65337 602.71826,368.59375 C 604.0431,365.67161 603.30931,355.29722 603.24951,349.59375 C 599.97223,359.61866 591.16529,363.88973 588.06201,374.25 C 584.96043,363.88513 576.12124,359.62071 572.84326,349.59375 z M 572.84326,370.90625 C 572.78346,376.60972 572.0497,386.98412 573.37451,389.90625 C 575.03351,394.97204 583.30115,403.37293 587.65576,408.0625 L 588.06201,408.5 L 588.43701,408.03125 C 592.67476,403.22557 601.06128,394.96587 602.71826,389.90625 C 604.0431,386.98412 603.30931,376.60972 603.24951,370.90625 C 599.97223,380.93117 591.16529,385.20223 588.06201,395.5625 C 584.96043,385.19764 576.12124,380.93321 572.84326,370.90625 z M 572.84326,392.21875 C 572.78346,397.92223 572.0497,408.29662 573.37451,411.21875 C 575.03351,416.28455 583.30115,424.68543 587.65576,429.375 L 588.06201,429.8125 L 588.43701,429.34375 C 592.67476,424.53808 601.06128,416.27837 602.71826,411.21875 C 604.0431,408.29663 603.30931,397.92222 603.24951,392.21875 C 599.97223,402.24368 591.16529,406.51473 588.06201,416.875 C 584.96043,406.51015 576.12124,402.24571 572.84326,392.21875 z M 572.84326,413.5 C 572.78346,419.20346 572.0497,429.57787 573.37451,432.5 C 575.03351,437.56578 583.30115,445.96668 587.65576,450.65625 L 588.06201,451.09375 L 588.43701,450.625 C 592.67476,445.81931 601.06128,437.55962 602.71826,432.5 C 604.0431,429.57786 603.30931,419.20347 603.24951,413.5 C 599.97223,423.52491 591.16529,427.79598 588.06201,438.15625 C 584.96043,427.79138 576.12124,423.52696 572.84326,413.5 z M 572.84326,434.8125 C 572.78346,440.51598 572.0497,450.89037 573.37451,453.8125 C 574.90943,458.49942 581.9835,465.93401 586.49951,470.75 L 586.49951,507.65625 L 589.68701,507.65625 L 589.68701,470.5625 C 594.13548,465.67195 601.19828,458.4538 602.71826,453.8125 C 604.0431,450.89038 603.30931,440.51597 603.24951,434.8125 C 599.97223,444.83743 591.16529,449.10848 588.06201,459.46875 C 584.96043,449.1039 576.12124,444.83946 572.84326,434.8125 z "
             id="path3839" />
          <path
             style="fill:#fedd00;fill-opacity:1;fill-rule:evenodd;stroke:none;stroke-width:1px;stroke-linecap:butt;stroke-linejoin:miter;stroke-opacity:1"
             d="M 587.4375,287.03125 C 573.78153,304.12296 580.09555,313.64794 587.59375,322.28125 C 595.05819,311.52532 603.1655,304.72999 587.4375,287.03125 z M 572.84375,307 C 572.78395,312.70346 572.05019,323.07787 573.375,326 C 575.034,331.06578 583.30164,339.46668 587.65625,344.15625 L 588.0625,344.59375 L 588.4375,344.125 C 592.67525,339.31931 601.06177,331.05962 602.71875,326 C 604.04359,323.07786 603.3098,312.70347 603.25,307 C 599.97272,317.02491 591.16578,321.29598 588.0625,331.65625 C 584.96092,321.29138 576.12173,317.02696 572.84375,307 z M 572.84375,328.3125 C 572.78395,334.01598 572.05019,344.39037 573.375,347.3125 C 575.034,352.3783 583.30164,360.77918 587.65625,365.46875 L 588.0625,365.90625 L 588.4375,365.4375 C 592.67525,360.63183 601.06177,352.37212 602.71875,347.3125 C 604.04359,344.39038 603.3098,334.01597 603.25,328.3125 C 599.97272,338.33743 591.16578,342.60848 588.0625,352.96875 C 584.96092,342.6039 576.12173,338.33946 572.84375,328.3125 z M 572.84375,349.59375 C 572.78395,355.29721 572.05019,365.67162 573.375,368.59375 C 575.034,373.65953 583.30164,382.06043 587.65625,386.75 L 588.0625,387.1875 L 588.4375,386.71875 C 592.67525,381.91306 601.06177,373.65337 602.71875,368.59375 C 604.04359,365.67161 603.3098,355.29722 603.25,349.59375 C 599.97272,359.61866 591.16578,363.88973 588.0625,374.25 C 584.96092,363.88513 576.12173,359.62071 572.84375,349.59375 z M 572.84375,370.90625 C 572.78395,376.60972 572.05019,386.98412 573.375,389.90625 C 575.034,394.97204 583.30164,403.37293 587.65625,408.0625 L 588.0625,408.5 L 588.4375,408.03125 C 592.67525,403.22557 601.06177,394.96587 602.71875,389.90625 C 604.04359,386.98412 603.3098,376.60972 603.25,370.90625 C 599.97272,380.93117 591.16578,385.20223 588.0625,395.5625 C 584.96092,385.19764 576.12173,380.93321 572.84375,370.90625 z M 572.84375,392.21875 C 572.78395,397.92223 572.05019,408.29662 573.375,411.21875 C 575.034,416.28455 583.30164,424.68543 587.65625,429.375 L 588.0625,429.8125 L 588.4375,429.34375 C 592.67525,424.53808 601.06177,416.27837 602.71875,411.21875 C 604.04359,408.29663 603.3098,397.92222 603.25,392.21875 C 599.97272,402.24368 591.16578,406.51473 588.0625,416.875 C 584.96092,406.51015 576.12173,402.24571 572.84375,392.21875 z M 572.84375,413.5 C 572.78395,419.20346 572.05019,429.57787 573.375,432.5 C 575.034,437.56578 583.30164,445.96668 587.65625,450.65625 L 588.0625,451.09375 L 588.4375,450.625 C 592.67525,445.81931 601.06177,437.55962 602.71875,432.5 C 604.04359,429.57786 603.3098,419.20347 603.25,413.5 C 599.97272,423.52491 591.16578,427.79598 588.0625,438.15625 C 584.96092,427.79138 576.12173,423.52696 572.84375,413.5 z M 572.84375,434.8125 C 572.78395,440.51598 572.05019,450.89037 573.375,453.8125 C 574.90992,458.49942 581.98399,465.93401 586.5,470.75 L 586.5,507.65625 L 589.6875,507.65625 L 589.6875,470.5625 C 594.13597,465.67195 601.19877,458.4538 602.71875,453.8125 C 604.04359,450.89038 603.3098,440.51597 603.25,434.8125 C 599.97272,444.83743 591.16578,449.10848 588.0625,459.46875 C 584.96092,449.1039 576.12173,444.83946 572.84375,434.8125 z "
             id="path2045" />
        </g>
      </g>
    </g>
    <path
       sodipodi:nodetypes="cccccc"
       id="path3050"
       d="M 0.49798456,0.49835494 L 0.49798456,195.05852 C 3.5689856,249.27896 65.217306,258.92991 109.99986,281.50202 C 154.7824,258.92991 216.43072,249.27896 219.50173,195.05852 L 219.50173,0.49835494 L 0.49798456,0.49835494 z "
       style="fill:none;fill-opacity:1;stroke:black;stroke-width:0.99596912;stroke-opacity:1" />
  </g>
</svg>
