<?xml version="1.0" encoding="UTF-8" standalone="no"?>
<!-- Created with Inkscape (http://www.inkscape.org/) -->
<svg xmlns="http://www.w3.org/2000/svg" height="400" width="600" version="1.1">
<rect height="400" width="162" y="0" x="0" fill="#FFF"/>
<rect height="400" width="438" y="0" x="162" fill="#2e3192"/>
<path d="M55.78,295c-25.11,0-39.78,5.5-55.78,10.7v52.5c16-5.2,30.67-10.7,55.78-10.7,46.22,0,56.92,18.6,106.2,19.4v-52.5c-49.3-0.8-60-19.4-106.2-19.4z" fill="#2e3192"/>
<path d="M379.5,23.5,367.5,35.5,367.5,95.03,338,65.5,321,65.5,321,82.47,370.5,132,370.5,251.5,348,229,348,159.8,336,147.8,324,159.8,324,201.5,281.9,159.4,264.9,159.4,264.9,176.4,307,218.5,265.3,218.5,253.3,230.5,265.3,242.5,336,242.5,379.5,286,423,242.5,490.7,242.5,502.7,230.5,490.7,218.5,449,218.5,491.1,176.4,491.1,159.4,474.1,159.4,432,201.5,432,159.8,420,147.8,408,159.8,408,232,388.5,251.5,388.5,132,438,82.47,438,65.5,421,65.5,391.5,95.03,391.5,35.5,379.5,23.5z" fill="#fff200"/>
<path d="M274.6,295c-47.2,0-57.3,19.5-109.4,19.5-1.1,0-2.1-0.1-3.2-0.1v52.5c1.1,0,2.1,0.1,3.2,0.1,52.1,0,62.2-19.5,109.4-19.5s57.3,19.5,109.4,19.5,62.2-19.5,109.4-19.5c46.3,0,57,18.7,106.6,19.4v-52.5c-49.6-0.7-60.3-19.4-106.6-19.4-47.2,0-57.3,19.5-109.4,19.5s-62.2-19.5-109.4-19.5z" fill="#FFF"/>
</svg>
