<?xml version="1.0" encoding="UTF-8" standalone="no"?>
<!-- Created with Inkscape (http://www.inkscape.org/) -->

<svg
   xmlns:dc="http://purl.org/dc/elements/1.1/"
   xmlns:cc="http://creativecommons.org/ns#"
   xmlns:rdf="http://www.w3.org/1999/02/22-rdf-syntax-ns#"
   xmlns:svg="http://www.w3.org/2000/svg"
   xmlns="http://www.w3.org/2000/svg"
   xmlns:sodipodi="http://sodipodi.sourceforge.net/DTD/sodipodi-0.dtd"
   xmlns:inkscape="http://www.inkscape.org/namespaces/inkscape"
   id="svg2010"
   sodipodi:version="0.32"
   inkscape:version="0.92.4 (5da689c313, 2019-01-14)"
   width="471.42999"
   height="300"
   version="1.0"
   sodipodi:docname="Võrumaa_lipp.svg">
  <metadata
     id="metadata2015">
    <rdf:RDF>
      <cc:Work
         rdf:about="">
        <dc:format>image/svg+xml</dc:format>
        <dc:type
           rdf:resource="http://purl.org/dc/dcmitype/StillImage" />
      </cc:Work>
    </rdf:RDF>
  </metadata>
  <defs
     id="defs2013" />
  <sodipodi:namedview
     inkscape:window-height="1017"
     inkscape:window-width="1920"
     inkscape:pageshadow="2"
     inkscape:pageopacity="0.0"
     guidetolerance="10.0"
     gridtolerance="10.0"
     objecttolerance="10.0"
     borderopacity="1.0"
     bordercolor="#666666"
     pagecolor="#ffffff"
     id="base"
     width="471.43px"
     height="300px"
     inkscape:zoom="1.2067956"
     inkscape:cx="232.96892"
     inkscape:cy="276.60587"
     inkscape:window-x="-8"
     inkscape:window-y="-8"
     inkscape:current-layer="svg2010"
     showguides="true"
     inkscape:guide-bbox="true"
     showgrid="false"
     inkscape:window-maximized="1" />
  <g
     id="g6777"
     transform="matrix(1.000908,0,0,1,0,1.360217e-4)">
    <rect
       id="green Stripe"
       style="fill:#009739;fill-opacity:1"
       y="150.00002"
       x="1.941763e-006"
       height="150.00003"
       width="471.00012" />
    <rect
       id="white Stripe"
       style="fill:white"
       y="-1.9999999e-005"
       x="1.941763e-006"
       height="150.00003"
       width="471.00012" />
  </g>
  <g
     id="g19422"
     transform="matrix(0.425532,0,0,0.425532,188.906,14.99985)">
    <path
       sodipodi:nodetypes="cccccc"
       id="path17638"
       d="M 0.49798456,0.49835344 L 0.49798456,195.05852 C 3.5689846,249.27896 65.217303,258.92991 109.99985,281.50202 C 154.78239,258.92991 216.43071,249.27896 219.50172,195.05852 L 219.50172,0.49835344 L 0.49798456,0.49835344 z "
       style="fill:#0072ce;fill-opacity:1;stroke:none;stroke-width:0.99596912;stroke-opacity:1" />
    <path
       sodipodi:nodetypes="cccccc"
       id="path14126"
       d="M 0.49798456,0.49835844 L 0.49798456,195.05852 C 3.5689846,249.27896 65.217305,258.92991 109.99985,281.50202 C 154.78239,258.92991 216.43071,249.27896 219.50172,195.05852 L 219.50172,0.49835844 L 0.49798456,0.49835844 z "
       style="fill:none;fill-opacity:1;stroke:black;stroke-width:0.99596912;stroke-opacity:1" />
    <g
       id="g19410">
      <g
         id="g15797"
         transform="matrix(1.028637,0,0,1.028637,-4.673838,-9.81371)"
         style="fill:white;fill-opacity:1;stroke:#323232;stroke-width:0.97216028;stroke-miterlimit:4;stroke-dasharray:none;stroke-opacity:1">
        <path
           sodipodi:nodetypes="ccscsc"
           id="path14022"
           d="M 92.298496,194.40651 L 113.15297,207.57776 L 198.04555,71.614773 C 204.66187,61.018152 208.11463,53.279715 207.09933,34.998711 C 190.39681,42.193336 184.46093,50.00069 177.86871,60.329793 L 92.298496,194.40651 z "
           style="fill:white;fill-opacity:1;fill-rule:evenodd;stroke:#323232;stroke-width:0.97216028;stroke-linecap:square;stroke-linejoin:miter;stroke-miterlimit:4;stroke-dasharray:none;stroke-opacity:1" />
        <path
           sodipodi:nodetypes="cc"
           id="path14024"
           d="M 198.37587,49.306946 L 103.06642,201.25075"
           style="fill:white;fill-opacity:1;fill-rule:evenodd;stroke:#323232;stroke-width:0.97216028;stroke-linecap:round;stroke-linejoin:miter;stroke-miterlimit:4;stroke-dasharray:none;stroke-opacity:1" />
      </g>
      <g
         id="g13130"
         style="fill:yellow;fill-opacity:1;stroke:#323232;stroke-width:0.97216028;stroke-linecap:round;stroke-linejoin:bevel;stroke-miterlimit:4;stroke-dasharray:none;stroke-opacity:1"
         transform="matrix(1.028637,0,0,1.028637,-4.673838,-9.81371)">
        <path
           sodipodi:nodetypes="ccccc"
           id="path13128"
           d="M 70.096966,240.10674 L 80.075182,247.29105 C 95.351225,237.95172 97.038606,226.48205 102.97519,214.26317 L 90.901546,206.62983 C 82.024739,217.29635 72.613128,221.79498 70.096966,240.10674 z "
           style="fill:#fedd00;fill-opacity:1;fill-rule:evenodd;stroke:#323232;stroke-width:0.97216028;stroke-linecap:round;stroke-linejoin:bevel;stroke-miterlimit:4;stroke-dasharray:none;stroke-opacity:1" />
        <g
           id="g10467"
           style="fill:yellow;fill-opacity:1;stroke:#323232;stroke-width:0.97216028;stroke-linecap:round;stroke-linejoin:bevel;stroke-miterlimit:4;stroke-dasharray:none;stroke-opacity:1">
          <path
             transform="matrix(0.846928,0.531707,-0.531707,0.846928,0,0)"
             style="fill:#fedd00;fill-opacity:1;stroke:#323232;stroke-width:0.97216058;stroke-linecap:round;stroke-linejoin:bevel;stroke-miterlimit:4;stroke-dasharray:none;stroke-opacity:1"
             d="M 181.87237,121.29288 L 206.21486,121.34994 L 206.29829,127.59534 L 181.99162,127.59534 L 181.87237,121.29288 z "
             id="rect9571"
             sodipodi:nodetypes="ccccc" />
          <path
             transform="matrix(0.846928,0.531707,-0.531707,0.846928,0,0)"
             style="fill:#fedd00;fill-opacity:1;stroke:#323232;stroke-width:0.97216058;stroke-linecap:round;stroke-linejoin:bevel;stroke-miterlimit:4;stroke-dasharray:none;stroke-opacity:1"
             d="M 169.18413,114.37282 L 219.38574,114.37282 L 219.38574,122.28637 L 169.18413,122.28637 L 169.18413,114.37282 z "
             id="rect7799" />
        </g>
        <path
           sodipodi:nodetypes="ccc"
           id="path10471"
           d="M 67.579048,236.71551 L 84.019015,247.8327 C 79.818628,260.08059 57.448731,247.63367 67.579048,236.71551 z "
           style="fill:#fedd00;fill-opacity:1;fill-rule:evenodd;stroke:#323232;stroke-width:0.97216028;stroke-linecap:round;stroke-linejoin:bevel;stroke-miterlimit:4;stroke-dasharray:none;stroke-opacity:1" />
      </g>
      <path
         style="fill:#fedd00;fill-opacity:1;fill-rule:nonzero;stroke:#323232;stroke-width:0.5;stroke-miterlimit:4;stroke-dasharray:none;stroke-opacity:1"
         d="M 79.335498,15.685536 C 46.908428,15.685536 20.43495,42.164401 20.43495,74.809286 C 20.43495,107.45417 46.908429,133.93304 79.335498,133.93304 C 111.76256,133.93304 138.23605,107.45417 138.23605,74.809286 C 138.23605,42.164401 111.76256,15.685536 79.335498,15.685536 z M 79.335498,22.731178 C 108.14285,22.731178 131.37279,46.060079 131.37279,74.809286 C 131.37279,103.55849 108.14285,126.92467 79.335498,126.92467 C 50.528139,126.92467 27.298207,103.55849 27.298207,74.809286 C 27.298207,46.060079 50.528139,22.731178 79.335498,22.731178 z "
         id="path15816" />
    </g>
  </g>
</svg>
