<?xml version="1.0" encoding="UTF-8" standalone="no"?>
<svg
   xmlns:dc="http://purl.org/dc/elements/1.1/"
   xmlns:cc="http://creativecommons.org/ns#"
   xmlns:rdf="http://www.w3.org/1999/02/22-rdf-syntax-ns#"
   xmlns:svg="http://www.w3.org/2000/svg"
   xmlns="http://www.w3.org/2000/svg"
   viewBox="0 0 299.99997 190.66925"
   height="190.66925"
   width="300"
   version="1.1"
   id="svg2">
  <metadata
     id="metadata8">
    <rdf:RDF>
      <cc:Work
         rdf:about="">
        <dc:format>image/svg+xml</dc:format>
        <dc:type
           rdf:resource="http://purl.org/dc/dcmitype/StillImage" />
        <dc:title></dc:title>
      </cc:Work>
    </rdf:RDF>
  </metadata>
  <defs
     id="defs6" />
  <g
     transform="matrix(1.0030346,0,0,1.0030346,-1.3345652e-5,0)"
     id="g5579">
    <rect
       y="0"
       x="-1.9073486e-006"
       height="190.09239"
       width="299.09238"
       id="rect5530"
       style="opacity:1;fill:#0375ac;fill-opacity:1;fill-rule:evenodd;stroke:none;stroke-width:0.90760648;stroke-linecap:round;stroke-linejoin:miter;stroke-miterlimit:4;stroke-dasharray:none;stroke-opacity:1" />
    <path
       id="path5514-0"
       d="m 140.25033,47.844025 0.25195,5.681641 a 42.118958,42.118958 0 0 0 -30.98437,31.164062 l -5.89258,-0.220703 0,20.187495 5.94727,-0.31054 a 42.118958,42.118958 0 0 0 30.95703,30.94336 l -0.2793,6.49218 19.9375,0 -0.13281,-6.41601 a 42.118958,42.118958 0 0 0 31.27929,-31.04102 l 6.35352,0.33203 0,-20.187495 -6.30078,0.236328 A 42.118958,42.118958 0 0 0 160.06869,53.449494 l 0.11914,-5.605469 -19.9375,0 z m 19.51562,19.75 a 28.413691,28.413691 0 0 1 17.53907,17.640625 l -17.92969,0.671875 0.39062,-18.3125 z m -18.64062,0.002 0.8125,18.3105 -18.3457,-0.6875 a 28.413691,28.413691 0 0 1 17.5332,-17.623047 z m 0.8125,35.060545 -0.80078,18.55664 A 28.413691,28.413691 0 0 1 123.6058,103.6136 l 18.33203,-0.95708 z m 17.4375,0 17.92773,0.93555 a 28.413691,28.413691 0 0 1 -17.54296,17.62109 l -0.38477,-18.55669 z"
       style="opacity:1;fill:#ffda05;fill-opacity:1;fill-rule:evenodd;stroke:none;stroke-width:0.5120846;stroke-linecap:round;stroke-linejoin:miter;stroke-miterlimit:4;stroke-dasharray:none;stroke-opacity:1" />
  </g>
</svg>
