<?xml version="1.0" encoding="UTF-8" standalone="no"?>
<!-- Created with Inkscape (http://www.inkscape.org/) -->
<svg xmlns="http://www.w3.org/2000/svg" height="500" width="500" version="1.1">
<rect height="500" width="500" y="0" x="0" fill="#3f4096"/>
<rect height="500" width="166.7" y="0" x="166.7" fill="#FFF"/>
<path fill="#000" d="M250,68.57c-29.2,0-52.9,23.67-52.9,52.83,0,29.2,23.7,52.9,52.9,52.9s52.9-23.7,52.9-52.9c0-29.16-23.7-52.83-52.9-52.83zm6.9,14.91c15.5,2.79,27.7,14.82,30.9,30.22h-30.9v-30.22zm-14.3,0.09,0,30.13-30.4,0c3.1-15.22,15.2-27.16,30.4-30.13zm-30.5,44.33,30.5,0,0,31.4c-15.7-3.1-27.9-15.6-30.5-31.4zm44.8,0,31.1,0c-2.8,16-15.2,28.6-31.1,31.5v-31.5z"/>
<path fill="#000" d="M199.6,38.57s12.2-7.14,24.2-7.14c18,0,27.9,14.28,50,14.28,13.3,0,25.8-4.28,25.8-4.28v17.14s-12.5,4.29-25.8,4.29c-22.1,0-32-14.29-50-14.29-12,0-24.2,7.14-24.2,7.14z"/>
<path d="M250,215.7c-29.2,0-52.9,23.7-52.9,52.9s23.7,52.8,52.9,52.8,52.9-23.6,52.9-52.8-23.7-52.9-52.9-52.9zm6.9,14.9c15.5,2.8,27.7,14.8,30.9,30.2h-30.9v-30.2zm-14.3,0.1,0,30.1-30.4,0c3.1-15.2,15.2-27.1,30.4-30.1zm-30.5,44.4,30.5,0,0,31.3c-15.7-3-27.9-15.5-30.5-31.3zm44.8,0,31.1,0c-2.8,15.9-15.2,28.6-31.1,31.4v-31.4z" fill="#000"/>
<path d="M199.6,185.7s12.2-7.1,24.2-7.1c18,0,27.9,14.3,50,14.3,13.3,0,25.8-4.3,25.8-4.3v17.1s-12.5,4.3-25.8,4.3c-22.1,0-32-14.3-50-14.3-12,0-24.2,7.2-24.2,7.2z" fill="#000"/>
<path fill="#000" d="M250,362.9c-29.2,0-52.9,23.6-52.9,52.8s23.7,52.9,52.9,52.9,52.9-23.7,52.9-52.9-23.7-52.8-52.9-52.8zm6.9,14.9c15.5,2.8,27.7,14.8,30.9,30.1h-30.9v-30.1zm-14.3,0.1,0,30-30.4,0c3.1-15.1,15.2-27.1,30.4-30zm-30.5,44.3,30.5,0,0,31.4c-15.7-3.1-27.9-15.6-30.5-31.4zm44.8,0,31.1,0c-2.8,16-15.2,28.6-31.1,31.5v-31.5z"/>
<path fill="#000" d="M199.6,332.9s12.2-7.2,24.2-7.2c18,0,27.9,14.3,50,14.3,13.3,0,25.8-4.3,25.8-4.3v17.2s-12.5,4.2-25.8,4.2c-22.1,0-32-14.2-50-14.2-12,0-24.2,7.1-24.2,7.1z"/>
</svg>
