<!DOCTYPE svg PUBLIC "-//W3C//DTD SVG 20010904//EN" "http://www.w3.org/TR/2001/REC-SVG-20010904/DTD/svg10.dtd">
<svg version="1.0" xmlns="http://www.w3.org/2000/svg" width="737px" height="470px" viewBox="0 0 7370 4700" preserveAspectRatio="xMidYMid meet">
<g id="layer101" fill="#017dc2" stroke="none">
 <path d="M0 2350 c0 -1287 2 -2340 5 -2340 3 0 22 8 43 19 79 40 137 52 287 61 165 9 222 24 311 83 91 60 137 115 200 242 49 100 70 132 129 190 114 114 218 155 397 155 134 0 194 13 283 58 112 58 181 134 249 276 46 97 68 130 119 180 113 112 229 156 412 156 134 0 207 17 295 69 100 60 160 130 227 267 67 137 131 209 235 267 85 48 169 67 304 67 127 0 188 14 284 68 102 56 158 121 230 265 51 104 72 135 123 185 67 64 156 114 240 136 28 8 108 14 176 15 145 2 206 19 307 82 91 58 140 119 211 261 52 104 73 135 121 179 115 107 223 145 416 148 139 2 214 22 302 79 91 60 147 127 208 251 66 135 99 178 183 238 104 74 172 94 337 99 158 4 195 12 289 62 111 58 174 128 245 274 53 108 70 133 127 186 l66 62 -3681 0 -3680 0 0 -2340z m2891 1863 c84 -23 78 -42 -30 -102 -116 -65 -192 -136 -232 -216 -28 -58 -31 -72 -27 -128 7 -82 22 -109 137 -250 138 -169 170 -215 177 -254 10 -53 -8 -80 -58 -90 -70 -14 -64 -36 40 -140 93 -92 133 -153 134 -204 1 -45 -15 -54 -95 -54 -101 0 -102 -17 -3 -117 80 -81 99 -121 84 -173 -11 -40 -34 -61 -93 -82 -51 -19 -54 -23 -118 -133 -18 -30 -46 -62 -62 -72 -30 -17 -32 -17 -73 3 -23 12 -58 43 -79 70 -47 62 -67 75 -128 83 -57 8 -79 18 -99 48 -29 40 -20 98 24 169 59 94 74 125 67 143 -8 20 -37 20 -84 1 -48 -20 -80 -19 -93 4 -27 51 4 149 83 264 74 108 75 137 2 137 -58 0 -75 18 -75 79 0 41 15 78 97 242 72 146 97 206 101 244 5 58 11 63 -95 -70 -122 -153 -202 -264 -230 -318 -26 -51 -42 -164 -43 -292 0 -78 -25 -173 -52 -202 -27 -28 -67 -29 -101 -3 -52 41 -61 20 -58 -139 3 -226 -57 -313 -145 -206 -66 81 -100 52 -89 -75 7 -90 -5 -147 -37 -177 -36 -32 -77 -37 -129 -14 -56 26 -95 26 -160 1 -71 -29 -135 -29 -162 -1 -19 19 -22 34 -23 114 -1 51 -2 102 -3 114 0 11 -17 40 -36 63 -28 33 -35 50 -35 83 1 70 43 104 165 132 92 22 117 34 113 59 -2 14 -21 30 -60 48 -52 25 -58 31 -58 58 0 16 9 39 20 50 33 33 117 70 198 86 71 15 152 47 152 60 0 3 -16 20 -35 38 -43 41 -44 65 -5 110 32 36 43 41 300 132 114 41 143 55 184 94 67 62 270 300 262 307 -9 9 -128 -25 -159 -46 -15 -9 -75 -60 -133 -112 -138 -122 -163 -139 -213 -146 -51 -7 -68 6 -82 63 -8 29 -17 44 -27 44 -9 0 -59 -44 -111 -98 -119 -122 -191 -161 -235 -129 -18 13 -20 24 -15 100 5 90 -30 83 -129 -24 -66 -72 -111 -95 -161 -84 -36 8 -58 32 -91 98 -23 47 -32 56 -100 89 -81 40 -120 76 -120 111 0 33 32 80 85 123 55 46 75 80 75 129 0 48 24 91 61 111 42 21 99 7 182 -46 80 -50 112 -58 125 -33 8 14 6 30 -9 62 -35 79 -20 114 49 114 49 -1 145 -35 188 -68 45 -34 141 -78 154 -70 5 3 10 28 10 55 0 42 4 52 25 66 38 25 105 13 215 -39 339 -160 360 -165 484 -103 81 40 199 136 272 221 87 102 91 105 129 105 19 0 62 -8 96 -17z"/>
 <path d="M5235 2600 c-338 -71 -616 -287 -769 -597 -301 -607 13 -1343 659 -1546 278 -87 570 -65 830 65 219 109 416 312 516 533 101 224 125 519 59 750 -115 407 -440 711 -848 795 -131 26 -320 26 -447 0z m448 -397 c123 -43 189 -85 287 -183 143 -142 212 -306 212 -504 1 -351 -245 -650 -590 -717 -80 -15 -257 -7 -332 16 -300 93 -511 358 -524 663 -10 212 71 411 228 559 150 143 308 203 521 198 92 -2 124 -7 198 -32z"/>
 </g>
<g id="layer102" fill="#fff001" stroke="none">
 <path d="M7295 4628 c-57 -53 -74 -78 -127 -186 -71 -146 -134 -216 -245 -274 -94 -50 -131 -58 -289 -62 -165 -5 -233 -25 -337 -99 -84 -60 -117 -103 -183 -238 -61 -124 -117 -191 -208 -251 -88 -57 -163 -77 -302 -79 -193 -3 -301 -41 -416 -148 -48 -44 -69 -75 -121 -179 -71 -142 -120 -203 -211 -261 -101 -63 -162 -80 -307 -82 -68 -1 -148 -7 -176 -15 -84 -22 -173 -72 -240 -136 -51 -50 -72 -81 -123 -185 -72 -144 -128 -209 -230 -265 -96 -54 -157 -68 -284 -68 -135 0 -219 -19 -304 -67 -104 -58 -168 -130 -235 -267 -67 -137 -127 -207 -227 -267 -88 -52 -161 -69 -295 -69 -183 0 -299 -44 -412 -156 -51 -50 -73 -83 -119 -180 -68 -142 -137 -218 -249 -276 -89 -45 -149 -58 -283 -58 -179 0 -283 -41 -397 -155 -59 -58 -80 -90 -129 -190 -63 -127 -109 -182 -200 -242 -89 -59 -146 -74 -312 -83 -154 -9 -212 -22 -299 -68 l-40 -21 3688 -1 3687 0 0 2345 c0 1290 -2 2345 -5 2345 -2 0 -34 -28 -70 -62z m-1613 -2028 c556 -114 938 -633 880 -1195 -28 -264 -132 -486 -315 -669 -181 -182 -389 -286 -647 -322 -317 -45 -657 65 -895 288 -360 336 -456 863 -239 1301 127 258 352 460 619 556 173 63 410 79 597 41z"/>
 <path d="M5315 2225 c-142 -32 -246 -88 -351 -188 -157 -148 -238 -347 -228 -559 13 -305 224 -570 524 -663 75 -23 252 -31 332 -16 345 67 591 366 590 717 0 198 -69 362 -212 504 -98 98 -164 140 -287 183 -74 25 -106 30 -198 32 -65 2 -135 -2 -170 -10z"/>
 <path d="M2737 4206 c-12 -13 -44 -49 -71 -81 -73 -85 -191 -181 -272 -221 -124 -62 -145 -57 -484 103 -110 52 -177 64 -215 39 -21 -14 -25 -24 -25 -66 0 -27 -5 -52 -10 -55 -13 -8 -109 36 -154 70 -43 33 -139 67 -188 68 -69 0 -84 -35 -49 -114 15 -32 17 -48 9 -62 -13 -25 -45 -17 -125 33 -83 53 -140 67 -182 46 -37 -20 -61 -63 -61 -111 0 -49 -20 -83 -75 -129 -53 -43 -85 -90 -85 -123 0 -35 39 -71 120 -111 68 -33 77 -42 100 -89 33 -66 55 -90 91 -98 50 -11 95 12 161 84 99 107 134 114 129 24 -5 -76 -3 -87 15 -100 44 -32 116 7 235 129 52 54 102 98 111 98 10 0 19 -15 27 -44 14 -57 31 -70 82 -63 50 7 75 24 213 146 58 52 118 103 133 112 31 21 150 55 159 46 8 -7 -195 -245 -262 -307 -41 -39 -70 -53 -184 -94 -257 -91 -268 -96 -300 -132 -39 -45 -38 -69 5 -110 19 -18 35 -35 35 -38 0 -13 -81 -45 -152 -60 -81 -16 -165 -53 -198 -86 -11 -11 -20 -34 -20 -50 0 -27 6 -33 58 -58 39 -18 58 -34 60 -48 4 -25 -21 -37 -113 -59 -122 -28 -164 -62 -165 -132 0 -33 7 -50 35 -83 19 -23 36 -52 36 -63 1 -12 2 -63 3 -114 1 -80 4 -95 23 -114 27 -28 91 -28 162 1 65 25 104 25 160 -1 52 -23 93 -18 129 14 32 30 44 87 37 177 -11 127 23 156 89 75 88 -107 148 -20 145 206 -3 159 6 180 58 139 34 -26 74 -25 101 3 27 29 52 124 52 202 1 128 17 241 43 292 28 54 108 165 230 318 106 133 100 128 95 70 -4 -38 -29 -98 -101 -244 -82 -164 -97 -201 -97 -242 0 -61 17 -79 75 -79 73 0 72 -29 -2 -137 -79 -115 -110 -213 -83 -264 13 -23 45 -24 93 -4 47 19 76 19 84 -1 7 -18 -8 -49 -67 -143 -44 -71 -53 -129 -24 -169 20 -30 42 -40 99 -48 61 -8 81 -21 128 -83 21 -27 56 -58 79 -70 41 -20 43 -20 73 -3 16 10 44 42 62 72 64 110 67 114 118 133 59 21 82 42 93 82 15 52 -4 92 -84 173 -99 100 -98 117 3 117 80 0 96 9 95 54 -1 51 -41 112 -134 204 -104 104 -110 126 -40 140 50 10 68 37 58 90 -7 39 -39 85 -177 254 -115 141 -130 168 -137 250 -4 56 -1 70 27 128 40 80 116 151 232 216 108 60 114 79 30 102 -86 24 -127 22 -154 -7z"/>
 </g>
<g id="layer103" fill="#bfdef0" stroke="none">
 <path d="M1848 4693 c1013 -2 2671 -2 3685 0 1013 1 184 2 -1843 2 -2027 0 -2856 -1 -1842 -2z"/>
 </g>

</svg>
