<?xml version="1.0" encoding="UTF-8"?>
<svg xmlns="http://www.w3.org/2000/svg" xmlns:xlink="http://www.w3.org/1999/xlink" width="600" height="300">
<rect width="600" height="300" fill="#fff" fill-rule="evenodd" rx="0" ry="0"/>
<rect id="a" width="600" height="60" y="120" fill="#c00" fill-rule="evenodd" rx="0" ry="0"/>
<use width="600" height="300" transform="matrix(0 .5 -1 0 450 0)" xlink:href="#a"/>
<path fill="#ebeae3" fill-rule="evenodd" stroke="#000" stroke-width=".32597154" d="M322.00318 91.631c1.92547-3.012389.77409-4.957749-2.13814-5.558853 0 0-9.29157 2.978433-19.32671 3.30534-10.03515.326905-21.95764-2.523774-21.95764-2.523774-2.13822 1.341673-1.61645 4.525632-.5559 6.513268 0 0 10.50508 3.490082 22.46438 3.147437 7.59605-.217634 14.79405-2.155854 18.83201-3.440621 2.31944-.737982 2.68311-1.40858 2.682-1.442797z"/>
<path fill="#fff" stroke="#161111" stroke-width="1.00000695" d="M299.9987155 223.46998247l-19.28596324-40.0660722-44.34121792 3.33090137 25.05525468-36.73517515-25.05525468-36.73517169 44.34121792 3.33089792 19.28596324-40.06606875 19.28597187 40.06606875 44.34121792-3.33090137-25.05525468 36.73517514 25.05525468 36.7351717-44.34121792-3.33089792-19.28597187 40.0660722z"/>
<path fill="#b02320" fill-rule="evenodd" stroke="#000" stroke-width=".81492889" d="M299.71195 76.392216c24.2272 3.99349 23.36194 5.124981 23.36194 5.124981l6.32303-18.90253s.66557-3.727259-1.06494-5.990238c-1.73051-2.262979-6.58926-.998375-6.58926-.998375s-.66558-3.061676-2.79544-3.793819c-2.12986-.732138-10.05029 2.862005-12.51295 3.660705-2.46265.798697-3.72726 1.597398-7.18829 1.530836-3.46102-.066558-9.65094-3.128236-10.78242-3.727259-1.13149-.599023-2.79544-1.198046-4.32628-1.131489-1.53085.066559-3.12824.465907-3.92694 1.53084-.7987 1.064928-.7987 2.396095-.7987 2.396095s-1.2646-.798697-3.26135-.798697c-1.99674 0-3.12823.26623-4.06006 1.331163-.9318 1.064929-2.12986 4.060049-2.12986 4.060049l2.26299 5.124981.13311 7.055171 4.72564 7.45452 22.62978-3.926934z"/>
<path fill="#ebeae3" fill-rule="evenodd" stroke="#000" stroke-width=".32597154" d="M322.29625 87.071738s1.21988 1.454464 1.17296 1.97056c-.04692.5161-.56302.985281-.56302.985281s.37536.375345.28151.938361c-.09383.563015-.84452.609937-.84452.609937s.14075.516098-.32843.750689c-.46918.234589-2.39282.656852-2.39282.656852s-9.38362-2.674333-19.42408-2.674333c-10.04048 0-21.86383 3.23735-21.86383 3.23735s-1.21987-.422262-1.2668-1.219869c-.0469-.797611.14077-1.360626.14077-1.360626s-.66788.069576-.84453-.516099c-.24707-.819167.09384-1.454459.09384-1.454459s-.46516.149776.04691-.938364c.37534-.797606.93837-1.079114.93837-1.079114s10.50964-3.753449 22.47376-3.800365c11.9641-.046919 22.37991 3.800361 22.37991 3.894199z"/>
<path fill="none" stroke="#000" stroke-width=".7171374" d="M272.64293 63.434622s-.40066-1.362199.48076-2.56414c.88144-1.201941 2.48402-1.121813 2.96479-.881425.48079.240389.40066.801297 1.04171.961555.64103.160258 1.1218-.320519 1.1218-.320519"/>
<path fill="#fc0" fill-opacity=".94117647" fill-rule="evenodd" stroke="#000" stroke-width=".74973458" d="M331.14018 66.623912l-3.63888 7.528717-1.43045.250956s-.87271-.524265-3.36283-.35134c-1.7818.125478-2.30881.577201-2.30881.577201l3.23735-7.50362s.25233 1.612214.62739 2.559762c.47682 1.204596 2.28371 2.333906 2.28371 2.333906s.25039-1.440913-.22585-3.187158c-.52702-1.932368-1.75671-4.542326-1.75671-4.542326l6.57508 2.333902z"/>
<path fill="#121116" stroke="#121116" stroke-linejoin="round" stroke-width=".7311542" d="M297.808 43.225h4.073v17.309h-4.073z"/>
<path fill="#f6ca1f" fill-rule="evenodd" stroke="#000" stroke-width=".6193459" d="M272.84965 75.147177l2.61568 5.596348s11.13155-4.338945 24.27111-4.258088c19.70886.121658 25.3052 4.075596 25.3052 4.075596l2.91984-6.934601-2.18986 1.277428-2.25072 1.399085-2.55485.973279-3.10232-.243321-2.73735-2.007381-1.39908-2.919836-2.31154 2.129044-4.07559.912451-4.01477-1.034109-3.52814-4.440576s-2.62819 4.936024-5.96133 5.231364c-4.80555.42581-7.60372-2.311533-7.60372-2.311533s-1.78649 4.014773-4.74473 4.744727c-4.68389 1.155764-8.577-2.189877-8.63783-2.189877z"/>
<g stroke-width="2.24300003">
<path fill="#eee" stroke="#1e1e1e" stroke-linejoin="round" stroke-width=".73115072" d="M317.7788222 41.02807471c.00002608 1.17588462-.93910653 2.12979345-2.09909685 2.1321274-1.15999033.0023372-2.10285203-.94778711-2.10743191-2.12366195-.00457988-1.17587484.9308497-2.13351277 2.09082373-2.14046245 1.15997403-.00695294 2.10650616.93940968 2.11563983 2.11525845"/>
<path fill="#a3afb8" fill-rule="evenodd" d="M314.69594137 42.12292971s1.6999042-.02881575 1.87277588-.72030243c.17287167-.69148668-.1152467-1.58465426-.1152467-1.58465426s.80673338.89317084.57624 1.58465752c-.23049665.69148668-.45661552.8702193-1.03723329 1.00841754-.39340341.09363488-.97960504-.05762172-1.2965359-.28811837z"/>
<path fill="#eee" stroke="#1e1e1e" stroke-linejoin="round" stroke-width=".73115072" d="M312.6688222 43.41807471c.00002608 1.17588462-.93910653 2.12979345-2.09909686 2.1321274-1.15999032.0023372-2.10285202-.94778711-2.1074319-2.12366195-.00457988-1.17587484.9308497-2.13351277 2.09082373-2.14046245 1.15997403-.00695294 2.10650616.93940968 2.11563983 2.11525845"/>
<path fill="#a3afb8" fill-rule="evenodd" d="M309.58594137 44.51292971s1.6999042-.02881575 1.87277588-.72030243c.17287167-.69148668-.1152467-1.58465426-.1152467-1.58465426s.80673338.89317084.57624 1.58465752c-.23049665.69148668-.45661552.8702193-1.03723329 1.00841754-.39340341.09363488-.97960504-.05762172-1.2965359-.28811837z"/>
<path fill="#eee" stroke="#1e1e1e" stroke-linejoin="round" stroke-width=".73115072" d="M323.7118222 39.62807471c.00002608 1.17588462-.93910653 2.12979345-2.09909685 2.1321274-1.15999033.0023372-2.10285203-.94778711-2.10743191-2.12366195-.00457988-1.17587484.9308497-2.13351277 2.09082373-2.14046245 1.15997403-.00695294 2.10650616.93940968 2.11563983 2.11525845"/>
<path fill="#a3afb8" fill-rule="evenodd" d="M320.62894137 40.72292971s1.6999042-.02881575 1.87277588-.72030243c.17287167-.69148668-.1152467-1.58465426-.1152467-1.58465426s.80673338.89317084.57624 1.58465752c-.23049665.69148668-.45661552.8702193-1.03723329 1.00841754-.39340341.09363488-.97960504-.05762172-1.2965359-.28811837z"/>
<path fill="#eee" stroke="#1e1e1e" stroke-linejoin="round" stroke-width=".73115072" d="M330.3938222 40.97307471c.00002608 1.17588462-.93910653 2.12979345-2.09909686 2.1321274-1.15999032.0023372-2.10285202-.94778711-2.1074319-2.12366195-.00457988-1.17587484.9308497-2.13351277 2.09082373-2.14046245 1.15997403-.00695294 2.10650616.93940968 2.11563983 2.11525845"/>
<path fill="#a3afb8" fill-rule="evenodd" d="M327.31094137 42.06792971s1.6999042-.02881575 1.87277588-.72030243c.17287167-.69148668-.1152467-1.58465426-.1152467-1.58465426s.80673338.89317084.57624 1.58465752c-.23049665.69148668-.45661552.8702193-1.03723329 1.00841754-.39340341.09363488-.97960504-.05762172-1.2965359-.28811837z"/>
<path fill="#eee" stroke="#1e1e1e" stroke-linejoin="round" stroke-width=".73115072" d="M335.4868222 45.16907471c.00002608 1.17588462-.93910653 2.12979345-2.09909685 2.1321274-1.15999033.0023372-2.10285203-.94778711-2.10743191-2.12366195-.00457988-1.17587484.9308497-2.13351277 2.09082373-2.14046245 1.15997403-.00695294 2.10650616.93940968 2.11563983 2.11525845"/>
<path fill="#a3afb8" fill-rule="evenodd" d="M332.40394137 46.26392971s1.6999042-.02881575 1.87277588-.72030243c.17287167-.69148668-.1152467-1.58465426-.1152467-1.58465426s.80673338.89317084.57624 1.58465752c-.23049665.69148668-.45661552.8702193-1.03723329 1.00841754-.39340341.09363488-.97960504-.05762172-1.2965359-.28811837z"/>
<path fill="#eee" stroke="#1e1e1e" stroke-linejoin="round" stroke-width=".73115072" d="M337.6878222 52.05607471c.00002608 1.17588462-.93910653 2.12979345-2.09909686 2.1321274-1.15999032.0023372-2.10285202-.94778711-2.1074319-2.12366195-.00457988-1.17587484.9308497-2.13351277 2.09082373-2.14046245 1.15997403-.00695294 2.10650616.93940968 2.11563983 2.11525845"/>
<path fill="#a3afb8" fill-rule="evenodd" d="M334.60494137 53.15092971s1.6999042-.02881575 1.87277588-.72030243c.17287167-.69148668-.1152467-1.58465426-.1152467-1.58465426s.80673338.89317084.57624 1.58465752c-.23049665.69148668-.45661552.8702193-1.03723329 1.00841754-.39340341.09363488-.97960504-.05762172-1.2965359-.28811837z"/>
<path fill="#eee" stroke="#1e1e1e" stroke-linejoin="round" stroke-width=".73115072" d="M336.8718222 59.02307471c.00002608 1.17588462-.93910653 2.12979345-2.09909685 2.1321274-1.15999033.0023372-2.10285203-.94778711-2.10743191-2.12366195-.00457988-1.17587484.9308497-2.13351277 2.09082373-2.14046245 1.15997403-.00695294 2.10650616.93940968 2.11563983 2.11525845"/>
<path fill="#a3afb8" fill-rule="evenodd" d="M333.78894137 60.11792971s1.6999042-.02881575 1.87277588-.72030243c.17287167-.69148668-.1152467-1.58465426-.1152467-1.58465426s.80673338.89317084.57624 1.58465752c-.23049665.69148668-.45661552.8702193-1.03723329 1.00841754-.39340341.09363488-.97960504-.05762172-1.2965359-.28811837z"/>
<path fill="#eee" stroke="#1e1e1e" stroke-linejoin="round" stroke-width=".73115072" d="M333.7758222 65.13507471c.00002608 1.17588462-.93910653 2.12979345-2.09909685 2.1321274-1.15999033.0023372-2.10285203-.94778711-2.10743191-2.12366195-.00457988-1.17587484.9308497-2.13351277 2.09082373-2.14046245 1.15997403-.00695294 2.10650616.93940968 2.11563983 2.11525845"/>
<path fill="#a3afb8" fill-rule="evenodd" d="M330.69294137 66.22992971s1.6999042-.02881575 1.87277588-.72030243c.17287167-.69148668-.1152467-1.58465426-.1152467-1.58465426s.80673338.89317084.57624 1.58465752c-.23049665.69148668-.45661552.8702193-1.03723329 1.00841754-.39340341.09363488-.97960504-.05762172-1.2965359-.28811837z"/>
<path fill="#eee" stroke="#1e1e1e" stroke-linejoin="round" stroke-width=".73115072" d="M307.6978222 45.25107471c.00002608 1.17588462-.93910653 2.12979345-2.09909686 2.1321274-1.15999032.0023372-2.10285202-.94778711-2.1074319-2.12366195-.00457988-1.17587484.9308497-2.13351277 2.09082373-2.14046245 1.15997403-.00695294 2.10650616.93940968 2.11563983 2.11525845"/>
<path fill="#a3afb8" fill-rule="evenodd" d="M304.61494137 46.34592971s1.6999042-.02881575 1.87277588-.72030243c.17287167-.69148668-.1152467-1.58465426-.1152467-1.58465426s.80673338.89317084.57624 1.58465752c-.23049665.69148668-.45661552.8702193-1.03723329 1.00841754-.39340341.09363488-.97960504-.05762172-1.2965359-.28811837z"/>
<g stroke-width="2.68218017">
<path fill="#eee" stroke="#1e1e1e" stroke-linejoin="round" stroke-width=".73116231" d="M301.3452037 44.7068297c.00002181.98336088-.7853497 1.78108935-1.7554186 1.78304116-.9700689.00195454-1.75855896-.79260903-1.76238899-1.77596174-.00383003-.9833527.77844474-1.78419971 1.74850002-1.79001154.97005528-.00581456 1.7616148.78560321 1.76925305 1.76893411"/>
<path fill="#a3afb8" fill-rule="evenodd" d="M298.76707285 45.62242768s1.42158446-.02409784 1.56615242-.60236968c.14456796-.57827183-.09637773-1.325204-.09637773-1.325204s.67464956.7469349.4818941 1.32520673c-.19275818.57827183-.38185535.72774114-.86741047.84331263-.32899276.07830435-.81921752-.0481875-1.08425832-.24094568z"/>
</g>
<g stroke-width="2.68218017">
<path fill="#eee" stroke="#1e1e1e" stroke-linejoin="round" stroke-width=".73116231" d="M301.3662037 46.9228297c.00002181.98336088-.7853497 1.78108935-1.7554186 1.78304116-.9700689.00195454-1.75855896-.79260903-1.76238899-1.77596174-.00383003-.9833527.77844474-1.78419971 1.74850002-1.79001154.97005528-.00581456 1.7616148.78560321 1.76925305 1.76893411"/>
<path fill="#a3afb8" fill-rule="evenodd" d="M298.78807285 47.83842768s1.42158446-.02409784 1.56615242-.60236968c.14456796-.57827183-.09637773-1.325204-.09637773-1.325204s.67464956.7469349.4818941 1.32520673c-.19275818.57827183-.38185535.72774114-.86741047.84331263-.32899276.07830435-.81921752-.0481875-1.08425832-.24094568z"/>
</g>
<g stroke-width="2.68218017">
<path fill="#eee" stroke="#1e1e1e" stroke-linejoin="round" stroke-width=".73116231" d="M301.4882037 50.1828297c.00002181.98336088-.7853497 1.78108935-1.7554186 1.78304116-.9700689.00195454-1.75855896-.79260903-1.76238899-1.77596174-.00383003-.9833527.77844474-1.78419971 1.74850002-1.79001154.97005528-.00581456 1.7616148.78560321 1.76925305 1.76893411"/>
<path fill="#a3afb8" fill-rule="evenodd" d="M298.91007285 51.09842768s1.42158446-.02409784 1.56615242-.60236968c.14456796-.57827183-.09637773-1.325204-.09637773-1.325204s.67464956.7469349.4818941 1.32520673c-.19275818.57827183-.38185535.72774114-.86741047.84331263-.32899276.07830435-.81921752-.0481875-1.08425832-.24094568z"/>
</g>
<g stroke-width="2.48017144">
<path fill="#eee" stroke="#1e1e1e" stroke-linejoin="round" stroke-width=".73115454" d="M301.6691462 53.6453206c.00002358 1.06344383-.84930702 1.9261377-1.8983764 1.92824848-1.04906938.00211371-1.90177249-.85715754-1.90591443-1.92059252-.00414194-1.063435.84183973-1.92950138 1.89089437-1.93578652 1.04905464-.00628808 1.9050772.84958118 1.9133375 1.91299258"/>
<path fill="#a3afb8" fill-rule="evenodd" d="M298.8810575 54.63548305s1.53735547-.02606032 1.69369676-.65142546c.15634128-.62536513-.10422654-1.43312598-.10422654-1.43312598s.72959167.8077638.5211386 1.43312893c-.20845604.62536514-.4129529.78700692-.93805066.91199033-.35578528.0846813-.88593296-.0521118-1.17255816-.26056782z"/>
</g>
<path fill="#eee" stroke="#1e1e1e" stroke-linejoin="round" stroke-width=".73115072" d="M301.8718222 58.29007471c.00002608 1.17588462-.93910653 2.12979345-2.09909685 2.1321274-1.15999033.0023372-2.10285203-.94778711-2.10743191-2.12366195-.00457988-1.17587484.9308497-2.13351277 2.09082373-2.14046245 1.15997403-.00695294 2.10650616.93940968 2.11563983 2.11525845"/>
<path fill="#a3afb8" fill-rule="evenodd" d="M298.78894137 59.38492971s1.6999042-.02881575 1.87277588-.72030243c.17287167-.69148668-.1152467-1.58465426-.1152467-1.58465426s.80673338.89317084.57624 1.58465752c-.23049665.69148668-.45661552.8702193-1.03723329 1.00841754-.39340341.09363488-.97960504-.05762172-1.2965359-.28811837z"/>
<g stroke-width="2.38831472">
<path fill="#eee" stroke="#1e1e1e" stroke-linejoin="round" stroke-width=".73115867" d="M301.66246817 67.82394433c.00002449 1.10435107-.8819771 2.00022998-1.97140078 2.00242194-1.08942368.00219503-1.9749275-.8901296-1.97922878-1.99447148-.00430126-1.10434189.87422257-2.00372304 1.96363095-2.01024995 1.08940837-.00652996 1.97835933.8822618 1.98693738 1.9865792"/>
<path fill="#a3afb8" fill-rule="evenodd" d="M298.76713075 68.85219512s1.59649254-.02706278 1.75884777-.67648368c.16235523-.6494209-.1082358-1.4882537-.1082358-1.4882537s.7576567.83883585.54118511 1.48825676c-.21647465.6494209-.42883785.81728053-.97413442.94707164-.36947118.08793871-.92001193-.05411637-1.21766266-.27059102z"/>
</g>
<path fill="#eee" stroke="#1e1e1e" stroke-linejoin="round" stroke-width=".73115072" d="M295.9698222 45.19407471c.00002608 1.17588462-.93910653 2.12979345-2.09909686 2.1321274-1.15999032.0023372-2.10285202-.94778711-2.1074319-2.12366195-.00457988-1.17587484.9308497-2.13351277 2.09082373-2.14046245 1.15997403-.00695294 2.10650616.93940968 2.11563983 2.11525845"/>
<path fill="#a3afb8" fill-rule="evenodd" d="M292.88694137 46.28892971s1.6999042-.02881575 1.87277588-.72030243c.17287167-.69148668-.1152467-1.58465426-.1152467-1.58465426s.80673338.89317084.57624 1.58465752c-.23049665.69148668-.45661552.8702193-1.03723329 1.00841754-.39340341.09363488-.97960504-.05762172-1.2965359-.28811837z"/>
<path fill="#eee" stroke="#1e1e1e" stroke-linejoin="round" stroke-width=".73115072" d="M290.7548222 43.13807471c.00002608 1.17588462-.93910653 2.12979345-2.09909685 2.1321274-1.15999033.0023372-2.10285203-.94778711-2.10743191-2.12366195-.00457988-1.17587484.9308497-2.13351277 2.09082373-2.14046245 1.15997403-.00695294 2.10650616.93940968 2.11563983 2.11525845"/>
<path fill="#a3afb8" fill-rule="evenodd" d="M287.67194137 44.23292971s1.6999042-.02881575 1.87277588-.72030243c.17287167-.69148668-.1152467-1.58465426-.1152467-1.58465426s.80673338.89317084.57624 1.58465752c-.23049665.69148668-.45661552.8702193-1.03723329 1.00841754-.39340341.09363488-.97960504-.05762172-1.2965359-.28811837z"/>
<path fill="#eee" stroke="#1e1e1e" stroke-linejoin="round" stroke-width=".73115072" d="M285.7608222 40.78807471c.00002608 1.17588462-.93910653 2.12979345-2.09909685 2.1321274-1.15999033.0023372-2.10285203-.94778711-2.10743191-2.12366195-.00457988-1.17587484.9308497-2.13351277 2.09082373-2.14046245 1.15997403-.00695294 2.10650616.93940968 2.11563983 2.11525845"/>
<path fill="#a3afb8" fill-rule="evenodd" d="M282.67794137 41.88292971s1.6999042-.02881575 1.87277588-.72030243c.17287167-.69148668-.1152467-1.58465426-.1152467-1.58465426s.80673338.89317084.57624 1.58465752c-.23049665.69148668-.45661552.8702193-1.03723329 1.00841754-.39340341.09363488-.97960504-.05762172-1.2965359-.28811837z"/>
<path fill="#eee" stroke="#1e1e1e" stroke-linejoin="round" stroke-width=".73115072" d="M280.0318222 39.53907471c.00002608 1.17588462-.93910653 2.12979345-2.09909686 2.1321274-1.15999032.0023372-2.10285202-.94778711-2.1074319-2.12366195-.00457988-1.17587484.9308497-2.13351277 2.09082373-2.14046245 1.15997403-.00695294 2.10650616.93940968 2.11563983 2.11525845"/>
<path fill="#a3afb8" fill-rule="evenodd" d="M276.94894137 40.63392971s1.6999042-.02881575 1.87277588-.72030243c.17287167-.69148668-.1152467-1.58465426-.1152467-1.58465426s.80673338.89317084.57624 1.58465752c-.23049665.69148668-.45661552.8702193-1.03723329 1.00841754-.39340341.09363488-.97960504-.05762172-1.2965359-.28811837z"/>
<path fill="#eee" stroke="#1e1e1e" stroke-linejoin="round" stroke-width=".73115072" d="M273.2748222 41.15507471c.00002608 1.17588462-.93910653 2.12979345-2.09909686 2.1321274-1.15999032.0023372-2.10285202-.94778711-2.1074319-2.12366195-.00457988-1.17587484.9308497-2.13351277 2.09082373-2.14046245 1.15997403-.00695294 2.10650616.93940968 2.11563983 2.11525845"/>
<path fill="#a3afb8" fill-rule="evenodd" d="M270.19194137 42.24992971s1.6999042-.02881575 1.87277588-.72030243c.17287167-.69148668-.1152467-1.58465426-.1152467-1.58465426s.80673338.89317084.57624 1.58465752c-.23049665.69148668-.45661552.8702193-1.03723329 1.00841754-.39340341.09363488-.97960504-.05762172-1.2965359-.28811837z"/>
<path fill="#eee" stroke="#1e1e1e" stroke-linejoin="round" stroke-width=".73115072" d="M268.5008222 45.92807471c.00002608 1.17588462-.93910653 2.12979345-2.09909686 2.1321274-1.15999032.0023372-2.10285202-.94778711-2.1074319-2.12366195-.00457988-1.17587484.9308497-2.13351277 2.09082373-2.14046245 1.15997403-.00695294 2.10650616.93940968 2.11563983 2.11525845"/>
<path fill="#a3afb8" fill-rule="evenodd" d="M265.41794137 47.02292971s1.6999042-.02881575 1.87277588-.72030243c.17287167-.69148668-.1152467-1.58465426-.1152467-1.58465426s.80673338.89317084.57624 1.58465752c-.23049665.69148668-.45661552.8702193-1.03723329 1.00841754-.39340341.09363488-.97960504-.05762172-1.2965359-.28811837z"/>
<path fill="#eee" stroke="#1e1e1e" stroke-linejoin="round" stroke-width=".73115072" d="M266.5178222 52.61207471c.00002608 1.17588462-.93910653 2.12979345-2.09909686 2.1321274-1.15999032.0023372-2.10285202-.94778711-2.1074319-2.12366195-.00457988-1.17587484.9308497-2.13351277 2.09082373-2.14046245 1.15997403-.00695294 2.10650616.93940968 2.11563983 2.11525845"/>
<path fill="#a3afb8" fill-rule="evenodd" d="M263.43494137 53.70692971s1.6999042-.02881575 1.87277588-.72030243c.17287167-.69148668-.1152467-1.58465426-.1152467-1.58465426s.80673338.89317084.57624 1.58465752c-.23049665.69148668-.45661552.8702193-1.03723329 1.00841754-.39340341.09363488-.97960504-.05762172-1.2965359-.28811837z"/>
<path fill="#eee" stroke="#1e1e1e" stroke-linejoin="round" stroke-width=".73115072" d="M267.3988222 59.59007471c.00002608 1.17588462-.93910653 2.12979345-2.09909685 2.1321274-1.15999033.0023372-2.10285203-.94778711-2.10743191-2.12366195-.00457988-1.17587484.9308497-2.13351277 2.09082373-2.14046245 1.15997403-.00695294 2.10650616.93940968 2.11563983 2.11525845"/>
<path fill="#a3afb8" fill-rule="evenodd" d="M264.31594137 60.68492971s1.6999042-.02881575 1.87277588-.72030243c.17287167-.69148668-.1152467-1.58465426-.1152467-1.58465426s.80673338.89317084.57624 1.58465752c-.23049665.69148668-.45661552.8702193-1.03723329 1.00841754-.39340341.09363488-.97960504-.05762172-1.2965359-.28811837z"/>
<path fill="#eee" stroke="#1e1e1e" stroke-linejoin="round" stroke-width=".73115072" d="M270.6308222 65.90607471c.00002608 1.17588462-.93910653 2.12979345-2.09909686 2.1321274-1.15999032.0023372-2.10285202-.94778711-2.1074319-2.12366195-.00457988-1.17587484.9308497-2.13351277 2.09082373-2.14046245 1.15997403-.00695294 2.10650616.93940968 2.11563983 2.11525845"/>
<path fill="#a3afb8" fill-rule="evenodd" d="M267.54794137 67.00092971s1.6999042-.02881575 1.87277588-.72030243c.17287167-.69148668-.1152467-1.58465426-.1152467-1.58465426s.80673338.89317084.57624 1.58465752c-.23049665.69148668-.45661552.8702193-1.03723329 1.00841754-.39340341.09363488-.97960504-.05762172-1.2965359-.28811837z"/>
<g stroke-width="2.83223772">
<path fill="#eee" stroke="#1e1e1e" stroke-linejoin="round" d="M430.62804 247.4095c.00008 3.60734-2.88096 6.53371-6.43954 6.54087-3.55858.00717-6.45106-2.90759-6.46511-6.5149-.01405-3.60731 2.85563-6.54512 6.41416-6.56644 3.55853-.02133 6.46227 2.88189 6.49029 6.48912" transform="matrix(.19748 -.05291 .08437 .31486 168.369 18.75)"/>
<path fill="#a3afb8" fill-rule="evenodd" d="M272.69906449 75.42276425s1.02238212-.30375452.94813592-.9997331c-.0742462-.69597857-.47997116-1.51193832-.47997116-1.51193832s.7199145.73178362.75925216 1.4371151c.03933569.705332-.05139132.9146755-.3673732 1.14240684-.2140974.15429902-.60838097.10334733-.86004372-.06785052z"/>
</g>
<g stroke-width="2.83223772">
<path fill="#eee" stroke="#1e1e1e" stroke-linejoin="round" d="M430.62804 247.4095c.00008 3.60734-2.88096 6.53371-6.43954 6.54087-3.55858.00717-6.45106-2.90759-6.46511-6.5149-.01405-3.60731 2.85563-6.54512 6.41416-6.56644 3.55853-.02133 6.46227 2.88189 6.49029 6.48912" transform="matrix(.19849 .049 -.07812 .31647 262.458 -25.127)"/>
<path fill="#a3afb8" fill-rule="evenodd" d="M326.4661121 74.87098476s1.0420133.22755464 1.31299602-.41779333c.27098272-.64534797.30959252-1.55579538.30959252-1.55579538s.27718502.98840909-.02888478 1.62509533c-.30607178.63668575-.4865943.7762191-.87326444.82311092-.2619916.03176937-.58269288-.2031972-.72043932-.47461754z"/>
</g>
</g>
<path fill="#b3a192" fill-rule="evenodd" stroke="#000" stroke-width=".7311542" d="M297.95153 33.632299l.15157 3.561895s-4.22286.37086-4.39553.757847c-.82047 1.83892.9852 4.319743.9852 4.319743s1.41983-1.060986 5.00182-1.060989c3.41032-.000002 5.15336.833634 5.15336.833634s.90942-1.439916.90942-2.500903c0-1.060988-.37892-2.121977-.37892-2.121977s-1.74305-.227355-2.27354-.227355h-1.51571l-.15156-3.63768-3.48611.075785z"/>
<path fill="#f0ddcb" stroke="#121116" stroke-linejoin="round" stroke-width=".37258548" d="M303.97435 39.158202c.00007.399445-.33732.723542-.75414.724398-.41682.00086-.75566-.321845-.75737-.721289-.0017-.399446.33435-.724804.75116-.727232.41681-.002424.75698.319001.76033.718437m1.7407.393569c.00007.416825-.35201.755022-.78695.755914-.43495.000897-.78854-.335847-.79032-.75267-.00179-.416824.3489-.756339.78384-.758873.43495-.002529.78991.332882.79341.749694m-3.48373-.409604c.00008.399445-.33733.723541-.75413.724399-.41682.000859-.75567-.321847-.75739-.721289-.0017-.399447.33436-.724805.75116-.727232.41682-.002426.75698.319.76033.718435m-3.49324.044861c.00008.415688-.35103.752964-.7848.753854-.43376.000896-.78639-.334931-.78817-.750618-.00178-.415689.34795-.754278.78171-.756803.43375-.002525.78775.331972.79123.747649m-1.93898.13529c.00008.415688-.35104.752964-.78481.753856-.43376.000894-.78639-.334932-.78817-.750619-.00178-.415689.34795-.754278.78171-.756804.43376-.002524.78775.331973.79124.74765m3.55917-2.174766c.00007.350716-.29616.635276-.66214.636027-.36596.000753-.66347-.282583-.66498-.633296-.00149-.350717.29358-.636384.65954-.638515.36596-.002129.66462.280085.66756.630792m.00002-2.950622c.00007.350717-.29616.635275-.66214.636028-.36596.000754-.66348-.282584-.66498-.633297-.00149-.350717.29358-.636385.65953-.638516.36596-.002128.66463.280085.66757.630792m.00002 1.596476c.00007.350717-.29616.635276-.66214.636028-.36596.000753-.66347-.282584-.66498-.633298-.00149-.350716.29358-.636383.65954-.638514.36596-.002128.66462.280086.66756.630792"/>
<path fill="#f0ddcb" stroke="#121116" stroke-linejoin="round" stroke-width=".37258551" d="M294.83375 39.827158c.00008.401153-.33875.726632-.75735.72749-.41859.000863-.75888-.323219-.7606-.724365-.00173-.401149.33578-.727898.75437-.730336.41858-.002434.7602.320364.76356.721503"/>
<path fill="#916c68" stroke="#4d3126" stroke-linejoin="round" stroke-width=".37258548" d="M300.52821 38.975137c.00004.438866-.37217.794901-.83194.795789-.45977.000887-.83349-.353707-.83532-.792569-.00183-.438862.36893-.796289.82867-.7989.45977-.002608.83493.350581.83857.789434"/>
<g stroke-width="2.53446817">
<path fill="#eee" stroke="#1e1e1e" stroke-linejoin="round" stroke-width=".73116068" d="M301.29001465 28.40654188c.0000193.87027077-.6950316 1.57625753-1.55353903 1.57798488-.85850742.00172976-1.55631822-.70145609-1.55970778-1.57171962-.00338957-.87026354.68892073-1.5790102 1.5474161-1.58415365.85849536-.00514587 1.55902264.69525596 1.56578246 1.5655002"/>
<path fill="#a3afb8" fill-rule="evenodd" d="M299.00548114 29.21575126s1.25806705-.02132444 1.38600793-.53308219c.127938-.51175775-.085292-1.17277217-.085292-1.17277217s.59704687.6610173.42646287 1.17277506c-.170584.51175486-.33793124.6440316-.76763662.7463093-.29114844.06929866-.72498775-.04264312-.95954218-.21323z"/>
</g>
<path fill="#fc0" fill-rule="evenodd" stroke="#000" stroke-width=".32597154" d="M274.9794 81.334677s1.38884 1.296249 1.75918 2.453615c.37037 1.157365.9259 4.259103.9259 4.259103s14.5365-4.027632 21.66586-3.703569c7.12938.324064 23.56394 3.935041 23.56394 3.935041s.27778-1.759194.60183-3.610977c.32407-1.851785 1.66661-3.888746 1.66661-3.888746s-15.69386-4.907224-25.60089-4.444279c-9.90705.462945-14.86057 1.527719-17.08271 2.222138-2.22213.694422-7.63861 2.82397-7.49972 2.777674z"/>
<path fill="#fc0" fill-rule="evenodd" stroke="#000" stroke-width=".7311542" d="M296.66319 22.529814h6.25225s-1.54274 1.067445-1.85673 2.084081c-.27022.874935-.18946 2.311441-.18946 2.311441s1.70516 0 2.46301-.644171c.75785-.644172 2.34933-1.780946 2.34933-1.780946v7.957416s-1.53446-1.483898-2.46301-1.970407c-1.11535-.584382-2.23566-.795742-2.23566-.795742s0 1.288343.53049 2.046194c.5305.757849 2.65248 3.637674 2.65248 3.637674l-8.94262.341035s2.12112-2.23656 2.99351-3.865032c.56839-1.060992.34102-2.159871.34102-2.159871s-1.51569 0-2.27354.530496c-.75785.530492-2.08408 2.121977-2.08408 2.121977l.00001-7.654278s.56837 1.477808 1.81882 2.046195 2.42513.265247 2.42513.265247.24262-1.523041-.26526-2.463009c-.52361-.969085-1.62938-2.046196-1.51569-2.0083z"/>
<path fill="#fc0" fill-rule="evenodd" stroke="#121116" stroke-width=".7311542" d="M296.17319 47.780318s-4.4478-.053586-8.25256-2.304283c-3.80475-2.250697-7.64223-4.607954-13.28982-3.268871-1.1566.274233-5.4124 2.143523-7.28798 8.198965-1.31605 4.248983.21436 9.377908 1.55406 11.682193 1.33969 2.304285 3.50001 4.639939 3.50001 4.639939l2.29763-1.556272s-5.85124-4.95925-5.15459-11.389812c.69664-6.430564 3.91193-7.931028 3.91193-7.931028s3.96551-3.108105 9.27074-.160766c5.3052 2.947345 10.50324 4.287046 10.50324 4.287046s4.87652 1.178934 5.30522 1.125348c.4287-.053592-2.46505-3.376049-2.35788-3.322459z"/>
<path fill="#fc0" fill-rule="evenodd" stroke="#000" stroke-width=".74973458" d="M271.57209 71.899604l-2.36329-4.645094 7.08988-2.770758s-1.71135 2.281801-2.11882 3.911658c-.49766 1.990673-.32597 3.667181-.32597 3.667181s.65194-.488959 1.46687-1.792845c.6184-.989444 1.62986-4.5636 1.62986-4.5636l3.17822 10.186611c.02454.027273-1.63384-1.633811-2.79981-1.831023-1.3144-.222315-2.90469.201163-2.90469.201163l-1.87434.570452-.97791-2.933745z"/>
<path fill="#fc0" fill-rule="evenodd" stroke="#121116" stroke-width=".7311542" d="M304.18942 47.6965s4.4478-.053585 8.25255-2.304283c3.80475-2.250696 7.64222-4.607951 13.28983-3.268871 1.15659.274233 5.4124 2.143524 7.28796 8.198967 1.31607 4.248984-.21434 9.377909-1.55404 11.682191-1.33969 2.304285-2.25089 3.659845-2.25089 3.659845l-2.76148-.991758s5.06596-4.543669 4.36931-10.974229c-.69663-6.430565-3.91193-7.931029-3.91193-7.931029s-3.9655-3.108107-9.27072-.160765c-5.30522 2.947343-10.50326 4.287044-10.50326 4.287044s-4.8765 1.178935-5.3052 1.125348c-.42871-.05359 2.46504-3.376049 2.35787-3.32246z"/>
<path fill="#fc0" stroke="#121116" stroke-linejoin="round" stroke-width=".7311542" d="M301.892 43.295h1.857v17.317h-1.857zm-6.252-.076h2.198v17.317h-2.198z"/>
<path fill="#fc0" stroke="#121116" stroke-linejoin="round" stroke-width=".7311542" d="M305.75737 39.202492c.00016 3.072062-2.70686 5.564269-6.05061 5.570443-3.34374.006172-6.06163-2.476017-6.07493-5.548055-.01327-3.072041 2.68309-5.573987 6.02677-5.592221 3.34368-.018231 6.07218 2.454135 6.0986 5.526104"/>
<path fill="#fc0" fill-rule="evenodd" stroke="#000" stroke-width=".6193459" d="M294.31675 60.466922l10.42591-.085811s-1.22279.729386-2.27396 2.595753c-1.05117 1.86637-.901 3.046256-.901 3.046256s1.58748-.021451 2.70301-.836649c1.11553-.815192 2.35978-2.33832 2.35978-2.33832l-.0429 9.610724s-.75084-1.222796-1.99508-1.952179c-1.24425-.729388-3.00336-.729388-3.00336-.729388h-3.56112s-1.62835.096223-2.35977.579219c-1.03172.681306-2.31687 1.995084-2.31687 1.995084l-.17162-9.07441s.51486 1.587486 2.18816 2.231061c1.6733.643573 2.6172.557762 2.6172.557762s0-2.037986-.8581-3.08916c-.8581-1.051175-2.81028-2.467036-2.81028-2.509942z"/>
<path fill="#f6ca1f" fill-rule="evenodd" stroke="#000" stroke-width=".58674878" d="M300.12586 68.013185s1.52545 3.55939 3.29915 5.13032c1.03248.914433 4.13684 1.603219 5.54017 1.244929 3.154-.805268 5.32162-3.32867 5.32162-3.32867s-.11284 2.764488 1.8618 4.28778c1.97464 1.523287 3.55434 1.918213 5.19046 1.466866 1.63613-.451343 6.26241-3.892849 6.26241-3.892849l.95911.846274s-2.65327 2.57663-5.44191 3.944405c-1.43581.704234-5.79388.312731-7.20434-.815632-1.41045-1.128363-2.24813-3.862208-2.24813-3.862208s-.86832 1.75755-2.73012 2.378151c-1.86179.620597-4.42039.593688-6.79595-.100514-1.59912-.467309-3.67577-2.672564-4.0707-3.406001-.39491-.733436-.28209-1.128363-.28209-1.128363s-1.17164 3.358165-3.61075 4.274324c-2.3034.865176-4.9293.872046-7.16024.230534-2.25523-.648499-2.43084-1.909624-2.43084-1.909624s-.16925 3.554342-5.07763 4.569866c-4.90838 1.015527-8.80123-2.595229-8.80123-2.595229l.67702-1.015531s2.76448 3.102999 6.99584 2.820906c4.23137-.282088 5.64182-5.698227 5.64182-5.698227s1.86179 2.820906 6.82659 2.877321c4.96479.056421 6.37524-6.431661 6.37524-6.431661l.9027.112833z"/>
<g fill="#fc0" stroke="#000" stroke-width="2.20000005">
<path fill-rule="evenodd" stroke-width=".71713402" d="M287.89321632 70.08306412s.03716058-1.72788221.40856428-2.24710027c.52668603-.7363043 1.24319742-.7663685 1.60872062-.66391614.45097298.12640139.91926474.53624021.8426618 1.7363933-.07660622 1.20015634-.40856429 1.78746627-.05107299 2.24710027.35749456.459634.40856428.76605558 1.0980169.66391614.68944938-.10213944.99587096-.33195807.8426618-.97033772-.15321242-.63837965-.35749456.05106972-.4851705-.48517049-.12767592-.5362402.66689551-2.8527069.53624022-4.28991514-.12767593-1.40443849-.66391614-2.52798862-1.73639656-2.80887371-1.0079514-.2639868-1.86407248-.25535512-2.80887371.4340975-.90618682.66127253-2.06835136 2.8344102-2.06835136 2.8344102l-.0255365 4.64740971 1.88960572-.1021427-.05106972-.99587095z"/>
<path fill-rule="evenodd" stroke-width=".71713402" d="M284.37322276 71.33406853s-.72276676-1.56989434-1.27033769-1.89805812c-.77651596-.46537107-1.44563783-.20736255-1.74003764.03228733-.36322511.2956711-.62936006.85819752-.08075907 1.92837007.54860425 1.0701758 1.08714255 1.47651045.94246728 2.04054612-.144672.56403567-.06937945.86541775-.74241297 1.04653972-.67303026.18111872-1.0456596.09247443-1.15958612-.55407076-.11392325-.64655172.34822723-.09565264.25159343-.6383438-.09663055-.5426944-1.74864325-2.35052077-2.20164376-3.72071285-.44267052-1.3389511-.3986776-2.5831297.47297921-3.2682013.81921477-.64385268 1.60783399-.97716026 2.74914297-.72141072 1.09466267.24529895 3.02667708 1.7751609 3.02667708 1.7751609l1.87574547 4.25213523-1.77373967.65946339-.35008852-.93370521z"/>
<path fill-rule="evenodd" stroke-width=".71713402" d="M284.0118622 57.57080346s-1.838536 3.08976206-1.42997172 5.46453827c.40856428 2.3747762 2.85994343 7.4818199 2.85994343 7.4818199l.02553649.68944937 1.32272432-.14299652-.30131362-.69966527s.66065317-6.11363254.2553486-8.04359334c-.301268-1.43456137-2.70673102-4.72401592-2.7322675-4.7495524zm2.9365529 14.14651452s.91866495 1.09924581 2.01728164 1.63425385c1.20015308.5844577 1.69351194.58826828 2.17049406.22981537.3494757-.26263077.22981863-1.378902-.17874565-1.68532683-.40856428-.30642158-.87207732-.15070571-.94480775.15321242-.1227929.51313871-.29019805.47896076-.66391287.28088835-.54570312-.28922992-1.8129995-1.07247716-1.8129995-1.07247716l-.58730994.459634zm-1.42314917.24954307s-.38668191 1.37940725-1.1690034 2.31811284c-.85462162 1.02546576-1.30296728 1.2313908-1.88503235 1.10023676-.42646329-.09609595-.7754044-1.16315875-.52856687-1.61024616.24684404-.44709068.73342924-.49529186.92446722-.24798494.32254731.4175578.46118235.31769688.72070663-.01628546.37895316-.48768372 1.21323426-1.72198542 1.21323426-1.72198542l.72419451.17815238z"/>
<path stroke-linejoin="round" stroke-width=".71713394" d="M288.99201179 70.86324806c.06750145.4027942-1.14841.94269213-2.71774155 1.20675239-1.56933208.26405704-2.89953329.15257535-2.97319693-.2491818-.07366365-.40175714 1.13702454-.94209434 2.70606557-1.20772874 1.56904049-.26563761 2.90399924-.15627613 2.983824.24443754"/>
</g>
<g fill="#fc0" stroke="#000" stroke-width=".71713394">
<path fill-rule="evenodd" d="M316.0123877 70.77894532s.64070888-1.6051324 1.17060044-1.96114228c.75143816-.50485926 1.43299422-.28175889 1.73938057-.05763593.37801206.2765155.67285157.8245435.18026105 1.92162601-.49259471 1.09708442-1.00942284 1.53069461-.8358095 2.086502.1736164.55580852.11399189.86068099.79548165 1.00679427.68148672.14611214 1.04904018.03833813 1.12941711-.61323011.08037388-.65156939-.35270235-.07753402-.28423026-.62449497.06847209-.54696094 1.62489296-2.4377057 2.0065129-3.82946882.37291892-1.36002944.26471926-2.60027591-.64116305-3.2394065-.85137647-.60067725-1.6561615-.89280544-2.7827357-.57844121-1.08052998.30151426-2.93094167 1.9291292-2.93094167 1.9291292l-1.65359926 4.34334877 1.8054354.56696201.30139032-.95054244z"/>
<path fill-rule="evenodd" d="M312.27722688 70.71617328s-.12636462-1.72365658-.52408972-2.22299627c-.56401854-.70811748-1.28112638-.70112994-1.64086892-.57993333-.44384218.14952588-.89033618.58300818-.75184299 1.77760098.1384951 1.194597.50034935 1.76397635.16707321 2.24146372-.33327308.4774885-.36844571.78613558-1.06225538.71974712-.69380547-.06639037-1.01168875-.28007393-.89166021-.92551416.12003387-.64544519.35965717.03253235.45946235-.50958452.09980939-.54211879-.81336046-2.81445303-.75711734-4.25649066.05496204-1.40915806.53245144-2.5589057 1.58898955-2.89481627.99297205-.31569862 1.84839402-.35130026 2.8275485.28842663.93913485.61358267 2.21199898 2.72378982 2.21199898 2.72378982l.26556203 4.63988705-1.89235965-.0044005-.00044041-.99717961z"/>
<path fill-rule="evenodd" d="M316.76510887 57.70014616s-2.80526235 2.24885468-3.25539261 4.61610403c-.45013027 2.36724936.05472669 8.00961363.05472669 8.00961363l-.21785088.65462474 1.28887645.32991686-.03683231-.76089735s2.76253979-5.49375458 3.05974154-7.44329084c.22091282-1.44911223-.87830869-5.37320137-.89326888-5.40607107zm-2.21060416 14.27797062s.47486346 1.35158845 1.31611037 2.2378705c.91899559.96819695 1.37969037 1.1447693 1.9520815.97633879.41937975-.12340504.69875814-1.21075364.4235898-1.64099001-.27516948-.43023333-.763854-.4469431-.93853958-.18782752-.2949355.4374957-.43972556.34678488-.72025277.03024114-.40962864-.46222312-1.32179543-1.64013148-1.32179543-1.64013148l-.7111939.22449858zm-1.42028657-.2653514s-.84583793 1.15622033-1.907654 1.76098617c-1.15994899.66066368-1.65203583.69629349-2.15114917.36935772-.36568578-.23953974-.31828779-1.3612065.06965373-1.69334698.38794876-.33214125.86053873-.20665326.95272407.09194025.15564293.50414934.3204925.45924397.68065318.2374753.52590364-.32383061 1.74003518-1.18720206 1.74003518-1.18720206l.61573701.4207896z"/>
<path stroke-linejoin="round" d="M316.79337202 71.90588405c-.0780167.40089026-1.4060395.48017386-2.96832724.17721129-1.56228712-.30296577-2.76894898-.87378147-2.69706689-1.2758612.0718821-.40207972 1.39516727-.48360612 2.95773488-.18221962 1.56256824.3013833 2.77442903.87188155 2.70868277 1.27514433"/>
</g>
<path fill="#cca715" fill-rule="evenodd" stroke="#000" stroke-width=".32597154" d="M274.43122 81.169335s.30416 1.277428 1.03411.608299c.72997-.669127 10.76688-4.623069 24.94024-4.623069 14.17335 0 23.48031 3.893112 24.02778 4.13643.54747.243322.79079.547468 1.27743 0 .48664-.54747-.48664-1.399085-.48664-1.399085s-9.85444-4.197259-25.24438-4.13643c-15.38996.060829-25.36605 4.44058-25.36605 4.44058s-.66913.486636-.18249.973275z"/>
<path fill-rule="evenodd" d="M292.40382 87.064808s.45212-1.257047 1.24181-1.498976c.62962-.192896 1.62389.426178 1.62389.426178s-1.19771-.110218-1.57246.10287c-.33854.192503-.44087.764184-.44087.764184s.25717-.455572 1.17566-.411482c.91848.044086 1.02137.044086 1.02137.044086s-1.55776.117569-1.91782.565792c-.36004.448225 1.46959.653965 1.46959.653965s-2.79957.014694-3.16696-.154309c-.36739-.169004-.60251-.742139-1.22709-.565787-.62459.176349-1.26386.73479-1.26386.73479s.71276-1.19771 1.16098-1.205057c.44823-.007348.71274-.029394 1.11688.154304.40414.183698.77888.389442.77888.389442zm-10.46837 2.26756s.21188-1.318974.94322-1.702746c.58309-.305989 1.67469.118562 1.67469.118562s-1.19744.113145-1.52631.391851c-.29711.25178-.29197.832528-.29197.832528s.1685-.495267 1.0793-.621776c.91081-.126505 1.01191-.145522 1.01191-.145522s-1.50917.403575-1.78013.910644c-.27096.507068 1.56517.370956 1.56517.370956s-2.74857.532092-3.14088.433937c-.39231-.098157-.72937-.617935-1.31056-.329138-.5812.288797-1.10619.955811-1.10619.955811s.47901-1.308847.91814-1.398949c.43914-.090097.69502-.160673 1.12615-.05487.43114.105802.83746.238712.83746.238712zm19.29732-2.732324s.52419-1.228743 1.32656-1.424514c.63975-.156095 1.59648.519539 1.59648.519539s-1.18932-.179421-1.57577.011598c-.34912.172566-.48441.737362-.48441.737362s.28313-.439911 1.19754-.342681c.91438.097223 1.01709.103186 1.01709.103186s-1.56197.027119-1.94737.453732c-.38541.426613 1.42923.738006 1.42923.738006s-2.79572-.147522-3.1527-.337525c-.35699-.190004-.55853-.775801-1.19226-.63593-.63375.139868-1.3043.660337-1.3043.660337s.78095-1.154405 1.22884-1.135774c.44789.018634.71325.011951 1.10607.218754.39282.206803.755.43391.755.43391zm8.8396.99995s.66398-1.159184 1.48372-1.259991c.65358-.080379 1.52494.702279 1.52494.702279s-1.16026-.316974-1.56637-.172352c-.36686.13065-.56713.675798-.56713.675798s.33254-.403864 1.22933-.200604c.89681.20326.99811.221162.99811.221162s-1.55445-.155323-1.987.223405c-.43256.378724 1.33334.899736 1.33334.899736s-2.7594-.472736-3.09178-.7031c-.33237-.230362-.46418-.835674-1.1099-.770708-.64575.064966-1.37244.503633-1.37244.503633s.91032-1.055396 1.35298-.984629c.44265.070773.70697.095097 1.07299.346324.36599.251226.69921.519047.69921.519047zm8.7777 1.567046s.61848-.882847 1.28458-.903805c.53109-.016708 1.17395.67605 1.17395.67605s-.90912-.339712-1.24606-.253247c-.30437.078111-.50524.501507-.50524.501507s.2968-.300178 1.00256-.071144c.70574.229032.78584.250839.78584.250839s-1.23773-.238686-1.61308.033956c-.37532.272646 1.00555.820683 1.00555.820683s-2.18275-.582022-2.43297-.791486c-.25022-.209463-.31178-.705526-.83543-.70063-.52365.004903-1.13976.304163-1.13976.304163s.80883-.781391 1.15936-.692097c.35053.089292.56114.128203.83685.356894.27569.228693.52385.468317.52385.468317z"/>
<path fill="#0f6545" stroke="#000" stroke-linejoin="round" stroke-width=".43534634" d="M290.63881 81.076418c.21091 1.047309-1.02106 2.177714-2.75105 2.524284-1.72999.346568-3.30232-.222057-3.51112-1.269782-.21089-1.047306 1.02107-2.177713 2.75106-2.524281 1.72998-.346569 3.30232.222055 3.51111 1.269779z"/>
<path fill="#cecfc1" d="M286.72035 80.905308c.05086.253833-.21659.521441-.59734.597718-.38076.076276-.73064-.067663-.78149-.321498-.05085-.253836.21659-.521443.59734-.597719.38076-.076277.73064.067662.78149.321499z"/>
<path fill="#0f6545" stroke="#000" stroke-linejoin="round" stroke-width=".43534634" d="M315.08763 82.343575c-.319 1.01959-1.94286 1.417841-3.62621.889326-1.68335-.528516-2.78815-1.783484-2.46712-2.802437.31901-1.01959 1.94287-1.417842 3.62621-.889323 1.68335.528514 2.78815 1.783481 2.46712 2.802434z"/>
<path fill="#cecfc1" d="M311.73482 80.308306c-.07755.246992-.44075.352919-.81124.236598-.3705-.116321-.60797-.410844-.53041-.657834.07755-.246991.44074-.352921.81123-.236599.37049.116321.60797.410844.53042.657835z"/>
<path fill="#1f2d86" stroke="#000" stroke-linejoin="round" stroke-width=".6193459" d="M296.627 78.715h6.337v3.195h-6.337z"/>
<path fill="#707c8b" d="M299.29806 79.395451c0 .144627-.26964.26187-.60228.26187-.33265 0-.60231-.117243-.60231-.26187 0-.144626.26966-.261869.60231-.261869.33264 0 .60228.117243.60228.261869z"/>
<path fill="#9f1209" fill-rule="evenodd" stroke="#000" stroke-width=".32597154" d="M278.71523 81.909386l1.04748 3.090047-1.93783 1.047474s-.89035.628483-1.78071.157123c-.89034-.471367-1.41556-1.883105-.94273-2.461566.9381-1.147658 3.61379-1.885452 3.61379-1.833078z"/>
<path fill="#8f322f" d="M277.09164 84.10908c.00035.520915-.39837.9434-.89034.9434-.49198 0-.89072-.422485-.89036-.9434-.00036-.520915.39838-.943401.89036-.943401.49197 0 .89069.422486.89034.943401z"/>
<path fill="#e2a494" d="M276.24923 83.739995c.02736.166358-.0115.330675-.10194.430936-.09045.100259-.21868.121194-.33631.05491-.11764-.066292-.20675-.209714-.23371-.376139-.02736-.166358.01149-.330675.10194-.430936.09044-.100259.21867-.121194.33631-.054908.11763.066291.20674.209713.23371.376137z"/>
<path fill="#9f1209" fill-rule="evenodd" stroke="#000" stroke-width=".32597154" d="M321.17493 82.311607l-1.04042 2.752089 2.46681 1.292142s1.09076.486649 1.77879-.117468c.58822-.516488.72158-1.711668.25171-2.315784-.44492-.572045-3.49045-1.62776-3.45689-1.610979z"/>
<path fill="#aa675d" d="M324.12839 84.518316c0 .33828-.35312.612506-.78871.612506-.43559 0-.7887-.274226-.7887-.612506 0-.338282.35311-.612508.7887-.612508s.78871.274226.78871.612508z"/>
<path fill="#e2a494" d="M323.37323 84.426016c.00019.162024-.07014.311836-.18444.392914-.1143.081075-.25517.081075-.36948 0-.11429-.081078-.18462-.23089-.18444-.392914-.00018-.162023.07015-.311834.18444-.392912.11431-.081076.25518-.081076.36948 0 .1143.081078.18463.230889.18444.392912z"/>
<path fill="#f5d8bc" d="M305.34403657 78.98710092c.00023144.2351841-.19952298.42595478-.44601497.42595478-.246492 0-.44624641-.19077069-.44601497-.42595478-.00023144-.2351841.19952297-.42595478.44601497-.42595478.246492 0 .4462464.19077068.44601497.42595478zm2.696.156c.00023144.2351841-.19952298.42595478-.44601497.42595478-.246492 0-.44624641-.19077069-.44601497-.42595478-.00023144-.2351841.19952297-.42595478.44601497-.42595478.246492 0 .4462464.19077068.44601497.42595478zm-1.36915887 1.04484676c.00029088.29559446-.25077328.53536728-.56058022.53536728-.30980695 0-.5608711-.23977282-.56058022-.53536728-.00029089-.29559445.25077327-.53536728.56058022-.53536728.30980694 0 .5608711.23977283.56058022.53536728zm1.30315887 1.76215324c.00023144.2351841-.19952298.42595478-.44601497.42595478-.246492 0-.44624641-.19077069-.44601497-.42595478-.00023144-.2351841.19952297-.42595478.44601497-.42595478.246492 0 .4462464.19077068.44601497.42595478zm-2.602-.335c.00023144.2351841-.19952298.42595478-.44601497.42595478-.246492 0-.44624641-.19077069-.44601497-.42595478-.00023144-.2351841.19952297-.42595478.44601497-.42595478.246492 0 .4462464.19077068.44601497.42595478zm-13.05543052-2.16677343c.05327835.22906992-.09829322.45998406-.33843178.51558778-.24013857.05560372-.47777832-.08518912-.53060573-.31436346-.05327836-.22906992.09829321-.45998406.33843178-.51558778.24013856-.05560372.47777832.08518912.53060573.31436346zm2.66197262-.45704766c.05327836.22906992-.09829321.45998406-.33843178.51558778-.24013856.05560372-.47777832-.08518913-.53060573-.31436346-.05327835-.22906993.09829322-.45998406.33843178-.51558779.24013856-.05560372.47777832.08518913.53060573.31436347zm-1.07916374 1.32946675c.06697072.2879171-.12353467.57815675-.42536392.64805047-.30182924.06989372-.6005221-.10706372-.66692602-.39511208-.06697072-.28791711.12353467-.57815676.42536392-.64805048.30182924-.06989371.6005221.10706373.66692602.39511209zm1.64856097 1.41976262c.05327836.22906993-.09829321.45998407-.33843178.51558779-.24013856.05560372-.47777832-.08518913-.53060573-.31436346-.05327835-.22906993.09829322-.45998406.33843178-.51558778.24013857-.05560372.47777832.08518912.53060573.31436346zm-2.61063267.26036272c.05327836.22906993-.09829322.45998406-.33843178.51558778-.24013856.05560373-.47777832-.08518912-.53060573-.31436346-.05327836-.22906992.09829322-.45998406.33843178-.51558778.24013856-.05560372.47777832.08518913.53060573.31436346zm-11.98037937-.09971208c.0853368.21915575-.03182869.46929077-.26160947.55850453-.22978078.08921377-.48503895-.01632553-.56994426-.23564881-.0853368-.21915575.03182868-.46929077.26160947-.55850454.22978078-.08921376.48503895.01632554.56994426.23564882zm2.57017592-.83096909c.0853368.21915575-.03182868.46929077-.26160946.55850453-.22978079.08921377-.48503896-.01632553-.56994427-.23564881-.0853368-.21915575.03182869-.46929077.26160947-.55850454.22978078-.08921376.48503896.01632554.56994426.23564882zm-.88600534 1.46740397c.10726814.27545338-.03998748.58985233-.3287953.70199383-.28880783.1121415-.60964563-.02050098-.71637142-.29616495-.10726814-.27545338.03998747-.58985234.3287953-.70199383.28880783-.1121415.60964562.02050098.71637142.29616495zm1.84062613 1.17289358c.0853368.21915575-.03182869.46929077-.26160947.55850453-.22978078.08921377-.48503896-.01632553-.56994426-.23564881-.0853368-.21915575.03182868-.46929077.26160946-.55850454.22978078-.08921376.48503896.01632554.56994427.23564882zm-2.54733904.6288851c.0853368.21915576-.03182869.46929078-.26160947.55850454-.22978078.08921376-.48503896-.01632554-.56994426-.23564882-.0853368-.21915575.03182868-.46929077.26160946-.55850453.22978079-.08921377.48503896.01632554.56994427.23564882zm35.11572411-3.67570875c-.06004453.24617034-.31798162.3945997-.5759259.33141433-.25794429-.06318537-.41807766-.3140242-.35754875-.56007588.06004453-.24617034.31798162-.3945997.5759259-.33141434.25794429.06318537.41807766.3140242.35754875.5600759zm2.7820276.85392557c-.06004453.24617034-.31798161.3945997-.5759259.33141433-.25794428-.06318537-.41807765-.3140242-.35754874-.56007588.06004453-.24617034.31798161-.3945997.5759259-.33141434.25794429.06318537.41807766.3140242.35754874.56007589zm-1.69677961.74595975c-.07546941.3094092-.39966813.49596868-.7238759.41655158-.32420776-.0794171-.5254779-.3946941-.44939967-.70395416.07546941-.3094092.39966812-.49596868.72387589-.41655157.32420776.0794171.5254779.39469409.44939968.70395415zm.90868897 2.17473813c-.06004452.24617034-.3179816.39459971-.5759259.33141434-.25794428-.06318537-.41807765-.3140242-.35754874-.56007589.06004453-.24617033.31798162-.3945997.5759259-.33141433.25794429.06318537.41807766.3140242.35754875.56007589zm-2.63732333-1.01821997c-.06004453.24617033-.31798162.3945997-.5759259.33141433-.25794429-.06318537-.41807766-.3140242-.35754875-.56007589.06004453-.24617033.31798162-.3945997.5759259-.33141433.2579443.06318537.41807766.3140242.35754875.56007589z"/>
<path fill="none" stroke="#000" stroke-width=".74973458" d="M322.48342 55.581939s-1.28206 1.201942-2.80452 1.201942c-1.52246 0-2.40388-.641037-2.88466-.961552-.48077-.320517.16027-1.282072.16027-1.282072"/>
<path fill="none" stroke="#000" stroke-width=".68454021" d="M295.55995 57.985822s-2.32376-.400644-3.28531-.721164c-.96155-.320517-.72117-.961554-1.84297-.881422-1.12183.080126-2.24364.881422-2.00326 2.003234.2404 1.121812 1.0417 1.282071 1.84298 1.041682.80131-.240389.56093-1.602587-.48077-1.522461-1.04168.080131-.16025.961555-.16025.961555"/>
<path fill="none" stroke="#000" stroke-width=".65194309" d="M279.53406 56.222975s.64103.961554 2.32376.801294c1.68271-.160258 2.32375-1.041682 2.40387-1.44233.08013-.400645 0-1.121812-.32052-1.442331-.32052-.320518-1.44232-.480775-1.44232-.480775"/>
<g stroke="#161111">
<path fill="#c00" stroke-width=".99999994" d="M311.9932 169.00117c1.55463-1.52972 4.05401-3.22361 5.44214-6.90521 1.30018-3.44559 1.92945-9.77045 3.11554-12.97605 1.54924-5.49502 4.67115-10.85269.95623-10.4859-3.53788.34931-4.6817 3.76694-6.02218 6.26821-.62105.9316-2.05187 2.92702-2.32229 4.06094-.0543-1.90319-1.01604-7.45408-1.21233-13.0357-.18334-5.21334-.0356-10.63947-.17476-12.66423-.17084-2.67336-.15293-5.18475-.77986-7.16038-.29224-.92089-1.6455-1.8065-2.33964-1.76785-1.42549.0105-2.28774 1.25082-2.48028 2.41577-.13875.92056-.1001.58465-.19407 1.77435-.11893 1.50549.0286 3.44635-.0799 5.14987-.11698 1.83694.12293 3.87765.0229 5.58664-.20164 3.44631-.45105 6.60421-.55279 7.25026 0-1.27793-.58427-7.31506-.7796-13.0453-.0741-2.174-.12519-4.31692-.16301-6.31308-.0306-1.61437.0394-3.33094-.13382-4.58507-.29556-2.13975-.98761-3.11394-2.53977-3.11394-1.04687 0-2.5455.76176-3.02486 3.14138-.25837 1.28259-.26903 2.85367-.22671 4.56794.0393 1.59394.12449 3.31167.0989 5.03641-.0968 6.52741-.21282 13.44569-.47889 15.48362-.0429-.67005-.69629-4.08531-.87242-8.65783-.0694-1.80131-.16708-3.97478-.26372-6.05241-.11555-2.48432-.10595-4.3371-.16821-5.99436-.0181-1.00142-.41609-3.88232-2.34265-3.70918-1.01132-.12362-2.08294.58129-2.51411 3.30792-.24012 1.51848-.23437 4.13253-.27424 6.14731-.0757 3.82478-.2412 7.17397-.0576 10.57928.11454 2.1244.097 3.76213.12105 4.8093.0253.278-.54214-1.78525-.82943-4.58959-.28101-2.74298-.52928-6.23463-.50688-5.42907 0-1.41678-.068-3.52523-.19584-5.26552-.0999-1.35908-.0375-2.85848-1.51163-2.73872-1.49617.12155-2.41461.62739-2.72413 3.18888-.20051 1.6593-.25554 5.24658-.29918 6.54685.16083 3.30751-.72275 11.01884-1.12317 13.21156-.10938 1.55373-.72287 3.57472-.98229 5.74077-.55813 4.66161-.027 10.1196.59 12.91321 1.22699 4.41008 4.4294 6.38895 4.26851 9.38128-.16083 2.99271 0 8.26898 0 10.63151 0 2.36254 2.05227 2.48985 6.30084 1.57497 6.94627-1.49635 10.74213 1.49634 16.47798-.70877-.72774-6.53624.69008-10.46578.65274-12.82832z"/>
<path fill="#c00" d="M307.9405 153.55629c1.43677-3.96632 3.25144-5.52432 5.00251-6.38941"/>
<path fill="none" d="M292.14505 149.46762c2.16328-.85313 4.40947-1.47246 6.60751-2.22407 2.69001-.75878 5.29489-1.84633 8.07073-2.27617 1.3374-.27256 2.68174-.53601 4.04588-.62807m-22.58246 26.29006c.30242-.20024.59411.11775.88545.17807.40712.12536.83368.25133 1.26316.1777.84458-.0142 1.68945-.0152 2.53398.003 1.00202-.0369 1.83139-.0733 2.63735-.63987m6.27587.38373c.28992.23809.62019.42483.96868.56253.53679.23717 1.12393.26787 4.60481-.0124 2.15922.13797 4.07099-1.72656 4.60991-2.22994"/>
</g>
</svg>
