<?xml version="1.0" encoding="UTF-8" standalone="no"?>
<!-- Created with Inkscape (http://www.inkscape.org/) -->
<svg
   xmlns:dc="http://purl.org/dc/elements/1.1/"
   xmlns:cc="http://web.resource.org/cc/"
   xmlns:rdf="http://www.w3.org/1999/02/22-rdf-syntax-ns#"
   xmlns:svg="http://www.w3.org/2000/svg"
   xmlns="http://www.w3.org/2000/svg"
   xmlns:sodipodi="http://sodipodi.sourceforge.net/DTD/sodipodi-0.dtd"
   xmlns:inkscape="http://www.inkscape.org/namespaces/inkscape"
   width="400"
   height="280"
   id="svg2"
   sodipodi:version="0.32"
   inkscape:version="0.44.1"
   version="1.0"
   sodipodi:docbase="D:\program\svg\旗"
   sodipodi:docname="Flag_of_Aomori.svg">
  <defs
     id="defs4" />
  <sodipodi:namedview
     id="base"
     pagecolor="#ffffff"
     bordercolor="#666666"
     borderopacity="1.0"
     gridtolerance="10000"
     guidetolerance="10"
     objecttolerance="10"
     inkscape:pageopacity="0.0"
     inkscape:pageshadow="2"
     inkscape:zoom="2.8"
     inkscape:cx="160.13996"
     inkscape:cy="173.07574"
     inkscape:document-units="px"
     inkscape:current-layer="layer1"
     inkscape:window-width="799"
     inkscape:window-height="571"
     inkscape:window-x="101"
     inkscape:window-y="25" />
  <metadata
     id="metadata7">
    <rdf:RDF>
      <cc:Work
         rdf:about="">
        <dc:format>image/svg+xml</dc:format>
        <dc:type
           rdf:resource="http://purl.org/dc/dcmitype/StillImage" />
      </cc:Work>
    </rdf:RDF>
  </metadata>
  <g
     inkscape:label="Layer 1"
     inkscape:groupmode="layer"
     id="layer1">
    <rect
       style="opacity:1;color:black;fill:white;fill-opacity:1;fill-rule:evenodd;stroke:none;stroke-width:1px;stroke-linecap:butt;stroke-linejoin:miter;marker:none;marker-start:none;marker-mid:none;marker-end:none;stroke-miterlimit:4;stroke-dasharray:none;stroke-dashoffset:0;stroke-opacity:1;visibility:visible;display:inline;overflow:visible"
       id="rect1900"
       width="400"
       height="280"
       x="0"
       y="0" />
    <path
       style="fill:#04773d;fill-rule:evenodd;stroke:#04773d;stroke-width:1px;stroke-linecap:butt;stroke-linejoin:miter;stroke-opacity:1;fill-opacity:1"
       d="M 196,43 C 209.54794,54.821163 226.87203,68.532055 248,69 C 268.87543,69.467945 276,61.992224 290,56 C 290,56 275.20151,94.127344 274,107 C 272.79586,119.90083 273.22972,119.16133 274,130 C 274.7689,140.81925 286.10098,199.27859 326,225 L 66,225 C 99.79452,194.88014 120.44819,157.09478 120,107 L 160,107 C 162.73575,130.73172 161.37395,164.81131 176,173 C 190.07906,180.88245 196.42157,159.4715 196,152 L 214,152 C 213.04095,162.67056 220.02974,173.33706 230,173 C 240.98983,172.62847 247.97519,146.40733 248,130 C 248.02481,113.94981 244.63567,109.45834 236,107 C 227.36433,104.54166 206.73374,119.36236 196,130 L 196,43 z "
       id="path1871"
       sodipodi:nodetypes="czczzcccczccszzcc" />
  </g>
</svg>
