<svg xmlns="http://www.w3.org/2000/svg" width="1000" height="720" viewBox="-50 -36 100 72">
<path d="M-50-36h100v72H-50z" fill="#ec1a24"/>
<path d="M-9.724-18.838A21.2 21.2 0 0 0-.6 21.1915V22.992173A23 23 0 0 1-10.587271-20.418367zM-11.906-13.5A18 18 0 0 0-.6 17.99V19.791A19.8 19.8 0 0 1-14.484-13.5L-18.095-17.25a25 25 0 0 1 1.28-1.25zM-8.189-16.029a18 18 0 0 0-1.152 .643l-.916-1.55a19.8 19.8 0 0 1 1.204-.673zM-10.24-14.804a18 18 0 0 0-1.099.824l-1.123-1.407a19.8 19.8 0 0 1 1.127-.848zM8.481003-21.379256A23 23 0 0 1 .6 22.992173V21.1915A21.2 21.2 0 0 0 14.489-15.476l-.943 1.035A19.8 19.8 0 0 1 .6 19.791V17.99A18 18 0 0 0 6.432-16.811zM8.791-17.741a19.8 19.8 0 0 1 3.383 2.127l.963-1.024a21.2 21.2 0 0 0-3.735-2.362z
M-2.977-21.993c.62-.122 1.203-.244 1.848-.328v1.824c-.64.062-1.243.217-1.848.355zm-.604 13.045c.901-.292.677-1.845.639-3.02-.707.414-1.55.734-1.925 1.333-.457.96.344 1.994 1.286 1.687zm7.64-9.595c.45-1.49-1.947-1.894-2.203-.498-.13.708.006 1.646.035 2.346.592-.344 1.94-1.09 2.168-1.848m-7.675-3.262v1.912c-.796.339-2.087.659-2.026 1.813.06 1.143 1.395.988 2.736.958v-1.243h1.777v3.34l1.208-.604c-.106-2.963-.19-5.728 2.417-5.97 1.872-.175 3.376.965 3.376 2.773 0 1.454-.991 2.175-1.884 2.842-.688.513-1.408.967-2.132 1.386v1.457c.627-.19 1.193-.522 1.99-.534 2.13-.03 3.771 2.018 2.736 4.124C5.576-7.505 2.996-6.264.115-6.07v-1.777C1.273-7.894 2.228-8.19 3.17-8.7c.741-.4 1.76-1.107 1.919-1.99.137-.762-.577-1.322-1.422-1.173-1.38.246-2.58 1.389-3.59 1.849v-3.553l-1.207.603c.017 2.08.189 3.858-.747 4.94-.267.31-.706.655-1.136.817-.97.367-2.237-.023-2.843-.604-.9-.862-1.281-2.845-.284-4.122.736-.945 2.173-1.399 3.233-2.06v-1.317c-2.633.153-4.507-.325-4.513-2.736-.006-2.368 1.988-3.024 3.731-3.731z
" fill="#fff"/>
</svg>
