<svg xmlns="http://www.w3.org/2000/svg" xmlns:xlink="http://www.w3.org/1999/xlink" width="1000" height="700" viewBox="-500 -350 1000 700">
<path d="M-500-350h1000v700H-500z" fill="#906"/>
<path d="M-259.858984 100H190.576952L88.899638-76.110273A57.779455 57.779455 0 0 0 38.861163-105H-38.861163A57.779455 57.779455 0 0 0-88.899638-76.110273L-183.803449 90h-69.292032l113.224319-196.110273A117.779455 117.779455 0 0 1-38.861163-165H38.861163a117.779455 117.779455 0 0 1 102 58.889727L272 121.028857A25.980762 25.980762 0 0 1 249.5 160h-544z " fill="#fff"/>
<g stroke="#ffb300" stroke-width="20">
<path d="M0-85V40M50-65V0M-50-65V0"/>
<g id="a">
<path d="M-30 70H40" transform="rotate(45 40 80)"/>
<path d="M30 25H70" transform="rotate(45 70 35)"/>
<path d="M20-10V35" transform="rotate(45 30 35)"/>
</g>
<use xlink:href="#a" transform="scale(-1,1)"/>
</g>
</svg>
