<svg height="210" viewBox="0 0 297.77155 210" width="297.77155" xmlns="http://www.w3.org/2000/svg"><path d="m0 0h297.77155v210h-297.77155z" fill="#01a0c7" stroke-width=".996279"/><g fill="#fff"><path d="m50.27895 45.368365c-21.657625 1.374131-42.2826953-1.617924-42.2826953-1.617924 1.1106385-.045332 34.0981233 25.113207 66.7062813 25.508947 42.300674.513371 110.315674-28.411692 163.454374-28.411692 31.47052 0 47.68579 2.32568 47.68579 2.32568s-37.6927-27.906343-67.09883-27.906343c-23.87962-1.734229-105.85672 26.128973-168.46492 30.101332z"/><path d="m261.05112 79.045646c25.40315 1.406398 24.65967 2.117797 24.65967 2.117797.79924 0-25.03684-24.961606-66.96752-24.961606-29.40687 0-133.876765 24.800313-159.156528 24.800313-25.279762 0-51.4585844-5.026984-51.4585844-5.026984s24.6372904 32.496824 74.8245064 29.416724l7.855534 17.3739c-22.449861 4.95214-32.295393 5.3131-39.403095 5.39998-26.749216.32696-44.0564067-3.28174-44.0564067-3.28174s33.9290877 26.91069 76.2303547 26.45916c40.285779-.43002 117.195329-28.23989 173.857899-25.40056 22.981 1.15156 32.99909 3.05514 31.02747 2.92681-10.25409-9.09665-25.25027-21.01738-45.39646-24.64292-12.37622-2.22724-31.08079-3.61426-31.08079-3.61426l-8.18685-18.678993c19.41432-3.638508 41.91717-3.736539 57.2508-2.887621zm-81.45044 26.116684c-19.18207 3.2397-36.80879 7.54754-56.93293 11.93157l-7.3912-16.25601c5.53033-1.457823 54.01285-12.132683 56.9287-12.555824z"/><path d="m53.678021 166.02887c-28.425871-.46847-45.6636911-5.58751-45.6636911-5.58751 1.1233705-.0119 33.7066811 25.64991 66.6127101 27.50385 49.94532 2.81393 107.79155-26.2509 167.60313-26.06836 31.80615.0971 46.48839 6.34501 46.48839 6.34501s-38.6716-29.55182-68.37833-30.43632c-45.75527-3.59497-131.304694 28.82604-166.662209 28.24333z" stroke-width="1.00533"/></g></svg>
