<?xml version="1.0" encoding="UTF-8" standalone="no"?>
<!-- Created with Inkscape (http://www.inkscape.org/) -->

<svg
   xmlns:dc="http://purl.org/dc/elements/1.1/"
   xmlns:cc="http://creativecommons.org/ns#"
   xmlns:rdf="http://www.w3.org/1999/02/22-rdf-syntax-ns#"
   xmlns:svg="http://www.w3.org/2000/svg"
   xmlns="http://www.w3.org/2000/svg"
   xmlns:sodipodi="http://sodipodi.sourceforge.net/DTD/sodipodi-0.dtd"
   xmlns:inkscape="http://www.inkscape.org/namespaces/inkscape"
   id="svg2"
   version="1.1"
   inkscape:version="0.47pre2 r22153"
   width="1000"
   height="700"
   xml:space="preserve"
   sodipodi:docname="愛知県の県旗.svg"
   inkscape:export-filename="C:\Documents and Settings\Zach\Desktop\aichikennoki.png"
   inkscape:export-xdpi="90"
   inkscape:export-ydpi="90"><metadata
     id="metadata8"><rdf:RDF><cc:Work
         rdf:about=""><dc:format>image/svg+xml</dc:format><dc:type
           rdf:resource="http://purl.org/dc/dcmitype/StillImage" /><dc:title /></cc:Work></rdf:RDF></metadata><defs
     id="defs6"><inkscape:perspective
       sodipodi:type="inkscape:persp3d"
       inkscape:vp_x="0 : 0.5 : 1"
       inkscape:vp_y="0 : 1000 : 0"
       inkscape:vp_z="1 : 0.5 : 1"
       inkscape:persp3d-origin="0.5 : 0.33333333 : 1"
       id="perspective10" /></defs><sodipodi:namedview
     pagecolor="#ffffff"
     bordercolor="#666666"
     borderopacity="1"
     objecttolerance="10"
     gridtolerance="10"
     guidetolerance="10"
     inkscape:pageopacity="0"
     inkscape:pageshadow="2"
     inkscape:window-width="896"
     inkscape:window-height="549"
     id="namedview4"
     showgrid="false"
     inkscape:zoom="0.91720259"
     inkscape:cx="154.5"
     inkscape:cy="108"
     inkscape:window-x="8"
     inkscape:window-y="102"
     inkscape:window-maximized="0"
     inkscape:current-layer="svg2" /><rect
     style="fill:#a63c47;fill-opacity:1;fill-rule:evenodd;stroke:none"
     id="rect3052"
     width="1000"
     height="700"
     x="0"
     y="0" /><path
     d="m 601.01561,256.99326 c -25.05611,14.85825 -45.76116,36.278 -59.5812,62.00025 0,0 42.711,23.40675 42.19835,72.92562 -0.0362,3.912 -0.34125,7.64188 -0.82612,11.21188 -5.07291,75.04625 -66.98243,133.88775 -143.34958,133.88775 -10.01587,0 -19.78756,-1.03875 -29.22868,-2.9845 25.98645,16.4275 56.75664,25.96575 89.77162,25.96575 92.97245,0 168.34286,-75.37325 168.34286,-168.34575 0,-55.06225 -26.44697,-103.94725 -67.32729,-134.661 z"
     style="fill:#ffffff;fill-opacity:1;fill-rule:nonzero;stroke:none"
     id="path240" /><path
     d="m 439.4571,529.80238 c 60.06171,0 111.55766,-38.482 130.23426,-92.19837 -15.32941,22.59062 -37.80872,31.49487 -37.80872,31.49487 -11.13899,-22.4515 -17.4007,-47.75537 -17.4007,-74.51575 0,-60.236 31.71481,-113.06062 79.35877,-142.69412 -0.004,-0.006 -0.007,-0.006 -0.007,-0.006 16.00556,-9.94938 33.7861,-17.31925 52.78971,-21.42613 0,0 -44.60379,-20.55512 -105.83359,-7.90037 0,0 -11.66877,-55.66913 -40.05709,-81.32788 l -0.8825,-1.2275 -0.83324,1.2275 c -28.39189,25.65875 -40.06066,81.32788 -40.06066,81.32788 -61.2298,-12.65475 -105.83358,7.90037 -105.83358,7.90037 19.05643,4.1205 36.87839,11.51888 52.92178,21.50325 0,0 -0.007,0.006 -0.0137,0.0125 47.57041,29.64775 79.23309,82.43025 79.23309,142.6105 0,26.7605 -6.26527,52.06438 -17.39998,74.51575 0,0 -51.1618,-20.22737 -51.75442,-77.17962 -0.51262,-49.51888 42.20193,-72.92575 42.20193,-72.92575 -13.79575,-25.673 -34.44511,-47.05838 -59.43482,-61.91663 -40.81749,30.721 -67.21877,79.56375 -67.21877,134.5775 0,52.41988 23.96085,99.24063 61.52254,130.11575 14.46119,5.18 30.03049,8.03238 46.27666,8.03238 z"
     style="fill:#ffffff;fill-opacity:1;fill-rule:nonzero;stroke:none"
     id="path238" /></svg>
