<?xml version="1.0" encoding="UTF-8"?>
<!-- Created with Inkscape (http://www.inkscape.org/) -->
<svg id="svg2" width="300" height="200" version="1.0" xmlns="http://www.w3.org/2000/svg" xmlns:cc="http://creativecommons.org/ns#" xmlns:dc="http://purl.org/dc/elements/1.1/" xmlns:rdf="http://www.w3.org/1999/02/22-rdf-syntax-ns#">
 <metadata id="metadata10">
  <rdf:RDF>
   <cc:Work rdf:about="">
    <dc:format>image/svg+xml</dc:format>
    <dc:type rdf:resource="http://purl.org/dc/dcmitype/StillImage"/>
   </cc:Work>
  </rdf:RDF>
 </metadata>
 <rect id="rect2895" y="40" width="300" height="120" fill="#019066"/>
 <g id="g3412" transform="matrix(.76515843 0 0 .76515843 -3.0540765 -.77070345)">
  <path id="path2808" d="m160.8217 66.353191s-14.46598 9.738073-15.36303 47.575809c-36.26183-10.83857-49.982923-0.14158-49.982918-0.14159 4e-6 0 4.789098 16.76453 40.496078 29.3101-21.52401 31.14598-15.50461 47.50502-15.50462 47.50501 1e-5 0 17.37562 0.66651 40.35449-29.45169 22.97887 30.11819 40.35449 29.45169 40.35448 29.45169 0 1e-5 6.00598-16.36966-15.50462-47.50501 35.70697-12.54557 40.49608-29.23931 40.49608-29.2393 0-1e-5 -13.72108-10.76778-49.98292 0.0708-0.89704-37.837746-15.36303-47.575819-15.36302-47.575819z" fill="#ffffff"/>
  <path id="path2822" d="m160.8217 114.0706c-11.59592 0-21.02682 9.36009-21.02681 20.95601 0 11.59592 9.43088 21.02681 21.02681 21.02681 11.59592 0 21.02681-9.43089 21.02681-21.02681s-9.4309-20.95601-21.02681-20.95601zm0 7.00894c7.70568-1e-5 13.94707 6.2414 13.94707 13.94707-1e-5 7.70567-6.2414 14.01787-13.94707 14.01787s-13.94708-6.31219-13.94708-14.01787 6.2414-13.94707 13.94708-13.94707z" fill="#f9f400"/>
 </g>
 <rect id="rect2891" width="300" height="40" fill="#f9f400"/>
 <rect id="rect2893" y="160" width="300" height="40" fill="#f9f400"/>
</svg>
