<?xml version="1.0" encoding="utf-8"?>
<svg version="1.1" xmlns="http://www.w3.org/2000/svg" width="800px" height="533.333px">
<path fill="#FFF" stroke="#000" d="M0,533.333h800V0H0V533.333"/>
<path fill="#0A92D4" d="M452.212,164.449c24.733-7.005,42.507-4.67,53.072,7.523c13.393,15.825,10.044,40.99-10.306,75.494
	c-6.955,11.676-15.456,23.607-24.989,35.545c-7.729,9.342-13.396,15.563-17.004,18.422c5.151-29.576,8.504-58.374,9.792-86.911
	c1.026-22.052-4.124-39.434-14.944-51.886c-14.685-16.604-36.321-23.35-64.919-20.756c-28.078,2.854-56.932,14.011-86.299,34.246
	c14.168,1.038,26.276,7.004,36.065,17.381c10.047,10.638,15.199,23.09,15.715,37.619c0.258,10.896-1.287,25.684-4.379,44.362
	c-4.123,21.793-6.184,36.32-6.699,43.327c-1.545,21.791,3.607,38.914,15.199,51.886c8.244,9.343,19.322,15.826,32.975,18.939
	c13.139,3.111,28.079,3.111,44.566,0c34.521-6.75,68.011-24.39,100.212-53.188c31.944-28.8,53.325-60.188,63.892-94.175
	c5.151-16.084,6.698-30.873,5.409-44.363c-1.547-14.009-6.698-25.942-14.941-35.283c-12.881-14.787-31.687-21.793-56.417-21.272
	C504.25,141.878,479.005,149.662,452.212,164.449z"/>
<path fill="#0A92D4" d="M293.008,191.689c-11.334-0.519-20.867,3.113-28.852,10.377c-30.141,28.538-49.72,58.893-59.251,91.582
	c-4.637,15.564-5.925,29.834-4.122,43.063c1.545,13.491,6.44,24.905,14.684,33.987c12.88,14.787,31.686,21.791,56.417,21.274
	c23.958-0.521,49.205-8.304,75.996-23.089c-10.561,2.854-19.32,4.409-26.275,4.15c-11.336-0.259-20.094-4.15-26.535-11.675
	c-10.047-11.415-10.819-28.02-2.576-49.811c6.183-16.086,16.488-33.986,31.429-53.187c7.471-9.857,10.305-20.495,8.244-31.909
	c-1.547-9.34-5.668-17.123-12.367-23.867C312.586,195.84,303.828,191.949,293.008,191.689z"/>
</svg>
