<?xml version="1.0" encoding="UTF-8"?>
<svg id="svg830" width="800" height="533.33301" version="1.1" xmlns="http://www.w3.org/2000/svg">
 <path id="path824" d="M 0,533.333 H 800 V 0 H 0 v 533.333" fill="#ffffff" stroke="#000000"/>
 <path id="path826" d="m452.212 164.449c24.733-7.005 42.507-4.67 53.072 7.523 13.393 15.825 10.044 40.99-10.306 75.494-6.955 11.676-15.456 23.607-24.989 35.545-7.729 9.342-13.396 15.563-17.004 18.422 5.151-29.576 8.504-58.374 9.792-86.911 1.026-22.052-4.124-39.434-14.944-51.886-14.685-16.604-36.321-23.35-64.919-20.756-28.078 2.854-56.932 14.011-86.299 34.246 14.168 1.038 26.276 7.004 36.065 17.381 10.047 10.638 15.199 23.09 15.715 37.619 0.258 10.896-1.287 25.684-4.379 44.362-4.123 21.793-6.184 36.32-6.699 43.327-1.545 21.791 3.607 38.914 15.199 51.886 8.244 9.343 19.322 15.826 32.975 18.939 13.139 3.111 28.079 3.111 44.566 0 34.521-6.75 68.011-24.39 100.212-53.188 31.944-28.8 53.325-60.188 63.892-94.175 5.151-16.084 6.698-30.873 5.409-44.363-1.547-14.009-6.698-25.942-14.941-35.283-12.881-14.787-31.687-21.793-56.417-21.272-23.962 0.519-49.207 8.303-76 23.09z" fill="#0a92d4"/>
 <path id="path828" d="m293.008 191.689c-11.334-0.519-20.867 3.113-28.852 10.377-30.141 28.538-49.72 58.893-59.251 91.582-4.637 15.564-5.925 29.834-4.122 43.063 1.545 13.491 6.44 24.905 14.684 33.987 12.88 14.787 31.686 21.791 56.417 21.274 23.958-0.521 49.205-8.304 75.996-23.089-10.561 2.854-19.32 4.409-26.275 4.15-11.336-0.259-20.094-4.15-26.535-11.675-10.047-11.415-10.819-28.02-2.576-49.811 6.183-16.086 16.488-33.986 31.429-53.187 7.471-9.857 10.305-20.495 8.244-31.909-1.547-9.34-5.668-17.123-12.367-23.867-7.214-6.744-15.972-10.635-26.792-10.895z" fill="#0a92d4"/>
</svg>
