<svg xmlns="http://www.w3.org/2000/svg" xmlns:xlink="http://www.w3.org/1999/xlink" width="900" height="600"><defs><path id="spearshape" stroke-miterlimit="10" d="M-1,55.4256258422h2V-38C3,-40 3,-43 3,-46C3,-48 3,-56 0,-64.6632301492C-3,-56 -3,-48 -3,-46C-3,-43 -3,-40 -1,-38z" transform="rotate(30)"/></defs><rect width="900" height="600" fill="#fff"/><rect width="900" height="180" fill="#000"/><rect width="900" height="180" y="210" fill="#b00"/><rect width="900" height="180" y="420" fill="#060"/><g transform="translate(450,300) scale(3.75)"><g id="spear"><use fill="#000" xlink:href="#spearshape"/><use fill="#fff" xlink:href="#spearshape"/></g><use transform="scale(-1,1)" xlink:href="#spear"/><path fill="#b00" d="M-19,24c3,8 13,24 19,24s16,-16 19,-24V-24c-3,-8 -13,-24 -19,-24s-16,16 -19,24z"/><path id="deco_r" fill="#000" d="M19,24c3,-8 5,-16 5,-24s-2,-16 -5,-24c-3,8 -5,16 -5,24s2,16 5,24z"/><use transform="scale(-1,1)" xlink:href="#deco_r"/><g fill="#fff"><ellipse rx="4" ry="6"/><path id="deco_br" d="M1,5.85c0,0 4,8 4,21s-4,21 -4,21z"/><use transform="scale(-1)" xlink:href="#deco_br"/><use transform="scale(-1,1)" xlink:href="#deco_br"/><use transform="scale(1,-1)" xlink:href="#deco_br"/></g></g></svg>