<svg enable-background="new 0 0 330 200" height="400" viewBox="0 0 599.99999 400" width="600" xmlns="http://www.w3.org/2000/svg"><path d="m0 0h600v400h-600z" fill="#fff" fill-rule="evenodd"/><g stroke-width=".28957" transform="matrix(3.4533964 0 0 3.4533964 7.089869 -114.7442)"><path d="m93.65298 56.12695c.18426.28386.42514.53386.45054.81901.27017.83399 1.0397 1.33008 1.1328 2.18295.0319.27994.40234.39192.59376.51953.20702.26367.0657.5638.46614.95963.1862.11973.0411.42318.0775.70442.1836.12494.38477.24806.57357.37306 1.72071 2.69792 1.88932 5.83333-.10933 8.73828-.32357.31836-.62825.77474-.75977 1.21874-.15755.15951-.49154.33204-.66015.48894.0391.28646.22525.4095.43489.67578-.86458.22722-.96224.94856-1.62434 1.44466-.1771.0107-.52606.0456-.70314.0612-.48372.47982-.99609.66666-1.49869 1.00261-.15429.15755-.112.58072-.0964.72396-.82031.64777-2.02148 1.04817-3.27473 1.02148-.17579.0176-.30535.45703-.48047.47331-.88737.0865-1.95769.0429-2.84049.12493-.3685-.11133-.57554-.37305-.94727-.48437-.35157.0357-.70183.0657-1.07032-.0397-.57812-.37956-1.30143-.45181-1.86588-.6862-.36784-.112-1.03972.23828-1.42383-.009-1.1901-1.03516-2.36393-2.06901-3.02278-3.153-.43035-.67317-1.17188-.89388-1.42448-1.58333-.03-.28451.10226-.72331-.26563-.83528-.73762-.2155-.43294-.67319-.48308-1.09831-.22069-.40431-.25194-.6888-.65169-1.08399-.22851-.4056.0632-1.00586-.17317-1.55729-.012-.14063.14974-.30208.13346-.44076-.27538-.83268.16471-1.73307.0892-2.44075-.0547-.42318.0612-1.00781.19076-1.44857.4388-.90169.85547-1.94076 1.64453-2.87565-.0156-.13867-.0456-.42058-.0592-.5625.1595-.16081.33723-.17448.49414-.33594.27994-.73958.5703-1.33984 1.0345-1.95312.63022-.7741 1.62435-1.44011 2.4323-2.23307.47721-.47461 1.1556-.82097 1.60156-1.58464.16732-.15495.72721.0795.89128-.0775.4785-.47525 1.19856-.40038 1.69921-.73437.49869-.33008.40039.39063.91211.19988.35482-.0339.51433-.18881.84896-.36849.51628-.18946 1.09636.18358 1.63997.27864.528-.0495 1.07097.0436 1.65104.41928.76953.49804 2.53451.32942 2.81641 1.30793.4323.67123 1.19662 1.17579 1.6263 1.84765z" fill="#be1135"/><g fill="#2e86d0"><path d="m123.53125 67.32487c-.0156-.44075 0-.70963-.17448-1.17839-.0501-.4388.30012-.92968.14973-1.53515-.10026-.16146-.32552-.35548-.29622-.49349.29622-.92579.31901-1.77865.24609-2.79101-.0723-.3047-.17512-.46876-.27539-.63478.0208-.13606.0729-.4095.12307-.68033.0253-.85091-.24936-1.48047-.4974-2.25-.0755-.29753-.30469-.49089-.35352-.92839-.0976-.16536-.32291-.36068-.30013-.49478.22526-1.23503-.37564-2.22267-.55274-3.39844-.27213-1.34506-1.54492-2.19402-1.94726-3.56316.0176-.13607.43685-.0795.56381-.0495.99479.93099 2.09765 2.02408 2.3776 3.36913.17252.46811.0976.87631.30273 1.20508.84115 1.04036.99415 2.35482 1.14388 3.67123-.0248.13932.2526.0527.34766.22331-.0156.1341-.0677.40689.0325.57356.64843.71224.25 1.47657.375 2.21745.0775.30469.17317.46419.27343.63021-.0253.13932-.34831.49804-.37564.63216.52798.68555.75325 1.58854.60481 2.40886.60091.2806.33008 1.06965.47071 1.67448.10093.16601.23046.194.35546.21353.17318-.24023.3431-.48893.39779-.76432.0755-1.12369.12307-2.10612-.0801-3.14583-.16992-.46876-.22916-.90494.10093-1.26237-.25064-.0567-.33007-.35677-.42577-.52539-.45248-1.806-.63478-3.83333-1.17123-5.6849 0 0 .14519-.1048.17513-.24348-.19141-1.61655-1.41928-3.14128-2.01106-4.7741-.0885-.29297-.5638-.64193-.78516-.95052 0 0 .0143-.14128.03-.27994.63476.086 1.11328.69792 1.45182 1.17122.65495.93424 1.41471 1.972 1.61459 3.01432.34765.93034.86392 1.91016 1.07616 2.82031.13607.60547.57292 1.00065.86589 1.50196.16211.47071.082.87695.12374 1.31901.17513 1.04427.49609 2.05859.69596 3.10026.2474.76628.35417 1.64193.10026 2.30208-.3457 1.20573.44987 2.52214.77279 3.58985.18033.46744-.0481.98697-.24544 1.37109-.0208.13411.19727.33008.16992.46159-.22005.52408-.0429.99023-.14257 1.53841-.14779.10867.16992.46354 0 .70703-.14779.114-.27084.0865-.4297.19596-.19401.38412-.0189.85027-.0976 1.26043-.40104.76626-.19141 1.80793-.94206 2.35612-.27734.082-.30274.22069-.45507.33006.12493.0293.22785.19272.32552.35678-.14779.1068-.27279.0795-.42123.18945-.054.27475.48047.61133.58008.77084-.20442 1.10287-1.01822 2.05793-.9987 3.35025-.0449.27279-.12694.68099-.16992.95704-.2526.6608-.73047 1.12435-.98047 1.77995-.0411.27279-.57161.30468-.62369.58203-.32358.35026-.29102.92838-.52019 1.44921-.17123.24545-.55143.16407-.85156.38217-.34571.49154-.29817.93164-.51823 1.45116-.38021.63412-.83269 1.30991-1.20638 1.93751-.42514.9056-1.14128 1.77929-1.91471 2.46419-.1276-.0253-.4004.0567-.55079.16341-.39518.76953-.85481 1.34701-1.70377 1.72852-.1296-.0201-.31185.57096-.45899.68033-.58658.4388-.92578.93099-1.63346 1.34246-.26627.086-.41406.19401-.70963-.30014-.92188 1.64648-2.16407 2.93424-3.51303 4.0573-.70442.4121-1.41601.36653-1.88281.82877-1.5332 1.51041-3.96745 3.11133-4.24935 3.33659-.11586-.0319-.58268.66862-.58268.66862-.49544.0436-.20833.0865-.67057-.0195 0 0-.0208.77538-.64323.90234-1.32032.26172-1.66797 1.79296-1.76758 2.42774-.0527.31054-.27604.0951-.43034.22461-.14322.12827-.0404.3164-.19792.44531-.57356.35352-1.06185 1.05664-1.54036 1.59896-.15169.12626-.2474-.0651-.39778.0691-.1504.12306-.84766.99478-1.10612 1.7565-.59766 1.33724-1.25262 2.5293-2.08334 3.47396-.19986.22916.47135 1.11848.42123 1.42318-.19336.42057-.57357.48958-.75717.91276-.17578 1.04817-.22266 2.21224-.40104 3.32292-.30012 1.08073.0749 1.85156.2168 2.81574.16601.81446-.0411 1.8633 0 2.6504.0592.63672.49024 1.33268.41862 1.94922.0248.94922-.19141.82161.0136 1.61979-.0273.46354-.18229.92578-.0755 1.24674-.0364.62045-.13412 1.01042-.16863 1.63086-.13411.14779-.40495.44271-.41405.59831-.0951 1.55795-1.11654 2.92968-2.18555 3.95573-.65495.42252-1.22852 1.07356-1.98828 1.01627-.38216-.0221-1.64649.7806-2.07032.88281-1.12109.3138-2.01301.32098-3.08593.17319-1.18295-.32553-2.125-.61849-2.94142-1.83333-.48046-.53972-1.31705-.3366-1.6315-1.16667-.0905-.33008-.77279-.49611-.88932-.67188-.61915-.55924-.94858-1.23243-1.41276-1.92448-.3138-.82748-.0885-1.39648-.46615-2.19921-.38607-.48959-.55469-.83986-.9388-1.33074-.51693-.65494.11587-1.59635-.26172-2.24543-.26368-.17319-.52409-.50066-.64909-.82098-.24804-.63672-.18815-1.56509-.57031-2.24282-.20704-.81186-.0755-3.74675.084-4.53842.0293-.16081-.42513-.38152-.403-.54297.0637-1.14063.45964-2.24805.36849-3.42188.11654-.6302.0639-1.13997.63476-1.67839 0 0-.27213-.21874-.24349-.3776.33269-.91861.33269-1.62434.51497-2.58202.0287-.15626.36068-.25.38803-.41147-.18164-.69791-.1862-2.11588-.0657-2.75064.0619-.31316.8737-.78712 1.06706-1.07097.0273-.15624-.1204-.56446.1862-1.11263.0781-.13412.29362-.0951.45116-.22265.0221-.15951-.0795-.34766-.0508-.5026.0775-.47527.87826-.82098.93815-1.13543.31316-1.07747.85483-1.52604 1.42188-2.40234.20377-.38608.2832-.79557.61784-1.153.14779-.1068.22591-.004.24804-.14062.0248-.13672-.0456-.4414-.0221-.57292.3177-.36003.7565-.68815.82748-1.09896.22525-.52148.41601-.9056.73306-1.26432.58855-.4375 1.17514-.87891 1.53646-1.50391.31445-.36003.68034-.27408 1.0013-.63281.45964-.46615.58464-1.15104.92839-1.64454.80729-.96224 1.68099-1.61978 2.5612-2.27733.72787-.55079 1.6582-.76888 2.36588-1.17969.72983-.54688 1.16928-1.5905 1.87696-2.00195.4362-.33008.94987-.35483 1.39192-.68555.44076-.32682.80535-.95704 1.46224-1.0957 1.45833-.38738.41601.0248 1.78125-.52344.85287-.51888.49544-.66342 1.35547-1.1849 1.41276-.82877 2.14713-1.34961 2.26823-1.31966.14518-.11134.29166-.22006.34114-.49544.3392-.49415 2.15431-1.76367 2.42254-1.84571.26822-.0833.58398.27084.89908-.0833.16993-.2461-.16862-.4694 0-.71484.46354-.46355.9069-1.0944 1.36198-1.42383.14323-.1068.50066.11.77344.028.14779-.10813.19596-.38543.34831-.48699.17512-.25-.15235-.60806.0221-.85546.20247-.38476.39844-.76432.67578-.84636.42513-.19596.99609-.49348.92578-.79427.0957-.55013.31836-1.07421.8991-1.37369.0201-.13478.0495-.27735.0723-.40951.32096-.35743.6211-.57292.95312-.93295.33855-.49284.19402-1.09634.39323-1.48046.65104-.71224 1.27475-1.28516 1.44661-2.24479-.0495-.4362-.32226-1.07097-.1244-1.45443.17514-.2448.72527-.41081.77475-.681.10093-.55208-.17448-1.18164-.20183-1.7565.0755-.41016.52083-.74024.47331-1.17643-.0508-1.1556.0273-2.27931-.15039-3.45769.39583-.0527.45052-.32747.4987-.60286-.1028-.8763-.60091-1.69466-.82423-2.60417-.0248-.57356.44401-1.03971.42384-1.61328-.0508-.4388-.47136-.95964-.92644-1.3444-.42317-.52084-.14973-1.31185-.30013-1.91732-.12307-.73959-.67578-1.28971-.77083-2.16341-.0521-.4414-.58073-.41211-.75325-.87826-.15235-.60286-.29819-1.20508-.29819-1.91926-.0768-.30014-.47721-.2461-.70312-.43751-.50195-.82291-.32161-2.49284-1.42773-2.87695.0996-.54882-.39388-.6582-.57552-1.12174.65038 0 1.25065.27344 1.62369 1.0677.1048.16342.47592.24479.60352.27475.32683.35481.29948 1.20507.65235 1.42577.44792.38022 1.12174.24415 1.29426.70964.2526.76498.82552 1.17904 1.10808 1.8112-.03.13346.0429.43359.14323.60026.45443.38541.5.82161.82356 1.17838.74609.8737 1.50325 1.75651 1.1504 2.95964-.21811.52344.45312.38216.64843.70963.50781.82617.30274 1.92188.95573 2.63217-.12307 1.39843.55079 2.69075.97787 3.91862-.72527 1.1263-.32487 3.09374.25065 4.21549 0 0 .39973-.0527.42968-.1888.11853-.68424 1.36655-.91407 1.16472-1.24219-.24805-.76888-.62565-2.3724-.62565-3.08268.0781-1.12565.12493-2.11198-.0547-3.29101-.0976-.16603-.19791-.32943-.29361-.49349-.15235-.60287-.30014-1.20834-.17774-1.89063-.0749-.30273-.30208-.49609-.375-.79167.0253-.14062.0729-.41341.10027-.54817.27475-.084.62371.13476.86849.1914.23243.19076.03.57096.13214.73763.39844.6595.9987.9349 1.1237 1.67122-.0248.13607-.0749.41147-.0951.54754.0951.87629.61913 1.56314.74609 2.30533.0521.4362-.32097 1.06576-.14584 1.53645.57097 1.1198.59636 2.40691.50716 3.66732-.10227.54819.5892.98568.38868 1.3698-.19011.38411.058.4388-.14713.82291-.0253.13672-.30079.21876-.32098.35483.37306.79686-.19336 1.99934-.31836 2.68749-.0228.13607.42514.28191.51628-.21809.0567-.30795.57552-.30339.84831-.38542.30469-.22266.52344-.74154.49805-1.31706m2.6888 2.73893c.0273-.69596.35287-1.20312.22787-1.94271-.24545-.76888-.81445-.007-1.21485.0501.22721.90298-.14779 1.5332-.42512 2.32226-.17123.25-.29363.93555.10226.87826.6302.14322 1.29231-.45639 1.3099-1.30795m-1.06576 3.75391c.1582-.21875.0879-.66016-.14648-.85352-.34311-.21614-.79363.11133-.99415.49609-.19987.38412-.0521.98893.47787.95769.12306.0312.49089-.34766.66276-.60026z"/><path d="m117.80664 50.44011c.66341.50194.92317 1.34114 1.45508 2.02864l-.0573.2754c-.92317.79426-1.72396-.5215-1.97396-1.28972-.37565-.79623-.74609-1.58984-1.42382-2.16276.0228-.13932.0481-.278.0775-.41407-.32942-.35807-.74804-.87435-.32942-1.06705.17448-.24544.48177.24805.82748.46028.52344.69076.62369 1.5625 1.42448 2.16928z"/><path d="m121.58658 46.92317c.0107.13868-.21354.375-.24349.50912-.4362-.40038-.86719-.80469-1.24869-1.47656-.11974-.0377-.37044-.0996-.46484-.27018-.1224-.0345-.0924-.16602-.0605-.30208.39779-.0391.70768.33202 1.05534.56314.12106.0352.27604-.0697.39778-.0377.33659.23568.528.57031.56446 1.01432z"/></g><path d="m65.20052 72.14583c.11787.0951.29752.2474.38932.375.20248.13213.41147.14778.63021.0521.20183.0136.39127.55077.60222.5664.29622.13932.48958.67317.7832.93099.19726.12893.40625.32032.61133.45442.27995.3659.46679.72527.76172.97527.194.25065.50976.16145.71875.17839.41016.14713.57552.73697.86522 1.10286.10414.009.28647.3711.27931.48698.19791.12893.38672.37044.6914.51172.0937.1276.082.35221.17579.47721.7526 1.21289 1.74153 1.97917 2.3815 3.29817 0 0 .082.23894.0795.35352.778.75522 1.11653 1.81706 1.78776 2.67708.18229.35743.35221.94662.52084 1.41928.19856.24804.39648.3776.58268.62826.28385.47916.55468 1.08008.61848 1.6582-.0163.22721-.16992.90494-.569.52734-.48438-.5-.43164-1.18034-.92774-1.57161.007-.112-.12493-.41212-.22526-.52735-.20052-.24218-.55729-.22786-.63672-.57422.0208-.3457-.36459-.625-.55924-.86392-.49609-.71224-1.21484-.97331-1.81055-1.69207-.10746-.004-.2168-.009-.32357.0996-.11387.22265-.4388.55273-.13607.91211.40495.2487.59571.71614 1.11199.96874.30208.2461.3776.94011.5664 1.52279.19531.23373.39844.47267.70508.60677.30533.2409.18489.60483.4668.97592-.005.1152-.11853.21875-.1276.33398.1862.36198.60546.27734.89649.64649.22656-.21159.53124-.0384.71615.29167-.34376.3203-.25262.55468-.38478.89582-.35221.53711.44596 1.06186.94662 1.33204.31576.028.27474.60156.57161.85156.17904.36198.69988.4043.98243.88932.0879.23438-.13027.33464-.25066.55079-.0319.34504.38216.49348.57552.62564.19987.13147.29167.36915.37826.60677-.319.0865-.93555-.34114-1.24935-.36522-.19401-.0899-.57096-.54428-.97331-.63152-.14192-.0312-.23437.30144-.3776.27149-.19596-.0345-.39648-.0775-.60352-.11133-.22005-.0416-.74804-.62631-.97786-.66016-.26107-.0456-.57812.43425-.82943.38868-.94465-.16147-.98372-.2194-1.27473-.34702-.35027-.13932-.68295-.30077-.99609-.4785-.19792-.10867-.14584-.37956-.33204-.50262-.1914-.1244-.60091-.12306-.79231-.24284-.75456-.45768-1.4668-1.50389-2.11068-1.83593-.42057-.22071-.778-.43749-1.24869-.66471-.23112-.14518-.39324-.46158-.68035-.55925-.88932-.29817-1.59635-.85937-2.60416-1.14192-1.90821-.54101-3.49871.55273-5.05013 1.35807-.0847-.005-.24806-.0163-.33464.0411-.35416.3021-.77995.47071-1.13086.70508-.47917.38216-1.14778.48178-1.68554.79623-.16732.0996-.18555.40691-.34702.50781-.25976.14714-.70768.17708-.95572.33464-.22266.14192-.25716.4108-.4733.57227-.44792.35937-.88478.65299-1.48503.93749-.34571.17318-3.20704.66407-3.68555.67058-.73893.0136-1.24805.62044-2.34961.61653-1.67383-.009-3.34831-.0411-4.74024-1.07617-.28905-.25651-.34569-.94987-.54621-1.08268-.59767-.39127-.54103-1.18946-.70704-1.77799-.20052-.1328-.61719-.16407-.58984-.51043.22786-1.70768 1.07226-3.25064 2.10937-4.42838.23828-.44335.77539-.63086.82096-1.20116 0 0 .93295-1.30535 1.48959-1.83399.12493-.22005-.0585-.58204.0644-.80079.85286-1.65754 2.40625-2.79752 3.66406-4.30338.33724-.3164.57943-.75716 1.10547-.83072.21615.0143.41667.0325.53907-.18555.25064-.55535.694-.86524 1.02148-1.06967 1.21484-.82292 2.23177-2.0677 3.61002-2.29492.21615-.10226.33854-.31641.55078-.41928.23373-.21093.62761.0528.84376-.0449 1.02733-.46419 1.96744-1.46028 3.02344-1.60351.21549-.0931.33658-.31641.43814-.30925.93686.0795 2.04558-.75129 2.92383.12893.79297-.16536 1.97787 0 2.48112.43099m7.17708 10.03972c.001-.1152.004-.22916.0133-.34309-.41406-.25262-.59114-.94923-1.10937-1.08724-.10547-.004-.31707.10026-.32552.21353-.0221.68945.27083 1.16276.55989 1.74675.1224-.44987.43164-.43424.63476-.0853.10414-.10546.21615-.32878.22722-.44466z" fill="#359a3e"/></g></svg>
