<svg xmlns="http://www.w3.org/2000/svg" viewBox="0 0 1200 800" height="800mm" width="1200mm"><g transform="translate(0 503)" fill-rule="evenodd"><rect y="-503" height="800" width="1200" fill="#004b95"/><path d="m 407.93019,384.39264 c -8.7761,4.4e-4 -15.8899,5.95857 -15.88858,13.30771 0.001,7.34738 7.11423,13.30354 15.88858,13.30376 4.86543,-6.6e-4 9.4624,-1.8687 12.47491,-5.06765 h 12.2751 v 7.79547 h -32.75648 v 6.26806 h 32.75648 v 11.80551 l 7.67484,-0.002 v -47.30188 l -7.67484,-0.002 v 6.03008 H 421.298 c -2.91645,-3.81944 -7.95427,-6.13251 -13.36781,-6.13777 z m -137.95832,0.10966 -8.04047,0.004 0.004,8.03652 h -23.93256 v -8.03652 h -8.1872 v 22.68544 c 0,0 0.004,2.64492 2.64491,2.64492 h 37.51137 z m 45.81152,0 v 40.41246 l -23.5972,-0.004 v -9.03886 h -8.09684 v 13.26231 c 0,0 0.0217,2.67123 2.67124,2.67123 H 324.1364 V 401.4871 h 6.11496 v -7.06071 h -6.11496 l -0.004,-9.92409 z m 57.22377,0 v 21.55896 h -6.02832 v -19.18513 l -28.62319,0.17546 v 5.90791 h 20.88825 v 13.09277 h -7.6108 v -9.19701 h -7.61453 v 9.19701 h -7.6108 v 6.14873 h 12.13188 c -2.14068,2.45805 -3.29743,5.43065 -3.30423,8.48505 0.002,7.91743 7.5768,14.33528 16.92076,14.33594 9.34571,10e-4 16.92295,-6.4172 16.9247,-14.33594 -0.006,-3.05397 -1.16246,-6.02656 -3.3005,-8.48505 h 4.89789 l 0.004,-11.38483 h 7.48644 v -6.27441 h -7.48644 v -10.04845 z m -78.1686,0.88171 c -1.32257,0.15354 -2.27403,1.35767 -2.27556,1.36863 l -14.92024,19.00419 6.213,5.11283 11.26552,-14.49056 11.38593,14.61492 6.27331,-4.87179 -15.28564,-19.36959 c -0.93654,-1.16465 -1.86212,-1.45636 -2.65632,-1.36863 z m 113.21972,6.24305 c 4.37544,-2.2e-4 7.92269,2.75612 7.92335,6.15641 0.002,3.40205 -3.54615,6.16058 -7.92335,6.16014 -4.37741,4.4e-4 -7.92554,-2.75809 -7.92356,-6.16014 8.7e-4,-3.40029 3.54812,-6.15663 7.92356,-6.15641 z m 15.68483,4.81147 h 8.93709 v 4.08044 h -9.24218 c 0.24565,-0.92557 0.37286,-1.87089 0.37944,-2.8184 -10e-4,-0.42112 -0.0219,-0.84224 -0.0658,-1.26116 z m -185.74032,2.00908 h 23.93234 v 5.54228 H 238.00279 Z M 362.15618,412.471 c 5.06392,4.4e-4 9.16893,3.58453 9.17068,8.00625 6.6e-4,4.42348 -4.10523,8.00976 -9.17068,8.0102 -5.06546,-4.4e-4 -9.17112,-3.58672 -9.17047,-8.0102 0.002,-4.42172 4.10676,-8.00581 9.17047,-8.00625 z M 226.564,415.83181 v 5.68529 h 19.11802 v 11.44647 l 7.44915,0.004 -0.001,-11.44997 19.80694,-0.004 v -5.68178 z m 233.40102,-29.37943 -15.28476,22.8359 5.84584,3.8973 12.11827,-17.90336 11.81363,18.08606 5.96778,-3.95827 -15.65017,-22.95763 c -2.34662,-3.59528 -4.81059,0 -4.81059,0 z m 24.17931,-1.94986 v 47.30363 h 8.35367 v -47.30363 z" transform="matrix(3.00827 0 0 3.00827 -481.6 -1091.7)" fill="#fff"/><g fill="#bbb"><path d="M 204.87,420.252 178.71,395.14 c -4.311,5.241 -8.523,10.738 -8.523,10.738 -5.476,7.986 -11.18,9.584 -11.18,9.584 -10.723,2.281 -19.623,0 -19.623,0 6.427,-1.245 25.471,-25.844 28.901,-30.33 L 153.53,370.967 c 0,0 -2.965,-3.65 -7.072,0.457 l -24.643,22.132 c 0,0 7.073,-0.228 9.811,0.914 0,0 4.412,1.369 6.846,4.791 0,0 3.422,6.617 6.161,6.617 0,0 1.825,3.879 -7.304,4.107 0,0 -5.703,-0.457 -7.757,-7.072 0,0 -1.596,-7.304 -9.353,-7.986 l -26.2429,25.784 c 0,0 -2.0518,1.749 -0.6831,2.966 h 66.398 c 0,0 1.826,-7.531 6.161,-2.283 0,0 2.282,-4.107 5.022,-0.457 0,0 1.594,-7.758 7.072,-2.052 0,0 3.194,-8.443 7.301,-4.336 0,0 2.51,0.913 3.422,5.932 0,0 3.879,-5.477 5.933,3.196 0,0 -49.286,0.912 -84.652,18.023 l 13.233,13.007 c 0,0 46.548,-23.045 75.069,-28.293 0,0 -35.595,13.461 -62.975,39.701 l 10.268,10.04 c 0,0 3.651,4.334 8.67,-0.456 l 51.339,-49.057 c 0,0 2.738,-4.336 -0.684,-6.39 z" transform="matrix(3.8675 0 0 3.8675 21 -1851.5)"/><path d="m 168.98,384.44 c 11.637,-13.464 33,-5.932 33,-5.932 -4.335,0.228 -14.603,7.528 -14.603,7.528 0,0 -4.792,4.25 -8.443,9.041 l -10.582,-9.898 z" transform="matrix(3.8675 0 0 3.8675 21 -1851.5)"/></g></g></svg>
