<svg xmlns="http://www.w3.org/2000/svg" viewBox="0 0 1200 800">
  <rect x="0" y="0" height="800" width="1200" fill="#fff"/>
  <g clip-rule="evenodd" fill-rule="evenodd" image-rendering="optimizeQuality" shape-rendering="geometricPrecision" text-rendering="geometricPrecision">
    <g fill="#fa3421">
      <path class="fil9" d="M604.7 337.8c93.3-18.2 145.4 33.7 172.8 79.5a199.3 199.3 0 0 0 18.7-130.5c-206.7-35.7-272.1 121.3-292.6 213.7a200.5 200.5 0 0 0 238.2-34.6C700.9 340.1 605 337.5 605 337.5z" fill-rule="nonzero"/>
      <path class="fil9" d="M729.4 174a268.3 268.3 0 0 1-86.4 91.8c28-33.7 42-81.5 49-117a201.2 201.2 0 0 0-91.9-22.1A199.6 199.6 0 0 0 432 218c29.1 24.8 94.5 65.6 201 54.7 0 0-114.3 19.9-223.1-8.6A198.2 198.2 0 0 0 453 461c57.8-192.4 283.6-204 335.2-204.2a199.5 199.5 0 0 0-58.2-83zm-136.2 87.2a33.2 33.2 0 0 1-33.4-33.1 33.4 33.4 0 0 1 66.8 0c0 18.1-15 33-33.4 33z" fill-rule="nonzero"/>
    </g>
    <path class="fil8" d="M761 610c0 7.5 1.9 14 6 19.2s12.3 8.1 17.9 9.2l-6.4 5.6c-4.5-.3-12-1.7-16.5-5-4.2-3.4-7-6.7-8-10.3-.9 3.6-3.7 7-7.9 10.3-4.2 3-11.4 4.4-15.6 4.7l-6.7-5.6c5.6-.8 13.1-3.6 17.3-8.9s6.1-11.7 6.1-19.2V594.6h13.4V610zm25.6-17H800v78.9h-13.4v-79zM509.3 602.4H486v-7.2H546v7.2h-23.4v.6c0 5.9 3 10.9 9.5 15a33.7 33.7 0 0 0 19.5 6.8l-7 6c-5.5 0-10.6-1.6-16.7-4.4s-10-5.8-12-9.7c-2 3.9-5.9 7-11.7 9.7a42 42 0 0 1-17.6 4l-6.4-5.6c6.7 0 13.4-2.3 19.5-6.7s9.5-9.5 9.5-15.1zm0 41.6h-31.5v-7.2h76.4v7.2h-31.5v27.3h-13.4V644zM681.4 631.7c2.8-1 5.3-2.8 7.5-5h17v9.2h13.4v-43H706v7.6h-16.2a22.1 22.1 0 0 0-17.6-7.5c-6.1 0-11.4 2-15.9 5.8s-6.7 8.7-6.7 14.2 2.2 10.4 6.7 14.3 9.8 5.8 16 5.8c3.3 0 6.3-.5 9.4-2zm13.1-21.2c-.3-.8-.3-1.6-.5-2.8h12v11.8h-12.3c.3-.9.8-2 .8-3.1.3-1.1.3-2.2.3-3.4 0-.8 0-2-.3-2.7zm-29 12c-2-2.5-2.8-5.6-2.8-9.2s.9-6.7 2.8-9.2 4-3.9 6.4-3.9 4.8 1.4 6.7 4 2.8 5.5 2.8 9.1-.8 6.7-2.8 9.2-3.9 4-6.7 4c-2.5 0-4.7-1.5-6.4-4zM719 650.4a8.9 8.9 0 0 0-8.9-8.3H660v7.2h45.8v22.9H719v-21.8zM595 602.2v9.7c0 2.3 0 4.5-.3 6.7s-.9 4.2-1.4 5.9h11.4a27.3 27.3 0 0 0 3.6-13.1v-8.1c0-4.8-3.9-8.7-8.9-8.7H564v7.3h31z" fill-rule="nonzero"/>
    <path class="fil8" d="M628.4 608.9v-15.7H615v33a70.4 70.4 0 0 1-14.8 2H586v-17.4h-12.5v17.3h-12.6v7.3h38.8a36.8 36.8 0 0 0 15.6-3v7.1h13.4v-23.1H642V609h-13.4z" fill-rule="nonzero"/>
    <path class="fil8" d="M619.5 644c-4.8-3.6-10.3-5.3-17-5.3s-12.3 1.7-17 5.3-7 7.8-7 12.8 2.2 9.2 7 12.9 10.3 5.3 17 5.3 12.2-1.7 17-5.3 7-7.8 7-12.9-2.3-9.4-7-12.8zm-9.2 20.4c-2.2 2.2-4.8 3.3-7.8 3.3s-5.6-1.1-7.8-3.3-3.1-4.8-3.1-7.6 1.1-5.5 3-7.5c2.3-2.2 4.8-3.3 7.9-3.3s5.6 1 7.8 3.3 3 4.7 3 7.5-1 5.3-3 7.6zM432.9 601.3v9.8c0 2.2 0 4.5-.3 6.7s-.8 4.2-1.4 5.8h11.4a24 24 0 0 0 3.6-13.1v-8c0-4.8-3.8-8.7-8.9-8.7H403v7.2H433z" fill-rule="nonzero"/>
    <path class="fil8" d="M466.3 608v-15.6H453v33a70.4 70.4 0 0 1-14.8 2l-14.2-.1V610h-12.6v17.3H400v7.2h37.6c3 0 5.9-.3 8.7-.8s5-1.4 7-2.2v7.2h13.3v-23.1H480v-7.3h-13.4z" fill-rule="nonzero"/>
    <path class="fil8" d="M457.1 643.2c-4.7-3.7-10.3-5.3-17-5.3s-12.2 1.6-17 5.3-7 7.8-7 12.8 2.3 9.5 7 12.8c4.8 3.7 10.3 5.3 17 5.3s12.3-1.6 17-5.3 7-7.8 7-12.8-2.2-9.5-7-12.8zm-9.2 20.3c-2.2 2.3-4.7 3.4-7.8 3.4s-5.5-1.1-7.8-3.4-3-4.7-3-7.5 1-5.6 3-7.5a10.7 10.7 0 0 1 15.6 0c2.3 2.2 3.1 4.7 3.1 7.5s-1.1 5.3-3 7.5z" fill-rule="nonzero"/>
    <path d="M0 750v50h1050l-75-50z" fill="#22304f"/>
    <path d="M975 750l75 50h150l-75-50z" fill="#fa3421"/>
  </g>
</svg>
