<svg xmlns="http://www.w3.org/2000/svg" viewBox="0 0 1350 900">
  <g transform="translate(0 603)">
    <rect y="-603" height="900" width="1350" fill="#fff"/>
    <g clip-rule="evenodd" fill-rule="evenodd" image-rendering="optimizeQuality" shape-rendering="geometricPrecision" text-rendering="geometricPrecision">
      <path d="M654.5295-163.1598c46.7118 31.457 119.8588 42.448 188.1735 4.8323-32.6887 55.334-91.2442 91.339-155.5795 95.3185h-24.1612c-10.5173-.6633-21.1292-2.1793-31.7413-4.6428C542.535-88.023 481.9898-166.0023 480-253.0775v-9.1908c.2843-12.9807 1.895-26.0562 4.927-39.2265 20.466-88.8755 98.6348-149.5155 185.8995-151.221h7.4853c9.854.1895 19.8027 1.137 29.8463 2.8425 0 0 39.7002 6.9168 60.1662 42.069 7.6748 12.6965 13.8335 27.3828 17.813 44.0588l.0948.379c4.8322 22.2662 4.927 45.859-.5685 69.4517-8.4328 36.4788-28.9935 70.5888-55.713 88.8755l-.1895.1895c9.2855-9.6645 16.2022-21.7925 19.329-35.8155 9.475-41.0267-16.1075-81.864-57.1343-91.2442-41.0267-9.475-81.864 16.2022-91.339 57.1342-2.7477 11.8438-3.1267 23.6875-.8528 34.6785 0 0 7.201 46.238 54.7655 76.8423z" fill="#005eb8" fill-rule="nonzero"/>
      <path class="fil1" d="M637.8536-190.732c17.5287 9.7592 38.5632 14.2124 38.5632 14.2124 47.8488 10.991 95.7923-.9475 132.1763-28.3302l.2842-.1895c16.2023-11.4648 30.6043-26.151 42.1638-43.8693 7.3905-11.2752 13.1702-23.2137 17.434-35.4365.9475 8.2433 1.3265 15.8233 1.516 22.8348v9.3802c-.5685 28.425-6.3483 43.964-6.3483 43.964-13.4545 16.0128-27.5722 25.772-27.5722 25.772-36.2893 26.8143-83.0958 37.3315-130.4708 26.4353 0 0-40.932-8.6223-67.6515-34.868z" fill="#00b2a9" fill-rule="nonzero"/>
      <path class="fil1" d="M685.7023-182.2045c74.7578 5.9692 144.8727-48.2278 162.212-116.4478 0 0 5.2112-21.5082 5.4008-37.4262 0 0-15.539-40.7425-57.8923-74.8525 16.3918 32.3097 21.982 70.2097 13.265 108.2992-13.265 57.608-56.092 100.814-108.8678 117.0162-4.4532 1.3266-9.3802 2.5583-14.2125 3.3163z" fill="#00b2a9" fill-rule="nonzero"/>
    </g>
    <g transform="translate(391.2476 50.4943) scale(.14234)" fill="#545859" clip-rule="evenodd" fill-rule="evenodd" image-rendering="optimizeQuality" shape-rendering="geometricPrecision" text-rendering="geometricPrecision">
      <polygon points="826 18 736 18 736 409 826 409" class="fil1" fill-rule="nonzero"/>
      <polygon points="3785 18 3696 18 3696 673 3785 673" class="fil1" fill-rule="nonzero"/>
      <polygon points="1326 219 1457 219 1457 409 1546 409 1546 18 1457 18 1457 143 1326 143" class="fil1" fill-rule="nonzero"/>
      <polygon points="1074 47 939 47 939 123 1062 123 916 373 1012 373 1119 192 1225 373 1322 373 1175 123 1299 123 1299 47 1164 47 1164 -5 1074 -5" class="fil1" fill-rule="nonzero"/>
      <polygon points="3102 483 3201 483 3380 135 3559 483 3659 483 3431 40 3430 40 3330 40" class="fil1" fill-rule="nonzero"/>
      <polygon points="3046 672 3045 429 2452 429 2452 505 2956 505 2956 672" class="fil1" fill-rule="nonzero"/>
      <polygon points="830 581 345 581 345 442 256 442 256 657 830 657" class="fil1" fill-rule="nonzero"/>
      <polygon points="1543 581 1049 581 1049 442 960 442 960 657 1543 657" class="fil1" fill-rule="nonzero"/>
      <polygon points="2816 99 2956 99 2956 223 2816 223 2816 300 2956 300 2956 392 3046 392 3046 22 2816 22" class="fil1" fill-rule="nonzero"/>
      <path d="M2121 596c-58 0-104-47-104-104 0-58 47-104 104-104 58 0 104 47 104 104 0 58-47 104-104 104zm64-279c-20-7-42-12-64-12-11 0-22 1-32 3V29h-434v76h345v170h-144V164h-90v111h-127v76h358c-39 34-63 84-63 140 0 103 84 187 187 187s187-84 187-187c0-39-12-76-33-106V98h63V21h-153v294zM389 102c58 0 104 47 104 104 0 58-47 104-104 104-58 0-104-47-104-104 0-58 47-104 104-104zm0 291c103 0 187-84 187-187S492 19 389 19s-187 84-187 187 84 187 187 187zM2590 92c58 0 104 47 104 104 0 58-47 104-104 104-58 0-104-47-104-104 0-58 47-104 104-104zm0 291c103 0 187-84 187-187S2693 9 2590 9s-187 84-187 187 84 187 187 187z" class="fil1" fill-rule="nonzero"/>
    </g>
  </g>
</svg>
