<svg xmlns="http://www.w3.org/2000/svg" viewBox="0 0 1200 800"><defs><clipPath clipPathUnits="userSpaceOnUse" id="a"><path d="M 0,840 H 592 V 0 H 0 Z"/></clipPath></defs><path fill="#13a439" d="M0 -503H1200V297H0z" transform="translate(0 503)"/><path d="M604.7718 164.12896c-18.10944 0-32.78472-4.85462-32.78472-10.84561 0-5.98821 14.67528-10.84283 32.78472-10.84283 18.11223 0 32.78751 4.85462 32.78751 10.84283 0 5.99099-14.67528 10.84561-32.78751 10.84561m68.40478-80.4174H662.8908V60.602663l-19.42685-.0557.0306 45.226257-14.02075.0223V75.383779c0-4.609525-4.40064-8.046475-8.54782-8.046475l-77.42608-.0056-.0446 15.502485 66.53312-.0056V105.815l-26.69346-.008V89.933722L563.9601 89.91701v15.88406l-23.61859-.008v15.41336l103.14472-.008.006 12.0154c-10.31642-4.33379-23.71885-6.97696-38.72-6.97696-32.09956 0-58.1385 12.1101-58.1385 27.04719 0 14.93987 26.03894 27.04997 58.1385 27.04997 31.89067 0 57.65108-11.94299 58.00759-26.73803l.11141-54.403527h10.25793zm-165.08762-19.782305l-111.98498-.01671.0306 15.455137 100.33723.0557v37.527938l-103.57643.0195v15.41057h52.22827v43.97848l19.30152.0195v-43.99241h56.04959l-.0139-15.43007h-4.58446l-.0111-47.440504c.0223.253454 0-.264595 0 0-.34815-4.225165-3.88815-5.550926-7.77631-5.587134M257.4281 153.39867c-4.40621 0-7.42816-3.79903-7.42816-8.41134l.008-78.233792 55.23074-.06128V82.21703l-35.85402.0028v55.67915l49.51269.039V60.578725l19.4547-.09748v44.474245h12.02654l-.0334-44.493741 19.39342.02785-.0306 115.839711H350.39844V120.40227H338.3524v55.92704H318.8977V153.41817zM930.57591 60.545422c0 .181038-.0251 42.385338-.0362 76.234008-16.10131-.2061-28.20026-2.5234-33.62864-8.19409-13.41915-14.03468-15.53592-24.83851-17.33795-36.653374-.57097-3.729398-.54033-10.661788-.54033-10.661788l-.006-17.986894-19.48534-.02228-.0306 18.009175c0 0 .0306 6.93239-.53198 10.661788-1.80481 11.814863-.93026 24.908143-15.76151 38.009773-7.29447 6.43941-16.08738 10.73142-22.09229 12.87882l13.6531 13.13784c13.79794-6.45891 21.51297-13.37459 26.58206-20.33483 2.60138-3.57064 5.12757-7.08 7.99912-14.82289 2.8632 7.74289 5.30583 11.41379 8.40577 14.46081 15.24068 14.9928 30.17777 18.60521 52.76305 18.11502l.0557 22.95292h19.41571V60.567703zm-154.677 38.323936c.17268-1.091802.27017-2.197531.27017-3.325542 0-1.25613-.12812-2.487193-.34258-3.704331h15.04292v7.013162zm-43.73895 11.672822c-12.95124 0-23.44591-6.71236-23.44591-14.998364 0-8.283218 10.49467-15.001147 23.44591-15.001147 12.9568 0 23.45426 6.717929 23.45426 15.001147 0 8.286004-10.49746 14.998364-23.45426 14.998364m78.02768-49.941622l-19.31822-.0557V76.33143l-24.5015-.02228c-8.06319-6.929605-20.38775-11.363661-34.20796-11.363661-24.30376 0-43.9952 13.700454-43.9952 30.598329 0 16.897872 19.69144 30.598332 43.9952 30.598332 14.17951 0 26.7798-4.66802 34.82906-11.90678h23.8804v17.82535l-92.9982-.006v15.40221l92.91186.0557v28.81579h19.46862zM681.02993-62.661578c0 16-9.17358 22.860377-23.73208 22.860377-5.3132 0-13.2-1.35849-18.34339-7.369811-3.13208-3.728302-4.34717-8.637736-4.50566-14.735849v-40.301889h12.30566v39.456606c0 8.467924 4.66792 12.196226 10.30189 12.196226 8.28679 0 11.66792-4.237735 11.66792-11.603773v-40.049059h12.30566zm-81.73439-11.52h24.13585v32.773584h-8.04528l-1.20378-7.626415c-3.06037 3.728302-7.48679 9.230189-18.02641 9.230189-13.91321 0-26.5434-10.501887-26.5434-31.837736 0-16.603773 8.76981-32.264154 28.23396-32.177354 17.70189 0 24.69434 12.105656 25.3434 20.490562h-12.06792c0-2.373585-4.10189-9.992453-12.63019-9.992453-8.60378 0-16.56981 6.264151-16.56981 21.849057 0 16.596226 8.60754 20.916981 16.81132 20.916981 2.6566 0 11.50188-1.101887 14-13.377359H599.29554zM561.00312-91.4573h-30.64529v12.784906h28.15472v10.75849h-28.15472v15.74717h32.0151v10.758491h-43.84151v-60.803777h42.4717zm-88.32714 37.510707h21.32076l3.69811 12.535849h13.10943l-20.35094-60.799996h-13.91321l-20.59622 60.799996h12.71321zm10.61887-34.54717h.15849l7.16227 24.045283h-14.71699zm-77.72531 47.084326h25.02264c19.06415 0 23.96981-18.8 23.96981-31.841509 0-11.516981-4.02264-28.958494-23.49056-28.958494h-25.50189zm11.82642-50.30566h11.5849c5.14717 0 13.27547 1.445283 13.27547 19.396226 0 9.992453-3.30188 20.407547-13.1132 20.407547H417.39596zM651.83265-386.3333L490.47416-129.94085c0 0 127.49057-5.64528 192.87925 5.64528 0 0 133.13584 18.8151 97.85283 59.743401 0 0-15.05283 16.464151-67.74717 28.218868 0 0 95.97358-4.701887 109.61509-50.320755 0 0 5.64151-14.116984-2.35472-26.350944zm-58.08489 14.20082l-153.36226 240.86793c0 0 26.3434-2.35472 31.04906-1.87925l136.42641-212.17358zm-218.7541 255.45389l143.95472-226.75849 20.23019 34.8151-115.26038 180.18113c0 0-41.39623 7.99245-48.92453 11.76226M250 8.5H950V18.9H250z" fill="#d7a54d" transform="translate(0 503)"/></svg>
