<svg xmlns="http://www.w3.org/2000/svg" viewBox="0 0 1200 800">
  <path fill="#00b398" stroke-width=".3" d="M0 0h1200v800H0z"/>
  <g clip-rule="evenodd" fill-rule="evenodd" image-rendering="optimizeQuality" shape-rendering="geometricPrecision" text-rendering="geometricPrecision">
    <g fill="#fc1">
      <path d="M589.2 312.7l-18.4-202a85.6 85.6 0 0 0-53.3 105.9 84.9 84.9 0 0 0-49.4-15.8c-29 0-54 14.5-69.1 36.2zM584 331.1l-197.5-46c.7 34.8 23 67.7 58 79.6 8.5 2.6 17 4 25.6 4a84 84 0 0 0-17.8 118.5L584 330.4zM600.4 340.3l-104 173.8a85 85 0 0 0 105.3-54 87 87 0 0 0 30.3 42.2c23 17 52 20.4 77 11.8L600.4 341zM609.6 312.7L796 233a85.1 85.1 0 0 0-117.2-17.8 84.8 84.8 0 0 0-55.3-106.6zM614.9 329.8l133.6 152.7a84 84 0 0 0-19-116.5 84.8 84.8 0 0 0 84.2-86.2l-198.2 50z" class="fil0" fill-rule="nonzero"/>
    </g>
    <path class="fil1" fill="#fff" fill-rule="nonzero" d="M391.3 652.5h8V622h16.5v98h-16.5v-54h-8v54h-16.5v-19H319v-76.8h46v13.3h-30.3v50h40.1V622h16.5z"/>
    <g fill="#fff">
      <path class="fil1" fill-rule="nonzero" d="M471.1 635.7h31.1v-13.6h-70v13.6h32.5l-32.4 32.7 11.4 10.1 23.7-24.2 23.1 24.2 11.7-10zM530.4 720v-14.6h-72.6v-21h-15.4V720z"/>
      <path class="fil1" fill-rule="nonzero" d="M497 642.9v12.5h17v37.2h16.4V620H514V643z"/>
    </g>
    <g fill="#fff">
      <path class="fil1" fill-rule="nonzero" d="M548.2 655.4v13h83v6.4h17v-25.3h13.6v-13.8h-13.6V620h-17v35.4h-10.6V622h-69.7v13.6h53.5v19.7H586v-12.5h-16.5v12.5z"/>
      <path d="M602.5 672.1c-25 0-45.5 10.7-45.5 24s20.5 24 45.5 24 45.5-10.7 45.5-24-20.5-24-45.5-24zm0 35.7c-15.4 0-28-5-28-11.5s12.6-11.4 28-11.4 28 5 28 11.4-12.6 11.5-28 11.5z" class="fil1" fill-rule="nonzero"/>
    </g>
    <g fill="#fff">
      <path d="M755.7 620v11h-24.2c-6.4-6-16-9.7-26.6-9.7-19.7 0-35.6 12.5-35.6 28.2s16 28.2 35.6 28.2c11.4 0 21.5-4.2 28-10.6h22.8v10.4H771V620zm-50.8 44.7c-10.6 0-19.2-6.7-19.2-15.2 0-8.2 8.6-15.1 19.2-15.1S724 641 724 649.5c0 8.3-8.5 15.2-19.1 15.2zm50.8-10.1H740a22.7 22.7 0 0 0-.3-10.9h16zM755.7 696.3V720H771v-36.7h-92v13z" class="fil1" fill-rule="nonzero"/>
    </g>
    <g fill="#fff">
      <path class="fil1" fill-rule="nonzero" d="M797.7 696l23.2-38.2 24.4 38.3 14.1-7.7L821 626l-37 62.3zM865.5 621.9V720H881V622z"/>
    </g>
  </g>
</svg>
