<svg xmlns="http://www.w3.org/2000/svg" id="svg8" version="1.1" viewBox="0 0 1200 800" height="800mm" width="1200mm"><rect fill="white" stroke="none" width="1200" height="800" /><g id="layer1" clip-rule="evenodd" image-rendering="optimizeQuality" shape-rendering="geometricPrecision" text-rendering="geometricPrecision" fill-opacity="1"><g id="_170153216" transform="matrix(.30817 0 0 .30817 -2817 -2554)" fill-rule="nonzero"><path d="m 11148,8710 c 4,66 -24,87 -64,91 -35,0 -56,9 -73,28 l -193,332 c 107,5 211,44 300,172 50,71 137,132 301,163 -121,27 -207,-24 -349,-69 -114,-35 -289,-50 -408,5 l -222,382 c 152,-126 425,-159 619,-85 224,85 441,110 679,-12 l -163,-275 c -28,23 -56,35 -85,39 l 31,-220 c -99,11 -185,-13 -249,-86 -94,-110 -185,-192 -275,-211 23,-47 70,-40 128,-20 42,13 116,-3 132,-52 l -107,-181 z" id="path63" fill="#008c95"/><path d="m 10854,9178 c 59,0 106,47 107,106 0,58 -47,106 -106,106 -58,0 -106,-47 -106,-105 0,-59 47,-106 105,-107 z" id="path65" fill="#fc4c02"/></g><path d="m 824.21682,569.15658 c -1.9276,-3.61442 -6.9878,-3.61442 -8.9156,0 L 784.45782,620 l 12.5302,7.22894 22.4096,-37.34942 22.4096,37.34942 L 854.57832,620 Z m -95.6626,3.37355 v 0 C 723.25302,565.06023 714.09642,560 703.49392,560 c -16.1445,0 -29.6385,12.28916 -29.6385,27.22887 0,15.18078 13.494,27.46994 29.6385,27.46994 7.4699,0 13.976,-2.65065 19.2772,-6.747 h 29.1566 v 18.07229 h 14.9398 v -61.20484 h -14.9398 v 7.71087 z m 2.8916,24.09639 v 0 c 1.4458,-4.09636 2.1686,-8.43378 1.4458,-12.7711 h 19.0361 v 12.7711 z m -27.9519,-24.09639 v 0 c 8.1928,0 14.9398,6.50603 14.9398,14.69874 0,8.19281 -6.747,14.69884 -14.9398,14.69884 -8.1927,0 -14.9397,-6.50603 -14.9397,-14.69884 0,-8.19271 6.747,-14.69874 14.9397,-14.69874 z m -88.9156,65.54216 v 0 c 8.1928,0 14.9398,6.50603 14.9398,14.69884 0,7.95174 -6.747,14.69874 -14.9398,14.69874 -8.1927,0 -14.9397,-6.747 -14.9397,-14.69874 0,-8.19281 6.747,-14.69884 14.9397,-14.69884 z m 0,-12.7711 v 0 c -16.3855,0 -29.6386,12.28916 -29.6386,27.46994 0,14.93971 13.2531,27.22887 29.6386,27.22887 16.1446,0 29.6385,-12.28916 29.6385,-27.22887 0,-6.0241 -2.1686,-11.56635 -5.7831,-16.14465 h 10.3615 v -31.80716 h 14.6988 v -11.32538 h -14.6988 v -28.67468 h -14.6988 v 45.06029 h -13.253 v -45.06029 h -61.44585 v 11.32529 h 46.50605 v 33.735 h -14.2169 V 593.012 h -14.6987 v 16.86755 h -19.5181 v 11.32529 h 76.6265 v 10.84335 c -5.3012,-4.09635 -12.0482,-6.747 -19.5181,-6.747 z M 322.28918,601.92771 v 0 h 27.46984 c -3.13249,-4.33732 -4.81926,-9.39755 -4.81926,-14.69884 0,-14.93971 13.25303,-27.22887 29.63855,-27.22887 16.38561,0 29.63855,12.28916 29.63855,27.22887 0,5.30129 -1.68668,10.36152 -4.81926,14.69884 h 28.43371 v 10.84335 h -45.30116 v 8.67475 h 35.90361 v 31.80716 h -72.53013 v 9.15668 h 72.53013 v 11.32529 h -87.22887 v -31.80726 h 72.53003 v -9.15658 h -72.53003 v -11.32529 h 36.38545 v -8.67475 h -45.30116 z m 52.28913,-29.39758 v 0 c -8.19271,0 -14.93971,6.50603 -14.93971,14.69874 0,8.19281 6.747,14.69884 14.93971,14.69884 8.19281,0 14.93981,-6.50603 14.93981,-14.69884 0,-8.19271 -6.747,-14.69874 -14.93981,-14.69874 z m 103.13255,-3.37355 v 0 c -2.16871,-3.61442 -6.98797,-3.61442 -9.15658,0 L 437.71089,620 l 12.7711,7.22894 22.40961,-37.34942 22.40961,37.34942 L 507.83134,620 Z m 274.21686,74.93981 v 0 h -58.5542 V 632.7711 h 73.494 v 40.96384 h -14.9398 z M 466.1446,662.40965 v 0 h 65.30119 v 11.32529 H 451.44576 V 632.7711 h 14.69884 z m 65.30119,-66.98797 v 0 -30.60242 h -14.69874 v 77.83132 h 14.69874 v -35.90361 h 14.45787 v -11.32529 z m 331.56633,-30.60242 v 0 h 14.6987 v 108.91568 h -14.6987 z" id="path169" fill-rule="evenodd" stroke-width=".2" fill="#555"/></g></svg>
