<?xml version="1.0" encoding="UTF-8" standalone="no"?>
<!-- Created with Inkscape (http://www.inkscape.org/) -->

<svg
   xmlns:dc="http://purl.org/dc/elements/1.1/"
   xmlns:cc="http://creativecommons.org/ns#"
   xmlns:rdf="http://www.w3.org/1999/02/22-rdf-syntax-ns#"
   xmlns:svg="http://www.w3.org/2000/svg"
   xmlns="http://www.w3.org/2000/svg"
   xmlns:sodipodi="http://sodipodi.sourceforge.net/DTD/sodipodi-0.dtd"
   xmlns:inkscape="http://www.inkscape.org/namespaces/inkscape"
   width="134.61324mm"
   height="89.585457mm"
   viewBox="0 0 134.61324 89.585456"
   version="1.1"
   id="svg1656"
   inkscape:version="0.92.3 (2405546, 2018-03-11)"
   sodipodi:docname="Flag of North Jeolla Province.svg">
  <defs
     id="defs1650">
    <clipPath
       id="clipPath22-5"
       clipPathUnits="userSpaceOnUse">
      <path
         inkscape:connector-curvature="0"
         id="path20-9"
         d="M 0,595.276 H 841.89 V 0 H 0 Z" />
    </clipPath>
  </defs>
  <sodipodi:namedview
     id="base"
     pagecolor="#ffffff"
     bordercolor="#666666"
     borderopacity="1.0"
     inkscape:pageopacity="0.0"
     inkscape:pageshadow="2"
     inkscape:zoom="0.7"
     inkscape:cx="125.22197"
     inkscape:cy="212.50146"
     inkscape:document-units="mm"
     inkscape:current-layer="layer1"
     showgrid="false"
     fit-margin-top="0"
     fit-margin-left="0"
     fit-margin-right="0"
     fit-margin-bottom="0"
     inkscape:window-width="1920"
     inkscape:window-height="1018"
     inkscape:window-x="-8"
     inkscape:window-y="-8"
     inkscape:window-maximized="1" />
  <metadata
     id="metadata1653">
    <rdf:RDF>
      <cc:Work
         rdf:about="">
        <dc:format>image/svg+xml</dc:format>
        <dc:type
           rdf:resource="http://purl.org/dc/dcmitype/StillImage" />
        <dc:title></dc:title>
      </cc:Work>
    </rdf:RDF>
  </metadata>
  <g
     inkscape:label="Layer 1"
     inkscape:groupmode="layer"
     id="layer1"
     transform="translate(-40.626381,-94.530746)">
    <rect
       style="opacity:1;fill:#ffffff;fill-opacity:1;fill-rule:nonzero;stroke:none;stroke-width:0.62719828;stroke-linecap:round;stroke-linejoin:round;stroke-miterlimit:4;stroke-dasharray:none;stroke-dashoffset:0;stroke-opacity:1;paint-order:stroke markers fill"
       id="rect2308-5"
       width="134.61324"
       height="89.585457"
       x="40.626381"
       y="94.530746" />
    <g
       transform="matrix(0.65237984,0,0,-0.65237984,-172.22568,266.05118)"
       id="g1627">
      <g
         id="g861">
        <path
           inkscape:connector-curvature="0"
           id="path1392"
           d="m 420.21047,167.22264 v -25.21828 h 3.78171 v 13.53295 h 3.83909 v 3.07023 h -3.83909 v 8.6151 z m -27.23323,-2.8e-4 v -6.11309 h -3.80795 v -3.04168 h 3.80795 v -9.15535 h 3.78173 v 18.31012 z m 55.59709,0 V 153.148 h 3.78172 v 5.9424 h 3.66728 v 3.04229 h -3.66728 v 5.08967 z m -15.41025,-0.76742 v -9.69531 c 0,-0.92919 0.2374,-1.60198 0.71062,-2.0177 0.47324,-0.41736 1.13872,-0.59915 1.99235,-0.54083 1.9504,0.13145 3.86476,0.34928 5.74204,0.65327 1.87646,0.30314 3.57198,0.66309 5.09025,1.07962 0.3771,0.0961 0.6244,0.27118 0.73858,0.52669 0.11171,0.25552 0.15129,0.53546 0.11182,0.83863 -0.0369,0.32287 -0.15518,0.57767 -0.35399,0.76828 -0.19881,0.18895 -0.50688,0.25559 -0.92423,0.1989 -0.64412,-0.0952 -1.36298,-0.1849 -2.16071,-0.26953 -0.79609,-0.0862 -1.59228,-0.16601 -2.38756,-0.24159 -0.79694,-0.0772 -1.56108,-0.13325 -2.289,-0.17268 -0.72954,-0.0362 -1.3595,-0.0548 -1.8894,-0.0548 -0.21034,0 -0.36323,0.0548 -0.45607,0.16979 -0.0952,0.11336 -0.14385,0.25488 -0.14385,0.42493 v 8.3323 z m -56.73323,-0.14184 v -3.01517 h 7.33655 c -0.30479,-0.92919 -0.73117,-1.87177 -1.27997,-2.82808 -0.55126,-0.95794 -1.20512,-1.90085 -1.96177,-2.82921 -0.75914,-0.92919 -1.60224,-1.82471 -2.53143,-2.68653 -0.92838,-0.86183 -1.93226,-1.65404 -3.01344,-2.37373 -0.28427,-0.20869 -0.42638,-0.47982 -0.42638,-0.81008 0,-0.33356 0.10442,-0.61192 0.31308,-0.83949 0.15117,-0.17007 0.35402,-0.28432 0.61116,-0.34018 0.2547,-0.0575 0.51676,-0.019 0.78213,0.11242 1.51497,0.75832 2.9281,1.63083 4.23604,2.61588 1.3063,0.9859 2.48282,2.05642 3.52456,3.21237 l 4.32226,-4.77572 c 0.28426,-0.32288 0.66297,-0.43125 1.13699,-0.32692 0.47324,0.1036 0.90034,0.35482 1.27827,0.75329 0.1717,0.1709 0.30823,0.36491 0.41339,0.58262 0.1043,0.21854 0.17016,0.43608 0.19892,0.65297 0.0296,0.21854 0.0147,0.42142 -0.0413,0.61203 -0.0583,0.18897 -0.16273,0.35094 -0.31308,0.48403 l -5.23178,4.20722 c 0.66217,0.96617 1.2266,1.94392 1.69078,2.92897 0.46502,0.98506 0.81025,1.97983 1.03782,2.98462 0.13392,0.54963 0.0633,0.96719 -0.21361,1.25144 -0.27441,0.28426 -0.66716,0.42724 -1.17736,0.42724 z m 87.11124,-0.42724 v -9.69529 c 0,-0.87087 0.23662,-1.53067 0.71149,-1.97677 0.47323,-0.44448 1.16642,-0.66796 2.07507,-0.66796 h 4.17955 v -4.91785 h -10.20729 v -3.0711 h 24.10982 v 3.0711 h -10.09401 v 4.91785 h 6.93902 v 3.044 h -13.30606 c -0.41736,0 -0.62587,0.21696 -0.62587,0.65239 v 5.5734 h 13.67652 v 3.07023 z m -59.02527,-0.0847 v -3.01344 h 8.21582 v -4.09537 h -8.21582 V 149.936 c 0,-0.8725 0.24079,-1.53148 0.72389,-1.97678 0.48554,-0.44445 1.19938,-0.63901 2.1483,-0.58233 0.94644,0.0567 1.92329,0.14606 2.92722,0.27011 1.00396,0.12244 1.98992,0.26967 2.95607,0.44138 0.96864,0.16924 1.89633,0.35392 2.78772,0.55438 0.88977,0.19882 1.694,0.4019 2.41698,0.61058 0.64329,0.18813 0.91782,0.62526 0.82335,1.30882 -0.0369,0.30151 -0.16542,0.54957 -0.38313,0.7377 -0.21854,0.19062 -0.53649,0.26609 -0.95221,0.22747 -1.51744,-0.17006 -3.05689,-0.33681 -4.62034,-0.49701 -1.56344,-0.16184 -3.10478,-0.25975 -4.61977,-0.29837 -0.267,0 -0.39839,0.12175 -0.39839,0.36987 v 4.63445 h 8.15989 v 10.06489 z m 31.63216,-14.01783 v -7.67588 c 0,-1.74417 0.89046,-2.61588 2.67328,-2.61588 h 13.53379 v 10.29176 z m -56.02259,-1.44979 V 144.249 c 0,-1.74253 0.89049,-2.61503 2.67411,-2.61503 h 14.58518 v 3.04229 h -13.108 c -0.24647,0 -0.36958,0.12391 -0.36958,0.36956 v 5.28772 z m 59.80488,-1.53483 h 8.64306 v -4.26575 h -8.24436 c -0.26701,0 -0.3987,0.1333 -0.3987,0.39783 z"
           style="fill:#383838;fill-opacity:1;fill-rule:nonzero;stroke:none;stroke-width:0.82156825"
           sodipodi:nodetypes="ccccccccccccccccccccccccccccscccccccccccscscccccccccsccccccccccccccccsccscsccccccccccsscccccccccscccccccccccscccccssccccssccsscccccssc" />
        <g
           transform="translate(-10.54014)"
           id="g853">
          <path
             id="path1408"
             style="fill:#f47b36;fill-opacity:1;fill-rule:nonzero;stroke:none"
             d="m 448.7422,228.2822 c 0,4.899 -3.974,8.883 -8.881,8.883 -4.894,0 -8.875,-3.984 -8.875,-8.883 0,-4.895 3.981,-8.873 8.875,-8.873 4.907,0 8.881,3.978 8.881,8.873"
             inkscape:connector-curvature="0" />
          <path
             id="path1412"
             style="fill:#0075bc;fill-opacity:1;fill-rule:nonzero;stroke:none"
             d="m 457.9248,193.8799 c 0,0 -8.309,-0.748 -18.765,6.191 -6.144,4.079 -8.205,5.301 -9.487,6.01 -1.798,0.992 -4.365,1.942 -7.31,1.791 -4.449,-0.224 -8.067,-3.609 -8.067,-8.062 0,-4.455 3.611,-8.067 8.067,-8.067 3.948,0 7.227,2.842 7.918,6.588 l 0.061,0.229 c 0.027,0.119 0.164,0.472 0.546,0.457 0.4,-0.018 0.936,-0.6 2.343,-1.682 l 1.398,-1.127 c 11.397,-9.504 20.579,-10.631 22.397,-10.867 0.975,-0.125 8.951,-1.236 17.136,2.268 v 13.88 c -2.364,-3.316 -9.344,-7.339 -16.237,-7.609"
             inkscape:connector-curvature="0" />
          <path
             id="path1416"
             style="fill:#00975f;fill-opacity:1;fill-rule:nonzero;stroke:none"
             d="m 465.8496,217.5557 c -0.043,0.211 -0.213,0.375 -0.426,0.408 -0.166,0.008 -0.33,0.018 -0.503,0.02 -4.459,0.06 -9.128,0.07 -12.534,-3.337 -2.336,-2.336 -3.622,-5.32 -3.877,-8.374 v -0.008 c 0,-0.211 0.125,-0.389 0.303,-0.469 v -0.002 c 1.182,-0.521 2.773,-0.974 4.442,-0.713 1.919,0.301 3.979,1.411 5.386,3.481 0.073,0.088 0.326,0.334 0.667,0.183 0.262,-0.119 0.336,-0.369 0.278,-0.652 -0.067,-0.207 -0.173,-0.412 -0.276,-0.564 -1.685,-2.496 -3.386,-3.764 -5.804,-4.141 -0.428,-0.062 -0.846,-0.094 -1.26,-0.094 -2.044,0 -3.851,0.741 -5.033,1.379 -2.592,1.135 -7.016,4.561 -7.016,4.561 -8.167,6.601 -15.1,7.752 -15.327,7.793 -7.869,1.547 -14.053,-0.055 -19.156,-3.19 v -5.045 c 4.643,3.999 10.709,6.336 18.687,5.035 0,0 6.416,-0.728 14.21,-6.607 6.761,-5.25 10.755,-6.143 10.755,-6.143 4.533,-1.281 9.45,-0.138 13.017,3.426 3.403,3.405 3.553,8.155 3.492,12.528 -0.002,0.181 -0.015,0.353 -0.025,0.525"
             inkscape:connector-curvature="0" />
          <path
             id="path1420"
             style="fill:#ffd726;fill-opacity:1;fill-rule:nonzero;stroke:none"
             d="m 439.8613,219.4092 c -4.895,0 -8.875,3.979 -8.875,8.873 0,4.899 3.98,8.883 8.875,8.883 4.907,0 8.881,-3.984 8.881,-8.883 0,-4.894 -3.974,-8.873 -8.881,-8.873 m -17.498,-11.537 c 2.944,0.15 5.512,-0.799 7.31,-1.791 1.282,-0.709 3.342,-1.932 9.487,-6.01 10.456,-6.939 18.764,-6.191 18.764,-6.191 6.893,0.269 13.874,4.293 16.238,7.609 v 44.186 h -68.448 v -31.838 c 5.102,3.134 11.287,4.736 19.155,3.189 0.227,-0.041 7.16,-1.191 15.327,-7.793 0,0 4.425,-3.426 7.017,-4.56 1.181,-0.639 2.988,-1.379 5.033,-1.379 0.413,0 0.831,0.031 1.26,0.094 2.418,0.376 4.119,1.644 5.803,4.14 0.104,0.152 0.209,0.358 0.277,0.565 0.057,0.283 -0.017,0.533 -0.279,0.652 -0.341,0.15 -0.593,-0.096 -0.667,-0.184 -1.407,-2.07 -3.466,-3.179 -5.385,-3.48 -1.669,-0.262 -3.261,0.191 -4.443,0.713 v 0.002 c -0.178,0.08 -0.303,0.258 -0.303,0.468 v 0.008 c 0.255,3.055 1.541,6.038 3.877,8.374 3.407,3.408 8.076,3.398 12.535,3.337 0.172,-0.002 0.336,-0.012 0.503,-0.019 0.212,-0.034 0.382,-0.198 0.425,-0.409 0.01,-0.171 0.024,-0.343 0.026,-0.525 0.06,-4.373 -0.09,-9.123 -3.493,-12.527 -3.567,-3.565 -8.484,-4.707 -13.017,-3.426 0,0 -3.993,0.893 -10.755,6.143 -7.794,5.878 -14.21,6.606 -14.21,6.606 -7.977,1.302 -14.044,-1.035 -18.686,-5.034 v -32.205 h 68.448 v 11.021 c -8.186,-3.504 -16.161,-2.392 -17.137,-2.267 -1.817,0.236 -11,1.363 -22.396,10.867 l -1.399,1.127 c -1.406,1.082 -1.942,1.664 -2.343,1.681 -0.381,0.016 -0.518,-0.337 -0.546,-0.457 l -0.06,-0.228 c -0.691,-3.746 -3.971,-6.588 -7.918,-6.588 -4.456,0 -8.067,3.611 -8.067,8.066 0,4.454 3.618,7.838 8.067,8.063"
             inkscape:connector-curvature="0" />
        </g>
      </g>
    </g>
  </g>
</svg>
