<?xml version="1.0" encoding="UTF-8"?>
<svg width="307.02mm" height="205.49mm" version="1.1" viewBox="0 0 307.02 205.49" xmlns="http://www.w3.org/2000/svg" xmlns:cc="http://creativecommons.org/ns#" xmlns:dc="http://purl.org/dc/elements/1.1/" xmlns:rdf="http://www.w3.org/1999/02/22-rdf-syntax-ns#">
 <metadata>
  <rdf:RDF>
   <cc:Work rdf:about="">
    <dc:format>image/svg+xml</dc:format>
    <dc:type rdf:resource="http://purl.org/dc/dcmitype/StillImage"/>
    <dc:title/>
   </cc:Work>
  </rdf:RDF>
 </metadata>
 <g transform="translate(217.77 47.65)">
  <rect x="-217.77" y="-47.65" width="307.02" height="205.49" fill="#fff" style="paint-order:stroke markers fill"/>
  <g>
   <path d="m-63.106-23.451c-18.186-0.35533-34.356 8.7233-43.859 22.733 0.17386 0.20178 0.33122 0.39594 0.467 0.57106 0.1028 0.11929 0.19417 0.23858 0.27665 0.33629 0.0558 0.005076 0.099 0.016497 0.1396 0.027919 0.67639 0.12183 1.6891 0.30457 2.5609 1.0939 0.54568 0.49619 0.89848 1.047 1.1827 1.4886 0.12056 0.18909 0.28807 0.44924 0.36421 0.52538 0.14721 0.14594 0.37563 0.31599 0.61929 0.50254 0.38959 0.29822 0.83629 0.63325 1.2678 1.0749 0.36167 0.36802 0.69289 0.74111 1.0101 1.1053 0.21827 0.26269 0.4302 0.50381 0.64721 0.7335 0.1637 0.18147 0.39467 0.38198 0.63198 0.59898 0.35787 0.31853 0.75888 0.68274 1.1485 1.1256 0.49746 0.5533 0.78172 1.1396 1.0076 1.6091 0.09264 0.17386 0.22462 0.43782 0.27919 0.51776v-0.0051c0.34898 0.41117 0.68401 0.83883 1.0063 1.2462l0.50507 0.63578c0.0901 0.10914 0.30457 0.29568 0.50127 0.45812 0.38325 0.32868 0.86294 0.7335 1.2817 1.2893 0.32106 0.41878 0.58122 0.8236 0.83248 1.2221 0.19036 0.2868 0.36421 0.55457 0.53553 0.79568 0.40355 0.5533 0.65355 1.1193 0.85913 1.5799 0.10787 0.25 0.217 0.51396 0.31091 0.63705 0.08883 0.12436 0.27665 0.32233 0.47716 0.52665 0.33376 0.3401 0.74238 0.76522 1.1091 1.3071 0.38198 0.56852 0.60406 1.1497 0.78426 1.6142 0.0698 0.18274 0.14594 0.37056 0.20812 0.50761 0.06599 0.04822 0.15482 0.10533 0.22843 0.15609 0.47081 0.31726 1.1916 0.80203 1.6967 1.6269 0.28172 0.46193 0.47208 0.92512 0.62563 1.3185l0.99111 0.67259c1.6142 1.0863 2.2931 0.52157 1.5101-1.2589l-9.1116-20.764c-0.77918-1.7843-0.45939-1.9708 0.71446-0.42005l13.584 17.969c1.1751 1.5533 1.9975 1.2386 1.8325-0.70177l-1.9099-22.539c-0.1637-1.9391 0.20685-2.0114 0.81852-0.16878l6.571 21.277c0.62182 1.849 1.4353 1.7995 1.816-0.10787l3.6751-21.944c0.38071-1.9175 0.76015-1.8832 0.84517 0.059644l0.93654 22.44c0.08249 1.9454 0.93781 2.1548 1.915 0.47335l11.213-19.416c0.97208-1.6853 1.3185-1.5393 0.76269 0.32995l-6.3502 21.435c-0.5533 1.8629 0.19797 2.3426 1.6662 1.0685l16.824-14.601c1.4657-1.2766 1.7513-1.0203 0.61929 0.56345l-9.6802 13.58c0.49112-0.01523 0.98731-0.03299 1.3706-0.24492 0.78807-0.42386 1.2462-1.5025 2.0571-1.8997 0.81218-0.38832 1.8731-0.25254 2.7005-0.61421 0.81852-0.36421 1.3909-1.335 2.2195-1.67 0.83122-0.33249 1.7005-0.57233 2.5292-0.87563 0.91243-0.33629 1.7576-0.8566 2.6561-1.1599 0.90609-0.29949 1.8642-0.43528 2.7551-0.70685 0.88324-0.27538 1.9632 0.10914 2.8325-0.13706 0.9467-0.2665 1.6726-1.2779 2.5876-1.5114 0.92258-0.23985 1.9175-0.09518 2.7881-0.30203 0.94924-0.22589 1.9213-0.19289 2.8071-0.38198 0.95812-0.20812 1.8071-0.71066 2.6777-0.8769 0.16878-0.03426 0.34391-0.04822 0.51776-0.05457-6.4073-20.752-25.537-36.025-48.447-36.472z" fill="#f15a38"/>
   <path d="m-70.955 76.788c0.0013-0.05076 0.0203-0.10279 0.03172-0.14848-0.03426-0.0698-0.07868-0.14848-0.12056-0.21447-0.24492-0.43655-0.58883-1.0343-0.75254-1.7982-0.06091-0.29315-0.15736-0.62436-0.2665-0.97715-0.12183-0.38706-0.25508-0.82995-0.36421-1.297-0.13452-0.60533-0.15102-1.1751-0.17513-1.6307-0.0089-0.28299-0.02031-0.57233-0.05457-0.7132-0.11675-0.48858-0.18528-0.94289-0.24619-1.3579-0.04949-0.34264-0.09391-0.67259-0.16117-0.93654-0.05584-0.22843-0.17132-0.50888-0.29188-0.81345-0.15736-0.39721-0.34644-0.85025-0.47589-1.3706l-0.13579-0.49873-0.4505-1.7056c-0.07741-0.27284-0.19289-0.58248-0.31599-0.90736-0.13959-0.37183-0.29568-0.78426-0.42386-1.2322-0.23096-0.78807-0.20431-1.5254-0.18147-2.0533 0.0063-0.1599 0.01269-0.34898 0.0076-0.44289-0.09645-0.30711-0.21954-0.63452-0.35406-0.97969-0.13959-0.36294-0.28553-0.7335-0.41244-1.1396-0.03553-0.07487-0.17005-0.25254-0.26777-0.3934-0.30076-0.41117-0.70939-0.97462-0.96066-1.7119-0.06726-0.20812-0.20304-0.48731-0.35279-0.77665-0.19416-0.38452-0.42259-0.82487-0.59644-1.3287-0.13959-0.39594-0.29188-0.79061-0.45431-1.2018l-0.35406-0.9302c-0.33122-0.88578-0.2703-1.7348-0.23223-2.2893 0.0089-0.0736 0.01396-0.16244 0.01777-0.23985-0.0901-0.19036-0.20304-0.40863-0.33883-0.64213-0.20812-0.38578-0.45431-0.81979-0.6599-1.3185-0.05076-0.13452-0.21954-0.3731-0.36929-0.60279-0.25634-0.38198-0.57614-0.85533-0.81979-1.434-0.20304-0.48223-0.34644-0.94162-0.47208-1.3452-0.09898-0.32233-0.19036-0.6269-0.28299-0.83883-0.16878-0.38071-0.31091-0.75127-0.45178-1.1079-0.14721-0.3604-0.28426-0.70177-0.4264-1.0051l-0.42766-0.94416c-0.18909-0.4264-0.37183-0.83248-0.56091-1.2208-0.06599-0.1434-0.24746-0.3769-0.42386-0.60279-0.27919-0.35914-0.61929-0.80456-0.90101-1.3579-0.30837-0.6066-0.45685-1.1954-0.57868-1.6637-0.04061-0.14974-0.08756-0.33883-0.12183-0.46193-0.07233-0.06345-0.1637-0.13579-0.23858-0.20178-0.43401-0.34518-1.0279-0.8236-1.4505-1.5888-0.41751-0.74111-0.53807-1.4873-0.62944-2.0228-0.02284-0.14467-0.0533-0.32868-0.07868-0.41497-0.27538-0.48477-0.45939-0.96192-0.61167-1.3528-0.07741-0.20304-0.15355-0.40863-0.22589-0.55837-0.07234-0.05203-0.16117-0.11421-0.23604-0.16624-0.48604-0.32106-1.1447-0.76269-1.6307-1.5381-0.35914-0.54949-0.57106-1.1015-0.74238-1.5495-0.0901-0.22335-0.1967-0.5038-0.26396-0.59898-0.10025-0.15355-0.30076-0.35533-0.51269-0.57487-0.32233-0.32868-0.6802-0.70304-1.0127-1.1789-0.37436-0.54061-0.61421-1.0812-0.8071-1.5152-0.10406-0.22589-0.22589-0.50888-0.29188-0.60406-0.27284-0.37183-0.50634-0.7335-0.71066-1.0596-0.20685-0.32106-0.40609-0.6269-0.59137-0.86675-0.09391-0.12183-0.3236-0.31472-0.54188-0.50254-0.34518-0.29949-0.78045-0.67005-1.1662-1.151l-0.53299-0.67005c-0.31218-0.39594-0.60406-0.76776-0.8972-1.1155-0.46954-0.55203-0.74874-1.1167-0.96447-1.5749-0.0825-0.16244-0.19543-0.38832-0.24746-0.4632-0.20305-0.22335-0.46066-0.45558-0.7335-0.7005-0.29315-0.2665-0.62563-0.57106-0.95558-0.91497-0.27792-0.30076-0.52792-0.58502-0.77665-0.87056-0.27284-0.31853-0.53299-0.62056-0.77918-0.86802-0.17894-0.18274-0.44797-0.37817-0.72589-0.59644-0.32741-0.25254-0.6967-0.53172-1.0634-0.88198-0.5203-0.50254-0.85913-1.0393-1.1396-1.4645-0.0546-0.083756-0.11548-0.1764-0.16624-0.26142-0.0558-0.011421-0.1066-0.017766-0.15228-0.029188-0.61929-0.11294-1.5558-0.28426-2.3541-0.96573-0.1472-0.12944-0.28807-0.25888-0.41751-0.38452-3.7259 6.9708-5.92 14.906-6.0863 23.353-0.51522 26.595 19.118 48.882 44.878 52.306-0.04822-0.17766-0.09772-0.35533-0.13198-0.54441-0.16751-0.92385 0.03046-1.731 0.16751-2.2728z" fill="#00ac6c"/>
   <path d="m-75.51 43.785c0.08629 0.21193 0.23223 0.47208 0.38578 0.75761 0.23223 0.41624 0.5 0.88959 0.72208 1.4442 0.34518 0.90355 0.28172 1.7538 0.24238 2.3261-0.0051 0.08756-0.0165 0.20051-0.01904 0.28426l0.26396 0.68401c0.17005 0.43528 0.34264 0.88071 0.50888 1.3515 0.07233 0.19543 0.20685 0.45558 0.34137 0.73096 0.20939 0.42005 0.4467 0.88832 0.63705 1.4467-0.0165-0.03426-0.02411-0.0533-0.02411-0.0533 0.04188 0.06726 0.17513 0.25634 0.2665 0.3934 0.31599 0.4302 0.73984 1.019 0.98984 1.7957 0.09137 0.28046 0.21066 0.58248 0.33249 0.91497 0.17005 0.43401 0.3401 0.88198 0.48985 1.3756 0.24492 0.79949 0.2132 1.5482 0.19797 2.1002-0.01396 0.15228-0.01396 0.35787-0.01396 0.45304 0.07868 0.23858 0.17513 0.51269 0.28553 0.79822 0.15736 0.40482 0.32868 0.85913 0.467 1.3617l0.47081 1.769 0.13325 0.50634c0.0533 0.20431 0.15609 0.47335 0.27538 0.76015 0.17132 0.4302 0.36421 0.92005 0.50888 1.481 0.12183 0.51015 0.19416 1.0025 0.26269 1.4365 0.04822 0.33376 0.09391 0.65482 0.15736 0.92005 0.14467 0.62309 0.16878 1.2119 0.18782 1.6827 0.0063 0.27919 0.02411 0.56472 0.05964 0.72716 0.06472 0.27284 0.15863 0.57741 0.25508 0.90482 0.12183 0.40482 0.26142 0.86294 0.37183 1.3553 0.03046 0.07487 0.1231 0.24365 0.19543 0.36675 0.25888 0.45051 0.61421 1.0673 0.76776 1.8642 0.18909 0.92512-0.01777 1.7551-0.15102 2.2957-0.02411 0.07868-0.04315 0.17005-0.06091 0.25381 0.04822 0.16244 0.10533 0.36548 0.1764 0.58122 0.12183 0.35279 0.24112 0.75127 0.33756 1.1878 0.13071 0.0051 0.24492 0.0165 0.36548 0.0165 15.305 0.29822 29.181-6.0761 38.851-16.444-17.964-13.807-40.028-18.646-49.391-20.159 0.05584 0.10914 0.10406 0.21954 0.15228 0.32868z" fill="#005baa"/>
   <path d="m-12.642 29.326c0.07234-3.9302-0.30457-7.7627-1.0647-11.454-0.3198 0.05584-0.64721 0.10787-0.96319 0.16497-0.88578 0.1599-1.6751 0.73731-2.5178 0.90482-0.86675 0.1764-1.6916 0.44162-2.5254 0.63325-0.91624 0.21193-1.8426 0.24492-2.7183 0.47589-0.89086 0.22208-1.8426 0.14848-2.6954 0.39086-0.86167 0.25-1.585 0.92132-2.3997 1.184-0.90355 0.28934-1.8502 0.3604-2.6992 0.6637-0.87056 0.30584-1.8579 0.26142-2.6777 0.58248-0.82995 0.33122-1.5114 0.99746-2.2881 1.335-0.8604 0.36675-1.8173 0.47208-2.6079 0.84771-0.8769 0.41624-1.5228 1.2119-2.3147 1.632-0.82106 0.42893-1.6409 0.78172-2.3832 1.217-0.81345 0.47462-1.698 0.76776-2.42 1.2335-0.80076 0.51142-1.3541 1.2957-2.0482 1.7868-0.79822 0.57233-1.3972 1.2982-2.0622 1.8312-0.77284 0.62309-1.7145 0.91243-2.3134 1.467-0.60787 0.55203-1.2678 0.93274-1.7817 1.3414l-1.1561 1.8591c-0.24238 0.87563-0.24238 1.5203-0.61294 0.98096l-2.5 4.0152c10.487 3.2094 23.048 8.5012 34.214 17.194 6.4073-8.4327 10.311-18.891 10.535-30.287z" fill="#faa61a"/>
  </g>
  <g transform="matrix(.91776 0 0 .91776 -414.1 -180.46)">
   <g transform="matrix(1.0485 0 0 1.0485 -14.592 -14.925)">
    <g fill="#2c2c2b">
     <path d="m406.29 307.67v17.515h4.8869v-8.1552h4.2758v-3.8542h-4.2758v-5.5061zm-19.911 0.4844v15.217h17.025v-3.851h-12.141v-11.366zm5.4851 19.187v14.095h19.313v-14.095zm4.8949 3.858h9.531v6.3862h-9.531z"/>
     <path transform="matrix(.27495 0 0 .27495 -101.42 118.58)" d="m1547 687.71v12.643h-19.115v14.014h19.115v9.1973h-19.115v14.029h19.115v15.779h17.803v-65.662zm-81.799 3.2988v14.346h37.232s1.3121 28.543-39.607 34.559l7.0957 12.314c12.984-1.1093 39.09-7.6597 49.467-33.479 0 0 4.746-12.421 4.4551-27.74zm62.014 60.709c-19.738 0-35.732 14.493-35.732 32.383 0 17.879 15.995 32.355 35.732 32.355 19.742 0 35.748-14.476 35.748-32.355 0-17.89-16.007-32.383-35.748-32.383zm0 15.021c9.5544 0 17.295 7.7779 17.295 17.361s-7.7406 17.342-17.295 17.342c-9.5615 0-17.301-7.7584-17.301-17.342s7.7392-17.361 17.301-17.361z"/>
     <path d="m443.52 336.07v-9.317h8.256v-3.849h-17.615v-10.243h17.615v-3.848h-22.502v17.94h9.357v9.317h-11.724v3.856h27.24v-3.856z"/>
     <path d="m364.15 307.67v18.052h4.888v-8.6944h4.2752v-3.852h-4.2752v-5.5061zm-16.518 0.65624v1.8028c0 0.708 0.29082 8.9803-7.5022 11.921l2.096 3.155s5.4362-1.5512 8.5682-6.9442c2.725 4.766 8.4479 6.136 8.4479 6.136l1.9902-3.286c-7.642-2.541-7.5983-10.205-7.5983-11.025v-1.7598zm10.912 16.943c-5.423 0-9.82 3.9848-9.82 8.9038 0 4.916 4.397 8.8963 9.82 8.8963 5.424 0 9.8232-3.9803 9.8232-8.8963 0-4.919-4.3992-8.9038-9.8232-8.9038zm0 4.1302c2.623 0 4.75 2.1386 4.75 4.7736s-2.1269 4.7682-4.75 4.7682c-2.627 0-4.7537-2.1332-4.7537-4.7682s2.1267-4.7736 4.7537-4.7736z"/>
    </g>
   </g>
  </g>
 </g>
</svg>
