<?xml version="1.0" encoding="UTF-8" standalone="no"?>
<!-- Created with Inkscape (http://www.inkscape.org/) -->

<svg
   xmlns:dc="http://purl.org/dc/elements/1.1/"
   xmlns:cc="http://creativecommons.org/ns#"
   xmlns:rdf="http://www.w3.org/1999/02/22-rdf-syntax-ns#"
   xmlns:svg="http://www.w3.org/2000/svg"
   xmlns="http://www.w3.org/2000/svg"
   xmlns:sodipodi="http://sodipodi.sourceforge.net/DTD/sodipodi-0.dtd"
   xmlns:inkscape="http://www.inkscape.org/namespaces/inkscape"
   width="151.94641mm"
   height="101.29762mm"
   viewBox="0 0 151.94641 101.29762"
   version="1.1"
   id="svg6457"
   inkscape:version="0.92.3 (2405546, 2018-03-11)"
   sodipodi:docname="Flag of Gangwon Province.svg">
  <defs
     id="defs6451" />
  <sodipodi:namedview
     id="base"
     pagecolor="#ffffff"
     bordercolor="#666666"
     borderopacity="1.0"
     inkscape:pageopacity="0.0"
     inkscape:pageshadow="2"
     inkscape:zoom="0.98994949"
     inkscape:cx="345.40854"
     inkscape:cy="92.825599"
     inkscape:document-units="mm"
     inkscape:current-layer="layer1"
     showgrid="false"
     fit-margin-top="0"
     fit-margin-left="0"
     fit-margin-right="0"
     fit-margin-bottom="0"
     inkscape:window-width="1920"
     inkscape:window-height="1018"
     inkscape:window-x="-8"
     inkscape:window-y="-8"
     inkscape:window-maximized="1" />
  <metadata
     id="metadata6454">
    <rdf:RDF>
      <cc:Work
         rdf:about="">
        <dc:format>image/svg+xml</dc:format>
        <dc:type
           rdf:resource="http://purl.org/dc/dcmitype/StillImage" />
        <dc:title></dc:title>
      </cc:Work>
    </rdf:RDF>
  </metadata>
  <g
     inkscape:label="Layer 1"
     inkscape:groupmode="layer"
     id="layer1"
     transform="translate(-5.1234126,-14.829247)">
    <path
       style="opacity:1;fill:#ffffff;fill-opacity:1;fill-rule:nonzero;stroke:none;stroke-width:1.16604102;stroke-linecap:round;stroke-linejoin:round;stroke-miterlimit:4;stroke-dasharray:none;stroke-dashoffset:0;stroke-opacity:1;paint-order:stroke markers fill"
       d="M 5.1234126,14.829247 H 157.06982 V 116.12687 H 5.1234126 Z"
       id="rect5749"
       inkscape:connector-curvature="0" />
    <g
       id="g7128"
       transform="matrix(1.075586,0,0,1.075586,-9.7749362,-3.1870553)">
      <path
         id="path4"
         d="m 123.55286,49.534511 c 9.5e-4,-2.090732 0.99239,-2.125886 0.74774,-4.20189 -0.24561,-2.076479 0.32446,-2.143938 0.0794,-4.219941 -0.24514,-2.076004 -0.60428,-2.033724 -0.85037,-4.109728 -0.24512,-2.076479 0.78623,-2.89643 -0.46745,-4.569584 -0.65462,-0.872682 -1.37672,1.662703 -2.39525,2.051776 l -0.0707,0.237529 c 0.0219,-0.03943 0.0494,-0.07695 0.0707,-0.116868 0,0 4.13065,25.00801 -36.025085,43.709147 -0.02604,0.01185 -0.06123,0.02566 -0.08888,0.03801 0.786229,0.333967 0.813305,0.996674 1.932061,1.187646 1.31687,0.224703 1.595728,-1.078857 2.913065,-0.854628 1.317337,0.225652 1.284551,0.441329 2.60047,0.676007 1.777666,0.316388 1.609015,1.253678 3.385262,1.579569 1.775763,0.32589 1.76912,0.361044 3.545349,0.686933 1.775788,0.32589 1.818998,0.09073 3.594778,0.416629 1.68836,0.309737 1.6399,0.752016 3.55153,0.764843 2.19097,0.01418 2.11353,-1.047978 4.2836,-1.34774 2.17007,-0.300711 2.18052,-0.226128 4.3506,-0.526839 2.16958,-0.30024 2.2261,-0.615676 4.41612,-0.555344 2.30262,0.06365 2.6266,1.213773 4.44608,-0.0066 0.82755,-0.554393 0.45511,-1.408548 0.14723,-2.356289 -0.30784,-0.948216 -0.77624,-0.949641 -1.08457,-1.897383 -0.30783,-0.947741 0.29217,-0.98907 -0.0162,-1.937287 -0.30783,-0.948216 -0.36531,-1.520185 -0.42564,-2.514958 -0.0765,-1.249402 -0.56723,-0.982895 -0.39287,-2.222322 0.17434,-1.239901 -0.53303,-0.583371 -0.35773,-1.823272 0.17434,-1.239426 0.37958,-1.232302 0.55488,-2.471729 0.17434,-1.2399 0.91116,-1.110684 1.09263,-2.349637 0.24038,-1.6456 -1.32019,-1.877905 -1.07269,-3.523031 0.24751,-1.645126 0.77149,-1.566266 1.019,-3.211392 0.24751,-1.645126 -0.0774,-1.694533 0.17004,-3.339183 0.24892,-1.646552 0.34584,-1.528737 0.3468,-3.192391 z"
         style="fill:#00a886;stroke-width:0.47505811"
         inkscape:connector-curvature="0" />
      <path
         id="path6"
         d="m 118.56096,35.082767 c -1.01902,0.389073 -1.50547,-0.882658 -2.524,-0.493585 -1.019,0.389071 -0.72303,0.946316 -1.81139,1.0228 -1.33206,0.09358 -1.48741,-0.554393 -2.80474,-0.779096 -1.31639,-0.224227 -1.24134,0.968643 -2.55772,0.743466 -1.31639,-0.224226 -1.32303,0.112111 -2.6399,-0.112595 -1.31685,-0.224229 -1.23421,-0.720663 -2.54964,-0.955342 -1.77813,-0.316389 -1.72303,-0.625177 -3.49928,-0.951542 -1.776244,-0.32589 -1.953442,0.640853 -3.730156,0.315438 -1.776248,-0.32589 -1.635624,-1.092159 -3.412339,-1.418522 -1.776247,-0.325892 -1.712112,-1.464606 -3.518273,-1.476007 -2.190504,-0.01383 -2.217113,0.645129 -4.3867,0.945842 -2.170054,0.301661 -2.071247,1.016623 -4.240834,1.317335 -2.170546,0.300711 -2.228027,-0.115917 -4.398093,0.185273 -2.16959,0.300712 -1.603321,-1.932062 -3.38669,-0.658431 -0.872681,0.622802 -0.572443,2.280755 -0.262706,3.307354 0.309737,1.027078 0.564843,0.950117 0.874582,1.977668 0.309737,1.027076 -0.454156,1.257003 -0.143945,2.284554 0.309738,1.027552 1.152017,0.841328 1.216148,1.91211 0.07458,1.249878 -0.567694,0.756293 -0.742514,1.996194 -0.174343,1.239902 -0.597149,1.640851 -0.77197,2.881227 -0.175294,1.239903 0.422802,1.324462 0.248456,2.564364 -0.174828,1.239903 -0.222803,1.232777 -0.40475,2.471728 -0.240379,1.645602 0.581945,1.769117 0.333966,3.413768 -0.247506,1.644652 -1.244178,1.315911 -1.491683,2.960561 -0.247506,1.644652 0.674583,1.961992 0.426602,3.606642 -0.247505,1.645126 -0.505462,1.531588 -0.507362,3.19429 -0.0023,1.860329 0.09073,1.956765 0.296912,3.534909 3.673149,-4.388112 6.601882,-7.293568 6.601882,-7.293568 0,0 8.678835,-9.595224 30.787577,-18.313016 0.0427,-0.0167 0.0837,-0.0342 0.12676,-0.05083 0,0 8.0375,-3.224695 10.90638,-8.492614 l 0.0707,-0.23753 c -1.31495,0.219952 -2.10543,0.597148 -2.10543,0.597148 z"
         style="fill:#fdb827;stroke-width:0.47505811"
         inkscape:connector-curvature="0" />
      <path
         id="path8"
         d="m 59.28509,89.20329 c 0.969118,-2.594291 2.314009,-5.235616 3.844645,-7.80758 -0.08123,0 -0.161038,-9.5e-4 -0.242754,-9.5e-4 -18.477385,0 -33.455969,2.893579 -33.455969,6.462691 0,3.569111 14.978584,6.46269 33.455969,6.46269 18.476914,0 33.455959,-2.893579 33.455959,-6.46269 0,-2.857475 -9.6052,-5.280271 -22.91537,-6.133476 -1.057954,0.269358 -1.746788,0.436578 -1.746788,0.436578 -6.998556,1.69976 -12.395692,7.042737 -12.395692,7.042737 z"
         style="fill:#00529b;stroke-width:0.47505811"
         inkscape:connector-curvature="0" />
    </g>
  </g>
</svg>
