<?xml version="1.0" encoding="UTF-8" standalone="no"?>
<svg
   xmlns:dc="http://purl.org/dc/elements/1.1/"
   xmlns:cc="http://creativecommons.org/ns#"
   xmlns:rdf="http://www.w3.org/1999/02/22-rdf-syntax-ns#"
   xmlns:svg="http://www.w3.org/2000/svg"
   xmlns="http://www.w3.org/2000/svg"
   xmlns:sodipodi="http://sodipodi.sourceforge.net/DTD/sodipodi-0.dtd"
   xmlns:inkscape="http://www.inkscape.org/namespaces/inkscape"
   width="159mm"
   height="106.004mm"
   viewBox="0 0 159 106.004"
   version="1.1"
   id="svg8697"
   inkscape:version="1.0.1 (3bc2e813f5, 2020-09-07)"
   sodipodi:docname="Flag_of_South_Chungcheong_Province.svg">
  <defs
     id="defs8691" />
  <sodipodi:namedview
     id="base"
     pagecolor="#ffffff"
     bordercolor="#666666"
     borderopacity="1.0"
     inkscape:pageopacity="0.0"
     inkscape:pageshadow="2"
     inkscape:zoom="1.5"
     inkscape:cx="313.76843"
     inkscape:cy="187.82686"
     inkscape:document-units="mm"
     inkscape:current-layer="layer1"
     showgrid="false"
     fit-margin-top="0"
     fit-margin-left="0"
     fit-margin-right="0"
     fit-margin-bottom="0"
     inkscape:window-width="1920"
     inkscape:window-height="1017"
     inkscape:window-x="-8"
     inkscape:window-y="-8"
     inkscape:window-maximized="1"
     inkscape:document-rotation="0" />
  <metadata
     id="metadata8694">
    <rdf:RDF>
      <cc:Work
         rdf:about="">
        <dc:format>image/svg+xml</dc:format>
        <dc:type
           rdf:resource="http://purl.org/dc/dcmitype/StillImage" />
        <dc:title></dc:title>
      </cc:Work>
    </rdf:RDF>
  </metadata>
  <g
     inkscape:label="Layer 1"
     inkscape:groupmode="layer"
     id="layer1"
     transform="translate(-185.16688,-97.904317)">
    <path
       inkscape:connector-curvature="0"
       style="fill:#ffffff;stroke:none;stroke-width:0.0881944"
       d="M 344.16756,203.9083 H 185.16686 V 97.904307 h 159.0007 z"
       id="path6676" />
    <g
       transform="matrix(1.0583467,0,0,1.0583467,-20.654033,-1242.4917)"
       id="g6778"
       style="stroke-width:0.333329">
      <g
         id="g6710"
         style="stroke-width:0.333329">
        <path
           inkscape:connector-curvature="0"
           style="fill:#77b72d;stroke:none;stroke-width:0.333329"
           d="m 267.688,1295.43 c -3.77,-3.56 -9.256,1.47 -6.1,6.17 1.614,2.4 5.766,3.96 11.724,3.65 0.851,-0.05 1.13,-0.24 0.283,-0.62 -5.216,-2.37 -3.129,-6.58 -5.907,-9.2 z"
           id="path6678" />
        <path
           inkscape:connector-curvature="0"
           style="fill:#f49418;stroke:none;stroke-width:0.333329"
           d="m 255.506,1306.4 c 0.388,-0.74 0.492,-0.93 -0.507,-0.46 -5.655,2.63 -6.763,-1.61 -10.52,-1.05 -2.083,0.31 -3.685,2.32 -3.322,4.52 0.432,2.63 3.48,3.63 5.903,3.38 4.992,-0.51 7.805,-5.17 8.446,-6.39 z"
           id="path6680" />
        <path
           inkscape:connector-curvature="0"
           style="fill:#0099d2;stroke:none;stroke-width:0.333329"
           d="m 251.184,1304.6 c 0.201,0.17 0.461,0.5 -0.265,0.39 -9.043,-1.37 -10.683,-6.71 -8.333,-9.34 1.246,-1.4 3.915,-1.58 5.19,-0.17 2.416,2.66 -0.188,6.09 3.408,9.12 z"
           id="path6682" />
        <path
           inkscape:connector-curvature="0"
           style="fill:#f49418;stroke:none;stroke-width:0.333329"
           d="m 283.781,1283.18 c 0.881,0.04 1.107,0.21 0.214,0.57 -2.125,0.85 -4.269,2.43 -4.354,6.01 -0.122,5.16 -7.587,3.79 -6.745,-1.6 0.951,-6.11 9.862,-5.01 10.885,-4.98 z"
           id="path6684" />
        <path
           inkscape:connector-curvature="0"
           style="fill:#ba68a2;stroke:none;stroke-width:0.333329"
           d="m 257.401,1309.42 c 1.534,4.59 7.977,2.99 7.445,-1.42 -0.459,-3.79 -4.993,-2.57 -4.993,-6.75 0,-0.51 -0.044,-0.93 -0.554,-0.15 -1.421,2.17 -2.658,6.05 -1.898,8.32 z"
           id="path6686" />
        <path
           inkscape:connector-curvature="0"
           style="fill:#77b72d;stroke:none;stroke-width:0.333329"
           d="m 285.165,1306.93 c -3.966,2.8 -5.417,-0.59 -8.272,-0.75 -3.288,-0.18 -4.242,5.16 -0.012,6.14 1.96,0.46 6.796,-0.48 8.786,-5.29 0.105,-0.26 -0.003,-0.55 -0.502,-0.1 z"
           id="path6688" />
        <path
           inkscape:connector-curvature="0"
           style="fill:#f49418;stroke:none;stroke-width:0.333329"
           d="m 284.014,1303.42 c 0.889,-4.51 -2.853,-8.72 -3.208,-9.16 -0.093,-0.12 -0.856,-1.04 -0.525,0.31 0.987,4.03 -1.096,5.18 -1.728,8.05 -0.911,4.13 4.686,4.73 5.461,0.8 z"
           id="path6690" />
        <path
           inkscape:connector-curvature="0"
           style="fill:#eb5f27;stroke:none;stroke-width:0.333329"
           d="m 261.064,1294.27 c -4.744,0.47 -7.508,1.8 -9.002,2.96 -2.201,1.7 -1.938,4.43 -0.623,5.74 1.379,1.39 4.028,1.82 5.745,-0.29 2.069,-2.55 0.044,-5.66 4.099,-8.01 0.595,-0.34 0.223,-0.45 -0.219,-0.4 z"
           id="path6692" />
        <path
           inkscape:connector-curvature="0"
           style="fill:#77b72d;stroke:none;stroke-width:0.333329"
           d="m 291.797,1294.84 c -0.893,0.38 -1.59,1.09 -2.09,1.92 -0.528,0.87 -0.735,1.89 -1.271,2.75 -0.462,0.74 -1.052,1.46 -1.748,1.98 -0.388,0.29 -0.602,0.7 0.136,0.54 0.591,-0.12 1.43,-0.23 2.445,-0.13 1.018,0.1 2.368,0.59 2.981,0.73 1.26,0.42 2.732,0.41 3.685,-0.6 1.556,-1.64 1.357,-4.68 -0.168,-6.28 -0.998,-1.05 -2.618,-1.5 -3.97,-0.91 z"
           id="path6694" />
        <path
           inkscape:connector-curvature="0"
           style="fill:#0099d2;stroke:none;stroke-width:0.333329"
           d="m 295.473,1304.2 c -3.186,-0.5 -4.75,1.92 -9.438,-1.31 -0.417,-0.29 -0.767,-0.52 -0.46,0.43 0.504,1.54 2.74,7.73 7.073,8.83 6.346,1.61 8.026,-7 2.825,-7.95 z"
           id="path6696" />
        <path
           inkscape:connector-curvature="0"
           style="fill:#0099d2;stroke:none;stroke-width:0.333329"
           d="m 265.35,1281.28 c -0.687,3.53 2.037,5.2 1.367,10.38 -0.053,0.41 0.318,0.4 0.419,0.17 2.069,-4.75 5.156,-4.57 6.326,-8.23 1.748,-5.48 -7.206,-6.97 -8.112,-2.32 z"
           id="path6698" />
        <path
           inkscape:connector-curvature="0"
           style="fill:#ba68a2;stroke:none;stroke-width:0.333329"
           d="m 251.854,1294.87 c 4.204,0.33 4.422,-2.77 11.889,-2.35 0.607,0.04 0.534,-0.36 0.142,-0.48 -6.694,-2.02 -7.833,-6.31 -11.314,-6.44 -5.686,-0.22 -6.49,8.82 -0.717,9.27 z"
           id="path6700" />
        <path
           inkscape:connector-curvature="0"
           style="fill:#eb5f27;stroke:none;stroke-width:0.333329"
           d="m 256.947,1286.14 c 2.576,3.31 4.578,1.13 7.531,4.31 0.433,0.47 0.757,0.24 0.422,-0.3 -2.06,-3.33 0.256,-6.35 -1.474,-8.56 -3.259,-4.15 -9.509,0.66 -6.479,4.55 z"
           id="path6702" />
        <path
           inkscape:connector-curvature="0"
           style="fill:#eb5f27;stroke:none;stroke-width:0.333329"
           d="m 281.042,1289.57 c 0,3.51 3.859,5.13 4.106,11.68 0.017,0.44 0.416,0.45 0.498,0.02 1.277,-6.52 4.853,-7.78 5.16,-11.53 0.477,-5.79 -9.764,-6.84 -9.764,-0.17 z"
           id="path6704" />
        <path
           inkscape:connector-curvature="0"
           style="fill:#ba68a2;stroke:none;stroke-width:0.333329"
           d="m 277.601,1301.07 c 1.562,-1.35 2.101,-3.76 0.682,-5.51 -2.604,-2.98 -5.397,-0.01 -8.056,-4.99 -0.437,-0.82 -0.72,-0.64 -0.562,0.24 0.546,3.04 -0.451,6.06 1.325,8.76 1.762,2.68 4.907,2.97 6.611,1.5 z"
           id="path6706" />
        <path
           inkscape:connector-curvature="0"
           style="fill:#a9a896;stroke:none;stroke-width:0.333329"
           d="m 269.552,1306.73 c -1.901,0 -3.44,1.54 -3.44,3.44 v 9.25 h 6.88 v -9.25 c 0,-1.9 -1.54,-3.44 -3.44,-3.44 z"
           id="path6708" />
      </g>
      <g
         id="g6776"
         style="stroke-width:0.333329">
        <g
           id="g6746"
           style="stroke-width:0.333329">
          <path
             inkscape:connector-curvature="0"
             style="fill:#005495;stroke:none;stroke-width:0.333329"
             d="m 240.893,1352.97 c -0.345,0.07 -0.713,0.14 -1.067,0.14 -1.514,0 -2.565,-0.76 -2.565,-2.34 0,-1.6 0.977,-2.5 2.565,-2.5 0.31,0 0.716,0.06 1.06,0.2 l -0.067,0.79 c -0.355,-0.21 -0.675,-0.25 -1.012,-0.25 -0.964,0 -1.569,0.74 -1.569,1.7 0,0.95 0.59,1.67 1.588,1.67 0.368,0 0.801,-0.08 1.026,-0.2 z"
             id="path6712" />
          <path
             inkscape:connector-curvature="0"
             style="fill:#005495;stroke:none;stroke-width:0.333329"
             d="m 241.539,1348 h 0.9 v 2.05 h 0.011 c 0.229,-0.34 0.616,-0.55 1.086,-0.55 0.818,0 1.172,0.57 1.172,1.35 v 2.18 h -0.899 v -1.84 c 0,-0.42 -0.006,-0.99 -0.58,-0.99 -0.652,0 -0.79,0.7 -0.79,1.14 v 1.69 h -0.9 z"
             id="path6714" />
          <path
             inkscape:connector-curvature="0"
             style="fill:#005495;stroke:none;stroke-width:0.333329"
             d="m 248.561,1353.03 h -0.851 v -0.47 h -0.015 c -0.274,0.33 -0.661,0.55 -1.131,0.55 -0.815,0 -1.172,-0.58 -1.172,-1.36 v -2.17 h 0.898 v 1.84 c 0,0.42 0.006,0.99 0.585,0.99 0.649,0 0.786,-0.7 0.786,-1.14 v -1.69 h 0.9 z"
             id="path6716" />
          <path
             inkscape:connector-curvature="0"
             style="fill:#005495;stroke:none;stroke-width:0.333329"
             d="m 249.357,1349.58 h 0.85 v 0.47 h 0.011 c 0.283,-0.4 0.665,-0.55 1.135,-0.55 0.814,0 1.17,0.57 1.17,1.35 v 2.18 h -0.895 v -1.84 c 0,-0.42 -0.008,-0.99 -0.584,-0.99 -0.648,0 -0.791,0.7 -0.791,1.14 v 1.69 h -0.896 z"
             id="path6718" />
          <path
             inkscape:connector-curvature="0"
             style="fill:#005495;stroke:none;stroke-width:0.333329"
             d="m 254.799,1352.33 c -0.513,0 -0.763,-0.58 -0.763,-1.04 0,-0.53 0.195,-1.09 0.805,-1.09 0.52,0 0.75,0.48 0.75,1.07 0,0.57 -0.23,1.06 -0.792,1.06 z m 0.832,-2.75 v 0.47 h -0.014 c -0.247,-0.4 -0.603,-0.55 -1.058,-0.55 -1.03,0 -1.46,0.95 -1.46,1.79 0,0.92 0.387,1.74 1.406,1.74 0.502,0 0.905,-0.26 1.072,-0.55 h 0.014 c 0,0.6 -0.047,1.34 -1.041,1.34 -0.278,0 -0.729,-0.16 -1.003,-0.31 l -0.073,0.77 c 0.428,0.18 0.837,0.23 1.193,0.23 1.448,0 1.821,-0.88 1.821,-1.82 v -3.11 z"
             id="path6720" />
          <path
             inkscape:connector-curvature="0"
             style="fill:#005495;stroke:none;stroke-width:0.333329"
             d="m 259.548,1350.32 c -0.161,-0.07 -0.334,-0.12 -0.608,-0.12 -0.556,0 -0.912,0.43 -0.912,1.09 0,0.64 0.302,1.12 0.931,1.12 0.255,0 0.535,-0.09 0.689,-0.16 l 0.041,0.75 c -0.26,0.08 -0.53,0.11 -0.897,0.11 -1.135,0 -1.702,-0.77 -1.702,-1.82 0,-1 0.588,-1.79 1.667,-1.79 0.363,0 0.624,0.04 0.872,0.11 z"
             id="path6722" />
          <path
             inkscape:connector-curvature="0"
             style="fill:#005495;stroke:none;stroke-width:0.333329"
             d="m 260.239,1348 h 0.899 v 2.05 h 0.012 c 0.228,-0.34 0.62,-0.55 1.087,-0.55 0.817,0 1.171,0.57 1.171,1.35 v 2.18 h -0.899 v -1.84 c 0,-0.42 -0.006,-0.99 -0.582,-0.99 -0.65,0 -0.789,0.7 -0.789,1.14 v 1.69 h -0.899 z"
             id="path6724" />
          <path
             inkscape:connector-curvature="0"
             style="fill:#005495;stroke:none;stroke-width:0.333329"
             d="m 264.81,1350.97 c 0.043,-0.47 0.299,-0.82 0.798,-0.82 0.503,0 0.703,0.38 0.731,0.82 z m 2.133,1.13 c -0.334,0.2 -0.709,0.35 -1.146,0.35 -0.556,0 -0.944,-0.31 -0.987,-0.87 h 2.387 c 0,-1.2 -0.361,-2.08 -1.643,-2.08 -1.07,0 -1.6,0.82 -1.6,1.82 0,1.13 0.663,1.79 1.803,1.79 0.482,0 0.856,-0.09 1.186,-0.28 z"
             id="path6726" />
          <path
             inkscape:connector-curvature="0"
             style="fill:#005495;stroke:none;stroke-width:0.333329"
             d="m 268.569,1351.22 c 0,-0.51 0.282,-1.02 0.866,-1.02 0.588,0 0.873,0.49 0.873,1.02 0,0.58 -0.184,1.19 -0.873,1.19 -0.682,0 -0.866,-0.62 -0.866,-1.19 z m -0.935,0.11 c 0,0.99 0.662,1.78 1.801,1.78 1.147,0 1.809,-0.79 1.809,-1.78 0,-1.14 -0.786,-1.83 -1.809,-1.83 -1.017,0 -1.801,0.69 -1.801,1.83 z"
             id="path6728" />
          <path
             inkscape:connector-curvature="0"
             style="fill:#005495;stroke:none;stroke-width:0.333329"
             d="m 271.736,1349.58 h 0.85 v 0.47 h 0.014 c 0.279,-0.4 0.661,-0.55 1.131,-0.55 0.816,0 1.172,0.57 1.172,1.35 v 2.18 h -0.895 v -1.84 c 0,-0.42 -0.01,-0.99 -0.586,-0.99 -0.649,0 -0.79,0.7 -0.79,1.14 v 1.69 h -0.896 z"
             id="path6730" />
          <path
             inkscape:connector-curvature="0"
             style="fill:#005495;stroke:none;stroke-width:0.333329"
             d="m 277.151,1352.33 c -0.515,0 -0.763,-0.58 -0.763,-1.04 0,-0.53 0.193,-1.09 0.803,-1.09 0.522,0 0.75,0.48 0.75,1.07 0,0.57 -0.228,1.06 -0.79,1.06 z m 0.831,-2.75 v 0.47 h -0.012 c -0.253,-0.4 -0.603,-0.55 -1.061,-0.55 -1.033,0 -1.458,0.95 -1.458,1.79 0,0.92 0.385,1.74 1.405,1.74 0.504,0 0.905,-0.26 1.071,-0.55 h 0.014 c 0,0.6 -0.048,1.34 -1.036,1.34 -0.283,0 -0.733,-0.16 -1.007,-0.31 l -0.074,0.77 c 0.429,0.18 0.838,0.23 1.194,0.23 1.446,0 1.822,-0.88 1.822,-1.82 v -3.11 z"
             id="path6732" />
          <path
             inkscape:connector-curvature="0"
             style="fill:#005495;stroke:none;stroke-width:0.333329"
             d="m 279.635,1349.58 h 0.852 v 0.47 h 0.01 c 0.284,-0.4 0.667,-0.55 1.133,-0.55 0.815,0 1.174,0.57 1.174,1.35 v 2.18 h -0.899 v -1.84 c 0,-0.42 -0.008,-0.99 -0.582,-0.99 -0.651,0 -0.79,0.7 -0.79,1.14 v 1.69 h -0.898 z"
             id="path6734" />
          <path
             inkscape:connector-curvature="0"
             style="fill:#005495;stroke:none;stroke-width:0.333329"
             d="m 284.207,1352.03 c 0,-0.53 0.596,-0.59 0.995,-0.59 h 0.39 c 0,0.26 -0.038,0.51 -0.186,0.71 -0.14,0.18 -0.355,0.3 -0.629,0.3 -0.323,0 -0.57,-0.12 -0.57,-0.42 z m -0.454,-1.5 c 0.3,-0.23 0.68,-0.38 1.063,-0.38 0.529,0 0.776,0.19 0.776,0.75 h -0.494 c -0.374,0 -0.817,0.03 -1.158,0.2 -0.343,0.17 -0.589,0.47 -0.589,0.99 0,0.65 0.596,1.02 1.205,1.02 0.411,0 0.856,-0.22 1.064,-0.59 h 0.015 c 0.009,0.1 0.009,0.33 0.038,0.51 h 0.789 c -0.017,-0.27 -0.033,-0.51 -0.036,-0.77 -0.01,-0.26 -0.016,-0.52 -0.016,-0.87 v -0.44 c 0,-1.02 -0.436,-1.45 -1.486,-1.45 -0.382,0 -0.849,0.1 -1.199,0.26 z"
             id="path6736" />
          <path
             inkscape:connector-curvature="0"
             style="fill:#005495;stroke:none;stroke-width:0.333329"
             d="m 287.154,1349.58 h 0.835 v 0.48 h 0.013 c 0.281,-0.42 0.689,-0.56 1.025,-0.56 0.485,0 0.824,0.18 1.018,0.61 0.207,-0.42 0.657,-0.61 1.08,-0.61 0.847,0 1.092,0.58 1.092,1.35 v 2.18 h -0.899 v -2.06 c 0,-0.32 0,-0.77 -0.512,-0.77 -0.6,0 -0.674,0.7 -0.674,1.16 v 1.67 h -0.897 v -2.06 c 0,-0.32 0,-0.77 -0.515,-0.77 -0.595,0 -0.67,0.7 -0.67,1.16 v 1.67 h -0.896 z"
             id="path6738" />
          <path
             inkscape:connector-curvature="0"
             style="fill:#005495;stroke:none;stroke-width:0.333329"
             d="m 292.764,1351.59 v -0.73 h 1.762 v 0.73 z"
             id="path6740" />
          <path
             inkscape:connector-curvature="0"
             style="fill:#005495;stroke:none;stroke-width:0.333329"
             d="m 295.948,1351.3 c 0,-0.47 0.16,-1.1 0.745,-1.1 0.578,0 0.804,0.61 0.804,1.1 0,0.49 -0.193,1.11 -0.791,1.11 -0.589,0 -0.758,-0.64 -0.758,-1.11 z m 1.582,1.73 h 0.873 V 1348 h -0.897 v 1.98 h -0.014 c -0.27,-0.33 -0.584,-0.48 -1.032,-0.48 -1.062,0 -1.446,0.84 -1.446,1.8 0,0.94 0.384,1.81 1.446,1.81 0.417,0 0.789,-0.13 1.057,-0.47 h 0.013 z"
             id="path6742" />
          <path
             inkscape:connector-curvature="0"
             style="fill:#005495;stroke:none;stroke-width:0.333329"
             d="m 299.857,1351.22 c 0,-0.51 0.282,-1.02 0.866,-1.02 0.587,0 0.869,0.49 0.869,1.02 0,0.58 -0.183,1.19 -0.869,1.19 -0.684,0 -0.866,-0.62 -0.866,-1.19 z m -0.938,0.11 c 0,0.99 0.662,1.78 1.804,1.78 1.144,0 1.806,-0.79 1.806,-1.78 0,-1.14 -0.781,-1.83 -1.806,-1.83 -1.02,0 -1.804,0.69 -1.804,1.83 z"
             id="path6744" />
        </g>
        <g
           id="g6774"
           style="stroke-width:0.333329">
          <g
             id="g6752"
             style="stroke-width:0.333329">
            <path
               inkscape:connector-curvature="0"
               style="fill:#005495;stroke:none;stroke-width:0.333329"
               d="m 244.342,1331.04 c 1.029,1.21 3.888,2.14 6.445,2.14 h 0.459 v -1.96 h -0.459 c -2.072,0 -4.195,-0.99 -4.829,-2.26 h 5.061 v -1.97 h -5.193 c -0.171,-1.07 -0.524,-1.41 -0.524,-1.41 h -2.787 c 0,0 0.315,0.34 0.461,1.41 h -5.312 v 1.97 h 5.059 c -0.632,1.27 -2.756,2.26 -4.825,2.26 h -0.46 v 1.96 h 0.46 c 2.556,0 5.409,-0.93 6.444,-2.14 z"
               id="path6748" />
            <path
               inkscape:connector-curvature="0"
               style="fill:#005495;stroke:none;stroke-width:0.333329"
               d="m 252.934,1335.78 v -1.97 h -17.185 v 1.97 h 7.248 v 0.76 c -2.53,0.43 -4.137,2.11 -4.137,4.11 0,2.34 2.188,4.23 5.482,4.23 3.292,0 5.484,-1.89 5.484,-4.23 0,-2 -1.608,-3.68 -4.14,-4.11 v -0.76 z m -5.769,4.87 c 0,1.24 -1.269,2.24 -2.823,2.24 -1.557,0 -2.821,-1 -2.821,-2.24 0,-1.24 1.264,-2.24 2.821,-2.24 1.554,0 2.823,1 2.823,2.24 z"
               id="path6750" />
          </g>
          <g
             id="g6758"
             style="stroke-width:0.333329">
            <path
               inkscape:connector-curvature="0"
               style="fill:#005495;stroke:none;stroke-width:0.333329"
               d="m 297.614,1341.4 v -4.43 h -2.684 v 4.43 h -5.784 v 1.97 h 14.287 v -1.97 z"
               id="path6754" />
            <path
               inkscape:connector-curvature="0"
               style="fill:#005495;stroke:none;stroke-width:0.333329"
               d="m 290.155,1333.54 c 0,1.42 1.154,2.57 2.578,2.57 h 9.396 v -1.96 h -8.535 c -0.417,0 -0.753,-0.34 -0.753,-0.76 v -2.34 c 0,-1.68 -0.361,-2.38 -0.494,-2.58 h 9.782 v -1.97 h -12.516 c 0,0 0.542,0.58 0.542,2.64 z"
               id="path6756" />
          </g>
          <g
             id="g6764"
             style="stroke-width:0.333329">
            <path
               inkscape:connector-curvature="0"
               style="fill:#005495;stroke:none;stroke-width:0.333329"
               d="m 285.658,1329.79 v -3.07 c 0,-0.42 -0.342,-0.76 -0.757,-0.76 h -1.93 v 6.63 h -0.002 c -0.372,0.18 -0.914,0.43 -2.426,0.43 -1.013,0 -4.809,0 -4.809,0 -0.417,0 -0.754,-0.34 -0.754,-0.75 v -3.06 c 0,-2.06 -0.615,-2.65 -0.615,-2.65 h -2.61 c 0,0 0.54,0.59 0.54,2.65 v 3.2 c 0,1.42 1.152,2.57 2.574,2.57 h 4.691 c 1.417,0 2.506,-0.12 3.409,-0.48 l 0.002,-0.01 v 1.1 h 2.687 v -3.83 h 2.657 v -1.97 z"
               id="path6760" />
            <path
               inkscape:connector-curvature="0"
               style="fill:#005495;stroke:none;stroke-width:0.333329"
               d="m 274.98,1341.8 c 0,1.41 1.154,2.57 2.577,2.57 h 8.101 v -8.06 H 274.98 Z m 2.684,-3.52 h 5.307 v 4.12 h -4.553 c -0.414,0 -0.754,-0.34 -0.754,-0.75 z"
               id="path6762" />
          </g>
          <g
             id="g6772"
             style="stroke-width:0.333329">
            <path
               inkscape:connector-curvature="0"
               style="fill:#005495;stroke:none;stroke-width:0.333329"
               d="m 264.29,1335.42 c -3.004,0 -5.44,2.12 -5.44,4.73 0,2.61 2.436,4.73 5.44,4.73 3.005,0 5.442,-2.12 5.442,-4.73 0,-2.61 -2.437,-4.73 -5.442,-4.73 z m 0,7.47 c -1.537,0 -2.78,-1.23 -2.78,-2.75 0,-1.52 1.243,-2.75 2.78,-2.75 1.536,0 2.78,1.23 2.78,2.75 0,1.52 -1.244,2.75 -2.78,2.75 z"
               id="path6766" />
            <path
               inkscape:connector-curvature="0"
               style="fill:#005495;stroke:none;stroke-width:0.333329"
               d="m 268.98,1325.96 h -1.93 v 4.25 h -2.807 v 1.97 h 2.807 v 3.41 h 2.682 v -8.88 c 0,-0.41 -0.338,-0.75 -0.752,-0.75 z"
               id="path6768" />
            <path
               inkscape:connector-curvature="0"
               style="fill:#005495;stroke:none;stroke-width:0.333329"
               d="m 259.616,1332.61 c 0.794,1.23 3.12,2.46 4.979,2.46 h 0.179 v -2.04 c -1.61,-0.19 -3.639,-1.21 -3.814,-3.67 h 3.545 v -1.97 h -3.553 c -0.133,-1.37 -0.572,-1.79 -0.572,-1.79 h -2.652 c 0,0 0.385,0.42 0.504,1.79 h -3.503 v 1.97 h 3.543 c -0.173,2.46 -2.203,3.48 -3.813,3.67 v 2.04 h 0.179 c 1.86,0 4.185,-1.23 4.978,-2.46 z"
               id="path6770" />
          </g>
        </g>
      </g>
    </g>
  </g>
</svg>
