<?xml version="1.0" encoding="UTF-8" standalone="no"?>
<!-- Creator: CorelDRAW X6 -->

<svg
   xmlns:dc="http://purl.org/dc/elements/1.1/"
   xmlns:cc="http://creativecommons.org/ns#"
   xmlns:rdf="http://www.w3.org/1999/02/22-rdf-syntax-ns#"
   xmlns:svg="http://www.w3.org/2000/svg"
   xmlns="http://www.w3.org/2000/svg"
   xmlns:sodipodi="http://sodipodi.sourceforge.net/DTD/sodipodi-0.dtd"
   xmlns:inkscape="http://www.inkscape.org/namespaces/inkscape"
   xml:space="preserve"
   width="4.3149824in"
   height="2.8391743in"
   version="1.1"
   style="clip-rule:evenodd;fill-rule:evenodd;image-rendering:optimizeQuality;shape-rendering:geometricPrecision;text-rendering:geometricPrecision"
   viewBox="0 0 4315.0397 2839.2715"
   id="svg812"
   sodipodi:docname="Flag of Jeju.svg"
   inkscape:version="0.92.3 (2405546, 2018-03-11)"><metadata
   id="metadata816"><rdf:RDF><cc:Work
       rdf:about=""><dc:format>image/svg+xml</dc:format><dc:type
         rdf:resource="http://purl.org/dc/dcmitype/StillImage" /><dc:title></dc:title></cc:Work></rdf:RDF></metadata><sodipodi:namedview
   pagecolor="#ffffff"
   bordercolor="#666666"
   borderopacity="1"
   objecttolerance="10"
   gridtolerance="10"
   guidetolerance="10"
   inkscape:pageopacity="0"
   inkscape:pageshadow="2"
   inkscape:window-width="1920"
   inkscape:window-height="1018"
   id="namedview814"
   showgrid="false"
   fit-margin-top="0"
   fit-margin-left="0"
   fit-margin-right="0"
   fit-margin-bottom="0"
   inkscape:zoom="1.1905581"
   inkscape:cx="159.20886"
   inkscape:cy="117.88919"
   inkscape:window-x="-8"
   inkscape:window-y="-8"
   inkscape:window-maximized="1"
   inkscape:current-layer="Layer_x0020_1" />
 <defs
   id="defs4"><style
     type="text/css"
     id="style2">
   <![CDATA[
    .str0 {stroke:#373435;stroke-width:5.55512}
    .fil5 {fill:none;fill-rule:nonzero}
    .fil3 {fill:#373435;fill-rule:nonzero}
    .fil4 {fill:#727376;fill-rule:nonzero}
    .fil1 {fill:#00AC83;fill-rule:nonzero}
    .fil2 {fill:#027EC2;fill-rule:nonzero}
    .fil0 {fill:#F58430;fill-rule:nonzero}
   ]]>
  </style></defs>
 <g
   id="Layer_x0020_1"
   transform="translate(-9930.0876,-2493.3491)">
  <metadata
   id="CorelCorpID_0Corel-Layer" />
  
  
  
  
  
  
  
  <rect
   style="opacity:1;fill:#ffffff;fill-opacity:1;fill-rule:nonzero;stroke:none;stroke-width:2.27675152;stroke-linecap:round;stroke-linejoin:round;stroke-miterlimit:4;stroke-dasharray:none;stroke-dashoffset:0;stroke-opacity:1;paint-order:stroke markers fill"
   id="rect1749"
   width="4315.1284"
   height="2839.262"
   x="9930.001"
   y="2493.3491" />
  
  
  
  
  
  
  
  
  
  
  
  
  
  
  
  
  
  
  
  
  
  
  
  
  
  
  
  
  
  
  
  
  
  
  
  
  
  
  
  
  
  
  
  
  
  
  
  
  
  
  
  
  
  
  
  
  
  
  
  
  
  
  
  
  
  
  
  
  
  
  
  
  
  
  
  
  
  
  
  
  
  
  
  
  
  
  
  
  
  
  
  
  
  
  
  
  
  
  
  
  
  
  
  
  
  
  
  
  
  
  
  
  
  
  
  
  
  
  
  
  
  
  
  
  
  
  
  
  
  
  
  
  
  
  
  
  
  
  
  
  
  
  
  
  
  
  
  
  
  
  
  
  
  
  
  
  
  
  
  
  
  
  
  
  
  
  
  
  
  
  
  
  
  
  
  
  
  
  
  
  
  
  
  
  
  
  
  
  
  
  
  
  
  
  
  
  
  
  
  
  
  
  
  
  
  
  
  
  
  
  
  
  
  
  
  
  
  
  
  
  
  
  
  
  
  
  
  
  
  
  
  
  
  
  
  
  
  
  
  
  
  
  
  
  
  
  
  
  
  
  
  
  
  
  
  
  
  
  
  
  
  
  
  
  
  
  
  
  
  
  
  
  
  
  
  
  
  
  
  
  
  
  
  
  
  
  
  
  
  
  
  
  
  
  
  
  
  
  
  
  
  
  
  
  
  
  
  
  
  
  
  
  
  
  
  
  
  
  
  
  
  
  
  
  
  
  
  
  
  
  
  
  
  
  
  
  
  
  
  
  
  
  
  
  
  
  
  
  
  
  
  
  
  
  
  
  
  
  
  
  
  
  
  
  
  
  
  
  
  
  
  
  
  
  
  
  
  
  
  
  
  
  
  
  
  
  
  
  
  
  
  
  
  
 <g
   transform="matrix(1.6907365,0,0,1.7725755,7396.6564,-2062.3505)"
   style="clip-rule:evenodd;fill-rule:evenodd;image-rendering:optimizeQuality;shape-rendering:geometricPrecision;text-rendering:geometricPrecision"
   id="g1647-3-6"><path
     inkscape:connector-curvature="0"
     id="path7-4-5"
     d="m 3005,2768 c -1,-1 -2,-1 -3,-2 -5,-1 -10,3 -17,8 l -6,4 c -20,11 -36,61 -39,82 -1,0 -1,1 -2,1 -12,-21 -35,-41 -59,-44 9,36 41,144 83,134 21,-5 66,-94 66,-144 0,-1 0,-1 0,-2 0,-26 -12,-35 -23,-39 z"
     class="fil0"
     style="fill:#f58430;fill-rule:nonzero" /><path
     inkscape:connector-curvature="0"
     id="path9-3-8"
     d="m 3288,3318 c -53,2 -70,-1 -121,16 -7,2 -13,7 -19,14 1,11 -6,28 4,32 1,0 0,2 1,3 3,3 6,3 9,7 2,3 4,0 6,1 1,1 1,3 2,3 5,2 10,1 15,4 3,2 5,2 8,2 2,-1 4,3 4,4 10,4 18,0 28,0 29,0 24,-3 53,-4 25,0 48,3 73,3 13,0 28,0 41,-1 23,-1 47,2 70,3 12,0 25,4 37,5 13,0 25,-3 38,-1 4,0 8,0 12,2 4,2 8,4 12,4 11,1 21,-3 32,-8 7,-2 13,-3 19,-7 3,-1 6,-6 7,-11 3,-9 6,-18 2,-28 -1,0 -2,1 -3,0 -1,-2 -1,-6 -2,-6 -5,-2 -9,-2 -14,-3 -6,-1 -13,-4 -19,-5 -29,-7 -195,-32 -295,-28 z"
     class="fil1"
     style="fill:#00ac83;fill-rule:nonzero" /><path
     inkscape:connector-curvature="0"
     id="path11-7-2"
     d="m 2780,3337 c 5,1 11,1 14,5 3,3 -3,7 -2,11 0,9 3,16 3,25 0,1 -1,3 -2,4 -2,2 -4,4 -6,6 -7,5 -17,3 -25,5 -11,3 -23,5 -34,6 -20,2 -40,-2 -60,-3 -8,0 -16,1 -23,3 -9,2 -19,2 -28,2 -49,-2 -97,-3 -146,-2 -9,0 -18,1 -27,2 -39,2 -79,2 -118,3 -14,0 -27,1 -41,0 -8,0 -15,0 -22,1 -29,1 -59,3 -88,2 -11,0 -23,0 -34,0 -33,2 -66,7 -98,5 -24,-1 -47,-7 -69,-18 -15,-8 -27,-19 -35,-31 6,-7 14,-10 23,-12 22,-6 42,-10 64,-14 19,-3 36,-5 54,-6 236,-21 500,-13 603,-6 35,2 67,7 100,14 z"
     class="fil2"
     style="fill:#027ec2;fill-rule:nonzero" /><path
     inkscape:connector-curvature="0"
     id="path13-6-5"
     d="m 3205,3117 c 0,1 0,1 0,3 2,5 6,7 10,11 4,0 9,0 14,0 0,-3 3,0 3,-3 3,0 8,-1 10,-5 1,0 1,0 2,0 2,-4 6,-7 10,-7 6,-7 11,-13 17,-20 0,-3 1,-5 3,-7 3,-12 6,-26 11,-38 0,-4 2,-9 1,-13 1,0 2,0 2,-1 -1,-5 2,-8 5,-11 2,0 4,0 6,-3 0,-1 0,-1 0,-3 6,0 12,4 16,9 3,0 4,0 7,0 0,3 1,3 3,4 6,0 19,-1 25,1 0,4 6,3 7,7 1,4 1,8 4,12 0,1 0,3 -2,4 3,4 6,11 2,15 1,5 0,12 3,18 -3,3 -1,7 -1,9 3,5 3,12 4,19 6,7 4,15 9,22 0,3 0,5 0,8 3,0 0,4 3,4 1,8 -3,18 -3,26 -2,1 -3,3 -4,4 0,1 0,1 0,3 -2,0 -3,0 -3,-1 -3,4 -7,7 -10,11 -3,-1 -4,1 -6,1 -3,0 0,4 -3,4 -3,0 -6,1 -7,3 -3,1 -13,-1 -16,1 l -1,-1 c -2,1 -3,3 -6,3 0,-1 0,-3 -1,-3 -2,4 -8,7 -12,5 -1,-3 -1,-5 -4,-6 -1,-9 -1,-16 -6,-23 1,0 1,-1 1,-2 -1,-4 -3,-7 -3,-11 -3,-5 -5,-12 -9,-16 1,-1 -2,-2 -1,-4 -2,-2 -3,-4 -6,-6 -2,0 -2,1 -3,2 -1,6 -7,11 -8,17 l -1,-1 c -1,4 -5,6 -5,10 -2,1 -3,5 -6,6 0,1 0,1 0,2 -8,7 -12,19 -22,24 -2,5 -8,6 -11,12 -4,0 -9,1 -13,3 -3,-1 -7,-4 -10,-1 0,-1 -2,-1 -3,-1 l -1,1 c -3,-3 -7,0 -12,-1 -9,-7 -19,-10 -29,-16 -3,0 0,-4 -3,-4 -1,0 -3,0 -4,-1 0,-4 1,-7 -3,-10 l 1,-1 c 0,-1 -1,-1 -3,-1 -1,-9 -6,-16 -7,-24 -2,-1 -2,-1 -3,-3 0,-4 -1,-8 -3,-11 -1,-6 4,-10 1,-16 0,-1 0,-3 1,-4 -1,-7 0,-11 1,-18 -1,0 -1,-1 -1,-3 3,-5 3,-11 3,-16 1,-4 4,-8 6,-12 l -1,-1 c 3,-3 1,-7 6,-9 0,-1 0,-3 -1,-3 0,-3 3,-4 4,-5 1,-3 7,-13 10,-15 l -1,-2 c 2,-3 9,-5 14,-5 4,0 11,3 13,4 2,3 0,6 2,10 1,0 1,0 2,0 0,1 0,1 0,3 0,1 1,1 2,1 1,4 3,8 2,12 0,1 1,1 2,1 -1,3 2,5 2,8 -2,3 0,7 -1,11 3,7 2,15 5,22 0,5 2,11 4,15 z"
     class="fil3"
     style="fill:#373435;fill-rule:nonzero" /><path
     inkscape:connector-curvature="0"
     id="path15-9-3"
     d="m 2663,3167 c 0,0 5,4 7,6 1,3 4,6 6,7 3,1 6,3 6,3 l 2,4 5,4 c 5,1 6,-1 10,4 2,0 3,0 3,1 l 2,-1 c 2,3 5,4 6,6 5,0 9,2 12,5 2,0 2,3 2,2 5,1 8,5 12,2 2,0 3,0 3,1 l 2,-1 c 3,-1 4,2 7,1 2,0 2,1 2,3 2,0 2,0 3,0 3,3 17,-1 20,2 18,2 48,-2 48,-2 0,-3 5,0 5,-3 l 2,1 c 6,2 13,-5 19,-2 2,-1 2,-1 3,-3 3,-1 8,4 11,1 0,1 1,1 3,2 0,-1 0,-1 0,-3 5,-3 11,-2 14,-6 2,0 5,0 6,1 2,-1 2,-1 3,-2 8,-2 15,-8 24,-10 1,-2 5,-2 6,-5 1,0 3,0 5,0 1,-1 3,-3 4,-5 5,1 9,-6 13,-6 0,-1 0,-3 1,-3 l 2,1 c 3,-2 3,-2 4,-5 5,1 7,-5 10,-8 2,0 2,0 3,0 1,-2 1,-2 3,-3 2,0 2,0 3,-1 4,-3 6,-8 12,-10 0,-1 -1,-3 1,-3 3,1 3,-3 4,-5 1,-1 5,-4 6,-3 0,2 4,-6 4,-4 1,1 6,-12 8,-13 l -13,-34 c -5,7 -22,29 -31,31 0,7 -8,7 -13,11 0,1 1,3 -1,3 -5,1 -6,6 -9,7 0,-1 -2,-1 -3,-1 -1,2 -4,2 -5,5 -5,1 -6,5 -8,9 l -2,-1 c -5,5 -13,4 -17,11 -9,4 -16,6 -25,9 -2,0 -3,0 -3,-1 -1,3 -8,1 -9,3 -9,1 -17,0 -26,2 0,-3 -5,0 -5,-2 -8,3 -15,-1 -23,-1 -2,-1 -5,-1 -6,-4 -8,1 -12,0 -17,-4 -5,0 -8,-4 -12,-6 0,-1 0,-1 0,-3 -2,-1 -2,-1 -3,-3 0,-4 5,-4 8,-6 3,-4 11,-3 15,-7 0,-1 4,-4 4,-5 2,-3 3,-5 4,-5 5,-3 2,-6 8,-7 0,-1 5,-5 3,-6 6,-4 6,-6 8,-15 3,-4 8,-9 8,-14 2,-1 0,-7 3,-9 2,-10 -2,-15 -2,-24 -2,-1 -2,-1 -3,-3 0,-4 -3,-7 -2,-11 -5,-4 -3,-5 -8,-10 l -3,-3 c -2,0 -2,0 -3,0 -2,-3 -6,-4 -6,-7 -6,-1 -12,-5 -18,-8 l -2,1 -2,-1 c -2,1 -2,1 -3,3 0,-4 -5,0 -6,-3 -3,0 -6,-1 -9,1 -9,-3 -19,2 -29,-2 0,3 -6,-1 -6,3 -3,1 -8,1 -9,3 -2,0 -3,0 -5,0 -5,4 -9,9 -18,9 -3,0 0,4 -3,4 -2,0 -2,0 -3,0 -8,7 -14,15 -23,21 0,1 -3,3 -2,5 0,1 -2,1 -3,1 0,3 -2,4 -3,5 0,1 0,3 2,3 0,1 -2,5 -4,5 -2,5 -2,11 -6,14 0,11 -3,16 -4,28 1,6 2,16 2,22 5,3 -1,3 2,7 2,0 1,2 1,4 2,3 7,5 5,8 0,1 3,3 4,3 2,3 -2,6 1,7 0,1 5,0 4,3 l 3,6 z m 101,-89 c -3,1 0,4 -3,6 l 2,1 c -1,12 -9,28 -25,39 -2,0 -3,0 -3,-1 0,-3 -3,-7 -2,-10 0,-1 -2,-1 -3,-1 3,-3 -2,-6 0,-10 -2,0 -2,-1 -2,-3 5,-3 1,-10 6,-13 l -2,-2 c 2,-3 4,-7 7,-10 0,-1 0,-1 0,-3 6,-6 14,-8 22,-11 2,0 3,0 3,1 5,6 2,12 0,17 z"
     class="fil3"
     style="fill:#373435;fill-rule:nonzero" /><path
     inkscape:connector-curvature="0"
     id="path17-8-3"
     d="m 3032,3064 c 0,2 0,4 1,6 11,10 9,28 16,40 -3,4 -1,10 -2,14 2,2 2,2 4,3 -3,10 4,19 3,28 -2,2 -2,2 -3,4 0,2 0,4 2,4 l -2,2 2,2 -2,2 c 2,0 2,2 2,4 -3,4 3,9 -2,14 2,2 2,4 2,6 -5,4 -2,13 -6,19 l 2,2 -2,2 -2,-2 c -2,0 -2,2 -2,4 2,4 6,7 2,11 l 2,2 c -6,4 -7,9 -9,15 -2,2 -2,2 -3,4 2,2 2,4 2,5 -3,4 -5,8 -9,11 0,2 2,5 -2,7 l 2,2 c -2,4 -3,9 -5,13 2,0 2,2 2,4 -5,4 -11,8 -9,15 -3,6 -8,8 -11,13 2,4 -6,5 -6,9 0,4 -5,2 -3,6 l 2,2 c -2,0 -2,0 -3,0 -2,4 -2,4 -5,6 0,2 0,4 -2,4 -3,2 -5,5 -8,9 2,2 -6,6 -4,6 -2,2 -4,3 -4,7 -2,0 -4,0 -4,2 v 2 c -1,1 -2,1 -4,2 -14,16 -34,22 -48,38 -4,2 -7,3 -11,5 -4,2 -2,7 -6,5 0,-2 -5,2 -7,2 -4,3 -10,1 -13,1 0,-2 -2,-1 -4,-3 l -2,2 c -2,-2 -6,-6 -7,-6 -2,-2 2,-4 0,-4 l 2,-2 c 0,-2 -3,-2 -5,-2 -3,-4 4,-1 2,-5 l -7,-1 c -2,-4 -5,-4 -6,-7 0,-4 8,-3 8,-7 4,0 2,0 6,-2 l -1,-3 c 4,-2 3,-5 5,-5 0,2 1,0 3,0 2,0 4,0 4,-2 0,-2 0,-4 2,-5 2,0 2,0 4,0 8,-7 3,-2 11,-11 0,-2 0,-2 0,-4 2,-2 2,-5 6,-7 0,2 0,4 1,4 6,-3 2,-5 1,-9 2,-2 2,-2 4,-3 0,2 3,0 1,0 0,2 2,-4 4,-4 4,-7 1,1 8,-11 1,-1 5,-3 5,-4 0,0 4,-2 3,-4 0,-1 0,-2 -3,0 2,-4 8,-9 9,-13 5,2 1,-6 5,-6 -2,2 -4,-2 -4,0 h 6 c 4,-3 -5,-3 -2,-7 0,-2 -1,-3 -2,-3 0,-2 -1,-3 1,-3 l 2,2 c 2,-2 -2,-8 2,-10 0,-2 0,-4 0,-6 5,-4 3,-3 5,-9 l -2,-2 c 0,2 4,-2 2,-2 0,-2 0,-2 0,-4 3,-2 6,-14 6,-18 0,4 -4,-8 -1,-7 5,-8 2,-18 2,-27 -4,-1 3,-4 1,-7 -2,0 -4,0 -4,-1 2,-2 2,-2 3,-4 0,-2 0,-4 -2,-3 0,-2 0,-4 1,-4 0,-2 0,-4 -2,-3 2,-2 2,-2 3,-4 0,-2 -2,-2 -4,-1 1,-8 -7,-13 -4,-21 -2,0 -2,-2 -2,-3 5,-6 -2,-13 1,-19 -4,-1 -2,-5 -3,-9 2,-2 -3,-4 -3,-6 -4,-9 -3,-16 -6,-25 -3,3 -6,-25 -9,-36 -5,-7 -2,-15 -4,-23 2,0 4,0 4,-2 -2,-5 3,-8 4,-14 4,0 7,-3 12,0 4,-2 1,-6 1,-8 8,-1 13,-2 21,-3 0,2 0,4 2,4 6,-1 8,3 14,2 0,2 0,4 2,4 4,-1 6,1 8,3 2,0 4,0 4,-2 l 2,2 2,-2 c 2,2 4,1 6,1 2,2 3,7 6,5 9,14 20,26 27,41 z"
     class="fil3"
     style="fill:#373435;fill-rule:nonzero" /><path
     inkscape:connector-curvature="0"
     id="path19-5-5"
     d="m 2199,3098 c -1,-3 -5,-4 -7,-4 -2,0 -5,4 -7,1 0,0 -3,5 -7,7 -2,2 -6,1 -6,1 -1,5 -1,5 3,16 2,0 4,11 6,11 -1,-4 5,9 7,10 1,0 1,0 3,1 1,0 1,2 0,3 l 6,4 c 1,2 2,2 0,4 4,0 7,3 11,4 1,1 0,2 0,3 1,0 2,1 3,0 3,0 1,3 1,5 l 2,-1 c 0,2 3,3 3,3 4,6 22,13 27,18 l 2,-1 c 1,3 10,4 10,7 l 2,-1 c 1,1 13,4 16,6 2,-1 -1,-3 1,-4 2,2 6,6 8,7 0,0 5,0 9,1 5,5 14,2 20,4 1,1 2,2 3,2 l 2,-1 1,1 c 4,-2 6,0 8,-2 l 1,1 2,-1 c 1,1 1,1 1,3 5,1 10,3 15,1 1,1 2,2 3,2 2,-1 2,-1 4,-2 4,1 4,2 9,2 l 1,1 c 5,-3 9,-2 14,-1 1,-2 4,1 5,-2 l 1,2 c 4,-3 11,-1 15,-2 l 1,2 c 2,-1 1,0 1,0 4,-2 13,-2 15,-4 5,1 5,2 12,1 1,0 4,1 6,1 6,-4 10,-4 15,-1 6,-1 14,-5 19,-8 1,0 3,1 4,1 2,-1 3,0 5,-3 6,-2 11,-4 16,-8 1,2 4,-1 5,0 1,-1 1,-1 1,-2 3,1 5,-3 8,-2 1,-1 1,-1 1,-2 4,-1 3,-3 7,-4 4,-2 9,-11 17,-14 0,-3 5,-4 6,-6 1,-1 2,-1 3,-1 l -1,-1 c 2,-1 1,-5 3,-3 1,-1 3,-4 2,-5 4,-3 4,-13 10,-15 1,-1 1,-1 1,-2 2,-3 1,-9 3,-10 0,-1 0,-2 1,-2 2,-5 3,-12 4,-18 -1,0 -1,-1 0,-3 1,0 2,-1 2,-2 -1,0 -1,-2 0,-3 l 2,-1 c -2,-1 0,-4 -2,-4 l 2,-1 c -2,-6 1,-12 -1,-17 l 2,-1 c -3,-3 -2,-7 0,-10 -1,-2 0,-3 0,-4 -3,-2 1,-4 -1,-6 1,-4 -3,-7 0,-11 -2,-3 -2,-4 -4,-7 0,-1 1,-3 1,-4 -1,0 -2,-1 -2,-2 2,-2 0,-4 1,-6 -2,0 -1,-3 -2,-4 -1,-7 -3,-12 -6,-17 2,-2 -2,-12 -2,-15 l -2,-1 c -1,-3 -2,-5 -4,-6 0,-2 0,-2 0,-3 -1,0 -2,0 -2,-2 0,-1 0,-1 0,-3 l -1,1 c -2,-2 -3,-5 -3,-8 -4,-6 -6,-11 -13,-20 -3,2 0,-5 -3,-3 -3,-8 -6,-10 -11,-14 0,-2 0,-2 0,-3 -1,0 -1,0 -3,0 -1,0 -1,-2 -1,-3 -8,-5 -36,-9 -41,-17 -2,0 -5,-2 -6,1 -1,-2 -1,-2 -2,-3 -7,4 -12,-3 -18,-5 l -1,1 c -2,-5 -6,0 -9,0 -1,-2 -2,-2 -4,-2 -6,3 -12,0 -18,7 l -1,-2 14,26 c 0,1 4,18 7,26 1,0 3,3 4,5 0,1 0,1 -1,3 2,3 4,7 6,10 -1,0 -2,1 -2,3 2,5 1,10 3,15 2,2 0,3 2,5 0,0 -1,3 -1,3 -1,2 1,5 1,5 1,5 0,1 4,5 -3,4 2,11 -1,15 2,2 2,-1 2,1 -1,1 -1,1 -1,2 -1,1 1,2 2,2 1,3 -1,5 1,8 1,0 0,4 1,4 0,3 4,3 1,5 -1,0 -1,5 -2,9 1,1 0,8 0,9 1,0 2,-1 2,0 0,1 0,1 -1,2 1,0 1,2 1,4 0,4 -2,6 -4,9 -1,8 3,14 -3,17 2,2 0,4 -1,5 -2,1 -1,5 -3,5 -2,5 -3,4 -5,9 -3,2 -4,4 -7,6 -1,1 -1,1 -1,2 0,1 -2,1 -3,1 -2,2 -9,5 -10,8 l 1,1 c -4,2 -6,2 -10,5 -5,3 -8,3 -13,5 -4,-1 -8,2 -12,1 -2,1 -3,2 -5,3 -2,-1 -5,1 -7,-1 -2,-1 -2,3 -4,3 -1,0 -1,0 -2,-1 l -1,-1 c -3,2 -6,0 -9,1 l -1,-1 c -3,2 -6,0 -8,2 -3,-2 -9,-2 -13,-2 0,-1 -1,-1 -2,-2 l -2,1 c 0,-1 -9,-1 -10,-1 h -2 l -1,-1 -2,1 c -2,-2 -13,-3 -16,-6 -2,2 -4,1 -7,1 -10,-1 -23,-5 -24,-5 l -1,-2 c -4,2 -10,0 -11,-3 -1,0 -3,0 -4,-1 -1,-3 -9,-2 -11,-6 0,0 -4,-3 -6,-5 -3,2 -9,-6 -11,-7 h -4 l -2,-5 -6,-5 c -2,-5 -5,-1 -6,-5 z"
     class="fil3"
     style="fill:#373435;fill-rule:nonzero" /><path
     inkscape:connector-curvature="0"
     id="path21-2-9"
     d="m 2294,2923 c 2,0 3,0 5,0 8,8 24,6 34,11 4,-3 9,-1 12,-3 1,2 1,2 3,3 9,-3 14,2 23,1 2,-1 2,-1 4,-3 2,0 3,0 3,2 l 2,-1 1,2 2,-1 c -1,2 1,2 3,2 4,-3 7,1 12,-3 1,2 3,2 4,2 5,-4 7,0 13,-2 l 1,2 2,-1 -1,-2 c 1,-2 2,-1 4,-1 3,2 4,6 9,3 l 1,2 c 3,-2 -19,-3 15,-4 2,-1 2,-1 4,-2 1,2 2,2 4,3 4,-2 8,-3 12,-4 2,0 4,3 7,0 l 1,2 c 4,0 9,-1 12,-1 -1,1 -2,-2 -1,-1 5,-3 11,-6 16,-2 6,-1 8,-4 14,-4 2,3 7,-3 9,-1 3,1 3,-2 5,0 v 2 c 1,-1 1,-1 2,-2 4,0 4,0 7,-1 1,1 3,2 4,0 3,-1 6,-1 10,-2 1,2 4,-1 3,0 2,-1 4,-1 7,1 1,-1 2,-2 3,-2 l 2,1 c 2,0 2,0 3,-2 18,-2 28,-10 46,-10 3,-1 6,-3 9,-4 3,-1 6,2 7,-1 -1,-1 4,-2 5,-3 4,0 7,-8 9,-11 -1,-1 0,-2 0,-4 h 2 c 0,-2 -1,-11 0,-12 0,-2 -4,-1 -3,-2 l -1,-1 c -1,-1 0,-3 1,-4 -1,-4 -5,1 -6,-2 l 3,-5 c -2,-3 -8,-5 -11,-6 -2,2 -2,1 -5,3 l -1,-2 c -3,2 -5,0 -6,1 1,1 -1,1 -2,2 -1,1 -2,2 -3,2 -1,-1 -3,-2 -5,-1 -1,1 -1,1 -2,2 -9,1 -28,2 -30,-1 -2,1 -2,1 -4,1 1,1 -1,2 0,1 1,1 -4,-1 -5,1 -7,0 -22,2 -19,0 -4,0 -10,2 -13,0 -1,5 -6,-3 -7,0 2,-1 -3,-1 -1,0 v 2 c -4,1 -5,-3 -9,-1 -1,-1 -2,-1 -1,-3 -1,-1 -2,-1 -3,0 l 1,2 c -2,1 -6,-4 -9,-2 -1,-1 -3,-1 -4,-2 -5,3 -10,3 -16,3 l -1,-2 c 2,0 -3,3 -2,1 -2,0 -2,0 -3,-1 -3,2 -14,2 -17,2 3,1 -6,-5 -6,-2 -8,3 -17,-2 -25,-2 -1,-3 -4,2 -7,0 1,-1 1,-3 -1,-3 -2,1 -4,1 -6,2 -2,0 -3,0 -3,-2 -2,0 -3,0 -4,1 -2,0 -3,0 -3,-2 -2,1 -4,3 -6,4 -2,0 -1,-2 -1,-3 -7,1 -11,-5 -18,-3 0,-1 -1,-2 -3,-2 -6,4 -14,0 -20,2 -1,-3 -4,-2 -8,-2 -2,1 -3,-2 -5,-2 -7,-3 -14,-2 -21,-3 3,-3 -22,-3 -32,-5 -6,-3 -13,0 -20,-2 0,2 -1,3 -2,3 -5,-2 -7,3 -13,5 -1,3 -4,5 -3,7 -2,3 -3,4 -4,4 -1,6 -2,6 -4,12 2,0 3,0 3,2 -1,5 2,6 0,11 2,0 3,0 3,2 -1,3 0,5 2,6 0,2 -1,3 -2,3 l 1,2 -2,1 c 1,2 1,3 0,5 1,2 6,2 4,5 12,7 21,15 33,20 z"
     class="fil3"
     style="fill:#373435;fill-rule:nonzero" /></g><path
   inkscape:connector-curvature="0"
   style="clip-rule:evenodd;fill:#727376;fill-rule:nonzero;stroke-width:0.60334063;image-rendering:optimizeQuality;shape-rendering:geometricPrecision;text-rendering:geometricPrecision"
   d="m 11249.984,4357.0434 c 0,0 8.426,252.0786 9.046,303.7675 l 30.775,-16.5719 10.864,-283.5743 z m 9.046,303.7675 -0.589,0.3192 h 0.602 c 0,-0.056 0,-0.2595 0,-0.3192 z m 924.327,-303.7675 c 0.604,16.2902 1.201,31.9768 1.804,48.267 -13.273,-2.4134 -34.992,-6.6288 -40.423,-6.6288 l 1.216,30.7622 39.821,-3.6212 c 0,9.6535 0.601,19.9143 0.601,30.7744 -13.876,-0.6033 -33.789,0.6053 -43.442,-0.6015 l -0.601,26.5395 44.645,-4.8242 c 0.604,15.0835 0.6,31.3819 1.203,49.4822 l 31.376,-13.2821 c 1.207,-12.6701 11.469,-106.1857 14.485,-153.2462 z m 283.575,0 c 0,0 8.442,252.8026 9.046,304.0866 l 33.181,-16.891 5.438,-148.422 c 16.893,3.0167 49.47,7.8439 49.47,7.8439 1.207,-10.2567 2.406,-31.9774 2.406,-31.9774 0,0 -34.985,2.4146 -51.275,3.6213 l 4.198,-114.6769 z m 52.464,3.5845 0.627,0.038 -0.602,-0.6016 z m 265.493,-3.5845 c 0,0 8.443,252.8026 9.047,304.0866 l 33.181,-16.891 10.864,-283.5743 z m -1594.626,9.047 c 0,0 2.411,36.2071 4.825,106.1946 l 0.601,0.6015 c -19.91,-1.2066 -43.442,-3.0197 -43.442,-3.0197 l 2.418,33.1927 c 0,0 38.006,-6.6392 41.626,-7.2425 2.413,50.6806 2.418,149.0235 2.418,149.0234 l 29.559,-14.4849 v -1.2029 c 0.604,-9.0502 9.047,-254.0029 9.047,-254.0029 z m 1425.692,1.2153 4.223,28.9577 c 0,0 73.604,-0.5977 105.581,-1.8045 v -0.6135 l 1.203,-21.7152 c -29.564,0 -94.114,-4.2209 -111.007,-4.8242 z m -910.443,0.6015 5.426,109.8036 c 27.149,0.6033 117.658,-0.5965 198.505,1.8167 h 0.601 l -1.202,-25.9503 c -24.134,3.0168 -121.278,3.6269 -154.462,1.8169 v -21.7275 c 47.061,0 97.739,0.6065 153.246,3.0197 v -25.3364 c -45.854,1.8099 -85.673,3.6163 -152.644,1.203 v -18.7077 c 40.424,1.2066 106.799,1.8204 153.86,0.6133 l 0.601,-24.7472 c -91.104,1.81 -176.781,2.4189 -203.932,-1.8045 z m -152.043,1.2029 c -27.151,11.4635 -171.353,4.2228 -171.353,4.2228 l 2.419,24.735 c 0,0 103.173,0.6139 111.62,0.6139 -43.441,39.2173 -133.336,88.0885 -133.336,88.0885 l 24.735,11.4529 -0.601,-0.6014 c 0,0 72.998,-33.1866 106.182,-51.2867 28.96,16.8935 79.04,45.2562 95.331,54.3065 l 1.804,0.6014 17.506,-34.9973 c 0,0 -82.067,-31.3685 -88.703,-33.7819 5.43,-3.0166 66.975,-34.3957 66.975,-34.3957 z m 533.354,0.6015 1.203,48.8808 c -14.481,0.6033 -45.853,0 -56.712,0 l -1.203,-41.0367 -45.247,-4.2228 12.668,131.5311 c 0,0 76.618,-2.4134 126.092,0 v 0.6014 l 7.243,-131.531 z m 1034.13,1.8168 -206.951,1.203 4.223,142.3948 205.735,-0.6141 h 0.602 l -0.602,-27.7425 c 0,0 -118.855,6.0329 -157.468,4.2228 -0.604,-6.0333 -3.02,-83.261 -3.02,-92.3111 77.227,-3.0167 155.063,1.203 155.063,1.203 z m -1969.308,18.094 c 0,0 -24.13,4.8365 -33.18,4.8365 -13.877,0 -82.662,-2.4182 -82.662,-2.4182 l 6.039,30.1607 c 0,0 68.773,-4.2209 82.65,-4.8243 -22.927,44.0439 -100.155,159.2857 -100.155,159.2857 l 21.113,8.4456 c 0,0 24.746,-27.7514 61.549,-73.0019 11.464,13.8768 36.204,45.2507 47.064,68.1776 l 1.204,3.0198 25.336,-38.017 -1.203,-1.203 c -1.792,-1.7921 -36.671,-35.4692 -58.444,-49.6049 2.575,-3.2279 54.221,-70.461 54.221,-70.461 z m 1264.601,1.8167 c -10.256,1.8101 -24.128,4.8261 -38.004,4.2227 -32.581,-0.6033 -68.789,-1.813 -89.906,-3.0197 l 6.641,31.9775 c 52.491,-2.4134 92.311,-6.0272 92.311,-6.0272 -14.48,25.3402 -75.425,107.3935 -114.038,156.8675 l 19.91,9.6485 c 15.687,-13.8769 41.629,-42.2371 68.779,-71.1975 13.274,13.2735 39.224,39.8189 62.151,68.7791 l 20.512,-41.0243 c -18.703,-14.4802 -48.271,-33.1805 -66.974,-45.2473 27.149,-29.5636 53.1,-58.5235 66.373,-72.4004 l 0.601,0.6016 z m 306.493,24.735 c -9.05,2.4134 -26.544,4.2228 -41.024,4.2228 -33.788,-0.6034 -62.744,-2.4183 -85.671,-2.4183 l 7.243,31.9775 c 31.373,-2.4134 87.474,-7.8441 87.474,-7.8441 -18.1,28.9605 -69.376,92.3115 -106.784,136.3553 l 21.114,9.6608 c 18.1,-15.6869 42.239,-38.6201 66.373,-62.1503 34.39,31.3736 60.936,62.1503 60.936,62.1503 l 21.714,-39.8215 c -20.514,-14.4801 -47.664,-31.371 -63.954,-41.0243 l 61.549,-61.549 h -0.614 z m -675.074,26.3062 c 15.894,-0.057 32.979,0.3947 41.577,0.847 l 1.202,39.8214 -56.11,0.6016 -1.204,-41.0246 h -0.613 c 4.675,-0.1508 9.85,-0.2268 15.148,-0.2457 z m -92.974,62.9851 c -155.059,6.6369 -288.399,1.2031 -288.399,1.2031 h -0.602 l 9.649,26.5517 c 142.992,-5.43 276.332,-3.0198 276.332,-3.0198 z m -321.579,7.2426 c -155.059,6.6367 -292.021,1.2029 -292.021,1.2029 l -0.601,0.6015 9.649,26.5517 c 0,0 44.656,-1.8149 109.214,-2.4183 6.636,68.1776 7.844,87.4904 7.844,122.4841 l 41.626,-19.3092 c 0,0 6.027,-78.436 6.027,-103.7763 3.619,0 115.242,-0.6015 115.242,-0.6015 z m 1359.931,14.485 c 0,0 3.616,58.5247 5.426,76.0216 -47.06,0 -127.309,-3.0198 -127.309,-3.0198 l 3.02,28.9578 c 0,0 158.075,-3.6146 285.38,-1.8045 l 1.816,-27.7547 c 0,0 -52.485,2.4037 -118.237,3.0075 0.05,-1.7844 2.995,-71.1852 2.995,-71.1852 z m -774.087,9.6484 c -42.234,3.62 -182.217,0.6015 -182.217,0.6015 l 6.04,25.3365 c 22.927,0 111.612,-1.203 130.315,-1.203 l -1.804,21.7275 c -27.15,-0.6034 -98.942,-1.8112 -130.315,-3.6212 l 13.871,69.3805 c 57.921,-1.2065 168.934,-1.2029 168.934,-1.2029 l 2.418,-26.5518 c -30.77,4.8268 -93.524,4.8262 -130.328,4.2228 v 1.2031 l -3.621,-23.5198 c 50.68,1.2067 119.464,-1.2153 119.464,-1.2153 z m -303.486,21.7152 c 0,0 -169.541,1.2171 -211.775,0.6141 l 4.235,24.1335 c 80.848,-2.4137 156.868,-0.6142 156.868,-0.6142 0,0 3.611,60.9431 3.008,78.44 l 38.016,-18.1062 z"
   id="path23-2" /><path
   style="fill:#f58430;fill-opacity:1;stroke:none;stroke-width:10.41702271px;stroke-linecap:butt;stroke-linejoin:miter;stroke-opacity:1"
   d="m 11387.179,5087.0869 c 397.548,-279.8902 1058.433,-362.2991 1557.912,-7.7337 l -37.611,188.8519 h -1520.301 z"
   id="path1785"
   inkscape:connector-curvature="0"
   sodipodi:nodetypes="ccccc" /><path
   style="clip-rule:evenodd;opacity:1;fill:#027ec2;fill-opacity:1;fill-rule:nonzero;stroke:none;stroke-width:2.27675152;stroke-linecap:round;stroke-linejoin:round;stroke-miterlimit:4;stroke-dasharray:none;stroke-dashoffset:0;stroke-opacity:1;paint-order:stroke markers fill;image-rendering:optimizeQuality;shape-rendering:geometricPrecision;text-rendering:geometricPrecision"
   d="m 10032.32,4981.898 c -56.6935,0.088 -82.1318,0.4631 -102.319,0.7935 v 349.9198 h 2291.379 l 87.548,-133.1359 c -856.65,-200.8329 -1911.249,-218.1446 -2276.608,-217.5774 z"
   id="rect1749-2-6"
   inkscape:connector-curvature="0"
   sodipodi:nodetypes="sccccs" /><path
   style="clip-rule:evenodd;fill:#00ac83;fill-opacity:1;fill-rule:evenodd;stroke:none;stroke-width:0.5;stroke-linecap:butt;stroke-linejoin:miter;stroke-miterlimit:4;stroke-dasharray:none;stroke-opacity:1;image-rendering:optimizeQuality;shape-rendering:geometricPrecision;text-rendering:geometricPrecision"
   d="m 1108.6704,511.91406 h 258.8237 v -29.52344 c -89.5825,-9.79305 -185.3915,6.26256 -258.8237,29.52344 z"
   transform="matrix(10.417023,0,0,10.417023,-0.08661857,0)"
   id="path1751-8"
   inkscape:connector-curvature="0"
   sodipodi:nodetypes="cccc" /></g>
</svg>
