<?xml version="1.0" encoding="UTF-8" standalone="no"?>
<!-- Created with Inkscape (http://www.inkscape.org/) -->

<svg
   xmlns:dc="http://purl.org/dc/elements/1.1/"
   xmlns:cc="http://creativecommons.org/ns#"
   xmlns:rdf="http://www.w3.org/1999/02/22-rdf-syntax-ns#"
   xmlns:svg="http://www.w3.org/2000/svg"
   xmlns="http://www.w3.org/2000/svg"
   xmlns:sodipodi="http://sodipodi.sourceforge.net/DTD/sodipodi-0.dtd"
   xmlns:inkscape="http://www.inkscape.org/namespaces/inkscape"
   width="149.09338mm"
   height="104.62588mm"
   viewBox="0 0 149.09338 104.62588"
   version="1.1"
   id="svg5863"
   inkscape:version="0.92.3 (2405546, 2018-03-11)"
   sodipodi:docname="Flaf of North Chungcheong Province.svg">
  <defs
     id="defs5857">
    <clipPath
       clipPathUnits="userSpaceOnUse"
       id="clipPath4190">
      <path
         d="M -1.5259e-5,3.0518e-4 H 515.87998 V 728.52031 H -1.5259e-5 Z"
         id="path4188"
         inkscape:connector-curvature="0"
         style="clip-rule:evenodd" />
    </clipPath>
    <clipPath
       clipPathUnits="userSpaceOnUse"
       id="clipPath4200">
      <path
         d="M 0,0 H 341.1 V 227.6 H 0 Z"
         id="path4198"
         inkscape:connector-curvature="0" />
    </clipPath>
  </defs>
  <sodipodi:namedview
     id="base"
     pagecolor="#ffffff"
     bordercolor="#666666"
     borderopacity="1.0"
     inkscape:pageopacity="0.0"
     inkscape:pageshadow="2"
     inkscape:zoom="0.98994949"
     inkscape:cx="198.93364"
     inkscape:cy="94.374472"
     inkscape:document-units="mm"
     inkscape:current-layer="layer1"
     showgrid="false"
     fit-margin-top="0"
     fit-margin-left="0"
     fit-margin-right="0"
     fit-margin-bottom="0"
     inkscape:window-width="1920"
     inkscape:window-height="1018"
     inkscape:window-x="-8"
     inkscape:window-y="-8"
     inkscape:window-maximized="1" />
  <metadata
     id="metadata5860">
    <rdf:RDF>
      <cc:Work
         rdf:about="">
        <dc:format>image/svg+xml</dc:format>
        <dc:type
           rdf:resource="http://purl.org/dc/dcmitype/StillImage" />
        <dc:title></dc:title>
      </cc:Work>
    </rdf:RDF>
  </metadata>
  <g
     inkscape:label="Layer 1"
     inkscape:groupmode="layer"
     id="layer1"
     transform="translate(53.469715,-123.24708)">
    <rect
       style="opacity:1;fill:#ffffff;fill-opacity:1;fill-rule:nonzero;stroke:none;stroke-width:1.17386389;stroke-linecap:round;stroke-linejoin:round;stroke-miterlimit:4;stroke-dasharray:none;stroke-dashoffset:0;stroke-opacity:1;paint-order:stroke markers fill"
       id="rect5749"
       width="149.09338"
       height="104.62588"
       x="-53.469715"
       y="123.24708" />
    <g
       transform="matrix(0.72127948,0,0,-0.72127948,-95.70293,540.04995)"
       id="g4184">
      <g
         id="g4186"
         clip-path="url(#clipPath4190)">
        <g
           id="g4192"
           transform="matrix(2.8764,-3.77e-7,-9.4e-8,2.0215,58.1,432.87)">
          <g
             id="g4194"
             transform="scale(0.21108,0.31634)">
            <g
               id="g4196"
               clip-path="url(#clipPath4200)">
              <g
                 id="g4202">
                <g
                   id="g4204">
                  <g
                     id="g4206" />
                </g>
                <path
                   d="m 185.97,79.389 6.21,-0.021 6.01,-0.064 5.79,-0.107 5.57,-0.128 2.68,-0.086 2.62,-0.085 2.54,-0.107 2.47,-0.085 2.37,-0.128 2.3,-0.107 2.19,-0.128 2.11,-0.149 2.03,-0.129 1.89,-0.149 1.82,-0.149 1.68,-0.171 1.58,-0.15 1.47,-0.17 1.34,-0.171 1.21,-0.192 1.09,-0.171 0.96,-0.192 0.83,-0.192 0.68,-0.192 0.54,-0.193 0.38,-0.213 0.23,-0.192 0.09,-0.214 -0.09,-0.213 -0.23,-0.192 -0.38,-0.214 -0.54,-0.192 -0.68,-0.192 -0.83,-0.192 -0.96,-0.192 -1.09,-0.192 -1.21,-0.171 -1.34,-0.171 -1.47,-0.171 -1.58,-0.171 -1.68,-0.149 -1.82,-0.15 -1.89,-0.149 -2.03,-0.149 -2.11,-0.128 -2.19,-0.129 -2.3,-0.128 -2.37,-0.106 -2.47,-0.107 -2.54,-0.086 -2.62,-0.085 -2.68,-0.085 -5.57,-0.15 -5.79,-0.085 -6.01,-0.064 -6.21,-0.022 -6.18,0.022 -6.01,0.064 -5.82,0.085 -5.56,0.15 -2.68,0.085 -2.63,0.085 -2.53,0.086 -2.45,0.107 -2.39,0.106 -2.3,0.128 -2.2,0.129 -2.11,0.128 -2,0.149 -1.92,0.149 -1.79,0.15 -1.7,0.149 -1.58,0.171 -1.47,0.171 -1.34,0.171 -1.22,0.171 -1.08,0.192 -0.96,0.192 -0.81,0.192 -0.69,0.192 -0.53,0.192 -0.38,0.214 -0.24,0.192 -0.08,0.213 0.08,0.214 0.24,0.192 0.38,0.213 0.53,0.193 0.69,0.192 0.81,0.192 0.96,0.192 1.08,0.171 1.22,0.192 1.34,0.171 1.47,0.17 1.58,0.15 1.7,0.171 1.79,0.149 1.92,0.149 2,0.129 2.11,0.149 2.2,0.128 2.3,0.107 2.39,0.128 2.45,0.085 2.53,0.107 2.63,0.085 2.68,0.086 5.56,0.128 5.82,0.107 6.01,0.064 z"
                   style="fill:#008fe0;fill-opacity:1;fill-rule:evenodd;stroke:none"
                   id="path4208"
                   inkscape:connector-curvature="0" />
                <path
                   d="m 196.78,170.2 -0.07,0.07 -0.06,0.06 -0.06,0.07 -0.05,0.02 h -0.08 l -0.13,-0.04 -0.15,-0.11 -0.23,-0.19 -0.02,-0.05 h -0.05 -0.04 l -0.02,0.03 -0.06,0.06 -0.05,0.11 -0.04,0.12 -0.06,0.11 -0.05,0.04 -0.04,0.03 -0.04,0.04 h -0.07 l -0.23,-0.11 -0.17,-0.04 -0.13,-0.02 h -0.1 l -0.05,0.02 -0.04,0.02 -0.02,0.04 -0.02,0.05 v 0.04 l -0.02,0.02 h -0.03 l -0.04,-0.04 -0.06,-0.07 -0.11,-0.1 -0.13,-0.18 -0.19,-0.21 -0.21,-0.02 -0.75,-0.09 0.22,0.18 0.12,0.12 -0.04,0.26 -0.02,0.19 0.02,0.13 0.04,0.06 0.03,0.05 0.04,0.04 0.02,0.02 v 0.02 l 0.02,0.04 0.02,0.09 0.02,0.11 0.02,0.12 v 0.18 l -0.04,0.21 -0.06,0.11 -0.04,0.12 -0.09,0.13 -0.11,0.15 -0.1,-0.15 -0.11,-0.13 -0.08,-0.1 -0.07,-0.09 -0.06,-0.04 -0.05,-0.02 -0.02,0.04 v 0.09 l 0.02,0.12 0.05,0.15 0.04,0.17 0.02,0.18 v 0.12 0.09 l -0.02,0.02 h -0.04 l -0.05,-0.02 -0.06,-0.04 0.04,0.1 0.02,0.09 0.03,0.06 0.02,0.07 0.02,0.06 0.02,0.02 v 0.04 h 0.02 v 0.03 0 -0.03 0 l -0.02,-0.02 V 173 172.98 l -0.02,-0.02 -0.02,0.02 -0.02,0.06 -0.05,0.09 -0.04,0.15 -0.06,0.15 -0.07,0.15 -0.06,0.15 -0.06,0.13 -0.07,0.08 -0.08,0.09 -0.07,0.06 -0.04,0.04 -0.04,0.07 -0.05,0.06 -0.02,0.09 v 0.1 l 0.05,0.15 0.04,0.13 0.04,0.11 0.02,0.1 0.04,0.07 0.03,0.06 v 0.07 l 0.02,0.04 v 0.04 0.07 l -0.02,0.06 v 0.06 l -0.03,0.09 -0.02,0.11 -0.04,0.15 -0.04,0.14 -0.04,0.18 -0.05,0.17 -0.06,0.15 -0.04,0.17 -0.05,0.17 -0.06,0.17 -0.06,0.17 -0.05,0.17 -0.06,0.15 -0.06,0.17 -0.07,0.17 -0.04,0.17 -0.07,0.15 -0.04,0.17 -0.06,0.17 -0.04,0.15 -0.07,0.17 -0.02,0.17 -0.04,0.2 -0.02,0.19 -0.03,0.19 -0.02,0.21 v 0.2 l -0.02,0.21 v 0.19 l 0.02,0.19 0.02,0.2 0.03,0.19 0.04,0.17 0.02,0.17 0.02,0.15 0.04,0.15 0.03,0.15 0.02,0.13 0.02,0.12 v 0.13 l 0.02,0.11 0.02,0.11 0.04,0.1 0.05,0.11 0.04,0.08 0.06,0.09 0.05,0.06 0.06,0.09 0.06,0.08 0.11,0.11 0.13,0.11 0.19,0.1 -0.02,0.09 v 0.06 l 0.02,0.09 0.04,0.06 0.04,0.09 0.05,0.06 0.02,0.09 0.04,0.04 0.02,0.07 0.02,0.06 0.03,0.06 0.02,0.05 0.02,0.06 0.02,0.04 v 0.07 l 0.02,0.04 v 0.06 0.05 0.06 l -0.02,0.04 -0.02,0.05 -0.02,0.06 -0.02,0.04 -0.03,0.04 -0.02,0.05 -0.02,0.04 v 0.06 l -0.02,0.05 v 0.04 0.04 0.07 l 0.02,0.04 0.02,0.04 v 0.07 l -0.02,0.06 v 0.06 l -0.02,0.07 -0.02,0.06 v 0.07 l 0.02,0.04 0.02,0.06 0.02,0.07 0.02,0.04 0.05,0.09 0.02,0.06 0.02,0.06 0.02,0.07 v 0.04 l 0.02,0.04 0.02,0.05 0.05,0.02 0.04,0.04 0.06,0.02 0.04,0.02 0.05,0.04 0.04,0.07 0.02,0.06 0.02,0.07 v 0.06 0.06 0.07 l -0.02,0.06 -0.02,0.07 -0.04,0.06 0.04,0.11 0.04,0.1 0.05,0.11 0.04,0.11 0.04,0.08 0.04,0.11 0.05,0.09 0.06,0.08 0.04,0.09 0.07,0.08 0.06,0.09 0.04,0.08 0.07,0.09 0.06,0.06 0.06,0.09 0.09,0.06 0.06,0.07 0.05,0.06 0.04,0.06 0.04,0.05 0.04,0.04 0.03,0.02 0.02,0.04 0.04,0.02 0.02,0.05 0.04,0.02 0.05,0.02 0.04,0.02 0.06,0.02 0.07,0.05 0.08,0.02 0.11,0.04 0.08,0.11 0.07,0.1 0.08,0.13 0.07,0.11 v 0.04 l 0.04,0.06 0.08,0.07 0.07,0.08 0.08,0.07 0.07,0.08 0.04,0.05 -0.02,0.04 -0.04,0.04 -0.02,0.04 -0.03,0.03 -0.02,0.04 -0.02,0.04 -0.02,0.04 v 0.05 l 0.02,0.04 0.24,0.23 0.25,0.22 0.26,0.19 0.25,0.19 0.28,0.15 0.3,0.15 0.28,0.15 0.29,0.13 0.3,0.1 0.32,0.09 0.32,0.06 0.34,0.07 0.32,0.06 0.32,0.07 0.17,0.06 0.15,0.04 0.15,0.09 0.13,0.06 0.32,0.13 0.3,0.11 0.32,0.08 0.29,0.09 0.3,0.08 0.28,0.07 0.3,0.04 0.3,0.04 0.27,0.02 0.3,0.03 h 0.3 0.28 l 0.3,-0.05 0.29,-0.04 0.28,-0.04 0.3,-0.09 0.3,-0.08 0.28,-0.09 0.27,-0.08 0.26,-0.11 0.25,-0.11 0.26,-0.1 0.26,-0.11 0.23,-0.13 0.23,-0.13 0.24,-0.13 0.23,-0.14 0.22,-0.13 0.23,-0.15 0.24,-0.15 0.21,-0.15 0.23,-0.17 v -0.04 l 0.02,-0.03 0.03,-0.04 0.04,-0.04 0.04,-0.04 0.04,-0.07 0.05,-0.06 0.04,-0.09 0.02,-0.1 0.02,-0.13 v -0.13 -0.11 -0.1 -0.07 l -0.02,-0.04 h -0.02 v 0.02 h 0.02 v 0 l 0.02,0.02 h 0.04 0.03 0.04 0.04 0.04 0.05 l 0.04,-0.02 h 0.04 l 0.04,-0.02 h 0.05 l 0.04,-0.02 0.04,-0.02 -0.06,-0.2 -0.05,-0.17 0.2,0.02 h 0.19 l 0.87,-0.25 0.24,-0.04 0.04,-0.09 0.08,-0.06 0.09,-0.09 0.09,-0.08 0.08,-0.09 0.06,-0.09 0.05,-0.04 v -0.04 -0.06 -0.05 l 0.12,-0.21 0.11,-0.15 0.07,-0.13 0.06,-0.13 0.04,-0.1 0.02,-0.11 0.07,-0.13 0.06,-0.13 0.09,-0.17 0.08,-0.15 0.09,-0.17 0.08,-0.17 0.11,-0.19 0.11,-0.19 0.1,-0.22 0.13,-0.23 0.13,-0.24 0.13,-0.25 0.12,-0.26 0.11,-0.25 0.11,-0.26 0.1,-0.26 0.09,-0.27 0.06,-0.28 0.09,-0.28 0.04,-0.3 0.06,-0.28 0.05,-0.32 0.02,-0.29 0.02,-0.32 v -0.32 l -0.02,-0.35 -0.11,-0.08 -0.04,-0.09 -0.04,-0.08 v -0.09 -0.08 l 0.02,-0.09 0.02,-0.08 -0.02,-0.11 -0.02,-0.09 -0.05,-0.1 -0.04,-0.11 -0.06,-0.11 -0.05,-0.1 -0.02,-0.11 -0.02,-0.11 0.02,-0.1 0.05,-0.11 0.02,-0.11 0.04,-0.1 0.04,-0.11 0.02,-0.11 0.05,-0.1 0.02,-0.11 0.02,-0.11 0.02,-0.13 v -0.1 -0.11 -0.11 l -0.02,-0.1 -0.04,-0.11 -0.05,-0.13 -0.04,-0.1 -0.04,-0.11 -0.04,-0.13 -0.05,-0.11 -0.06,-0.08 -0.06,-0.11 -0.09,-0.1 -0.06,-0.09 -0.09,-0.09 -0.06,-0.1 -0.07,-0.09 -0.08,-0.1 -0.05,-0.09 -0.06,-0.11 -0.04,-0.08 -0.04,-0.11 -0.03,-0.1 -0.04,-0.18 -0.04,-0.12 -0.04,-0.15 -0.07,-0.13 -0.13,-0.21 -0.14,-0.2 -0.15,-0.17 -0.13,-0.13 -0.07,-0.1 -0.04,-0.09 -0.13,-0.1 -0.15,-0.11 -0.12,-0.11 -0.13,-0.1 -0.13,-0.13 -0.13,-0.11 -0.1,-0.11 -0.13,-0.1 -0.11,-0.13 -0.1,-0.13 -0.11,-0.17 -0.09,-0.17 -0.08,-0.19 -0.11,-0.15 -0.1,-0.15 -0.11,-0.13 -0.11,-0.11 -0.15,-0.06 -0.15,-0.06 -0.15,-0.07 -0.14,-0.08 -0.17,-0.07 -0.15,-0.11 -0.15,-0.12 -0.15,-0.15 -0.15,-0.13 -0.15,-0.15 -0.15,-0.13 -0.15,-0.15 -0.17,-0.13 -0.15,-0.1 -0.15,-0.13 -0.36,-0.13 -0.34,-0.13 -0.32,-0.12 -0.3,-0.11 -0.28,-0.09 -0.25,-0.08 -0.26,-0.09 -0.25,-0.06 -0.24,-0.07 -0.25,-0.1 -0.24,-0.09 -0.25,-0.1 -0.26,-0.11 -0.23,-0.09 -0.26,-0.08 -0.23,-0.07 -0.24,-0.06 -0.25,-0.04 -0.24,-0.02 -0.25,-0.03 -0.54,-0.02 h -0.57 l -0.64,0.05 -0.71,0.04 -0.81,0.06 -0.89,0.04 v 0.2 l -0.02,0.13 -0.02,0.08 -0.02,0.04 -0.05,0.02 h -0.04 -0.06 l -0.05,-0.02 h -0.06 -0.04 l -0.07,0.02 -0.04,0.05 -0.02,0.08 -0.04,0.13 v 0.19 0.24 z"
                   style="fill:#db2a2c;fill-opacity:1;fill-rule:evenodd;stroke:none"
                   id="path4210"
                   inkscape:connector-curvature="0" />
                <path
                   d="m 167.39,178.04 0.23,-0.28 0.26,-0.23 0.28,-0.22 0.27,-0.19 0.3,-0.19 0.3,-0.15 0.32,-0.15 0.32,-0.15 0.66,-0.23 0.66,-0.22 0.68,-0.21 0.71,-0.21 0.66,-0.22 0.66,-0.25 0.32,-0.15 0.32,-0.17 0.3,-0.17 0.29,-0.2 0.3,-0.21 0.26,-0.21 0.27,-0.26 0.24,-0.28 0.23,-0.3 0.22,-0.34 0.19,-0.36 0.17,-0.39 -0.9,-0.34 -1.08,0.07 -0.79,0.53 -0.79,0.49 -0.83,0.45 -0.81,0.41 -0.85,0.38 -0.86,0.32 -0.85,0.3 -0.87,0.28 -0.88,0.21 -0.89,0.21 -0.92,0.15 -0.91,0.15 -0.94,0.11 -0.94,0.08 -0.94,0.07 -0.98,0.02 -0.06,0.19 -0.04,0.22 -0.03,0.19 v 0.19 l 0.03,0.19 0.04,0.19 0.06,0.18 0.07,0.17 0.08,0.17 0.09,0.15 0.08,0.15 0.11,0.12 0.1,0.11 0.11,0.11 0.11,0.08 0.1,0.07 h 0.17 0.18 l 0.17,-0.05 0.17,-0.02 0.38,-0.13 0.36,-0.14 0.77,-0.35 0.77,-0.36 0.38,-0.15 0.38,-0.11 0.2,-0.04 0.19,-0.02 h 0.17 l 0.17,0.02 0.19,0.02 0.17,0.07 0.17,0.06 0.15,0.11 0.17,0.1 0.15,0.15 0.15,0.2 z m -3.07,-4.63 0.75,-0.07 0.74,-0.08 0.73,-0.11 0.7,-0.13 0.7,-0.15 0.71,-0.17 0.68,-0.19 0.66,-0.21 0.66,-0.24 0.66,-0.25 0.64,-0.28 0.64,-0.3 0.64,-0.3 0.62,-0.34 0.61,-0.34 0.62,-0.37 0.62,-0.38 0.6,-0.41 0.59,-0.42 0.6,-0.43 0.6,-0.45 0.57,-0.47 0.6,-0.49 0.58,-0.49 0.57,-0.51 0.58,-0.54 0.57,-0.53 0.58,-0.55 1.15,-1.16 1.15,-1.21 0.17,0.04 0.15,0.02 0.15,-0.02 0.15,-0.04 0.12,-0.05 0.15,-0.08 0.13,-0.09 0.13,-0.1 0.11,-0.13 0.1,-0.13 0.09,-0.15 0.08,-0.15 0.09,-0.15 0.06,-0.17 0.05,-0.17 0.02,-0.17 -0.09,-0.17 -0.08,-0.15 -0.11,-0.13 -0.11,-0.13 -0.12,-0.1 -0.13,-0.11 -0.11,-0.13 -0.13,-0.13 -0.85,0.84 -0.85,0.79 -0.88,0.79 -0.87,0.74 -0.85,0.73 -0.88,0.68 -0.89,0.66 -0.88,0.64 -0.89,0.6 -0.9,0.58 -0.89,0.55 -0.9,0.52 -0.91,0.49 -0.92,0.44 -0.94,0.43 -0.93,0.41 -0.96,0.36 -0.96,0.34 -0.96,0.3 -0.98,0.28 -1,0.23 -1,0.2 -1.01,0.14 -1.02,0.13 -0.53,0.05 -0.51,0.02 -0.54,0.02 h -0.53 -0.53 l -0.54,-0.02 -0.55,-0.02 -0.53,-0.05 -0.56,-0.04 -0.55,-0.06 -0.55,-0.09 -0.56,-0.08 -0.57,-0.11 -0.58,-0.11 -0.55,-0.13 -0.6,-0.15 -0.04,-0.06 -0.05,-0.04 -0.06,-0.05 -0.08,-0.02 -0.2,-0.02 -0.21,0.02 -0.23,0.05 -0.26,0.08 -0.28,0.09 -0.27,0.13 -0.58,0.27 -0.53,0.3 -0.24,0.15 -0.21,0.15 -0.19,0.13 -0.13,0.13 -0.15,0.17 -0.08,0.15 -0.03,0.08 v 0.07 0.04 l 0.03,0.06 0.06,0.11 0.09,0.09 0.12,0.08 0.13,0.09 0.3,0.17 0.26,0.21 0.1,0.11 0.07,0.15 0.02,0.06 0.02,0.09 -0.02,0.08 v 0.09 l 0.25,-0.09 0.26,-0.08 0.25,-0.07 0.24,-0.02 0.25,-0.02 0.26,-0.02 0.23,0.02 0.26,0.02 0.49,0.09 0.49,0.1 0.49,0.15 0.49,0.15 0.47,0.15 0.49,0.13 0.47,0.11 0.49,0.08 h 0.23 l 0.24,0.02 0.23,-0.02 0.26,-0.02 0.23,-0.06 0.24,-0.07 0.23,-0.08 0.26,-0.13 0.19,0.1 0.23,0.09 0.24,0.09 0.25,0.08 0.26,0.07 0.26,0.04 0.27,0.04 0.28,0.02 0.25,0.02 0.28,-0.02 0.26,-0.02 0.25,-0.06 0.24,-0.07 0.23,-0.1 0.22,-0.13 0.19,-0.15 z m 14.41,-2.18 1.89,-1.79 1.9,-1.84 0.94,-0.92 0.91,-0.94 0.94,-0.96 0.92,-0.96 0.89,-0.96 0.92,-0.98 0.9,-0.98 0.87,-1.01 0.87,-1 0.88,-1.02 0.85,-1.03 0.85,-1.02 0.83,-1.05 0.81,-1.07 0.81,-1.04 0.81,-1.09 0.77,-1.07 0.77,-1.09 0.74,-1.11 0.75,-1.09 0.7,-1.13 0.71,-1.11 0.68,-1.13 0.68,-1.15 0.64,-1.16 0.62,-1.15 0.62,-1.17 0.57,-1.18 h -0.51 l -0.68,1.16 -0.68,1.15 -0.71,1.15 -0.72,1.15 -0.73,1.16 -0.76,1.15 -0.77,1.15 -0.77,1.13 -0.81,1.14 -0.81,1.11 -0.83,1.11 -0.83,1.11 -0.85,1.08 -0.88,1.09 -0.87,1.07 -0.87,1.07 -0.92,1.02 -0.9,1.05 -0.91,1 -0.94,1.01 -0.94,0.98 -0.94,0.96 -0.96,0.94 -0.95,0.92 -0.96,0.91 -0.98,0.88 -0.98,0.85 -0.98,0.86 -1.01,0.81 -0.98,0.79 -1,0.77 -1,0.72 v 0.15 l 0.06,0.11 0.09,0.11 0.11,0.1 0.12,0.07 0.17,0.08 0.17,0.04 0.18,0.05 0.4,0.06 0.41,0.02 h 0.36 z m -20.31,-13 -0.11,-0.11 -0.13,-0.06 -0.15,-0.07 -0.15,-0.04 -0.32,-0.04 -0.36,-0.02 h -0.36 -0.36 -0.34 l -0.28,-0.05 -0.19,1.09 0.21,0.05 0.21,0.04 0.2,0.02 h 0.17 l 0.14,-0.02 0.15,-0.02 0.15,-0.02 0.13,-0.05 0.24,-0.08 0.23,-0.13 0.26,-0.11 0.27,-0.13 0.56,-0.32 z m 4.34,0.32 -3.13,0.04 0.09,0.28 0.02,0.17 v 0.06 0.05 l -0.02,0.02 -0.02,0.02 -0.07,0.02 -0.06,0.02 -0.09,0.07 -0.08,0.1 0.21,0.09 0.21,0.04 0.22,0.04 0.19,0.02 h 0.17 l 0.17,-0.02 0.17,-0.04 0.17,-0.06 0.32,-0.13 0.32,-0.19 0.32,-0.2 0.36,-0.21 z m 14.43,-1.82 -0.04,-0.06 -0.09,-0.04 -0.1,-0.05 -0.11,-0.02 h -0.15 -0.15 l -0.15,0.02 -0.19,0.05 -0.38,0.08 -0.43,0.13 -0.42,0.17 -0.47,0.19 -0.47,0.2 -0.45,0.21 -0.43,0.21 -0.4,0.22 -0.38,0.19 -0.3,0.19 -0.26,0.17 -0.19,0.13 -0.38,1.84 0.04,0.04 0.06,0.02 0.09,0.04 h 0.1 0.24 l 0.26,-0.04 0.29,-0.09 0.32,-0.1 0.34,-0.13 0.37,-0.17 0.34,-0.17 0.34,-0.19 0.34,-0.22 0.3,-0.23 0.3,-0.24 0.23,-0.23 0.21,-0.24 0.15,-0.25 0.19,-0.24 0.18,-0.23 0.14,-0.26 0.17,-0.21 0.18,-0.22 0.21,-0.19 0.11,-0.08 0.14,-0.07 0.15,-0.06 z m -10.5,-1.75 0.23,-0.15 0.26,-0.12 0.23,-0.11 0.26,-0.13 0.23,-0.11 0.26,-0.12 0.23,-0.13 0.24,-0.15 0.12,-0.11 0.17,-0.15 0.2,-0.17 0.17,-0.15 0.12,-0.15 0.09,-0.13 0.02,-0.04 v -0.02 l -0.04,-0.02 -0.05,0.02 -0.44,0.13 -0.75,0.28 -0.87,0.34 -0.83,0.38 -0.34,0.19 -0.3,0.18 -0.11,0.08 -0.08,0.09 -0.07,0.06 -0.04,0.06 v 0.05 l 0.04,0.04 0.07,0.04 0.1,0.02 0.15,0.02 h 0.19 0.26 z m 15.79,-1.53 0.04,0.06 0.04,0.04 0.07,0.07 0.04,0.06 0.02,0.09 0.02,0.08 v 0.13 l -0.04,0.13 0.19,-0.07 0.19,-0.08 0.22,-0.11 0.23,-0.15 0.49,-0.34 0.51,-0.38 0.51,-0.43 0.47,-0.41 0.43,-0.36 0.32,-0.3 0.02,-0.89 -0.08,-0.09 -0.11,-0.06 -0.11,-0.03 -0.13,-0.02 h -0.12 l -0.15,0.02 -0.15,0.03 -0.15,0.04 -0.34,0.15 -0.36,0.19 -0.37,0.21 -0.36,0.26 -0.36,0.26 -0.36,0.27 -0.32,0.28 -0.32,0.28 -0.49,0.47 -0.32,0.32 -0.02,0.9 0.06,0.02 0.08,0.02 0.07,-0.02 0.04,-0.02 0.11,-0.07 0.1,-0.08 0.09,-0.13 0.09,-0.11 0.1,-0.13 z m 12.62,-11.94 -0.13,0.02 -0.13,0.03 -0.13,0.04 -0.13,0.06 -0.27,0.15 -0.26,0.19 -0.28,0.22 -0.27,0.25 -0.28,0.28 -0.28,0.28 -0.53,0.57 -0.53,0.56 -0.26,0.26 -0.25,0.23 -0.24,0.19 -0.23,0.15 -2.22,2.78 0.06,0.1 0.07,0.09 0.06,0.06 0.09,0.05 0.06,0.02 0.09,0.02 0.08,-0.02 h 0.09 l 0.17,-0.07 0.17,-0.08 0.17,-0.07 0.15,-0.06 1.04,-0.77 0.96,-0.77 0.45,-0.38 0.42,-0.39 0.41,-0.4 0.36,-0.39 0.34,-0.38 0.3,-0.38 0.28,-0.41 0.21,-0.38 0.09,-0.22 0.08,-0.19 0.07,-0.21 0.06,-0.19 0.04,-0.22 0.02,-0.21 0.03,-0.19 z m 4.88,-5.83 0.08,-0.34 0.11,-0.32 0.1,-0.3 0.11,-0.27 0.13,-0.28 0.15,-0.24 0.15,-0.25 0.15,-0.22 0.34,-0.42 0.34,-0.39 0.36,-0.36 0.36,-0.36 0.36,-0.34 0.37,-0.37 0.34,-0.38 0.32,-0.41 0.15,-0.21 0.15,-0.24 0.12,-0.23 0.11,-0.26 0.11,-0.27 0.1,-0.28 0.09,-0.32 0.06,-0.32 -0.23,0.04 -0.21,0.04 -0.2,0.07 -0.15,0.1 -0.14,0.11 -0.15,0.13 -0.11,0.13 -0.11,0.15 -0.08,0.17 -0.09,0.17 -0.06,0.19 -0.07,0.19 -0.1,0.39 -0.11,0.38 -0.11,0.41 -0.1,0.36 -0.09,0.17 -0.08,0.15 -0.09,0.15 -0.1,0.15 -0.11,0.11 -0.13,0.1 -0.15,0.09 -0.17,0.06 -0.19,0.04 -0.21,0.03 h -0.24 l -0.27,-0.05 -0.54,0.88 -0.55,0.89 -0.58,0.88 -0.59,0.88 -0.6,0.85 -0.66,0.83 -0.32,0.41 -0.34,0.38 -0.36,0.39 -0.34,0.36 0.12,0.28 0.15,0.23 0.13,0.17 0.13,0.15 0.13,0.09 0.12,0.06 0.13,0.02 0.13,-0.02 0.11,-0.04 0.12,-0.09 0.13,-0.1 0.11,-0.13 0.25,-0.32 0.24,-0.39 0.47,-0.94 0.49,-0.96 0.27,-0.44 0.26,-0.39 0.15,-0.19 0.13,-0.15 0.15,-0.13 z m 7.28,-2.64 -0.27,0.27 -0.3,0.35 -0.32,0.36 -0.28,0.43 -0.13,0.21 -0.1,0.23 -0.11,0.22 -0.06,0.23 -0.02,0.24 v 0.23 l 0.02,0.22 0.08,0.23 0.15,-0.13 0.15,-0.15 0.13,-0.17 0.13,-0.17 0.21,-0.36 0.19,-0.41 0.17,-0.42 0.17,-0.43 0.17,-0.43 0.17,-0.4 z m 6.53,-16.12 -0.2,-0.41 -0.06,0.13 -0.11,0.13 -0.1,0.15 -0.15,0.15 -0.32,0.32 -0.32,0.34 -0.15,0.17 -0.13,0.19 -0.08,0.2 -0.07,0.19 -0.02,0.08 v 0.11 0.11 l 0.02,0.08 0.02,0.11 0.07,0.08 0.06,0.11 0.07,0.11 0.19,-0.17 0.21,-0.24 0.26,-0.28 0.23,-0.29 0.21,-0.35 0.2,-0.34 0.06,-0.17 0.06,-0.17 0.05,-0.17 z m 1.1,-1.92 -0.02,-0.15 v -0.17 l 0.02,-0.19 0.03,-0.18 v -0.17 l -0.03,-0.12 -0.02,-0.07 -0.04,-0.04 -0.06,-0.04 -0.07,-0.05 -0.1,0.09 -0.11,0.06 -0.09,0.11 -0.06,0.11 -0.06,0.1 -0.07,0.11 -0.04,0.13 -0.04,0.13 -0.05,0.25 -0.04,0.26 v 0.26 l -0.02,0.25 0.06,0.02 h 0.07 l 0.06,-0.02 0.07,-0.02 0.1,-0.06 0.11,-0.11 0.11,-0.13 0.1,-0.13 0.11,-0.13 z m -67.62,57.81 -1.88,-1.99 0.09,-0.27 0.6,0.3 0.27,0.1 0.22,0.13 0.21,0.13 0.17,0.15 0.32,0.3 0.3,0.27 0.15,0.15 0.15,0.11 0.17,0.13 0.19,0.08 0.19,0.07 0.24,0.06 0.25,0.02 h 0.3 l -0.02,-0.15 v -0.15 -0.15 l 0.04,-0.12 0.04,-0.11 0.05,-0.11 0.06,-0.08 0.09,-0.09 0.17,-0.15 0.21,-0.13 0.21,-0.1 0.21,-0.09 0.22,-0.1 0.19,-0.09 0.09,-0.06 0.06,-0.07 0.06,-0.06 0.05,-0.07 0.04,-0.08 0.02,-0.09 v -0.1 l -0.02,-0.11 -0.04,-0.11 -0.05,-0.12 -0.08,-0.15 -0.11,-0.15 -0.4,-0.13 -0.45,-0.17 -0.47,-0.19 -0.47,-0.24 -0.45,-0.23 -0.42,-0.26 -0.22,-0.15 -0.17,-0.15 -0.19,-0.15 -0.15,-0.15 -0.23,-0.23 -0.19,-0.2 -0.2,-0.14 -0.17,-0.13 -0.29,-0.22 -0.26,-0.17 -0.23,-0.15 -0.2,-0.17 -0.08,-0.1 -0.11,-0.13 -0.08,-0.13 -0.09,-0.17 0.19,-0.04 0.17,-0.02 0.17,-0.03 0.17,0.03 0.18,0.02 0.17,0.04 0.17,0.06 0.15,0.07 0.29,0.15 0.32,0.17 0.3,0.17 0.28,0.17 0.42,0.19 0.41,0.19 0.43,0.2 0.42,0.21 0.43,0.19 0.45,0.24 0.44,0.23 0.49,0.26 0.43,0.21 0.43,0.19 0.44,0.17 0.47,0.13 0.47,0.13 0.47,0.08 0.49,0.09 0.49,0.04 0.49,0.02 0.49,-0.02 0.51,-0.04 0.49,-0.06 0.49,-0.11 0.49,-0.13 0.49,-0.15 0.49,-0.19 0.15,0.19 0.15,0.15 0.17,0.13 0.17,0.11 0.15,0.08 0.17,0.04 0.17,0.05 0.17,0.02 0.17,0.02 0.2,-0.02 0.17,-0.02 0.17,-0.02 0.36,-0.09 0.36,-0.09 0.36,-0.08 0.35,-0.09 0.19,-0.02 0.17,-0.02 h 0.17 0.17 l 0.17,0.02 0.17,0.05 0.17,0.06 0.17,0.06 0.17,0.11 0.15,0.13 0.17,0.15 0.15,0.19 0.11,-0.15 0.1,-0.15 0.11,-0.13 0.11,-0.1 0.12,-0.11 0.13,-0.09 0.11,-0.06 0.13,-0.06 0.27,-0.09 0.26,-0.06 0.28,-0.02 0.27,-0.03 h 0.56 0.55 l 0.26,-0.02 0.27,-0.04 0.26,-0.09 0.23,-0.1 0.26,-0.07 0.23,-0.06 0.24,-0.06 0.21,-0.09 0.45,-0.21 0.4,-0.24 0.81,-0.55 0.79,-0.6 0.41,-0.3 0.4,-0.26 0.43,-0.25 0.43,-0.22 0.21,-0.08 0.23,-0.09 0.24,-0.06 0.23,-0.06 0.26,-0.05 0.25,-0.02 h 0.26 0.28 l 0.17,-0.21 0.15,-0.22 0.17,-0.21 0.19,-0.17 0.17,-0.17 0.19,-0.17 0.19,-0.15 0.22,-0.13 0.4,-0.26 0.41,-0.23 0.42,-0.19 0.43,-0.22 0.42,-0.19 0.43,-0.23 0.41,-0.24 0.38,-0.25 0.19,-0.15 0.19,-0.15 0.17,-0.17 0.17,-0.17 0.17,-0.2 0.15,-0.21 0.15,-0.23 0.13,-0.24 0.7,-0.53 0.58,-0.47 0.49,-0.43 0.47,-0.41 0.45,-0.4 0.49,-0.45 0.57,-0.45 0.7,-0.53 0.11,-0.17 0.13,-0.17 0.11,-0.19 0.12,-0.2 0.13,-0.15 0.13,-0.15 0.08,-0.04 0.09,-0.04 0.09,-0.02 h 0.1 l 0.07,0.02 0.06,0.04 0.04,0.07 0.02,0.06 0.05,0.13 v 0.17 0.17 l -0.03,0.17 -0.02,0.17 -0.02,0.17 0.28,-0.13 0.28,-0.15 0.29,-0.19 0.3,-0.21 0.32,-0.26 0.3,-0.28 0.3,-0.32 0.3,-0.32 0.3,-0.32 0.27,-0.36 0.26,-0.34 0.25,-0.34 0.22,-0.36 0.19,-0.35 0.15,-0.34 0.13,-0.32 0.1,0.02 0.09,0.02 h 0.11 l 0.08,-0.02 0.17,-0.04 0.15,-0.09 0.13,-0.12 0.1,-0.13 0.13,-0.17 0.09,-0.17 0.21,-0.37 0.21,-0.36 0.11,-0.17 0.13,-0.15 0.13,-0.13 0.17,-0.1 0.74,-0.77 0.71,-0.77 0.66,-0.79 0.64,-0.79 0.59,-0.79 0.6,-0.81 0.55,-0.83 0.56,-0.84 1.08,-1.68 1.09,-1.73 1.11,-1.77 1.17,-1.8 0.98,-1.81 0.98,-1.8 1,-1.81 1.03,-1.81 0.98,-1.82 0.96,-1.86 0.47,-0.91 0.44,-0.94 0.45,-0.96 0.43,-0.97 -0.66,0.94 -0.64,0.96 -0.64,1.01 -0.64,1 -0.64,1 -0.66,1.03 -0.68,0.98 -0.69,0.98 0.03,0.15 v 0.17 0.13 0.15 l -0.07,0.24 -0.08,0.21 -0.13,0.17 -0.15,0.17 -0.15,0.15 -0.17,0.13 -0.36,0.28 -0.34,0.3 -0.15,0.14 -0.13,0.2 -0.04,0.1 -0.05,0.11 -0.04,0.13 -0.02,0.13 -0.6,1.04 -0.61,1.03 -0.64,1 -0.66,0.98 -0.67,0.96 -0.68,0.96 -0.72,0.94 -0.71,0.9 -0.74,0.9 -0.75,0.89 -0.76,0.86 -0.77,0.85 -0.79,0.83 -0.81,0.81 -0.81,0.79 -0.81,0.79 -0.83,0.77 -0.85,0.77 -0.86,0.73 -0.85,0.72 -0.85,0.73 -0.87,0.68 -0.88,0.69 -0.87,0.68 -0.9,0.66 -0.87,0.64 -0.9,0.62 -0.89,0.62 -1.79,1.22 -1.77,1.15 -0.15,-0.07 -0.11,-0.06 -0.12,-0.04 -0.11,-0.02 h -0.09 -0.1 l -0.09,0.04 -0.08,0.04 -0.15,0.11 -0.13,0.15 -0.11,0.19 -0.1,0.21 -0.24,0.43 -0.23,0.43 -0.13,0.17 -0.15,0.15 -0.08,0.04 -0.09,0.06 -0.11,0.03 -0.1,0.02 -0.58,0.19 -0.53,0.21 -0.53,0.24 -0.49,0.21 -0.94,0.43 -0.88,0.45 -1.59,0.83 -1.43,0.75 -0.36,0.15 -0.35,0.15 -0.36,0.12 -0.34,0.11 -0.36,0.11 -0.36,0.08 -0.37,0.07 -0.36,0.06 -0.38,0.02 -0.39,0.02 -0.4,-0.02 -0.41,-0.02 -0.44,-0.06 -0.45,-0.09 -0.45,-0.11 -0.49,-0.12 -0.21,0.19 -0.21,0.15 -0.22,0.13 -0.23,0.1 -0.24,0.07 -0.23,0.06 -0.26,0.04 h -0.23 -0.51 -0.49 l -0.49,-0.02 h -0.49 l -0.07,-0.25 -0.08,-0.24 -0.11,-0.21 -0.08,-0.15 -0.13,-0.13 -0.11,-0.11 -0.13,-0.06 -0.15,-0.04 -0.14,-0.03 h -0.15 -0.15 l -0.17,0.03 -0.32,0.08 -0.34,0.11 -0.37,0.11 -0.34,0.1 -0.17,0.02 -0.17,0.02 -0.15,0.03 -0.17,-0.03 -0.15,-0.02 -0.15,-0.06 -0.15,-0.09 -0.12,-0.1 -0.13,-0.13 -0.13,-0.17 -0.11,-0.22 -0.1,-0.23 -0.17,0.09 -0.17,0.06 -0.15,0.04 -0.15,0.02 h -0.15 l -0.13,-0.02 -0.13,-0.04 -0.12,-0.06 -0.26,-0.15 -0.21,-0.22 -0.24,-0.23 -0.21,-0.24 -0.21,-0.25 -0.24,-0.22 -0.11,-0.1 -0.12,-0.11 -0.13,-0.09 -0.13,-0.06 -0.13,-0.06 -0.15,-0.05 -0.15,-0.02 h -0.14 l -0.18,0.02 -0.17,0.05 -0.19,0.06 -0.17,0.11 -0.27,-0.11 -0.22,-0.11 -0.21,-0.15 -0.17,-0.17 -0.34,-0.32 -0.3,-0.32 -0.17,-0.13 -0.17,-0.1 -0.17,-0.09 -0.22,-0.04 h -0.1 -0.13 l -0.13,0.02 -0.13,0.04 -0.29,0.11 -0.35,0.17 -0.06,-0.28 -0.08,-0.21 -0.09,-0.21 -0.11,-0.15 -0.12,-0.15 -0.15,-0.13 -0.17,-0.11 -0.22,-0.1 -0.1,0.04 -0.09,0.04 h -0.08 -0.07 l -0.13,-0.06 -0.12,-0.11 -0.15,-0.15 -0.17,-0.13 -0.09,-0.06 -0.11,-0.06 -0.1,-0.05 -0.13,-0.04 -0.06,-0.09 -0.07,-0.04 -0.06,-0.04 -0.11,-0.02 h -0.21 l -0.24,0.02 h -0.23 -0.21 l -0.09,-0.04 -0.08,-0.05 -0.07,-0.08 -0.06,-0.11 v -0.02 l -0.04,-0.11 -0.05,-0.12 -0.04,-0.13 -0.02,-0.13 v -0.11 l 0.02,-0.04 0.04,-0.02 h 0.05 l 0.06,0.02 v -0.26 l -0.21,-0.27 -0.24,-0.28 -0.21,-0.24 -0.21,-0.17 -0.11,-0.06 -0.11,-0.04 h -0.08 -0.11 l -0.08,0.04 -0.09,0.06 -0.08,0.09 -0.09,0.13 -0.06,-0.05 -0.07,-0.1 -0.08,-0.13 -0.09,-0.13 -0.1,-0.17 -0.11,-0.13 -0.11,-0.13 -0.1,-0.08 -0.11,-0.09 -0.09,-0.04 -0.08,-0.04 -0.07,-0.04 -0.06,-0.05 -0.08,-0.06 -0.09,-0.07 -0.15,-0.1 -0.06,-0.07 -0.05,-0.08 -0.06,-0.09 -0.04,-0.08 -0.04,-0.09 -0.07,-0.08 -0.04,-0.07 -0.07,-0.06 -0.06,-0.02 -0.06,-0.02 h -0.09 l -0.06,0.02 h -0.09 -0.06 l -0.09,-0.02 -0.04,-0.03 -0.32,-0.27 -0.32,-0.3 -0.3,-0.3 -0.25,-0.3 -0.19,-0.28 -0.15,-0.21 -0.03,-0.09 -0.02,-0.08 v -0.04 l 0.02,-0.03 v -0.06 l 0.05,-0.02 h 0.06 l 0.09,0.02 0.25,0.09 0.32,0.1 0.36,0.13 0.41,0.11 0.19,0.02 0.19,0.02 h 0.19 0.2 0.08 l 0.07,0.02 0.06,0.07 0.06,0.06 0.11,0.21 0.09,0.26 0.1,0.26 0.11,0.25 0.06,0.13 0.07,0.11 0.06,0.08 0.06,0.07 0.35,0.23 0.34,0.21 0.34,0.2 0.3,0.17 0.27,0.17 0.22,0.1 0.17,0.11 0.08,0.04 0.13,0.13 0.17,0.15 0.19,0.13 0.24,0.13 0.25,0.08 0.3,0.07 0.15,0.02 h 0.15 l 0.17,-0.02 0.17,-0.02 0.06,0.19 0.07,0.21 0.06,0.17 0.07,0.17 0.08,0.17 0.09,0.15 0.1,0.13 0.09,0.13 0.21,0.21 0.24,0.19 0.25,0.13 0.26,0.13 0.3,0.09 0.29,0.06 0.3,0.06 0.32,0.05 0.66,0.06 0.68,0.07 0.56,-0.62 0.15,0.08 0.1,0.11 0.11,0.11 0.04,0.12 0.05,0.15 0.02,0.13 v 0.17 0.15 0.32 0.3 l 0.02,0.15 0.04,0.13 0.09,0.1 0.1,0.11 0.05,-0.13 0.06,-0.13 0.08,-0.12 0.09,-0.13 0.17,-0.24 0.17,-0.23 0.06,-0.11 0.07,-0.13 0.02,-0.12 0.02,-0.13 -0.02,-0.13 -0.04,-0.15 -0.07,-0.17 -0.12,-0.17 0.06,-0.17 0.06,-0.15 0.09,-0.09 0.06,-0.06 h 0.09 0.06 l 0.09,0.04 0.08,0.04 0.19,0.13 0.2,0.13 0.1,0.04 0.11,0.02 h 0.11 l 0.12,-0.02 0.11,0.09 0.06,0.08 0.05,0.09 0.02,0.11 0.02,0.08 -0.02,0.11 -0.04,0.11 -0.05,0.1 -0.1,0.22 -0.15,0.21 -0.15,0.17 -0.13,0.17 -0.11,0.11 -0.1,0.15 -0.11,0.19 -0.08,0.21 -0.05,0.11 -0.02,0.11 v 0.1 0.09 l 0.02,0.1 0.05,0.09 0.06,0.06 0.08,0.07 0.17,0.04 0.2,0.02 0.19,0.05 0.17,0.04 0.19,0.02 0.19,0.04 0.17,0.04 0.19,0.05 0.35,0.08 0.32,0.13 0.32,0.17 0.27,0.19 0.28,0.22 0.28,0.23 0.25,0.24 0.24,0.25 0.49,-0.3 0.4,-0.23 0.19,-0.06 0.17,-0.07 0.15,-0.06 0.15,-0.02 0.13,-0.03 0.13,-0.02 0.1,0.02 h 0.13 l 0.22,0.07 0.19,0.08 0.4,0.24 0.51,0.23 0.3,0.11 0.36,0.09 0.2,0.02 0.21,0.02 h 0.26 0.25 l 0.32,1 0.34,-0.28 0.39,-0.27 0.19,-0.13 0.19,-0.13 0.21,-0.11 0.22,-0.08 0.21,-0.07 0.21,-0.04 0.21,-0.02 h 0.22 l 0.21,0.04 0.21,0.09 0.22,0.11 0.19,0.17 0.15,-0.2 0.17,-0.15 0.17,-0.15 0.17,-0.12 0.19,-0.11 0.19,-0.11 0.17,-0.1 0.22,-0.07 0.38,-0.13 0.43,-0.1 0.42,-0.07 0.43,-0.06 0.92,-0.09 0.89,-0.08 0.47,-0.09 0.45,-0.1 0.44,-0.13 0.45,-0.17 h -0.23 l -0.22,-0.04 -0.21,-0.09 -0.21,-0.11 -0.41,-0.23 -0.4,-0.26 -0.21,-0.1 -0.2,-0.11 -0.21,-0.07 -0.19,-0.02 -0.11,-0.02 -0.1,0.02 -0.11,0.02 -0.13,0.05 -0.11,0.04 -0.1,0.06 -0.13,0.09 -0.11,0.08 -0.12,-0.12 -0.11,-0.09 -0.11,-0.04 -0.13,-0.02 h -0.1 l -0.11,0.02 -0.1,0.04 -0.11,0.04 -0.24,0.09 -0.21,0.04 h -0.11 l -0.1,-0.04 -0.13,-0.06 -0.11,-0.11 0.26,-0.24 0.23,-0.21 0.26,-0.19 0.23,-0.15 0.26,-0.15 0.23,-0.11 0.26,-0.08 0.23,-0.07 0.47,-0.1 0.45,-0.07 0.45,-0.04 0.4,-0.04 0.73,-0.07 0.68,-0.04 0.34,-0.04 0.32,-0.07 0.3,-0.08 0.3,-0.11 0.3,-0.15 0.27,-0.17 0.28,-0.23 0.28,-0.3 0.27,-0.34 0.28,-0.41 0.26,-0.49 0.27,-0.56 0.11,-0.02 h 0.11 l 0.1,0.02 0.11,0.03 0.21,0.08 0.22,0.09 0.19,0.08 0.23,0.07 0.11,0.02 h 0.13 l 0.12,-0.02 0.15,-0.05 0.09,-0.15 0.08,-0.15 0.11,-0.15 0.13,-0.14 0.13,-0.13 0.15,-0.13 0.12,-0.13 0.15,-0.11 0.17,-0.08 0.15,-0.11 0.17,-0.06 0.17,-0.07 0.15,-0.06 0.17,-0.04 0.17,-0.05 0.17,-0.02 0.15,0.02 0.11,0.05 0.11,0.06 0.1,0.09 0.11,0.08 0.09,0.09 0.12,0.08 0.13,0.07 0.13,0.04 0.13,0.02 h 0.12 l 0.09,-0.02 0.09,-0.04 0.08,-0.07 0.04,-0.06 0.05,-0.07 0.06,-0.19 0.04,-0.21 v -0.21 l -0.02,-0.22 v -0.15 -0.13 -0.1 l 0.02,-0.11 0.02,-0.11 v -0.1 l 0.02,-0.13 v -0.13 l 0.2,0.13 0.17,0.11 0.15,0.06 0.15,0.02 h 0.14 l 0.13,-0.02 0.13,-0.04 0.13,-0.09 0.1,-0.08 0.13,-0.11 0.11,-0.13 0.08,-0.15 0.22,-0.3 0.19,-0.34 0.19,-0.32 0.19,-0.34 0.11,-0.15 0.11,-0.13 0.12,-0.15 0.11,-0.1 0.13,-0.11 0.13,-0.06 0.12,-0.07 0.15,-0.04 h 0.15 l 0.17,0.02 0.17,0.06 0.17,0.09 0.28,-0.15 0.26,-0.17 0.23,-0.15 0.21,-0.17 0.43,-0.34 0.41,-0.32 0.19,-0.17 0.21,-0.15 0.21,-0.13 0.22,-0.13 0.23,-0.11 0.24,-0.08 0.27,-0.09 0.28,-0.04 0.04,-0.02 0.05,-0.04 v -0.09 l -0.03,-0.08 -0.08,-0.22 -0.11,-0.23 -0.13,-0.26 -0.06,-0.25 -0.02,-0.11 v -0.09 l 0.02,-0.08 0.06,-0.04 0.13,0.06 0.13,0.06 0.11,0.02 0.1,0.03 h 0.09 l 0.08,-0.03 0.09,-0.04 0.08,-0.04 0.13,-0.15 0.11,-0.19 0.1,-0.24 0.11,-0.25 0.19,-0.58 0.22,-0.58 0.15,-0.25 0.14,-0.24 0.11,-0.1 0.09,-0.11 0.1,-0.09 0.13,-0.08 0.17,0.04 0.19,0.04 h 0.17 0.17 l 0.15,-0.02 0.17,-0.04 0.15,-0.04 0.15,-0.07 0.13,-0.08 0.13,-0.09 0.13,-0.1 0.12,-0.11 0.24,-0.24 0.23,-0.27 0.22,-0.3 0.21,-0.34 0.19,-0.32 0.21,-0.37 0.39,-0.68 0.42,-0.66 0.07,-0.09 0.08,-0.06 0.09,-0.07 0.08,-0.06 0.24,-0.08 0.23,-0.05 0.24,-0.06 0.25,-0.04 0.22,-0.07 0.17,-0.06 0.21,-0.43 0.23,-0.43 0.24,-0.4 0.23,-0.41 0.54,-0.77 0.53,-0.74 0.55,-0.75 0.54,-0.75 0.27,-0.36 0.24,-0.38 0.25,-0.39 0.24,-0.38 0.47,-0.79 0.49,-0.75 0.53,-0.71 0.53,-0.7 0.58,-0.66 0.57,-0.64 0.6,-0.62 0.62,-0.6 0.04,-0.58 0.09,-0.55 0.12,-0.51 0.15,-0.47 0.15,-0.47 0.19,-0.43 0.22,-0.43 0.21,-0.4 0.45,-0.83 0.44,-0.86 0.22,-0.45 0.19,-0.49 0.17,-0.49 0.17,-0.53 0.21,-0.13 0.22,-0.15 0.19,-0.17 0.17,-0.17 0.17,-0.17 0.15,-0.19 0.13,-0.2 0.12,-0.21 0.24,-0.43 0.21,-0.44 0.17,-0.47 0.17,-0.47 0.17,-0.47 0.17,-0.47 0.2,-0.47 0.21,-0.43 0.13,-0.21 0.12,-0.22 0.13,-0.19 0.15,-0.19 0.15,-0.17 0.19,-0.17 0.17,-0.15 0.22,-0.15 0.15,-0.39 0.17,-0.34 0.21,-0.34 0.23,-0.32 0.52,-0.62 0.51,-0.62 0.25,-0.32 0.24,-0.34 0.21,-0.34 0.17,-0.36 0.09,-0.2 0.06,-0.19 0.06,-0.21 0.05,-0.22 0.02,-0.23 0.02,-0.21 0.02,-0.26 -0.02,-0.23 0.3,-0.43 0.25,-0.43 0.26,-0.47 0.21,-0.47 0.43,-0.96 0.38,-0.96 0.19,-0.47 0.22,-0.47 0.23,-0.45 0.24,-0.45 0.27,-0.4 0.3,-0.38 0.15,-0.2 0.17,-0.17 0.17,-0.17 0.19,-0.15 v -0.25 -0.28 l 0.02,-0.24 0.05,-0.25 0.04,-0.24 0.06,-0.232 0.07,-0.235 0.08,-0.235 0.17,-0.448 0.2,-0.427 0.21,-0.427 0.23,-0.427 0.22,-0.427 0.21,-0.406 0.19,-0.427 0.17,-0.427 0.07,-0.213 0.06,-0.214 0.04,-0.235 0.04,-0.213 0.05,-0.235 v -0.235 -0.235 l -0.02,-0.234 -1.05,1.964 -1,1.985 -0.98,2.003 -1,1.99 -0.51,1 -0.52,0.98 -0.53,0.99 -0.53,0.98 -0.56,0.96 -0.57,0.96 -0.6,0.94 -0.62,0.94 0.03,0.21 0.02,0.17 v 0.19 l -0.02,0.15 -0.03,0.18 -0.04,0.14 -0.04,0.13 -0.06,0.13 -0.15,0.24 -0.17,0.21 -0.2,0.19 -0.21,0.19 -0.45,0.37 -0.42,0.38 -0.17,0.24 -0.17,0.23 -0.07,0.15 -0.06,0.13 -0.04,0.17 -0.05,0.15 -1.43,2.41 -1.49,2.46 -1.51,2.47 -1.56,2.48 -0.78,1.22 -0.81,1.23 -0.84,1.22 -0.83,1.22 -0.85,1.19 -0.85,1.18 -0.88,1.17 -0.89,1.15 -0.9,1.14 -0.91,1.11 -0.94,1.06 -0.94,1.07 -0.98,1.02 -0.98,1.01 -0.98,0.96 -1.02,0.94 -1.02,0.87 -1.05,0.86 -1.06,0.81 -1.09,0.77 -1.11,0.72 -1.13,0.69 -1.13,0.62 -1.15,0.57 -0.23,0.34 -0.22,0.28 -0.13,0.11 -0.1,0.1 -0.13,0.11 -0.13,0.06 -0.15,0.09 -0.12,0.06 -0.15,0.05 -0.15,0.04 -0.34,0.06 -0.35,0.03 -0.14,0.06 -0.13,0.06 -0.15,0.07 -0.15,0.04 -0.32,0.06 -0.34,0.07 -0.36,0.1 -0.41,0.13 -0.21,0.11 -0.24,0.11 -0.23,0.15 -0.26,0.17 -0.38,0.06 -0.34,0.09 -0.32,0.08 -0.28,0.09 -0.49,0.19 -0.42,0.21 -0.39,0.22 -0.4,0.21 -0.19,0.11 -0.24,0.1 -0.25,0.09 -0.26,0.08 -0.32,0.09 -0.36,0.08 -0.39,0.09 -0.42,0.09 -0.41,0.08 -0.4,0.09 -0.36,0.06 -0.35,0.04 -0.06,0.09 -0.06,0.1 -0.11,0.09 -0.11,0.06 -0.25,0.15 -0.28,0.13 -0.32,0.13 -0.36,0.11 -0.36,0.08 -0.37,0.11 -0.72,0.17 -0.66,0.15 -0.28,0.08 -0.23,0.11 -0.19,0.11 -0.13,0.1 -0.34,-0.17 -0.37,-0.12 -0.34,-0.09 -0.38,-0.06 -0.36,-0.07 -0.39,-0.02 -0.38,-0.02 h -0.38 l -0.75,-0.02 -0.75,-0.02 -0.36,-0.02 -0.34,-0.05 -0.34,-0.06 -0.32,-0.11 -0.17,0.13 -0.17,0.11 -0.17,0.08 -0.15,0.07 -0.17,0.02 -0.17,0.02 h -0.17 -0.15 l -0.17,-0.04 -0.17,-0.05 -0.17,-0.04 -0.15,-0.06 -0.34,-0.17 -0.32,-0.2 -0.66,-0.4 -0.66,-0.41 -0.34,-0.15 -0.35,-0.12 -0.17,-0.05 -0.17,-0.04 -0.17,-0.02 h -0.19 l -0.34,-0.21 -0.38,-0.22 -0.39,-0.19 -0.38,-0.17 -0.79,-0.34 -0.79,-0.37 -0.36,-0.19 -0.38,-0.21 -0.37,-0.24 -0.34,-0.23 -0.34,-0.28 -0.3,-0.32 -0.15,-0.15 -0.14,-0.17 -0.13,-0.19 -0.13,-0.19 -0.38,-0.17 -0.39,-0.2 -0.34,-0.21 -0.36,-0.26 -0.34,-0.25 -0.32,-0.26 -0.34,-0.3 -0.32,-0.3 -0.66,-0.62 -0.64,-0.61 -0.68,-0.64 -0.73,-0.62 -0.32,-0.37 -0.32,-0.34 -0.34,-0.34 -0.36,-0.32 -0.71,-0.6 -0.7,-0.62 -0.34,-0.32 -0.32,-0.34 -0.32,-0.34 -0.3,-0.36 -0.25,-0.41 -0.26,-0.43 -0.11,-0.21 -0.1,-0.23 -0.09,-0.26 -0.08,-0.26 -0.22,-0.15 -0.21,-0.17 -0.19,-0.17 -0.17,-0.19 -0.36,-0.41 -0.32,-0.44 -0.32,-0.45 -0.28,-0.49 -0.3,-0.49 -0.28,-0.49 -0.29,-0.5 -0.3,-0.51 -0.3,-0.49 -0.32,-0.47 -0.36,-0.45 -0.36,-0.4 -0.22,-0.22 -0.21,-0.19 -0.21,-0.17 -0.22,-0.17 -0.08,-0.15 -0.07,-0.17 -0.04,-0.17 -0.04,-0.19 v -0.37 -0.38 l 0.02,-0.38 v -0.39 l -0.02,-0.17 -0.02,-0.19 -0.05,-0.15 -0.06,-0.15 -0.13,0.11 -0.1,0.08 -0.13,0.07 -0.11,0.02 h -0.1 l -0.11,-0.05 -0.11,-0.04 -0.08,-0.06 -0.2,-0.17 -0.19,-0.22 -0.15,-0.23 -0.17,-0.22 -0.02,-0.21 -0.04,-0.19 -0.06,-0.19 -0.07,-0.2 -0.17,-0.38 -0.19,-0.38 -0.45,-0.71 -0.47,-0.7 -0.23,-0.34 -0.21,-0.35 -0.2,-0.36 -0.15,-0.36 -0.06,-0.17 -0.04,-0.19 -0.04,-0.2 -0.05,-0.19 v -0.19 -0.19 l 0.02,-0.2 0.03,-0.21 -0.54,-0.83 -0.51,-0.83 -0.53,-0.86 -0.51,-0.87 -0.52,-0.9 -0.51,-0.9 -0.49,-0.91 -0.49,-0.92 -0.47,-0.94 -0.46,-0.94 -0.45,-0.94 -0.43,-0.94 -0.42,-0.96 -0.41,-0.96 -0.38,-0.96 -0.37,-0.96 -0.1,-0.47 -0.13,-0.43 -0.15,-0.43 -0.15,-0.4 -0.17,-0.39 -0.17,-0.36 -0.19,-0.34 -0.19,-0.34 -0.19,-0.3 -0.22,-0.3 -0.21,-0.28 -0.21,-0.25 -0.24,-0.24 -0.23,-0.23 -0.24,-0.22 -0.21,-0.19 -0.47,-0.36 -0.47,-0.32 -0.45,-0.26 -0.42,-0.23 -0.77,-0.34 -0.57,-0.239 -1.11,-0.641 -1.13,-0.597 -0.58,-0.299 -0.57,-0.256 -0.58,-0.257 -0.6,-0.213 -0.59,-0.192 -0.6,-0.15 -0.32,-0.064 -0.3,-0.064 -0.32,-0.043 -0.3,-0.021 h -0.32 -0.31 -0.3 l -0.32,0.021 -0.32,0.043 -0.34,0.064 -0.32,0.086 -0.32,0.085 -0.51,0.214 -0.52,0.256 -0.46,0.277 -0.47,0.299 -0.473,0.32 -0.447,0.342 -0.426,0.363 -0.427,0.384 -0.426,0.402 -0.405,0.43 -0.383,0.43 -0.384,0.45 -0.384,0.44 -0.362,0.47 -0.362,0.47 -0.341,0.47 -0.277,0.52 -0.213,0.47 -0.171,0.38 -0.149,0.38 -0.085,0.37 -0.064,0.36 -0.043,0.41 -0.021,0.44 -0.149,0.75 -0.107,0.71 -0.064,0.68 -0.043,0.66 v 0.64 0.62 l 0.022,0.6 0.042,0.6 0.107,1.15 0.149,1.13 0.128,1.09 0.107,1.11 0.788,2.56 0.81,2.56 0.405,1.26 0.447,1.26 0.448,1.26 0.49,1.24 0.49,1.24 0.555,1.21 0.554,1.2 0.614,1.17 0.3,0.58 0.34,0.58 0.34,0.57 0.35,0.58 0.36,0.55 0.36,0.56 0.38,0.53 0.41,0.56 0.08,0.3 0.11,0.32 0.13,0.3 0.1,0.29 0.3,0.6 0.3,0.58 0.68,1.11 0.69,1.11 0.34,0.55 0.32,0.58 0.29,0.56 0.26,0.59 0.11,0.3 0.1,0.3 0.09,0.32 0.08,0.32 0.05,0.32 0.04,0.32 0.04,0.34 v 0.35 l 7.7,10.2 h 0.12 l 0.13,0.02 0.11,0.02 0.1,0.05 0.09,0.06 0.08,0.06 0.07,0.07 0.06,0.08 0.13,0.19 0.11,0.22 0.06,0.21 0.09,0.26 0.08,0.23 0.07,0.24 0.08,0.21 0.11,0.19 0.06,0.09 0.07,0.08 0.06,0.07 0.06,0.06 0.09,0.04 0.1,0.05 0.11,0.02 0.11,0.02 v 0.28 l 0.04,0.25 0.02,0.24 0.07,0.21 0.06,0.17 0.08,0.2 0.09,0.14 0.09,0.13 0.1,0.13 0.11,0.11 0.13,0.1 0.12,0.09 0.26,0.17 0.3,0.15 0.28,0.13 0.29,0.13 0.3,0.17 0.28,0.17 0.13,0.1 0.13,0.13 0.12,0.13 0.11,0.15 0.11,0.17 0.1,0.17 0.09,0.22 0.08,0.21 0.98,0.79 1.01,0.77 0.98,0.77 0.98,0.79 0.96,0.79 0.93,0.83 0.47,0.4 0.45,0.43 0.47,0.45 0.42,0.45 2.01,0.32 0.04,0.25 0.04,0.24 0.07,0.21 0.08,0.19 0.09,0.15 0.1,0.15 0.11,0.11 0.11,0.11 0.13,0.08 0.12,0.07 0.13,0.04 0.15,0.04 0.32,0.04 h 0.32 l 0.7,-0.04 0.73,-0.04 0.34,0.02 0.36,0.04 0.17,0.07 0.17,0.04 0.15,0.08 0.17,0.09 0.09,0.38 0.1,0.37 0.13,0.32 0.15,0.3 0.17,0.27 0.17,0.24 0.19,0.21 0.19,0.22 0.24,0.17 0.21,0.15 0.24,0.15 0.25,0.12 0.26,0.11 0.25,0.11 0.26,0.08 0.28,0.09 1.08,0.25 1.09,0.24 0.26,0.06 0.25,0.09 0.24,0.08 0.23,0.09 0.24,0.13 0.21,0.1 0.21,0.15 0.19,0.15 0.11,-0.1 0.13,-0.09 0.13,-0.08 0.1,-0.11 0.13,-0.09 0.13,-0.08 0.13,-0.09 0.1,-0.08 0.28,0.19 0.28,0.19 0.32,0.17 0.34,0.17 0.7,0.32 0.7,0.3 0.66,0.3 0.58,0.28 0.26,0.13 0.19,0.12 0.17,0.15 0.1,0.13 0.11,-0.08 0.09,-0.05 0.1,-0.04 0.11,-0.02 h 0.08 l 0.09,0.02 0.11,0.02 0.08,0.02 0.17,0.09 0.19,0.13 0.17,0.13 0.2,0.14 0.17,0.13 0.19,0.13 0.19,0.09 0.17,0.04 0.11,0.02 0.1,-0.02 0.09,-0.02 0.11,-0.02 0.1,-0.07 0.11,-0.08 0.11,-0.09 0.1,-0.13 0.64,0.17 0.66,0.15 0.73,0.15 0.74,0.13 0.77,0.15 0.77,0.15 0.74,0.15 0.73,0.17 0.06,-0.15 0.07,-0.13 0.08,-0.1 0.07,-0.09 0.06,-0.06 0.08,-0.05 0.07,-0.04 0.08,-0.04 h 0.15 l 0.15,0.02 0.17,0.04 0.17,0.07 0.15,0.08 0.17,0.07 0.17,0.06 0.17,0.02 0.17,0.02 0.17,-0.04 0.09,-0.04 0.09,-0.07 0.08,-0.06 0.09,-0.09 -0.07,-0.38 -0.04,-0.36 -0.02,-0.32 -0.04,-0.28 -0.03,-0.13 -0.04,-0.13 -0.02,-0.1 -0.06,-0.09 -0.07,-0.08 -0.06,-0.09 -0.09,-0.06 -0.1,-0.07 -0.2,-0.08 -0.21,-0.07 -0.25,-0.04 -0.24,-0.04 -0.57,-0.05 -0.62,-0.04 -0.71,-0.02 -0.76,-0.04 -0.81,-0.07 -0.88,-0.1 -0.08,-0.13 -0.09,-0.09 -0.08,-0.1 -0.09,-0.07 -0.19,-0.13 -0.19,-0.1 -0.21,-0.07 -0.2,-0.04 -0.21,-0.04 -0.21,-0.02 -0.22,-0.05 -0.21,-0.04 -0.19,-0.06 -0.19,-0.09 -0.17,-0.13 -0.15,-0.17 -0.09,-0.08 -0.06,-0.11 -0.07,-0.13 -0.06,-0.15 -0.15,0.13 -0.15,0.07 -0.19,0.04 -0.19,0.02 -0.21,-0.02 -0.24,-0.04 -0.25,-0.07 -0.26,-0.08 -0.53,-0.24 -0.58,-0.25 -0.62,-0.28 -0.61,-0.3 0.14,-0.02 0.13,-0.05 0.15,-0.02 0.13,-0.04 h 0.13 l 0.13,-0.02 h 0.1 z"
                   style="fill:#009259;fill-opacity:1;fill-rule:evenodd;stroke:none"
                   id="path4212"
                   inkscape:connector-curvature="0" />
                <path
                   d="m 217.52,142.13 0.27,-0.21 0.3,-0.22 0.3,-0.19 0.32,-0.17 0.64,-0.34 0.66,-0.32 0.3,-0.15 0.32,-0.17 0.3,-0.19 0.29,-0.22 0.26,-0.21 0.26,-0.23 0.23,-0.28 0.21,-0.3 v -0.43 l -0.21,0.02 -0.21,0.05 -0.22,0.06 -0.21,0.09 -0.43,0.19 -0.42,0.25 -0.43,0.28 -0.42,0.28 -0.43,0.28 -0.41,0.23 -0.63,0.22 -0.62,0.21 -0.62,0.23 -0.62,0.22 -0.62,0.19 -0.62,0.17 -0.34,0.06 -0.32,0.07 -0.34,0.04 h -0.36 l -0.02,0.17 0.02,0.15 0.04,0.15 0.09,0.13 0.08,0.13 0.09,0.1 0.11,0.11 0.08,0.11 0.13,0.02 0.13,0.02 0.1,0.02 0.11,-0.02 0.21,-0.04 0.22,-0.07 0.4,-0.23 0.36,-0.26 0.2,-0.1 0.19,-0.11 0.19,-0.09 0.21,-0.04 h 0.09 0.1 l 0.11,0.02 0.11,0.04 0.12,0.05 0.11,0.06 0.13,0.09 z m -4.59,-1.32 0.6,-0.15 0.62,-0.13 0.62,-0.13 0.59,-0.13 0.62,-0.12 0.6,-0.15 0.59,-0.15 0.58,-0.19 0.26,-0.2 0.23,-0.17 0.26,-0.15 0.25,-0.15 0.53,-0.27 0.52,-0.26 0.53,-0.28 0.51,-0.32 0.24,-0.17 0.25,-0.19 0.21,-0.21 0.24,-0.24 h 0.13 l 0.1,-0.02 0.11,-0.02 0.08,-0.04 0.2,-0.15 0.15,-0.17 0.14,-0.2 0.15,-0.19 0.07,-0.08 0.08,-0.07 0.07,-0.06 0.08,-0.05 0.28,-0.19 0.26,-0.19 0.23,-0.21 0.26,-0.22 0.46,-0.44 0.45,-0.47 0.45,-0.47 0.45,-0.5 0.44,-0.49 0.45,-0.44 0.19,-0.05 0.17,-0.06 0.15,-0.07 0.15,-0.08 0.13,-0.11 0.11,-0.13 0.04,-0.06 0.02,-0.08 0.02,-0.11 v -0.11 -0.08 -0.09 -0.08 -0.09 -0.09 l -0.02,-0.06 -0.06,-0.06 -0.09,-0.07 h -0.28 l -0.7,0.77 -0.72,0.75 -0.73,0.68 -0.76,0.66 -0.77,0.64 -0.79,0.6 -0.79,0.56 -0.81,0.53 -0.83,0.51 -0.83,0.47 -0.85,0.45 -0.86,0.43 -0.87,0.38 -0.85,0.36 -0.88,0.32 -0.89,0.33 -0.9,0.1 -0.89,0.15 -0.9,0.15 -0.89,0.13 -0.45,0.04 -0.45,0.04 -0.42,0.03 -0.43,0.02 -0.45,-0.02 -0.42,-0.05 -0.43,-0.06 -0.43,-0.11 -0.02,0.11 -0.02,0.08 v 0.09 l 0.02,0.09 0.09,0.14 0.08,0.18 0.11,0.14 0.11,0.18 0.04,0.08 0.04,0.09 0.02,0.08 v 0.09 l 0.15,-0.09 0.13,-0.06 0.15,-0.05 0.15,-0.04 0.3,-0.06 0.32,-0.02 h 0.32 l 0.32,0.02 0.32,0.04 0.31,0.06 0.35,0.05 0.32,0.04 0.34,0.04 0.32,0.02 0.32,-0.02 0.32,-0.04 0.14,-0.02 0.18,-0.04 0.14,-0.07 z m 13.77,-5.66 0.85,-1 0.88,-1.03 0.87,-1.02 0.9,-1.05 0.89,-1.07 0.83,-1.06 0.43,-0.56 0.38,-0.55 0.39,-0.58 0.36,-0.58 0.08,0.05 h 0.09 l 0.08,-0.02 0.07,-0.05 0.13,-0.1 0.1,-0.17 0.11,-0.18 0.08,-0.19 0.11,-0.17 0.13,-0.13 v -0.21 l 0.06,-0.19 0.07,-0.17 0.1,-0.13 0.13,-0.15 0.13,-0.11 0.17,-0.13 0.15,-0.1 0.15,-0.13 0.17,-0.11 0.13,-0.12 0.12,-0.15 0.13,-0.15 0.09,-0.2 0.04,-0.21 0.02,-0.21 0.26,-0.28 0.21,-0.26 0.21,-0.3 0.2,-0.29 0.14,-0.3 0.18,-0.32 0.12,-0.32 0.13,-0.35 0.24,-0.66 0.21,-0.68 0.19,-0.68 0.21,-0.67 h -0.7 l 0.02,0.2 0.02,0.19 -0.02,0.17 -0.02,0.19 -0.06,0.34 -0.11,0.35 -0.15,0.29 -0.17,0.32 -0.21,0.3 -0.19,0.28 -0.45,0.58 -0.41,0.59 -0.17,0.3 -0.17,0.32 -0.11,0.32 -0.08,0.37 -0.15,0.02 -0.15,0.06 -0.11,0.07 -0.12,0.06 -0.09,0.09 -0.08,0.08 -0.09,0.09 -0.06,0.1 -0.13,0.22 -0.09,0.23 -0.08,0.26 -0.09,0.25 -0.06,0.24 -0.06,0.26 -0.11,0.23 -0.11,0.21 -0.06,0.09 -0.07,0.11 -0.08,0.08 -0.09,0.07 -0.1,0.06 -0.11,0.06 -0.13,0.05 -0.15,0.04 -0.38,0.68 -0.4,0.64 -0.47,0.66 -0.47,0.62 -0.51,0.6 -0.52,0.6 -0.53,0.6 -0.55,0.57 -1.11,1.16 -1.11,1.15 -0.55,0.57 -0.54,0.58 -0.51,0.6 -0.49,0.62 -0.27,0.15 -0.28,0.19 -0.26,0.17 -0.27,0.21 -0.26,0.22 -0.23,0.23 -0.26,0.26 -0.23,0.25 0.14,0.09 0.2,0.06 0.17,0.03 0.19,0.02 0.19,-0.02 0.17,-0.03 0.17,-0.06 0.15,-0.09 z m -15.54,-3.44 -0.12,-0.12 -0.13,-0.07 -0.15,-0.06 -0.17,-0.05 h -0.15 -0.17 -0.17 -0.15 l -0.19,0.11 -0.11,0.07 -0.02,0.04 v 0.02 0.02 0.02 l 0.04,0.05 0.05,0.08 0.04,0.11 v 0.17 l 0.28,0.06 0.21,0.02 0.17,-0.02 0.15,-0.02 0.1,-0.06 0.15,-0.11 0.15,-0.11 z m 1.88,0.05 -0.15,-0.07 -0.23,-0.06 -0.26,-0.09 -0.23,-0.06 -0.13,-0.02 h -0.11 l -0.08,0.02 -0.07,0.02 -0.04,0.06 -0.02,0.07 0.02,0.11 0.04,0.14 0.02,0.3 0.28,0.05 0.19,0.02 0.13,-0.02 0.11,-0.03 0.08,-0.06 0.11,-0.11 0.15,-0.12 z m 7.67,-0.37 -0.32,-0.57 -0.27,0.08 -0.11,0.15 -0.13,0.11 -0.13,0.08 -0.12,0.07 -0.28,0.13 -0.28,0.08 -0.13,0.04 -0.1,0.07 -0.13,0.06 -0.09,0.09 -0.08,0.1 -0.07,0.13 -0.02,0.15 -0.02,0.19 h 0.19 0.17 l 0.18,-0.02 0.14,-0.04 0.3,-0.13 0.26,-0.15 0.25,-0.17 0.26,-0.17 0.26,-0.15 z m -3.41,-2.47 -0.15,-0.05 -0.15,-0.02 -0.17,-0.02 h -0.19 -0.17 l -0.17,0.04 -0.08,0.05 -0.07,0.02 -0.08,0.06 -0.07,0.07 -0.04,0.08 -0.09,0.11 -0.1,0.11 -0.11,0.12 -0.08,0.11 -0.05,0.13 v 0.06 l 0.03,0.05 0.02,0.06 0.06,0.06 0.21,-0.12 0.22,-0.11 0.23,-0.13 0.24,-0.15 0.23,-0.13 0.19,-0.13 0.19,-0.14 z m 9.7,-1.52 0.13,-0.13 0.13,-0.12 0.1,-0.15 0.11,-0.13 0.08,-0.15 0.11,-0.17 0.09,-0.15 0.1,-0.15 -0.15,-0.17 -0.15,-0.13 -0.08,-0.02 -0.07,-0.02 -0.06,-0.02 h -0.04 l -0.13,0.04 -0.08,0.06 -0.11,0.11 -0.09,0.13 -0.17,0.25 -0.15,0.3 -0.08,0.13 -0.11,0.11 -0.08,0.08 -0.11,0.05 v 0.08 0.04 l 0.02,0.05 0.04,0.02 h 0.09 0.13 l 0.13,-0.02 0.12,-0.03 0.09,0.03 h 0.06 l 0.07,0.04 z m 11.42,-10.74 0.28,0.54 1.56,-1.58 -0.69,-0.73 -0.14,0.24 -0.09,0.25 -0.11,0.26 -0.08,0.25 -0.13,0.24 -0.15,0.21 -0.08,0.09 -0.11,0.08 -0.13,0.09 z m -0.4,-2.92 v -1.03 l -0.09,0.05 -0.08,0.02 -0.09,-0.02 -0.06,-0.02 -0.13,-0.09 -0.13,-0.11 -0.1,-0.13 -0.13,-0.1 -0.07,-0.02 -0.06,-0.02 h -0.06 l -0.09,0.02 -0.04,0.25 -0.09,0.22 -0.1,0.23 -0.13,0.21 -0.11,0.22 -0.08,0.21 -0.02,0.13 -0.03,0.13 v 0.13 l 0.03,0.15 h 0.44 l 0.07,0.06 0.04,0.08 -0.02,0.09 -0.02,0.09 -0.11,0.17 -0.13,0.17 -0.06,0.06 -0.04,0.09 -0.02,0.06 v 0.04 l 0.04,0.05 0.08,0.04 0.11,0.02 h 0.19 l 0.02,-0.13 0.02,-0.1 0.07,-0.11 0.06,-0.09 0.15,-0.17 0.17,-0.15 0.19,-0.15 0.17,-0.15 0.07,-0.08 0.06,-0.09 0.07,-0.1 z m 4.82,-7.88 -0.11,0.04 -0.13,0.09 -0.13,0.11 -0.15,0.12 -0.1,0.15 -0.11,0.13 -0.06,0.15 -0.02,0.11 0.12,0.42 0.11,-0.02 0.08,-0.04 0.09,-0.06 0.06,-0.07 0.09,-0.17 0.06,-0.19 0.05,-0.19 0.04,-0.22 0.04,-0.19 z m 0.68,-1.28 -0.02,-0.04 -0.05,-0.07 -0.04,-0.04 -0.06,-0.06 -0.05,-0.05 -0.06,-0.04 -0.04,-0.02 -0.07,0.02 v 1.03 l 0.09,-0.07 0.06,-0.08 0.07,-0.11 0.04,-0.09 0.04,-0.1 0.02,-0.09 0.05,-0.1 z m -40.35,35.5 0.05,0.05 0.04,0.06 0.04,0.04 0.06,0.07 0.05,0.04 0.04,0.04 h 0.06 0.07 l 0.04,-0.06 v -0.07 -0.06 l -0.02,-0.09 -0.04,-0.17 -0.05,-0.19 v -0.06 -0.09 l 0.02,-0.04 0.03,-0.04 0.06,-0.05 h 0.09 l 0.12,0.02 0.15,0.05 0.17,0.19 0.15,0.17 0.17,0.17 0.15,0.15 0.17,0.15 0.17,0.13 0.19,0.1 0.22,0.09 0.06,-0.11 0.09,-0.15 0.1,-0.17 0.11,-0.19 0.13,-0.17 0.15,-0.13 0.06,-0.04 0.09,-0.04 h 0.08 0.09 l 0.04,-0.05 0.04,-0.06 0.04,-0.04 0.03,-0.07 v -0.06 l 0.02,-0.04 v -0.07 -0.04 l -0.43,-0.19 -0.4,-0.17 -0.39,-0.17 -0.38,-0.13 -0.38,-0.13 -0.41,-0.11 -0.45,-0.08 -0.49,-0.07 -0.27,-0.32 0.08,-0.12 0.09,-0.13 0.1,-0.13 0.09,-0.09 0.1,-0.08 0.11,-0.04 0.11,-0.07 0.1,-0.04 0.22,-0.02 h 0.23 l 0.24,0.02 0.25,0.06 0.49,0.17 0.49,0.22 0.24,0.08 0.25,0.09 0.24,0.04 0.23,0.04 0.68,0.13 0.71,0.11 0.72,0.06 0.7,0.02 0.71,-0.02 0.68,-0.06 0.34,-0.04 0.32,-0.07 0.32,-0.06 0.32,-0.07 0.09,0.09 0.08,0.06 0.09,0.02 0.08,0.03 h 0.11 l 0.08,-0.03 0.09,-0.04 0.1,-0.02 0.2,-0.09 0.19,-0.08 0.1,-0.04 0.13,-0.02 h 0.11 l 0.11,0.02 0.1,-0.11 0.11,-0.06 0.11,-0.07 0.12,-0.04 0.13,-0.02 0.13,-0.02 h 0.13 0.12 l 0.26,0.02 0.28,0.04 0.23,0.04 0.24,0.02 0.04,-0.17 0.06,-0.15 0.09,-0.1 0.1,-0.09 0.11,-0.04 0.13,-0.02 0.15,-0.02 h 0.15 l 0.3,0.02 0.29,0.02 0.15,-0.02 0.13,-0.02 0.13,-0.05 0.11,-0.08 0.25,-0.07 0.26,-0.08 0.23,-0.11 0.24,-0.13 0.47,-0.27 0.46,-0.3 0.45,-0.3 0.47,-0.28 0.26,-0.11 0.23,-0.1 0.26,-0.07 0.27,-0.06 0.11,-0.15 0.11,-0.15 0.12,-0.13 0.13,-0.12 0.26,-0.22 0.28,-0.17 0.27,-0.17 0.3,-0.15 0.28,-0.13 0.3,-0.13 0.27,-0.12 0.3,-0.15 0.28,-0.17 0.25,-0.17 0.24,-0.22 0.23,-0.23 0.11,-0.15 0.11,-0.15 0.1,-0.17 0.09,-0.17 0.47,-0.39 0.49,-0.4 0.51,-0.43 0.53,-0.45 0.51,-0.43 0.51,-0.44 0.47,-0.45 0.47,-0.47 0.07,0.13 0.04,0.1 0.02,0.13 0.02,0.11 0.02,0.04 0.02,0.02 0.03,0.04 h 0.04 l 0.1,0.03 0.22,-0.05 0.17,-0.08 0.17,-0.11 0.13,-0.13 0.12,-0.13 0.22,-0.29 0.17,-0.32 0.19,-0.32 0.19,-0.32 0.13,-0.13 0.13,-0.13 0.15,-0.13 0.17,-0.11 0.53,-0.89 0.49,-0.9 0.51,-0.9 0.49,-0.87 0.53,-0.88 0.56,-0.85 0.3,-0.43 0.3,-0.42 0.32,-0.41 0.34,-0.41 0.04,-0.19 0.04,-0.17 0.07,-0.15 0.06,-0.15 0.15,-0.3 0.17,-0.29 0.15,-0.28 0.13,-0.3 0.06,-0.15 0.04,-0.17 0.05,-0.17 0.02,-0.17 0.29,-0.47 0.32,-0.49 0.28,-0.49 0.28,-0.5 0.28,-0.51 0.25,-0.51 0.26,-0.51 0.23,-0.52 0.45,-1.04 0.43,-1.05 0.38,-1.02 0.38,-1.03 -0.3,0.52 -0.53,0.96 -0.7,1.26 -0.79,1.4 -0.75,1.39 -0.66,1.22 -0.47,0.87 -0.17,0.39 -0.57,-0.11 -0.02,0.07 v 0.06 l 0.02,0.06 0.04,0.07 0.06,0.15 0.09,0.13 0.04,0.04 0.02,0.06 0.03,0.07 v 0.06 l -0.03,0.04 -0.06,0.07 -0.06,0.04 -0.13,0.04 -0.15,-0.17 -0.17,-0.15 -0.19,-0.15 -0.17,-0.15 -0.07,-0.06 -0.06,-0.09 -0.04,-0.08 -0.03,-0.11 0.03,-0.1 0.02,-0.11 0.06,-0.13 0.09,-0.15 0.08,-0.15 0.11,-0.15 0.13,-0.13 0.12,-0.15 0.09,-0.14 0.06,-0.15 0.02,-0.09 v -0.11 -0.1 l -0.04,-0.11 -0.15,0.02 -0.15,0.04 -0.1,0.07 -0.09,0.08 -0.17,0.2 -0.11,0.23 -0.12,0.24 -0.15,0.21 -0.11,0.06 -0.11,0.07 -0.12,0.04 -0.17,0.02 -0.09,0.3 -0.11,0.3 -0.1,0.28 -0.13,0.3 -0.28,0.57 -0.32,0.54 -0.17,0.27 -0.19,0.26 -0.17,0.23 -0.19,0.24 -0.21,0.23 -0.2,0.22 -0.21,0.19 -0.21,0.19 -0.17,0.15 -0.15,0.15 -0.17,0.17 -0.15,0.19 -0.28,0.41 -0.26,0.45 -0.23,0.42 -0.23,0.45 -0.22,0.41 -0.19,0.34 0.26,-0.17 0.27,-0.26 0.32,-0.3 0.32,-0.3 0.32,-0.32 0.32,-0.27 0.17,-0.11 0.15,-0.11 0.17,-0.08 0.15,-0.07 0.22,-0.25 0.21,-0.3 0.19,-0.28 0.19,-0.3 0.36,-0.62 0.37,-0.57 0.19,-0.28 0.19,-0.28 0.21,-0.23 0.22,-0.22 0.23,-0.21 0.28,-0.15 0.13,-0.08 0.14,-0.07 0.15,-0.04 0.17,-0.04 -0.08,0.42 -0.11,0.43 -0.13,0.43 -0.19,0.42 -0.19,0.43 -0.23,0.41 -0.26,0.4 -0.28,0.41 -0.57,0.77 -0.6,0.79 -0.57,0.76 -0.52,0.75 -0.38,0.26 -0.36,0.25 -0.34,0.3 -0.32,0.3 -0.6,0.64 -0.57,0.69 -0.58,0.66 -0.62,0.66 -0.3,0.32 -0.34,0.3 -0.34,0.28 -0.36,0.25 -1,0.73 -0.98,0.7 -1,0.66 -1.01,0.64 -0.53,0.32 -0.51,0.3 -0.53,0.28 -0.54,0.28 -0.53,0.25 -0.55,0.24 -0.58,0.23 -0.57,0.22 -0.3,0.19 -0.3,0.17 -0.3,0.17 -0.32,0.13 -0.32,0.11 -0.34,0.1 -0.32,0.09 -0.34,0.06 -0.34,0.07 -0.34,0.04 -0.32,0.02 h -0.34 -0.68 l -0.64,-0.04 -0.13,0.13 -0.13,0.1 -0.13,0.09 -0.15,0.04 -0.15,0.04 h -0.12 -0.15 l -0.17,-0.02 -0.3,-0.02 -0.32,-0.02 h -0.15 l -0.17,0.02 -0.15,0.04 -0.15,0.07 -0.08,-0.02 -0.05,-0.05 -0.04,-0.04 -0.02,-0.06 -0.04,-0.13 v -0.13 l -0.02,-0.13 -0.03,-0.08 -0.04,-0.05 -0.04,-0.02 -0.07,-0.02 h -0.08 l -0.09,0.13 -0.1,0.09 -0.11,0.08 -0.13,0.06 -0.12,0.05 -0.13,0.04 -0.13,0.02 -0.15,0.02 h -0.28 -0.25 l -0.26,-0.04 -0.23,-0.02 -0.05,-0.09 -0.06,-0.06 -0.06,-0.04 -0.05,-0.05 -0.12,-0.04 -0.15,-0.02 -0.28,0.06 -0.28,0.09 -0.15,0.02 -0.12,0.02 h -0.13 l -0.11,-0.04 -0.06,-0.04 -0.05,-0.05 -0.04,-0.06 -0.04,-0.06 -0.06,-0.2 -0.05,-0.25 -0.12,0.06 -0.11,0.04 -0.13,0.03 h -0.13 l -0.13,-0.03 h -0.12 -0.15 -0.17 l -0.11,-0.14 -0.11,-0.11 -0.12,-0.09 -0.13,-0.06 -0.13,-0.04 -0.15,-0.05 -0.15,-0.06 -0.17,-0.11 -0.1,0.07 -0.09,0.06 -0.11,0.06 -0.1,0.07 -0.11,0.04 -0.11,0.02 -0.1,0.02 -0.13,-0.04 -0.11,-0.11 -0.08,-0.12 -0.09,-0.13 -0.08,-0.13 -0.09,-0.08 -0.13,-0.09 -0.06,-0.02 -0.06,-0.02 h -0.09 -0.08 l -0.11,0.1 -0.11,0.11 -0.13,0.13 -0.1,0.13 -0.07,0.04 -0.04,0.04 -0.06,0.02 -0.07,0.02 -0.06,-0.02 -0.04,-0.02 -0.07,-0.04 -0.06,-0.09 h -0.11 l -0.08,-0.04 -0.09,-0.06 -0.06,-0.07 -0.07,-0.06 -0.06,-0.06 -0.04,-0.07 -0.07,-0.06 -0.06,-0.2 -0.02,-0.1 0.02,-0.09 0.02,-0.04 0.06,-0.04 0.05,-0.05 0.02,-0.06 0.02,-0.13 -0.3,-0.04 -0.3,-0.02 -0.27,-0.04 -0.28,-0.05 -0.28,-0.06 -0.3,-0.06 -0.34,-0.11 -0.36,-0.13 -0.47,-0.36 -0.42,-0.3 -0.37,-0.28 -0.36,-0.23 -0.38,-0.22 -0.43,-0.19 -0.49,-0.21 -0.55,-0.2 -0.17,0.03 h -0.15 l -0.15,-0.03 -0.13,-0.06 -0.11,-0.08 -0.1,-0.09 -0.11,-0.13 -0.09,-0.1 -0.19,-0.28 -0.15,-0.28 -0.17,-0.23 -0.15,-0.2 -0.02,-0.15 0.02,-0.15 v -0.17 l 0.03,-0.15 -0.03,-0.17 -0.04,-0.12 -0.04,-0.07 -0.04,-0.06 -0.09,-0.07 -0.08,-0.04 0.29,-0.3 0.11,0.21 0.09,0.22 0.06,0.23 0.09,0.22 0.08,0.19 0.11,0.13 0.06,0.04 0.09,0.04 0.08,0.02 h 0.09 l -0.28,-0.85 0.15,-0.02 h 0.15 l 0.13,0.02 0.12,0.04 0.26,0.15 0.21,0.19 0.24,0.2 0.23,0.19 0.13,0.06 0.15,0.07 0.15,0.04 0.15,0.04 v 0.13 0.11 0.08 l -0.02,0.07 -0.07,0.06 -0.04,0.06 -0.02,0.03 -0.02,0.02 v 0.04 l 0.02,0.04 0.06,0.15 0.17,0.24 0.09,0.17 0.13,0.15 0.14,0.15 0.2,0.08 0.19,0.09 0.21,0.04 h 0.11 0.1 l 0.11,-0.02 0.11,-0.02 0.08,-0.13 0.07,-0.09 0.08,-0.02 h 0.07 l 0.06,0.04 0.09,0.07 0.08,0.08 0.06,0.09 0.17,0.21 0.2,0.2 0.1,0.06 0.11,0.06 0.11,0.02 h 0.12 l 0.11,0.11 0.11,0.09 0.08,0.06 0.11,0.02 h 0.11 0.12 l 0.15,-0.02 0.15,-0.02 0.13,-0.06 0.11,-0.07 0.08,-0.11 0.04,-0.1 0.09,-0.22 0.06,-0.23 0.05,-0.11 0.04,-0.08 0.04,-0.09 0.09,-0.04 0.08,-0.02 h 0.13 l 0.15,0.02 0.19,0.06 0.51,0.75 -0.04,0.09 -0.04,0.08 -0.07,0.07 -0.06,0.04 -0.17,0.06 -0.15,0.02 -0.06,0.02 -0.07,0.03 -0.06,0.04 -0.05,0.04 -0.04,0.04 -0.02,0.09 v 0.11 l 0.02,0.1 0.19,0.2 0.2,0.17 0.19,0.15 0.21,0.1 0.24,0.11 0.23,0.06 0.23,0.07 0.26,0.02 0.26,0.02 h 0.27 0.26 l 0.28,-0.02 0.55,-0.09 0.55,-0.12 0.07,-0.05 0.04,-0.06 0.06,-0.07 0.07,-0.04 0.06,-0.04 0.07,-0.04 0.08,-0.03 0.09,0.03 0.04,0.1 0.06,0.13 0.05,0.13 0.02,0.13 0.04,0.13 0.02,0.12 0.02,0.15 0.02,0.13 0.07,-0.04 0.06,-0.04 0.07,-0.07 0.04,-0.06 0.08,-0.15 0.05,-0.17 0.08,-0.39 0.07,-0.38 0.04,-0.19 0.06,-0.15 0.04,-0.07 0.05,-0.06 0.06,-0.04 0.04,-0.05 0.09,-0.04 0.06,-0.02 h 0.09 0.1 l 0.11,0.02 0.13,0.02 0.13,0.07 0.15,0.06 0.1,0.06 0.09,0.09 0.04,0.09 0.06,0.08 0.03,0.09 0.02,0.1 v 0.09 l -0.02,0.08 -0.05,0.17 -0.06,0.18 -0.11,0.14 -0.1,0.15 -0.07,0.07 -0.06,0.1 -0.04,0.09 -0.03,0.11 v 0.1 0.11 l 0.03,0.13 v 0.11 l 1.36,-0.24 -0.02,0.15 -0.04,0.15 -0.05,0.15 -0.02,0.15 v 0.15 0.15 l 0.04,0.13 0.09,0.12 0.11,0.05 h 0.08 0.07 l 0.08,-0.03 0.13,-0.08 0.13,-0.13 0.1,-0.13 0.13,-0.13 0.04,-0.06 0.09,-0.04 0.06,-0.02 0.07,-0.02 2.47,0.17 v 0.04 0.06 l 0.02,0.05 v 0.06 l 0.02,0.06 0.04,0.05 0.05,0.06 0.04,0.04 0.13,-0.15 0.15,-0.15 0.15,-0.17 0.17,-0.15 0.08,-0.06 0.09,-0.06 0.1,-0.05 0.11,-0.02 0.08,-0.02 0.11,0.02 0.11,0.02 0.1,0.07 0.24,0.3 0.11,-0.2 0.12,-0.17 0.15,-0.15 0.15,-0.1 0.15,-0.13 0.17,-0.09 0.17,-0.08 0.19,-0.09 0.37,-0.13 0.36,-0.14 0.17,-0.07 0.19,-0.08 0.17,-0.11 0.17,-0.11 -0.25,-0.04 -0.22,-0.02 h -0.21 l -0.19,0.02 -0.36,0.06 -0.37,0.09 -0.34,0.08 -0.34,0.05 h -0.19 l -0.19,-0.02 -0.19,-0.05 -0.24,-0.08 0.13,-0.22 0.13,-0.17 0.13,-0.17 0.12,-0.15 0.13,-0.12 0.13,-0.11 0.13,-0.09 0.12,-0.08 0.15,-0.07 0.13,-0.04 0.13,-0.04 0.15,-0.04 0.28,-0.03 h 0.29 l 0.6,0.03 0.64,0.02 0.34,-0.02 0.36,-0.07 0.17,-0.04 0.17,-0.07 0.2,-0.06 0.19,-0.08 0.02,-0.07 0.04,-0.08 0.04,-0.07 0.09,-0.08 0.19,-0.13 0.21,-0.13 0.22,-0.13 0.21,-0.1 0.19,-0.13 0.13,-0.11 0.13,0.09 0.11,0.04 0.08,0.04 0.11,0.02 0.08,0.02 h 0.11 l 0.08,-0.02 0.09,-0.02 0.17,-0.08 0.15,-0.11 0.15,-0.15 0.15,-0.17 0.3,-0.34 0.32,-0.32 0.19,-0.13 0.17,-0.09 0.1,-0.04 0.11,-0.02 0.11,-0.02 h 0.1 l 0.11,-0.07 0.09,-0.12 0.1,-0.13 0.09,-0.17 0.06,-0.17 0.04,-0.2 0.05,-0.15 0.02,-0.14 0.64,-0.03 v -0.1 l 0.02,-0.11 0.04,-0.11 0.04,-0.08 0.13,-0.19 0.15,-0.17 0.17,-0.18 0.17,-0.14 0.17,-0.13 0.17,-0.11 0.15,0.04 h 0.13 l 0.13,-0.04 0.1,-0.04 0.11,-0.07 0.11,-0.08 0.1,-0.11 0.09,-0.11 0.19,-0.23 0.17,-0.21 0.11,-0.11 0.08,-0.06 0.11,-0.09 0.11,-0.04 0.04,-0.17 0.06,-0.17 0.09,-0.15 0.11,-0.13 0.12,-0.13 0.13,-0.11 0.17,-0.1 0.17,-0.07 0.15,0.05 h 0.15 l 0.11,-0.03 0.1,-0.06 0.09,-0.09 0.08,-0.08 0.07,-0.11 0.04,-0.13 0.11,-0.27 0.06,-0.3 0.06,-0.26 0.05,-0.21 0.25,-0.17 0.22,-0.17 0.19,-0.22 0.17,-0.21 0.28,-0.45 0.23,-0.49 0.13,-0.23 0.13,-0.24 0.15,-0.23 0.14,-0.22 0.17,-0.19 0.22,-0.19 0.23,-0.15 0.28,-0.15 -0.04,-0.13 v -0.11 l 0.02,-0.1 0.04,-0.07 0.17,-0.15 0.17,-0.12 0.19,-0.11 0.15,-0.15 0.05,-0.09 0.02,-0.08 -0.02,-0.11 -0.05,-0.13 0.13,-0.17 0.15,-0.15 0.13,-0.12 0.15,-0.13 0.32,-0.19 0.29,-0.2 0.13,-0.08 0.13,-0.13 0.13,-0.13 0.08,-0.13 0.09,-0.17 0.04,-0.21 0.04,-0.21 v -0.26 l 1.39,-2.2 0.11,0.13 0.12,-0.3 0.13,-0.3 0.15,-0.3 0.17,-0.27 0.34,-0.6 0.39,-0.58 0.38,-0.6 0.36,-0.59 0.17,-0.32 0.15,-0.3 0.15,-0.32 0.13,-0.32 0.11,-0.17 0.1,-0.18 0.15,-0.17 0.13,-0.15 0.28,-0.32 0.27,-0.32 0.13,-0.17 0.11,-0.17 0.1,-0.19 0.07,-0.19 0.06,-0.19 0.02,-0.22 v -0.23 l -0.04,-0.24 0.17,-0.13 0.13,-0.14 0.13,-0.18 0.13,-0.17 0.21,-0.34 0.19,-0.38 0.19,-0.41 0.21,-0.36 0.13,-0.19 0.13,-0.17 0.15,-0.17 0.19,-0.15 0.09,-0.15 0.06,-0.17 0.04,-0.15 0.02,-0.15 0.05,-0.3 0.04,-0.3 0.02,-0.15 0.02,-0.13 0.05,-0.15 0.06,-0.13 0.08,-0.15 0.09,-0.12 0.13,-0.13 0.17,-0.13 0.02,-0.3 0.06,-0.28 0.09,-0.273 0.11,-0.278 0.23,-0.491 0.28,-0.491 0.27,-0.491 0.24,-0.512 0.08,-0.278 0.09,-0.256 0.04,-0.299 0.02,-0.299 0.15,-0.363 0.15,-0.341 0.17,-0.363 0.15,-0.342 0.15,-0.363 0.13,-0.362 0.13,-0.385 0.08,-0.384 h -0.15 l -0.1,0.043 -0.09,0.042 -0.09,0.064 -0.06,0.064 -0.06,0.086 -0.05,0.107 -0.04,0.106 -0.08,0.214 -0.07,0.213 -0.08,0.214 -0.11,0.171 -0.45,0.939 -0.4,0.939 -0.39,0.961 -0.4,0.939 -0.41,0.94 -0.44,0.919 -0.26,0.45 -0.25,0.45 -0.28,0.44 -0.28,0.43 0.02,0.17 0.02,0.15 v 0.13 0.13 l -0.02,0.12 -0.02,0.11 -0.04,0.13 -0.04,0.09 -0.13,0.19 -0.13,0.17 -0.17,0.17 -0.17,0.15 -0.15,0.17 -0.17,0.15 -0.17,0.17 -0.13,0.17 -0.13,0.19 -0.08,0.24 -0.02,0.13 -0.02,0.12 v 0.13 0.15 l -0.3,0.39 -0.26,0.4 -0.25,0.41 -0.26,0.42 -0.47,0.86 -0.45,0.87 -0.47,0.88 -0.49,0.87 -0.25,0.43 -0.3,0.41 -0.3,0.4 -0.34,0.41 -0.21,0.53 -0.26,0.51 -0.3,0.52 -0.32,0.51 -0.36,0.51 -0.36,0.49 -0.41,0.49 -0.42,0.49 -0.88,0.94 -0.91,0.96 -0.9,0.94 -0.87,0.94 -0.15,0.04 -0.17,0.09 -0.19,0.11 -0.17,0.12 -0.15,0.13 -0.11,0.17 -0.06,0.07 -0.02,0.08 -0.03,0.09 -0.02,0.06 -0.23,0.92 -0.26,0.3 -0.3,0.28 -0.29,0.23 -0.32,0.24 -0.66,0.38 -0.66,0.38 -0.35,0.2 -0.34,0.19 -0.34,0.21 -0.32,0.24 -0.32,0.23 -0.3,0.28 -0.27,0.32 -0.28,0.34 -0.38,0.09 -0.34,0.1 -0.35,0.13 -0.34,0.11 -0.61,0.28 -0.6,0.27 -0.6,0.28 -0.62,0.28 -0.32,0.13 -0.34,0.1 -0.36,0.13 -0.36,0.11 -0.17,-0.02 -0.15,0.02 -0.17,0.02 -0.15,0.06 -0.3,0.13 -0.3,0.17 -0.3,0.17 -0.29,0.15 -0.15,0.05 -0.15,0.06 -0.15,0.02 -0.15,0.02 -0.02,0.09 -0.04,0.08 -0.05,0.07 -0.06,0.04 -0.19,0.09 -0.22,0.06 -0.23,0.06 -0.24,0.07 -0.1,0.04 -0.11,0.04 -0.08,0.07 -0.07,0.06 -0.21,-0.11 -0.19,-0.06 -0.22,-0.02 -0.19,-0.02 -0.42,0.04 -0.45,0.09 -0.21,0.04 -0.22,0.04 -0.21,0.02 h -0.21 l -0.2,-0.04 -0.21,-0.04 -0.19,-0.11 -0.21,-0.13 -0.11,0.11 -0.13,0.08 -0.13,0.07 -0.12,0.06 -0.13,0.04 -0.13,0.05 -0.13,0.02 -0.13,0.02 h -0.27 l -0.26,-0.02 -0.28,-0.04 -0.27,-0.09 -0.56,-0.21 -0.55,-0.24 -0.53,-0.21 -0.51,-0.19 -0.26,0.06 h -0.23 -0.26 l -0.21,-0.02 -0.24,-0.04 -0.21,-0.07 -0.21,-0.08 -0.2,-0.11 -0.21,-0.11 -0.19,-0.1 -0.17,-0.13 -0.17,-0.15 -0.34,-0.28 -0.32,-0.3 -0.45,-0.21 -0.45,-0.21 -0.45,-0.24 -0.44,-0.25 -0.45,-0.26 -0.47,-0.28 -0.45,-0.3 -0.44,-0.3 -0.9,-0.64 -0.87,-0.68 -0.83,-0.7 -0.79,-0.73 -1.13,-1.13 -1.09,-1.18 -1.07,-1.19 -1.02,-1.22 -1,-1.24 -0.96,-1.28 -0.96,-1.3 -0.94,-1.34 -0.32,-0.39 -0.29,-0.38 -0.28,-0.39 -0.28,-0.4 -0.53,-0.79 -0.49,-0.81 -0.51,-0.84 -0.49,-0.81 -0.51,-0.83 -0.54,-0.79 -0.4,-0.83 -0.41,-0.84 -0.42,-0.81 -0.45,-0.81 -0.49,-0.79 -0.49,-0.79 -0.51,-0.79 -0.56,-0.787 0.02,-0.15 v -0.171 l -0.02,-0.192 -0.04,-0.192 -0.15,-0.405 -0.19,-0.427 -0.21,-0.449 -0.2,-0.448 -0.1,-0.235 -0.09,-0.213 -0.06,-0.235 -0.04,-0.214 -0.32,-0.106 -0.28,-0.128 -0.26,-0.171 -0.21,-0.192 -0.21,-0.193 -0.19,-0.234 -0.2,-0.235 -0.17,-0.235 -0.36,-0.491 -0.36,-0.47 -0.19,-0.213 -0.22,-0.214 -0.23,-0.192 -0.26,-0.149 -0.1,-0.086 -0.07,-0.106 -0.04,-0.15 -0.04,-0.149 -0.02,-0.171 -0.02,-0.149 -0.05,-0.15 -0.04,-0.107 -0.17,-0.341 -0.19,-0.32 -0.22,-0.321 -0.23,-0.32 -0.23,-0.32 -0.26,-0.299 -0.28,-0.299 -0.27,-0.299 -0.28,-0.277 -0.3,-0.278 -0.3,-0.256 -0.3,-0.256 -0.29,-0.214 -0.32,-0.234 -0.3,-0.193 -0.32,-0.17 -0.11,-0.171 -0.11,-0.128 -0.1,-0.086 -0.11,-0.021 h -0.11 l -0.1,0.021 -0.11,0.043 -0.11,0.064 -0.23,0.128 -0.23,0.107 -0.15,0.021 h -0.13 l -0.15,-0.021 -0.15,-0.086 -0.51,-0.234 -0.51,-0.278 -0.26,-0.149 -0.23,-0.128 -0.26,-0.128 -0.25,-0.107 -0.26,-0.064 -0.28,-0.064 -0.25,-0.022 -0.26,0.022 -0.13,0.042 -0.12,0.043 -0.13,0.043 -0.13,0.064 -0.15,0.085 -0.13,0.086 -0.12,0.128 -0.13,0.128 -0.45,0.107 -0.41,0.128 -0.38,0.149 -0.36,0.171 -0.34,0.213 -0.32,0.214 -0.32,0.235 -0.3,0.234 -0.28,0.257 -0.27,0.277 -0.26,0.278 -0.28,0.277 -0.51,0.577 -0.53,0.576 -0.19,0.299 -0.17,0.299 -0.17,0.32 -0.15,0.32 -0.15,0.32 -0.13,0.342 -0.11,0.32 -0.1,0.342 -0.09,0.341 -0.08,0.363 -0.05,0.342 -0.04,0.363 v 0.341 0.363 l 0.02,0.363 0.04,0.363 -0.1,0.107 -0.09,0.107 -0.04,0.128 -0.02,0.106 -0.02,0.129 0.02,0.106 0.02,0.128 0.02,0.128 0.07,0.257 0.06,0.235 v 0.128 0.106 0.107 l -0.04,0.107 -0.02,0.192 -0.03,0.171 v 0.192 l 0.03,0.192 0.04,0.406 0.08,0.405 0.11,0.427 0.15,0.43 0.15,0.4 0.19,0.43 0.17,0.41 0.17,0.38 0.15,0.38 0.17,0.39 0.19,0.38 0.17,0.37 0.2,0.38 0.21,0.38 0.32,0.54 0.32,0.51 0.34,0.49 0.36,0.49 0.34,0.51 0.36,0.58 0.17,0.3 0.18,0.32 0.17,0.36 0.17,0.37 0.21,0.15 0.17,0.12 0.19,0.17 0.15,0.15 0.32,0.32 0.28,0.37 0.23,0.36 0.24,0.38 0.21,0.39 0.21,0.38 0.22,0.39 0.23,0.38 0.21,0.39 0.26,0.38 0.28,0.36 0.29,0.34 0.18,0.17 0.17,0.18 0.19,0.14 0.21,0.15 0.32,0.47 0.36,0.52 0.39,0.51 0.38,0.55 0.36,0.54 0.34,0.55 0.34,0.54 0.28,0.53 0.28,0.21 0.25,0.22 0.24,0.25 0.23,0.28 0.19,0.3 0.2,0.3 0.15,0.32 0.12,0.32 0.47,0.38 0.47,0.41 0.43,0.4 0.45,0.41 0.83,0.85 0.78,0.88 0.79,0.87 0.81,0.9 0.81,0.9 0.88,0.92 0.08,0.25 0.13,0.26 0.13,0.23 0.15,0.24 0.15,0.23 0.17,0.19 0.17,0.22 0.19,0.19 0.4,0.38 0.43,0.35 0.45,0.34 0.47,0.32 0.98,0.64 0.96,0.64 0.47,0.32 0.46,0.34 0.43,0.38 0.41,0.39 -0.03,0.17 v 0.15 l 0.05,0.13 0.08,0.1 0.09,0.09 0.1,0.06 0.11,0.07 0.13,0.06 0.1,0.07 0.13,0.06 0.11,0.06 0.08,0.11 0.09,0.11 0.04,0.13 0.02,0.14 -0.02,0.2 0.09,0.08 0.08,0.11 0.11,0.08 0.08,0.11 0.11,0.07 0.11,0.04 0.1,0.02 0.13,-0.02 0.17,-0.19 0.26,0.25 0.25,0.26 0.28,0.23 0.28,0.22 0.59,0.44 0.6,0.39 0.62,0.36 0.66,0.34 0.64,0.32 0.64,0.28 0.15,0.07 0.15,0.08 0.15,0.11 0.12,0.1 0.3,0.22 0.28,0.21 0.15,0.09 0.15,0.08 0.15,0.04 0.17,0.05 h 0.17 l 0.17,-0.02 0.17,-0.07 0.19,-0.1 0.07,0.19 0.08,0.17 0.11,0.15 0.1,0.13 0.11,0.08 0.13,0.09 0.13,0.06 0.15,0.06 0.29,0.07 0.32,0.02 h 0.34 l 0.35,-0.02 h 0.34 l 0.34,0.02 h 0.17 l 0.15,0.04 0.17,0.05 0.15,0.04 0.15,0.06 0.12,0.09 0.13,0.1 0.13,0.13 0.11,0.15 0.1,0.19 0.11,0.2 0.06,0.23 0.24,0.07 0.21,0.06 0.21,0.02 h 0.22 0.42 l 0.43,-0.02 h 0.21 l 0.22,0.02 0.19,0.02 0.19,0.04 0.19,0.09 0.19,0.11 0.19,0.12 0.18,0.2 0.02,-0.11 0.02,-0.13 0.04,-0.08 0.04,-0.11 0.07,-0.11 0.06,-0.08 0.06,-0.11 0.07,-0.08 0.6,0.23 0.63,0.19 0.67,0.17 0.68,0.15 0.66,0.11 0.66,0.08 0.62,0.05 0.59,0.02 0.34,0.06 0.47,0.11 0.58,0.13 0.62,0.1 0.32,0.03 0.3,0.02 h 0.29 0.28 l 0.26,-0.05 0.23,-0.06 0.11,-0.04 0.08,-0.07 0.09,-0.06 0.06,-0.06 0.09,0.02 0.08,0.04 0.07,0.02 0.08,0.02 0.09,0.05 0.08,0.02 h 0.09 l 0.1,0.02 0.09,-0.09 0.08,-0.08 0.11,-0.13 0.11,-0.11 0.08,-0.1 0.07,-0.13 0.04,-0.11 v -0.11 l -0.19,-0.12 -0.24,-0.13 -0.27,-0.11 -0.28,-0.08 -0.32,-0.05 -0.34,-0.04 -0.34,-0.04 h -0.34 -0.71 l -0.66,0.06 -0.57,0.07 -0.47,0.08 h -0.24 l -0.25,-0.04 -0.28,-0.04 -0.28,-0.09 -0.61,-0.17 -0.64,-0.19 -0.69,-0.22 -0.64,-0.21 -0.34,-0.09 -0.29,-0.06 -0.32,-0.06 -0.28,-0.05 0.02,-0.06 0.02,-0.09 0.02,-0.08 v -0.09 l 0.02,-0.08 v -0.09 -0.08 z"
                   style="fill:#009259;fill-opacity:1;fill-rule:evenodd;stroke:none"
                   id="path4214"
                   inkscape:connector-curvature="0" />
                <path
                   d="m 174.44,126.04 0.24,-0.18 0.25,-0.15 0.26,-0.14 0.28,-0.13 0.55,-0.24 0.58,-0.23 0.27,-0.13 0.28,-0.13 0.26,-0.15 0.25,-0.15 0.24,-0.17 0.23,-0.19 0.19,-0.21 0.19,-0.24 v -0.32 l -0.17,0.02 -0.19,0.05 -0.17,0.04 -0.17,0.06 -0.34,0.17 -0.34,0.22 -0.34,0.23 -0.34,0.21 -0.34,0.24 -0.37,0.19 -0.55,0.15 -0.55,0.15 -0.58,0.17 -0.55,0.17 -0.58,0.15 -0.58,0.13 -0.29,0.04 -0.3,0.04 -0.3,0.05 h -0.32 l -0.02,0.13 0.02,0.1 0.04,0.09 0.05,0.08 0.06,0.07 0.08,0.08 0.09,0.07 0.08,0.06 0.2,0.04 h 0.21 l 0.19,-0.04 0.17,-0.04 0.34,-0.17 0.34,-0.19 0.17,-0.09 0.15,-0.09 0.17,-0.06 0.2,-0.02 h 0.17 l 0.19,0.04 0.19,0.07 z m -4,-1.01 0.53,-0.13 0.53,-0.08 0.54,-0.11 0.53,-0.08 0.51,-0.11 0.53,-0.11 0.51,-0.13 0.54,-0.12 0.19,-0.15 0.23,-0.13 0.22,-0.11 0.23,-0.1 0.45,-0.22 0.47,-0.19 0.44,-0.21 0.45,-0.24 0.21,-0.15 0.22,-0.13 0.19,-0.17 0.19,-0.17 h 0.11 l 0.1,-0.02 0.09,-0.02 0.09,-0.02 0.17,-0.11 0.12,-0.15 0.13,-0.13 0.13,-0.15 0.13,-0.1 0.15,-0.09 0.44,-0.3 0.43,-0.32 0.43,-0.34 0.38,-0.34 0.38,-0.36 0.41,-0.37 0.38,-0.36 0.41,-0.36 0.15,-0.02 0.15,-0.05 0.14,-0.06 0.13,-0.04 0.11,-0.09 0.08,-0.1 0.05,-0.05 0.02,-0.08 0.02,-0.07 v -0.08 -0.07 -0.06 -0.06 -0.07 -0.06 l -0.02,-0.04 -0.04,-0.05 -0.09,-0.04 h -0.26 l -0.59,0.58 -0.62,0.55 -0.64,0.51 -0.64,0.52 -0.66,0.47 -0.66,0.44 -0.68,0.43 -0.68,0.41 -0.71,0.38 -0.7,0.34 -0.73,0.34 -0.72,0.32 -0.75,0.28 -0.74,0.28 -0.75,0.26 -0.76,0.23 -0.81,0.06 -0.84,0.09 -0.83,0.09 -0.85,0.04 -0.83,0.04 -0.83,-0.02 -0.41,-0.04 -0.38,-0.05 -0.38,-0.04 -0.37,-0.08 -0.04,0.06 v 0.09 0.08 l 0.02,0.06 0.09,0.18 0.1,0.17 0.11,0.17 0.11,0.15 0.08,0.17 0.04,0.13 0.24,-0.11 0.26,-0.07 0.27,-0.04 0.26,-0.02 h 0.27 l 0.3,0.02 0.28,0.04 0.28,0.03 0.57,0.08 0.58,0.04 0.28,-0.02 0.27,-0.02 0.28,-0.06 z m 17.96,-10.69 0.09,0.02 h 0.06 0.07 l 0.06,-0.05 0.11,-0.08 0.1,-0.11 0.09,-0.15 0.08,-0.12 0.09,-0.13 0.11,-0.11 v -0.15 l 0.04,-0.15 0.06,-0.13 0.11,-0.1 0.21,-0.2 0.28,-0.17 0.28,-0.19 0.23,-0.19 0.11,-0.13 0.06,-0.13 0.04,-0.17 0.02,-0.17 0.22,-0.19 0.19,-0.19 0.17,-0.22 0.17,-0.23 0.15,-0.21 0.13,-0.26 0.13,-0.24 0.1,-0.23 0.22,-0.51 0.17,-0.54 0.19,-0.51 0.17,-0.51 h -0.6 l 0.02,0.15 v 0.13 0.15 l -0.02,0.12 -0.06,0.26 -0.11,0.26 -0.13,0.21 -0.17,0.23 -0.17,0.22 -0.19,0.21 -0.38,0.41 -0.39,0.42 -0.15,0.24 -0.15,0.21 -0.1,0.26 -0.07,0.26 -0.15,0.02 -0.1,0.04 -0.11,0.04 -0.1,0.07 -0.18,0.12 -0.12,0.15 -0.11,0.17 -0.09,0.2 -0.08,0.19 -0.06,0.19 -0.07,0.19 -0.08,0.19 -0.09,0.2 -0.11,0.17 -0.1,0.15 -0.17,0.1 -0.09,0.07 -0.1,0.04 -0.11,0.04 -0.11,0.02 -0.34,0.52 -0.36,0.49 -0.38,0.49 -0.43,0.47 -0.43,0.47 -0.42,0.45 -0.47,0.45 -0.47,0.44 -0.94,0.88 -0.94,0.87 -0.46,0.43 -0.47,0.45 -0.45,0.45 -0.43,0.47 -0.23,0.13 -0.26,0.12 -0.23,0.15 -0.22,0.15 -0.23,0.15 -0.21,0.19 -0.22,0.17 -0.21,0.22 0.13,0.06 0.15,0.04 0.17,0.03 h 0.15 0.17 l 0.17,-0.03 0.13,-0.04 0.15,-0.06 2.15,-1.84 0.74,-0.79 0.77,-0.77 0.79,-0.79 0.77,-0.76 0.74,-0.79 0.75,-0.82 0.36,-0.4 0.34,-0.43 0.34,-0.43 z m -19.67,4.03 -0.08,-0.08 -0.11,-0.09 -0.11,-0.04 -0.1,-0.02 -0.13,-0.03 h -0.13 l -0.13,-0.02 h -0.12 l -0.18,0.09 -0.08,0.06 -0.04,0.05 v 0.02 l 0.02,0.04 0.02,0.04 0.02,0.09 v 0.13 l 0.26,0.04 0.19,0.02 h 0.17 l 0.13,-0.02 0.1,-0.04 0.13,-0.09 0.15,-0.08 0.17,-0.11 z m 1.39,0.07 -0.11,-0.03 -0.17,-0.06 -0.17,-0.04 -0.19,-0.05 h -0.09 -0.06 l -0.07,0.03 -0.06,0.02 -0.02,0.06 v 0.07 0.08 l 0.04,0.11 -0.08,0.13 0.25,0.02 h 0.17 l 0.15,-0.02 0.11,-0.05 0.11,-0.06 0.1,-0.09 0.13,-0.1 0.17,-0.13 z m 7.24,-0.58 v -0.04 l -0.02,-0.05 -0.02,-0.02 -0.04,-0.02 -0.07,-0.02 h -0.1 l -0.13,0.02 -0.15,0.02 -0.15,0.07 -0.15,0.06 -0.32,0.15 -0.25,0.19 -0.11,0.09 -0.09,0.06 -0.06,0.09 v 0.06 h 0.17 l 0.19,-0.02 0.17,-0.04 0.17,-0.07 0.17,-0.08 0.15,-0.09 0.15,-0.13 0.13,-0.12 z m -3.81,-2.35 h -0.11 l -0.1,0.02 -0.11,0.04 -0.11,0.05 -0.08,0.06 -0.11,0.09 -0.11,0.08 -0.1,0.11 -0.05,0.06 -0.04,0.09 -0.06,0.06 -0.07,0.09 -0.04,0.08 v 0.09 0.04 l 0.02,0.04 0.02,0.05 0.07,0.04 0.17,-0.09 0.19,-0.1 0.19,-0.13 0.19,-0.11 0.17,-0.13 0.2,-0.12 0.15,-0.11 0.12,-0.11 -0.19,-0.1 z m 9.18,-0.62 0.11,-0.08 0.13,-0.11 0.08,-0.09 0.09,-0.12 0.08,-0.11 0.09,-0.11 0.08,-0.13 0.09,-0.12 -0.15,-0.13 -0.13,-0.09 -0.1,-0.04 h -0.11 l -0.11,0.02 -0.08,0.07 -0.09,0.06 -0.06,0.11 -0.15,0.19 -0.15,0.21 -0.06,0.11 -0.09,0.08 -0.08,0.07 -0.09,0.04 v 0.04 0.02 l 0.02,0.05 h 0.04 l 0.09,0.02 h 0.11 0.12 0.11 0.13 z m 9.98,-8.11 0.25,0.43 1.07,-1.24 -0.32,-0.51 -0.11,0.19 -0.1,0.19 -0.09,0.19 -0.08,0.19 -0.09,0.17 -0.13,0.15 -0.08,0.09 -0.09,0.06 -0.1,0.05 z m -0.34,-2.2 0.06,-0.92 -0.06,0.15 -0.09,0.02 -0.06,0.02 h -0.09 l -0.04,-0.02 -0.13,-0.06 -0.08,-0.09 -0.11,-0.1 -0.11,-0.07 -0.06,-0.02 -0.04,-0.02 h -0.07 l -0.08,0.02 -0.04,0.19 -0.07,0.17 -0.11,0.15 -0.08,0.17 -0.11,0.15 -0.06,0.2 -0.02,0.08 -0.02,0.09 v 0.1 l 0.02,0.11 h 0.38 l 0.07,0.06 0.02,0.05 v 0.06 l -0.02,0.07 -0.11,0.12 -0.11,0.13 -0.04,0.07 -0.04,0.06 -0.02,0.04 v 0.04 l 0.04,0.03 0.06,0.04 h 0.11 l 0.15,0.02 0.02,-0.11 0.02,-0.08 0.06,-0.09 0.05,-0.06 0.13,-0.13 0.17,-0.11 0.14,-0.1 0.15,-0.11 0.07,-0.06 0.06,-0.09 0.04,-0.08 z m 4.22,-5.956 -0.11,0.043 -0.11,0.064 -0.1,0.085 -0.11,0.085 -0.08,0.107 -0.09,0.107 -0.06,0.107 -0.05,0.085 0.09,0.32 0.11,-0.021 0.08,-0.021 0.06,-0.043 0.05,-0.064 0.08,-0.128 0.07,-0.128 0.02,-0.15 0.04,-0.171 0.04,-0.149 z m 0.59,-0.961 -0.04,-0.042 -0.02,-0.043 -0.04,-0.043 -0.05,-0.043 -0.04,-0.021 -0.06,-0.021 -0.04,-0.022 h -0.07 v 0.107 l -0.02,0.107 -0.02,0.107 v 0.106 0.086 0.107 l 0.02,0.085 0.02,0.085 0.09,-0.064 0.06,-0.064 0.06,-0.064 0.03,-0.064 0.04,-0.085 0.02,-0.064 0.02,-0.086 z m -35.29,26.817 0.04,0.02 0.05,0.04 0.06,0.02 0.04,0.02 0.07,0.02 h 0.06 0.06 0.05 l 0.04,-0.04 v -0.04 -0.06 l -0.02,-0.07 -0.04,-0.11 -0.07,-0.1 -0.02,-0.07 v -0.04 -0.02 l 0.04,-0.02 0.05,-0.02 h 0.06 l 0.11,0.02 0.12,0.04 0.15,0.13 0.15,0.13 0.13,0.13 0.15,0.12 0.15,0.11 0.15,0.11 0.15,0.06 0.19,0.07 0.06,-0.07 0.04,-0.06 0.09,-0.09 0.06,-0.06 0.09,-0.07 0.11,-0.04 0.12,-0.02 h 0.13 l 0.07,-0.04 0.04,-0.07 0.02,-0.08 0.02,-0.09 0.02,-0.08 0.02,-0.09 v -0.06 -0.07 l -0.36,-0.13 -0.34,-0.14 -0.34,-0.13 -0.32,-0.13 -0.34,-0.13 -0.34,-0.08 -0.39,-0.09 -0.38,-0.06 -0.23,-0.22 0.06,-0.13 0.08,-0.08 0.09,-0.09 0.09,-0.08 0.19,-0.11 0.19,-0.06 0.21,-0.04 0.22,-0.03 H 163 l 0.23,0.05 0.47,0.1 0.45,0.13 0.23,0.04 0.22,0.07 0.21,0.02 0.19,0.02 0.62,0.13 0.62,0.08 0.59,0.09 0.62,0.06 0.62,0.03 0.6,-0.03 h 0.27 l 0.3,-0.04 0.28,-0.04 0.28,-0.04 0.15,0.1 0.12,0.09 0.13,0.02 0.13,0.02 0.15,-0.02 h 0.15 l 0.17,-0.02 0.19,0.02 0.19,-0.13 0.22,-0.13 0.21,-0.08 0.23,-0.07 0.24,-0.06 0.23,-0.02 0.24,-0.02 0.19,0.02 0.04,-0.15 0.06,-0.11 0.07,-0.06 0.08,-0.07 0.11,-0.04 0.11,-0.02 h 0.13 0.12 l 0.26,0.02 h 0.28 0.12 l 0.11,-0.02 0.11,-0.04 0.1,-0.07 0.24,-0.04 0.21,-0.09 0.21,-0.06 0.2,-0.11 0.4,-0.19 0.41,-0.23 0.4,-0.22 0.41,-0.21 0.21,-0.09 0.23,-0.08 0.22,-0.04 0.23,-0.05 0.19,-0.23 0.22,-0.19 0.23,-0.15 0.23,-0.15 0.49,-0.24 0.52,-0.19 0.25,-0.11 0.26,-0.1 0.23,-0.13 0.24,-0.13 0.21,-0.15 0.19,-0.19 0.19,-0.21 0.15,-0.26 0.43,-0.3 0.43,-0.32 0.44,-0.32 0.47,-0.32 0.45,-0.34 0.45,-0.32 0.4,-0.34 0.41,-0.37 0.06,0.11 0.04,0.09 0.02,0.08 v 0.09 l 0.05,0.04 0.06,0.04 h 0.11 l 0.17,-0.02 0.15,-0.06 0.15,-0.09 0.1,-0.1 0.11,-0.09 0.19,-0.23 0.15,-0.24 0.17,-0.26 0.17,-0.21 0.11,-0.11 0.1,-0.1 0.15,-0.09 0.15,-0.08 0.45,-0.69 0.45,-0.66 0.42,-0.68 0.45,-0.66 0.45,-0.67 0.49,-0.64 0.26,-0.32 0.27,-0.32 0.28,-0.32 0.3,-0.3 0.06,-0.27 0.11,-0.24 0.15,-0.21 0.13,-0.21 0.14,-0.24 0.11,-0.21 0.07,-0.11 0.02,-0.13 0.04,-0.13 0.02,-0.12 0.28,-0.37 0.25,-0.36 0.26,-0.38 0.23,-0.37 0.47,-0.77 0.43,-0.79 0.4,-0.79 0.37,-0.79 0.34,-0.76 0.32,-0.77 -0.49,0.74 -0.49,0.75 -0.45,0.77 -0.45,0.77 -0.47,0.77 -0.45,0.77 -0.49,0.74 -0.53,0.73 -0.28,-0.28 -0.21,0.19 -0.02,0.05 v 0.04 0.04 l 0.04,0.04 0.07,0.09 0.06,0.06 0.02,0.03 0.02,0.02 0.02,0.04 -0.02,0.02 -0.06,0.06 -0.17,0.07 -0.13,-0.13 -0.15,-0.08 -0.17,-0.09 -0.13,-0.09 -0.06,-0.04 -0.04,-0.04 -0.05,-0.04 v -0.07 -0.06 l 0.03,-0.09 0.06,-0.08 0.08,-0.11 0.07,-0.13 0.11,-0.1 0.1,-0.09 0.11,-0.11 0.08,-0.12 0.05,-0.11 0.02,-0.06 v -0.09 l -0.02,-0.06 -0.03,-0.09 h -0.12 l -0.13,0.04 -0.09,0.05 -0.08,0.06 -0.15,0.15 -0.11,0.17 -0.1,0.19 -0.13,0.15 -0.09,0.07 -0.08,0.04 -0.13,0.02 -0.13,0.02 -0.17,0.45 -0.21,0.43 -0.26,0.42 -0.27,0.43 -0.3,0.38 -0.34,0.37 -0.34,0.34 -0.37,0.3 -0.17,0.1 -0.15,0.13 -0.19,0.15 -0.17,0.17 -0.34,0.39 -0.3,0.4 -0.15,0.22 -0.1,0.19 -0.11,0.17 -0.09,0.19 -0.04,0.15 -0.02,0.13 v 0.06 l 0.02,0.05 0.02,0.04 0.05,0.04 0.21,-0.15 0.23,-0.21 0.26,-0.26 0.28,-0.28 0.27,-0.27 0.28,-0.24 0.15,-0.1 0.13,-0.09 0.15,-0.06 0.12,-0.05 0.2,-0.21 0.17,-0.21 0.17,-0.22 0.17,-0.23 0.32,-0.45 0.32,-0.45 0.17,-0.21 0.17,-0.19 0.17,-0.2 0.19,-0.17 0.21,-0.15 0.24,-0.12 0.25,-0.11 0.26,-0.07 -0.04,0.35 -0.11,0.32 -0.13,0.32 -0.15,0.32 -0.17,0.32 -0.21,0.3 -0.21,0.29 -0.24,0.32 -0.51,0.6 -0.51,0.58 -0.51,0.58 -0.47,0.57 -0.32,0.17 -0.32,0.22 -0.28,0.21 -0.3,0.23 -0.53,0.5 -0.49,0.51 -0.51,0.51 -0.53,0.49 -0.28,0.24 -0.28,0.21 -0.3,0.21 -0.32,0.22 -0.87,0.53 -0.87,0.58 -0.88,0.53 -0.87,0.53 -0.47,0.26 -0.45,0.23 -0.47,0.24 -0.47,0.23 -0.46,0.22 -0.49,0.19 -0.49,0.17 -0.52,0.17 -0.51,0.3 -0.53,0.26 -0.58,0.21 -0.55,0.19 -0.3,0.07 -0.3,0.06 -0.27,0.04 -0.3,0.05 -0.28,0.02 -0.3,0.02 h -0.27 l -0.3,-0.02 -0.11,0.1 -0.11,0.07 -0.15,0.06 -0.12,0.02 h -0.3 l -0.3,-0.02 -0.32,-0.06 -0.32,-0.02 h -0.15 -0.15 l -0.15,0.02 -0.12,0.06 -0.07,-0.02 -0.06,-0.04 -0.02,-0.04 -0.03,-0.05 -0.02,-0.08 -0.02,-0.11 v -0.08 l -0.04,-0.09 -0.02,-0.02 -0.04,-0.02 h -0.07 -0.06 l -0.09,0.08 -0.06,0.07 -0.09,0.04 -0.08,0.04 -0.15,0.04 h -0.17 l -0.17,-0.04 -0.19,-0.04 -0.17,-0.02 -0.2,-0.04 -0.04,-0.07 -0.04,-0.04 -0.07,-0.02 -0.04,-0.05 -0.13,-0.02 h -0.15 l -0.29,0.07 -0.3,0.08 -0.15,0.05 -0.13,0.02 h -0.15 l -0.1,-0.02 -0.07,-0.03 -0.04,-0.02 -0.04,-0.04 -0.05,-0.04 -0.06,-0.15 -0.04,-0.19 -0.13,0.04 -0.13,0.04 h -0.13 -0.12 -0.15 -0.15 -0.15 -0.15 l -0.09,-0.13 -0.08,-0.1 -0.09,-0.11 -0.08,-0.09 -0.11,-0.1 -0.11,-0.09 -0.1,-0.06 -0.15,-0.09 -0.09,0.04 -0.08,0.05 -0.09,0.04 -0.1,0.04 -0.09,0.05 -0.08,0.02 h -0.11 l -0.11,-0.02 -0.08,-0.09 -0.09,-0.09 -0.08,-0.1 -0.11,-0.09 -0.09,-0.06 -0.12,-0.07 -0.13,-0.04 h -0.15 l -0.11,0.09 -0.08,0.08 -0.11,0.11 -0.08,0.08 -0.11,0.07 -0.11,0.02 h -0.04 l -0.06,-0.02 -0.05,-0.04 -0.06,-0.05 -0.09,-0.02 -0.08,-0.02 -0.06,-0.04 -0.05,-0.04 -0.06,-0.07 -0.04,-0.04 -0.07,-0.07 -0.04,-0.04 -0.04,-0.06 v -0.07 -0.06 -0.06 l 0.06,-0.07 0.07,-0.06 0.08,-0.07 0.09,-0.04 0.04,-0.04 0.02,-0.04 0.02,-0.05 v -0.06 h -0.28 l -0.23,0.02 -0.26,0.02 -0.23,0.04 -0.26,0.03 -0.25,-0.03 -0.28,-0.02 -0.32,-0.08 -0.43,-0.28 -0.36,-0.28 -0.34,-0.25 -0.32,-0.26 -0.32,-0.21 -0.36,-0.22 -0.21,-0.1 -0.22,-0.09 -0.23,-0.08 -0.26,-0.09 -0.15,0.02 h -0.14 l -0.11,-0.02 -0.11,-0.04 -0.1,-0.07 -0.11,-0.06 -0.09,-0.09 -0.08,-0.1 -0.15,-0.19 -0.13,-0.22 -0.15,-0.17 -0.15,-0.15 v -0.13 -0.12 l 0.02,-0.13 v -0.11 -0.11 l -0.04,-0.1 -0.04,-0.05 -0.04,-0.04 -0.07,-0.04 -0.08,-0.04 0.25,-0.24 0.13,0.15 0.13,0.11 0.13,0.08 0.15,0.07 0.17,0.04 0.15,0.02 h 0.17 0.19 l -0.26,-0.64 0.13,-0.02 h 0.13 0.13 l 0.1,0.04 0.22,0.11 0.19,0.15 0.21,0.15 0.21,0.15 0.11,0.04 0.11,0.06 0.12,0.03 0.15,0.02 v 0.1 0.09 l -0.02,0.08 -0.04,0.09 -0.09,0.13 -0.1,0.13 -0.04,0.06 -0.05,0.06 -0.02,0.07 v 0.06 0.09 l 0.02,0.08 0.07,0.09 0.06,0.1 0.09,0.13 0.08,0.13 0.11,0.11 0.13,0.1 0.14,0.07 0.15,0.04 h 0.17 l 0.2,-0.02 0.06,-0.11 0.06,-0.06 0.07,-0.04 0.08,-0.05 h 0.07 0.08 l 0.09,0.02 0.08,0.03 0.17,0.06 0.2,0.06 0.08,0.05 h 0.11 l 0.1,0.02 0.13,-0.02 0.09,0.1 0.1,0.07 0.11,0.06 0.11,0.04 0.12,0.05 0.13,0.02 h 0.13 l 0.15,-0.02 0.11,-0.05 0.1,-0.04 0.07,-0.08 0.04,-0.07 0.06,-0.19 0.07,-0.17 0.02,-0.06 0.04,-0.07 0.04,-0.06 0.07,-0.05 0.08,-0.02 h 0.11 l 0.13,0.02 0.17,0.07 0.44,0.55 -0.02,0.07 -0.04,0.06 -0.06,0.04 -0.07,0.05 -0.12,0.04 -0.15,0.02 -0.11,0.04 -0.11,0.05 -0.02,0.04 -0.02,0.06 v 0.07 l 0.02,0.1 0.17,0.15 0.15,0.13 0.17,0.11 0.19,0.11 0.2,0.08 0.19,0.09 0.21,0.06 0.21,0.04 0.22,0.05 0.21,0.02 0.23,0.02 H 163 l 0.23,-0.02 0.24,-0.02 0.23,-0.03 0.26,-0.06 0.04,-0.02 0.04,-0.04 0.05,-0.05 0.06,-0.04 0.04,-0.04 0.07,-0.02 0.08,-0.02 0.07,0.02 0.04,0.08 0.04,0.09 0.04,0.1 0.05,0.09 0.02,0.11 0.02,0.1 0.02,0.09 0.02,0.11 0.11,-0.07 0.08,-0.08 0.07,-0.13 0.06,-0.13 0.06,-0.3 0.07,-0.28 0.04,-0.13 0.04,-0.12 0.09,-0.11 0.08,-0.06 0.13,-0.05 h 0.17 l 0.19,0.05 0.26,0.08 0.09,0.07 0.06,0.06 0.04,0.06 0.04,0.09 v 0.06 0.07 0.08 l -0.02,0.09 -0.06,0.13 -0.11,0.15 -0.08,0.12 -0.11,0.11 -0.06,0.06 -0.07,0.07 -0.04,0.06 -0.02,0.07 -0.02,0.06 v 0.09 0.06 l 0.02,0.09 1.19,-0.11 -0.02,0.11 -0.02,0.1 -0.04,0.11 -0.02,0.13 -0.03,0.1 0.03,0.11 0.04,0.11 0.06,0.1 0.09,0.03 h 0.08 0.07 l 0.06,-0.03 0.11,-0.06 0.1,-0.09 0.11,-0.1 0.11,-0.09 0.1,-0.08 0.13,-0.05 2.15,0.15 v 0.02 0.05 l 0.03,0.04 v 0.04 l 0.02,0.05 0.02,0.04 0.04,0.04 0.04,0.04 0.13,-0.12 0.13,-0.13 0.13,-0.13 0.15,-0.11 0.17,-0.08 0.15,-0.05 0.08,-0.02 0.09,0.02 0.1,0.03 0.09,0.04 0.19,0.23 0.15,-0.12 0.17,-0.09 0.17,-0.09 0.17,-0.06 0.38,-0.11 0.41,-0.1 0.38,-0.09 0.34,-0.1 0.17,-0.09 0.13,-0.09 0.13,-0.08 0.11,-0.11 -0.22,-0.04 -0.19,-0.02 h -0.19 l -0.19,0.02 -0.34,0.04 -0.34,0.07 -0.32,0.04 -0.34,0.02 h -0.17 l -0.18,-0.02 -0.19,-0.02 -0.19,-0.07 0.11,-0.17 0.13,-0.13 0.1,-0.12 0.11,-0.13 0.25,-0.19 0.24,-0.15 0.25,-0.13 0.28,-0.09 0.28,-0.04 0.28,-0.04 0.57,-0.04 0.62,-0.07 0.3,-0.04 0.32,-0.07 0.32,-0.08 0.34,-0.11 0.02,-0.13 0.08,-0.1 0.09,-0.11 0.11,-0.08 0.12,-0.09 0.13,-0.11 0.13,-0.08 0.09,-0.09 0.19,0.11 0.19,0.08 0.17,0.05 0.17,0.02 0.15,-0.02 0.17,-0.02 0.15,-0.05 0.15,-0.06 0.3,-0.13 0.32,-0.13 0.17,-0.04 0.17,-0.04 0.17,-0.02 h 0.19 l 0.11,-0.17 0.17,-0.37 0.21,-0.49 0.23,-0.47 0.11,-0.19 0.13,-0.17 0.04,-0.07 0.04,-0.04 0.05,-0.02 0.04,-0.02 0.04,0.02 0.04,0.02 0.03,0.07 0.04,0.06 0.02,0.26 0.02,0.34 0.02,-0.15 0.04,-0.17 0.07,-0.17 0.08,-0.15 0.09,-0.15 0.13,-0.15 0.1,-0.11 0.15,-0.08 0.11,0.02 h 0.11 l 0.1,-0.02 0.09,-0.02 0.13,-0.13 0.12,-0.15 0.11,-0.17 0.11,-0.15 0.06,-0.07 0.09,-0.06 0.06,-0.04 0.08,-0.05 0.05,-0.15 0.06,-0.12 0.04,-0.15 0.09,-0.15 0.08,-0.11 0.11,-0.13 0.13,-0.08 0.15,-0.07 0.15,0.02 0.1,0.03 0.11,-0.03 0.09,-0.02 0.06,-0.04 0.06,-0.04 0.07,-0.09 0.04,-0.06 0.06,-0.17 0.07,-0.19 0.04,-0.18 0.04,-0.14 0.24,-0.13 0.19,-0.13 0.17,-0.13 0.17,-0.15 0.28,-0.32 0.25,-0.34 0.28,-0.32 0.3,-0.3 0.17,-0.15 0.19,-0.13 0.21,-0.1 0.24,-0.11 -0.02,-0.11 v -0.08 l 0.02,-0.07 0.04,-0.06 0.11,-0.13 0.17,-0.11 0.15,-0.1 0.1,-0.11 0.05,-0.06 0.02,-0.09 -0.02,-0.08 -0.05,-0.09 0.13,-0.15 0.17,-0.25 0.24,-0.3 0.25,-0.32 0.26,-0.32 0.21,-0.28 0.15,-0.17 0.04,-0.04 1.43,-1.5 -0.04,-0.02 v -0.04 -0.05 -0.06 l 0.08,-0.15 0.13,-0.21 0.34,-0.52 0.45,-0.59 0.47,-0.62 0.43,-0.56 0.34,-0.45 0.17,-0.27 0.19,-0.28 0.21,-0.26 0.24,-0.27 0.19,-0.261 0.08,-0.149 0.09,-0.149 0.06,-0.15 0.07,-0.149 0.02,-0.15 0.02,-0.171 v -0.17 l -0.04,-0.192 0.15,-0.107 0.12,-0.107 0.11,-0.128 0.11,-0.128 0.17,-0.256 0.17,-0.299 0.17,-0.299 0.19,-0.278 0.11,-0.128 0.12,-0.149 0.13,-0.107 0.15,-0.128 0.09,-0.107 0.04,-0.128 0.04,-0.128 0.04,-0.107 0.05,-0.234 0.02,-0.214 0.04,-0.213 0.09,-0.214 0.06,-0.107 0.09,-0.085 0.12,-0.107 0.13,-0.085 0.02,-0.235 0.07,-0.213 0.06,-0.214 0.11,-0.192 0.19,-0.384 0.25,-0.385 0.24,-0.363 0.19,-0.384 0.09,-0.192 0.06,-0.213 0.04,-0.214 0.02,-0.235 0.13,-0.256 0.13,-0.277 0.15,-0.257 0.15,-0.277 0.13,-0.256 0.1,-0.278 0.11,-0.299 0.06,-0.299 -0.1,0.022 -0.11,0.021 -0.09,0.021 -0.06,0.064 -0.11,0.107 -0.08,0.15 -0.07,0.17 -0.06,0.171 -0.06,0.15 -0.11,0.128 -0.38,0.726 -0.34,0.704 -0.35,0.705 -0.36,0.725 -0.36,0.705 -0.38,0.683 -0.22,0.342 -0.23,0.341 -0.24,0.342 -0.25,0.32 0.04,0.235 v 0.213 l -0.04,0.171 -0.07,0.171 -0.1,0.149 -0.13,0.128 -0.13,0.107 -0.15,0.128 -0.15,0.107 -0.14,0.128 -0.13,0.128 -0.13,0.128 -0.11,0.15 -0.06,0.17 -0.04,0.193 v 0.213 l -0.26,0.299 -0.26,0.299 -0.21,0.299 -0.21,0.32 -0.41,0.664 -0.4,0.66 -0.41,0.66 -0.42,0.66 -0.24,0.32 -0.25,0.3 -0.26,0.32 -0.3,0.3 -0.19,0.39 -0.21,0.4 -0.26,0.39 -0.3,0.38 -0.29,0.38 -0.35,0.37 -0.34,0.38 -0.38,0.36 -0.77,0.73 -0.79,0.7 -0.78,0.73 -0.75,0.7 -0.17,0.05 -0.19,0.08 -0.17,0.13 -0.17,0.15 -0.13,0.15 -0.13,0.17 -0.04,0.09 -0.02,0.1 -0.02,0.09 -0.03,0.08 -0.23,0.24 -0.26,0.21 -0.25,0.19 -0.28,0.2 -0.6,0.36 -0.61,0.34 -0.6,0.36 -0.6,0.37 -0.27,0.21 -0.26,0.23 -0.26,0.24 -0.23,0.26 -0.68,0.15 -0.66,0.17 -0.66,0.17 -0.66,0.17 -0.67,0.17 -0.66,0.17 -0.66,0.17 -0.68,0.17 -0.13,-0.02 h -0.12 l -0.13,0.02 -0.11,0.04 -0.19,0.07 -0.19,0.1 -0.19,0.11 -0.2,0.11 -0.1,0.02 -0.11,0.04 -0.13,0.02 h -0.12 v 0.07 l -0.03,0.08 -0.04,0.05 -0.02,0.06 -0.11,0.08 -0.12,0.07 -0.15,0.08 -0.15,0.07 -0.15,0.08 -0.11,0.11 -0.17,-0.06 -0.19,-0.05 -0.17,-0.02 h -0.19 l -0.37,0.07 -0.38,0.08 -0.19,0.04 -0.17,0.05 -0.19,0.02 h -0.19 -0.18 l -0.19,-0.04 -0.17,-0.07 -0.17,-0.08 -0.21,0.12 -0.21,0.11 -0.24,0.07 -0.21,0.04 h -0.26 l -0.23,-0.02 -0.24,-0.05 -0.23,-0.06 -0.49,-0.15 -0.49,-0.19 -0.45,-0.17 -0.45,-0.13 -0.23,0.04 h -0.21 -0.22 l -0.19,-0.02 -0.19,-0.02 -0.19,-0.06 -0.19,-0.07 -0.18,-0.06 -0.34,-0.17 -0.32,-0.2 -0.27,-0.23 -0.28,-0.21 -0.79,-0.32 -0.79,-0.37 -0.79,-0.42 -0.78,-0.45 -0.79,-0.47 -0.75,-0.51 -0.74,-0.54 -0.69,-0.55 -1,-0.86 -0.94,-0.87 -0.91,-0.92 -0.92,-0.92 -0.87,-0.94 -0.83,-0.96 -0.86,-0.98 -0.81,-1.03 -0.27,-0.27 -0.26,-0.3 -0.25,-0.28 -0.24,-0.3 -0.47,-0.62 -0.45,-0.62 -0.42,-0.62 -0.43,-0.61 -0.45,-0.623 -0.46,-0.598 -0.35,-0.641 -0.36,-0.619 -0.38,-0.619 -0.41,-0.598 -0.4,-0.619 -0.43,-0.576 -0.47,-0.598 -0.47,-0.598 0.03,-0.106 v -0.15 l -0.03,-0.128 -0.04,-0.149 -0.13,-0.299 -0.17,-0.342 -0.17,-0.32 -0.19,-0.342 -0.15,-0.341 -0.1,-0.342 -0.26,-0.064 -0.26,-0.107 -0.21,-0.128 -0.19,-0.128 -0.17,-0.149 -0.17,-0.171 -0.17,-0.171 -0.15,-0.171 -0.3,-0.362 -0.3,-0.363 -0.17,-0.15 -0.19,-0.171 -0.19,-0.128 -0.22,-0.128 -0.08,-0.064 -0.06,-0.107 -0.07,-0.128 -0.06,-0.149 -0.05,-0.15 -0.06,-0.128 -0.04,-0.128 -0.04,-0.106 -0.18,-0.235 -0.17,-0.235 -0.17,-0.235 -0.19,-0.235 -0.45,-0.469 -0.44,-0.427 -0.51,-0.406 -0.52,-0.363 -0.25,-0.171 -0.26,-0.149 -0.25,-0.15 -0.28,-0.128 -0.09,-0.128 -0.08,-0.107 -0.11,-0.064 -0.08,-0.021 h -0.11 l -0.08,0.021 -0.09,0.022 -0.11,0.064 -0.21,0.085 -0.21,0.086 -0.11,0.021 h -0.13 l -0.1,-0.021 -0.13,-0.064 -0.47,-0.171 -0.43,-0.214 -0.44,-0.213 -0.45,-0.171 -0.24,-0.064 -0.21,-0.021 -0.23,-0.022 -0.24,0.022 -0.21,0.042 -0.24,0.086 -0.23,0.149 -0.23,0.171 -0.39,0.085 -0.36,0.107 -0.34,0.107 -0.3,0.128 -0.32,0.149 -0.28,0.171 -0.25,0.171 -0.26,0.192 -0.49,0.406 -0.47,0.405 -0.44,0.449 -0.47,0.427 -0.17,0.234 -0.15,0.214 -0.15,0.256 -0.13,0.235 -0.13,0.235 -0.13,0.256 -0.08,0.256 -0.09,0.256 -0.08,0.256 -0.07,0.257 -0.04,0.277 -0.04,0.256 v 0.278 0.256 l 0.02,0.278 0.04,0.277 -0.1,0.086 -0.07,0.085 -0.04,0.085 -0.02,0.086 v 0.192 l 0.04,0.171 0.07,0.192 0.04,0.192 0.02,0.085 v 0.086 l -0.02,0.085 -0.02,0.085 -0.05,0.257 v 0.277 l 0.05,0.299 0.06,0.299 0.11,0.299 0.1,0.32 0.13,0.299 0.15,0.32 0.17,0.32 0.15,0.321 0.17,0.32 0.17,0.32 0.17,0.32 0.17,0.299 0.19,0.32 0.2,0.299 0.25,0.384 0.28,0.363 0.3,0.342 0.3,0.363 0.29,0.384 0.3,0.427 0.3,0.448 0.28,0.53 0.34,0.22 0.3,0.23 0.27,0.26 0.24,0.25 0.21,0.28 0.21,0.28 0.2,0.3 0.17,0.3 0.19,0.3 0.19,0.27 0.19,0.3 0.24,0.28 0.23,0.28 0.26,0.25 0.32,0.26 0.32,0.24 0.29,0.36 0.32,0.36 0.32,0.41 0.35,0.4 0.31,0.41 0.3,0.42 0.3,0.41 0.24,0.41 0.23,0.15 0.23,0.17 0.22,0.19 0.19,0.21 0.19,0.22 0.15,0.23 0.13,0.24 0.13,0.23 0.4,0.3 0.41,0.3 0.38,0.3 0.38,0.32 0.73,0.64 0.7,0.66 0.68,0.66 0.71,0.68 0.7,0.69 0.77,0.68 0.08,0.19 0.11,0.19 0.11,0.2 0.12,0.17 0.13,0.17 0.15,0.15 0.17,0.17 0.15,0.15 0.36,0.28 0.37,0.25 0.4,0.26 0.41,0.25 0.85,0.47 0.85,0.47 0.41,0.26 0.4,0.26 0.38,0.27 0.34,0.3 -0.02,0.15 0.02,0.11 0.03,0.08 0.06,0.09 0.17,0.11 0.21,0.1 0.2,0.09 0.19,0.13 0.06,0.08 0.04,0.09 v 0.12 0.15 l 0.07,0.07 0.08,0.06 0.07,0.09 0.08,0.06 0.09,0.04 0.1,0.05 0.11,0.02 0.11,-0.02 0.15,-0.15 0.44,0.38 0.49,0.36 0.52,0.33 0.53,0.29 0.53,0.28 0.58,0.26 0.55,0.23 0.58,0.22 0.25,0.1 0.24,0.15 0.25,0.17 0.26,0.17 0.13,0.07 0.12,0.06 0.13,0.02 0.15,0.05 h 0.15 l 0.15,-0.03 0.15,-0.06 0.17,-0.06 0.06,0.15 0.07,0.12 0.08,0.11 0.11,0.09 0.08,0.08 0.11,0.07 0.13,0.04 0.13,0.04 0.25,0.04 0.28,0.03 h 0.3 0.3 0.29 0.3 l 0.28,0.04 0.28,0.06 0.12,0.04 0.13,0.07 0.11,0.08 0.11,0.11 0.1,0.11 0.09,0.13 0.08,0.14 0.07,0.18 0.19,0.06 0.19,0.04 0.19,0.02 h 0.19 0.39 l 0.36,-0.02 h 0.19 l 0.17,0.02 0.17,0.03 0.17,0.02 0.17,0.06 0.17,0.09 0.15,0.1 0.17,0.13 v -0.08 l 0.02,-0.07 0.05,-0.08 0.04,-0.09 0.04,-0.06 0.05,-0.07 0.06,-0.08 0.06,-0.07 0.51,0.22 0.56,0.17 0.57,0.17 0.6,0.13 0.6,0.1 0.57,0.09 0.58,0.04 0.53,0.02 0.3,0.05 0.43,0.06 0.49,0.06 0.53,0.05 h 0.28 0.25 l 0.26,-0.03 0.23,-0.02 0.22,-0.04 0.21,-0.06 0.15,-0.07 0.15,-0.1 0.06,0.02 0.06,0.02 0.07,0.02 0.08,0.02 0.07,0.02 0.08,0.02 h 0.09 0.08 l 0.07,-0.06 0.06,-0.06 0.07,-0.11 0.08,-0.11 0.04,-0.08 0.05,-0.11 0.04,-0.09 -0.02,-0.08 -0.17,-0.11 -0.2,-0.08 -0.23,-0.07 -0.23,-0.04 -0.28,-0.04 h -0.28 -0.3 -0.3 l -0.59,0.06 -0.58,0.07 -0.49,0.08 -0.4,0.09 -0.22,-0.02 -0.23,-0.03 -0.26,-0.06 -0.25,-0.06 -0.53,-0.18 -0.56,-0.19 -0.55,-0.21 -0.58,-0.17 -0.28,-0.07 -0.25,-0.04 -0.26,-0.04 h -0.25 l 0.04,-0.06 0.02,-0.07 v -0.04 l 0.02,-0.07 v -0.06 -0.06 l -0.02,-0.07 z"
                   style="fill:#009259;fill-opacity:1;fill-rule:evenodd;stroke:none"
                   id="path4216"
                   inkscape:connector-curvature="0" />
                <path
                   d="m 151.38,35.903 0.49,0.021 h 0.49 l 0.49,0.043 0.47,0.042 0.47,0.043 0.47,0.064 0.45,0.064 0.42,0.086 0.43,0.085 0.43,0.107 0.4,0.106 0.39,0.107 0.38,0.128 0.36,0.128 0.36,0.15 0.34,0.128 0.32,0.171 0.3,0.149 0.3,0.171 0.26,0.171 0.25,0.192 0.24,0.171 0.21,0.192 0.19,0.192 0.17,0.213 0.15,0.214 0.15,0.192 0.11,0.213 0.08,0.235 0.07,0.214 0.02,0.235 0.02,0.213 -0.02,0.235 -0.02,0.213 -0.07,0.214 -0.08,0.235 -0.11,0.192 -0.15,0.213 -0.15,0.192 -0.17,0.193 -0.19,0.192 -0.21,0.192 -0.24,0.171 -0.25,0.17 -0.26,0.15 -0.3,0.171 -0.3,0.149 -0.32,0.149 -0.34,0.129 -0.36,0.128 -0.36,0.128 -0.38,0.107 -0.79,0.192 -0.86,0.17 -0.87,0.15 -0.94,0.085 -0.96,0.064 -0.98,0.022 -0.98,-0.022 -0.93,-0.064 -0.92,-0.085 -0.85,-0.15 -0.41,-0.064 -0.4,-0.106 -0.39,-0.086 -0.36,-0.106 -0.36,-0.107 -0.34,-0.128 -0.32,-0.128 -0.32,-0.129 -0.28,-0.149 -0.3,-0.149 -0.25,-0.171 -0.26,-0.15 -0.21,-0.17 -0.22,-0.171 -0.19,-0.192 -0.17,-0.192 -0.17,-0.193 -0.13,-0.192 -0.12,-0.213 -0.09,-0.192 -0.08,-0.235 -0.05,-0.214 -0.04,-0.213 V 40.343 40.13 l 0.04,-0.235 0.05,-0.214 0.08,-0.235 0.09,-0.213 0.12,-0.192 0.13,-0.214 0.17,-0.213 0.17,-0.192 0.19,-0.192 0.22,-0.171 0.21,-0.192 0.26,-0.171 0.25,-0.171 0.3,-0.149 0.28,-0.171 0.32,-0.128 0.32,-0.15 0.34,-0.128 0.36,-0.128 0.36,-0.107 0.39,-0.106 0.4,-0.107 0.41,-0.085 0.42,-0.086 0.43,-0.064 0.45,-0.064 0.47,-0.043 0.44,-0.042 0.49,-0.043 h 0.49 z m 9.55,17.484 h -6.71 v 2.946 h 6.71 v 5.636 h 5.29 V 40.258 l -0.02,-0.342 -0.07,-0.363 -0.11,-0.32 -0.14,-0.342 -0.17,-0.341 -0.2,-0.32 -0.25,-0.299 -0.28,-0.321 -0.3,-0.298 -0.34,-0.299 -0.36,-0.278 -0.38,-0.277 -0.43,-0.257 -0.45,-0.256 -0.47,-0.256 -0.49,-0.235 -0.53,-0.213 -0.53,-0.235 -0.58,-0.192 -0.6,-0.192 -0.59,-0.171 -0.64,-0.171 -0.64,-0.149 -0.66,-0.128 -0.68,-0.129 -0.69,-0.106 -0.72,-0.086 -0.72,-0.085 -0.73,-0.064 -0.75,-0.043 -0.76,-0.021 h -0.77 -0.77 l -0.74,0.021 -0.75,0.064 -0.72,0.043 -0.71,0.085 -0.68,0.086 -0.68,0.106 -0.66,0.129 -0.62,0.149 -0.62,0.149 -0.59,0.15 -0.58,0.192 -0.55,0.192 -0.54,0.192 -0.51,0.214 -0.49,0.235 -0.45,0.234 -0.42,0.257 -0.43,0.256 -0.38,0.277 -0.34,0.278 -0.34,0.277 -0.3,0.299 -0.28,0.299 -0.23,0.32 -0.22,0.321 -0.17,0.32 -0.15,0.32 -0.12,0.342 -0.09,0.341 -0.04,0.342 -0.02,0.363 0.02,0.341 0.04,0.363 0.09,0.32 0.12,0.342 0.15,0.32 0.17,0.32 0.22,0.321 0.23,0.299 0.28,0.298 0.3,0.299 0.34,0.278 0.34,0.277 0.38,0.257 0.43,0.256 0.42,0.235 0.45,0.234 0.49,0.214 0.51,0.213 0.54,0.192 0.55,0.171 0.58,0.171 0.59,0.171 0.62,0.149 0.62,0.128 0.66,0.107 0.68,0.107 0.68,0.085 0.71,0.086 0.72,0.042 0.75,0.043 0.74,0.021 0.77,0.022 0.64,-0.022 h 0.64 l 0.66,-0.042 0.66,-0.043 0.66,-0.064 0.64,-0.064 0.66,-0.064 0.64,-0.086 0.64,-0.106 0.62,-0.107 0.62,-0.107 0.57,-0.128 0.58,-0.128 0.53,-0.149 0.53,-0.15 0.47,-0.149 z m -50.83,-17.57 1,0.022 0.98,0.042 0.96,0.107 0.92,0.128 0.87,0.15 0.81,0.192 0.39,0.106 0.38,0.107 0.36,0.128 0.34,0.128 0.34,0.128 0.3,0.128 0.3,0.15 0.28,0.149 0.25,0.15 0.26,0.171 0.21,0.149 0.19,0.171 0.2,0.171 0.14,0.17 0.13,0.193 0.13,0.17 0.09,0.192 0.06,0.193 0.04,0.192 v 0.192 0.192 l -0.04,0.192 -0.06,0.192 -0.09,0.171 -0.13,0.192 -0.13,0.171 -0.14,0.192 -0.2,0.171 -0.19,0.171 -0.21,0.149 -0.26,0.171 -0.25,0.149 -0.28,0.15 -0.3,0.128 -0.3,0.149 -0.34,0.128 -0.7,0.235 -0.77,0.235 -0.81,0.171 -0.87,0.171 -0.92,0.128 -0.96,0.085 -0.98,0.064 -1,0.021 -1.02,-0.021 -0.98,-0.064 -0.96,-0.085 -0.92,-0.128 -0.87,-0.171 -0.81,-0.171 -0.77,-0.235 -0.7,-0.235 -0.34,-0.128 -0.3,-0.149 -0.3,-0.128 -0.28,-0.15 -0.25,-0.149 -0.26,-0.171 -0.21,-0.149 -0.19,-0.171 -0.2,-0.171 -0.14,-0.192 -0.13,-0.171 -0.13,-0.192 -0.09,-0.171 -0.06,-0.192 -0.02,-0.192 -0.02,-0.192 0.02,-0.192 0.02,-0.192 0.06,-0.193 0.09,-0.192 0.13,-0.17 0.13,-0.193 0.14,-0.17 0.2,-0.171 0.19,-0.171 0.21,-0.149 0.26,-0.171 0.25,-0.15 0.28,-0.149 0.3,-0.15 0.3,-0.128 0.34,-0.128 0.34,-0.128 0.36,-0.128 0.38,-0.107 0.39,-0.106 0.81,-0.192 0.87,-0.15 0.92,-0.128 0.96,-0.107 0.98,-0.042 z m 71.89,16.887 h 18.84 v 3.608 h -18.84 z m -2.09,-2.925 -0.3,0.021 -0.3,0.043 -0.3,0.085 -0.29,0.086 -0.28,0.128 -0.28,0.171 -0.25,0.17 -0.26,0.193 -0.21,0.234 -0.19,0.235 -0.2,0.256 -0.15,0.278 -0.1,0.278 -0.11,0.298 -0.04,0.321 -0.02,0.32 v 9.18 h 5.37 v -2.882 h 18.84 v 2.882 h 5.39 V 49.779 Z m -33.57,3.266 -0.13,-0.235 -0.17,-0.256 -0.15,-0.235 -0.19,-0.234 -0.19,-0.235 -0.19,-0.214 -0.21,-0.213 -0.24,-0.214 -0.47,-0.405 -0.51,-0.385 -0.53,-0.362 -0.58,-0.321 -0.57,-0.299 -0.62,-0.277 -0.62,-0.214 -0.62,-0.192 -0.61,-0.149 -0.64,-0.128 -0.32,-0.022 -0.3,-0.042 -0.32,-0.022 h -0.3 -1.36 l -1.62,2.477 h 1.96 0.32 l 0.34,0.042 0.3,0.064 0.32,0.086 0.32,0.107 0.29,0.128 0.3,0.128 0.28,0.171 0.3,0.17 0.27,0.214 0.26,0.213 0.26,0.214 0.25,0.235 0.26,0.256 0.23,0.256 0.22,0.278 0.21,0.277 0.21,0.299 0.19,0.277 0.17,0.299 0.17,0.321 0.17,0.298 0.13,0.321 0.15,0.299 0.11,0.32 0.1,0.299 0.09,0.32 0.09,0.299 0.04,0.299 0.04,0.299 0.02,0.277 0.02,0.299 h -7.37 v 2.903 h 7.71 v 2.327 h 5.46 v -2.327 h 7.78 v -2.903 h -7.37 v -0.299 l 0.04,-0.277 0.04,-0.299 0.04,-0.299 0.09,-0.299 0.08,-0.32 0.11,-0.299 0.11,-0.32 0.12,-0.299 0.15,-0.321 0.15,-0.298 0.17,-0.321 0.2,-0.299 0.19,-0.277 0.21,-0.299 0.21,-0.277 0.22,-0.278 0.23,-0.256 0.26,-0.256 0.23,-0.235 0.28,-0.214 0.25,-0.213 0.28,-0.192 0.3,-0.192 0.28,-0.171 0.29,-0.128 0.3,-0.128 0.32,-0.107 0.3,-0.086 0.32,-0.064 0.32,-0.042 h 0.34 2 l -1.68,-2.477 h -1.36 -0.32 l -0.3,0.022 -0.32,0.042 -0.32,0.022 -0.62,0.128 -0.64,0.149 -0.62,0.192 -0.61,0.214 -0.6,0.277 -0.6,0.299 -0.55,0.321 -0.56,0.362 -0.51,0.385 -0.47,0.405 -0.23,0.214 -0.21,0.213 -0.2,0.214 -0.19,0.235 -0.19,0.234 -0.17,0.235 -0.15,0.256 z m 59.91,-18.317 h -5.39 v 5.316 H 176.49 V 42.99 H 189 v 2.22 h -12.51 v 2.947 H 206.8 V 45.21 h -12.51 v -2.22 h 11.95 z m 10.85,4.014 h 12.6 v 5.977 h -9.32 l -0.3,0.022 -0.3,0.042 -0.29,0.065 -0.3,0.106 -0.28,0.128 -0.28,0.171 -0.25,0.171 -0.24,0.192 -0.23,0.214 -0.19,0.256 -0.19,0.256 -0.15,0.277 -0.11,0.278 -0.11,0.299 -0.04,0.32 -0.02,0.342 v 13.833 h 29.86 v -2.924 h -24.6 V 47.665 h 24.6 V 44.719 H 234.97 V 38.742 H 247.4 V 35.796 H 217.09 Z M 94.415,53.75 h 3.112 0.341 l 0.362,0.042 0.362,0.022 0.362,0.064 0.384,0.064 0.384,0.085 0.388,0.086 0.4,0.106 0.79,0.235 0.77,0.256 0.76,0.299 0.73,0.342 0.7,0.341 0.62,0.363 0.3,0.171 0.27,0.192 0.26,0.192 0.23,0.171 0.22,0.192 0.19,0.192 0.17,0.171 0.13,0.192 0.13,0.171 0.06,0.171 0.06,0.171 V 58.19 H 95.118 v 2.946 h 12.252 v 2.327 h 5.44 v -2.327 h 12.25 V 58.19 h -11.8 l 0.02,-0.149 0.04,-0.171 0.08,-0.171 0.11,-0.171 0.15,-0.192 0.15,-0.171 0.19,-0.192 0.21,-0.192 0.24,-0.171 0.28,-0.192 0.25,-0.192 0.3,-0.171 0.64,-0.363 0.7,-0.341 0.73,-0.342 0.76,-0.299 0.77,-0.277 0.79,-0.214 0.38,-0.106 0.41,-0.086 0.38,-0.085 0.39,-0.064 0.36,-0.064 0.36,-0.022 0.36,-0.042 h 0.34 3.09 l -1.87,-2.455 h -4.39 -0.45 l -0.51,0.021 -0.53,0.043 -0.58,0.064 -0.62,0.064 -0.64,0.107 -0.64,0.106 -0.66,0.15 -0.66,0.171 -0.66,0.213 -0.64,0.214 -0.64,0.277 -0.29,0.149 -0.3,0.15 -0.28,0.171 -0.3,0.171 -0.25,0.17 -0.26,0.192 -0.26,0.193 -0.23,0.213 -0.23,-0.213 -0.28,-0.193 -0.26,-0.192 -0.27,-0.192 -0.3,-0.171 -0.28,-0.149 -0.32,-0.15 -0.3,-0.149 -0.64,-0.277 -0.64,-0.235 -0.64,-0.192 -0.66,-0.171 -0.66,-0.15 -0.64,-0.128 -0.62,-0.085 -0.59,-0.086 -0.58,-0.042 -0.53,-0.043 -0.49,-0.021 h -0.45 -4.388 z m 18.305,-8.006 v 1.366 h 12.51 v 2.925 H 94.926 V 47.11 h 12.534 v -1.366 l -0.66,-0.064 -0.66,-0.064 -0.64,-0.085 -0.62,-0.086 -0.62,-0.085 -0.6,-0.107 -0.57,-0.128 -0.58,-0.128 -0.55,-0.149 -0.53,-0.15 -0.54,-0.149 -0.51,-0.171 L 99.892,44.207 99.423,44.036 98.976,43.844 98.55,43.631 98.145,43.439 97.761,43.225 97.399,42.99 97.058,42.777 96.738,42.542 96.44,42.307 96.163,42.051 95.928,41.816 95.694,41.56 95.502,41.282 95.353,41.026 95.203,40.77 95.097,40.492 95.033,40.215 94.99,39.937 94.969,39.639 94.99,39.34 l 0.043,-0.321 0.107,-0.32 0.127,-0.299 0.171,-0.299 0.213,-0.298 0.234,-0.278 0.278,-0.277 0.298,-0.278 0.341,-0.256 0.362,-0.278 0.384,-0.235 0.426,-0.256 0.448,-0.235 0.49,-0.213 0.49,-0.214 0.533,-0.213 0.555,-0.192 0.55,-0.192 0.6,-0.171 0.62,-0.149 0.64,-0.15 0.64,-0.149 0.68,-0.107 0.68,-0.128 0.7,-0.086 0.71,-0.085 0.74,-0.064 0.75,-0.064 0.75,-0.043 0.76,-0.021 h 0.79 0.77 l 0.77,0.021 0.74,0.043 0.75,0.064 0.72,0.064 0.73,0.085 0.7,0.086 0.68,0.128 0.68,0.107 0.64,0.149 0.64,0.15 0.62,0.149 0.6,0.171 0.55,0.192 0.56,0.192 0.53,0.213 0.49,0.214 0.49,0.213 0.45,0.235 0.42,0.256 0.39,0.235 0.36,0.278 0.34,0.256 0.3,0.278 0.27,0.277 0.24,0.278 0.21,0.298 0.17,0.299 0.13,0.299 0.11,0.32 0.04,0.321 0.02,0.299 -0.02,0.298 -0.04,0.278 -0.07,0.277 -0.1,0.278 -0.15,0.256 -0.15,0.278 -0.19,0.256 -0.24,0.256 -0.23,0.235 -0.28,0.256 -0.3,0.235 -0.32,0.235 -0.34,0.235 -0.36,0.213 -0.38,0.214 -0.41,0.192 -0.43,0.213 -0.46,0.192 -0.47,0.171 -0.47,0.171 -0.51,0.171 -0.54,0.17 -0.53,0.129 -0.55,0.149 -0.58,0.128 -0.57,0.128 -0.62,0.107 -0.6,0.085 -0.64,0.086 -0.64,0.085 -0.64,0.064 z"
                   style="fill:#1f1a17;fill-opacity:1;fill-rule:evenodd;stroke:none"
                   id="path4218"
                   inkscape:connector-curvature="0" />
              </g>
            </g>
          </g>
        </g>
      </g>
    </g>
  </g>
</svg>
