<?xml version="1.0" encoding="UTF-8" standalone="no"?>
<!-- Created with Inkscape (http://www.inkscape.org/) -->

<svg
   xmlns:dc="http://purl.org/dc/elements/1.1/"
   xmlns:cc="http://creativecommons.org/ns#"
   xmlns:rdf="http://www.w3.org/1999/02/22-rdf-syntax-ns#"
   xmlns:svg="http://www.w3.org/2000/svg"
   xmlns="http://www.w3.org/2000/svg"
   xmlns:sodipodi="http://sodipodi.sourceforge.net/DTD/sodipodi-0.dtd"
   xmlns:inkscape="http://www.inkscape.org/namespaces/inkscape"
   width="307.01917mm"
   height="205.48956mm"
   viewBox="0 0 307.01917 205.48956"
   version="1.1"
   id="svg8"
   inkscape:version="0.92.3 (2405546, 2018-03-11)"
   sodipodi:docname="Flag_of_South_Jeolla_Province.svg">
  <defs
     id="defs2" />
  <sodipodi:namedview
     id="base"
     pagecolor="#ffffff"
     bordercolor="#666666"
     borderopacity="1.0"
     inkscape:pageopacity="0.0"
     inkscape:pageshadow="2"
     inkscape:zoom="0.35"
     inkscape:cx="891.20295"
     inkscape:cy="-36.049277"
     inkscape:document-units="mm"
     inkscape:current-layer="layer1"
     showgrid="false"
     fit-margin-top="0"
     fit-margin-left="0"
     fit-margin-right="0"
     fit-margin-bottom="0"
     inkscape:window-width="1920"
     inkscape:window-height="1018"
     inkscape:window-x="-8"
     inkscape:window-y="-8"
     inkscape:window-maximized="1" />
  <metadata
     id="metadata5">
    <rdf:RDF>
      <cc:Work
         rdf:about="">
        <dc:format>image/svg+xml</dc:format>
        <dc:type
           rdf:resource="http://purl.org/dc/dcmitype/StillImage" />
        <dc:title></dc:title>
      </cc:Work>
    </rdf:RDF>
  </metadata>
  <g
     inkscape:label="Layer 1"
     inkscape:groupmode="layer"
     id="layer1"
     transform="translate(11.442,-17.053377)">
    <rect
       style="opacity:1;fill:#ffffff;fill-opacity:1;fill-rule:nonzero;stroke:none;stroke-width:0.54588675;stroke-linecap:round;stroke-linejoin:round;stroke-miterlimit:4;stroke-dasharray:none;stroke-dashoffset:0;stroke-opacity:1;paint-order:stroke markers fill"
       id="rect863"
       width="307.01917"
       height="205.48956"
       x="-11.442"
       y="17.053377" />
    <g
       transform="matrix(0.35958035,0,0,-0.35958035,36.30843,251.74114)"
       id="g10">
      <g
         transform="scale(1,-1)"
         id="g12" />
    </g>
    <g
       id="g872"
       transform="translate(-1.0002107,-3.1710066)">
      <path
         id="path14"
         transform="matrix(0.26458333,0,0,0.26458333,-16.836169,15.624422)"
         d="M 601.96875,93.193359 C 583.91459,93.091826 562.31836,103.21484 562.31836,103.21484 L 360.7207,230.82422 c 25.33874,-6.98368 84.68412,-17.31117 196.91407,-7.64258 0,0 20.56564,1.34724 35.36914,6.73828 0,0 8.77668,0.54013 8.50195,9.70703 0,0 -1.36831,8.0881 -8.50195,7.00977 0,0 -10.41748,-0.53641 -13.16211,10.7832 0,0 -4.38449,12.40207 7.95508,18.06055 0,0 43.46387,37.60821 141.35351,36.39648 0,0 69.10841,3.10292 108.59766,-37.33593 0,0 17.97968,-26.02604 -3.69336,-52.31836 L 646.04297,103.21484 c 0,0 -23.01245,-10.78611 -41.38477,-9.978512 h -0.95508 c -0.57417,-0.02524 -1.15198,-0.03969 -1.73437,-0.04297 z M 432.46094,241.71289 c -7.63763,-0.0311 -12.33594,0.19141 -12.33594,0.19141 -53.05116,1.48844 -93.70898,12.89062 -93.70898,12.89062 -11.15572,3.96897 -51.71875,30.58203 -51.71875,30.58203 -11.50609,7.27964 -17.30399,16.85128 -17.41016,26.4336 v 0.0664 c 0.10617,9.59294 5.90407,19.15505 17.41016,26.44532 l 287.77539,182.16211 c 0,0 23.01113,10.77749 41.38476,9.97851 h 0.95508 c 18.37495,0.79898 41.38086,-9.97851 41.38086,-9.97851 L 815.25,413.46484 C 629.05568,418.3675 555.32031,367.95508 555.32031,367.95508 453.3104,319.42898 506.78516,250.68164 506.78516,250.68164 c -26.49555,-7.60248 -57.52144,-8.90028 -74.32422,-8.96875 z M 914.8457,274.17773 C 864.45358,344.77634 736.04102,346.91602 736.04102,346.91602 632.38737,350.15569 575.625,320.22656 575.625,320.22656 c 0,0 45.86595,42.06654 184.89453,50.14649 102.31848,6.56959 164.05859,-25.33008 164.05859,-25.33008 65.66279,-33.76375 -9.73242,-70.86524 -9.73242,-70.86524 z"
         style="fill:#0a50a1;fill-opacity:1;fill-rule:nonzero;stroke:none;stroke-width:1.35904384"
         inkscape:connector-curvature="0" />
      <path
         sodipodi:nodetypes="cccccccccccccccccccccssssccccccsssscccccccccccccccccccssscccsssccccccccscccssscccccccccccccccccccccccccccccccccccccsssccccccssssssssss"
         id="path20"
         d="m 52.286191,170.51914 v 4.15587 h 14.663202 c 0,0 -1.881547,7.41861 -13.372969,6.53181 h -0.311563 -1.540217 v 4.15514 h 1.85178 c 0,0 15.192534,0.89259 18.401947,-10.54179 0,0 1.679979,-3.86013 -3.209454,-4.30103 z m 29.278025,0 v 1.03219 h -6.649833 v 4.16614 h 6.649833 v 2.07537 h -6.649833 v 4.15587 h 6.649833 v 6.19825 c -2.454228,-1.82817 -5.964988,-2.96754 -9.86002,-2.96754 -7.421233,0 -13.433819,4.12829 -13.433819,9.23542 0,5.09663 6.012586,9.23104 13.433819,9.23104 7.41623,0 13.432352,-4.13441 13.432352,-9.23104 0,-2.18247 -1.099488,-4.17687 -2.930147,-5.75179 h 4.040039 v -18.14391 z m 48.222984,0.14515 v 17.9555 c -2.41068,-1.57492 -5.67778,-2.55334 -9.27353,-2.55334 -7.42175,0 -13.43457,4.13367 -13.43457,9.2303 0,5.10714 6.01282,9.24129 13.43457,9.24129 7.41572,0 13.43234,-4.13415 13.43234,-9.24129 0,-2.47325 -1.42233,-4.71465 -3.73141,-6.37566 h 4.25776 v -11.12825 h 4.41685 v -4.161 h -4.41685 v -2.96755 z m -14.75411,0.14515 -5.67482,0.0755 c 0,0 0.8361,9.57941 -10.617306,8.83224 v 4.01071 c 0,0 8.383796,1.77911 13.410366,-5.63963 0,0 4.47031,7.1233 12.99103,6.08536 v -4.15514 c 0,0 -9.91608,1.03776 -10.10927,-9.20903 z m 36.94984,0.11874 -0.006,9.92894 c -0.003,0.0756 -0.019,0.14472 -0.019,0.21479 0,1.50537 1.15048,2.73149 2.56728,2.73149 0.04,0 0.0774,-0.0162 0.11802,-0.0162 h 2.02185 4.25264 19.36669 2.02112 c 0.0376,0 0.0753,0.0162 0.1159,0.0162 1.41929,0 2.56654,-1.22612 2.56654,-2.73149 0,-0.0701 -0.0128,-0.13917 -0.0162,-0.21479 l -0.009,-9.86516 h -4.67928 v 2.19927 h -23.61936 v -2.26305 z m 50.40727,2.26305 c -1.41929,0 -2.56947,1.21951 -2.56947,2.72488 0,0.0756 0.0159,0.67818 0.0183,0.74775 l -0.12101,1.46177 -0.006,10.56453 c -0.003,0.075 -0.019,0.14509 -0.019,0.20965 0,1.50486 1.15349,2.72562 2.56726,2.72562 0.04,0 0.0804,-0.0113 0.11803,-0.0113 h 2.01892 8.73839 v 7.3646 h -14.72229 v 4.33327 h 34.54086 v -4.3332 h -15.13527 v -7.3646 h 13.33485 v -4.18226 c 0,0 -26.7427,-0.0217 -26.75622,-0.0433 l 0.16422,-10.03155 h 26.5788 v -4.15588 h -26.61472 -2.02112 c -0.04,-0.006 -0.075,-0.01 -0.11505,-0.01 z m -45.72505,4.15 h 23.61933 v 2.21979 c -0.0142,0.0216 -0.022,0.0488 -0.0331,0.0704 h -19.33369 -4.22038 c -0.0113,-0.0216 -0.0193,-0.0488 -0.0322,-0.0704 z m -6.75759,9.10642 v 4.15586 h 15.92924 v 2.62373 h -13.98657 v 4.161 h 28.36681 c 0.016,0.0216 0.0214,0.0481 0.0345,0.0696 v 8.12846 l 4.68882,0.0704 c 0.003,-0.0645 0.019,-9.64481 0.019,-9.71487 0,-1.50536 -1.15122,-2.72488 -2.568,-2.72488 -0.04,0 -0.0775,0.01 -0.11803,0.01 h -2.02186 -9.73539 v -2.62372 h 16.31631 v -4.15587 z m -78.203364,2.70948 c 4.905952,0 8.889411,2.36007 8.889411,5.2577 0,2.89764 -3.983459,5.24232 -8.889411,5.24232 -4.913458,0 -8.891611,-2.34468 -8.891611,-5.24232 0,-2.89763 3.978153,-5.2577 8.891611,-5.2577 z m 48.809474,0.89804 c 4.91044,0 8.8894,2.34945 8.8894,5.24157 0,2.90314 -3.97896,5.25257 -8.8894,5.25257 -4.91147,0 -8.89456,-2.34943 -8.89456,-5.25257 0,-2.89212 3.98309,-5.24157 8.89456,-5.24157 z"
         style="fill:#231f20;fill-opacity:1;fill-rule:nonzero;stroke:none;stroke-width:0.50045401"
         inkscape:connector-curvature="0" />
    </g>
  </g>
</svg>
