<?xml version="1.0" encoding="UTF-8"?>
<svg width="600" height="400" version="1.1" xmlns="http://www.w3.org/2000/svg">
  <defs>
    <linearGradient id="i" x1="-354.79" x2="-394.71" y1="-1231.5" y2="-1135.7" gradientTransform="matrix(.9282 0 0 .9282 701.1 1247.1)" gradientUnits="userSpaceOnUse">
      <stop stop-color="#44C8F5" offset="0"/>
      <stop stop-color="#36C4F3" offset=".0288"/>
      <stop stop-color="#00AFEA" offset=".2534"/>
      <stop stop-color="#00A4E5" offset=".423"/>
      <stop stop-color="#00A1E4" offset=".5169"/>
      <stop stop-color="#0066B3" offset="1"/>
    </linearGradient>
    <linearGradient id="h" x1="-352.12" x2="-392.04" y1="-1230.4" y2="-1134.5" gradientTransform="matrix(.9282 0 0 .9282 701.1 1247.1)" gradientUnits="userSpaceOnUse">
      <stop stop-color="#44C8F5" offset="0"/>
      <stop stop-color="#36C4F3" offset=".0288"/>
      <stop stop-color="#00AFEA" offset=".2534"/>
      <stop stop-color="#00A4E5" offset=".423"/>
      <stop stop-color="#00A1E4" offset=".5169"/>
      <stop stop-color="#0066B3" offset="1"/>
    </linearGradient>
    <linearGradient id="g" x1="-605.71" x2="-559.89" y1="-1211.3" y2="-1126.7" gradientTransform="matrix(.94997 0 0 .94997 830.12 1272.4)" gradientUnits="userSpaceOnUse">
      <stop stop-color="#44C8F5" offset="0"/>
      <stop stop-color="#36C4F3" offset=".0288"/>
      <stop stop-color="#00AFEA" offset=".2534"/>
      <stop stop-color="#00A4E5" offset=".423"/>
      <stop stop-color="#00A1E4" offset=".5169"/>
      <stop stop-color="#0066B3" offset="1"/>
    </linearGradient>
    <linearGradient id="f" x1="-604.81" x2="-559" y1="-1211.8" y2="-1127.2" gradientTransform="matrix(.94997 0 0 .94997 830.12 1272.4)" gradientUnits="userSpaceOnUse">
      <stop stop-color="#44C8F5" offset="0"/>
      <stop stop-color="#36C4F3" offset=".0288"/>
      <stop stop-color="#00AFEA" offset=".2534"/>
      <stop stop-color="#00A4E5" offset=".423"/>
      <stop stop-color="#00A1E4" offset=".5169"/>
      <stop stop-color="#0066B3" offset="1"/>
    </linearGradient>
    <linearGradient id="e" x1="875.77" x2="923.07" y1="-903.72" y2="-875.08" gradientTransform="matrix(1.8847 0 0 1.8847 -1473.4 1877.8)" gradientUnits="userSpaceOnUse">
      <stop stop-color="#44C8F5" offset="0"/>
      <stop stop-color="#36C4F3" offset=".0288"/>
      <stop stop-color="#00AFEA" offset=".2534"/>
      <stop stop-color="#00A4E5" offset=".423"/>
      <stop stop-color="#00A1E4" offset=".5169"/>
      <stop stop-color="#0066B3" offset="1"/>
    </linearGradient>
    <linearGradient id="d" x1="875.19" x2="922.49" y1="-902.76" y2="-874.12" gradientTransform="matrix(1.8847 0 0 1.8847 -1473.4 1877.8)" gradientUnits="userSpaceOnUse">
      <stop stop-color="#44C8F5" offset="0"/>
      <stop stop-color="#36C4F3" offset=".0288"/>
      <stop stop-color="#00AFEA" offset=".2534"/>
      <stop stop-color="#00A4E5" offset=".423"/>
      <stop stop-color="#00A1E4" offset=".5169"/>
      <stop stop-color="#0066B3" offset="1"/>
    </linearGradient>
    <linearGradient id="c" x1="-312.07" x2="-386.74" y1="-1175.5" y2="-1124.2" gradientTransform="matrix(.9276 -.033863 .033863 .9276 739.76 1235)" gradientUnits="userSpaceOnUse">
      <stop stop-color="#44C8F5" offset="0"/>
      <stop stop-color="#36C4F3" offset=".0288"/>
      <stop stop-color="#00AFEA" offset=".2534"/>
      <stop stop-color="#00A4E5" offset=".423"/>
      <stop stop-color="#00A1E4" offset=".5169"/>
      <stop stop-color="#0066B3" offset="1"/>
    </linearGradient>
    <linearGradient id="b" x1="-778.42" x2="-657.42" y1="-1109.9" y2="-1081.2" gradientTransform="matrix(.94997 0 0 .94997 828.07 1272.7)" gradientUnits="userSpaceOnUse">
      <stop stop-color="#44C8F5" offset="0"/>
      <stop stop-color="#36C4F3" offset=".0288"/>
      <stop stop-color="#00AFEA" offset=".2534"/>
      <stop stop-color="#00A4E5" offset=".423"/>
      <stop stop-color="#00A1E4" offset=".5169"/>
      <stop stop-color="#0066B3" offset="1"/>
    </linearGradient>
    <linearGradient id="a" x1="-778.57" x2="-657.57" y1="-1109.3" y2="-1080.7" gradientTransform="matrix(.94997 0 0 .94997 828.07 1272.7)" gradientUnits="userSpaceOnUse">
      <stop stop-color="#44C8F5" offset="0"/>
      <stop stop-color="#36C4F3" offset=".0288"/>
      <stop stop-color="#00AFEA" offset=".2534"/>
      <stop stop-color="#00A4E5" offset=".423"/>
      <stop stop-color="#00A1E4" offset=".5169"/>
      <stop stop-color="#0066B3" offset="1"/>
    </linearGradient>
    <linearGradient id="r" x1="859.22" x2="912.57" y1="-894.22" y2="-871.43" gradientTransform="matrix(1.8847 0 0 1.8847 -1472.8 1877.4)" gradientUnits="userSpaceOnUse">
      <stop stop-color="#44C8F5" offset="0"/>
      <stop stop-color="#36C4F3" offset=".0288"/>
      <stop stop-color="#00AFEA" offset=".2534"/>
      <stop stop-color="#00A4E5" offset=".423"/>
      <stop stop-color="#00A1E4" offset=".5169"/>
      <stop stop-color="#0066B3" offset="1"/>
    </linearGradient>
    <linearGradient id="q" x1="859.33" x2="912.67" y1="-894.47" y2="-871.67" gradientTransform="matrix(1.8847 0 0 1.8847 -1472.8 1877.4)" gradientUnits="userSpaceOnUse">
      <stop stop-color="#44C8F5" offset="0"/>
      <stop stop-color="#36C4F3" offset=".0288"/>
      <stop stop-color="#00AFEA" offset=".2534"/>
      <stop stop-color="#00A4E5" offset=".423"/>
      <stop stop-color="#00A1E4" offset=".5169"/>
      <stop stop-color="#0066B3" offset="1"/>
    </linearGradient>
    <linearGradient id="p" x1="843.34" x2="900.99" y1="-887.62" y2="-868.02" gradientTransform="matrix(1.8847 .014875 -.014875 1.8847 -1484.1 1865.6)" gradientUnits="userSpaceOnUse">
      <stop stop-color="#44C8F5" offset="0"/>
      <stop stop-color="#36C4F3" offset=".0288"/>
      <stop stop-color="#00AFEA" offset=".2534"/>
      <stop stop-color="#00A4E5" offset=".423"/>
      <stop stop-color="#00A1E4" offset=".5169"/>
      <stop stop-color="#0066B3" offset="1"/>
    </linearGradient>
    <linearGradient id="o" x1="843.65" x2="901.29" y1="-888.51" y2="-868.91" gradientTransform="matrix(1.8847 .014875 -.014875 1.8847 -1484.1 1865.6)" gradientUnits="userSpaceOnUse">
      <stop stop-color="#44C8F5" offset="0"/>
      <stop stop-color="#36C4F3" offset=".0288"/>
      <stop stop-color="#00AFEA" offset=".2534"/>
      <stop stop-color="#00A4E5" offset=".423"/>
      <stop stop-color="#00A1E4" offset=".5169"/>
      <stop stop-color="#0066B3" offset="1"/>
    </linearGradient>
    <linearGradient id="n" x1="-264.81" x2="-359.91" y1="-1112.4" y2="-1094.2" gradientTransform="matrix(.9282 0 0 .9282 699.76 1246.3)" gradientUnits="userSpaceOnUse">
      <stop stop-color="#44C8F5" offset="0"/>
      <stop stop-color="#36C4F3" offset=".0288"/>
      <stop stop-color="#00AFEA" offset=".2534"/>
      <stop stop-color="#00A4E5" offset=".423"/>
      <stop stop-color="#00A1E4" offset=".5169"/>
      <stop stop-color="#0066B3" offset="1"/>
    </linearGradient>
    <linearGradient id="m" x1="-289.16" x2="-371.46" y1="-1134.8" y2="-1109" gradientTransform="matrix(.9282 0 0 .9282 699.76 1246.3)" gradientUnits="userSpaceOnUse">
      <stop stop-color="#44C8F5" offset="0"/>
      <stop stop-color="#36C4F3" offset=".0288"/>
      <stop stop-color="#00AFEA" offset=".2534"/>
      <stop stop-color="#00A4E5" offset=".423"/>
      <stop stop-color="#00A1E4" offset=".5169"/>
      <stop stop-color="#0066B3" offset="1"/>
    </linearGradient>
    <linearGradient id="l" x1="-252.94" x2="-343.87" y1="-1091.5" y2="-1089.1" gradientTransform="matrix(.9282 0 0 .9282 700.7 1246.3)" gradientUnits="userSpaceOnUse">
      <stop stop-color="#44C8F5" offset="0"/>
      <stop stop-color="#36C4F3" offset=".0288"/>
      <stop stop-color="#00AFEA" offset=".2534"/>
      <stop stop-color="#00A4E5" offset=".423"/>
      <stop stop-color="#00A1E4" offset=".5169"/>
      <stop stop-color="#0066B3" offset="1"/>
    </linearGradient>
    <linearGradient id="k" x1="-650.13" x2="-579.26" y1="-1175.6" y2="-1113.5" gradientTransform="matrix(.94997 0 0 .94997 830.12 1272.4)" gradientUnits="userSpaceOnUse">
      <stop stop-color="#44C8F5" offset="0"/>
      <stop stop-color="#36C4F3" offset=".0288"/>
      <stop stop-color="#00AFEA" offset=".2534"/>
      <stop stop-color="#00A4E5" offset=".423"/>
      <stop stop-color="#00A1E4" offset=".5169"/>
      <stop stop-color="#0066B3" offset="1"/>
    </linearGradient>
    <linearGradient id="j" x1="-1502.5" x2="-1497.6" y1="610.15" y2="752.76" gradientTransform="matrix(1.0565,0,0,1.0565,1900,-598.7)" gradientUnits="userSpaceOnUse">
      <stop stop-color="#44C8F5" offset="0"/>
      <stop stop-color="#36C4F3" offset=".0288"/>
      <stop stop-color="#00AFEA" offset=".2534"/>
      <stop stop-color="#00A4E5" offset=".423"/>
      <stop stop-color="#00A1E4" offset=".5169"/>
      <stop stop-color="#0066B3" offset="1"/>
    </linearGradient>
  </defs>
  <path d="m0 0h600v400h-600z" fill="#fff"/>
  <path d="m492.65 277.13v-8.9531h-7.1451v8.9531c0 11.577-4.7764 16.886-12.262 19.711v5.4348l0.0313-5e-3c0.10255-0.0201 11.078-2.3198 15.372-10.132l0.42686-0.84687 0.43172 0.84687c4.2949 7.8122 15.273 10.114 15.375 10.132l0.0255 5e-3v-5.4348c-7.4792-2.8258-12.256-8.1346-12.256-19.711zm17.643-8.9453v48.681h6.6645v-48.681zm-244.32 23.042v4.4697h48.205v-4.4697zm175.18-23.989h0.0176v4.037h11.194v4.4678h-11.092v1.387c0 11.577 4.7764 16.886 12.257 19.711v5.4348l-0.0282-5e-3c-0.10053-0.0201-11.075-2.3198-15.372-10.132l-0.4288-0.84687-0.4288 0.84687c-4.2949 7.8122-15.27 10.114-15.375 10.132 0 0-0.0201 5e-3 -0.0255 5e-3v-5.4348c7.4801-2.8258 12.262-8.1346 12.262-19.711v-1.387h-11.094v-4.4678h11.191v-4.037h0.0151zm17.757 0.9465v48.681h6.6704v-48.681zm-71.83 8.8115v-3.2341h10.394v-4.4756h-27.718v4.4756h10.394v3.2341c-0.0177 9.7902-3.8749 16.471-11.172 19.225v5.2746c0.10053-0.0201 10.319-2.1655 14.211-9.8762l0.42686-0.84102 0.42684 0.84102c3.8915 7.7116 14.111 9.8556 14.214 9.8762v-5.2746c-7.3014-2.7526-11.156-9.4337-11.176-19.225zm17.748-8.8115v48.681h6.6616v-29.061h6.8853v-4.4697h-6.8853v-15.15h-6.6616zm105.46 0v48.681h6.6645v-48.681zm-237.83 0v19.952h35.21v-4.1376h-28.539v-3.7713h27.614v-4.1318h-27.614v-3.7713h28.539v-4.1376c-0.25202-2e-3 -34.949-2e-3 -35.21-2e-3zm0 30.606v4.4678h28.542v13.915h6.6675v-18.383h-35.21zm80.493-30.606v4.2675h-8.284v-4.2675h-6.6704v5.4924h-10.431v-5.4924h-6.6646v22.241h23.766v-4.1269h8.284v5.8812h6.6675v-23.995h-6.6675zm-25.386 17.51v-7.5475h10.431v7.8103h-10.431zm17.101-4.1308v-4.6338h8.284v4.8956h-8.284zm-16.995 13.697v4.4736h25.28v3.5203h-25.28v13.61h31.947v-4.4678h-25.271v-4.6709h25.271v-12.466h-31.947zm-74.002 9.3614h-33.163c1.4652-1.3274 2.4009-3.2204 2.4009-5.3498 0-4.0028-3.2566-7.2516-7.274-7.2516-4.0146 0-7.2682 3.2488-7.2682 7.2516 0 2.1294 0.93576 4.0214 2.398 5.3498h-33.158v10.024h22.599c-3.783 3.8729-6.1214 9.1514-6.1214 14.984 0 11.866 9.6496 21.487 21.551 21.487s21.559-9.6212 21.559-21.487c0-5.8323-2.3404-11.111-6.1244-14.984h22.602zm-38.037 35.784c-5.9691 0-10.808-4.8262-10.808-10.777 0-5.9525 4.839-10.777 10.808-10.777 5.9749 0 10.814 4.8243 10.814 10.777 0 5.9505-4.839 10.777-10.814 10.777zm-80.304-57.606c-1.2014-1.4476-3.0163-2.3735-5.0421-2.3735-3.6082 0-6.5385 2.9225-6.5385 6.517 0 3.5965 2.9303 6.519 6.5385 6.519 2.0258 0 3.8407-0.92503 5.0421-2.3697v25.934h10.723v-48.852h-10.723v14.625zm18.835 34.227h10.734v-48.852h-10.734zm-52.342-48.852-18.792 48.856h10.737l12.516-32.467 12.517 32.467h10.737l-18.792-48.856zm92.969 31.141c0.16896-0.16404 20.841-20.468 20.841-20.468s20.678 20.304 20.847 20.468h14.96c-0.91329-0.93672-20.621-21.123-20.621-21.123h16.927v-10.018h-64.227v10.018h16.929s-19.708 20.186-20.621 21.123h14.963z" fill="#4c5c65"/>
  <path d="m378.35 136.22c-9.9883-19.376-16.465-36.481-20.168-47.544-1.8141 10.108-6.2743 33.246-12.897 56.437 5.4422 9.4646 10.796 16.965 15.462 23.544 6.3819-9.5977 12.93-20.867 17.603-32.437z" fill="url(#i)"/>
  <path d="m356.44 174.93c-4.7154-6.6359-9.2445-13.765-13.681-21.325-3.2992 10.624-7.047 20.921-11.193 29.608 1.9737 2.9049 5.0032 7.041 9.1514 11.874 2.4466-2.813 8.6785-10.205 15.722-20.157z" fill="url(#h)"/>
  <path d="m272.5 182.73c6.4061 8.8333 13.393 17.953 20.401 26.211 5.4422-3.4492 10.229-6.8729 14.417-10.176-3.6028-8.1065-8.56-20.33-13.531-32.935-4.7311 4.1409-11.881 10.061-21.288 16.9z" fill="url(#g)"/>
  <path d="m291 158.73c-6.013-15.382-11.678-30.288-14.58-37.966-9.1877 9.4804-18.569 18.239-28.05 26.291 4.2945 6.8415 11.508 17.917 20.104 30.05 10.147-7.5175 17.701-13.986 22.527-18.374z" fill="url(#f)"/>
  <path d="m224.13 212.49c10.923 5.1761 22.527 10.218 33.649 14.225 4.3477-1.7451 8.4644-3.5386 12.366-5.3648-9.7513-4.3247-20.82-10.242-31.75-16.608-4.5243 2.5832-9.2832 5.1786-14.265 7.7485z" fill="url(#e)"/>
  <path d="m231.92 200.91c-11.253-6.7641-22.024-13.756-30.665-19.692-5.9417 3.639-11.823 7.0241-17.584 10.158 8.0037 4.5739 19.883 11.061 33.277 17.648 5.2354-2.6897 10.224-5.4011 14.972-8.1137z" fill="url(#d)"/>
  <path d="m344.25 199.05c2.9944 3.2532 6.4448 6.729 10.37 10.297 20.876-9.0136 39.179-22.915 49.359-31.472-5.9598-8.1525-11.296-16.352-16.05-24.369-17.081 21.834-39.034 41.47-43.679 45.544z" fill="url(#c)"/>
  <path d="m118.21 220c-5.7748 1.9411-10.686 3.4371-14.534 4.5352h-1e-3c-0.0315 0.0101-0.57687 0.1343-0.68572 0.36886-0.0847 0.17663-0.17175 0.5406 0.52366 0.84535 13.861 4.5243 28.568 8.3278 42.18 11.365 5.3322-1.5117 10.537-3.1105 15.607-4.7855-15.452-3.9595-30.638-8.3193-43.089-12.328z" fill="url(#b)"/>
  <path d="m171.44 234.86c-4.7686 1.6133-9.6545 3.1528-14.654 4.6174 12.975 2.6364 24.281 4.4783 31.906 5.4846 5.6587-0.86955 11.108-1.831 16.362-2.8771-10.31-1.8576-21.879-4.378-33.614-7.2248z" fill="url(#a)"/>
  <path d="m208.44 213.26c-13.525-6.0276-26.201-12.238-34.761-16.624-5.2935 2.6957-10.459 5.1846-15.447 7.4728 10.906 4.8532 23.856 10.205 37.014 15.222 4.5424-1.9894 8.9398-4.0164 13.194-6.0711z" fill="url(#r)"/>
  <path d="m203.45 222.4c12.104 4.4433 24.062 8.4476 34.467 11.372 4.3973-1.3751 8.606-2.8058 12.634-4.2836-10.207-2.9666-22.47-7.7292-34.556-12.919-4.049 1.9701-8.2298 3.9196-12.546 5.8304z" fill="url(#q)"/>
  <path d="m186.49 223.03c-15.416-5.1205-29.932-10.287-39.673-13.897-5.6696 2.3982-11.032 4.5207-16.005 6.3843 10.379 3.6028 25.36 8.5262 41.179 13.104 4.9706-1.8044 9.8033-3.6753 14.498-5.591z" fill="url(#p)"/>
  <path d="m181.5 231.3c12.394 3.3875 24.833 6.3638 35.587 8.1633 4.3683-1.034 8.5854-2.1285 12.653-3.2714-10.427-2.7453-22.505-6.4146-34.486-10.283-4.4578 1.8492-9.0426 3.6499-13.754 5.3914z" fill="url(#o)"/>
  <path d="m387.13 232.51c12.21-0.93969 34.737-3.5919 57.582-11.025-4.3018-3.5834-8.4258-7.2841-12.383-11.08-11.49 4.326-33.085 12.193-56.796 15.137 3.6354 2.3849 7.497 4.7202 11.597 6.9685z" fill="url(#n)"/>
  <path d="m370.43 222.06c9.981-1.9931 32.497-8.0037 54.798-18.758-4.719-4.9246-9.1695-9.9702-13.323-15.097-10.817 6.5984-32.356 18.849-52.704 25.16 3.4286 2.8941 7.1704 5.8159 11.228 8.6942z" fill="url(#m)"/>
  <path d="m460.59 233.6c-3.4334-2.397-6.7774-4.8666-10.034-7.4087-6.5658 2.1902-28.136 8.6676-56.697 9.8105 4.1591 2.0475 8.5419 3.9946 13.145 5.8062 12.27 0.56963 30.981-0.29266 53.579-6.9213 0.41482-0.15598 0.53818-0.32653 0.54907-0.5527 0.0255-0.38458-0.54181-0.73408-0.54181-0.73408z" fill="url(#l)"/>
  <path d="m235.6 157.45c-7.688 5.9864-15.409 11.528-23.104 16.622 13.304 11.374 40.721 32.991 62.44 44.965 4.829-2.403 9.2977-4.8521 13.422-7.3059-13.462-12.279-41.675-42.371-52.758-54.281z" fill="url(#k)"/>
  <path d="m291.68 104.12c6.2283 29.042 15.759 74.762 19.239 91.723 7.6917-6.4484 13.049-12.264 16.547-16.585 11.221-61.963 8.2057-125.3 8.2057-125.3-0.0151-0.52971-0.0531-4.4723-1.2614-4.9403-1.577-0.60711-2.5373 1.1429-2.5373 1.1429s-23.752 36.041-40.193 53.958z" fill="url(#j)"/>
</svg>
