<svg xmlns="http://www.w3.org/2000/svg" width="4800" height="2400"><g fill="#f9cf02"><g transform="scale(5)"><path fill="#da2032" d="M0 0h960v480H0z"/><path fill="#0066b3" d="M320 0h320v480H320z"/><circle cx="160" cy="164" r="44" fill="#ffd900"/><circle cx="160" cy="144" r="48" fill="#da2032"/><circle cx="160" cy="152" r="32" fill="#ffd900"/><path d="M72 216v192h40V216zm136 0v192h40V216zm-88 32v16h80v-16zm0 112v16h80v-16zm0-144h80l-40 24zm0 168h80l-40 24zM139.786 92.032c0 11.18 9.017 20.248 20.136 20.248 11.12 0 20.136-9.067 20.136-20.248 0-8.1-5.034-9.112-5.034-12.15 0-3.036 3.02-7.086-3.02-12.148 3.02 5.062-2.014 6.074-2.014 11.136 0 5.062 2.013 5.062 2.013 9.112 0 2.236-1.803 4.05-4.027 4.05s-4.027-1.815-4.027-4.05c0-4.05 4.026-8.1 4.026-14.174s-1.007-8.1-4.027-13.16c-3.02-5.063-8.055-9.112-4.028-13.162-6.04 2.025-3.02 10.124-3.02 15.186 0 5.062-4.028 8.1-4.028 14.174s3.02 7.086 3.02 11.136c0 2.236-1.802 4.05-4.026 4.05-2.225 0-4.028-1.815-4.028-4.05 0-4.05 2.014-4.05 2.014-9.112s-5.034-6.074-2.014-11.136c-6.04 5.062-3.02 9.112-3.02 12.15 0 3.036-5.034 4.048-5.034 12.148z" fill="#ffd900"/></g><g stroke-width="24" stroke="#da2032" fill="#ffd900"><circle cx="800" cy="1560" r="212"/><path d="M800 1348a106 106 0 0 1 0 212 106 106 0 0 0 0 212"/></g></g><g fill="#da2032"><circle cx="800" cy="1454" r="40"/><circle cx="800" cy="1666" r="40"/></g></svg>
