<svg xmlns="http://www.w3.org/2000/svg" width="512" height="341" viewBox="0 0 135.46666 90.222919"><path d="M-188.988-253.735h124.732v80.886h-124.732z" fill="#418FDE" fill-rule="evenodd"/><path d="M-126.622-233.512c-2.753 0-5.356.64-7.664 1.767-3.335 1.63-6.05 4.288-7.704 7.544a17.032 16.567 0 0 0-1.762 7.35c0 1.614.237 3.19.69 4.697l.404-.1a16.774 16.317 0 0 1-.676-4.396h3.088c.02 1.26.218 2.49.584 3.663l.4-.098a12.55 12.55 0 0 1-.57-3.564h2.796c.008.402.04.797.097 1.188-.194.025-.377.086-.377.086l-.087.273c-.19.035-.31.34-.31.34-.156.052-.277.24-.225.29.053.053-.086.07-.086.07v.375l-.086.12.017.41c.104 0 .087.186.087.186-.173.017-.14.24-.14.24l-.36.12-.07.1-.45-.016-.12.12v-.002c-.04-.11-.076-.22-.11-.334l-.403.098c.012.04.025.078.04.118h-.514l-.034-.085-.172-.035-.018-.188-.26.017-.05.104-.277.017c.016.172-.277.427-.31.36-.037-.07-.227-.257-.14-.29.087-.035.31-.07.31-.07v-.12l-.638-.016-.07.103-.258.017v.273l-.122.034c-.087.053.017.24.017.24.12.12-.017.307-.017.307-.104.102.085.29.085.29.14.034-.085.137-.085.137.034.17.137.22.137.22-.103.172.07.257.07.257l.018.29.12.07v.187l.07.12h.275l-.016-.427c-.243-.273.206-.34.224-.24.018.103.208.155.208.155.034.255.327.408.414.153.087-.257.156-.103.208.016.052.12.38.41.38.41h.26l.033.24c.293-.018.38.017.5.408.122.392.45.495.45.495l.24-.017c0-.205.244.035.244.137 0 .102.466.494.466.494l.466.103.086.068c.287.353.592.694.918 1.02l-2.185 2.125a16.085 16.085 0 0 1-4.072-6.757l-.405.1a16.48 16.48 0 0 0 4.328 7.085 17.165 17.165 0 0 0 4.726 3.26l.205-.354a16.716 16.716 0 0 1-4.49-3.052l2.184-2.125a13.625 13.625 0 0 0 3.83 2.55l.204-.353a13.237 13.237 0 0 1-3.74-2.48l.406-.395a.4.4 0 0 1 .045.144c.035.255.155.204.155.204l.986-.016.346-.29.88-.018c.45-.017.174-.615.087-.615-.052-.038-.062-.118-.055-.207.703.526 1.465.96 2.27 1.292l.203-.35a9.972 9.7 0 0 1-2.58-1.54l-.466-.424 2.176-2.117a6.91 6.91 0 0 0 3.138 1.648c-.043.036-.067.07-.057.095.033.085-.14.17-.14.17l-.155.05-.104.155-.206.068-.035.36-.104.066v.154l-.122.034v.085l-.172.018.104.255.138.07c.242.033.138.323.138.323l.138.018.07.187.137.273c.052.205.208.154.278.136.068-.016.137.206.137.206l.69.017s-.033.068.087.102c.066.018.337.036.573.04v.3a10.202 10.202 0 0 1-3.664-.75l-.205.35c1.21.502 2.518.777 3.868.802v2.72a13.466 13.466 0 0 1-5.248-1.14l-.204.352a13.884 13.884 0 0 0 5.453 1.19v3.005a17.05 17.05 0 0 1-6.975-1.57l-.205.354a17.46 17.46 0 0 0 7.387 1.62c2.726 0 5.354-.62 7.72-1.783a17.17 17.17 0 0 0 4.393-3.095 16.688 16.688 0 0 0 3.307-4.514l-.002-.003a16.214 16.214 0 0 0 1.71-7.268c0-2.18-.43-4.29-1.243-6.25a16.606 16.606 0 0 0-3.774-5.533 17.12 17.12 0 0 0-5.712-3.68 17.518 17.518 0 0 0-6.4-1.2zm-.206.406v3.005a13.85 13.85 0 0 0-5.833 1.375 13.675 13.302 0 0 0-3.445 2.368l-2.19-2.13a16.743 16.286 0 0 1 4.197-2.907 17.008 17.008 0 0 1 7.27-1.712zm.412 0c2.104.025 4.145.428 6.042 1.172v-.002a16.71 16.71 0 0 1 5.423 3.447l-1.85 1.802c-.065.015-.132.022-.18.002-.122-.05.05-.17.05-.17v-.137l-.103-.102s-.293.034-.31-.016a5.66 5.66 0 0 1-.07-.274l-.017-.29-.12-.052-.02-.102-.19.017v-.206l-.103-.034-.103-.05-.017-.207-.38-.016-.12-.17-.14-.206-.43-.032-.105-.102-.172-.035-.122-.05-.052.086-.328.017-.017.102c-.102.05-.38.047-.6.046a13.73 13.73 0 0 0-1.053-.466l-.15.373c.287.115.572.238.85.37-.02.06-.044.104-.083.104-.087 0-.052.223-.052.223s.225 0 .294.017c.07.016.07.187.07.187.258-.017.362.325.328.41-.035.085.103.085.103.085s0 .273-.035.34c-.034.07.225.12.295.223.068.102-.036.444-.088.46-.052.018.138.07.12.154-.017.085.053 0 .07.136l.052.426.242.017c.034-.222.48-.232.553-.205.293.102.518.546.518.648 0 .102-.19.12-.19.12l.007.11-.606.59c-.062-.04-.124-.057-.16-.036-.087.05-.053-.36-.053-.36s.156-.1.225-.05c.07.05-.587-.852-.726-.766-.138.085-.45-.085-.43-.24.016-.152-.624-.664-.624-.664s-.207-.136-.24-.034c-.036.102-.105.17 0 .222.102.05.084-.085.206.034.12.12.346.273.26.375-.087.102-.19.137-.19.137l.12.136h.19l.035.29s.206.102.258.222c.034.078.043.133.033.182a10.31 10.03 0 0 0-1.206-.777.208.208 0 0 0 0-.088c-.036-.12.137-.17.224-.034l.172-.015.034-.154-.24-.187h-.19s-.02.136-.14.086c-.12-.053-.05-.035-.155-.053-.095-.015-.076.173-.058.26a10.372 10.09 0 0 0-.817-.367 10.642 10.642 0 0 0-3.74-.748v-1.498c.112.002.16-.04.173-.085.017-.07.035-.087.14-.105.102-.016-.02-.22-.123-.204a.215.215 0 0 1-.19-.055v-.775a13.53 13.53 0 0 1 4.76.936l.152-.373c-1.543-.608-3.2-.94-4.913-.964zm2.895.715l-.165.1-.11-.068-.055.087.138.084.027.017.028-.016.19-.12zm.79.41l-.14.108-.087-.087-.073.074.12.12.034.032.035-.028.173-.138zm-16.664.084c-1.72.652-3.563 1.317-4.678 3.033-.653 1.003-.747 2.192-1.262 3.23.952-.872 2.06-1.514 2.866-2.55.97-1.248 1.812-2.635 3.074-3.713zm25.548 0c1.262 1.078 2.105 2.465 3.074 3.712.807 1.037 1.914 1.68 2.866 2.55-.514-1.037-.61-2.226-1.262-3.23-1.115-1.715-2.96-2.38-4.678-3.032zm-10.078.21c-.087-.008-.2.028-.21.07-.017.07-.12.086-.12.086l-.397.034c-.037.103-.243.17-.26.103-.04-.15-.26.187-.035.255.224.07.45 0 .45 0l.05-.102.864.017c.07-.068.103-.17.103-.17s.207-.07.293-.035c.087.035.018-.238-.068-.204-.086.033-.26.017-.26.017h-.31c-.007-.045-.05-.066-.102-.07zm-1.54.344l-.226.085-.24.154-.26.034-.14.155.554.05.104.17.398.036.26.256c.223.068.275-.034.137-.153l-.225-.222v-.187l-.07-.07-.07-.237zm-1.364 1.642v2.72a10.333 10.05 0 0 0-4.346 1.02c-.984.467-1.88 1.08-2.662 1.81l-1.98-1.928c1-.944 2.127-1.713 3.342-2.297a13.43 13.43 0 0 1 5.646-1.325zm-17.2.08c-.878.217-1.614.77-2.27 1.477-1.374 1.48-1.255 3.667-1.072 5.618.057.6.026 1.115-.044 1.732.416-.83 1.097-1.62 1.897-2.208 1.787-1.314 3.743-3.01 3.77-5.243-.59 1.606-2.39 2.27-3.587 3.37a5.45 5.45 0 0 0-1.4 2.004l-.045-.032c.15-.642.43-1.226.62-1.847.522-1.7.43-3.733 2.13-4.87zm34.818 0c1.7 1.137 1.61 3.17 2.13 4.87.19.622.47 1.206.62 1.848l-.045.033a5.45 5.45 0 0 0-1.4-2.004c-1.197-1.098-2.997-1.763-3.588-3.37.027 2.233 1.982 3.93 3.77 5.243.8.587 1.48 1.378 1.897 2.207-.07-.617-.1-1.13-.045-1.732.183-1.95.302-4.137-1.07-5.618-.658-.708-1.394-1.26-2.27-1.478zm-9.38.338c-.142-.002-.346.09-.326.192.018.086.087.17.225.205l.26.085s.322.37.31.187c-.035-.512-.277-.53-.363-.63-.022-.026-.062-.038-.108-.04zm-5.42.205l-.07.154.096.04.07-.153zm.323.168c-.013-.01-.106.127-.175.16.084.04.195.103.195.103.137 0 .225.103.225.153 0 .052.19.035.19.035l.016-.12-.138-.17-.12-.084s-.19-.018-.19-.07c0-.002 0-.004-.003-.005zm-.752.11l-.01.1.148.016.108.166.086-.055-.12-.187-.014-.02-.025-.003zm-3.994.427c-.094.003-.18.02-.174.05.017.085.154.187.154.187s.26.018.277.07c.018.05.19.067.208.016.02-.05.087-.153-.068-.153-.156 0-.12-.085-.173-.137-.027-.025-.13-.036-.224-.033zm13.775.17a16.175 16.175 0 0 1 3.54 5.263 15.81 15.81 0 0 1 1.21 5.888h-3.088a12.903 12.903 0 0 0-1.24-5.335c.03-.09.082-.187.194-.153.173.05.052-.375.052-.375s-.24-.17-.224-.256c.017-.087-.243-.257-.225-.326.016-.07-.225-.204-.21-.273.02-.067-.12-.255-.12-.255l-.258-.238-.036-.154-.206-.017-.415-.495.017-.135-.12-.017v-.187l-.122-.068-.19-.017-.38-.41-.035-.187h-.19l.028-.29zm-9.387 0v.153l.19.017-.05-.137zm-14.538 0l2.188 2.13a13.695 13.322 0 0 0-2.51 3.493 12.876 12.876 0 0 0-1.338 5.53h-3.09c.03-2.454.62-4.82 1.705-6.963a16.75 16.294 0 0 1 3.045-4.19zm15.382.796c-.02.002-.033.01-.033.022 0 .05.07.05.104.153.035.102.017.273.173.308.157.034.19.067.21.136.015.068.206.085.206.085l.138.07.415.34v-.137s-.02-.137-.105-.137c-.087 0-.24-.102-.207-.17.034-.068-.294-.136-.294-.136s-.293-.273-.19-.24c.103.035.05-.12.05-.12s-.205.036-.257.018c-.052-.017-.036-.17-.036-.17s-.115-.03-.173-.022zm-9.5.124l-.072.072.103.102.074-.072zm-14.957.703c-.044-.008-.07.026-.103.043-1.186 1.47-1.977 3.083-1.977 5.057 0 2.44 1.443 4.144 1.622 6.436.372-2.39 2.436-4.09 3.504-6.194.417-.82.676-1.746.79-2.65a2.877 2.877 0 0 1-.722 1.045c-1.39 1.28-3.025 2.543-3.34 4.356-.044.26-.067.526-.145.777-.062.025-.062-.042-.088-.06l.173-2.248c.168-2.19-1.02-4.63.285-6.562zm42.08 0c1.306 1.933.117 4.37.285 6.562l.172 2.25c-.025.016-.025.083-.087.058-.077-.25-.1-.518-.144-.777-.315-1.813-1.952-3.075-3.34-4.356a2.96 2.88 0 0 1-.723-1.044c.115.903.374 1.828.79 2.65 1.07 2.103 3.133 3.802 3.504 6.193.18-2.292 1.623-3.995 1.623-6.436 0-1.974-.79-3.586-1.977-5.057-.034-.017-.06-.05-.104-.043zm-21.248.002v3.005a6.87 6.683 0 0 0-2.723.63 6.938 6.748 0 0 0-1.812 1.2l-2.186-2.127a9.978 9.705 0 0 1 2.562-1.74 10.178 10.178 0 0 1 4.158-.968zm.413 0c1.25.026 2.462.273 3.588.722.31.124.61.262.906.416a.15.15 0 0 0 .053.028c.488.257.955.554 1.396.89v.003c.017.12.155.17.155.17l.078.01c.055.046.11.09.164.137v.145c.12-.03.307.11.34.224l-2.147 2.09a6.916 6.916 0 0 0-2.076-1.314 6.888 6.7 0 0 0-2.46-.514zm-9.695.784l1.982 1.927a10.426 10.14 0 0 0-1.95 2.775v-.002a10.344 10.062 0 0 0-.957 4.044h-2.798c.03-1.88.473-3.692 1.285-5.342a12.86 12.86 0 0 1 2.438-3.402zm17.65 1.288c.24.138.42.456.39.516-.034.067.207.05.207.05.036-.306.33-.204.346-.102.018.103.07.325.07.325l.085.152.122.12.19-.016.052.1.225.035s.19.204.206.256c.018.05.277.035.347.05.068.02.172.07.19.155.016.086.12.223.12.223s.207.05.225.12c.018.067.104.22.104.22l.17.137.018.153.19.018.052.204.31-.017.175-.12c.053-.027.1-.057.145-.088a12.494 12.494 0 0 1 1.108 4.962h-2.796a9.99 9.99 0 0 0-.134-1.426c.018-.068.027-.128 0-.154-.05-.05.053-.29.053-.29s.07-.136 0-.273c-.07-.136.018-.29.07-.36l-.14-.066-.137-.017-.105.017a11.714 11.714 0 0 0-.102-.324l.087.016v-.103l-.126-.034c-.024-.07-.05-.142-.077-.212l-.022-.35-.12-.085.034-.137-.138-.05.07-.223-.122-.238h-.175c-.083-.162-.17-.322-.262-.48a.55.55 0 0 1 .21-.06l-.016-.176-.156-.1-.052-.207s-.19.035-.172.137c.004.023-.01.04-.03.054a10.236 9.957 0 0 0-.382-.554l.014-.03c.07-.118.034-.186-.086-.22-.122-.035-.122-.035-.156-.17-.035-.138-.173-.172-.173-.172l-.052-.204-.13.078a8.924 8.924 0 0 0-.208-.228l.063-.192a.158.158 0 0 1-.123-.09zm-11.1.408l-.067.078.104.085.065-.078zm-.397.073l.018.19h.26c.104 0-.086-.12-.086-.12s-.207.015-.19-.07zm11.49.03l-.1.012.015.153.104-.01zm-15.373.408l2.186 2.127a6.93 6.74 0 0 0-1.138 1.58c-.077-.002-.15.013-.17.07-.053.135-.277.102-.277.102l-.034.067-.173.034-.034.102-.21.034.52-.017c.138-.017-.052.29-.14.273l-.24.017-.087.085h-.225l-.103.137-.328-.017s-.19.153-.173.205c.017.05-.035.204-.087.204-.052 0-.155.154-.12.205.034.05-.104.222-.104.222l-.035.17-.104.035v.46l-.207.135v.206l-.095.1h-1.405a9.468 9.468 0 0 1 .904-3.854 9.735 9.735 0 0 1 1.88-2.683zm14.4.034c.074.065.067.093.162.16a.203.203 0 0 0 .096.04c.057.06.113.12.167.183l-.04.05c0 .196.096.14.19.124l.083.102c.01.113.01.275.195.252h.005c.222.29.426.592.612.904l.005.017h.006c.03.048.06.1.088.15-.037.034-.058.07-.058.07l-.277.034v.273l-.138.05.017.172.19-.018s0 .205.052.12c.052-.086.484.016.45.22-.015.085.43.308.38.58a.237.237 0 0 1 .087.03c.084.235.158.47.222.712l-.032.06s.027.02.063.054c.054.21.1.423.14.636-.014.187-.057.365-.152.42-.206.12.018.05.018.05l-.034.376c.052.17.137.085.19 0a.425.425 0 0 1 .086-.1c.027.258.043.517.05.778h-2.09l.035-.046.087-.24.294-.084.034-.22-.155-.02s.173-.306.26-.306c.085 0 .656 0 .707-.035.052-.033.156-.306.156-.358 0-.052.138-.07.19-.085.052-.018.173-.154.207-.223.035-.07-.085-.495-.155-.427-.068.07-.224.103-.224.103l-.052.188-.087.067s.018.052 0 .17c-.017.12-.172.19-.172.19l-.07.084s-.416.022-.465 0c-.156-.07-.052-.273.05-.256.104.02-.016-.29-.016-.29l.138-.016s.017-.307.07-.307c.05 0-.018-.102-.088-.153-.07-.052-.156-.222-.224-.205-.07.016-.346 0-.346 0l-.052.102-.19.033s.016.133-.017.17c-.104.12-.5.376-.33-.05l.053-.103v-.153l-.31-.017s-.156-.052-.156-.12c0-.07-.017-.153-.017-.153l-.364-.393-.43-.05-.034-.086-.26-.033a.625.608 0 0 0-.112-.044 6.782 6.597 0 0 0-.395-.55c-.005-.012-.01-.028-.012-.038-.015-.06-.206-.32-.31-.332l-.116-.127zm1.7.21c-.023 0-.035.018-.035.052 0 .068.086.102.052.187-.035.085.034.154.104.154.07 0 .12.035.19.07a.49.49 0 0 1 .173.153l.173-.052s.018-.17-.052-.118c-.07.05-.12-.12-.19-.102-.07.017-.103-.068-.173-.154-.068-.085-.05-.102-.137-.154-.043-.025-.078-.038-.102-.036zm-9.088.172v2.725c-.367.02-.72.092-1.05.208h-.005l-.018-.188.087-.05-.14-.052-.102.136-.035.153-.173.033v.086h-.12v.1a3.69 3.59 0 0 0-.707.485l-1.982-1.93a6.51 6.51 0 0 1 1.71-1.127 6.472 6.296 0 0 1 2.534-.58zm.413 0c.804.024 1.584.19 2.308.486.708.288 1.362.7 1.936 1.224l-.113.11c-.057-.056-.245-.09-.245-.15 0-.068-.172-.154-.155-.05.017.102-.12.152-.155.12-.035-.036-.14.1-.14.1 0 .05-.033.12.07.137.105.018.294-.067.312.035.006.034.01.064.02.092l-.686.665c-.09.004-.18-.008-.18-.008-.052.154-.295-.016-.226-.12.07-.1.07-.17.07-.17l-.087-.016-.104.187c-.24 0-.31.136-.257.22.05.087-.07-.015-.104.104-.036.12.016.12.12.17.103.052-.053.052.017.137.044.054.143.04.18.052l-.132.13c-.12.034-.256.006-.256.006a.098.098 0 0 1-.052.076 3.668 3.568 0 0 0-.91-.537c.053-.038.14-.037.184-.152.07-.188.104-.495.104-.495s-.277-.017-.295.068c-.015.086-.188.138-.188.138s-.138.05-.086.12c.052.068-.104.1-.104.1s.01.047.005.09a3.743 3.743 0 0 0-.852-.142zm9.193.578l-.207.017c.053.068.157.12.157.188s-.036.12.068.137c.104.016.173-.017.208.068a.56.56 0 0 1 .017.29c-.017.067.017.17.104.17.086 0 .104.017.104.068 0 .052.103-.188.103-.188a.706.706 0 0 1-.154-.22s-.087-.24-.087-.274c0-.035-.122-.07-.173-.085-.052-.018-.14-.172-.14-.172zm-1.647.068l-.172.017.01.1.172-.015zm.11.12v.085h.104v-.084zm-.14.17s-.102.138-.31.07c0 0-.034.323-.137.39h-.242s.053.087.104.138c.052.05.173.153.052.222-.12.068.017.05.017.05s-.017.36-.172.308c-.155-.05-.207.188-.207.256s.614.094.52 0c-.053-.052.067-.17.067-.17s.416.033.502.033c.087 0 .155-.017.103-.102-.052-.085-.207-.066-.207-.066s-.208.05-.398-.052c-.19-.102.036-.137.07-.137.034 0 .19-.12.12-.205-.068-.085 0-.238 0-.17 0 .068.19.102.226.05.034-.05 0-.204-.087-.255-.088-.052.155-.085.086-.17a.69.69 0 0 1-.105-.188zm.347.513v.118h.104v-.12zm.233.058l-.052.104.092.045.052-.102zm1.678.14c-.04.01.035.198-.01.227-.052.035-.087.102-.14.154-.05.05.105.118.105.17 0 .05.035.306.035.306s.12.052.137.12c.018.068 0 .205.052.222.052.017.156.085.122.153-.036.07-.036.206-.036.206l.07.154.138.084s.052-.41-.036-.425c-.086-.018-.05-.258-.05-.258s.086-.324-.053-.324c-.138 0-.034-.17-.12-.22-.087-.053-.036-.29-.07-.36-.034-.068-.034-.153-.12-.204-.012-.007-.02-.008-.025-.007zm-4.195.327l-.173.018.01.102.174-.017zm-2.62.006a.493.493 0 0 0-.107.015l-.276.034-.018.118.19.017s.086.07.086.12c0 .05.122.102.19.102.07 0 .26-.137.26-.137s.087-.238.017-.22c-.07.016-.207.118-.224.016-.008-.05-.064-.065-.118-.065zm-7.907.012l1.692 1.646-.163-.006c-.07.153-.242-.018-.242-.018-.034-.102-.277 0-.277 0 0 .188-.328-.085-.328-.085l-.605-.427c-.345-.307-.864.086-.88.17.008.13-.11.133-.218.11a6.502 6.324 0 0 1 1.02-1.39zm6.8.043l-.103.022.034.154.102-.02zm.566.028l-.38.017.005.102.38-.018zm-3.246.034v.102h.14v-.103zm.89.017l-.014.1.12.018.015-.102zm.223.05l-.016.103.122.017.014-.1zm-1.4.036l-.015.1.122.017.014-.1zm2.844.003l-.052.017.034.096.05-.016zm4.185.042l-.053.12.096.04.052-.12zm-1.284.023a1.767 1.72 0 0 0 .19.04 6.195 6.026 0 0 1 .238.3l-.22-.033-.14-.017-.26-.017c-.258.17-.31.376-.31.376-.118.22-.377-.014-.37-.17l.46-.45a.765.765 0 0 0 .083.006c.104 0 .33-.034.33-.034zm-4.112.034v.102h.138v-.102zm-1.75.02l-.025.1.137.034.026-.1zm-.05.14l-.1.017.017.1.103-.015zm2.054 0l-.103.005.005.12.104-.005zm5.442.044a1.1 1.1 0 0 0-.184.017c-.087.018-.07.085 0 .17l.208-.033s.154-.07.12-.12c-.018-.026-.078-.034-.144-.034zm-1.154.104c.065.088.13.177.19.268a.252.252 0 0 0-.016.157c.052.256.14.36-.034.36-.173 0-.208-.138-.208-.138s-.137-.05-.137.017c0 .068-.05.205 0 .273.052.068-.07.17-.12.12-.053-.052-.19-.205-.156-.256.035-.05-.242-.375.035-.426.275-.05-.02-.205.085-.238l.138-.07h.14zm-28.84.065c-.276.567-.388 1.206-.534 1.823-.308 1.597 0 3.29.446 4.758.558 1.835 2.406 3.15 3.342 4.83l.128.1c-.136-.913-.206-1.896.06-2.767.404-1.395.91-2.75 1.178-4.196.207-1.122.445-2.382.31-3.47-.156.586-.315 1.166-.646 1.664-1.257 1.894-2.548 4.115-1.668 6.52-.02.025-.05.058-.082.04-.354-.794-.433-1.698-.662-2.55-.61-2.257-2.394-4.142-1.87-6.753zm47.147 0c.523 2.61-1.26 4.496-1.872 6.754-.228.85-.306 1.754-.66 2.55-.033.016-.062-.017-.083-.043.882-2.404-.41-4.625-1.667-6.52-.33-.497-.49-1.077-.645-1.663-.136 1.088.102 2.348.31 3.47.265 1.446.774 2.8 1.178 4.195.265.87.195 1.853.06 2.766l.127-.1c.936-1.68 2.784-2.995 3.342-4.83.446-1.467.754-3.16.446-4.758-.147-.617-.258-1.256-.535-1.823zm-23.608.44l.033.41-.19-.063h-.12l-.053-.102-.104-.018v.375l.105.085.086.085.174.018.035.205.43.017.053.085.26.017.5.494-.035.153-.086.05c.034.12-.225.052-.225.052v.1l.12.02.123.067.172-.29c.19-.12.277.05.293.154.018.103-.086.086-.086.086v.238l.103.035c.173.203-.07.323-.07.323l-.052.17c-.05.154-.24.12-.24.12l-.068.103-.208.05.41.052c.04-.137.143-.17.194-.102.052.067.052.187.052.187l.104.017-.017.187.104.034v.547l.12.137c.208-.085.208.05.105.12-.104.068-.035.374-.035.374l-.086.086v.137l-.104.068v.188c-.173-.085-.38-.05-.433 0-.154-.103-.483-.068-.483.018.104.136-.12.17-.12.17l-.122.136c.087.17-.085.188-.085.188v.325l-.208.187.01.3a3.32 3.32 0 0 1-2.496-.782.087.087 0 0 0 .032-.03c.086-.136.224-.154.224-.154l.052-.12.467.018c.033-.188.258-.12.258-.034s.172.017.172.017l.12-.187h.19l.02-.205.085-.05v-.308c.276-.085.242-.342.242-.342l.07-.085-.036-.12c-.137-.05-.068-.17.02-.136.085.035-.122-.153-.122-.153-.103.085-.19-.103-.19-.103h-.26v-.24l-.034-.22-.26-.12-.19.17-.034.24v.152l-.173.034-.034.46-.138.05.017.172-.19.05-.19.052-.034.222-.14.086-.068.204-.084.483a3.282 3.193 0 0 1-.592-.83 1.19 1.19 0 0 0 .037-.233c-.154-.07-.068-.308.104-.102.173.204-.103-.41-.103-.41l-.138-.12-.178-.015a3.402 3.31 0 0 1-.04-.502c0-.07.002-.14.007-.21.05-.048.11-.023.11-.023l.102.086.156.12.018.102-.104.05-.018.138.052.187h.138c.052-.273.415-.273.52-.102l.103-.24c-.242-.118-.004-.306.065-.22.068.085.228-.223.228-.223s.122.154 0-.05c-.12-.205.086-.308.086-.308-.034-.205.225-.17.225-.17l.02-.273-.244-.018c-.05.24-.258.035-.154-.017.104-.05.206-.154.206-.154v-.17l.104-.035.017-.17h.26l.223-.102.052-.085.243-.017.345-.307-.035-.138c-.206 0 0-.153 0-.153l.035-.256h-.19l-.034-.362c.234-.055.477-.083.725-.086zm10.523.99l-.018.137.103.013.018-.136zm-.064.46l-.052.103.092.045.052-.102zm-17.932.678c.163-.01.284.077.284.077l.242-.016c.06.038.1.084.125.13-.02.16-.036.32-.046.48-.025.044-.045.07-.045.07-.02.032-.03.08-.037.136h-.657l.003-.015-.19-.017c-.207-.12-.103-.563-.103-.563.144-.21.297-.275.425-.282zm6.003.316l-.034.085h-.086l-.017.136h.104l.018.103-.07.068-.034.087-.138.034-.312.29-.016.137-.087.12-.103.256-.362.016-.07.307.052.255.31.12.036-.17.103-.052.018-.17.068-.12.105-.12.034-.136.174-.102.207-.034.088-.102.035-.205.012-.152.074-.103.206-.085v-.324h-.103l-.018-.12zm10.842.103l-.017.1.19.034.02-.1zm-.432.147l-.05.03-.13.07-.112-.07-.054.087.137.085.026.016.026-.014.103-.058.013.03.096-.036-.034-.086zm-1.33.71h2.423a9.928 9.657 0 0 1-.854 3.733 10.032 9.758 0 0 1-1.915 2.782c-.034-.343-.114-.72-.114-.72l-.138-.068.034-.41h-.19l-.31.393-.035.108-.177-.173.09-.09-.017-.204.12-.1v-.17l.105-.035.017-.376.086-.018v-.82l-.258-.237c-.017.085-.294.085-.294.085s-.068.12-.12.12c-.052 0 .07.153.034.255-.034.102-.173.102-.173.102l-.26.07-.07.083h-.275l-.023-.148.082-.1.217-.06.174-.084.086-.17c.018-.17.225-.153.225-.153s.397-.325.414-.478c.017-.153.155-.58.397-.58h.45c.172-.07.12-.29.12-.29l.224-.035.037.12s.31.034.345-.016c.035-.052.104-.17.19-.12.086.05.363-.12.363-.12.017-.12.45-.068.45-.068l.05-.153s-.292-.393-.344-.393c-.05 0-.328-.238-.362-.153-.277-.07-.26-.445-.26-.445l-.103-.24c0-.135-.26-.426-.312-.39-.108-.08-.135-.163-.13-.236zm2.836 0h2.798a12.475 12.475 0 0 1-1.24 5.234 13.247 12.886 0 0 1-2.487 3.505l-.075-.076-.024-.43-.086-.085-.017-.428c.07-.223-.328-.546-.363-.477-.034.067-.26.016-.26.085 0 .067-.137.41-.068.528.004.006.005.013.008.02l-1.086-1.06a10.112 10.112 0 0 0 2.004-2.89 10.374 10.09 0 0 0 .9-3.93zm3.21 0h3.09a15.795 15.795 0 0 1-1.665 6.87 16.792 16.334 0 0 1-3.09 4.276l-2.178-2.12a13.254 13.254 0 0 0 2.562-3.595h-.002a12.887 12.887 0 0 0 1.283-5.43zm-23.623 0h1.212l.01.097-.258.273.034.273-.155.05-.034.12-.068.36.172.016c.086-.035.07.22 0 .255-.07.033-.26.102-.156.17.104.07-.276.05-.276-.05 0-.103-.207-.19-.26-.154-.03.02-.07-.034-.1-.083a9.496 9.496 0 0 1-.12-1.326zm1.785 0h.087c.043.01.077.03.077.03l.242.016.023-.045h.822l.07.438-.226.187c-.19.103-.19.342.017.393.138.017.086.34-.12.12-.312 0 .172.272.033.204.312.154.242-.137.242-.137l.156-.122a6.956 6.766 0 0 0 .275.982 6.656 6.656 0 0 0 1.48 2.348l-2.183 2.125a9.905 9.635 0 0 1-.41-.442c.027-.106.095-.216.095-.216.225-.137-.052-.358-.052-.358.035-.205-.12-.444-.12-.444-.31-.205-.226-.598-.226-.598v-.273c-.26-.238.104-.273.104-.273.122-.204-.085-.358-.085-.358l-.018-.22-.276-.035-.034-.8-.62-.87c-.123-.035-.037-.24-.037-.24.155-.085-.035-.29-.035-.29l-.018-.375.363-.034.087-.135h.173l-.018-.444c.033-.08.08-.117.13-.13zm4.322 0h.197c.007.12.02.24.04.356l-.108.03-.035-.067-.052.186h-.31l-.018-.204.19-.052.07-.102zm5.12.234c-.028-.004-.06.017-.086.085v.22s.242.375.33.427c.085.05.224-.062.137-.12-.26-.17-.24-.392-.31-.545-.015-.034-.04-.063-.07-.068zm-9.035.152l.016.12h.087c.137.24.016.82.016.82s-.208.016-.243-.086c-.034-.102-.12.22-.05.273.068.05.31 0 .327.188.017.188.155-.12.155-.12v-1.16zm8.31.343l-.312.22c.156.018.173.172.19.24.038.148.035-.24.103-.222.07.016.02-.24.02-.24zm-6.912.138c.146.05.312.28.312.32 0 .052.69.017.69.017.19.12.26.427.26.427.19-.24.587-.017.293.12.276.17.276.323.276.323.224-.068.225.103.225.154 0 .05.068-.257.068-.257-.258-.188.346-.256.173.085l-.104.153.174.138.016.392c.38-.033.277-.494.277-.494l.17-.035c0-.152.123-.066.123-.066-.084-.404.08-.574.19-.64.137.248.306.483.504.698l-1.98 1.927a6.288 6.288 0 0 1-1.373-2.163 6.546 6.368 0 0 1-.296-1.1zm15.65.397c-.14-.01-.324.094-.272.163.104.136.277.068.345.085.07.017.14.05.07-.153-.02-.065-.077-.09-.14-.095zm-16.428.24a.074.072 0 0 0-.074.073c0 .04.034.072.074.07a.074.072 0 0 0 .073-.07.074.072 0 0 0-.073-.073zm-.19.23l-.26.17-.172-.102v.41l.277.357.103-.24.035-.152-.12-.05.015-.257.105-.016zm6.393.426l-.155.018.017.24.103.084.19.05s.26-.068.277-.272l-.397-.017zm2.178.13c.146 0 .116.342.107.456-.103.043-.207.08-.315.114v-.375l.173-.188a.125.125 0 0 1 .036-.006zm-3.66.197c.604.526 1.354.84 2.157.904v.007s-.064.154.013.18c.01.003.012.006.02.008.05.02.036.034.07.068l-.038.09-.008-.007c-.06-.06-.095.073-.057.11.04.038-.09.013-.09.064 0 .05-.04.076 0 .102.038.025-.014.04-.066.077-.05.037.222.05.222.05s-.052-.103.012-.103h.03v.17c-.025-.005-.047-.008-.073-.016v.12l-.137.018.12.135.09.01v.28l-.003.018c0 .222-.57.068-.62.018l-.02.307-.103.016.018.207-.018.29.19-.035v.12l.467.017.09-.094v.315l-.004.017-.312.035-.137.07-.05-.105h-.14l-.084.117a6.565 6.386 0 0 1-1.197-.282 6.502 6.502 0 0 1-2.32-1.366zm-16.47.166c.233 1.487-.373 2.8-.513 4.212a6.19 6.19 0 0 0 .557 3.266c.137.29.387.552.456.847-.448-.393-.765-.894-1.073-1.38-1.444-2.274-4.473-3.753-4.68-6.52-.103 1.23.006 2.536.428 3.63.587 1.517 1.713 2.684 3.012 3.68 1.343 1.028 2.945 1.832 4.168 2.737-.24-.592-.632-1.14-.79-1.764-.72-2.826-.32-6.093-1.564-8.707zm37.88 0c-1.246 2.614-.844 5.88-1.564 8.707-.16.625-.55 1.172-.79 1.764 1.222-.905 2.824-1.71 4.167-2.738 1.3-.995 2.425-2.162 3.01-3.68.423-1.093.533-2.4.43-3.63-.207 2.768-3.236 4.247-4.68 6.52-.308.487-.625.988-1.073 1.38.07-.294.32-.556.456-.845a6.2 6.2 0 0 0 .557-3.265c-.14-1.413-.746-2.725-.514-4.212zm-15.06.06c.045 0 .077.02.057.08-.052.153 0 .22 0 .22.225-.204.415.017.398.07-.018.05.12.1.206.05.09-.05.192.153.157.255-.034.103-.345.086-.362-.016-.018-.103-.07-.07-.104-.017-.03.043-.145.074-.232.05l-.074-.07c.007-.02.024-.038-.004-.066-.025-.025-.055-.026-.09-.026l-.157-.153c.002-.104.033-.238.022-.28-.01-.043.107-.1.184-.098zm-11.242.062l-.12.017-.02.136.14.018zm21.596.148a.473.473 0 0 0-.205.074l.056.085c.067-.043.152-.064.172-.055-.002 0-.004-.004-.005-.006l.103-.015a.095.093 0 0 0-.057-.072.142.14 0 0 0-.066-.01zm-21.548.172a.072.072 0 0 0 0 .145.072.072 0 0 0 0-.145zm8.616.082a.298.298 0 0 0 .026.092l.087.033-.156.12-.14.153-.172-.05-.207-.017-.068-.12-.12-.018-.02.24-.085.1-.207.206c.217 0 .072.114-.034.164v-.683c.223-.013.443-.044.657-.094l.033.032h.156l.01-.083c.08-.023.16-.05.24-.078zm-8.496.276a.074.072 0 0 0-.074.073c0 .04.033.073.074.073a.074.072 0 0 0 .073-.074.074.072 0 0 0-.074-.073zm6.532.054c-.087-.004-.16.26-.195.326 0 0 .04.14.116.13.077-.014.13-.053.193-.066.065-.012.092-.115.117-.217.026-.103-.026-.154-.026-.154s-.065.103-.168 0a.066.066 0 0 0-.038-.02zm-6.856.138l-.147.016v.122l.147-.018zm10.4 0h.122l.018.085.528.05.025.002c.207.12.103.273.034.306-.07.034-.19.034-.19.034l-.036.07-.45.033-.034.17c-.224-.034-.31.205-.26.324.053.118 0 .22 0 .22l.19.086.243-.067c.035-.172.19-.207.328-.31.14-.1.365.188.295.325a1.203 1.203 0 0 0-.02.042 6.432 6.257 0 0 1-.83.472 6.417 6.242 0 0 1-1.447.488l-.02-.013-.19-.052-.015-.255c-.035-.17-.363-.17-.347-.05.018.118-.616.05-.62.05v-.47l.172-.18.397-.084c.035-.17.207.035.207.035.173-.02.208.1.208.1l.225.035c.19.052.075.07.086.137.018.102.105.067.105.067l.034-.222.103.017-.104-.12-.19-.085-.21-.085c-.137-.188.036-.154.175-.137h.224s.26.34.26.427c0 .085.12.102.12.102l.155-.017.052.12h.155l.052.1h.31l.02-.15-.295-.053-.02-.17-.206-.052c-.07-.29.052-.374.138-.238l.103.016-.034-.255.122-.035-.035-.358-.103-.034v-.118l.432.017c-.035-.223.017-.325.017-.325zm12.506.78l-.093.044a.19.19 0 0 1 .017.07c.002.03.005.064.035.085.018.014.042.018.07.013l-.02-.1c.01.002.02.01.02.016 0-.003 0-.015-.002-.024a.268.268 0 0 0-.027-.106zm-.1.188l-.1.025c.025.104.064.206.066.21l.097-.036s-.038-.1-.062-.2zm-8.11.1v.323h.12v-.324zm-3.734.083l-.14.085.057.088.14-.086zm11.263.234c-.008.08.01.18.093.197l.02-.1h.002c-.008-.008-.016-.048-.012-.087zm-.058.19c-.032.003-.074.036-.11.058-.105.064-.066.32 0 .256.063-.064.14 0 .155-.192.006-.096-.015-.124-.046-.12zm-10.743.133l.41.203c.052.068.276.05.276.05l.07.087s.138-.018.224.085c.087.102.536.017.536.017l.12.102.19.07.32.01.2.193c-.313.138-.946.09-.986.05-.052-.05-.414-.204-.414-.204s-.276-.22-.328-.154c-.052.07-.294-.084-.294-.033 0 .05-.224-.12-.224-.12l-.345-.12.26-.05-.042-.168c.01-.006.02-.012.03-.02zm-18.77 1.004v.17h.14v.222h.103l-.017-.256-.14-.05v-.087zm25.242.086l-.015.154.17.01.012-.14zm-.14.36l-.034.098c.01.004.02.01.032.017l.022.09a.54.54 0 0 1-.023.028l.076.07c.055-.06.076-.118.062-.175-.023-.087-.124-.122-.135-.126zm-3.022.304l.76.74c-.035.126-.154.198-.222.148-.07-.052.087.085.12.154.036.066.14.066.174 0 .023-.048.023-.13.032-.202l.35.342c-.045.088-.09.177-.07.234l.155.067.017.292c.116.115.377.11.586.076l.07.07a13.232 12.872 0 0 1-2.092 1.605v-.164c.312-.223.33-.616.036-.65-.224-.025-.12-.256.086-.29l.12-.05v-.155l.398-.357v-.273l-.863-.7c-.177-.063-.188-.272-.126-.477.158-.132.315-.268.468-.41zm-21.216.035l.122.307.07.153.137.187.19.17.07-.12-.12-.255-.122-.086-.087-.24zm-3.378.25c1.05 2.04.596 4.67 1.958 6.595.425.6 1.02 1.177 1.57 1.662l-.025.024c-.498-.225-.947-.563-1.4-.93-2.383-1.926-5.966-2.172-7.392-5.312.387 2.305 2.27 4.347 4.3 5.64 1.932 1.232 4.408 1.095 6.553 1.784-1.982-1.556-2.283-3.892-3.167-5.938-.548-1.272-1.443-2.417-2.396-3.527zm34.752 0c-.954 1.11-1.848 2.254-2.398 3.526-.883 2.046-1.184 4.382-3.166 5.938 2.146-.69 4.62-.552 6.553-1.783 2.03-1.294 3.912-3.336 4.3-5.64-1.426 3.14-5.01 3.385-7.39 5.312-.455.366-.904.704-1.402.93l-.026-.026c.55-.486 1.145-1.062 1.57-1.663 1.363-1.925.91-4.555 1.96-6.596zm-27.105.737c.154.002.357.17.38.24a.34.34 0 0 0 .117.127l-.256.25c-.16-.163-.315-.328-.467-.496h.072c.027-.09.086-.123.156-.12zm10.144.94a.8.8 0 0 1 .09 0 .583.583 0 0 1 .288.085c.19.136.45.05.45.05l.19.227c-.402.056-.81.09-1.226.1v-.405a.415.415 0 0 1 .208-.057zm9.073.245l2.18 2.12a16.792 16.792 0 0 1-4.144 2.878 16.988 16.988 0 0 1-7.317 1.746v-3.006a13.604 13.233 0 0 0 3.67-.543l.303.09.085.273.138-.017.104-.085.415-.016.208-.188.224-.033 1.63-1.348a13.61 13.61 0 0 0 2.503-1.87zm-7.85.495l.037.08.294.084.207.05.07.29.154.017.05.19c.19.136-.05.426-.05.426v.375l.137.07-.017.137.225.22.26.018.428.446a13.11 12.753 0 0 1-3.227.443v-2.72c.483-.01.96-.05 1.43-.123zm-4.177.278l-.104.085-.05.042.053.04.12.084.06-.083-.067-.048.053-.043zm1.23 1.22l-.045.093.108.054-.036.035.074.072.087-.086.05-.05-.063-.032zm-8.75.866l.14.205.017.153.173.05.07.102.12-.067-.086-.223-.225-.187zm-3.89.19c1.297 1.697 1.666 4.162 4.035 5.03.42.154.9.18 1.263.403-.457.068-.856-.07-1.28-.157-3.053-.632-6.78.182-9.068-2.35.868 1.655 2.655 2.96 4.372 3.51 2.66.856 5.433-.097 7.933-.7.36-.087.798-.06 1.132-.178-1.392-.275-2.734-.686-3.812-1.644-1.547-1.377-2.918-2.843-4.574-3.913zm27.898 0c-1.655 1.07-3.026 2.537-4.574 3.914-1.077.958-2.42 1.37-3.812 1.644.335.12.772.09 1.133.178 2.5.603 5.272 1.556 7.933.7 1.717-.55 3.504-1.855 4.372-3.51-2.287 2.532-6.015 1.718-9.068 2.35-.424.088-.823.225-1.28.157.363-.224.844-.25 1.263-.403 2.37-.868 2.738-3.333 4.033-5.03zm-16.462 5.493c-2.343 0-4.436 1.1-6.492 1.93-1.86.75-4.326.603-5.973-.502.816.995 1.907 1.607 3.033 2.023 2.092.812 4.535.19 6.315-.918 1.283-.798 2.383-1.928 3.91-1.928.27 0 .54.03.814.086.3-.117.6-.222.908-.312a8.924 8.924 0 0 0-2.514-.38zm2.514.38c.307.09.61.194.91.31.27-.055.542-.085.812-.085 1.527 0 2.627 1.13 3.91 1.928 1.78 1.107 4.223 1.73 6.315.918 1.126-.416 2.216-1.028 3.03-2.023-1.645 1.105-4.113 1.253-5.972.502-2.055-.83-4.148-1.93-6.49-1.93-.853 0-1.695.14-2.515.38zm.91.31a5.33 5.33 0 0 0-.91.277c1.918.762 3.842 2.61 5.538 4.315.342-.27.705-.56.985-.872-1.52-1.413-3.47-2.884-5.614-3.72zm-.91.277a5.33 5.33 0 0 0-.908-.276c-2.145.836-4.094 2.307-5.614 3.72.28.312.642.603.983.87 1.698-1.705 3.622-3.552 5.54-4.314z" fill="#fff"/><path d="M-127.528-198.102c.063-.07.773-.323.908-.312.157-.004.91.274.91.312-.016.064-.813.29-.91.276-.052.003-.904-.242-.908-.276z" fill="#fff"/><g><path d="M0 0h135.467v90.31H0z" fill="#418FDE" fill-rule="evenodd"/><path d="M67.733 22.58c-2.99 0-5.817.713-8.323 1.972a18.73 18.73 0 0 0-8.367 8.424 18.498 18.498 0 0 0-1.914 8.207c0 1.802.257 3.562.748 5.244l.44-.11a18.218 18.218 0 0 1-.735-4.91h3.354c.02 1.406.237 2.78.634 4.09l.437-.11c-.39-1.275-.6-2.61-.622-3.98h3.038c.01.448.045.89.105 1.326-.21.027-.41.096-.41.096l-.095.304c-.205.038-.337.38-.337.38-.168.058-.3.268-.244.324.056.058-.094.077-.094.077v.42l-.093.132.018.457c.113 0 .094.21.094.21-.187.018-.15.267-.15.267l-.394.134-.075.114-.488-.02-.13.134h-.002c-.042-.124-.08-.25-.12-.374l-.435.11c.013.044.028.087.042.13h-.556l-.038-.094-.188-.04-.02-.21-.28.02-.056.115-.3.018c.017.19-.3.476-.338.4-.04-.076-.245-.286-.15-.323.093-.04.337-.077.337-.077v-.133l-.694-.02-.076.116-.28.02v.303l-.132.04c-.095.056.018.265.018.265.13.133-.018.343-.018.343-.113.115.093.325.093.325.15.038-.093.153-.093.153.037.19.15.247.15.247-.113.19.075.286.075.286l.02.325.13.075v.21l.074.133h.3l-.017-.476c-.263-.305.224-.38.244-.266.02.115.226.172.226.172.038.286.356.456.45.172.094-.287.17-.115.225.018.058.133.413.457.413.457h.283l.037.267c.32-.02.413.02.544.456a.83.83 0 0 0 .488.553l.263-.02c0-.23.263.04.263.153 0 .113.508.55.508.55l.505.115.094.076c.312.394.642.774.997 1.14l-2.373 2.37a18.06 18.06 0 0 1-4.422-7.543l-.44.11a18.497 18.497 0 0 0 4.702 7.912 18.637 18.637 0 0 0 5.13 3.64l.224-.397a18.14 18.14 0 0 1-4.876-3.406l2.372-2.372a14.775 14.775 0 0 0 4.16 2.846l.22-.392a14.35 14.35 0 0 1-4.063-2.77l.442-.44a.454.454 0 0 1 .048.16c.038.286.168.23.168.23l1.07-.02.377-.323.957-.02c.488-.02.187-.686.094-.686-.056-.044-.067-.133-.06-.232.764.587 1.59 1.07 2.465 1.442l.22-.39a10.83 10.83 0 0 1-2.8-1.72l-.508-.474 2.364-2.364a7.466 7.466 0 0 0 3.408 1.842c-.048.04-.074.08-.062.106.037.095-.15.19-.15.19l-.17.057-.113.172-.225.074-.04.4-.11.077v.172l-.133.04v.093l-.187.02.113.285.15.077c.263.037.15.36.15.36l.15.02.076.21.15.304c.055.23.225.173.3.153.075-.018.15.23.15.23l.75.02s-.037.074.094.113c.072.02.367.042.623.046v.335a10.82 10.82 0 0 1-3.978-.837l-.222.392c1.316.558 2.735.865 4.2.894v3.037a14.29 14.29 0 0 1-5.7-1.273l-.22.393a14.732 14.732 0 0 0 5.92 1.33v3.354a18.098 18.098 0 0 1-7.575-1.75l-.222.393a18.53 18.53 0 0 0 8.023 1.81c2.96 0 5.814-.693 8.383-1.992a18.657 18.657 0 0 0 4.77-3.457 18.616 18.616 0 0 0 3.593-5.04l-.003-.004a18.52 18.52 0 0 0 1.857-8.114c0-2.432-.466-4.79-1.35-6.978a18.57 18.57 0 0 0-4.1-6.177 18.545 18.545 0 0 0-6.203-4.11v.003a18.57 18.57 0 0 0-6.95-1.34zm-.223.453v3.355c-2.273.034-4.42.586-6.336 1.536a14.852 14.852 0 0 0-3.74 2.644l-2.377-2.377a18.184 18.184 0 0 1 4.557-3.246 18.06 18.06 0 0 1 7.896-1.91zm.447 0c2.285.028 4.502.478 6.562 1.308 2.17.873 4.168 2.17 5.888 3.848l-2.01 2.01c-.068.018-.14.026-.194.003-.13-.055.056-.19.056-.19v-.152l-.113-.114s-.318.038-.337-.018a6.465 6.465 0 0 1-.075-.305l-.02-.323-.13-.057-.02-.114-.206.02v-.23l-.114-.038-.11-.057-.02-.228-.413-.02-.132-.19-.15-.228-.467-.038-.113-.114-.188-.038-.132-.058-.056.096-.357.02-.018.113c-.113.057-.414.054-.652.052a14.71 14.71 0 0 0-1.145-.52l-.164.415c.312.128.62.266.924.415-.02.066-.05.114-.09.114-.095 0-.058.25-.058.25s.245 0 .32.018c.075.018.075.21.075.21.282-.02.395.362.358.456-.038.095.112.095.112.095s0 .304-.038.38c-.037.076.244.134.32.248.074.114-.038.496-.095.515-.055.02.15.075.132.17-.02.096.056 0 .074.154.02.15.056.475.056.475l.263.02c.037-.248.522-.258.6-.23.32.115.564.61.564.725 0 .114-.208.133-.208.133l.008.123-.658.658c-.068-.04-.135-.06-.175-.037-.093.056-.056-.4-.056-.4s.168-.115.243-.057c.075.056-.638-.953-.788-.857-.15.094-.488-.097-.47-.27.02-.17-.675-.742-.675-.742s-.225-.15-.262-.037c-.038.115-.113.192 0 .248.112.058.093-.094.225.04.13.132.376.304.28.418-.093.114-.206.152-.206.152l.132.152h.206l.037.324s.225.114.28.248c.038.087.05.15.037.203a11.197 11.197 0 0 0-1.31-.867.238.238 0 0 0 0-.098c-.04-.134.15-.19.242-.04l.188-.017.037-.17-.262-.21h-.206s-.02.15-.152.095c-.132-.058-.056-.04-.17-.058-.1-.017-.08.193-.06.29a11.265 11.265 0 0 0-.888-.41 11.284 11.284 0 0 0-4.062-.835v-1.673c.122.002.175-.044.19-.095.017-.077.036-.096.15-.115.11-.018-.02-.247-.133-.228a.23.23 0 0 1-.207-.063v-.864c1.8.028 3.547.387 5.17 1.045l.165-.415a14.768 14.768 0 0 0-5.336-1.077zm3.144.798l-.176.114-.12-.076-.06.097.15.095.03.02.03-.02.207-.133zm.86.46l-.15.12-.096-.096-.08.08.132.134.036.037.038-.032.19-.154zm-18.097.094c-1.868.728-3.87 1.47-5.08 3.387-.71 1.12-.813 2.448-1.372 3.605 1.035-.972 2.237-1.69 3.113-2.847 1.054-1.392 1.968-2.94 3.34-4.144zm27.746 0c1.37 1.203 2.285 2.752 3.338 4.144.876 1.158 2.078 1.875 3.112 2.847-.56-1.157-.66-2.484-1.37-3.604-1.212-1.915-3.215-2.658-5.08-3.386zm-10.946.235c-.095-.01-.217.03-.228.078-.02.075-.13.095-.13.095l-.432.038c-.04.115-.263.19-.283.115-.04-.167-.28.21-.036.286.244.077.488 0 .488 0l.056-.113.938.02c.076-.078.113-.192.113-.192s.224-.077.318-.038c.093.038.02-.267-.075-.228-.094.036-.28.018-.28.018h-.34c-.006-.05-.053-.074-.11-.08zm-1.674.383l-.244.094-.262.172-.282.037-.15.172.6.055.113.19.433.04.28.285c.244.076.3-.038.15-.17l-.244-.25v-.21l-.075-.075-.076-.267zm-1.48 1.833v3.038a11.222 11.222 0 0 0-4.72 1.138 11.355 11.355 0 0 0-2.89 2.02l-2.153-2.152a14.338 14.338 0 0 1 3.63-2.565h.002a14.26 14.26 0 0 1 6.13-1.48zm-18.682.088c-.952.244-1.75.86-2.465 1.65-1.49 1.654-1.362 4.095-1.163 6.273.062.67.028 1.245-.048 1.933.452-.925 1.19-1.808 2.06-2.465 1.94-1.465 4.066-3.36 4.095-5.852-.642 1.792-2.597 2.535-3.896 3.76a6.09 6.09 0 0 0-1.52 2.24l-.048-.038c.16-.716.466-1.368.673-2.06.565-1.9.465-4.17 2.313-5.44zm37.815 0c1.848 1.27 1.748 3.54 2.313 5.44.207.693.51 1.345.673 2.06l-.048.04a6.09 6.09 0 0 0-1.522-2.24c-1.3-1.226-3.253-1.97-3.896-3.76.03 2.49 2.153 4.386 4.094 5.85.87.658 1.61 1.54 2.06 2.466-.075-.688-.108-1.262-.048-1.933.2-2.178.33-4.62-1.162-6.273-.714-.79-1.513-1.406-2.465-1.65zm-10.188.378c-.152-.002-.375.102-.352.215.02.096.094.19.244.23l.282.094s.35.415.337.21c-.038-.572-.3-.59-.394-.705-.024-.028-.067-.042-.118-.043zm-5.884.23l-.074.17.102.047.076-.172zm.35.187c-.013-.014-.114.14-.19.175.092.047.213.116.213.116.15 0 .244.116.244.173 0 .057.205.038.205.038l.02-.132-.15-.19-.132-.096s-.206-.02-.206-.076c0-.004 0-.006-.003-.007zm-.816.12l-.01.114.16.016.116.186.094-.06-.13-.21-.016-.024-.027-.002zm-4.338.477c-.103.003-.197.023-.19.056.02.095.168.21.168.21s.282.02.3.076c.02.057.208.075.226.018.02-.057.094-.17-.074-.17-.17 0-.132-.096-.19-.154-.027-.028-.138-.04-.24-.037zm14.96.19a18.078 18.078 0 0 1 5.158 12.452l-3.353-.002A14.756 14.756 0 0 0 81.183 35c.032-.1.09-.208.21-.17.188.057.057-.42.057-.42s-.26-.19-.243-.285c.02-.096-.263-.285-.244-.362.018-.077-.244-.228-.226-.305.02-.076-.13-.286-.13-.286l-.282-.266-.038-.172-.225-.02-.45-.55.018-.153-.13-.018v-.21l-.132-.076-.207-.02-.412-.456-.037-.21h-.206l.03-.322zm-10.196 0v.17l.206.02-.055-.153zm-15.79 0l2.377 2.377a14.874 14.874 0 0 0-2.725 3.902 14.704 14.704 0 0 0-1.454 6.173h-3.355a18.05 18.05 0 0 1 1.85-7.774 18.192 18.192 0 0 1 3.308-4.678zm16.706.89c-.02.002-.035.01-.035.023 0 .058.077.058.114.172.037.114.018.304.188.343.17.038.206.075.225.152.018.076.225.095.225.095l.15.077.45.38v-.153s-.02-.153-.112-.153c-.094 0-.262-.114-.225-.19.037-.076-.32-.152-.32-.152s-.318-.304-.206-.267c.112.038.055-.133.055-.133s-.224.038-.28.02c-.057-.02-.04-.192-.04-.192s-.126-.032-.19-.024zm-10.316.137l-.08.08.113.115.08-.08zm-16.245.786c-.048-.01-.075.028-.112.047-1.288 1.643-2.147 3.442-2.147 5.647 0 2.725 1.567 4.626 1.762 7.185.403-2.67 2.645-4.567 3.805-6.916.453-.917.734-1.95.86-2.958-.17.43-.43.83-.786 1.166-1.508 1.43-3.285 2.84-3.627 4.863-.05.29-.074.587-.158.867-.066.03-.066-.046-.094-.065l.187-2.51c.183-2.447-1.108-5.17.31-7.327zm45.7 0c1.42 2.157.128 4.88.31 7.326l.187 2.51c-.027.02-.027.095-.094.066-.083-.28-.108-.578-.156-.867-.343-2.024-2.12-3.433-3.628-4.863a3.215 3.215 0 0 1-.785-1.166c.124 1.008.405 2.04.858 2.958 1.16 2.35 3.4 4.245 3.804 6.915.197-2.56 1.763-4.46 1.763-7.186 0-2.205-.86-4.004-2.147-5.647-.037-.02-.064-.056-.113-.047zm-23.075.002v3.355a7.462 7.462 0 0 0-2.958.704 7.535 7.535 0 0 0-1.966 1.34l-2.374-2.375a10.836 10.836 0 0 1 2.782-1.942 10.806 10.806 0 0 1 4.516-1.08zm.448 0c1.358.028 2.674.305 3.897.806.336.138.664.292.984.464a.162.162 0 0 0 .058.032c.53.287 1.036.618 1.516.993v.004c.02.134.17.19.17.19l.084.012.178.15v.163c.13-.034.333.122.37.25l-2.333 2.333a7.487 7.487 0 0 0-2.254-1.466 7.48 7.48 0 0 0-2.672-.574zm-10.53.875l2.154 2.152a11.323 11.323 0 0 0-2.117 3.096 11.235 11.235 0 0 0-1.04 4.513h-3.04c.033-2.1.514-4.122 1.395-5.964a14.357 14.357 0 0 1 2.65-3.8zm19.17 1.438c.26.154.457.51.424.576-.037.076.224.058.224.058.04-.343.357-.23.376-.115.02.115.075.363.075.363l.094.17.133.134.206-.02.056.115.244.04s.206.227.224.284c.02.056.3.038.376.056.075.02.188.076.206.17.02.097.132.25.132.25s.224.056.244.133c.02.074.112.246.112.246l.188.152.018.172.206.02.057.227.337-.02.19-.132a1.4 1.4 0 0 0 .157-.098 14.288 14.288 0 0 1 1.203 5.54h-3.036a11.46 11.46 0 0 0-.146-1.593c.02-.076.03-.144 0-.172-.055-.058.058-.324.058-.324s.074-.153 0-.305c-.076-.153.018-.324.074-.4l-.15-.076-.15-.02-.114.02c-.035-.12-.072-.242-.11-.362l.093.018v-.114l-.138-.04c-.026-.078-.055-.157-.083-.235l-.025-.393-.13-.095.036-.152-.15-.058.077-.247-.132-.266h-.19c-.09-.18-.185-.36-.284-.535a.582.582 0 0 1 .23-.067l-.017-.2-.17-.113-.056-.23s-.207.04-.187.154c.004.026-.01.044-.034.06a11.117 11.117 0 0 0-.413-.618l.014-.033c.076-.133.038-.21-.093-.247-.132-.038-.132-.038-.17-.19-.037-.153-.187-.192-.187-.192l-.057-.228-.14.088a9.87 9.87 0 0 0-.226-.255l.067-.215a.173.173 0 0 1-.132-.102zm-12.056.455l-.072.088.113.095.07-.088zm-.43.082l.02.21h.28c.113 0-.094-.133-.094-.133s-.224.017-.206-.078zm12.48.034l-.112.013.018.17.113-.012zm-16.698.455l2.374 2.376a7.526 7.526 0 0 0-1.236 1.763c-.083-.003-.162.014-.185.078-.056.15-.3.114-.3.114l-.04.075-.186.04-.036.113-.226.038.563-.02c.15-.018-.055.325-.15.306l-.26.02-.096.094h-.243l-.11.152-.358-.02s-.206.172-.187.23c.018.056-.04.228-.095.228-.057 0-.168.172-.13.23.036.056-.114.246-.114.246l-.037.19-.114.04v.513l-.225.153v.23l-.103.11H56.87c.032-1.51.37-2.968.983-4.304a10.877 10.877 0 0 1 2.04-2.995zm15.64.038c.08.074.072.104.175.18.036.026.07.04.104.043.062.07.122.137.18.206l-.04.057c0 .22.102.156.203.137.03.038.06.076.092.114.01.127.01.308.21.282h.005c.242.325.463.66.665 1.01l.006.018h.005l.096.168c-.04.04-.063.08-.063.08l-.3.038v.304l-.15.057.018.192.207-.02s0 .23.057.134c.056-.095.526.02.487.248-.013.094.47.342.415.647.04.007.07.02.094.034.09.262.17.526.24.794l-.035.068s.03.02.07.06c.057.235.107.472.15.71-.015.21-.06.408-.165.468-.224.134.02.057.02.057l-.038.42c.057.19.15.096.206 0a.47.47 0 0 1 .093-.11c.03.287.05.576.056.867h-2.27l.04-.05.093-.268.318-.096.037-.247-.168-.02s.187-.343.28-.343c.095 0 .715 0 .77-.038.056-.037.17-.342.17-.4 0-.057.15-.076.206-.094.056-.02.187-.172.224-.25.04-.076-.092-.552-.168-.475-.075.077-.245.114-.245.114l-.056.21-.095.076s.02.058 0 .19c-.02.134-.187.21-.187.21l-.076.096s-.45.025-.505 0c-.17-.077-.057-.305.056-.286.112.02-.02-.324-.02-.324l.15-.02s.02-.342.075-.342c.057 0-.018-.114-.093-.17-.076-.058-.17-.25-.244-.23-.075.02-.375 0-.375 0l-.056.116-.208.037s.018.148-.018.19c-.113.134-.544.42-.357-.057l.057-.114V38.2l-.338-.018s-.17-.057-.17-.134c0-.076-.017-.17-.017-.17l-.396-.438-.47-.058-.036-.095-.28-.038a.678.678 0 0 0-.124-.05 7.366 7.366 0 0 0-.43-.613l-.01-.043c-.018-.067-.224-.357-.337-.37l-.126-.142zm1.847.234c-.025.002-.04.022-.04.06 0 .077.095.114.058.21a.123.123 0 0 0 .113.172c.075 0 .132.037.207.075.075.038.13.094.188.17l.187-.057s.02-.19-.056-.133c-.075.058-.13-.133-.207-.114-.076.02-.113-.075-.188-.17-.075-.096-.057-.116-.15-.173-.047-.028-.085-.043-.11-.04zm-9.87.193v3.044c-.4.02-.78.1-1.14.23h-.006l-.02-.21.096-.055-.152-.058-.11.153-.04.17-.187.038v.096h-.13v.113a4.008 4.008 0 0 0-.767.54L62.9 36.034a7.057 7.057 0 0 1 1.858-1.26 7.03 7.03 0 0 1 2.752-.65zm.448 0a7.02 7.02 0 0 1 4.61 1.91l-.123.122c-.06-.06-.265-.098-.265-.166 0-.074-.187-.17-.168-.055.018.114-.13.17-.17.133-.037-.038-.15.114-.15.114 0 .056-.037.133.075.152.114.02.32-.075.34.04.005.037.01.07.02.102l-.744.742c-.1.006-.198-.008-.198-.008-.055.172-.318-.018-.243-.133.075-.114.075-.19.075-.19l-.093-.02-.113.21c-.262 0-.337.153-.28.248.055.096-.076-.018-.113.115-.038.133.02.133.132.19.11.057-.06.057.017.152.047.06.156.045.194.058l-.14.144c-.13.04-.28.008-.28.008a.11.11 0 0 1-.054.084 3.984 3.984 0 0 0-.99-.6c.058-.042.154-.04.2-.17a3.03 3.03 0 0 0 .114-.553s-.3-.018-.32.077c-.018.095-.205.152-.205.152s-.15.057-.094.134c.057.076-.112.114-.112.114s.01.05.006.1a3.965 3.965 0 0 0-.926-.16zm9.984.647l-.225.02c.057.075.17.132.17.21 0 .075-.04.132.074.152.114.018.188-.02.227.075a.643.643 0 0 1 .018.323c-.018.076.02.19.113.19s.113.02.113.077c0 .057.112-.21.112-.21-.093-.076-.168-.248-.168-.248s-.093-.266-.093-.304c0-.04-.132-.077-.187-.095-.056-.02-.15-.19-.15-.19zm-1.788.076l-.19.02.012.112.188-.018zm.118.134v.095h.113v-.095zm-.15.19s-.113.153-.34.077c0 0-.036.36-.148.436h-.263s.058.096.113.153c.057.056.19.17.057.247-.13.076.02.057.02.057s-.02.4-.19.343c-.168-.058-.224.21-.224.286 0 .075.667.105.563 0-.058-.058.073-.19.073-.19s.452.037.546.037c.092 0 .167-.02.11-.114-.056-.096-.224-.075-.224-.075s-.226.057-.433-.057c-.205-.114.04-.153.076-.153s.205-.133.13-.23c-.074-.094 0-.265 0-.19 0 .077.207.116.245.058.037-.056 0-.228-.095-.286-.094-.057.17-.094.095-.19-.076-.095-.114-.21-.114-.21zm.375.572v.133h.113v-.133zm.253.067l-.057.116.1.05.057-.113zm1.822.155c-.042.014.038.223-.01.255-.057.04-.095.114-.152.172-.056.058.113.133.113.19 0 .057.04.343.04.343s.13.057.148.134c.02.075.002.227.057.246.057.02.17.095.132.17-.04.078-.04.23-.04.23l.076.172.15.094s.057-.457-.038-.475c-.094-.02-.055-.287-.055-.287s.094-.36-.057-.36c-.15 0-.037-.192-.13-.248-.094-.058-.04-.324-.076-.4-.037-.076-.037-.17-.13-.23-.014-.007-.02-.008-.028-.007zm-4.555.367l-.19.02.012.113.188-.02zm-2.847.007a.52.52 0 0 0-.115.014l-.3.038-.02.133.207.02s.093.076.093.133c0 .057.132.114.207.114.076 0 .28-.153.28-.153s.096-.267.02-.248c-.075.02-.224.133-.244.02-.01-.058-.07-.073-.128-.073zm-8.587.01l1.838 1.838-.176-.007c-.076.173-.263-.018-.263-.018-.036-.114-.3 0-.3 0 0 .21-.356-.095-.356-.095l-.657-.476c-.375-.34-.938.097-.957.192.01.144-.117.148-.235.122a7.06 7.06 0 0 1 1.108-1.554zm7.384.05l-.11.024.037.17.11-.024zm.616.03l-.412.018.006.114.412-.02zm-3.525.038v.114h.15v-.114zm.967.02l-.016.112.13.02.016-.115zm.24.056l-.015.113.132.02.016-.113zm-1.517.04l-.017.112.133.018.016-.113zm3.088.002l-.056.02.036.107.055-.018zm4.545.048l-.055.133.104.045.055-.133zm-1.393.024a1.92 1.92 0 0 0 .208.047 6.728 6.728 0 0 1 .257.334l-.24-.038-.15-.02-.28-.02c-.282.192-.34.42-.34.42-.128.246-.41-.016-.4-.19l.498-.5c.03.003.06.005.09.005.113 0 .357-.04.357-.04zm-4.466.04v.113h.15v-.113zm-1.9.02l-.026.112.15.038.03-.11zm-.052.157l-.11.02.02.113.11-.018zm2.23 0l-.112.006.006.135.113-.006zm5.91.05c-.074 0-.153.01-.2.02-.094.018-.075.094 0 .19l.226-.04s.168-.075.13-.132c-.02-.03-.084-.038-.156-.038zm-1.253.116c.07.1.14.2.205.3a.29.29 0 0 0-.016.175c.057.286.15.4-.037.4-.19 0-.226-.15-.226-.15s-.148-.06-.148.017c0 .076-.056.23 0 .304.055.077-.075.19-.132.134-.056-.057-.207-.228-.17-.285.04-.057-.26-.42.04-.476.3-.06-.02-.23.093-.268l.15-.076h.15zm-31.32.073c-.302.634-.424 1.347-.582 2.036-.335 1.78 0 3.673.485 5.31.605 2.05 2.612 3.517 3.63 5.394l.138.112c-.148-1.02-.224-2.117.064-3.09.44-1.557.99-3.07 1.28-4.684.225-1.253.483-2.66.336-3.874-.17.655-.34 1.3-.7 1.858-1.366 2.114-2.768 4.595-1.812 7.278-.022.03-.053.067-.09.047-.383-.886-.47-1.895-.718-2.846-.662-2.52-2.6-4.626-2.032-7.54zm51.203 0c.567 2.915-1.37 5.02-2.033 7.54-.25.952-.335 1.96-.72 2.848-.035.02-.066-.017-.09-.046.96-2.683-.444-5.164-1.81-7.278-.358-.557-.532-1.203-.7-1.858-.147 1.215.11 2.62.336 3.874.29 1.615.842 3.127 1.28 4.684.29.973.213 2.07.065 3.09l.14-.112c1.016-1.877 3.022-3.344 3.63-5.393.483-1.637.818-3.53.483-5.31-.16-.69-.28-1.403-.58-2.037zm-25.64.493l.035.457-.206-.07h-.13l-.058-.115-.114-.02v.42l.113.094.093.095.187.02.04.228.467.02.057.094.28.018.545.552-.038.172-.094.057c.037.133-.244.056-.244.056v.114l.13.02.133.076.188-.324c.206-.133.3.057.318.172.02.114-.094.094-.094.094v.267l.112.038c.188.228-.075.363-.075.363l-.057.19c-.055.17-.262.133-.262.133l-.074.114-.226.056.446.058c.042-.153.154-.19.21-.114.056.075.056.21.056.21l.113.018-.018.21.113.037v.61l.13.15c.226-.094.226.06.114.134-.113.077-.04.42-.04.42l-.092.095v.15l-.113.077v.21c-.188-.096-.413-.058-.47 0-.168-.115-.525-.077-.525.02.113.152-.13.19-.13.19l-.133.15c.094.192-.093.21-.093.21v.364l-.226.21.013.335a3.547 3.547 0 0 1-2.71-.873.096.096 0 0 0 .034-.034c.093-.152.244-.17.244-.17l.057-.135.507.02c.037-.21.28-.134.28-.04 0 .097.188.02.188.02l.13-.21h.208l.02-.228.093-.056v-.344c.3-.095.263-.382.263-.382l.074-.095-.037-.134c-.15-.057-.076-.19.02-.152.093.038-.133-.172-.133-.172-.112.096-.205-.114-.205-.114h-.283v-.266l-.037-.25-.28-.132-.207.19-.04.267v.172l-.186.037-.037.514-.15.06.02.19-.208.056-.207.057-.037.248-.15.096-.076.23-.09.538a3.565 3.565 0 0 1-.643-.926c.035-.134.04-.26.04-.26-.17-.078-.075-.345.112-.115.187.228-.113-.458-.113-.458l-.15-.133-.194-.018a3.695 3.695 0 0 1-.045-.56c0-.08.003-.157.01-.235.052-.055.116-.027.116-.027l.113.096.17.133.018.114-.11.056-.02.154.056.208h.15c.056-.304.45-.304.563-.114l.112-.265c-.263-.133-.004-.343.07-.248.075.096.25-.248.25-.248s.13.17 0-.058c-.132-.228.092-.342.092-.342-.037-.23.244-.19.244-.19l.02-.306-.264-.02c-.055.267-.28.04-.168-.018.113-.057.225-.172.225-.172v-.19l.114-.038.018-.19h.282l.244-.115.056-.094.263-.02.375-.342-.037-.152c-.225 0 0-.172 0-.172l.037-.284h-.207l-.036-.404c.254-.06.52-.093.787-.096zm11.428 1.105l-.02.153.113.015.018-.153zm-.07.514l-.056.114.1.05.057-.113zm-19.474.757a.517.517 0 0 1 .308.087l.263-.02a.41.41 0 0 1 .135.147 7.66 7.66 0 0 0-.05.535c-.026.05-.048.08-.048.08a.36.36 0 0 0-.04.15h-.714l.003-.017-.207-.02c-.226-.133-.113-.627-.113-.627.156-.234.323-.307.462-.315zm6.52.353l-.038.096h-.094l-.02.15h.114l.02.115-.077.076-.037.097-.15.038-.34.324-.017.15-.094.135-.113.285-.394.02-.076.342.056.285.338.134.04-.19.11-.057.02-.19.075-.134.114-.134.035-.152.188-.114.225-.04.095-.113.037-.228.014-.172.08-.115.224-.095v-.362h-.11l-.02-.134zm11.774.116l-.02.11.208.04.02-.114zm-.47.164l-.055.032-.14.08-.12-.078-.06.096.15.095.03.017.027-.016.113-.063.015.035.104-.042-.038-.096zm-1.444.79h2.632a10.782 10.782 0 0 1-.928 4.17 10.895 10.895 0 0 1-2.08 3.106 8.688 8.688 0 0 0-.122-.804l-.15-.075.037-.458h-.204l-.34.44-.036.12-.192-.193.098-.1-.02-.23.133-.113v-.19l.112-.038.018-.42.094-.02v-.914l-.282-.266c-.02.095-.32.095-.32.095s-.074.133-.13.133c-.056 0 .076.17.037.285-.038.114-.188.114-.188.114l-.282.077-.075.095h-.3l-.025-.167.09-.11.235-.067.188-.095.093-.19c.02-.19.245-.17.245-.17s.432-.363.45-.533c.02-.172.17-.648.433-.648h.488c.188-.078.132-.325.132-.325l.243-.038.04.133s.336.038.374-.018c.037-.058.11-.19.205-.135.094.058.394-.133.394-.133.018-.133.487-.076.487-.076l.056-.17s-.318-.44-.375-.44c-.056 0-.356-.266-.394-.17-.3-.076-.282-.496-.282-.496l-.112-.267c0-.152-.28-.476-.338-.438-.118-.087-.147-.18-.14-.262zm3.08 0h3.038a14.25 14.25 0 0 1-1.348 5.846h.002a14.387 14.387 0 0 1-2.702 3.914l-.082-.084-.026-.48-.095-.096-.02-.476c.075-.25-.356-.61-.393-.533-.037.076-.28.018-.28.095 0 .075-.15.457-.077.59.005.007.006.014.01.02l-1.18-1.18c.92-.956 1.65-2.048 2.176-3.227a11.266 11.266 0 0 0 .977-4.388zm3.487 0h3.354a18.037 18.037 0 0 1-1.81 7.67h.002a18.237 18.237 0 0 1-3.356 4.777l-2.366-2.365a14.8 14.8 0 0 0 2.783-4.015 14.72 14.72 0 0 0 1.392-6.065zm-25.66.004h1.317l.014.107-.28.305.037.304-.17.057-.036.135-.074.4.187.02c.094-.04.075.246 0 .285-.075.037-.282.114-.17.19.114.076-.3.057-.3-.057s-.224-.21-.28-.172c-.033.024-.077-.037-.11-.092-.075-.486-.122-.98-.132-1.48zm1.94 0h.094c.05.01.085.03.085.03l.262.02.026-.05h.893l.077.487-.245.21c-.206.114-.206.38.02.438.15.018.092.38-.132.134-.338 0 .187.303.037.228.34.17.263-.153.263-.153l.17-.136a7.555 7.555 0 0 0 .297 1.096 7.463 7.463 0 0 0 1.61 2.62l-2.373 2.374a10.758 10.758 0 0 1-.444-.493c.028-.12.102-.242.102-.242.244-.15-.056-.4-.056-.4.037-.228-.13-.494-.13-.494-.34-.23-.246-.667-.246-.667v-.306c-.28-.267.113-.305.113-.305.13-.23-.094-.4-.094-.4l-.02-.248-.3-.038-.038-.895-.675-.972c-.132-.04-.038-.268-.038-.268.168-.095-.038-.323-.038-.323l-.02-.418.394-.04.095-.152h.19l-.02-.496c.034-.09.088-.13.14-.144zm4.695 0h.213c.007.133.02.265.042.396l-.117.034-.038-.076-.056.21h-.34l-.017-.23.207-.057.074-.114zm5.56.26c-.03-.005-.065.018-.093.094v.247s.263.418.356.476c.094.057.245-.07.15-.133-.28-.19-.26-.438-.337-.61-.015-.037-.043-.07-.075-.076zm-9.813.17l.02.133h.093c.15.27.018.915.018.915s-.225.02-.263-.094c-.037-.113-.13.248-.055.305.074.057.337 0 .355.21.02.21.17-.134.17-.134v-1.294zm9.025.382l-.337.248c.17.02.187.19.207.266.04.166.037-.267.11-.247.077.018.02-.267.02-.267zm-7.506.155c.16.055.34.314.34.358 0 .058.75.02.75.02.206.132.282.476.282.476.207-.27.638-.02.318.132.3.19.3.36.3.36.244-.075.246.116.246.173 0 .057.074-.286.074-.286-.28-.21.375-.287.187.094l-.112.17.188.154.018.438c.414-.037.3-.552.3-.552l.19-.04c0-.17.13-.074.13-.074-.09-.45.09-.64.207-.716.15.28.332.54.548.78l-2.152 2.153a7.05 7.05 0 0 1-1.49-2.415 7.11 7.11 0 0 1-.322-1.227zm17 .444c-.154-.01-.353.104-.297.18.113.153.3.076.375.095.076.02.15.058.076-.17-.024-.072-.085-.102-.155-.106zm-17.843.266a.08.08 0 0 0-.08.082c0 .044.036.08.08.08a.08.08 0 0 0 .08-.08.08.08 0 0 0-.08-.082zm-.207.257l-.282.19-.187-.114v.457l.302.4.112-.268.038-.172-.132-.057.018-.285.114-.02zm6.943.476l-.168.018.02.267.11.094.207.057s.282-.077.3-.305l-.43-.02zm2.366.145c.156 0 .123.38.114.508-.11.047-.224.09-.342.126v-.42l.188-.21a.132.132 0 0 1 .04-.005zm-3.976.22a3.98 3.98 0 0 0 2.342 1.008v.007s-.07.17.013.2l.02.01c.054.022.04.037.078.075l-.042.1-.01-.008c-.063-.068-.1.082-.06.123.042.043-.1.014-.1.072 0 .056-.04.085 0 .114.043.028-.013.043-.07.086-.056.043.24.056.24.056s-.057-.114.013-.114h.03v.19c-.025-.006-.05-.01-.077-.018v.133l-.15.018.13.15.098.014v.31l-.002.02c0 .248-.62.076-.676.02l-.02.343-.112.018.02.23-.02.323.207-.038v.133l.507.02.097-.104v.353l-.002.017-.34.038-.148.077-.057-.115h-.15l-.092.13a7.13 7.13 0 0 1-1.3-.315v-.002a7.022 7.022 0 0 1-2.517-1.524zm-17.888.184c.253 1.658-.405 3.123-.558 4.702a7.082 7.082 0 0 0 .606 3.646c.15.323.42.615.495.944-.487-.438-.832-.998-1.167-1.54-1.568-2.54-4.858-4.19-5.08-7.28-.114 1.374.004 2.83.463 4.052.636 1.695 1.86 2.998 3.27 4.108 1.46 1.15 3.2 2.047 4.527 3.057-.262-.662-.686-1.273-.86-1.97-.78-3.156-.344-6.803-1.697-9.72zm41.138 0c-1.35 2.917-.916 6.564-1.697 9.72-.172.697-.597 1.308-.86 1.97 1.33-1.01 3.07-1.908 4.528-3.058 1.41-1.11 2.634-2.413 3.27-4.108.458-1.22.577-2.678.464-4.052-.224 3.09-3.514 4.74-5.082 7.28-.335.542-.68 1.102-1.166 1.54.076-.33.347-.62.496-.944.502-1.09.73-2.35.605-3.646-.154-1.58-.81-3.044-.56-4.703zm-16.355.064c.048 0 .083.025.062.09-.057.17 0 .248 0 .248.244-.23.45.018.43.075-.018.058.133.114.226.058.095-.058.206.17.17.284-.038.115-.376.095-.395-.02-.02-.114-.076-.075-.113-.018-.03.05-.158.083-.253.057l-.08-.082c.008-.02.026-.04-.004-.072-.027-.027-.06-.028-.096-.028l-.172-.17c.002-.118.035-.267.024-.315-.012-.048.115-.11.2-.11zm-12.21.07l-.13.02-.022.152.152.02zm23.455.166a.505.505 0 0 0-.223.083l.062.094c.073-.048.165-.07.187-.06l-.005-.007.112-.018a.103.103 0 0 0-.062-.08.155.155 0 0 0-.07-.012zm-23.403.192a.08.08 0 0 0-.08.08.08.08 0 0 0 .158 0 .08.08 0 0 0-.078-.08zm9.358.09a.34.34 0 0 0 .028.104l.094.04-.17.132-.15.17-.187-.055-.225-.02-.075-.132-.13-.02-.02.268-.094.114-.224.23c.236 0 .078.127-.037.182v-.762c.242-.014.48-.05.713-.104l.036.035h.168l.01-.093c.088-.026.175-.055.262-.087zm-9.227.31a.08.08 0 0 0-.08.08.08.08 0 0 0 .08.082.08.08 0 0 0 .08-.08.08.08 0 0 0-.08-.082zm7.093.06c-.094-.005-.174.288-.212.364 0 0 .043.157.127.144.085-.015.142-.058.212-.073.07-.013.1-.128.126-.242.028-.114-.028-.172-.028-.172s-.07.115-.182 0a.07.07 0 0 0-.042-.02zm-7.446.154l-.16.018v.135l.16-.02zm11.297 0h.13l.02.095.574.055.028.004c.224.132.112.303.037.34a.57.57 0 0 1-.206.04l-.04.076-.486.037-.04.19c-.243-.038-.336.23-.28.362.057.133 0 .248 0 .248l.207.095.263-.075c.038-.19.206-.23.356-.344.15-.115.394.208.32.36a1.36 1.36 0 0 0-.023.048 6.986 6.986 0 0 1-.903.527 6.97 6.97 0 0 1-1.57.546l-.02-.014-.207-.058-.018-.284c-.038-.19-.395-.19-.377-.058.02.133-.67.058-.674.058V47.2l.187-.2.43-.096c.038-.19.225.04.225.04.188-.02.226.113.226.113l.244.038c.207.058.08.077.094.152.018.114.113.076.113.076l.036-.247.113.02-.114-.134-.207-.096-.227-.095c-.15-.21.04-.17.19-.15h.243s.282.38.282.475c0 .095.13.114.13.114l.17-.02.056.133h.17l.055.114h.337l.02-.17-.32-.058-.02-.192-.224-.057c-.076-.322.056-.417.15-.265l.112.018-.037-.285.13-.04-.037-.398-.11-.04v-.132l.468.02c-.037-.248.02-.362.02-.362zm13.58.87l-.1.05a.217.217 0 0 1 .018.078c.003.034.006.072.04.096.018.016.044.02.074.015l-.022-.11c.01 0 .02.008.022.016l-.003-.026a.306.306 0 0 0-.03-.12zm-.108.21l-.11.03c.028.115.07.23.072.234l.106-.04c0-.002-.043-.114-.07-.223zm-8.81.11v.364h.132v-.363zm-4.054.095l-.15.096.06.097.15-.096zm12.232.263c-.01.09.013.2.1.22l.023-.113h.004c-.01-.008-.02-.053-.014-.096zm-.063.213c-.034.002-.08.038-.12.063-.113.07-.07.357 0 .285.07-.07.155 0 .17-.215.006-.107-.016-.137-.05-.134zm-11.666.147l.444.227c.056.075.3.056.3.056l.076.096s.15-.02.244.095c.093.114.58.02.58.02l.133.113.206.077.347.01.217.218c-.34.155-1.027.1-1.07.056-.058-.055-.45-.227-.45-.227s-.3-.247-.357-.17c-.057.076-.32-.096-.32-.038 0 .056-.244-.134-.244-.134l-.374-.133.28-.056-.045-.186.032-.02zm-20.385 1.12v.192h.15v.247h.113l-.02-.285-.15-.057v-.096zm27.413.097l-.015.17.183.014.014-.156zm-.152.403l-.036.108a.21.21 0 0 1 .035.02l.024.1c-.01.01-.02.023-.026.03l.082.08c.06-.07.083-.133.067-.196-.025-.097-.134-.137-.147-.14zm-3.28.338l.825.83c-.037.138-.167.22-.24.163-.076-.058.093.094.13.17.04.077.15.077.19 0 .024-.05.024-.143.033-.222l.38.382c-.048.098-.098.198-.077.26l.17.077.018.323c.126.128.41.123.636.085l.077.077a14.37 14.37 0 0 1-2.272 1.793v-.183c.338-.248.357-.686.038-.725-.243-.028-.13-.285.094-.324l.13-.056v-.172l.432-.4v-.304l-.938-.78c-.192-.07-.204-.305-.137-.534.173-.147.344-.3.51-.46zm-23.043.04l.132.343.076.172.15.208.206.19.076-.132-.132-.285-.13-.096-.096-.267zm-3.67.28c1.14 2.277.65 5.214 2.128 7.362.462.672 1.11 1.316 1.707 1.856l-.03.03c-.54-.253-1.027-.63-1.52-1.04-2.587-2.15-6.478-2.425-8.027-5.93.42 2.573 2.465 4.853 4.67 6.298 2.098 1.374 4.787 1.22 7.117 1.99-2.153-1.737-2.48-4.345-3.44-6.63-.596-1.42-1.568-2.698-2.603-3.937zm37.744 0c-1.036 1.238-2.007 2.516-2.604 3.936-.96 2.285-1.286 4.893-3.44 6.63 2.33-.77 5.02-.616 7.118-1.99 2.207-1.445 4.25-3.725 4.67-6.3-1.548 3.507-5.44 3.78-8.027 5.933-.492.408-.98.785-1.52 1.037l-.028-.03c.597-.54 1.243-1.183 1.705-1.855 1.48-2.148.987-5.085 2.127-7.363zm-29.438.823c.165.003.386.19.41.268a.375.375 0 0 0 .128.144l-.278.277c-.175-.18-.343-.364-.508-.552H57c.03-.1.094-.137.17-.135zm11.015 1.05a.845.845 0 0 1 .097 0 .62.62 0 0 1 .314.094c.207.153.488.058.488.058l.207.252c-.436.063-.88.1-1.33.11v-.45a.442.442 0 0 1 .225-.063zm9.854.274l2.365 2.366a18.237 18.237 0 0 1-4.5 3.214 18.04 18.04 0 0 1-7.946 1.95v-3.355a14.775 14.775 0 0 0 3.985-.607l.33.1.092.305.15-.02.113-.094.45-.02.227-.21.243-.037 1.77-1.506a14.82 14.82 0 0 0 2.72-2.087zm-8.526.552l.04.087.32.095.223.057.076.322.168.02.058.21c.206.152-.057.476-.057.476v.42l.15.074-.018.154.245.247.28.02.467.497a14.24 14.24 0 0 1-3.505.493v-3.037c.524-.01 1.043-.057 1.554-.137zm-4.537.31l-.113.094-.056.048.06.043.13.094.067-.092-.074-.053.06-.048zm1.337 1.363l-.05.103.117.06-.037.038.08.08.093-.095.056-.056-.07-.036zm-9.503.965l.153.23.018.17.188.058.076.114.13-.076-.093-.248-.243-.21zm-4.224.214c1.408 1.894 1.808 4.646 4.38 5.615.456.17.98.2 1.373.45-.497.076-.93-.078-1.392-.176-3.314-.704-7.364.204-9.847-2.62.943 1.846 2.884 3.303 4.75 3.918 2.888.954 5.9-.11 8.614-.783.392-.097.867-.066 1.23-.2-1.512-.306-2.97-.764-4.14-1.835-1.68-1.537-3.17-3.174-4.968-4.368zm30.298 0c-1.797 1.194-3.286 2.83-4.968 4.368-1.17 1.07-2.627 1.53-4.14 1.836.364.133.84.102 1.23.2 2.716.673 5.726 1.736 8.616.782 1.865-.615 3.806-2.072 4.75-3.92-2.485 2.826-6.534 1.918-9.85 2.623-.46.1-.894.253-1.39.177.394-.25.917-.28 1.372-.45 2.573-.97 2.974-3.72 4.38-5.615zm-17.88 6.132c-2.544 0-4.816 1.23-7.05 2.155-2.02.838-4.698.672-6.487-.562.885 1.11 2.07 1.795 3.293 2.26 2.273.905 4.925.21 6.86-1.026 1.392-.89 2.587-2.153 4.245-2.153.294 0 .588.033.884.095.324-.13.653-.247.986-.348a9.448 9.448 0 0 0-2.73-.423zm2.732.423c.333.1.66.218.986.348.296-.062.59-.096.884-.096 1.658 0 2.853 1.26 4.246 2.152 1.934 1.236 4.587 1.93 6.86 1.025 1.222-.464 2.406-1.148 3.29-2.26-1.787 1.235-4.467 1.4-6.487.562-2.232-.927-4.504-2.156-7.05-2.156-.924 0-1.84.154-2.73.423zm.986.348c-.327.07-.657.173-.986.308 2.082.85 4.172 2.914 6.014 4.818.372-.298.766-.623 1.07-.97-1.652-1.58-3.77-3.222-6.098-4.155zm-.986.308c-.33-.135-.66-.24-.987-.308-2.33.933-4.447 2.576-6.098 4.154.303.347.697.672 1.068.97 1.843-1.903 3.933-3.966 6.016-4.817z" fill="#fff"/><path d="M66.75 62.115c.068-.078.84-.36.986-.348.17-.004.986.306.986.348-.016.072-.88.326-.986.308-.057.003-.982-.27-.987-.308z" fill="#fff"/></g></svg>
