<svg xmlns="http://www.w3.org/2000/svg" xmlns:svg="http://www.w3.org/2000/svg" xmlns:xlink="http://www.w3.org/1999/xlink" id="svg2" width="1000" height="666.667" version="1.1"><metadata id="metadata24"/><rect id="rect4" width="1000" height="666.667" fill="#002868"/><path id="rect6" fill="#bf0a30" d="M 0,0 L 1000,0 L 1000,333.33334 L 0,333.33334 z"/><use id="use3885" width="1000" height="666.667" x="0" y="0" transform="matrix(-1,0,0,1,1000,0)" xlink:href="#path3787"/><use id="use3887" width="1000" height="666.667" x="0" y="0" transform="matrix(-1,0,0,1,1000,0)" xlink:href="#path3805"/><use id="use3889" width="1000" height="666.667" x="0" y="0" transform="matrix(-1,0,0,1,1000,0)" xlink:href="#path3811"/><path id="path3783" fill="#f0f" stroke="none" d="M 0,217.03334 L 500,333.33369 L 0,78.13299 z"/><path id="path3787" fill="#fed700" fill-opacity="1" stroke="none" d="M 0,217.03334 L 500,333.33369 L 0,78.13299 z"/><path id="path3805" fill="#fed700" fill-opacity="1" stroke="none" d="M 114.6,8.7011719e-5 L 500,333.33339 L 258.7,2.1011719e-5 z"/><path id="path3811" fill="#fed700" fill-opacity="1" stroke="none" d="M 369.8,8.7011719e-5 L 500,333.33339 L 453.1,2.1011719e-5 z"/><path id="path18" fill="#ce5c17" d="M 500.00002,166.47682 L 608.36826,500 L 324.65651,293.87133 H 675.34351 L 391.63176,500 z"/></svg>