<svg xmlns="http://www.w3.org/2000/svg" width="1200" height="600" viewBox="0 0 48 24"><clipPath id="c"><path d="M0,0V6H22V12H21zM21,0H10.5V13H0V12z"/></clipPath><rect width="48" height="24" fill="#00247d"/><g><path stroke="#fff" stroke-width="2.4" d="M0,0 21,12M21,0 0,12"/><path stroke="#cf142b" stroke-width="1.6" d="M0,0 21,12M21,0 0,12" clip-path="url(#c)"/><path stroke="#fff" stroke-width="4" d="M10.5,0V15M0,6H24"/><path stroke="#cf142b" stroke-width="2.4" d="M10.5,0V15M0,6H24"/></g><path fill="#fff" d="M21,12V9L24,6 21,3V0H48V24H0V18z"/><path fill="#00247d" d="M21,6V9H48V3zM0,15V18H48V12z"/><path stroke="#cf142b" stroke-width="3" d="M21,4.5H48M0,13.5H48M0,22.5H48"/></svg>