<svg xmlns="http://www.w3.org/2000/svg" xmlns:xlink="http://www.w3.org/1999/xlink" width="750" height="500" version="1.1" viewBox="0 0 360 240"><defs><path id="cross" d="M0,215 a32 32 0 0 0 32 -32 v-16 h31 a32 32 0 0 0 0 -64 h-31 V32 H231 v31 a32 32 0 0 0 64 0 v-31 h28 a32 32 0 0 0 32 -32 L0,0 z" transform="scale(.24)"/></defs><g id="q1"><rect width="180" height="120"/><path fill="#EAAB00" d="M0,120 v-100 l30,20 v80 h30 v-120 h30 v120 h30 v-120 h30 v120 h30 v-20 L30,0 v40 L150,120 z"/></g><g id="q2"><rect width="180" height="120" x="180" fill="#fff"/><path fill="#981E32" d="M270,0 h90 v60 h-180 v60 h90 z"/><g transform="translate(270,60)"><use fill="#981E32" xlink:href="#cross"/><use fill="#fff" transform="scale(-1 1)" xlink:href="#cross"/><use fill="#fff" transform="scale(1 -1)" xlink:href="#cross"/><use fill="#981E32" transform="scale(-1)" xlink:href="#cross"/></g></g><use id="q3" x="-180" y="120" xlink:href="#q2"/><use id="q4" x="180" y="120" xlink:href="#q1"/></svg>