<svg xmlns="http://www.w3.org/2000/svg" xmlns:xlink="http://www.w3.org/1999/xlink" width="900" height="600" viewBox="0 0 1107 738"><defs><path id="s" fill="#fff" d="M0,-1 L0.58779,0.80902 L-0.95106,-0.30902 L0.95106,-0.30902 L-0.58779,0.80902z" transform="scale(3)"/><clipPath id="canton"><path d="M0,0h60.5v60.5h-60.5z"/></clipPath></defs><rect width="1107" height="738" fill="#bf0a30"/><g clip-path="url(#canton)" transform="scale(8)"><path stroke="#fff" stroke-width="12" d="M0,0L60,60M0,60L60,0"/><path stroke="#002868" stroke-width="9" d="M0,0L60,60M0,60L60,0"/><g id="s6"><use x="6" y="6" xlink:href="#s"/><use x="14" y="14" xlink:href="#s"/><use x="22" y="22" xlink:href="#s"/><use x="38" y="38" xlink:href="#s"/><use x="46" y="46" xlink:href="#s"/><use x="54" y="54" xlink:href="#s"/></g><use x="-60" transform="scale(-1,1)" xlink:href="#s6"/><use x="30" y="30" xlink:href="#s"/></g><path fill="#fff" d="M480,0H1107V492H0v-12H480z"/><rect width="615" height="246" x="492" fill="#002868"/></svg>